<svg id="Calque_1" data-name="Calque 1" xmlns="http://www.w3.org/2000/svg" xmlns:xlink="http://www.w3.org/1999/xlink" viewBox="0 0 314.93 297"><defs><style>.cls-1{fill:none;}.cls-2{fill:#7488d4;}.cls-3{clip-path:url(#clip-path);}.cls-4{fill:#242946;}.cls-5{fill:#242a56;}.cls-6{fill:#1b2046;}.cls-7{fill:#303662;}.cls-8{fill:#343b62;}.cls-9{fill:#373b3d;}.cls-10{fill:#a569c2;}.cls-11{fill:#4655c9;}.cls-12{fill:#566be6;}.cls-13{fill:#3a4794;}.cls-14{fill:#3f4950;}.cls-15{fill:#2e363b;}.cls-16{fill:#9b8d5b;}.cls-17{fill:#e2c76f;}.cls-18{fill:#d8c0e5;}.cls-19{fill:#ebdef3;}.cls-20{fill:#92a3f6;}.cls-21{fill:#fff;}.cls-22{fill:#dedede;}.cls-23{fill:#f9f9f9;}.cls-24{fill:#c5cdf2;}.cls-25{fill:#e0e3f5;}.cls-26{fill:#b3bdef;}.cls-27{fill:#bac5f7;}.cls-28{fill:#dbe1fa;}.cls-29{fill:#4d5963;}</style><clipPath id="clip-path" transform="translate(-0.02 0)"><rect class="cls-1" width="273.55" height="297"/></clipPath></defs><polygon class="cls-2" points="161.68 0 161.68 233.64 109.39 233.64 109.39 297 161.68 297 314.93 297 314.93 233.64 314.93 0 161.68 0"/><g class="cls-3"><g id="Groupe_3017" data-name="Groupe 3017"><path id="Tracé_9994" data-name="Tracé 9994" class="cls-2" d="M266.69,189.78a8.56,8.56,0,0,1,2.15,5.19,8.89,8.89,0,0,1-4.11,6.87L114.51,289a9,9,0,0,1-8.22,0L10,233.13a8.89,8.89,0,0,1-4.11-6.87A8.56,8.56,0,0,1,8,221.07l-1.6.93a9.63,9.63,0,0,0,0,17.16l96.3,55.89a16.06,16.06,0,0,0,15.34,0l150.22-87.18a9.63,9.63,0,0,0,0-17.16Z" transform="translate(-0.02 0)"/></g></g><g class="cls-3"><g id="Groupe_3018" data-name="Groupe 3018"><path id="Tracé_9995" data-name="Tracé 9995" class="cls-4" d="M5.88,226.27A8.88,8.88,0,0,0,10,233.14L106.29,289a9,9,0,0,0,8.23,0l150.22-87.18a7.8,7.8,0,0,0,0-13.74l-96.3-55.89a9,9,0,0,0-8.23,0L10,219.4a8.89,8.89,0,0,0-4.11,6.87" transform="translate(-0.02 0)"/></g></g><g class="cls-3"><g id="Groupe_3019" data-name="Groupe 3019"><path id="Tracé_9996" data-name="Tracé 9996" class="cls-5" d="M10,224.17l96.3,55.89a9,9,0,0,0,8.23,0L264.7,192.88c2.27-1.32,2.27-3.46,0-4.78l-96.3-55.89a9,9,0,0,0-8.23,0L10,219.39c-2.27,1.33-2.27,3.47,0,4.78" transform="translate(-0.02 0)"/></g></g><g class="cls-3"><g id="Groupe_3020" data-name="Groupe 3020"><path id="Tracé_9997" data-name="Tracé 9997" class="cls-6" d="M110.41,281.06V290a8.31,8.31,0,0,1-4.11-1L10,233.1a7.77,7.77,0,0,1-.41-13.47c-1.84,1.33-1.7,3.28.42,4.51l96.3,55.9a8.27,8.27,0,0,0,4.1,1" transform="translate(-0.02 0)"/></g></g><g class="cls-3"><g id="Groupe_3021" data-name="Groupe 3021"><path id="Tracé_9998" data-name="Tracé 9998" class="cls-7" d="M2,219.55c-2.13-1.24-2-3.33-2-6V95.32a9.15,9.15,0,0,1,4.11-7.16L154.33,1c2.27-1.32,5.58-1.33,7.5.21s2.49,3,2.49,5.6V125.05a9.15,9.15,0,0,1-4.11,7.16L10,219.39a8.75,8.75,0,0,1-8,.16" transform="translate(-0.02 0)"/></g></g><g class="cls-3"><g id="Groupe_3022" data-name="Groupe 3022"><path id="Tracé_9999" data-name="Tracé 9999" class="cls-6" d="M164.32,6.79c0-2.63-1.84-3.7-4.11-2.39L10,91.59A8.38,8.38,0,0,0,7,94.68L1.17,91.25h0a8.46,8.46,0,0,1,2.91-3.09L154.32,1c2.27-1.32,5.59-1.34,7.5.21s2.5,3,2.5,5.6" transform="translate(-0.02 0)"/></g></g><g class="cls-3"><g id="Groupe_3023" data-name="Groupe 3023"><path id="Tracé_10000" data-name="Tracé 10000" class="cls-6" d="M9.51,219.65a8.84,8.84,0,0,1-7.49-.1c-2.13-1.23-2-3.32-2-6V95.32a8.36,8.36,0,0,1,1.21-4.07L7.1,94.67h0a8.47,8.47,0,0,0-1.21,4.07V217c0,2.44,1.58,3.54,3.63,2.63" transform="translate(-0.02 0)"/></g></g><g class="cls-3"><g id="Groupe_3024" data-name="Groupe 3024"><path id="Tracé_10001" data-name="Tracé 10001" class="cls-6" d="M12.21,96.36,156.77,12.48c1.36-.79,2.47-.15,2.47,1.43v110a5.52,5.52,0,0,1-2.47,4.3L12.21,212.07c-1.36.79-2.47.15-2.47-1.43v-110a5.46,5.46,0,0,1,2.47-4.29" transform="translate(-0.02 0)"/></g></g><g class="cls-3"><g id="Groupe_3025" data-name="Groupe 3025"><path id="Tracé_10002" data-name="Tracé 10002" class="cls-5" d="M12.21,96.36a5.52,5.52,0,0,0-2.47,4.3V208.72L152.65,125.8a5.5,5.5,0,0,0,2.47-4.3V13.44Z" transform="translate(-0.02 0)"/></g></g><g class="cls-3"><g id="Groupe_3026" data-name="Groupe 3026"><path id="Tracé_10003" data-name="Tracé 10003" class="cls-6" d="M22.7,220.1,160.7,140a4.28,4.28,0,0,1,3.88,0l5,2.84a1.19,1.19,0,0,1,0,2.25l-138,80.1a4.28,4.28,0,0,1-3.88,0l-5-2.82a1.19,1.19,0,0,1,0-2.25" transform="translate(-0.02 0)"/></g></g><g class="cls-3"><g id="Groupe_3027" data-name="Groupe 3027"><path id="Tracé_10004" data-name="Tracé 10004" class="cls-6" d="M36.25,228.14l138-80.12a4,4,0,0,1,3.54-.19l35.93,20.85c.89.51.74,1.44-.33,2.06l-137.88,80a4,4,0,0,1-3.55.2L36,230.19c-.88-.51-.74-1.43.33-2.05" transform="translate(-0.02 0)"/></g></g><g class="cls-3"><g id="Groupe_3028" data-name="Groupe 3028"><path id="Tracé_10005" data-name="Tracé 10005" class="cls-8" d="M109.18,193.25a.7.7,0,0,0,.63,0l4.32-2.51c.18-.11.2-.27,0-.36L110,188a.7.7,0,0,0-.63,0L105,190.49c-.18.11-.2.27,0,.36ZM161,161.45a.77.77,0,0,0,.63,0l4.32-2.51c.18-.11.2-.27,0-.36l-1.1-.64a.7.7,0,0,0-.63,0l-4.32,2.51c-.18.11-.2.27,0,.37Zm33.35,11.64,4.32-2.51c.18-.11.2-.27,0-.36l-4.14-2.4a.7.7,0,0,0-.63,0l-4.32,2.51c-.18.11-.2.27,0,.36l4.13,2.4a.72.72,0,0,0,.64,0m-12-13.93a.7.7,0,0,0,.63,0l4.32-2.51c.18-.11.2-.27,0-.36l-4.14-2.4a.77.77,0,0,0-.63,0l-4.32,2.51c-.18.11-.2.27,0,.36Zm-8.69-5a.7.7,0,0,0,.63,0l4.32-2.51c.18-.11.2-.27,0-.37l-1.1-.64a.77.77,0,0,0-.63,0l-4.32,2.51c-.18.11-.2.27,0,.36Zm-19,11a.77.77,0,0,0,.63,0l4.32-2.51c.18-.11.2-.27,0-.36l-1.1-.64a.7.7,0,0,0-.63,0l-4.32,2.51c-.18.11-.2.27,0,.36ZM121.82,186a.77.77,0,0,0,.63,0l4.32-2.51c.18-.11.2-.27,0-.36l-4.13-2.4a.7.7,0,0,0-.63,0l-4.32,2.51c-.18.11-.2.27,0,.36Zm-6.32,3.67a.7.7,0,0,0,.63,0l4.32-2.51c.18-.11.2-.27,0-.37l-4.14-2.4a.77.77,0,0,0-.63,0l-4.32,2.51c-.18.11-.2.27,0,.37Zm26.67-15.48a.7.7,0,0,0,.63,0l4.32-2.51c.18-.11.2-.27,0-.36l-4.13-2.4a.7.7,0,0,0-.63,0L138,171.38c-.18.11-.2.27,0,.36Zm-14,8.15a.7.7,0,0,0,.63,0l4.32-2.51c.18-.11.2-.27,0-.37L129,177a.7.7,0,0,0-.63,0L124,179.51c-.18.11-.2.27,0,.36Zm20.34-11.81a.77.77,0,0,0,.63,0l4.32-2.51c.18-.11.2-.27,0-.36l-4.14-2.4a.7.7,0,0,0-.63,0l-4.32,2.51c-.18.11-.2.27,0,.36Zm-12.63,7.33a.7.7,0,0,0,.63,0l4.32-2.51c.18-.11.2-.27,0-.36l-4.14-2.4a.7.7,0,0,0-.63,0L131.75,175c-.18.11-.2.27,0,.36Zm31.4-20a.7.7,0,0,0,.63,0l4.32-2.51c.18-.11.2-.27,0-.36l-1.1-.64a.7.7,0,0,0-.63,0l-4.32,2.51c-.18.11-.2.27,0,.37Zm-34.48,51,4.32-2.51c.18-.11.2-.27,0-.36l-4.14-2.4a.7.7,0,0,0-.63,0L128,206.05c-.18.11-.2.27,0,.37l4.13,2.4a.72.72,0,0,0,.64,0m-12.63,7.33,4.32-2.51c.18-.11.2-.27,0-.37l-4.14-2.4a.7.7,0,0,0-.63,0l-4.32,2.51c-.18.11-.2.27,0,.37l4.14,2.4a.7.7,0,0,0,.63,0m6.32-3.66,4.32-2.51c.18-.11.2-.27,0-.36l-4.14-2.4a.7.7,0,0,0-.63,0l-4.32,2.51c-.18.11-.2.27,0,.36l4.13,2.4a.79.79,0,0,0,.64,0m-25.27,14.66,4.32-2.51c.18-.11.2-.27,0-.36l-4.14-2.4a.7.7,0,0,0-.63,0l-4.32,2.51c-.18.11-.2.27,0,.37l4.14,2.4a.7.7,0,0,0,.63,0m12.63-7.33,4.32-2.51c.18-.11.2-.27,0-.36l-4.14-2.4a.7.7,0,0,0-.63,0l-4.32,2.51c-.18.11-.2.27,0,.36l4.14,2.4a.7.7,0,0,0,.63,0m-6.31,3.66,4.32-2.51c.18-.11.2-.27,0-.36l-4.13-2.4a.7.7,0,0,0-.63,0l-4.32,2.51c-.18.11-.2.27,0,.36l4.14,2.4a.68.68,0,0,0,.62,0m59.55-34.9a.7.7,0,0,0,.63,0l4.32-2.51c.18-.11.2-.27,0-.36l-4.14-2.4a.7.7,0,0,0-.63,0L163,185.79c-.18.11-.2.27,0,.36Zm-28,16.57,4.32-2.51c.18-.11.2-.27,0-.36l-4.13-2.4a.7.7,0,0,0-.63,0l-4.32,2.51c-.18.11-.2.27,0,.36l4.14,2.4a.68.68,0,0,0,.62,0M175.74,177l4.32-2.51c.18-.11.2-.27,0-.36l-4.14-2.4a.7.7,0,0,0-.63,0L171,174.24c-.18.11-.2.27,0,.36l4.14,2.4a.7.7,0,0,0,.63,0m5.28,3.45a.77.77,0,0,0,.63,0l4.32-2.51c.18-.11.2-.27,0-.37l-4.13-2.4a.7.7,0,0,0-.63,0L177,177.68c-.18.11-.2.27,0,.36Zm-35.61,21L158,194.12c.18-.11.2-.27,0-.36l-4.14-2.4a.7.7,0,0,0-.63,0l-12.63,7.33c-.18.11-.2.27,0,.36l4.14,2.4a.77.77,0,0,0,.63,0M162.19,178l4.32-2.51c.18-.11.2-.27,0-.36l-4.14-2.4a.7.7,0,0,0-.63,0l-4.32,2.51c-.18.11-.2.27,0,.36l4.14,2.4a.7.7,0,0,0,.63,0M188,176.76l4.32-2.51c.18-.11.2-.27,0-.36l-4.14-2.4a.7.7,0,0,0-.63,0L183.23,174c-.18.11-.2.27,0,.36l4.14,2.4a.7.7,0,0,0,.63,0m-14.14,9.92a.7.7,0,0,0-.63,0l-4.32,2.51c-.18.11-.2.27,0,.37l4,2.44a.77.77,0,0,0,.63,0l4.32-2.51c.18-.11.2-.27,0-.36Zm-22.61,13.13a.7.7,0,0,0-.63,0l-5.32,3.09c-.18.11-.2.27,0,.36l4.14,2.4a.7.7,0,0,0,.63,0l5.32-3.09c.18-.11.2-.27,0-.36ZM84.38,238.59a.7.7,0,0,0-.63,0l-5.32,3.09c-.18.11-.2.27,0,.36l4.13,2.4a.7.7,0,0,0,.63,0l5.32-3.09c.18-.11.2-.27,0-.36Zm52.2-30.29a.7.7,0,0,0-.63,0l-5.32,3.09c-.18.11-.2.27,0,.36l4.14,2.4a.7.7,0,0,0,.63,0l5.32-3.09c.18-.11.2-.27,0-.36Zm-44.88,26a.7.7,0,0,0-.63,0l-5.32,3.09c-.18.11-.2.27,0,.37l4.14,2.4a.77.77,0,0,0,.63,0l5.32-3.09c.18-.11.2-.27,0-.36Zm37.56-21.81a.7.7,0,0,0-.63,0L93.06,233.14c-.18.11-.2.27,0,.36l4.14,2.4a.7.7,0,0,0,.63,0l35.57-20.65c.18-.11.2-.27,0-.36Zm30.59-17.75a.7.7,0,0,0-.63,0l-6.65,3.86c-.18.11-.2.27,0,.36l4.14,2.4a.7.7,0,0,0,.63,0L164,197.5c.19-.11.2-.27,0-.36Zm-16,9.26a.7.7,0,0,0-.63,0L138,207.16c-.18.11-.2.27,0,.37l4.14,2.4a.7.7,0,0,0,.63,0l5.32-3.09c.18-.11.2-.27,0-.36Zm67-34.07-10-5.83a.77.77,0,0,0-.63,0l-4.32,2.51c-.18.11-.2.27,0,.36l10,5.83a.7.7,0,0,0,.63,0l4.32-2.51c.19-.1.21-.27,0-.36M200.4,171.2a.7.7,0,0,0-.63,0l-4.32,2.51c-.18.11-.2.27,0,.36l4.14,2.4a.7.7,0,0,0,.63,0l4.32-2.51c.18-.11.2-.27,0-.36Zm-32.91,19.1a.7.7,0,0,0-.63,0l-4.32,2.51c-.18.11-.2.27,0,.37l4.13,2.4a.7.7,0,0,0,.63,0l4.32-2.51c.18-.11.2-.27,0-.36ZM94.86,230.74l4.32-2.51c.18-.11.2-.27,0-.37l-4.13-2.4a.7.7,0,0,0-.63,0L90.15,228c-.18.11-.2.27,0,.36l4.14,2.4a.68.68,0,0,0,.62,0M180.13,183a.7.7,0,0,0-.63,0l-4.32,2.51c-.18.11-.2.27,0,.37l4.14,2.4a.7.7,0,0,0,.63,0l4.32-2.51c.18-.11.2-.27,0-.37Zm14-8.11a.7.7,0,0,0-.63,0l-10.64,6.18c-.18.11-.2.27,0,.36l4.14,2.4a.7.7,0,0,0,.63,0l10.64-6.18c.18-.11.2-.27,0-.36ZM65.79,218.43a.7.7,0,0,0,.63,0l4.32-2.51c.18-.11.2-.27,0-.36l-4.14-2.4a.7.7,0,0,0-.63,0l-4.32,2.51c-.18.11-.2.27,0,.36Zm6.31-3.66a.77.77,0,0,0,.63,0l4.32-2.51c.18-.11.2-.27,0-.36L73,209.48a.7.7,0,0,0-.63,0L68,212c-.18.11-.2.27,0,.37Zm5,28.07a.7.7,0,0,0-.63,0l-6.65,3.86c-.18.11-.2.27,0,.36l4.13,2.4a.7.7,0,0,0,.63,0l6.65-3.86c.18-.11.2-.27,0-.37Zm4.1-33.33a.7.7,0,0,0,.63,0L86.12,207c.18-.11.2-.27,0-.36L82,204.24a.77.77,0,0,0-.63,0L77,206.75c-.18.11-.2.27,0,.36Zm12.63-7.34a.7.7,0,0,0,.63,0l4.32-2.51c.18-.11.2-.27,0-.37l-4.14-2.4a.77.77,0,0,0-.63,0l-4.32,2.51c-.18.11-.2.27,0,.37ZM59.47,222.1a.7.7,0,0,0,.63,0l4.32-2.51c.18-.11.2-.27,0-.37l-4.13-2.4a.77.77,0,0,0-.63,0l-4.32,2.51c-.18.11-.2.27,0,.37Zm28-16.26a.7.7,0,0,0,.63,0l4.32-2.51c.18-.11.2-.27,0-.36l-4.13-2.4a.7.7,0,0,0-.63,0l-4.32,2.51c-.18.11-.2.27,0,.36Zm12.63-7.33a.7.7,0,0,0,.63,0l4.32-2.51c.18-.11.2-.27,0-.36l-4.14-2.4a.7.7,0,0,0-.63,0L96,195.75c-.18.11-.2.27,0,.36ZM74,242.58l-4.14-2.4a.7.7,0,0,0-.63,0l-5.32,3.09c-.18.11-.2.27,0,.36L68,246a.7.7,0,0,0,.63,0L74,242.94c.19-.1.21-.27,0-.36M71,237.41,67,235a.77.77,0,0,0-.63,0L58,239.85c-.18.11-.2.27,0,.37l4.14,2.4a.7.7,0,0,0,.63,0L71,237.8c.18-.11.19-.27,0-.37M53.15,225.77a.7.7,0,0,0,.63,0l4.32-2.51c.18-.11.2-.27,0-.36L54,220.5a.77.77,0,0,0-.63,0L49.05,223c-.18.11-.2.27,0,.36Zm-4.08,2.36L45,225.73a.7.7,0,0,0-.63,0L39,228.84c-.18.11-.2.27,0,.36l4.14,2.4a.7.7,0,0,0,.63,0L49,228.51c.19-.1.21-.26,0-.36M63.48,235l-4.14-2.4a.7.7,0,0,0-.63,0l-6.65,3.86c-.18.11-.2.27,0,.36l4.14,2.4a.7.7,0,0,0,.63,0l6.65-3.86c.19-.1.2-.26,0-.36m-8.23-2.08-4.14-2.4a.7.7,0,0,0-.63,0L46.16,233c-.18.11-.2.27,0,.36l4.14,2.4a.7.7,0,0,0,.63,0l4.32-2.51c.18-.1.2-.26,0-.36m33.31,1.58L92.88,232c.18-.11.2-.27,0-.36l-4.14-2.4a.7.7,0,0,0-.63,0l-4.32,2.51c-.18.11-.2.27,0,.37l4.14,2.4a.7.7,0,0,0,.63,0m8.06-23.88-4.32,2.51c-.18.11-.2.27,0,.36l4.14,2.4a.7.7,0,0,0,.63,0l4.32-2.51c.18-.11.2-.27,0-.36l-4.13-2.4a.79.79,0,0,0-.64,0m-6.32,3.67L86,216.75c-.18.11-.2.27,0,.36l4.14,2.4a.7.7,0,0,0,.63,0L95,217c.18-.11.2-.27,0-.36l-4.14-2.4a.7.7,0,0,0-.63,0m25.27-14.66-4.32,2.51c-.18.11-.2.27,0,.36l4.13,2.4a.7.7,0,0,0,.63,0l4.32-2.51c.18-.11.2-.27,0-.36l-4.14-2.4a.68.68,0,0,0-.62,0M103,206.91l-4.32,2.51c-.18.11-.2.27,0,.37l4.14,2.4a.7.7,0,0,0,.63,0l4.32-2.51c.18-.11.2-.27,0-.36l-4.14-2.4a.64.64,0,0,0-.63,0m6.31-3.67-4.31,2.5c-.18.11-.2.27,0,.36l4.14,2.4a.7.7,0,0,0,.63,0L114,206c.18-.11.2-.27,0-.36l-4.14-2.4a.77.77,0,0,0-.63,0M84,217.91l-4.32,2.51c-.18.11-.2.27,0,.36l4.14,2.4a.77.77,0,0,0,.63,0l4.32-2.51c.18-.11.2-.27,0-.36l-4.13-2.4a.72.72,0,0,0-.64,0m-6.32,3.66-4.32,2.51c-.18.11-.2.27,0,.37l4.14,2.4a.7.7,0,0,0,.63,0l4.32-2.51c.18-.11.2-.27,0-.37l-4.14-2.4a.7.7,0,0,0-.63,0m20.6.39,4.32-2.51c.18-.11.2-.27,0-.36l-4.13-2.4a.7.7,0,0,0-.63,0l-4.32,2.51c-.18.11-.2.27,0,.36L97.6,222a.7.7,0,0,0,.63,0M92,225.62l4.32-2.51c.18-.11.2-.27,0-.36l-4.14-2.4a.77.77,0,0,0-.63,0l-4.32,2.51c-.18.11-.2.27,0,.36l4.14,2.4a.7.7,0,0,0,.63,0m-6.32,3.67L90,226.78c.18-.11.2-.27,0-.36L85.86,224a.7.7,0,0,0-.63,0L81,226.55c-.18.11-.2.27,0,.36l4.14,2.4a.7.7,0,0,0,.63,0m-14.29-4-4.32,2.51c-.18.11-.2.27,0,.36l4.14,2.4a.7.7,0,0,0,.63,0l4.2-2.58c.18-.11.2-.27,0-.36L72,225.22a.7.7,0,0,0-.63,0M78.7,233a.7.7,0,0,0,.63,0l4.32-2.51c.18-.11.2-.27,0-.36l-4.13-2.4a.7.7,0,0,0-.63,0l-4.32,2.51c-.18.11-.2.27,0,.36Zm49.5-40.74-4.32,2.51c-.18.11-.2.27,0,.36l4.14,2.4a.7.7,0,0,0,.63,0L133,195c.18-.11.2-.27,0-.36l-4.13-2.4a.79.79,0,0,0-.64,0m53.23-18.89a.7.7,0,0,0,.63,0l4.32-2.51c.18-.11.2-.27,0-.36l-4.14-2.4a.7.7,0,0,0-.63,0l-4.32,2.51c-.18.11-.2.27,0,.36Zm-59.54,22.56-4.32,2.51c-.18.11-.2.27,0,.36l4.14,2.4a.7.7,0,0,0,.63,0l4.32-2.51c.18-.11.2-.27,0-.37l-4.13-2.4a.72.72,0,0,0-.64,0m47.54-27.59-4.32,2.51c-.18.11-.2.27,0,.37l4.14,2.4a.7.7,0,0,0,.63,0l4.32-2.51c.18-.11.2-.27,0-.37l-4.14-2.4a.7.7,0,0,0-.63,0M184,160.18,194,166a.7.7,0,0,0,.63,0L199,163.5c.18-.11.2-.27,0-.37l-10-5.83a.7.7,0,0,0-.63,0L184,159.81c-.19.11-.2.28,0,.37m-1.33.77a.7.7,0,0,0-.63,0l-4.32,2.51c-.18.11-.2.27,0,.36l4.14,2.4a.7.7,0,0,0,.63,0l4.32-2.51c.18-.11.2-.27,0-.36Zm-6.54,8.94,4.32-2.51c.18-.11.2-.27,0-.36l-4.14-2.4a.77.77,0,0,0-.63,0l-4.32,2.51c-.18.11-.2.27,0,.37l4.14,2.4a.7.7,0,0,0,.63,0m12.22-.24,4.32-2.51c.18-.11.2-.27,0-.37l-4.13-2.4a.7.7,0,0,0-.63,0l-4.32,2.51c-.18.11-.2.27,0,.36l4.14,2.4a.62.62,0,0,0,.62,0m-77.46,45,4.32-2.51c.18-.11.2-.27,0-.36l-4.14-2.4a.7.7,0,0,0-.63,0l-4.32,2.51c-.18.11-.2.27,0,.36l4.14,2.4a.7.7,0,0,0,.63,0m65.87-57.09a.7.7,0,0,0-.63,0l-4.32,2.51c-.18.11-.2.27,0,.36l4.14,2.4a.77.77,0,0,0,.63,0l4.32-2.51c.18-.11.2-.27,0-.36ZM135,193.83l4.32-2.51c.18-.11.2-.27,0-.36l-4.14-2.4a.7.7,0,0,0-.63,0l-4.32,2.51c-.18.11-.2.27,0,.36l4.14,2.4a.7.7,0,0,0,.63,0m34.92-32.61-4.32,2.51c-.18.11-.2.27,0,.37l4.14,2.4a.77.77,0,0,0,.63,0l4.32-2.51c.18-.11.2-.27,0-.36l-4.14-2.4a.7.7,0,0,0-.63,0m-14,8.11-4.32,2.51c-.18.11-.2.27,0,.36l4.13,2.4a.77.77,0,0,0,.63,0l4.32-2.51c.18-.11.2-.27,0-.36l-4.14-2.4a.68.68,0,0,0-.62,0m7.64-4.44-4.32,2.51c-.18.11-.2.27,0,.37l4.13,2.4a.7.7,0,0,0,.63,0l4.32-2.51c.18-.11.2-.27,0-.36l-4.14-2.4a.62.62,0,0,0-.62,0m-58.93,53.4,4.32-2.51c.18-.11.2-.27,0-.36l-4.14-2.4a.7.7,0,0,0-.63,0l-4.32,2.51c-.18.11-.2.27,0,.36l4.14,2.4a.7.7,0,0,0,.63,0m-28.83-2.48-4.32,2.51c-.18.11-.2.27,0,.36l4.14,2.4a.7.7,0,0,0,.63,0l4.32-2.51c.18-.11.2-.27,0-.36l-4.14-2.4a.7.7,0,0,0-.63,0m6.32-3.67-4.32,2.51c-.18.11-.2.27,0,.36l4.14,2.4a.7.7,0,0,0,.63,0l4.32-2.51c.18-.11.2-.27,0-.37l-4.14-2.4a.77.77,0,0,0-.63,0m6.31-3.66L84.06,211c-.18.11-.2.27,0,.36l4.14,2.4a.7.7,0,0,0,.63,0l4.32-2.51c.18-.11.2-.27,0-.36L89,208.49a.7.7,0,0,0-.63,0M101,201.15l-4.32,2.51c-.18.11-.2.27,0,.37l4.13,2.4a.77.77,0,0,0,.63,0l4.32-2.51c.18-.11.2-.27,0-.37l-4.14-2.4a.75.75,0,0,0-.62,0M69.43,219.5,65.11,222c-.18.11-.2.27,0,.36l4.13,2.4a.7.7,0,0,0,.63,0l4.32-2.51c.18-.11.2-.27,0-.36l-4.14-2.4a.68.68,0,0,0-.62,0M94.7,204.82l-4.32,2.51c-.18.11-.2.27,0,.36l4.14,2.4a.7.7,0,0,0,.63,0l4.32-2.51c.18-.11.2-.27,0-.36l-4.14-2.4a.7.7,0,0,0-.63,0M63.12,223.16l-4.32,2.51c-.18.11-.2.27,0,.36l4.13,2.4a.7.7,0,0,0,.63,0l4.32-2.51c.18-.11.2-.27,0-.36l-4.13-2.4a.7.7,0,0,0-.63,0m12.17,18.65a.77.77,0,0,0,.63,0l4.32-2.51c.18-.11.2-.27,0-.36l-4.14-2.4a.7.7,0,0,0-.63,0l-4.32,2.51c-.18.11-.2.27,0,.36Zm7-3.69,4.32-2.51c.18-.11.2-.27,0-.36l-4.14-2.4a.7.7,0,0,0-.63,0l-4.32,2.51c-.18.11-.2.27,0,.36l4.13,2.4a.72.72,0,0,0,.64,0m-17.43-3.94a.77.77,0,0,0,.63,0l4.32-2.51c.18-.11.2-.27,0-.36l-4.13-2.4a.7.7,0,0,0-.63,0l-4.32,2.51c-.18.11-.2.27,0,.36Zm-8-7.35-4.32,2.51c-.18.11-.2.27,0,.36l4.14,2.4a.7.7,0,0,0,.63,0l4.32-2.51c.18-.11.2-.27,0-.36l-4.14-2.4a.7.7,0,0,0-.63,0m15.58,9.81a.7.7,0,0,0,.63,0l4.32-2.51c.18-.11.2-.27,0-.37l-4.14-2.4a.77.77,0,0,0-.63,0l-4.32,2.51c-.18.11-.2.27,0,.36Zm35-39.14L103,200c-.18.11-.2.27,0,.36l4.13,2.4a.7.7,0,0,0,.63,0l4.32-2.51c.18-.11.2-.27,0-.36l-4.14-2.4a.68.68,0,0,0-.62,0m6.32-3.67-4.32,2.51c-.18.11-.2.27,0,.36l4.13,2.4a.7.7,0,0,0,.63,0l4.32-2.51c.18-.11.2-.27,0-.36l-4.14-2.4a.68.68,0,0,0-.62,0m28.84,2.46,9.64-5.6c.18-.11.2-.27,0-.36l-10-5.83a.77.77,0,0,0-.63,0l-5,2.89c-.18.11-.2.27,0,.37l5.32,3.09a.2.2,0,0,1,.09.27.2.2,0,0,1-.09.09l-4,2.32c-.18.11-.2.27,0,.36l4.14,2.4a.7.7,0,0,0,.63,0m7.06-10.95,4.32-2.51c.18-.11.2-.27,0-.36l-4.14-2.4a.77.77,0,0,0-.63,0l-4.32,2.51c-.18.11-.2.27,0,.37l4.13,2.4a.79.79,0,0,0,.64,0M117.23,211l4.32-2.51c.18-.11.2-.27,0-.36l-4.14-2.4a.7.7,0,0,0-.63,0l-4.32,2.51c-.18.11-.2.27,0,.36l4.13,2.4a.79.79,0,0,0,.64,0m6.31-3.67,4.32-2.51c.18-.11.2-.27,0-.36l-4.14-2.4a.7.7,0,0,0-.63,0l-4.32,2.51c-.18.11-.2.27,0,.36l4.14,2.4a.7.7,0,0,0,.63,0m6.32-3.67,4.32-2.51c.18-.11.2-.27,0-.36l-4.14-2.4a.7.7,0,0,0-.63,0l-4.32,2.51c-.18.11-.2.27,0,.36l4.14,2.4a.7.7,0,0,0,.63,0m6.32-3.66,4.32-2.51c.18-.11.2-.27,0-.36l-4.14-2.4a.77.77,0,0,0-.63,0l-4.32,2.51c-.18.11-.2.27,0,.36l4.14,2.4a.77.77,0,0,0,.63,0M120,190.17l-4.32,2.51c-.18.11-.2.27,0,.36l4.14,2.4a.7.7,0,0,0,.63,0l4.32-2.51c.18-.11.2-.27,0-.37l-4.14-2.4a.7.7,0,0,0-.63,0m6.32-3.67L122,189c-.18.11-.2.27,0,.36l4.14,2.4a.7.7,0,0,0,.63,0l4.32-2.51c.18-.11.2-.27,0-.36l-4.14-2.4a.7.7,0,0,0-.63,0m17-9.84L139,179.17c-.18.11-.2.27,0,.36l4.14,2.4a.7.7,0,0,0,.63,0L148,179.4c.18-.11.2-.27,0-.36l-4.14-2.4a.7.7,0,0,0-.63,0m-7.65,4.44-7.31,4.24c-.18.11-.2.27,0,.36l4.14,2.4a.7.7,0,0,0,.63,0l7.31-4.24c.18-.11.2-.27,0-.36l-4.13-2.4a.72.72,0,0,0-.64,0m14-8.11-4.32,2.51c-.18.11-.2.27,0,.36l4.14,2.4a.7.7,0,0,0,.63,0l4.32-2.51c.18-.11.2-.27,0-.36l-4.14-2.4a.7.7,0,0,0-.63,0m6.31,8.68,4.32-2.51c.18-.11.2-.27,0-.36l-4.14-2.4a.7.7,0,0,0-.63,0l-4.32,2.51c-.18.11-.2.27,0,.36l4.14,2.4a.7.7,0,0,0,.63,0" transform="translate(-0.02 0)"/></g></g><path id="Tracé_10006" data-name="Tracé 10006" class="cls-6" d="M127.28,229.38l.94.55,25,14.48,44.39-25.76.92-.53-25.9-15Z" transform="translate(-0.02 0)"/><path id="Tracé_10007" data-name="Tracé 10007" class="cls-8" d="M197,219l-24.41-14.16-43.8,25.44,24.39,14.15Z" transform="translate(-0.02 0)"/><g class="cls-3"><g id="Groupe_3029" data-name="Groupe 3029"><path id="Tracé_10008" data-name="Tracé 10008" class="cls-9" d="M169.22,24a1.09,1.09,0,0,0-.05-.26v0a.72.72,0,0,0-.07-.25,1.17,1.17,0,0,0-.16-.36l-.09-.15-.08-.1-.19-.18h0a1,1,0,0,0-.24-.14,2,2,0,0,0-1.89.24L25,104.59c-1.55.9-2.81,3.1-2.81,6.25v105.7a1.91,1.91,0,0,0,1,1.7l.12.08.15.08a.68.68,0,0,0,.24.08,1.49,1.49,0,0,0,.36.05,1.71,1.71,0,0,0,.93-.27H25l2.68-1.56,138.72-80.28a6.24,6.24,0,0,0,2.81-4.9V24" transform="translate(-0.02 0)"/></g></g><g class="cls-3"><g id="Groupe_3030" data-name="Groupe 3030"><path id="Tracé_10009" data-name="Tracé 10009" class="cls-10" d="M168.31,22.51a2,2,0,0,0-1.89.24L25,104.58a6.28,6.28,0,0,0-2.82,4.9V115l-3.59-2.12v-5.42a6.22,6.22,0,0,1,2.81-4.89L162.83,20.7a2,2,0,0,1,2-.17c.51.32,2.84,1.67,3.44,2" transform="translate(-0.02 0)"/></g></g><g class="cls-3"><g id="Groupe_3031" data-name="Groupe 3031"><path id="Tracé_10010" data-name="Tracé 10010" class="cls-11" d="M169.23,24.37c0-1.78-1.26-2.51-2.81-1.61L25,104.59a6.27,6.27,0,0,0-2.81,4.89V115l147.1-85.08V24.37Z" transform="translate(-0.02 0)"/></g></g><g class="cls-3"><g id="Groupe_3032" data-name="Groupe 3032"><path id="Tracé_10011" data-name="Tracé 10011" class="cls-12" d="M166.42,22.76,25,104.59a5.89,5.89,0,0,0-2,2.09l-3.58-2.08a5.58,5.58,0,0,1,1.95-2.06L162.81,20.71a2,2,0,0,1,2-.17c.51.31,2.84,1.64,3.43,2a2,2,0,0,0-1.86.26" transform="translate(-0.02 0)"/></g></g><g class="cls-3"><g id="Groupe_3033" data-name="Groupe 3033"><path id="Tracé_10012" data-name="Tracé 10012" class="cls-13" d="M18.53,112.86v-5.43a5.91,5.91,0,0,1,.85-2.83L23,106.67a5.78,5.78,0,0,0-.83,2.8V115Z" transform="translate(-0.02 0)"/></g></g><g class="cls-3"><g id="Groupe_3034" data-name="Groupe 3034"><path id="Tracé_10013" data-name="Tracé 10013" class="cls-14" d="M158.15,30.17a2.83,2.83,0,0,0-1.07,2.27c0,.91.48,1.38,1.07,1a2.83,2.83,0,0,0,1.07-2.27c0-.91-.48-1.37-1.07-1" transform="translate(-0.02 0)"/></g></g><g class="cls-3"><g id="Groupe_3035" data-name="Groupe 3035"><path id="Tracé_10014" data-name="Tracé 10014" class="cls-14" d="M162,27.94a2.85,2.85,0,0,0-1,2.27c0,.91.48,1.38,1.07,1a2.82,2.82,0,0,0,1-2.21c0-.91-.48-1.38-1.07-1" transform="translate(-0.02 0)"/></g></g><g class="cls-3"><g id="Groupe_3036" data-name="Groupe 3036"><path id="Tracé_10015" data-name="Tracé 10015" class="cls-14" d="M165.84,25.7a2.81,2.81,0,0,0-1.07,2.3c0,.91.48,1.38,1.07,1A2.81,2.81,0,0,0,167,26.73c0-.91-.48-1.37-1.07-1" transform="translate(-0.02 0)"/></g></g><g class="cls-3"><g id="Groupe_3037" data-name="Groupe 3037"><path id="Tracé_10016" data-name="Tracé 10016" class="cls-15" d="M23.14,218.23l-.15-.08-3-1.72a3,3,0,0,1-1.47-2.19,2.81,2.81,0,0,1,0-.41v-101l3.6,2.17V216.52a1.86,1.86,0,0,0,.88,1.6l.09.06h0Z" transform="translate(-0.02 0)"/></g></g><g class="cls-3"><g id="Groupe_3038" data-name="Groupe 3038"><path id="Tracé_10017" data-name="Tracé 10017" class="cls-16" d="M34.24,170.85a.57.57,0,0,0-.31.1l-3.83,2.22a1.53,1.53,0,0,0-.69,1.21v1.42c0,.32.16.5.38.5a.57.57,0,0,0,.31-.1L34,174a1.57,1.57,0,0,0,.7-1.21v-1.42c0-.32-.16-.5-.39-.5" transform="translate(-0.02 0)"/></g></g><g class="cls-3"><g id="Groupe_3039" data-name="Groupe 3039"><path id="Tracé_10018" data-name="Tracé 10018" class="cls-16" d="M34.24,176.48a.57.57,0,0,0-.31.1L30.1,178.8a1.57,1.57,0,0,0-.7,1.21v1.41c0,.32.16.5.39.5a.57.57,0,0,0,.31-.1L34,179.6a1.57,1.57,0,0,0,.7-1.21V177c0-.31-.16-.5-.39-.5" transform="translate(-0.02 0)"/></g></g><g class="cls-3"><g id="Groupe_3040" data-name="Groupe 3040"><path id="Tracé_10019" data-name="Tracé 10019" class="cls-16" d="M34.24,182.12a.57.57,0,0,0-.31.1l-3.83,2.22a1.53,1.53,0,0,0-.69,1.21v1.42c0,.32.16.5.38.5a.57.57,0,0,0,.31-.1L34,185.25a1.57,1.57,0,0,0,.7-1.21v-1.41c0-.33-.16-.51-.39-.51" transform="translate(-0.02 0)"/></g></g><g class="cls-3"><g id="Groupe_3041" data-name="Groupe 3041"><path id="Tracé_10020" data-name="Tracé 10020" class="cls-16" d="M34.24,187.75a.57.57,0,0,0-.31.1l-3.83,2.22a1.53,1.53,0,0,0-.69,1.21v1.42c0,.32.16.5.38.5a.57.57,0,0,0,.31-.1L34,190.88a1.57,1.57,0,0,0,.7-1.21v-1.42c0-.32-.16-.5-.39-.5" transform="translate(-0.02 0)"/></g></g><g class="cls-3"><g id="Groupe_3042" data-name="Groupe 3042"><path id="Tracé_10021" data-name="Tracé 10021" class="cls-16" d="M34.24,142.91a.57.57,0,0,0-.31.1l-3.83,2.22a1.57,1.57,0,0,0-.7,1.21v1.42c0,.32.16.5.39.5a.57.57,0,0,0,.31-.1L34,146a1.57,1.57,0,0,0,.7-1.21v-1.42c0-.32-.16-.5-.39-.5" transform="translate(-0.02 0)"/></g></g><g class="cls-3"><g id="Groupe_3043" data-name="Groupe 3043"><path id="Tracé_10022" data-name="Tracé 10022" class="cls-16" d="M34.24,148.54a.57.57,0,0,0-.31.1l-3.83,2.22a1.57,1.57,0,0,0-.7,1.21v1.42c0,.32.16.5.39.5a.57.57,0,0,0,.31-.1L34,151.67a1.57,1.57,0,0,0,.7-1.21V149c0-.32-.16-.5-.39-.5" transform="translate(-0.02 0)"/></g></g><g class="cls-3"><g id="Groupe_3044" data-name="Groupe 3044"><path id="Tracé_10023" data-name="Tracé 10023" class="cls-16" d="M34.24,154.17a.57.57,0,0,0-.31.1l-3.83,2.22a1.57,1.57,0,0,0-.7,1.21v1.42c0,.32.16.5.39.5a.57.57,0,0,0,.31-.1L34,157.3a1.57,1.57,0,0,0,.7-1.21v-1.42c0-.31-.16-.5-.39-.5" transform="translate(-0.02 0)"/></g></g><g class="cls-3"><g id="Groupe_3045" data-name="Groupe 3045"><path id="Tracé_10024" data-name="Tracé 10024" class="cls-16" d="M34.24,159.81a.57.57,0,0,0-.31.1l-3.83,2.22a1.57,1.57,0,0,0-.7,1.21v1.42c0,.32.16.5.39.5a.57.57,0,0,0,.31-.1L34,162.94a1.51,1.51,0,0,0,.7-1.21v-1.42c0-.32-.16-.5-.39-.5" transform="translate(-0.02 0)"/></g></g><g class="cls-3"><g id="Groupe_3046" data-name="Groupe 3046"><path id="Tracé_10025" data-name="Tracé 10025" class="cls-16" d="M34.24,198.79a.57.57,0,0,0-.31.1l-3.83,2.22a1.57,1.57,0,0,0-.7,1.21v1.42c0,.32.16.5.39.5a.57.57,0,0,0,.31-.1L34,201.92a1.57,1.57,0,0,0,.7-1.21v-1.42c0-.32-.16-.5-.39-.5" transform="translate(-0.02 0)"/></g></g><g class="cls-3"><g id="Groupe_3047" data-name="Groupe 3047"><path id="Tracé_10026" data-name="Tracé 10026" class="cls-16" d="M34.24,204.42a.57.57,0,0,0-.31.1l-3.83,2.22a1.57,1.57,0,0,0-.7,1.21v1.42c0,.32.16.5.39.5a.57.57,0,0,0,.31-.1L34,207.55a1.51,1.51,0,0,0,.7-1.21v-1.42c0-.31-.16-.5-.39-.5" transform="translate(-0.02 0)"/></g></g><g class="cls-3"><g id="Groupe_3048" data-name="Groupe 3048"><path id="Tracé_10027" data-name="Tracé 10027" class="cls-16" d="M34.24,115a.57.57,0,0,0-.31.1l-3.83,2.22a1.56,1.56,0,0,0-.69,1.21V120c0,.32.16.5.38.5a.57.57,0,0,0,.31-.1L34,118.09a1.57,1.57,0,0,0,.7-1.21v-1.42c0-.31-.16-.5-.39-.5" transform="translate(-0.02 0)"/></g></g><g class="cls-3"><g id="Groupe_3049" data-name="Groupe 3049"><path id="Tracé_10028" data-name="Tracé 10028" class="cls-16" d="M34.24,120.6a.57.57,0,0,0-.31.1l-3.83,2.22a1.57,1.57,0,0,0-.7,1.21v1.42c0,.32.16.5.39.5a.57.57,0,0,0,.31-.1L34,123.73a1.57,1.57,0,0,0,.7-1.21V121.1c0-.32-.16-.5-.39-.5" transform="translate(-0.02 0)"/></g></g><g class="cls-3"><g id="Groupe_3050" data-name="Groupe 3050"><path id="Tracé_10029" data-name="Tracé 10029" class="cls-16" d="M34.24,126.23a.57.57,0,0,0-.31.1l-3.83,2.22a1.57,1.57,0,0,0-.7,1.21v1.42c0,.32.16.5.39.5a.57.57,0,0,0,.31-.1L34,129.36a1.57,1.57,0,0,0,.7-1.21v-1.42c0-.32-.16-.5-.39-.5" transform="translate(-0.02 0)"/></g></g><g class="cls-3"><g id="Groupe_3051" data-name="Groupe 3051"><path id="Tracé_10030" data-name="Tracé 10030" class="cls-16" d="M34.24,131.86a.57.57,0,0,0-.31.1l-3.83,2.22a1.56,1.56,0,0,0-.69,1.21v1.42c0,.32.16.5.38.5a.57.57,0,0,0,.31-.1L34,135a1.57,1.57,0,0,0,.7-1.21v-1.42c0-.31-.16-.5-.39-.5" transform="translate(-0.02 0)"/></g></g><g class="cls-3"><g id="Groupe_3052" data-name="Groupe 3052"><path id="Tracé_10031" data-name="Tracé 10031" class="cls-14" d="M160.89,83,131.5,100a4.39,4.39,0,0,0-2,3.44V148c0,1.27.88,1.78,2,1.15L160.89,132a4.39,4.39,0,0,0,2-3.44V84.11c0-1.27-.88-1.78-2-1.15" transform="translate(-0.02 0)"/></g></g><g class="cls-3"><g id="Groupe_3053" data-name="Groupe 3053"><path id="Tracé_10032" data-name="Tracé 10032" class="cls-10" d="M158.16,116.77l-2.7,1.57a2.17,2.17,0,0,0-1,1.67c0,.6.45.83,1,.51l2.7-1.57a2.17,2.17,0,0,0,1-1.67c0-.6-.45-.83-1-.51" transform="translate(-0.02 0)"/></g></g><g class="cls-3"><g id="Groupe_3054" data-name="Groupe 3054"><path id="Tracé_10033" data-name="Tracé 10033" class="cls-10" d="M158.16,88.84l-2.7,1.57a2.17,2.17,0,0,0-1,1.67c0,.6.45.83,1,.51l2.7-1.57a2.17,2.17,0,0,0,1-1.67c0-.6-.45-.83-1-.51" transform="translate(-0.02 0)"/></g></g><g class="cls-3"><g id="Groupe_3055" data-name="Groupe 3055"><path id="Tracé_10034" data-name="Tracé 10034" class="cls-10" d="M154.36,96.62l-2.7,1.57a2.17,2.17,0,0,0-1,1.67c0,.6.45.83,1,.51l2.7-1.57a2.17,2.17,0,0,0,1-1.67c0-.6-.45-.83-1-.51" transform="translate(-0.02 0)"/></g></g><g class="cls-3"><g id="Groupe_3056" data-name="Groupe 3056"><path id="Tracé_10035" data-name="Tracé 10035" class="cls-10" d="M154.36,102.19l-2.7,1.57a2.17,2.17,0,0,0-1,1.67c0,.6.45.83,1,.51l2.7-1.57a2.17,2.17,0,0,0,1-1.67c0-.6-.45-.83-1-.51" transform="translate(-0.02 0)"/></g></g><g class="cls-3"><g id="Groupe_3057" data-name="Groupe 3057"><path id="Tracé_10036" data-name="Tracé 10036" class="cls-10" d="M158.16,105.6l-2.7,1.57a2.17,2.17,0,0,0-1,1.67c0,.6.45.83,1,.51l2.7-1.57a2.17,2.17,0,0,0,1-1.67c0-.6-.45-.83-1-.51" transform="translate(-0.02 0)"/></g></g><g class="cls-3"><g id="Groupe_3058" data-name="Groupe 3058"><path id="Tracé_10037" data-name="Tracé 10037" class="cls-10" d="M154.36,113.38l-2.7,1.57a2.17,2.17,0,0,0-1,1.67c0,.6.45.83,1,.51l2.7-1.57a2.17,2.17,0,0,0,1-1.67c0-.6-.45-.83-1-.51" transform="translate(-0.02 0)"/></g></g><g class="cls-3"><g id="Groupe_3059" data-name="Groupe 3059"><path id="Tracé_10038" data-name="Tracé 10038" class="cls-10" d="M150.75,93.14l-16.52,9.59a2.17,2.17,0,0,0-1,1.67c0,.6.45.83,1,.51l16.52-9.59a2.17,2.17,0,0,0,1-1.67c0-.6-.45-.83-1-.51" transform="translate(-0.02 0)"/></g></g><g class="cls-3"><g id="Groupe_3060" data-name="Groupe 3060"><path id="Tracé_10039" data-name="Tracé 10039" class="cls-10" d="M150.75,121.08l-16.52,9.59a2.17,2.17,0,0,0-1,1.67c0,.6.45.83,1,.51l16.52-9.59a2.17,2.17,0,0,0,1-1.67c0-.61-.45-.83-1-.51" transform="translate(-0.02 0)"/></g></g><g class="cls-3"><g id="Groupe_3061" data-name="Groupe 3061"><path id="Tracé_10040" data-name="Tracé 10040" class="cls-10" d="M147,100.92l-12.72,7.4a2.17,2.17,0,0,0-1,1.67c0,.6.45.83,1,.51L147,103.1a2.17,2.17,0,0,0,1-1.67c0-.6-.45-.83-1-.51" transform="translate(-0.02 0)"/></g></g><g class="cls-3"><g id="Groupe_3062" data-name="Groupe 3062"><path id="Tracé_10041" data-name="Tracé 10041" class="cls-10" d="M147,106.51l-12.72,7.4a2.17,2.17,0,0,0-1,1.67c0,.6.45.83,1,.51l12.72-7.4a2.17,2.17,0,0,0,1-1.67c0-.6-.45-.83-1-.51" transform="translate(-0.02 0)"/></g></g><g class="cls-3"><g id="Groupe_3063" data-name="Groupe 3063"><path id="Tracé_10042" data-name="Tracé 10042" class="cls-10" d="M150.75,109.9l-16.52,9.59a2.17,2.17,0,0,0-1,1.67c0,.6.45.83,1,.51l16.52-9.59a2.17,2.17,0,0,0,1-1.67c0-.6-.45-.83-1-.51" transform="translate(-0.02 0)"/></g></g><g class="cls-3"><g id="Groupe_3064" data-name="Groupe 3064"><path id="Tracé_10043" data-name="Tracé 10043" class="cls-10" d="M147,117.68l-12.72,7.39a2.17,2.17,0,0,0-1,1.67c0,.6.45.83,1,.51L147,119.86a2.17,2.17,0,0,0,1-1.67c0-.6-.45-.83-1-.51" transform="translate(-0.02 0)"/></g></g><g class="cls-3"><g id="Groupe_3065" data-name="Groupe 3065"><path id="Tracé_10044" data-name="Tracé 10044" class="cls-10" d="M158.16,128l-2.7,1.57a2.17,2.17,0,0,0-1,1.67c0,.6.45.83,1,.51l2.7-1.57a2.17,2.17,0,0,0,1-1.67c0-.6-.45-.83-1-.51" transform="translate(-0.02 0)"/></g></g><g class="cls-3"><g id="Groupe_3066" data-name="Groupe 3066"><path id="Tracé_10045" data-name="Tracé 10045" class="cls-10" d="M154.36,124.62l-2.7,1.57a2.17,2.17,0,0,0-1,1.67c0,.6.45.83,1,.51l2.7-1.57a2.17,2.17,0,0,0,1-1.67c0-.6-.45-.83-1-.51" transform="translate(-0.02 0)"/></g></g><g class="cls-3"><g id="Groupe_3067" data-name="Groupe 3067"><path id="Tracé_10046" data-name="Tracé 10046" class="cls-10" d="M150.75,132.31l-16.52,9.59a2.17,2.17,0,0,0-1,1.67c0,.6.45.83,1,.51l16.52-9.59a2.17,2.17,0,0,0,1-1.67c0-.6-.45-.83-1-.51" transform="translate(-0.02 0)"/></g></g><g class="cls-3"><g id="Groupe_3068" data-name="Groupe 3068"><path id="Tracé_10047" data-name="Tracé 10047" class="cls-10" d="M147,128.92l-12.72,7.39a2.17,2.17,0,0,0-1,1.67c0,.6.45.83,1,.51L147,131.1a2.17,2.17,0,0,0,1-1.67c0-.6-.45-.83-1-.51" transform="translate(-0.02 0)"/></g></g><g class="cls-3"><g id="Groupe_3069" data-name="Groupe 3069"><path id="Tracé_10048" data-name="Tracé 10048" class="cls-14" d="M160.89,37.2,131.5,54.26a4.39,4.39,0,0,0-2,3.44V91.8c0,1.27.88,1.78,2,1.15l29.39-17.06a4.39,4.39,0,0,0,2-3.44V38.34c0-1.26-.88-1.77-2-1.14" transform="translate(-0.02 0)"/></g></g><g class="cls-3"><g id="Groupe_3070" data-name="Groupe 3070"><path id="Tracé_10049" data-name="Tracé 10049" class="cls-10" d="M158.16,71l-2.7,1.57a2.17,2.17,0,0,0-1,1.67c0,.6.45.83,1,.51l2.7-1.57a2.17,2.17,0,0,0,1-1.67c0-.6-.45-.83-1-.51" transform="translate(-0.02 0)"/></g></g><g class="cls-3"><g id="Groupe_3071" data-name="Groupe 3071"><path id="Tracé_10050" data-name="Tracé 10050" class="cls-10" d="M158.16,43.08l-2.71,1.57a2.17,2.17,0,0,0-1,1.67c0,.6.45.83,1,.51l2.71-1.57a2.17,2.17,0,0,0,1-1.67c0-.6-.45-.83-1-.51" transform="translate(-0.02 0)"/></g></g><g class="cls-3"><g id="Groupe_3072" data-name="Groupe 3072"><path id="Tracé_10051" data-name="Tracé 10051" class="cls-17" d="M158.16,43.08l-2.71,1.57a2.17,2.17,0,0,0-1,1.67c0,.6.45.83,1,.51l2.71-1.57a2.17,2.17,0,0,0,1-1.67c0-.6-.45-.83-1-.51" transform="translate(-0.02 0)"/></g></g><g class="cls-3"><g id="Groupe_3073" data-name="Groupe 3073"><path id="Tracé_10052" data-name="Tracé 10052" class="cls-10" d="M154.36,50.86l-2.71,1.57a2.17,2.17,0,0,0-1,1.67c0,.6.45.83,1,.51L154.36,53a2.17,2.17,0,0,0,1-1.67c0-.6-.45-.83-1-.51" transform="translate(-0.02 0)"/></g></g><g class="cls-3"><g id="Groupe_3074" data-name="Groupe 3074"><path id="Tracé_10053" data-name="Tracé 10053" class="cls-17" d="M154.36,50.86l-2.71,1.57a2.17,2.17,0,0,0-1,1.67c0,.6.45.83,1,.51L154.36,53a2.17,2.17,0,0,0,1-1.67c0-.6-.45-.83-1-.51" transform="translate(-0.02 0)"/></g></g><g class="cls-3"><g id="Groupe_3075" data-name="Groupe 3075"><path id="Tracé_10054" data-name="Tracé 10054" class="cls-10" d="M154.36,56.43,151.65,58a2.17,2.17,0,0,0-1,1.67c0,.6.45.83,1,.51l2.71-1.57a2.17,2.17,0,0,0,1-1.67c0-.6-.45-.83-1-.51" transform="translate(-0.02 0)"/></g></g><g class="cls-3"><g id="Groupe_3076" data-name="Groupe 3076"><path id="Tracé_10055" data-name="Tracé 10055" class="cls-17" d="M154.36,56.43,151.65,58a2.17,2.17,0,0,0-1,1.67c0,.6.45.83,1,.51l2.71-1.57a2.17,2.17,0,0,0,1-1.67c0-.6-.45-.83-1-.51" transform="translate(-0.02 0)"/></g></g><g class="cls-3"><g id="Groupe_3077" data-name="Groupe 3077"><path id="Tracé_10056" data-name="Tracé 10056" class="cls-10" d="M158.16,59.83l-2.7,1.57a2.17,2.17,0,0,0-1,1.67c0,.6.45.83,1,.51l2.7-1.57a2.17,2.17,0,0,0,1-1.67c0-.6-.45-.83-1-.51" transform="translate(-0.02 0)"/></g></g><g class="cls-3"><g id="Groupe_3078" data-name="Groupe 3078"><path id="Tracé_10057" data-name="Tracé 10057" class="cls-18" d="M158.63,59.69a1,1,0,0,0-.47.15l-2.7,1.57a2.17,2.17,0,0,0-1,1.67c0,.42.21.65.53.65a1,1,0,0,0,.47-.15l2.7-1.57a2.17,2.17,0,0,0,1-1.67c0-.41-.22-.65-.53-.65" transform="translate(-0.02 0)"/></g></g><g class="cls-3"><g id="Groupe_3079" data-name="Groupe 3079"><path id="Tracé_10058" data-name="Tracé 10058" class="cls-10" d="M154.36,67.62l-2.7,1.57a2.17,2.17,0,0,0-1,1.67c0,.6.45.83,1,.51l2.7-1.57a2.17,2.17,0,0,0,1-1.67c0-.6-.45-.83-1-.51" transform="translate(-0.02 0)"/></g></g><g class="cls-3"><g id="Groupe_3080" data-name="Groupe 3080"><path id="Tracé_10059" data-name="Tracé 10059" class="cls-18" d="M154.83,67.47a1,1,0,0,0-.47.15l-2.7,1.57a2.17,2.17,0,0,0-1,1.67c0,.42.22.65.53.65a1,1,0,0,0,.47-.15l2.7-1.57a2.17,2.17,0,0,0,1-1.67c0-.41-.22-.65-.53-.65" transform="translate(-0.02 0)"/></g></g><g class="cls-3"><g id="Groupe_3081" data-name="Groupe 3081"><path id="Tracé_10060" data-name="Tracé 10060" class="cls-10" d="M150.75,47.38,134.23,57a2.17,2.17,0,0,0-1,1.67c0,.6.45.83,1,.51l16.52-9.59a2.17,2.17,0,0,0,1-1.67c0-.6-.45-.83-1-.51" transform="translate(-0.02 0)"/></g></g><g class="cls-3"><g id="Groupe_3082" data-name="Groupe 3082"><path id="Tracé_10061" data-name="Tracé 10061" class="cls-17" d="M150.75,47.38,134.23,57a2.17,2.17,0,0,0-1,1.67c0,.6.45.83,1,.51l16.52-9.59a2.17,2.17,0,0,0,1-1.67c0-.6-.45-.83-1-.51" transform="translate(-0.02 0)"/></g></g><g class="cls-3"><g id="Groupe_3083" data-name="Groupe 3083"><path id="Tracé_10062" data-name="Tracé 10062" class="cls-10" d="M150.75,75.31,134.23,84.9a2.17,2.17,0,0,0-1,1.67c0,.6.45.83,1,.51l16.52-9.59a2.17,2.17,0,0,0,1-1.67c0-.6-.45-.83-1-.51" transform="translate(-0.02 0)"/></g></g><g class="cls-3"><g id="Groupe_3084" data-name="Groupe 3084"><path id="Tracé_10063" data-name="Tracé 10063" class="cls-10" d="M147,55.16l-12.72,7.4a2.17,2.17,0,0,0-1,1.67c0,.6.45.83,1,.51L147,57.34a2.17,2.17,0,0,0,1-1.67c0-.6-.45-.83-1-.51" transform="translate(-0.02 0)"/></g></g><g class="cls-3"><g id="Groupe_3085" data-name="Groupe 3085"><path id="Tracé_10064" data-name="Tracé 10064" class="cls-17" d="M147,55.16l-12.72,7.4a2.17,2.17,0,0,0-1,1.67c0,.6.45.83,1,.51L147,57.34a2.17,2.17,0,0,0,1-1.67c0-.6-.45-.83-1-.51" transform="translate(-0.02 0)"/></g></g><g class="cls-3"><g id="Groupe_3086" data-name="Groupe 3086"><path id="Tracé_10065" data-name="Tracé 10065" class="cls-10" d="M147,60.75l-12.72,7.4a2.17,2.17,0,0,0-1,1.67c0,.6.45.83,1,.51L147,62.93a2.17,2.17,0,0,0,1-1.67c0-.6-.45-.83-1-.51" transform="translate(-0.02 0)"/></g></g><g class="cls-3"><g id="Groupe_3087" data-name="Groupe 3087"><path id="Tracé_10066" data-name="Tracé 10066" class="cls-17" d="M147,60.75l-12.72,7.4a2.17,2.17,0,0,0-1,1.67c0,.6.45.83,1,.51L147,62.93a2.17,2.17,0,0,0,1-1.67c0-.6-.45-.83-1-.51" transform="translate(-0.02 0)"/></g></g><g class="cls-3"><g id="Groupe_3088" data-name="Groupe 3088"><path id="Tracé_10067" data-name="Tracé 10067" class="cls-10" d="M150.75,64.14l-16.52,9.59a2.17,2.17,0,0,0-1,1.67c0,.6.45.83,1,.51l16.52-9.59a2.17,2.17,0,0,0,1-1.67c0-.6-.45-.83-1-.51" transform="translate(-0.02 0)"/></g></g><g class="cls-3"><g id="Groupe_3089" data-name="Groupe 3089"><path id="Tracé_10068" data-name="Tracé 10068" class="cls-19" d="M151.22,64a1,1,0,0,0-.47.15l-16.52,9.59a2.17,2.17,0,0,0-1,1.67c0,.42.22.65.53.65a1,1,0,0,0,.47-.15l16.52-9.59a2.17,2.17,0,0,0,1-1.67c0-.41-.22-.65-.53-.65" transform="translate(-0.02 0)"/></g></g><g class="cls-3"><g id="Groupe_3090" data-name="Groupe 3090"><path id="Tracé_10069" data-name="Tracé 10069" class="cls-10" d="M147,71.92l-12.72,7.39a2.17,2.17,0,0,0-1,1.67c0,.6.45.83,1,.51L147,74.1a2.17,2.17,0,0,0,1-1.67c0-.6-.45-.83-1-.51" transform="translate(-0.02 0)"/></g></g><g class="cls-3"><g id="Groupe_3091" data-name="Groupe 3091"><path id="Tracé_10070" data-name="Tracé 10070" class="cls-19" d="M147.42,71.78a1,1,0,0,0-.47.15l-12.72,7.39a2.17,2.17,0,0,0-1,1.67c0,.42.22.65.53.65a1,1,0,0,0,.47-.15L147,74.1a2.17,2.17,0,0,0,1-1.67c0-.42-.22-.65-.53-.65" transform="translate(-0.02 0)"/></g></g><g class="cls-3"><g id="Groupe_3092" data-name="Groupe 3092"><path id="Tracé_10071" data-name="Tracé 10071" class="cls-20" d="M40.11,110.78,68,94.64c.39-.23.7-.07.7.36a1.57,1.57,0,0,1-.7,1.18l-27.8,16.14c-.39.23-.7.07-.7-.36a1.51,1.51,0,0,1,.7-1.18" transform="translate(-0.02 0)"/></g></g><g class="cls-3"><g id="Groupe_3093" data-name="Groupe 3093"><path id="Tracé_10072" data-name="Tracé 10072" class="cls-20" d="M40.09,129.31,122,81.89c.39-.23.7-.07.7.36a1.51,1.51,0,0,1-.7,1.18L40.09,130.85c-.39.23-.7.07-.7-.36a1.5,1.5,0,0,1,.7-1.18" transform="translate(-0.02 0)"/></g></g><g class="cls-3"><g id="Groupe_3094" data-name="Groupe 3094"><path id="Tracé_10073" data-name="Tracé 10073" class="cls-20" d="M70.64,93.06l51.69-29.9c.39-.22.7-.06.7.36a1.57,1.57,0,0,1-.7,1.18L70.64,94.6c-.39.22-.7.07-.7-.36a1.51,1.51,0,0,1,.7-1.18" transform="translate(-0.02 0)"/></g></g><g class="cls-3"><g id="Groupe_3095" data-name="Groupe 3095"><path id="Tracé_10074" data-name="Tracé 10074" class="cls-20" d="M40.11,115.18,54.19,107c.39-.23.7-.07.7.36a1.51,1.51,0,0,1-.7,1.18l-14.08,8.18c-.39.22-.7.07-.7-.36a1.54,1.54,0,0,1,.7-1.18" transform="translate(-0.02 0)"/></g></g><g class="cls-3"><g id="Groupe_3096" data-name="Groupe 3096"><path id="Tracé_10075" data-name="Tracé 10075" class="cls-20" d="M54.52,106.9a.64.64,0,0,0-.33.1l-14.08,8.18a1.51,1.51,0,0,0-.7,1.18c0,.29.15.46.37.46a.64.64,0,0,0,.33-.1l14.08-8.18a1.51,1.51,0,0,0,.7-1.18c0-.29-.15-.46-.37-.46" transform="translate(-0.02 0)"/></g></g><g class="cls-3"><g id="Groupe_3097" data-name="Groupe 3097"><path id="Tracé_10076" data-name="Tracé 10076" class="cls-20" d="M40.11,119.56l8.45-4.89c.39-.23.7-.07.7.36a1.51,1.51,0,0,1-.7,1.18l-8.45,4.89c-.39.22-.7.07-.7-.36a1.54,1.54,0,0,1,.7-1.18" transform="translate(-0.02 0)"/></g></g><g class="cls-3"><g id="Groupe_3098" data-name="Groupe 3098"><path id="Tracé_10077" data-name="Tracé 10077" class="cls-20" d="M49,114.57a.64.64,0,0,0-.33.1l-8.45,4.89a1.51,1.51,0,0,0-.7,1.18c0,.29.15.46.37.46a.64.64,0,0,0,.33-.1l8.45-4.89a1.51,1.51,0,0,0,.7-1.18c0-.3-.15-.46-.37-.46" transform="translate(-0.02 0)"/></g></g><g class="cls-3"><g id="Groupe_3099" data-name="Groupe 3099"><path id="Tracé_10078" data-name="Tracé 10078" class="cls-20" d="M57,105.42l49-28.36c.39-.23.7-.07.7.36a1.57,1.57,0,0,1-.7,1.18L57,107c-.39.22-.7.07-.7-.36a1.51,1.51,0,0,1,.7-1.18" transform="translate(-0.02 0)"/></g></g><g class="cls-3"><g id="Groupe_3100" data-name="Groupe 3100"><path id="Tracé_10079" data-name="Tracé 10079" class="cls-20" d="M106.23,77a.64.64,0,0,0-.33.1L57,105.41a1.49,1.49,0,0,0-.7,1.17c0,.29.15.46.37.46a.64.64,0,0,0,.33-.1l49-28.36a1.51,1.51,0,0,0,.7-1.18c0-.28-.15-.45-.37-.45" transform="translate(-0.02 0)"/></g></g><g class="cls-3"><g id="Groupe_3101" data-name="Groupe 3101"><path id="Tracé_10080" data-name="Tracé 10080" class="cls-20" d="M47.45,140.91l74.89-43.5c.39-.22.7-.07.7.36a1.57,1.57,0,0,1-.7,1.18l-74.89,43.5c-.39.23-.7.07-.7-.36a1.51,1.51,0,0,1,.7-1.18" transform="translate(-0.02 0)"/></g></g><g class="cls-3"><g id="Groupe_3102" data-name="Groupe 3102"><path id="Tracé_10081" data-name="Tracé 10081" class="cls-20" d="M47.45,136.53,122.34,93c.39-.23.7-.07.7.36a1.51,1.51,0,0,1-.7,1.18L47.45,138.08c-.39.22-.7.07-.7-.36a1.51,1.51,0,0,1,.7-1.19" transform="translate(-0.02 0)"/></g></g><g class="cls-3"><g id="Groupe_3103" data-name="Groupe 3103"><path id="Tracé_10082" data-name="Tracé 10082" class="cls-20" d="M50.83,113.37l13.93-8.12c.39-.23.7-.07.7.36a1.57,1.57,0,0,1-.7,1.18l-13.93,8.12c-.39.23-.7.07-.7-.36a1.51,1.51,0,0,1,.7-1.18" transform="translate(-0.02 0)"/></g></g><g class="cls-3"><g id="Groupe_3104" data-name="Groupe 3104"><path id="Tracé_10083" data-name="Tracé 10083" class="cls-20" d="M65.09,105.15a.64.64,0,0,0-.33.1l-13.93,8.12a1.49,1.49,0,0,0-.7,1.17c0,.29.15.46.37.46a.64.64,0,0,0,.33-.1l13.93-8.12a1.49,1.49,0,0,0,.7-1.17c0-.3-.15-.46-.37-.46" transform="translate(-0.02 0)"/></g></g><g class="cls-3"><g id="Groupe_3105" data-name="Groupe 3105"><path id="Tracé_10084" data-name="Tracé 10084" class="cls-20" d="M67.49,103.67,122,72.32c.39-.23.7-.06.7.36a1.51,1.51,0,0,1-.7,1.18L67.49,105.21c-.39.22-.7.07-.7-.36a1.5,1.5,0,0,1,.7-1.18" transform="translate(-0.02 0)"/></g></g><g class="cls-3"><g id="Groupe_3106" data-name="Groupe 3106"><path id="Tracé_10085" data-name="Tracé 10085" class="cls-20" d="M122.26,72.22a.64.64,0,0,0-.33.1L67.49,103.67a1.49,1.49,0,0,0-.7,1.17c0,.29.15.46.37.46a.64.64,0,0,0,.33-.1L122,73.85a1.49,1.49,0,0,0,.7-1.17c0-.3-.15-.46-.37-.46" transform="translate(-0.02 0)"/></g></g><g class="cls-3"><g id="Groupe_3107" data-name="Groupe 3107"><path id="Tracé_10086" data-name="Tracé 10086" class="cls-20" d="M40.09,124.19,64.76,110c.39-.23.7-.07.7.36a1.51,1.51,0,0,1-.7,1.18L40.09,125.73c-.39.23-.7.07-.7-.36a1.5,1.5,0,0,1,.7-1.18" transform="translate(-0.02 0)"/></g></g><g class="cls-3"><g id="Groupe_3108" data-name="Groupe 3108"><path id="Tracé_10087" data-name="Tracé 10087" class="cls-20" d="M65.09,109.85a.64.64,0,0,0-.33.1L40.09,124.19a1.49,1.49,0,0,0-.7,1.17c0,.29.15.46.37.46a.64.64,0,0,0,.33-.1l24.67-14.24a1.51,1.51,0,0,0,.7-1.18c0-.28-.15-.45-.37-.45" transform="translate(-0.02 0)"/></g></g><g class="cls-3"><g id="Groupe_3109" data-name="Groupe 3109"><path id="Tracé_10088" data-name="Tracé 10088" class="cls-20" d="M67.49,108.37,122,77c.39-.23.7-.07.7.36a1.51,1.51,0,0,1-.7,1.18L67.49,109.91c-.39.23-.7.07-.7-.36a1.5,1.5,0,0,1,.7-1.18" transform="translate(-0.02 0)"/></g></g><g class="cls-3"><g id="Groupe_3110" data-name="Groupe 3110"><path id="Tracé_10089" data-name="Tracé 10089" class="cls-20" d="M122.26,76.92a.64.64,0,0,0-.33.1L67.49,108.37a1.49,1.49,0,0,0-.7,1.17c0,.29.15.46.37.46a.64.64,0,0,0,.33-.1L122,78.55a1.51,1.51,0,0,0,.7-1.18c0-.29-.15-.45-.37-.45" transform="translate(-0.02 0)"/></g></g><g class="cls-3"><g id="Groupe_3111" data-name="Groupe 3111"><path id="Tracé_10090" data-name="Tracé 10090" class="cls-20" d="M47.45,145.34l74.89-43.4c.39-.22.7-.07.7.36a1.55,1.55,0,0,1-.7,1.17l-74.89,43.4c-.39.23-.7.07-.7-.36a1.49,1.49,0,0,1,.7-1.17" transform="translate(-0.02 0)"/></g></g><g class="cls-3"><g id="Groupe_3112" data-name="Groupe 3112"><path id="Tracé_10091" data-name="Tracé 10091" class="cls-20" d="M47.45,149.73l74.89-43.39c.39-.23.7-.07.7.36a1.55,1.55,0,0,1-.7,1.17l-74.89,43.4c-.39.22-.7.07-.7-.36a1.51,1.51,0,0,1,.7-1.18" transform="translate(-0.02 0)"/></g></g><g class="cls-3"><g id="Groupe_3113" data-name="Groupe 3113"><path id="Tracé_10092" data-name="Tracé 10092" class="cls-20" d="M47.45,154.12l74.89-43.4c.39-.22.7-.07.7.36a1.57,1.57,0,0,1-.7,1.18l-74.89,43.4c-.39.23-.7.07-.7-.36a1.51,1.51,0,0,1,.7-1.18" transform="translate(-0.02 0)"/></g></g><g class="cls-3"><g id="Groupe_3114" data-name="Groupe 3114"><path id="Tracé_10093" data-name="Tracé 10093" class="cls-20" d="M47.45,159.94l74.89-43.38c.39-.23.7-.07.7.36a1.57,1.57,0,0,1-.7,1.18L47.45,161.48c-.39.23-.7.07-.7-.36a1.51,1.51,0,0,1,.7-1.18" transform="translate(-0.02 0)"/></g></g><g class="cls-3"><g id="Groupe_3115" data-name="Groupe 3115"><path id="Tracé_10094" data-name="Tracé 10094" class="cls-20" d="M40.26,164.06l3.26-1.88c.39-.23.7-.07.7.36a1.51,1.51,0,0,1-.7,1.18l-3.26,1.88c-.39.22-.7.07-.7-.36a1.51,1.51,0,0,1,.7-1.18" transform="translate(-0.02 0)"/></g></g><g class="cls-3"><g id="Groupe_3116" data-name="Groupe 3116"><path id="Tracé_10095" data-name="Tracé 10095" class="cls-20" d="M43.85,162.07a.64.64,0,0,0-.33.1l-3.26,1.88a1.51,1.51,0,0,0-.7,1.18c0,.29.15.46.37.46a.64.64,0,0,0,.33-.1l3.26-1.88a1.51,1.51,0,0,0,.7-1.18c0-.29-.15-.46-.37-.46" transform="translate(-0.02 0)"/></g></g><g class="cls-3"><g id="Groupe_3117" data-name="Groupe 3117"><path id="Tracé_10096" data-name="Tracé 10096" class="cls-20" d="M40.26,140.08l3.26-1.88c.39-.23.7-.07.7.36a1.51,1.51,0,0,1-.7,1.18l-3.26,1.88c-.39.23-.7.07-.7-.36a1.51,1.51,0,0,1,.7-1.18" transform="translate(-0.02 0)"/></g></g><g class="cls-3"><g id="Groupe_3118" data-name="Groupe 3118"><path id="Tracé_10097" data-name="Tracé 10097" class="cls-20" d="M43.85,138.1a.64.64,0,0,0-.33.1l-3.26,1.88a1.51,1.51,0,0,0-.7,1.18c0,.29.15.46.37.46a.64.64,0,0,0,.33-.1l3.26-1.88a1.51,1.51,0,0,0,.7-1.18c0-.29-.15-.46-.37-.46" transform="translate(-0.02 0)"/></g></g><g class="cls-3"><g id="Groupe_3119" data-name="Groupe 3119"><path id="Tracé_10098" data-name="Tracé 10098" class="cls-20" d="M40.26,149.52l3.26-1.88c.39-.22.7-.07.7.36a1.49,1.49,0,0,1-.7,1.17l-3.26,1.88c-.39.23-.7.07-.7-.36a1.49,1.49,0,0,1,.7-1.17" transform="translate(-0.02 0)"/></g></g><g class="cls-3"><g id="Groupe_3120" data-name="Groupe 3120"><path id="Tracé_10099" data-name="Tracé 10099" class="cls-20" d="M43.85,147.53a.64.64,0,0,0-.33.1l-3.26,1.88a1.51,1.51,0,0,0-.7,1.18c0,.29.15.46.37.46a.64.64,0,0,0,.33-.1l3.26-1.88a1.49,1.49,0,0,0,.7-1.17c0-.3-.15-.47-.37-.47" transform="translate(-0.02 0)"/></g></g><g class="cls-3"><g id="Groupe_3121" data-name="Groupe 3121"><path id="Tracé_10100" data-name="Tracé 10100" class="cls-20" d="M40.26,153.91,43.52,152c.39-.23.7-.07.7.36a1.49,1.49,0,0,1-.7,1.17l-3.26,1.88c-.39.22-.7.07-.7-.36a1.49,1.49,0,0,1,.7-1.17" transform="translate(-0.02 0)"/></g></g><g class="cls-3"><g id="Groupe_3122" data-name="Groupe 3122"><path id="Tracé_10101" data-name="Tracé 10101" class="cls-20" d="M43.85,151.92a.64.64,0,0,0-.33.1l-3.26,1.88a1.51,1.51,0,0,0-.7,1.18c0,.29.15.46.37.46a.64.64,0,0,0,.33-.1l3.26-1.88a1.51,1.51,0,0,0,.7-1.18c0-.29-.15-.46-.37-.46" transform="translate(-0.02 0)"/></g></g><g class="cls-3"><g id="Groupe_3123" data-name="Groupe 3123"><path id="Tracé_10102" data-name="Tracé 10102" class="cls-20" d="M40.26,158.29l3.26-1.88c.39-.23.7-.07.7.36a1.51,1.51,0,0,1-.7,1.18l-3.26,1.88c-.39.22-.7.07-.7-.36a1.51,1.51,0,0,1,.7-1.18" transform="translate(-0.02 0)"/></g></g><g class="cls-3"><g id="Groupe_3124" data-name="Groupe 3124"><path id="Tracé_10103" data-name="Tracé 10103" class="cls-20" d="M43.85,156.31a.64.64,0,0,0-.33.1l-3.26,1.88a1.51,1.51,0,0,0-.7,1.18c0,.29.15.46.37.46a.64.64,0,0,0,.33-.1L43.52,158a1.51,1.51,0,0,0,.7-1.18c0-.29-.15-.46-.37-.46" transform="translate(-0.02 0)"/></g></g><g class="cls-3"><g id="Groupe_3125" data-name="Groupe 3125"><path id="Tracé_10104" data-name="Tracé 10104" class="cls-20" d="M40.26,168l3.26-1.88c.39-.23.7-.07.7.36a1.49,1.49,0,0,1-.7,1.17l-3.26,1.88c-.39.23-.7.07-.7-.36a1.49,1.49,0,0,1,.7-1.17" transform="translate(-0.02 0)"/></g></g><g class="cls-3"><g id="Groupe_3126" data-name="Groupe 3126"><path id="Tracé_10105" data-name="Tracé 10105" class="cls-20" d="M43.85,166a.64.64,0,0,0-.33.1L40.26,168a1.51,1.51,0,0,0-.7,1.18c0,.29.15.46.37.46a.64.64,0,0,0,.33-.1l3.26-1.88a1.51,1.51,0,0,0,.7-1.18c0-.29-.15-.46-.37-.46" transform="translate(-0.02 0)"/></g></g><g class="cls-3"><g id="Groupe_3127" data-name="Groupe 3127"><path id="Tracé_10106" data-name="Tracé 10106" class="cls-20" d="M47.45,163.94l74.89-43.53c.39-.22.7-.06.7.36a1.57,1.57,0,0,1-.7,1.18L47.45,165.48c-.39.22-.7.07-.7-.36a1.51,1.51,0,0,1,.7-1.18" transform="translate(-0.02 0)"/></g></g><g class="cls-3"><g id="Groupe_3128" data-name="Groupe 3128"><path id="Tracé_10107" data-name="Tracé 10107" class="cls-20" d="M47.8,192.42,68,180.75c.39-.23.7-.07.7.36a1.51,1.51,0,0,1-.7,1.18L47.8,194c-.39.23-.7.07-.7-.36a1.51,1.51,0,0,1,.7-1.18" transform="translate(-0.02 0)"/></g></g><g class="cls-3"><g id="Groupe_3129" data-name="Groupe 3129"><path id="Tracé_10108" data-name="Tracé 10108" class="cls-20" d="M40.26,196.75l3.26-1.88c.39-.22.7-.06.7.36a1.49,1.49,0,0,1-.7,1.17l-3.26,1.88c-.39.23-.7.07-.7-.36a1.49,1.49,0,0,1,.7-1.17" transform="translate(-0.02 0)"/></g></g><g class="cls-3"><g id="Groupe_3130" data-name="Groupe 3130"><path id="Tracé_10109" data-name="Tracé 10109" class="cls-20" d="M43.85,194.77a.64.64,0,0,0-.33.1l-3.26,1.88a1.51,1.51,0,0,0-.7,1.18c0,.29.15.46.37.46a.64.64,0,0,0,.33-.1l3.26-1.88a1.51,1.51,0,0,0,.7-1.18c0-.3-.15-.46-.37-.46" transform="translate(-0.02 0)"/></g></g><g class="cls-3"><g id="Groupe_3131" data-name="Groupe 3131"><path id="Tracé_10110" data-name="Tracé 10110" class="cls-20" d="M40.26,200.72l3.26-1.88c.39-.23.7-.07.7.36a1.49,1.49,0,0,1-.7,1.17l-3.26,1.88c-.39.23-.7.07-.7-.36a1.49,1.49,0,0,1,.7-1.17" transform="translate(-0.02 0)"/></g></g><g class="cls-3"><g id="Groupe_3132" data-name="Groupe 3132"><path id="Tracé_10111" data-name="Tracé 10111" class="cls-20" d="M43.85,198.73a.64.64,0,0,0-.33.1l-3.26,1.88a1.49,1.49,0,0,0-.7,1.17c0,.29.15.46.37.46a.64.64,0,0,0,.33-.1l3.26-1.88a1.49,1.49,0,0,0,.7-1.17c0-.29-.15-.46-.37-.46" transform="translate(-0.02 0)"/></g></g><g class="cls-3"><g id="Groupe_3133" data-name="Groupe 3133"><path id="Tracé_10112" data-name="Tracé 10112" class="cls-20" d="M47.77,196.21,122,153.13c.39-.22.7-.06.7.36a1.51,1.51,0,0,1-.7,1.18L47.77,197.75c-.39.23-.7.07-.7-.36a1.51,1.51,0,0,1,.7-1.18" transform="translate(-0.02 0)"/></g></g><g class="cls-3"><g id="Groupe_3134" data-name="Groupe 3134"><path id="Tracé_10113" data-name="Tracé 10113" class="cls-20" d="M47.57,173.27,122.34,130c.39-.23.7-.06.7.36a1.51,1.51,0,0,1-.7,1.18L47.57,174.81c-.39.23-.7.07-.7-.36a1.51,1.51,0,0,1,.7-1.18" transform="translate(-0.02 0)"/></g></g><g class="cls-3"><g id="Groupe_3135" data-name="Groupe 3135"><path id="Tracé_10114" data-name="Tracé 10114" class="cls-20" d="M40.26,177.46l3.26-1.88c.39-.23.7-.07.7.36a1.49,1.49,0,0,1-.7,1.17L40.26,179c-.39.23-.7.07-.7-.36a1.49,1.49,0,0,1,.7-1.17" transform="translate(-0.02 0)"/></g></g><g class="cls-3"><g id="Groupe_3136" data-name="Groupe 3136"><path id="Tracé_10115" data-name="Tracé 10115" class="cls-20" d="M43.85,175.48a.64.64,0,0,0-.33.1l-3.26,1.88a1.51,1.51,0,0,0-.7,1.18c0,.29.15.46.37.46a.64.64,0,0,0,.33-.1l3.26-1.88a1.49,1.49,0,0,0,.7-1.17c0-.31-.15-.47-.37-.47" transform="translate(-0.02 0)"/></g></g><g class="cls-3"><g id="Groupe_3137" data-name="Groupe 3137"><path id="Tracé_10116" data-name="Tracé 10116" class="cls-20" d="M47.57,177.61l74.77-43.28c.39-.23.7-.07.7.36a1.51,1.51,0,0,1-.7,1.18L47.57,179.15c-.39.23-.7.07-.7-.36a1.51,1.51,0,0,1,.7-1.18" transform="translate(-0.02 0)"/></g></g><g class="cls-3"><g id="Groupe_3138" data-name="Groupe 3138"><path id="Tracé_10117" data-name="Tracé 10117" class="cls-20" d="M40.26,181.85,43.52,180c.39-.23.7-.07.7.36a1.49,1.49,0,0,1-.7,1.17l-3.26,1.88c-.39.23-.7.07-.7-.36a1.49,1.49,0,0,1,.7-1.17" transform="translate(-0.02 0)"/></g></g><g class="cls-3"><g id="Groupe_3139" data-name="Groupe 3139"><path id="Tracé_10118" data-name="Tracé 10118" class="cls-20" d="M43.85,179.87a.64.64,0,0,0-.33.1l-3.26,1.88a1.51,1.51,0,0,0-.7,1.18c0,.29.15.46.37.46a.64.64,0,0,0,.33-.1l3.26-1.88a1.51,1.51,0,0,0,.7-1.18c0-.3-.15-.46-.37-.46" transform="translate(-0.02 0)"/></g></g><g class="cls-3"><g id="Groupe_3140" data-name="Groupe 3140"><path id="Tracé_10119" data-name="Tracé 10119" class="cls-20" d="M47.57,182l74.77-43.28c.39-.22.7-.07.7.36a1.49,1.49,0,0,1-.7,1.17l-74.77,43.3c-.39.23-.7.07-.7-.36a1.49,1.49,0,0,1,.7-1.17" transform="translate(-0.02 0)"/></g></g><g class="cls-3"><g id="Groupe_3141" data-name="Groupe 3141"><path id="Tracé_10120" data-name="Tracé 10120" class="cls-20" d="M40.26,186.24l3.26-1.88c.39-.23.7-.07.7.36a1.49,1.49,0,0,1-.7,1.17l-3.26,1.88c-.39.23-.7.07-.7-.36a1.49,1.49,0,0,1,.7-1.17" transform="translate(-0.02 0)"/></g></g><g class="cls-3"><g id="Groupe_3142" data-name="Groupe 3142"><path id="Tracé_10121" data-name="Tracé 10121" class="cls-20" d="M43.85,184.25a.64.64,0,0,0-.33.1l-3.26,1.88a1.51,1.51,0,0,0-.7,1.18c0,.29.15.46.37.46a.64.64,0,0,0,.33-.1l3.26-1.88a1.51,1.51,0,0,0,.7-1.18c0-.29-.15-.46-.37-.46" transform="translate(-0.02 0)"/></g></g><g class="cls-3"><g id="Groupe_3143" data-name="Groupe 3143"><path id="Tracé_10122" data-name="Tracé 10122" class="cls-10" d="M53.45,134.57A3.53,3.53,0,0,1,52,131.8v-9a3.64,3.64,0,0,1,1.6-2.8L198,36.17a3,3,0,0,1,4.67,2.71v9a3.63,3.63,0,0,1-1.67,2.8L56.6,134.51a3.46,3.46,0,0,1-3.15.06" transform="translate(-0.02 0)"/></g></g><g class="cls-3"><g id="Groupe_3144" data-name="Groupe 3144"><path id="Tracé_10123" data-name="Tracé 10123" class="cls-12" d="M202.6,38.61c-.11-.85-.8-1.16-1.61-.68L56.6,121.76A3.51,3.51,0,0,0,55.45,123l-3-1.78a3.39,3.39,0,0,1,1.1-1.22L198,36.15a3.46,3.46,0,0,1,3.15-.06,3.59,3.59,0,0,1,1.51,2.52" transform="translate(-0.02 0)"/></g></g><g class="cls-3"><g id="Groupe_3145" data-name="Groupe 3145"><path id="Tracé_10124" data-name="Tracé 10124" class="cls-13" d="M55.45,123a3.35,3.35,0,0,0-.5,1.6v4.94l-3-1.77v-5.13a2.76,2.76,0,0,1,.06-.4,3.35,3.35,0,0,1,.41-1Z" transform="translate(-0.02 0)"/></g></g><g class="cls-3"><g id="Groupe_3146" data-name="Groupe 3146"><path id="Tracé_10125" data-name="Tracé 10125" class="cls-11" d="M202.61,38.87v4.94l-97.18,56.44-46,26.68L55,129.53v-4.94a3.6,3.6,0,0,1,1.62-2.83L201,37.93c.9-.52,1.63-.1,1.63.94" transform="translate(-0.02 0)"/></g></g><g class="cls-3"><g id="Groupe_3147" data-name="Groupe 3147"><path id="Tracé_10126" data-name="Tracé 10126" class="cls-21" d="M198.16,42c.58-.34,1-.06,1,.61a2.36,2.36,0,0,1-1,1.83c-.58.34-1,.07-1-.61a2.35,2.35,0,0,1,1-1.83" transform="translate(-0.02 0)"/></g></g><g class="cls-3"><g id="Groupe_3148" data-name="Groupe 3148"><path id="Tracé_10127" data-name="Tracé 10127" class="cls-21" d="M194.37,44.17c.58-.34,1-.06,1,.61a2.35,2.35,0,0,1-1,1.83c-.58.34-1,.06-1-.61a2.36,2.36,0,0,1,1-1.83" transform="translate(-0.02 0)"/></g></g><g class="cls-3"><g id="Groupe_3149" data-name="Groupe 3149"><path id="Tracé_10128" data-name="Tracé 10128" class="cls-21" d="M190.59,46.36c.58-.34,1-.06,1,.61a2.35,2.35,0,0,1-1,1.83c-.58.34-1,.06-1-.61a2.36,2.36,0,0,1,1-1.83" transform="translate(-0.02 0)"/></g></g><g class="cls-3"><g id="Groupe_3150" data-name="Groupe 3150"><path id="Tracé_10129" data-name="Tracé 10129" class="cls-22" d="M56.6,233.21a2.77,2.77,0,0,1-1.28.39,3.2,3.2,0,0,1-1.87-.33A3.49,3.49,0,0,1,52,230.5V127.76l3,1.77V232.26c0,.74.37,1.17.9,1.17a1.45,1.45,0,0,0,.73-.22" transform="translate(-0.02 0)"/></g></g><g class="cls-3"><g id="Groupe_3151" data-name="Groupe 3151"><path id="Tracé_10130" data-name="Tracé 10130" class="cls-23" d="M55.88,233.23c-.44,0-.7-.36-.7-1V129.65l50.35-29.23,96.88-56.26V146.54a3.42,3.42,0,0,1-1.52,2.66L56.5,233a1.23,1.23,0,0,1-.62.2" transform="translate(-0.02 0)"/></g></g><g class="cls-3"><g id="Groupe_3152" data-name="Groupe 3152"><path id="Tracé_10131" data-name="Tracé 10131" class="cls-22" d="M202.61,43.81l-97.18,56.44-46,26.69L55,129.54V232.27c0,.74.37,1.17.9,1.17a1.41,1.41,0,0,0,.72-.22L201,149.39a3.6,3.6,0,0,0,1.62-2.83V43.81Zm-.4.7v102a3.21,3.21,0,0,1-1.42,2.48L56.4,232.86a1.1,1.1,0,0,1-.52.17c-.45,0-.5-.53-.5-.76V129.77l4.28-2.48,46-26.68Z" transform="translate(-0.02 0)"/></g></g><path id="Tracé_10132" data-name="Tracé 10132" class="cls-24" d="M196.84,76.71l-136.09,79v.59l136.09-79Z" transform="translate(-0.02 0)"/><path id="Tracé_10133" data-name="Tracé 10133" class="cls-25" d="M196.84,54.61l-136.09,79v.59l136.09-79Z" transform="translate(-0.02 0)"/><path id="Tracé_10134" data-name="Tracé 10134" class="cls-26" d="M196.84,55.2l-136.09,79v21.51l136.09-79Z" transform="translate(-0.02 0)"/><g class="cls-3"><g id="Groupe_3153" data-name="Groupe 3153"><path id="Tracé_10135" data-name="Tracé 10135" class="cls-11" d="M183.33,127.08l-27,15.66c-.69.4-1.24,0-1.24-1V112.65a3,3,0,0,1,1.24-2.39l27-15.66c.69-.4,1.24,0,1.24,1v29.14a3,3,0,0,1-1.24,2.39" transform="translate(-0.02 0)"/></g></g><path id="Tracé_10136" data-name="Tracé 10136" class="cls-12" d="M157.18,139v-9l7.55-15.72,8.7,7.6-2.06-4.14,4.62-8.08,6.49,5.42v9.22Z" transform="translate(-0.02 0)"/><g class="cls-3"><g id="Groupe_3154" data-name="Groupe 3154"><path id="Tracé_10137" data-name="Tracé 10137" class="cls-12" d="M172.76,108.38a4.54,4.54,0,0,1-1.71,3.62c-.94.55-1.71-.19-1.71-1.66a4.57,4.57,0,0,1,1.71-3.65c.94-.55,1.71.19,1.71,1.66" transform="translate(-0.02 0)"/></g></g><g class="cls-3"><g id="Groupe_3155" data-name="Groupe 3155"><path id="Tracé_10138" data-name="Tracé 10138" class="cls-27" d="M144.42,117.31a1.08,1.08,0,0,0-.49.15l-27,15.66a3,3,0,0,0-1.24,2.39v29.14c0,.69.31,1.1.75,1.1a1.08,1.08,0,0,0,.49-.15l27-15.66a3,3,0,0,0,1.24-2.39V118.41c0-.69-.31-1.1-.75-1.1M131,135.07c-.65,0-1.11-.7-1.11-1.84a4.55,4.55,0,0,1,1.71-3.64,1.27,1.27,0,0,1,.6-.18c.65,0,1.11.7,1.11,1.84a4.6,4.6,0,0,1-1.71,3.65,1.39,1.39,0,0,1-.6.17m3,9.7L132,140.64l4.62-8.08,6.49,5.42v9.22l-25.3,14.68v-9l7.55-15.72Z" transform="translate(-0.02 0)"/></g></g><path id="Tracé_10139" data-name="Tracé 10139" class="cls-28" d="M136.59,132.56,132,140.64l2.05,4.13-8.7-7.59-7.55,15.72v9l25.3-14.68V138Z" transform="translate(-0.02 0)"/><g class="cls-3"><g id="Groupe_3156" data-name="Groupe 3156"><path id="Tracé_10140" data-name="Tracé 10140" class="cls-28" d="M132.25,129.41a1.27,1.27,0,0,0-.6.18,4.53,4.53,0,0,0-1.71,3.65c0,1.14.46,1.84,1.11,1.84a1.27,1.27,0,0,0,.6-.18,4.57,4.57,0,0,0,1.71-3.65c0-1.14-.46-1.84-1.11-1.84" transform="translate(-0.02 0)"/></g></g><g class="cls-3"><g id="Groupe_3157" data-name="Groupe 3157"><path id="Tracé_10141" data-name="Tracé 10141" class="cls-11" d="M104.53,172.81l-27,15.67c-.69.4-1.24,0-1.24-.95V158.39A3,3,0,0,1,77.54,156l27-15.66c.69-.4,1.24,0,1.24.95v29.14a3,3,0,0,1-1.24,2.38" transform="translate(-0.02 0)"/></g></g><g class="cls-3"><g id="Groupe_3158" data-name="Groupe 3158"><path id="Tracé_10142" data-name="Tracé 10142" class="cls-11" d="M105,140.18a1.08,1.08,0,0,0-.49.15L77.54,156a3,3,0,0,0-1.24,2.39v29.14c0,.69.31,1.1.75,1.1a1.08,1.08,0,0,0,.49-.15l27-15.66a3,3,0,0,0,1.24-2.39V141.28c0-.69-.31-1.1-.75-1.1" transform="translate(-0.02 0)"/></g></g><path id="Tracé_10143" data-name="Tracé 10143" class="cls-12" d="M78.39,184.75v-9L85.94,160l8.69,7.6-2-4.13,4.61-8.09,6.49,5.42v9.22Z" transform="translate(-0.02 0)"/><g class="cls-3"><g id="Groupe_3159" data-name="Groupe 3159"><path id="Tracé_10144" data-name="Tracé 10144" class="cls-12" d="M94,154.11a4.6,4.6,0,0,1-1.71,3.65c-1,.55-1.71-.19-1.71-1.66a4.6,4.6,0,0,1,1.71-3.65c.94-.55,1.71.2,1.71,1.66" transform="translate(-0.02 0)"/></g></g><g class="cls-3"><g id="Groupe_3160" data-name="Groupe 3160"><path id="Tracé_10145" data-name="Tracé 10145" class="cls-29" d="M141.84,158.63,119,171.87c-.5.29-.9,0-.9-.69V171a2.16,2.16,0,0,1,.9-1.73L141.84,156c.5-.29.9,0,.9.69v.18a2.18,2.18,0,0,1-.9,1.73" transform="translate(-0.02 0)"/></g></g><g class="cls-3"><g id="Groupe_3161" data-name="Groupe 3161"><path id="Tracé_10146" data-name="Tracé 10146" class="cls-29" d="M102.44,181.49,79.63,194.73c-.5.29-.9,0-.9-.69v-.18a2.16,2.16,0,0,1,.9-1.73l22.81-13.24c.5-.29.9,0,.9.69v.18a2.16,2.16,0,0,1-.9,1.73" transform="translate(-0.02 0)"/></g></g><g class="cls-3"><g id="Groupe_3162" data-name="Groupe 3162"><path id="Tracé_10147" data-name="Tracé 10147" class="cls-29" d="M181.24,135.76,158.43,149c-.5.29-.9,0-.9-.69v-.18a2.16,2.16,0,0,1,.9-1.73l22.81-13.24c.5-.29.9,0,.9.68V134a2.19,2.19,0,0,1-.9,1.74" transform="translate(-0.02 0)"/></g></g><g class="cls-3"><g id="Groupe_3163" data-name="Groupe 3163"><path id="Tracé_10148" data-name="Tracé 10148" class="cls-22" d="M115.69,178.17a.46.46,0,0,1-.4-.23.47.47,0,0,1,.17-.64L145,160.19a.46.46,0,0,1,.63.17h0a.47.47,0,0,1-.17.64L116,178.11Z" transform="translate(-0.02 0)"/></g></g><g class="cls-3"><g id="Groupe_3164" data-name="Groupe 3164"><path id="Tracé_10149" data-name="Tracé 10149" class="cls-22" d="M115.69,181.84a.46.46,0,0,1-.4-.23.47.47,0,0,1,.17-.64L145,163.86a.46.46,0,0,1,.63.17h0a.47.47,0,0,1-.17.64L116,181.78Z" transform="translate(-0.02 0)"/></g></g><g class="cls-3"><g id="Groupe_3165" data-name="Groupe 3165"><path id="Tracé_10150" data-name="Tracé 10150" class="cls-22" d="M115.69,185.51a.46.46,0,0,1-.4-.23.47.47,0,0,1,.17-.64L145,167.53a.46.46,0,0,1,.63.17h0a.47.47,0,0,1-.17.64L116,185.45Z" transform="translate(-0.02 0)"/></g></g><g class="cls-3"><g id="Groupe_3166" data-name="Groupe 3166"><path id="Tracé_10151" data-name="Tracé 10151" class="cls-22" d="M115.69,189.18a.46.46,0,0,1-.4-.23.47.47,0,0,1,.17-.64L145,171.2a.46.46,0,0,1,.63.17h0a.47.47,0,0,1-.17.64L116,189.12Z" transform="translate(-0.02 0)"/></g></g><g class="cls-3"><g id="Groupe_3167" data-name="Groupe 3167"><path id="Tracé_10152" data-name="Tracé 10152" class="cls-22" d="M155.09,155.31a.46.46,0,0,1-.4-.23.47.47,0,0,1,.17-.64l29.48-17.11a.46.46,0,0,1,.65.11.48.48,0,0,1-.11.66l-.07,0-29.48,17.11Z" transform="translate(-0.02 0)"/></g></g><g class="cls-3"><g id="Groupe_3168" data-name="Groupe 3168"><path id="Tracé_10153" data-name="Tracé 10153" class="cls-22" d="M155.09,159a.46.46,0,0,1-.4-.23.47.47,0,0,1,.17-.64L184.34,141a.46.46,0,0,1,.65.11.48.48,0,0,1-.11.66l-.07,0-29.48,17.11Z" transform="translate(-0.02 0)"/></g></g><g class="cls-3"><g id="Groupe_3169" data-name="Groupe 3169"><path id="Tracé_10154" data-name="Tracé 10154" class="cls-22" d="M155.09,162.64a.46.46,0,0,1-.4-.23.47.47,0,0,1,.17-.64l29.48-17.11a.48.48,0,0,1,.63.23.47.47,0,0,1-.16.58l-29.48,17.11Z" transform="translate(-0.02 0)"/></g></g><g class="cls-3"><g id="Groupe_3170" data-name="Groupe 3170"><path id="Tracé_10155" data-name="Tracé 10155" class="cls-22" d="M155.09,166.31a.46.46,0,0,1-.4-.23.47.47,0,0,1,.17-.64l29.48-17.11a.46.46,0,0,1,.65.11.48.48,0,0,1-.11.66l-.07,0-29.48,17.11Z" transform="translate(-0.02 0)"/></g></g><g class="cls-3"><g id="Groupe_3171" data-name="Groupe 3171"><path id="Tracé_10156" data-name="Tracé 10156" class="cls-22" d="M76.29,201a.46.46,0,0,1-.4-.23.47.47,0,0,1,.17-.64L105.54,183a.48.48,0,0,1,.63.23.47.47,0,0,1-.16.58L76.53,201Z" transform="translate(-0.02 0)"/></g></g><g class="cls-3"><g id="Groupe_3172" data-name="Groupe 3172"><path id="Tracé_10157" data-name="Tracé 10157" class="cls-22" d="M76.29,204.71a.46.46,0,0,1-.4-.23.47.47,0,0,1,.17-.64l29.48-17.11a.46.46,0,0,1,.65.11.48.48,0,0,1-.11.66l-.07,0L76.53,204.65Z" transform="translate(-0.02 0)"/></g></g><g class="cls-3"><g id="Groupe_3173" data-name="Groupe 3173"><path id="Tracé_10158" data-name="Tracé 10158" class="cls-22" d="M76.29,208.38a.46.46,0,0,1-.4-.23.47.47,0,0,1,.17-.64l29.48-17.11a.48.48,0,0,1,.63.23.47.47,0,0,1-.16.58L76.53,208.32Z" transform="translate(-0.02 0)"/></g></g><g class="cls-3"><g id="Groupe_3174" data-name="Groupe 3174"><path id="Tracé_10159" data-name="Tracé 10159" class="cls-22" d="M76.29,212a.46.46,0,0,1-.4-.23.47.47,0,0,1,.17-.64L105.54,194a.48.48,0,0,1,.63.23.47.47,0,0,1-.16.58L76.53,212Z" transform="translate(-0.02 0)"/></g></g><path id="Tracé_10160" data-name="Tracé 10160" class="cls-12" d="M196.84,61.87,179.05,72.19V65.52L196.84,55.2Z" transform="translate(-0.02 0)"/><path id="Tracé_10161" data-name="Tracé 10161" class="cls-12" d="M178.22,72.67,160.44,83V76.33L178.22,66Z" transform="translate(-0.02 0)"/><path id="Tracé_10162" data-name="Tracé 10162" class="cls-12" d="M159.61,83.47,141.83,93.8V87.13l17.78-10.32Z" transform="translate(-0.02 0)"/><path id="Tracé_10163" data-name="Tracé 10163" class="cls-12" d="M78.54,130.53,60.75,140.85v-6.67l17.79-10.32Z" transform="translate(-0.02 0)"/></svg>