<svg xmlns="http://www.w3.org/2000/svg" xmlns:xlink="http://www.w3.org/1999/xlink" viewBox="0 0 750 405.68"><defs><style>.cls-1{fill:none;}.cls-2{clip-path:url(#clip-path);}.cls-3{fill:#6b8ad9;}.cls-4{fill:#1c2445;}.cls-5{fill:#1c2657;}.cls-6{fill:#121a45;}.cls-7{fill:#293363;}.cls-8{fill:#2e3863;}.cls-9{fill:#33383b;}.cls-10{fill:#ba69c7;}.cls-11{fill:#3d54cf;}.cls-12{fill:#4a6beb;}.cls-13{fill:#304599;}.cls-14{fill:#38474f;}.cls-15{fill:#263338;}.cls-16{fill:#a38f57;}.cls-17{fill:#edc969;}.cls-18{fill:#e3c2e8;}.cls-19{fill:#f2e0f5;}.cls-20{fill:#8ca6fa;}.cls-21{fill:#fff;}.cls-22{fill:#e0e0e0;}.cls-23{fill:#fafafa;}.cls-24{fill:#c4cff5;}.cls-25{fill:#e0e5f7;}.cls-26{fill:#b2bff2;}.cls-27{fill:#b8c7fa;}.cls-28{fill:#dbe3fc;}.cls-29{fill:#455963;}</style><clipPath id="clip-path"><rect class="cls-1" y="-0.05" width="750" height="404"/></clipPath></defs><g id="MARKET"><g class="cls-2"><path class="cls-3" d="M274.21,401.06c-166.95-123.7-166.95-324.26,0-448s437.63-123.7,604.58,0,167,324.26,0,448-437.63,123.7-604.58,0"/></g><path class="cls-3" d="M42.4,247.41a9.28,9.28,0,0,0-2.32,5.6,9.61,9.61,0,0,0,4.44,7.42l162.17,94.12a9.75,9.75,0,0,0,8.88,0l104-60.34a9.59,9.59,0,0,0,4.44-7.42,9.23,9.23,0,0,0-2.33-5.6l1.73,1a10.4,10.4,0,0,1,0,18.52l-104,60.34a17.3,17.3,0,0,1-16.56,0L40.68,266.93a10.39,10.39,0,0,1,0-18.52Z"/><path class="cls-4" d="M324,286.79a9.59,9.59,0,0,1-4.44,7.42l-104,60.34a9.79,9.79,0,0,1-8.88,0L44.52,260.43a8.41,8.41,0,0,1,0-14.83l104-60.34a9.79,9.79,0,0,1,8.88,0l162.17,94.12a9.58,9.58,0,0,1,4.44,7.41"/><path class="cls-5" d="M319.53,284.54l-104,60.34a9.79,9.79,0,0,1-8.88,0L44.52,250.76c-2.46-1.43-2.46-3.74,0-5.16l104-60.34a9.79,9.79,0,0,1,8.88,0l162.17,94.12c2.45,1.42,2.45,3.73,0,5.16"/><path class="cls-6" d="M211.12,346v9.66a9.07,9.07,0,0,0,4.45-1.06l104-60.34a8.39,8.39,0,0,0,.45-14.54c2,1.43,1.84,3.54-.45,4.87l-104,60.34a9.07,9.07,0,0,1-4.45,1.07"/><path class="cls-7" d="M328.13,279.54c2.31-1.33,2.18-3.59,2.18-6.44V145.43a9.87,9.87,0,0,0-4.44-7.73L163.7,43.58c-2.45-1.43-6-1.44-8.1.23s-2.68,3.2-2.68,6V177.53a9.89,9.89,0,0,0,4.44,7.73l162.17,94.12a9.46,9.46,0,0,0,8.6.16"/><path class="cls-6" d="M152.92,49.85c0-2.84,2-4,4.44-2.58L319.53,141.4a9.05,9.05,0,0,1,3.14,3.34L329,141h0a9.21,9.21,0,0,0-3.14-3.34L163.7,43.58c-2.45-1.43-6-1.45-8.09.22s-2.69,3.21-2.69,6.05"/><path class="cls-6" d="M320.05,279.65a9.54,9.54,0,0,0,8.08-.11c2.3-1.33,2.18-3.59,2.18-6.43V145.43A9.07,9.07,0,0,0,329,141l-6.34,3.69h0a9.21,9.21,0,0,1,1.3,4.4V276.8c0,2.64-1.71,3.83-3.92,2.85"/><path class="cls-6" d="M317.14,146.55,161.08,56c-1.47-.86-2.67-.17-2.67,1.54V176.28a6,6,0,0,0,2.67,4.64l156.06,90.55c1.47.85,2.66.16,2.66-1.55V151.19a5.92,5.92,0,0,0-2.66-4.64"/><path class="cls-5" d="M317.14,146.55a5.92,5.92,0,0,1,2.66,4.64V267.85L165.53,178.33a5.9,5.9,0,0,1-2.67-4.64V57Z"/><path class="cls-6" d="M305.81,280.14l-149-86.49a4.54,4.54,0,0,0-4.18,0l-5.43,3.06a1.28,1.28,0,0,0,0,2.43l149.05,86.48a4.62,4.62,0,0,0,4.19,0l5.4-3.05a1.28,1.28,0,0,0,0-2.43"/><path class="cls-6" d="M291.18,288.82l-149-86.5a4.28,4.28,0,0,0-3.83-.21L99.53,224.63c-1,.55-.79,1.55.37,2.22l148.85,86.37a4.25,4.25,0,0,0,3.83.22L291.53,291c1-.55.8-1.54-.35-2.21"/><path class="cls-8" d="M216.91,248.56c.17-.11.16-.28,0-.4l-4.67-2.71a.78.78,0,0,0-.68,0L207.06,248c-.18.1-.16.28,0,.4l4.67,2.7a.73.73,0,0,0,.67,0Zm-59.14-32.43c.18-.1.16-.27,0-.39L153.06,213a.75.75,0,0,0-.67,0l-1.19.69c-.18.1-.16.28,0,.39l4.66,2.71a.72.72,0,0,0,.68,0Zm-37.19,13.26a.75.75,0,0,0,.67,0l4.47-2.59c.17-.1.16-.28,0-.39L121,223.72a.72.72,0,0,0-.68,0l-4.46,2.59c-.18.1-.16.28,0,.39l4.67,2.71M138,211.76c.18-.1.16-.28,0-.39l-4.67-2.71a.73.73,0,0,0-.67,0l-4.47,2.6c-.17.1-.16.27,0,.39l4.67,2.71a.78.78,0,0,0,.68,0Zm6.1-3.54c.18-.1.16-.28,0-.4l-4.67-2.7a.73.73,0,0,0-.67,0l-1.19.69c-.18.1-.16.28,0,.4l4.66,2.7a.75.75,0,0,0,.68,0Zm20.46,11.87c.18-.1.16-.28,0-.39L159.88,217a.75.75,0,0,0-.67,0l-1.19.69c-.18.1-.16.27,0,.39l4.66,2.71a.78.78,0,0,0,.68,0Zm38.68,20.55c.17-.1.16-.28,0-.39l-4.67-2.71a.72.72,0,0,0-.68,0l-4.46,2.59c-.18.1-.16.27,0,.39l4.67,2.71a.75.75,0,0,0,.67,0Zm6.82,4c.17-.1.16-.28,0-.4l-4.67-2.7a.75.75,0,0,0-.68,0l-4.46,2.59c-.18.11-.16.28,0,.4l4.67,2.71a.75.75,0,0,0,.67,0ZM181.3,227.89c.18-.1.16-.28,0-.39l-4.66-2.71a.72.72,0,0,0-.68,0l-4.47,2.59c-.17.1-.15.27,0,.39l4.67,2.71a.78.78,0,0,0,.68,0Zm15.15,8.79c.17-.1.16-.28,0-.39l-4.67-2.71a.74.74,0,0,0-.68,0l-4.46,2.59c-.18.1-.16.28,0,.39l4.67,2.71a.72.72,0,0,0,.67,0Zm-22-12.75c.18-.1.16-.28,0-.39l-4.66-2.71a.78.78,0,0,0-.68,0l-4.47,2.59c-.17.1-.15.28,0,.39l4.67,2.71a.72.72,0,0,0,.68,0Zm13.64,7.92c.18-.1.16-.28,0-.39l-4.66-2.71a.75.75,0,0,0-.68,0l-4.47,2.6c-.17.1-.15.27,0,.39l4.67,2.71a.78.78,0,0,0,.68,0ZM151,212.18c.18-.11.16-.28,0-.4l-4.67-2.71a.75.75,0,0,0-.67,0l-1.19.69c-.18.1-.16.28,0,.39l4.66,2.71a.75.75,0,0,0,.68,0Zm36,55.75a.78.78,0,0,0,.68,0l4.46-2.59c.17-.1.16-.28,0-.39l-4.67-2.71a.75.75,0,0,0-.68,0l-4.46,2.6c-.18.1-.16.27,0,.39l4.67,2.71m13.64,7.91a.73.73,0,0,0,.67,0l4.47-2.59c.17-.11.16-.28,0-.4l-4.67-2.71a.78.78,0,0,0-.68,0l-4.46,2.59c-.18.1-.16.28,0,.4l4.67,2.7m-6.82-3.95a.75.75,0,0,0,.67,0l4.47-2.59c.17-.1.16-.28,0-.39l-4.67-2.71a.75.75,0,0,0-.68,0l-4.46,2.59c-.18.11-.16.28,0,.4l4.67,2.71m27.27,15.83a.78.78,0,0,0,.68,0l4.47-2.59c.17-.1.15-.28,0-.39l-4.67-2.71a.72.72,0,0,0-.68,0l-4.46,2.59c-.18.1-.16.27,0,.39l4.66,2.71m-13.63-7.92a.7.7,0,0,0,.67,0l4.47-2.59c.17-.1.15-.28,0-.39l-4.67-2.71a.78.78,0,0,0-.68,0l-4.46,2.59c-.18.1-.16.28,0,.39l4.67,2.71m6.81,4a.78.78,0,0,0,.68,0l4.47-2.59c.17-.1.15-.28,0-.39l-4.67-2.71a.78.78,0,0,0-.68,0l-4.46,2.59c-.18.1-.16.28,0,.39l4.66,2.71m-59.82-40.27c.18-.11.16-.28,0-.4l-4.67-2.71a.75.75,0,0,0-.67,0L144.58,243c-.17.1-.16.28,0,.4l4.67,2.7a.75.75,0,0,0,.68,0ZM180.16,264a.72.72,0,0,0,.67,0l4.47-2.59c.18-.1.16-.28,0-.39l-4.67-2.71a.74.74,0,0,0-.68,0l-4.46,2.59c-.18.1-.16.28,0,.39l4.67,2.71M140.59,233.6a.75.75,0,0,0,.68,0l4.46-2.59c.18-.11.16-.28,0-.4L141,227.93a.78.78,0,0,0-.68,0l-4.46,2.59c-.18.1-.16.28,0,.4l4.66,2.7m-1.23,1.14c.17-.11.15-.28,0-.4l-4.67-2.7a.75.75,0,0,0-.68,0l-4.46,2.59c-.18.11-.16.28,0,.4l4.66,2.7a.75.75,0,0,0,.68,0Zm34,25.27a.7.7,0,0,0,.67,0l4.47-2.59c.17-.1.16-.27,0-.39l-13.64-7.92a.78.78,0,0,0-.68,0l-4.46,2.59c-.18.1-.16.28,0,.39L173.34,260m-18.12-25.32a.75.75,0,0,0,.68,0l4.47-2.59c.17-.11.15-.28,0-.4l-4.67-2.7a.75.75,0,0,0-.68,0l-4.46,2.59c-.18.1-.16.28,0,.4l4.66,2.7m-27.82-1.34a.75.75,0,0,0,.67,0l4.47-2.59c.17-.1.15-.28,0-.39l-4.67-2.71a.75.75,0,0,0-.68,0l-4.46,2.6c-.18.1-.16.27,0,.39l4.67,2.71m10.81,13.3c-.18.11-.16.28,0,.4l4.66,2.71a.78.78,0,0,0,.68,0l4.46-2.59c.18-.1.16-.28,0-.4l-4.66-2.7a.75.75,0,0,0-.68,0Zm24.4,14.17c-.17.1-.16.28,0,.39l5.75,3.34a.75.75,0,0,0,.67,0l4.47-2.59c.17-.1.16-.28,0-.39l-5.75-3.34a.75.75,0,0,0-.67,0Zm72.15,41.87c-.18.1-.16.28,0,.39l5.74,3.34a.78.78,0,0,0,.68,0l4.46-2.59c.18-.1.16-.28,0-.39l-5.74-3.34a.78.78,0,0,0-.68,0ZM178.41,270c-.18.1-.16.27,0,.39l5.74,3.33a.72.72,0,0,0,.68,0l4.46-2.59c.18-.1.16-.27,0-.39l-5.74-3.33a.75.75,0,0,0-.68,0Zm48.45,28.12c-.18.1-.16.28,0,.39l5.74,3.33a.75.75,0,0,0,.68,0l4.47-2.59c.17-.11.15-.28,0-.4L232,295.54a.74.74,0,0,0-.68,0ZM186.3,274.57c-.17.1-.16.28,0,.39l38.41,22.29a.71.71,0,0,0,.68,0l4.46-2.59c.18-.1.16-.27,0-.39L191.44,272a.72.72,0,0,0-.67,0Zm-33-19.17c-.17.1-.16.28,0,.4L160.5,260a.75.75,0,0,0,.68,0l4.46-2.59c.18-.11.16-.28,0-.4l-7.18-4.16a.75.75,0,0,0-.68,0Zm17.23,10c-.18.1-.16.28,0,.4l5.74,3.33a.78.78,0,0,0,.68,0l4.46-2.59c.18-.1.16-.28,0-.39l-5.74-3.33a.75.75,0,0,0-.68,0ZM102.67,226c-.17.1-.15.28,0,.39l4.67,2.71a.72.72,0,0,0,.68,0l10.84-6.29c.17-.1.16-.28,0-.39l-4.67-2.71a.78.78,0,0,0-.68,0L102.67,226m6.82,4c-.17.1-.16.28,0,.39l4.67,2.71a.72.72,0,0,0,.68,0l4.46-2.59c.18-.1.16-.28,0-.39l-4.67-2.71a.72.72,0,0,0-.67,0ZM145,250.61c-.18.1-.16.28,0,.4l4.66,2.7a.75.75,0,0,0,.68,0l4.46-2.59c.18-.11.16-.28,0-.4L150.17,248a.78.78,0,0,0-.68,0Zm82.86,41.07a.78.78,0,0,0,.68,0l4.46-2.59c.18-.1.16-.28,0-.4l-4.66-2.7a.75.75,0,0,0-.68,0l-4.46,2.59c-.18.11-.16.28,0,.4l4.66,2.71m-96.5-49c-.18.11-.16.28,0,.4l4.66,2.71a.78.78,0,0,0,.68,0l4.46-2.59c.18-.1.16-.28,0-.39l-4.66-2.71a.75.75,0,0,0-.68,0ZM116.31,234c-.17.1-.16.27,0,.39L127.84,241a.78.78,0,0,0,.68,0l4.46-2.59c.18-.1.16-.28,0-.39l-11.49-6.67a.7.7,0,0,0-.67,0Zm147.45,41.8c.18-.1.16-.28,0-.4l-4.67-2.7a.73.73,0,0,0-.67,0l-4.47,2.59c-.18.11-.16.28,0,.4l4.67,2.71a.75.75,0,0,0,.67,0Zm-6.82-4c.17-.1.16-.28,0-.39l-4.67-2.71a.74.74,0,0,0-.68,0l-4.46,2.6c-.18.1-.16.27,0,.39l4.67,2.71a.75.75,0,0,0,.67,0Zm-14.29,35.48c-.17.11-.15.28,0,.4l7.18,4.16a.75.75,0,0,0,.68,0l4.46-2.59c.18-.11.16-.28,0-.4l-7.18-4.16a.73.73,0,0,0-.67,0Zm4.5-41.16c.18-.1.16-.28,0-.39L242.45,263a.72.72,0,0,0-.68,0l-4.47,2.59c-.17.1-.15.27,0,.39l4.67,2.71a.78.78,0,0,0,.68,0Zm-13.64-7.92c.18-.1.16-.27,0-.39l-4.66-2.71a.78.78,0,0,0-.68,0l-4.46,2.59c-.18.1-.16.28,0,.39l4.66,2.71a.72.72,0,0,0,.68,0Zm37.07,21.52c.18-.11.16-.28,0-.4l-4.67-2.7a.75.75,0,0,0-.68,0l-4.46,2.59c-.18.1-.16.28,0,.4l4.67,2.7a.74.74,0,0,0,.68,0Zm-30.25-17.56c.18-.1.16-.28,0-.39l-4.66-2.71a.78.78,0,0,0-.68,0l-4.46,2.59c-.18.1-.16.28,0,.39l4.66,2.71a.74.74,0,0,0,.68,0Zm-13.64-7.91c.18-.11.16-.28,0-.4L222,251.13a.78.78,0,0,0-.68,0l-4.46,2.59c-.18.1-.16.28,0,.4l4.66,2.7a.75.75,0,0,0,.68,0Zm23.78,50.17c-.18.1-.16.27,0,.39l5.74,3.33a.75.75,0,0,0,.68,0l4.46-2.6c.18-.1.16-.27,0-.39l-5.74-3.33a.72.72,0,0,0-.68,0l-4.46,2.59m3.14-5.58c-.17.1-.16.28,0,.39l9,5.21a.7.7,0,0,0,.67,0l4.47-2.59c.17-.1.16-.27,0-.39l-9-5.21a.75.75,0,0,0-.67,0l-4.47,2.59m23.79-15.17c.17-.1.16-.27,0-.39l-4.67-2.71a.78.78,0,0,0-.68,0l-4.46,2.59c-.18.1-.16.28,0,.39l4.67,2.71a.73.73,0,0,0,.67,0Zm-.06,5.15c-.18.1-.16.28,0,.39l5.74,3.34a.78.78,0,0,0,.68,0l4.46-2.59c.18-.1.16-.28,0-.39l-5.74-3.34a.78.78,0,0,0-.68,0l-4.46,2.59m-15.56,7.36c-.17.1-.15.28,0,.39l7.18,4.17a.72.72,0,0,0,.68,0l4.46-2.59c.18-.1.16-.28,0-.39l-7.17-4.17a.78.78,0,0,0-.68,0l-4.47,2.59m8.89-2.24c-.17.1-.15.28,0,.39l4.67,2.71a.78.78,0,0,0,.68,0l4.46-2.59c.18-.1.16-.28,0-.39l-4.66-2.71a.72.72,0,0,0-.68,0l-4.47,2.59m-36,1.7a.75.75,0,0,0,.68,0l4.47-2.59c.17-.11.15-.28-.05-.4L235.15,290a.78.78,0,0,0-.68,0L230,292.53c-.18.1-.16.28,0,.39l4.66,2.71M226,269.85a.78.78,0,0,0-.68,0l-4.46,2.59c-.18.1-.16.28,0,.4l4.66,2.7a.75.75,0,0,0,.68,0l4.46-2.59c.18-.11.16-.28,0-.4L226,269.85m6.82,4a.78.78,0,0,0-.68,0l-4.46,2.59c-.18.1-.16.28,0,.39l4.66,2.71a.72.72,0,0,0,.68,0l4.46-2.59c.18-.1.16-.27,0-.39l-4.66-2.71M205.55,258a.78.78,0,0,0-.68,0l-4.46,2.59c-.18.1-.16.28,0,.39l4.66,2.71a.78.78,0,0,0,.68,0l4.47-2.59c.17-.1.15-.28,0-.39L205.55,258m13.64,7.92a.75.75,0,0,0-.68,0l-4.46,2.59c-.18.11-.16.28,0,.4l4.66,2.71a.78.78,0,0,0,.68,0L223.9,269c.17-.1.15-.28,0-.4l-4.67-2.7m-6.82-4a.72.72,0,0,0-.68,0l-4.46,2.59c-.18.1-.16.27,0,.39l4.66,2.71a.78.78,0,0,0,.68,0l4.47-2.59c.17-.1.15-.28,0-.39l-4.67-2.71m27.28,15.83a.74.74,0,0,0-.68,0l-4.46,2.59c-.18.1-.16.28,0,.39l4.66,2.71a.74.74,0,0,0,.68,0l4.46-2.59c.18-.1.16-.28,0-.39l-4.66-2.71m6.82,4a.72.72,0,0,0-.68,0l-4.46,2.59c-.18.1-.16.27,0,.39L246,287.4a.78.78,0,0,0,.68,0l4.46-2.59c.18-.1.16-.28,0-.39l-4.66-2.71m-22.25.41a.72.72,0,0,0,.68,0l4.46-2.59c.18-.1.16-.27,0-.39l-4.66-2.71a.78.78,0,0,0-.68,0L219.52,279c-.18.1-.16.28,0,.39l4.66,2.71m6.82,4a.74.74,0,0,0,.68,0l4.46-2.59c.18-.1.16-.28,0-.39l-4.66-2.71a.74.74,0,0,0-.68,0L226.33,283c-.17.1-.15.28,0,.39L231,286.1m6.82,4a.78.78,0,0,0,.68,0l4.46-2.59c.18-.1.16-.28,0-.39l-4.66-2.71a.72.72,0,0,0-.68,0L233.15,287c-.17.1-.15.27,0,.39l4.67,2.71m15.43-4.37a.75.75,0,0,0-.68,0l-4.46,2.59c-.18.11-.16.28,0,.4l4.66,2.71a.78.78,0,0,0,.68,0l4.46-2.59c.18-.1.16-.28,0-.39l-4.66-2.71m-3.47,5.76c.18-.1.16-.28,0-.4l-4.66-2.7a.75.75,0,0,0-.68,0L240,290.91c-.17.11-.15.28,0,.4l4.67,2.71a.78.78,0,0,0,.68,0Zm-57.91-41.39a.78.78,0,0,0-.68,0l-4.46,2.59c-.18.1-.16.28,0,.4l4.66,2.7a.75.75,0,0,0,.68,0l4.47-2.59c.17-.11.16-.28,0-.4l-4.67-2.71m-53-23c.18-.1.16-.28,0-.4l-4.66-2.7a.75.75,0,0,0-.68,0l-4.46,2.59c-.18.11-.16.28,0,.4l4.66,2.7a.75.75,0,0,0,.68,0ZM198.73,254a.78.78,0,0,0-.68,0l-4.46,2.59c-.18.1-.16.28,0,.39l4.66,2.71a.72.72,0,0,0,.68,0l4.47-2.59c.17-.1.16-.27,0-.39L198.73,254M147.4,224.23a.75.75,0,0,0-.67,0l-4.47,2.59c-.17.1-.16.28,0,.39L147,229.9a.75.75,0,0,0,.68,0l4.46-2.6c.18-.1.16-.27,0-.39l-4.67-2.71m-15.75-8.77c.18-.1.16-.28,0-.39L127,212.36a.72.72,0,0,0-.68,0l-10.84,6.29c-.18.1-.16.28,0,.39l4.66,2.71a.74.74,0,0,0,.68,0l10.84-6.29m-3,3.42c-.17.11-.15.28,0,.4l4.67,2.71a.78.78,0,0,0,.68,0l4.46-2.59c.18-.1.16-.28,0-.39l-4.66-2.71a.75.75,0,0,0-.68,0Zm11.53,7.06a.75.75,0,0,0,.68,0l4.46-2.59c.18-.11.16-.28,0-.4l-4.67-2.7a.73.73,0,0,0-.67,0l-4.47,2.59c-.17.11-.15.28,0,.4l4.67,2.7m-13.2-.25a.78.78,0,0,0,.68,0l4.47-2.59c.17-.1.15-.28,0-.39L127.39,220a.75.75,0,0,0-.68,0l-4.46,2.6c-.18.1-.16.27,0,.39l4.66,2.71m83.63,48.53a.75.75,0,0,0,.68,0l4.46-2.59c.18-.1.16-.28,0-.4l-4.66-2.7a.75.75,0,0,0-.68,0l-4.46,2.59c-.18.11-.16.28,0,.4l4.66,2.7m-75.58-59c-.18.11-.16.28,0,.4l4.67,2.7a.73.73,0,0,0,.67,0l4.47-2.59c.17-.11.16-.28,0-.4l-4.67-2.7a.75.75,0,0,0-.68,0Zm49.66,36.6a.75.75,0,0,0,.67,0l4.47-2.59c.17-.1.15-.28,0-.4l-4.67-2.7a.75.75,0,0,0-.68,0L180,248.67c-.18.11-.16.28,0,.4l4.67,2.71M147,216.57a.78.78,0,0,0-.68,0l-4.46,2.59c-.18.1-.16.28,0,.39l4.67,2.71a.73.73,0,0,0,.67,0l4.47-2.59c.17-.11.16-.28,0-.4L147,216.57M162,225.32a.78.78,0,0,0-.68,0l-4.46,2.59c-.18.1-.16.28,0,.39L161.6,231a.75.75,0,0,0,.68,0l4.46-2.59c.18-.11.16-.28,0-.4L162,225.32m-8.26-4.79a.78.78,0,0,0-.68,0l-4.46,2.59c-.18.1-.16.28,0,.39l4.67,2.71a.7.7,0,0,0,.67,0l4.47-2.59c.17-.1.16-.27,0-.39l-4.67-2.71m63.62,57.65a.75.75,0,0,0,.68,0l4.46-2.59c.18-.11.16-.28,0-.4l-4.66-2.71a.78.78,0,0,0-.68,0l-4.47,2.59c-.17.1-.15.28.05.39l4.66,2.71m31.14-2.65a.75.75,0,0,0-.68,0l-4.46,2.59c-.18.11-.16.28,0,.4l4.66,2.71a.78.78,0,0,0,.68,0l4.46-2.59c.18-.1.16-.28,0-.39l-4.66-2.71m-6.82-4a.72.72,0,0,0-.68,0l-4.46,2.59c-.18.1-.16.28,0,.39l4.66,2.71a.78.78,0,0,0,.68,0l4.46-2.59c.18-.1.16-.28,0-.39l-4.66-2.71m-6.82-4a.78.78,0,0,0-.68,0l-4.46,2.59c-.18.1-.16.28,0,.39l4.66,2.71a.72.72,0,0,0,.68,0l4.46-2.59c.18-.1.16-.28,0-.39l-4.66-2.71m-13.64-7.91a.75.75,0,0,0-.68,0l-4.46,2.59c-.18.11-.16.28,0,.4l4.66,2.7a.75.75,0,0,0,.68,0L226,262.8c.18-.11.16-.28,0-.4l-4.66-2.7m34.1,19.79a.75.75,0,0,0-.68,0l-4.46,2.59c-.18.11-.16.28,0,.4l4.66,2.7a.75.75,0,0,0,.68,0l4.46-2.59c.18-.1.16-.28,0-.4l-4.66-2.7m-27.28-15.84a.78.78,0,0,0-.68,0l-4.46,2.59c-.18.1-.16.28,0,.39l4.66,2.71a.75.75,0,0,0,.68,0l4.47-2.59c.17-.11.15-.28,0-.4l-4.67-2.71m34.1,19.79a.78.78,0,0,0-.68,0L257,286c-.17.1-.15.28,0,.39l4.67,2.71a.75.75,0,0,0,.68,0l4.46-2.6c.18-.1.16-.27,0-.39l-4.66-2.71M253.49,301c.18-.1.16-.28,0-.39l-4.66-2.71a.74.74,0,0,0-.68,0l-4.46,2.59c-.18.1-.16.28,0,.39l4.66,2.71a.78.78,0,0,0,.68,0Zm-12-1.39a.72.72,0,0,0,.68,0l4.47-2.59c.17-.1.15-.27,0-.39L242,293.92a.78.78,0,0,0-.68,0l-4.46,2.59c-.18.1-.16.28,0,.39l4.66,2.71m23.28-6.84c.18-.11.16-.28,0-.4l-4.66-2.7a.75.75,0,0,0-.68,0L255,292.21c-.18.1-.16.28,0,.4l4.67,2.7a.75.75,0,0,0,.68,0ZM269,287.4a.78.78,0,0,0-.68,0L263.85,290c-.17.1-.15.28,0,.39l4.67,2.71a.72.72,0,0,0,.68,0l4.46-2.59c.18-.1.16-.28,0-.39L269,287.4m-12.36,8c.18-.11.16-.28,0-.4l-4.67-2.71a.75.75,0,0,0-.67,0l-4.47,2.59c-.17.1-.15.28,0,.4l4.67,2.7a.75.75,0,0,0,.68,0Zm-42.2-39.67a.75.75,0,0,0-.68,0l-4.46,2.6c-.18.1-.16.27,0,.39l4.66,2.71a.78.78,0,0,0,.68,0l4.47-2.59c.17-.1.15-.28,0-.39l-4.67-2.71m-6.82-4a.72.72,0,0,0-.68,0l-4.46,2.59c-.18.1-.16.28,0,.39l4.66,2.71a.78.78,0,0,0,.68,0l4.47-2.59c.17-.1.15-.28,0-.39l-4.67-2.71m-31.14,2.66a.78.78,0,0,0,.68,0l4.47-2.59c.17-.1.15-.28,0-.4l-4.31-2.5c-.2-.11-.22-.29,0-.39l5.74-3.33c.17-.1.16-.28,0-.39l-5.39-3.13a.75.75,0,0,0-.67,0L166,248c-.17.1-.15.28,0,.39l10.41,6.05m-7.62-11.83a.74.74,0,0,0,.68,0L174,240c.18-.1.16-.28,0-.39l-4.66-2.71a.78.78,0,0,0-.68,0l-4.46,2.59c-.18.1-.16.28,0,.39l4.66,2.71m34.9,27.66a.78.78,0,0,0,.68,0l4.46-2.59c.18-.1.16-.28,0-.39l-4.66-2.71a.72.72,0,0,0-.68,0l-4.46,2.59c-.18.1-.16.27,0,.39l4.66,2.71m-6.82-4a.78.78,0,0,0,.68,0l4.46-2.59c.18-.1.16-.28,0-.39l-4.66-2.71a.72.72,0,0,0-.68,0l-4.46,2.59c-.18.1-.16.28,0,.39l4.66,2.71m-6.82-4a.72.72,0,0,0,.68,0l4.47-2.59c.17-.1.15-.27-.05-.39l-4.66-2.71a.78.78,0,0,0-.68,0l-4.46,2.59c-.18.1-.16.28,0,.39l4.66,2.71m-6.82-4a.75.75,0,0,0,.68,0l4.47-2.59c.17-.11.15-.28,0-.4l-4.66-2.71a.78.78,0,0,0-.68,0l-4.46,2.59c-.18.1-.16.28,0,.4l4.66,2.7m17.5-10.57a.78.78,0,0,0-.68,0l-4.46,2.59c-.18.1-.16.28,0,.39l4.67,2.71a.7.7,0,0,0,.67,0l4.47-2.59c.17-.1.15-.28,0-.39l-4.67-2.71m-6.82-4a.78.78,0,0,0-.68,0l-4.46,2.59c-.18.1-.16.28,0,.39l4.67,2.71a.73.73,0,0,0,.67,0l4.47-2.6c.17-.1.15-.27,0-.39L194,243.86m-18.3-10.62a.72.72,0,0,0-.68,0l-4.47,2.59c-.17.1-.15.27,0,.39l4.67,2.71a.78.78,0,0,0,.68,0l4.46-2.59c.18-.1.16-.28,0-.39l-4.66-2.71m8.25,4.79a.74.74,0,0,0-.68,0l-4.46,2.59c-.18.1-.16.28,0,.39l7.89,4.58a.75.75,0,0,0,.68,0l4.47-2.59c.17-.1.16-.28,0-.4l-7.9-4.58m-15.07-8.75a.78.78,0,0,0-.68,0l-4.47,2.59c-.17.1-.15.28,0,.39l4.67,2.71a.72.72,0,0,0,.68,0l4.46-2.59c.18-.1.16-.28,0-.39l-4.66-2.71M162,238.65a.72.72,0,0,0,.68,0l4.47-2.59c.17-.1.15-.27,0-.39L162.48,233a.78.78,0,0,0-.68,0l-4.46,2.59c-.18.1-.16.28,0,.39l4.66,2.71"/><polygon class="cls-6" points="192.91 290.16 191.9 290.75 164.95 306.38 117.03 278.57 116.03 278 143.99 261.77 192.91 290.16"/><polygon class="cls-8" points="117.64 278.93 143.99 263.64 191.28 291.1 164.95 306.38 117.64 278.93"/><path class="cls-9" d="M147.63,68.47a2.33,2.33,0,0,1,.05-.28v-.06a1.07,1.07,0,0,1,.08-.27,1.13,1.13,0,0,1,.17-.39l.1-.16.09-.11.2-.2,0,0a1.35,1.35,0,0,1,.26-.15,2.19,2.19,0,0,1,2,.26l152.74,88.34c1.68,1,3,3.35,3,6.75v114.1a2,2,0,0,1-1.1,1.83l-.13.09-.16.09a.92.92,0,0,1-.25.09,1.74,1.74,0,0,1-.39.05,2,2,0,0,1-1-.29l-.08-.05h0l-2.9-1.68L150.65,189.75a6.78,6.78,0,0,1-3-5.29V68.85c0-.13,0-.26,0-.38"/><path class="cls-10" d="M148.61,66.83a2.19,2.19,0,0,1,2,.26l152.74,88.34a6.78,6.78,0,0,1,3,5.29v5.92l3.87-2.28v-5.85a6.75,6.75,0,0,0-3-5.28L154.53,64.89a2.1,2.1,0,0,0-2.2-.18c-.55.33-3.07,1.78-3.72,2.12"/><path class="cls-11" d="M147.62,68.83c0-1.92,1.37-2.7,3-1.74l152.74,88.35a6.73,6.73,0,0,1,3,5.28v5.92L147.62,74.79Z"/><path class="cls-12" d="M150.66,67.09l152.73,88.35a6.12,6.12,0,0,1,2.13,2.26l3.86-2.24a6,6,0,0,0-2.11-2.23L154.53,64.88a2.15,2.15,0,0,0-2.2-.18c-.55.34-3.07,1.78-3.71,2.12a2.23,2.23,0,0,1,2,.27"/><path class="cls-13" d="M310.31,164.37v-5.86a6.22,6.22,0,0,0-.93-3l-3.86,2.24a6,6,0,0,1,.9,3v5.92Z"/><path class="cls-14" d="M159.58,75.1a3.06,3.06,0,0,1,1.16,2.45c0,1-.52,1.49-1.16,1.12a3.09,3.09,0,0,1-1.15-2.46c0-1,.52-1.48,1.15-1.11"/><path class="cls-14" d="M155.43,72.68a3.06,3.06,0,0,1,1.15,2.46c0,1-.51,1.48-1.15,1.11a3.05,3.05,0,0,1-1.15-2.45c0-1,.51-1.49,1.15-1.12"/><path class="cls-14" d="M151.28,70.27a3.05,3.05,0,0,1,1.15,2.45c0,1-.51,1.49-1.15,1.12a3.05,3.05,0,0,1-1.15-2.45c0-1,.51-1.49,1.15-1.12"/><path class="cls-15" d="M305.34,278.12l.15-.09,3.2-1.86a3.22,3.22,0,0,0,1.59-2.36,3.4,3.4,0,0,0,0-.45v-109l-3.88,2.28V276.27a2,2,0,0,1-.94,1.74l-.1.06,0,0Z"/><path class="cls-16" d="M293.35,227a.65.65,0,0,1,.33.1l4.14,2.4a1.69,1.69,0,0,1,.75,1.31v1.53c0,.34-.17.54-.42.54a.68.68,0,0,1-.33-.11l-4.14-2.4a1.67,1.67,0,0,1-.75-1.3v-1.53c0-.34.17-.54.42-.54"/><path class="cls-16" d="M293.35,233.05a.65.65,0,0,1,.33.1l4.14,2.4a1.69,1.69,0,0,1,.75,1.31v1.53c0,.34-.17.54-.42.54a.68.68,0,0,1-.33-.11l-4.14-2.39a1.7,1.7,0,0,1-.75-1.31v-1.53c0-.34.17-.54.42-.54"/><path class="cls-16" d="M293.35,239.13a.65.65,0,0,1,.33.1l4.14,2.4a1.7,1.7,0,0,1,.75,1.31v1.53c0,.34-.17.54-.42.54a.65.65,0,0,1-.33-.1l-4.14-2.4a1.69,1.69,0,0,1-.75-1.31v-1.53c0-.34.17-.54.42-.54"/><path class="cls-16" d="M293.35,245.21a.68.68,0,0,1,.33.11l4.14,2.4a1.67,1.67,0,0,1,.75,1.3v1.53c0,.34-.17.54-.42.54a.65.65,0,0,1-.33-.1l-4.14-2.4a1.69,1.69,0,0,1-.75-1.31v-1.53c0-.34.17-.54.42-.54"/><path class="cls-16" d="M293.35,196.8a.68.68,0,0,1,.33.11l4.14,2.4a1.67,1.67,0,0,1,.75,1.3v1.53c0,.34-.17.54-.42.54a.65.65,0,0,1-.33-.1l-4.14-2.4a1.69,1.69,0,0,1-.75-1.31v-1.53c0-.34.17-.54.42-.54"/><path class="cls-16" d="M293.35,202.88a.68.68,0,0,1,.33.11l4.14,2.4a1.67,1.67,0,0,1,.75,1.3v1.53c0,.34-.17.54-.42.54a.65.65,0,0,1-.33-.1l-4.14-2.4a1.69,1.69,0,0,1-.75-1.31v-1.53c0-.34.17-.54.42-.54"/><path class="cls-16" d="M293.35,209a.65.65,0,0,1,.33.1l4.14,2.4a1.67,1.67,0,0,1,.75,1.31v1.52c0,.35-.17.54-.42.54a.65.65,0,0,1-.33-.1l-4.14-2.4a1.69,1.69,0,0,1-.75-1.31V209.5c0-.34.17-.53.42-.53"/><path class="cls-16" d="M293.35,215.05a.65.65,0,0,1,.33.1l4.14,2.4a1.69,1.69,0,0,1,.75,1.31v1.53c0,.34-.17.53-.42.53a.65.65,0,0,1-.33-.1l-4.14-2.4a1.67,1.67,0,0,1-.75-1.31v-1.52c0-.35.17-.54.42-.54"/><path class="cls-16" d="M293.35,257.13a.68.68,0,0,1,.33.11l4.14,2.4a1.67,1.67,0,0,1,.75,1.31v1.52c0,.35-.17.54-.42.54a.65.65,0,0,1-.33-.1l-4.14-2.4a1.69,1.69,0,0,1-.75-1.31v-1.53c0-.34.17-.54.42-.54"/><path class="cls-16" d="M293.35,263.22a.65.65,0,0,1,.33.1l4.14,2.4a1.69,1.69,0,0,1,.75,1.31v1.53c0,.34-.17.53-.42.53a.65.65,0,0,1-.33-.1l-4.14-2.4a1.69,1.69,0,0,1-.75-1.31v-1.53c0-.34.17-.53.42-.53"/><path class="cls-16" d="M293.35,166.64a.65.65,0,0,1,.33.1l4.14,2.4a1.69,1.69,0,0,1,.75,1.31V172c0,.34-.17.53-.42.53a.65.65,0,0,1-.33-.1l-4.14-2.4a1.67,1.67,0,0,1-.75-1.31v-1.52c0-.35.17-.54.42-.54"/><path class="cls-16" d="M293.35,172.72a.65.65,0,0,1,.33.1l4.14,2.4a1.69,1.69,0,0,1,.75,1.31v1.53c0,.34-.17.54-.42.54a.68.68,0,0,1-.33-.11l-4.14-2.4a1.67,1.67,0,0,1-.75-1.3v-1.53c0-.34.17-.54.42-.54"/><path class="cls-16" d="M293.35,178.8a.65.65,0,0,1,.33.1l4.14,2.4a1.69,1.69,0,0,1,.75,1.31v1.53c0,.34-.17.54-.42.54a.68.68,0,0,1-.33-.11l-4.14-2.39a1.7,1.7,0,0,1-.75-1.31v-1.53c0-.34.17-.54.42-.54"/><path class="cls-16" d="M293.35,184.88a.65.65,0,0,1,.33.1l4.14,2.4a1.69,1.69,0,0,1,.75,1.31v1.53c0,.34-.17.54-.42.54a.65.65,0,0,1-.33-.1l-4.14-2.4a1.7,1.7,0,0,1-.75-1.31v-1.53c0-.34.17-.54.42-.54"/><path class="cls-14" d="M156.63,132.09l31.72,18.41a4.73,4.73,0,0,1,2.13,3.71v48c0,1.37-.95,1.93-2.13,1.24l-31.72-18.41a4.73,4.73,0,0,1-2.13-3.71v-48c0-1.36.95-1.92,2.13-1.23"/><path class="cls-10" d="M159.57,168.59l2.92,1.7a2.31,2.31,0,0,1,1.08,1.8c0,.65-.48.89-1.08.55l-2.92-1.7a2.35,2.35,0,0,1-1.08-1.8c0-.65.49-.89,1.08-.55"/><path class="cls-10" d="M159.57,138.43l2.92,1.7a2.32,2.32,0,0,1,1.08,1.8c0,.65-.48.9-1.08.55l-2.92-1.7a2.33,2.33,0,0,1-1.08-1.8c0-.65.49-.89,1.08-.55"/><path class="cls-10" d="M163.68,146.83l2.92,1.7a2.35,2.35,0,0,1,1.08,1.8c0,.65-.49.9-1.08.55l-2.92-1.7a2.31,2.31,0,0,1-1.08-1.8c0-.65.48-.89,1.08-.55"/><path class="cls-10" d="M163.68,152.85l2.92,1.7a2.33,2.33,0,0,1,1.08,1.8c0,.65-.49.89-1.08.55l-2.92-1.7a2.32,2.32,0,0,1-1.08-1.8c0-.65.48-.9,1.08-.55"/><path class="cls-10" d="M159.57,156.52l2.92,1.7a2.32,2.32,0,0,1,1.08,1.8c0,.65-.48.9-1.08.55l-2.92-1.7a2.33,2.33,0,0,1-1.08-1.8c0-.65.49-.89,1.08-.55"/><path class="cls-10" d="M163.68,164.93l2.92,1.7a2.33,2.33,0,0,1,1.08,1.8c0,.65-.49.89-1.08.55l-2.92-1.7a2.32,2.32,0,0,1-1.08-1.8c0-.65.48-.9,1.08-.55"/><path class="cls-10" d="M167.57,143.08l17.84,10.35a2.34,2.34,0,0,1,1.07,1.8c0,.65-.48.89-1.07.55l-17.84-10.35a2.32,2.32,0,0,1-1.08-1.8c0-.65.48-.9,1.08-.55"/><path class="cls-10" d="M167.57,173.24l17.84,10.35a2.32,2.32,0,0,1,1.07,1.8c0,.65-.48.89-1.07.55l-17.84-10.36a2.31,2.31,0,0,1-1.08-1.8c0-.65.48-.89,1.08-.54"/><path class="cls-10" d="M171.68,151.48l13.73,8a2.34,2.34,0,0,1,1.07,1.8c0,.65-.48.9-1.07.55l-13.73-8a2.34,2.34,0,0,1-1.08-1.8c0-.65.48-.9,1.08-.55"/><path class="cls-10" d="M171.68,157.51l13.73,8a2.35,2.35,0,0,1,1.07,1.8c0,.65-.48.9-1.07.55l-13.73-8a2.32,2.32,0,0,1-1.08-1.8c0-.65.48-.9,1.08-.55"/><path class="cls-10" d="M167.57,161.17l17.84,10.35a2.35,2.35,0,0,1,1.07,1.8c0,.65-.48.9-1.07.55l-17.84-10.35a2.32,2.32,0,0,1-1.08-1.8c0-.65.48-.89,1.08-.55"/><path class="cls-10" d="M171.68,169.57l13.73,8a2.32,2.32,0,0,1,1.07,1.8c0,.64-.48.89-1.07.54l-13.73-8a2.31,2.31,0,0,1-1.08-1.8c0-.65.48-.89,1.08-.55"/><path class="cls-10" d="M159.57,180.72l2.92,1.7a2.31,2.31,0,0,1,1.08,1.8c0,.65-.48.89-1.08.55l-2.92-1.7a2.35,2.35,0,0,1-1.08-1.8c0-.65.49-.9,1.08-.55"/><path class="cls-10" d="M163.68,177.06l2.92,1.7a2.33,2.33,0,0,1,1.08,1.8c0,.65-.49.89-1.08.54l-2.92-1.69a2.32,2.32,0,0,1-1.08-1.8c0-.65.48-.9,1.08-.55"/><path class="cls-10" d="M167.57,185.36l17.84,10.36a2.32,2.32,0,0,1,1.07,1.8c0,.64-.48.89-1.07.54l-17.84-10.35a2.31,2.31,0,0,1-1.08-1.8c0-.65.48-.89,1.08-.55"/><path class="cls-10" d="M171.68,181.7l13.73,8a2.35,2.35,0,0,1,1.07,1.81c0,.64-.48.89-1.07.54l-13.73-8a2.31,2.31,0,0,1-1.08-1.8c0-.65.48-.89,1.08-.55"/><path class="cls-14" d="M156.63,82.68l31.72,18.42a4.72,4.72,0,0,1,2.13,3.71v36.82c0,1.37-.95,1.92-2.13,1.24l-31.72-18.41a4.75,4.75,0,0,1-2.13-3.72V83.92c0-1.37.95-1.92,2.13-1.24"/><path class="cls-10" d="M159.57,119.19l2.92,1.69a2.34,2.34,0,0,1,1.08,1.8c0,.65-.48.9-1.08.55l-2.92-1.7a2.33,2.33,0,0,1-1.08-1.8c0-.64.49-.89,1.08-.54"/><path class="cls-10" d="M159.57,89l2.92,1.7a2.31,2.31,0,0,1,1.08,1.8c0,.65-.48.89-1.08.55l-2.92-1.7a2.35,2.35,0,0,1-1.08-1.8c0-.65.49-.9,1.08-.55"/><path class="cls-17" d="M159.57,89l2.92,1.7a2.31,2.31,0,0,1,1.08,1.8c0,.65-.48.89-1.08.55l-2.92-1.7a2.35,2.35,0,0,1-1.08-1.8c0-.65.49-.9,1.08-.55"/><path class="cls-10" d="M163.68,97.43l2.92,1.7a2.33,2.33,0,0,1,1.08,1.8c0,.65-.49.89-1.08.55l-2.92-1.7A2.32,2.32,0,0,1,162.6,98c0-.65.48-.9,1.08-.55"/><path class="cls-17" d="M163.68,97.43l2.92,1.7a2.33,2.33,0,0,1,1.08,1.8c0,.65-.49.89-1.08.55l-2.92-1.7A2.32,2.32,0,0,1,162.6,98c0-.65.48-.9,1.08-.55"/><path class="cls-10" d="M163.68,103.45l2.92,1.69a2.36,2.36,0,0,1,1.08,1.8c0,.65-.49.9-1.08.55l-2.92-1.7a2.31,2.31,0,0,1-1.08-1.8c0-.64.48-.89,1.08-.54"/><path class="cls-17" d="M163.68,103.45l2.92,1.69a2.36,2.36,0,0,1,1.08,1.8c0,.65-.49.9-1.08.55l-2.92-1.7a2.31,2.31,0,0,1-1.08-1.8c0-.64.48-.89,1.08-.54"/><path class="cls-10" d="M159.57,107.12l2.92,1.7a2.31,2.31,0,0,1,1.08,1.8c0,.65-.48.89-1.08.55l-2.92-1.7a2.35,2.35,0,0,1-1.08-1.8c0-.65.49-.9,1.08-.55"/><path class="cls-18" d="M159.07,107a1,1,0,0,1,.5.16l2.92,1.7a2.31,2.31,0,0,1,1.08,1.8c0,.45-.23.7-.57.7a1.12,1.12,0,0,1-.51-.15l-2.92-1.7a2.35,2.35,0,0,1-1.08-1.8c0-.45.24-.71.58-.71"/><path class="cls-10" d="M163.68,115.53l2.92,1.69a2.36,2.36,0,0,1,1.08,1.8c0,.65-.49.9-1.08.55l-2.92-1.7a2.31,2.31,0,0,1-1.08-1.8c0-.65.48-.89,1.08-.54"/><path class="cls-18" d="M163.17,115.37a1,1,0,0,1,.51.16l2.92,1.69a2.36,2.36,0,0,1,1.08,1.8c0,.45-.24.71-.58.71a1,1,0,0,1-.5-.16l-2.92-1.7a2.31,2.31,0,0,1-1.08-1.8c0-.45.23-.7.57-.7"/><path class="cls-10" d="M167.57,93.67,185.41,104a2.32,2.32,0,0,1,1.07,1.8c0,.64-.48.89-1.07.55L167.57,96a2.31,2.31,0,0,1-1.08-1.8c0-.65.48-.89,1.08-.55"/><path class="cls-17" d="M167.57,93.67,185.41,104a2.32,2.32,0,0,1,1.07,1.8c0,.64-.48.89-1.07.55L167.57,96a2.31,2.31,0,0,1-1.08-1.8c0-.65.48-.89,1.08-.55"/><path class="cls-10" d="M167.57,123.83l17.84,10.35a2.34,2.34,0,0,1,1.07,1.8c0,.65-.48.9-1.07.55l-17.84-10.35a2.32,2.32,0,0,1-1.08-1.8c0-.65.48-.89,1.08-.55"/><path class="cls-10" d="M171.67,102.07l13.74,8a2.32,2.32,0,0,1,1.07,1.8c0,.65-.48.89-1.07.55l-13.74-8a2.32,2.32,0,0,1-1.07-1.8c0-.65.48-.89,1.07-.55"/><path class="cls-17" d="M171.67,102.07l13.74,8a2.32,2.32,0,0,1,1.07,1.8c0,.65-.48.89-1.07.55l-13.74-8a2.32,2.32,0,0,1-1.07-1.8c0-.65.48-.89,1.07-.55"/><path class="cls-10" d="M171.67,108.1l13.74,8a2.32,2.32,0,0,1,1.07,1.8c0,.65-.48.89-1.07.55l-13.74-8a2.32,2.32,0,0,1-1.07-1.8c0-.65.48-.89,1.07-.55"/><path class="cls-17" d="M171.67,108.1l13.74,8a2.32,2.32,0,0,1,1.07,1.8c0,.65-.48.89-1.07.55l-13.74-8a2.32,2.32,0,0,1-1.07-1.8c0-.65.48-.89,1.07-.55"/><path class="cls-10" d="M167.57,111.77l17.84,10.35a2.34,2.34,0,0,1,1.07,1.8c0,.65-.48.89-1.07.55l-17.84-10.35a2.32,2.32,0,0,1-1.08-1.8c0-.65.48-.9,1.08-.55"/><path class="cls-19" d="M167.06,111.61a1,1,0,0,1,.51.16l17.84,10.35a2.34,2.34,0,0,1,1.07,1.8c0,.45-.23.71-.57.71a1.08,1.08,0,0,1-.5-.16l-17.84-10.35a2.32,2.32,0,0,1-1.08-1.8c0-.45.23-.71.57-.71"/><path class="cls-10" d="M171.68,120.17l13.73,8a2.34,2.34,0,0,1,1.07,1.8c0,.65-.48.9-1.07.55l-13.73-8a2.32,2.32,0,0,1-1.08-1.8c0-.65.48-.9,1.08-.55"/><path class="cls-19" d="M171.17,120a1,1,0,0,1,.51.16l13.73,8a2.34,2.34,0,0,1,1.07,1.8c0,.45-.23.71-.57.71a1,1,0,0,1-.5-.16l-13.73-8a2.32,2.32,0,0,1-1.08-1.8c0-.45.23-.71.57-.71"/><path class="cls-20" d="M287,162.12,257,144.7c-.42-.25-.77-.07-.77.38a1.64,1.64,0,0,0,.77,1.27l30,17.42c.42.25.76.07.76-.38a1.63,1.63,0,0,0-.76-1.27"/><path class="cls-20" d="M287,182.12,198.7,130.93c-.42-.24-.76-.07-.76.39a1.65,1.65,0,0,0,.76,1.27L287,183.78c.42.24.76.07.76-.39a1.65,1.65,0,0,0-.76-1.27"/><path class="cls-20" d="M254.05,143,198.24,110.7c-.42-.24-.76-.07-.76.39a1.63,1.63,0,0,0,.76,1.27l55.81,32.28c.42.25.76.07.76-.38a1.63,1.63,0,0,0-.76-1.27"/><path class="cls-20" d="M287,166.87,271.81,158c-.42-.24-.76-.07-.76.39a1.65,1.65,0,0,0,.76,1.27l15.2,8.83c.42.24.76.07.76-.39a1.65,1.65,0,0,0-.76-1.27"/><path class="cls-20" d="M271.46,157.93a.78.78,0,0,1,.35.11l15.2,8.83a1.65,1.65,0,0,1,.76,1.27c0,.32-.16.5-.4.5a.78.78,0,0,1-.36-.11l-15.2-8.83a1.65,1.65,0,0,1-.76-1.27c0-.32.17-.5.41-.5"/><path class="cls-20" d="M287,171.6l-9.13-5.28c-.42-.24-.76-.07-.76.38a1.63,1.63,0,0,0,.76,1.27l9.13,5.29c.42.24.76.07.76-.39a1.63,1.63,0,0,0-.76-1.27"/><path class="cls-20" d="M277.52,166.21a.68.68,0,0,1,.36.11L287,171.6a1.63,1.63,0,0,1,.76,1.27c0,.32-.16.5-.4.5a.7.7,0,0,1-.36-.12L277.88,168a1.63,1.63,0,0,1-.76-1.27c0-.31.17-.49.4-.49"/><path class="cls-20" d="M268.87,156.33,216,125.71c-.42-.24-.76-.07-.76.39a1.65,1.65,0,0,0,.76,1.27L268.87,158c.42.24.76.07.76-.39a1.65,1.65,0,0,0-.76-1.27"/><path class="cls-20" d="M215.63,125.6a.78.78,0,0,1,.36.11l52.88,30.62a1.65,1.65,0,0,1,.76,1.27c0,.32-.17.5-.41.5a.74.74,0,0,1-.35-.11L216,127.37a1.65,1.65,0,0,1-.76-1.27c0-.32.16-.5.4-.5"/><path class="cls-20" d="M279.09,194.65l-80.85-47c-.42-.24-.76-.07-.76.39a1.63,1.63,0,0,0,.76,1.27l80.85,47c.42.25.76.07.76-.38a1.63,1.63,0,0,0-.76-1.27"/><path class="cls-20" d="M279.09,189.92l-80.85-47c-.42-.24-.76-.07-.76.39a1.63,1.63,0,0,0,.76,1.27l80.85,47c.42.24.76.07.76-.39a1.65,1.65,0,0,0-.76-1.27"/><path class="cls-20" d="M275.44,164.92l-15-8.77c-.42-.24-.76-.07-.76.39a1.63,1.63,0,0,0,.76,1.26l15,8.77c.42.25.76.08.76-.38a1.63,1.63,0,0,0-.76-1.27"/><path class="cls-20" d="M260.05,156a.67.67,0,0,1,.35.11l15,8.77a1.63,1.63,0,0,1,.76,1.27c0,.31-.16.49-.4.49a.68.68,0,0,1-.36-.11l-15-8.77a1.63,1.63,0,0,1-.76-1.26c0-.32.17-.5.41-.5"/><path class="cls-20" d="M257.46,154.44,198.69,120.6c-.42-.25-.76-.07-.76.38a1.63,1.63,0,0,0,.76,1.27l58.77,33.84c.42.25.76.07.76-.38a1.63,1.63,0,0,0-.76-1.27"/><path class="cls-20" d="M198.33,120.49a.68.68,0,0,1,.36.11l58.77,33.84a1.63,1.63,0,0,1,.76,1.27c0,.31-.17.5-.41.5a.7.7,0,0,1-.35-.12l-58.77-33.84a1.63,1.63,0,0,1-.76-1.27c0-.31.16-.49.4-.49"/><path class="cls-20" d="M287,176.59,260.4,161.22c-.42-.24-.76-.07-.76.39a1.63,1.63,0,0,0,.76,1.27L287,178.25c.42.24.76.07.76-.39a1.66,1.66,0,0,0-.76-1.27"/><path class="cls-20" d="M260.05,161.11a.74.74,0,0,1,.35.11L287,176.59a1.65,1.65,0,0,1,.76,1.27c0,.32-.16.5-.4.5a.78.78,0,0,1-.36-.11L260.4,162.88a1.63,1.63,0,0,1-.76-1.27c0-.32.17-.5.41-.5"/><path class="cls-20" d="M257.46,159.51l-58.77-33.84c-.42-.24-.76-.07-.76.39a1.65,1.65,0,0,0,.76,1.27l58.77,33.84c.42.24.76.07.76-.39a1.66,1.66,0,0,0-.76-1.27"/><path class="cls-20" d="M198.33,125.56a.78.78,0,0,1,.36.11l58.77,33.84a1.65,1.65,0,0,1,.76,1.27c0,.32-.17.5-.4.5a.78.78,0,0,1-.36-.11l-58.77-33.84a1.65,1.65,0,0,1-.76-1.27c0-.32.16-.5.4-.5"/><path class="cls-20" d="M279.09,199.43l-80.85-46.84c-.42-.25-.76-.08-.76.38a1.63,1.63,0,0,0,.76,1.27l80.85,46.85c.42.24.76.07.76-.39a1.66,1.66,0,0,0-.76-1.27"/><path class="cls-20" d="M279.09,204.17l-80.85-46.85c-.42-.24-.76-.07-.76.39a1.65,1.65,0,0,0,.76,1.27l80.85,46.85c.42.24.76.07.76-.39a1.63,1.63,0,0,0-.76-1.27"/><path class="cls-20" d="M279.09,208.91l-80.85-46.85c-.42-.24-.76-.07-.76.39a1.66,1.66,0,0,0,.76,1.27l80.85,46.84c.42.25.76.07.76-.38a1.63,1.63,0,0,0-.76-1.27"/><path class="cls-20" d="M279.09,215.2l-80.85-46.84c-.42-.24-.76-.07-.76.39a1.63,1.63,0,0,0,.76,1.26l80.85,46.84c.42.25.76.07.76-.38a1.63,1.63,0,0,0-.76-1.27"/><path class="cls-20" d="M286.85,219.64l-3.52-2c-.42-.25-.76-.07-.76.38a1.63,1.63,0,0,0,.76,1.27l3.52,2c.42.25.76.07.76-.38a1.63,1.63,0,0,0-.76-1.27"/><path class="cls-20" d="M283,217.5a.67.67,0,0,1,.35.11l3.52,2a1.63,1.63,0,0,1,.76,1.27c0,.31-.16.49-.4.49a.68.68,0,0,1-.36-.11l-3.52-2a1.63,1.63,0,0,1-.76-1.27c0-.31.17-.49.41-.49"/><path class="cls-20" d="M286.85,193.75l-3.52-2c-.42-.24-.76-.07-.76.39a1.65,1.65,0,0,0,.76,1.27l3.52,2c.42.24.76.07.76-.39a1.66,1.66,0,0,0-.76-1.27"/><path class="cls-20" d="M283,191.61a.78.78,0,0,1,.35.11l3.52,2a1.66,1.66,0,0,1,.76,1.27c0,.32-.16.5-.4.5a.78.78,0,0,1-.36-.11l-3.52-2a1.65,1.65,0,0,1-.76-1.27c0-.32.17-.5.41-.5"/><path class="cls-20" d="M286.85,203.94l-3.52-2c-.42-.24-.76-.07-.76.39a1.63,1.63,0,0,0,.76,1.26l3.52,2c.42.24.76.07.76-.39a1.63,1.63,0,0,0-.76-1.27"/><path class="cls-20" d="M283,201.8a.67.67,0,0,1,.35.11l3.52,2a1.63,1.63,0,0,1,.76,1.27c0,.32-.16.5-.4.5a.78.78,0,0,1-.36-.11l-3.52-2a1.63,1.63,0,0,1-.76-1.26c0-.32.16-.5.41-.5"/><path class="cls-20" d="M286.85,208.68l-3.52-2c-.42-.25-.76-.08-.76.38a1.63,1.63,0,0,0,.76,1.27l3.52,2c.42.25.76.07.76-.38a1.63,1.63,0,0,0-.76-1.27"/><path class="cls-20" d="M283,206.54a.67.67,0,0,1,.35.11l3.52,2a1.63,1.63,0,0,1,.76,1.27c0,.31-.16.49-.4.49a.68.68,0,0,1-.36-.11l-3.52-2a1.63,1.63,0,0,1-.76-1.27c0-.31.17-.49.41-.49"/><path class="cls-20" d="M286.85,213.41l-3.52-2c-.42-.24-.76-.07-.76.39a1.63,1.63,0,0,0,.76,1.27l3.52,2c.42.24.76.07.76-.39a1.66,1.66,0,0,0-.76-1.27"/><path class="cls-20" d="M283,211.27a.78.78,0,0,1,.35.11l3.52,2a1.66,1.66,0,0,1,.76,1.27c0,.32-.16.5-.4.5a.68.68,0,0,1-.36-.11l-3.52-2a1.63,1.63,0,0,1-.76-1.27c0-.32.16-.5.41-.5"/><path class="cls-20" d="M286.85,223.92l-3.52-2c-.42-.24-.76-.07-.76.39a1.63,1.63,0,0,0,.76,1.26l3.52,2c.42.24.76.07.76-.39a1.63,1.63,0,0,0-.76-1.27"/><path class="cls-20" d="M283,221.78a.67.67,0,0,1,.35.11l3.52,2a1.63,1.63,0,0,1,.76,1.27c0,.32-.16.5-.4.5a.78.78,0,0,1-.36-.11l-3.52-2a1.63,1.63,0,0,1-.76-1.27c0-.31.16-.49.41-.49"/><path class="cls-20" d="M279.09,219.51l-80.85-47c-.42-.24-.76-.07-.76.39a1.66,1.66,0,0,0,.76,1.27l80.85,47c.42.24.76.07.76-.39a1.63,1.63,0,0,0-.76-1.27"/><path class="cls-20" d="M278.71,250.26,257,237.66c-.42-.25-.76-.07-.76.38a1.63,1.63,0,0,0,.76,1.27l21.72,12.6c.42.24.76.07.76-.39a1.63,1.63,0,0,0-.76-1.26"/><path class="cls-20" d="M286.85,254.93l-3.52-2c-.42-.24-.76-.07-.76.39a1.63,1.63,0,0,0,.76,1.26l3.52,2c.42.24.76.07.76-.39a1.65,1.65,0,0,0-.76-1.27"/><path class="cls-20" d="M283,252.79a.67.67,0,0,1,.35.11l3.52,2a1.63,1.63,0,0,1,.76,1.27c0,.32-.16.5-.4.5a.78.78,0,0,1-.36-.11l-3.52-2a1.66,1.66,0,0,1-.76-1.27c0-.32.16-.5.41-.5"/><path class="cls-20" d="M286.85,259.21l-3.52-2c-.42-.24-.76-.07-.76.39a1.65,1.65,0,0,0,.76,1.27l3.52,2c.42.24.76.07.76-.39a1.66,1.66,0,0,0-.76-1.27"/><path class="cls-20" d="M283,257.07a.78.78,0,0,1,.35.11l3.52,2a1.63,1.63,0,0,1,.76,1.26c0,.32-.16.5-.4.5a.78.78,0,0,1-.36-.11l-3.52-2a1.65,1.65,0,0,1-.76-1.27c0-.32.17-.5.41-.5"/><path class="cls-20" d="M278.74,254.35l-80.17-46.51c-.42-.24-.76-.07-.76.39a1.63,1.63,0,0,0,.76,1.27L278.74,256c.42.24.76.07.76-.39a1.65,1.65,0,0,0-.76-1.27"/><path class="cls-20" d="M279,229.59l-80.72-46.73c-.42-.24-.76-.07-.76.39a1.65,1.65,0,0,0,.76,1.27L279,231.24c.42.25.76.07.76-.38a1.63,1.63,0,0,0-.76-1.27"/><path class="cls-20" d="M286.85,234.11l-3.52-2c-.42-.25-.76-.08-.76.38a1.63,1.63,0,0,0,.76,1.27l3.52,2c.42.25.76.07.76-.38a1.63,1.63,0,0,0-.76-1.27"/><path class="cls-20" d="M283,232a.78.78,0,0,1,.35.11l3.52,2a1.63,1.63,0,0,1,.76,1.26c0,.32-.16.5-.4.5a.68.68,0,0,1-.36-.11l-3.52-2a1.63,1.63,0,0,1-.76-1.27c0-.32.17-.5.41-.5"/><path class="cls-20" d="M279,234.27l-80.72-46.73c-.42-.24-.76-.07-.76.39a1.66,1.66,0,0,0,.76,1.27L279,235.92c.42.25.76.07.76-.39a1.63,1.63,0,0,0-.76-1.26"/><path class="cls-20" d="M286.85,238.84l-3.52-2c-.42-.24-.76-.07-.76.39a1.65,1.65,0,0,0,.76,1.27l3.52,2c.42.24.76.07.76-.39a1.66,1.66,0,0,0-.76-1.27"/><path class="cls-20" d="M283,236.7a.78.78,0,0,1,.35.11l3.52,2a1.66,1.66,0,0,1,.76,1.27c0,.32-.16.5-.4.5a.78.78,0,0,1-.36-.11l-3.52-2a1.65,1.65,0,0,1-.76-1.27c0-.32.17-.5.41-.5"/><path class="cls-20" d="M279,239,198.24,192.3c-.42-.24-.76-.07-.76.39a1.63,1.63,0,0,0,.76,1.26L279,240.68c.42.24.76.07.76-.39A1.65,1.65,0,0,0,279,239"/><path class="cls-20" d="M286.85,243.58l-3.52-2c-.42-.24-.76-.07-.76.39a1.63,1.63,0,0,0,.76,1.26l3.52,2c.42.24.76.07.76-.39a1.65,1.65,0,0,0-.76-1.27"/><path class="cls-20" d="M283,241.44a.67.67,0,0,1,.35.11l3.52,2a1.63,1.63,0,0,1,.76,1.27c0,.32-.16.5-.4.5a.78.78,0,0,1-.36-.11l-3.52-2a1.63,1.63,0,0,1-.76-1.26c0-.32.16-.5.41-.5"/><path class="cls-10" d="M272.61,187.8a3.8,3.8,0,0,0,1.65-3v-9.68a3.89,3.89,0,0,0-1.75-3.06L116.63,81.56a3.74,3.74,0,0,0-3.4-.06,3.8,3.8,0,0,0-1.65,3v9.69a3.89,3.89,0,0,0,1.75,3l155.88,90.51a3.74,3.74,0,0,0,3.4.06"/><path class="cls-12" d="M111.6,84.21c.12-.92.86-1.25,1.73-.74L269.21,174a3.6,3.6,0,0,1,1.24,1.32l3.3-1.92a3.73,3.73,0,0,0-1.24-1.31L116.63,81.57a3.71,3.71,0,0,0-3.4-.07,3.76,3.76,0,0,0-1.63,2.71"/><path class="cls-13" d="M270.45,175.3A3.56,3.56,0,0,1,271,177v5.33l3.31-1.92v-5.54a2.79,2.79,0,0,0-.06-.43,4.15,4.15,0,0,0-.44-1.1Z"/><path class="cls-11" d="M111.58,84.49v5.34L216.5,150.76l49.63,28.8,4.83,2.81V177a3.89,3.89,0,0,0-1.75-3.06L113.33,83.47c-1-.56-1.75-.1-1.75,1"/><path class="cls-21" d="M116.39,87.84c-.63-.36-1.14-.07-1.14.66a2.53,2.53,0,0,0,1.14,2c.62.36,1.13.07,1.13-.66a2.55,2.55,0,0,0-1.13-2"/><path class="cls-21" d="M120.47,90.21c-.62-.36-1.13-.07-1.13.66a2.52,2.52,0,0,0,1.13,2c.63.37,1.14.07,1.14-.65a2.52,2.52,0,0,0-1.14-2"/><path class="cls-21" d="M124.56,92.58c-.63-.37-1.13-.07-1.13.66a2.51,2.51,0,0,0,1.13,2c.63.37,1.13.07,1.13-.66a2.51,2.51,0,0,0-1.13-2"/><path class="cls-22" d="M269.21,294.3a3.32,3.32,0,0,0,1.38.42,3.45,3.45,0,0,0,2-.36,3.77,3.77,0,0,0,1.65-3V180.45l-3.3,1.92V293.28c0,.79-.4,1.26-1,1.26a1.8,1.8,0,0,1-.78-.24"/><path class="cls-23" d="M270,294.32c.47,0,.76-.39.76-1.05V182.5l-54.36-31.56L111.8,90.2V200.73a3.67,3.67,0,0,0,1.64,2.87l155.88,90.51a1.36,1.36,0,0,0,.67.21"/><path class="cls-22" d="M111.58,99.8V200.73a3.89,3.89,0,0,0,1.75,3.06L269.21,294.3a1.62,1.62,0,0,0,.78.24c.58,0,1-.47,1-1.27V182.37l-4.83-2.81-49.63-28.8L111.58,89.83Zm104.7,51.33,49.63,28.81,4.62,2.68V293.27c0,.25,0,.83-.54.83a1.14,1.14,0,0,1-.56-.18L113.55,203.41a3.49,3.49,0,0,1-1.54-2.68V90.58Z"/><polygon class="cls-24" points="117.82 125.33 264.73 210.6 264.73 187.38 264.73 211.24 117.82 125.98 117.82 125.33"/><polygon class="cls-25" points="117.82 101.48 264.73 186.74 264.73 187.39 117.82 102.12 117.82 125.33 117.82 101.48"/><polygon class="cls-26" points="117.82 102.12 264.73 187.39 264.73 210.6 117.82 125.33 117.82 102.12"/><path class="cls-11" d="M132.4,179.71l29.14,16.91c.74.43,1.34,0,1.34-1V164.14a3.23,3.23,0,0,0-1.34-2.58L132.4,144.65c-.74-.43-1.34,0-1.34,1v31.46a3.23,3.23,0,0,0,1.34,2.58"/><polygon class="cls-12" points="160.62 192.6 160.62 182.9 152.47 165.93 143.09 174.13 145.3 169.67 140.32 160.94 133.32 166.79 133.32 176.75 160.62 192.6"/><path class="cls-12" d="M143.81,159.52a4.91,4.91,0,0,0,1.85,3.94c1,.59,1.85-.21,1.85-1.79a4.9,4.9,0,0,0-1.85-3.93c-1-.6-1.85.2-1.85,1.78"/><path class="cls-27" d="M174.4,169.17c-.47,0-.81.44-.81,1.19v31.46a3.23,3.23,0,0,0,1.35,2.58l29.13,16.91a1.07,1.07,0,0,0,.54.16c.47,0,.81-.44.81-1.18V188.83a3.26,3.26,0,0,0-1.35-2.59l-29.13-16.91a1.07,1.07,0,0,0-.54-.16m14.44,19.17a1.33,1.33,0,0,1-.65-.19,4.93,4.93,0,0,1-1.84-3.94c0-1.23.49-2,1.2-2a1.27,1.27,0,0,1,.64.19,4.91,4.91,0,0,1,1.85,3.94c0,1.23-.49,2-1.2,2m6.17,2.28,8.15,17v9.7l-27.31-15.86v-10l7-5.85,5,8.73-2.22,4.46Z"/><polygon class="cls-28" points="182.85 185.63 187.84 194.35 185.62 198.82 195.01 190.62 203.16 207.59 203.16 217.28 175.85 201.44 175.85 191.48 182.85 185.63"/><path class="cls-28" d="M187.55,182.23a1.27,1.27,0,0,1,.64.19,4.91,4.91,0,0,1,1.85,3.94c0,1.23-.49,2-1.2,2a1.33,1.33,0,0,1-.65-.19,4.93,4.93,0,0,1-1.84-3.94c0-1.23.49-2,1.2-2"/><path class="cls-11" d="M217.47,229.08,246.61,246c.74.43,1.34,0,1.34-1V213.51a3.25,3.25,0,0,0-1.34-2.58L217.47,194c-.74-.43-1.34,0-1.34,1V226.5a3.23,3.23,0,0,0,1.34,2.58"/><path class="cls-11" d="M216.94,193.86a1.07,1.07,0,0,1,.53.16l29.14,16.91a3.25,3.25,0,0,1,1.34,2.58V245c0,.74-.33,1.19-.81,1.19a1.09,1.09,0,0,1-.53-.17l-29.14-16.91a3.23,3.23,0,0,1-1.34-2.58V195c0-.74.33-1.18.81-1.18"/><polygon class="cls-12" points="245.69 241.97 245.69 232.28 237.54 215.3 228.15 223.5 230.37 219.04 225.39 210.31 218.38 216.16 218.38 226.12 245.69 241.97"/><path class="cls-12" d="M228.88,208.9a4.9,4.9,0,0,0,1.85,3.93c1,.6,1.85-.2,1.85-1.79a4.9,4.9,0,0,0-1.85-3.93c-1-.59-1.85.21-1.85,1.79"/><path class="cls-29" d="M177.19,213.77l24.63,14.3c.53.31,1,0,1-.74v-.2a2.36,2.36,0,0,0-1-1.87L177.19,211c-.53-.31-1,0-1,.74v.2a2.34,2.34,0,0,0,1,1.86"/><path class="cls-29" d="M219.73,238.46l24.62,14.29c.54.31,1,0,1-.74v-.19a2.34,2.34,0,0,0-1-1.87l-24.62-14.29c-.54-.32-1,0-1,.74v.19a2.34,2.34,0,0,0,1,1.87"/><path class="cls-29" d="M134.66,189.09l24.62,14.29c.54.31,1,0,1-.74v-.2a2.32,2.32,0,0,0-1-1.86l-24.62-14.3c-.54-.31-1,0-1,.74v.2a2.34,2.34,0,0,0,1,1.87"/><path class="cls-22" d="M205.42,234.87a.5.5,0,0,0,.43-.25.51.51,0,0,0-.18-.69l-31.83-18.47a.51.51,0,0,0-.5.88l31.82,18.47Z"/><path class="cls-22" d="M205.42,238.84a.49.49,0,0,0,.43-.26.51.51,0,0,0-.18-.69l-31.83-18.47a.51.51,0,0,0-.5.88l31.82,18.47Z"/><path class="cls-22" d="M205.42,242.8a.51.51,0,0,0,.25-1l-31.83-18.47a.51.51,0,0,0-.5.88l31.82,18.47Z"/><path class="cls-22" d="M205.42,246.76a.51.51,0,0,0,.25-.95l-31.83-18.47a.51.51,0,0,0-.5.88l31.82,18.47Z"/><path class="cls-22" d="M162.88,210.19a.52.52,0,0,0,.44-.25.51.51,0,0,0-.19-.69l-31.82-18.47a.5.5,0,1,0-.5.87l31.82,18.47Z"/><path class="cls-22" d="M162.88,214.15a.52.52,0,0,0,.44-.25.51.51,0,0,0-.19-.69l-31.82-18.47a.5.5,0,1,0-.5.87l31.82,18.47Z"/><path class="cls-22" d="M162.88,218.11a.52.52,0,0,0,.44-.25.51.51,0,0,0-.19-.69L131.31,198.7a.5.5,0,1,0-.5.87L162.63,218Z"/><path class="cls-22" d="M162.88,222.07a.52.52,0,0,0,.44-.25.51.51,0,0,0-.19-.69l-31.82-18.47a.5.5,0,1,0-.5.87L162.63,222Z"/><path class="cls-22" d="M248,259.56a.5.5,0,0,0,.43-.25.51.51,0,0,0-.18-.69l-31.82-18.47a.5.5,0,0,0-.51.87l31.83,18.47Z"/><path class="cls-22" d="M248,263.52a.5.5,0,0,0,.43-.25.51.51,0,0,0-.18-.69l-31.82-18.47a.5.5,0,0,0-.69.19.49.49,0,0,0,.18.68l31.83,18.47Z"/><path class="cls-22" d="M248,267.48a.5.5,0,0,0,.43-.25.51.51,0,0,0-.18-.69l-31.82-18.47a.5.5,0,0,0-.51.87l31.83,18.47Z"/><path class="cls-22" d="M248,271.44a.5.5,0,0,0,.43-.25.51.51,0,0,0-.18-.69L216.38,252a.5.5,0,0,0-.51.87l31.83,18.47Z"/><polygon class="cls-12" points="117.82 109.31 137.02 120.46 137.02 113.26 117.82 102.12 117.82 109.31"/><polygon class="cls-12" points="137.91 120.98 157.11 132.12 157.11 124.92 137.91 113.78 137.91 120.98"/><polygon class="cls-12" points="158 132.64 177.21 143.78 177.21 136.59 158 125.44 158 132.64"/><polygon class="cls-12" points="245.53 183.44 264.73 194.58 264.73 187.38 245.53 176.24 245.53 183.44"/></g></svg>