<svg xmlns="http://www.w3.org/2000/svg" viewBox="0 0 674 199"><defs><style>.cls-1{fill:#3066b7;opacity:0.4;isolation:isolate;}.cls-2{font-size:26.49px;font-family:Ubuntu-Regular, Ubuntu;}.cls-2,.cls-7{fill:#fefefe;}.cls-3{fill:#5e8cdf;}.cls-4,.cls-6{fill:none;}.cls-4{stroke:#5b8cdf;}.cls-5{fill:#d9d9d9;}.cls-6{stroke:#eff0ff;}.cls-8{fill:#fff;}.cls-9{fill:#f2f2f2;}.cls-10{opacity:0.28;}.cls-11{fill:#051245;}.cls-12{fill:#2e54d4;}.cls-13{fill:#294abf;}.cls-14{fill:#121a45;}</style></defs><g id="CHOOSE"><rect id="Rectangle_4035" data-name="Rectangle 4035" class="cls-1" x="95.85" y="43.24" width="168.57" height="83.71"/><text class="cls-2" transform="translate(491.21 89.17)">Manual</text><path class="cls-3" d="M376.58,58.83a25.54,25.54,0,1,0,0,51.07h59.17a25.54,25.54,0,0,0,0-51.07Z"/><path class="cls-4" d="M376.58,58.83a25.54,25.54,0,1,0,0,51.07h59.17a25.54,25.54,0,0,0,0-51.07Z"/><path class="cls-5" d="M374.71,55.35a25.54,25.54,0,1,0,0,51.07h59.17a25.54,25.54,0,0,0,0-51.07Z"/><path class="cls-6" d="M374.71,55.35a25.54,25.54,0,1,0,0,51.07h59.17a25.54,25.54,0,0,0,0-51.07Z"/><path class="cls-7" d="M377.42,101C389.31,101,399,92,399,80.89S389.31,60.8,377.42,60.8s-21.52,9-21.52,20.09S365.53,101,377.42,101"/><path class="cls-1" d="M301.39,159.43V143.36H297.8v9.49c-.56-.84-1.15-1.71-1.79-2.61s-1.27-1.78-1.91-2.62-1.27-1.64-1.89-2.38-1.18-1.36-1.69-1.88h-2.95v16.07h3.57V148.91A54.43,54.43,0,0,1,295,154c1.21,1.8,2.33,3.61,3.36,5.45Zm-17.46-11.67a7.45,7.45,0,0,0-1.71-2.63,7.07,7.07,0,0,0-2.55-1.6,8.92,8.92,0,0,0-3.11-.54,8.71,8.71,0,0,0-3.05.54,7.24,7.24,0,0,0-2.55,1.6,7.67,7.67,0,0,0-1.75,2.63,9.45,9.45,0,0,0-.65,3.63,9.63,9.63,0,0,0,.63,3.62,7.45,7.45,0,0,0,1.71,2.62,7,7,0,0,0,2.55,1.59,8.92,8.92,0,0,0,3.11.54,9.18,9.18,0,0,0,3.17-.54,6.72,6.72,0,0,0,2.53-1.59A7.27,7.27,0,0,0,284,155a10.06,10.06,0,0,0,.61-3.62,9.65,9.65,0,0,0-.63-3.63m-11.34,1.5a4.87,4.87,0,0,1,.83-1.64,3.84,3.84,0,0,1,1.33-1.07,4.53,4.53,0,0,1,3.61,0,3.65,3.65,0,0,1,1.34,1.06,4.79,4.79,0,0,1,.84,1.64,7.56,7.56,0,0,1,.29,2.15,7.36,7.36,0,0,1-.29,2.13,4.84,4.84,0,0,1-.84,1.63,3.65,3.65,0,0,1-1.34,1.06,4.59,4.59,0,0,1-3.61,0,3.7,3.7,0,0,1-1.33-1.06,4.82,4.82,0,0,1-.83-1.63,7,7,0,0,1-.29-2.13,7.17,7.17,0,0,1,.29-2.13m-10.66,10.17h3.62V143.36h-3.62Zm-15.62-16.07v3.09h4.84v13h3.62v-13h4.84v-3.09Zm-3.57,16a8.58,8.58,0,0,0,2.15-.84l-1-2.9c-.2.1-.42.2-.67.3a4.79,4.79,0,0,1-.86.29,10.2,10.2,0,0,1-2.52.32,5.11,5.11,0,0,1-2.14-.41,3.83,3.83,0,0,1-1.42-1.1,4.41,4.41,0,0,1-.79-1.66,8.52,8.52,0,0,1-.24-2.07,6.63,6.63,0,0,1,.37-2.37,4.48,4.48,0,0,1,1-1.59,3.92,3.92,0,0,1,1.42-.89,5.08,5.08,0,0,1,1.63-.28,8.47,8.47,0,0,1,2.24.28,9.32,9.32,0,0,1,1.73.67l1-2.92-.6-.32a7,7,0,0,0-1.05-.41,13.75,13.75,0,0,0-1.46-.35,11.45,11.45,0,0,0-1.85-.15,9.35,9.35,0,0,0-3.27.56,7.27,7.27,0,0,0-2.6,1.63,7.62,7.62,0,0,0-1.71,2.65,9.46,9.46,0,0,0-.63,3.56,8.74,8.74,0,0,0,2,6.19,7.83,7.83,0,0,0,6,2.18,13,13,0,0,0,3.23-.37m-17.69-.1a5.36,5.36,0,0,0,2.06-1.31,5.24,5.24,0,0,0,1.2-2,7.91,7.91,0,0,0,.4-2.59v-10h-3.62v9.7a3.77,3.77,0,0,1-.82,2.75,2.89,2.89,0,0,1-2.15.82,3.76,3.76,0,0,1-1.19-.19,2.22,2.22,0,0,1-.93-.61,3.22,3.22,0,0,1-.6-1.12,5.27,5.27,0,0,1-.22-1.65v-9.7h-3.62v10a8.12,8.12,0,0,0,.39,2.58,5.24,5.24,0,0,0,1.18,2,5.5,5.5,0,0,0,2,1.32,8,8,0,0,0,2.92.48,8.57,8.57,0,0,0,3-.47m-12.92-11.64a6.57,6.57,0,0,0-1.85-2.55,7.81,7.81,0,0,0-2.89-1.46,14,14,0,0,0-3.74-.46c-.65,0-1.43,0-2.33.08a23.31,23.31,0,0,0-2.61.31v15.65a19.32,19.32,0,0,0,2.55.34c.86.05,1.62.08,2.27.08a13.49,13.49,0,0,0,3.85-.51,7.92,7.92,0,0,0,2.91-1.53,6.69,6.69,0,0,0,1.84-2.57,9.28,9.28,0,0,0,.65-3.64,9.56,9.56,0,0,0-.65-3.74m-9.8-1.32c.23,0,.47-.05.74-.06h.76a4.54,4.54,0,0,1,5.22,5.13,5.28,5.28,0,0,1-1.31,3.78,5.34,5.34,0,0,1-4,1.36h-.8c-.23,0-.42,0-.59,0Zm-7.26,1.43a7.47,7.47,0,0,0-1.72-2.63,6.9,6.9,0,0,0-2.55-1.6,8.86,8.86,0,0,0-3.1-.54,8.63,8.63,0,0,0-3,.54,7.07,7.07,0,0,0-2.55,1.6,7.53,7.53,0,0,0-1.75,2.63,9.45,9.45,0,0,0-.65,3.63,9.84,9.84,0,0,0,.62,3.62,7.33,7.33,0,0,0,1.72,2.62,7,7,0,0,0,2.55,1.59,8.88,8.88,0,0,0,3.11.54,9.12,9.12,0,0,0,3.16-.54,6.76,6.76,0,0,0,2.54-1.59,7.39,7.39,0,0,0,1.68-2.62,9.84,9.84,0,0,0,.62-3.62,9.65,9.65,0,0,0-.63-3.63m-11.35,1.5a4.71,4.71,0,0,1,.84-1.64,3.75,3.75,0,0,1,1.33-1.07,4.51,4.51,0,0,1,3.6,0,3.61,3.61,0,0,1,1.35,1.06,4.78,4.78,0,0,1,.83,1.64,7.22,7.22,0,0,1,.29,2.15,7,7,0,0,1-.29,2.13,4.82,4.82,0,0,1-.83,1.63,3.61,3.61,0,0,1-1.35,1.06,4.56,4.56,0,0,1-3.6,0,3.62,3.62,0,0,1-1.33-1.06,4.66,4.66,0,0,1-.84-1.63,7.36,7.36,0,0,1-.29-2.13,7.51,7.51,0,0,1,.29-2.13m-10.83-2.5a1.76,1.76,0,0,1,.9,1.68,1.86,1.86,0,0,1-.88,1.74,6.21,6.21,0,0,1-2.93.51h-1v-4.36l.6,0c.2,0,.44,0,.7,0a5.52,5.52,0,0,1,2.63.5m-5.1-3.49a19.12,19.12,0,0,0-2.44.33v15.83H169v-5.86h1.79a14.82,14.82,0,0,1,.93,1.24c.31.45.62.94.94,1.45s.63,1,.93,1.57.6,1.08.9,1.6h4c-.27-.59-.58-1.18-.9-1.8s-.66-1.19-1-1.76-.7-1.1-1.05-1.62-.7-1-1-1.38a5.07,5.07,0,0,0,2.23-1.66,5.15,5.15,0,0,0-1.14-6.74,10,10,0,0,0-5.55-1.29c-.66,0-1.41,0-2.26.09m-10.88,3.1a3.1,3.1,0,0,1,1.1.37,1.81,1.81,0,0,1,.69.71,2.17,2.17,0,0,1,.25,1.11,2,2,0,0,1-.95,1.9,6.19,6.19,0,0,1-2.83.51H154v-4.64l.66,0,.78,0a9,9,0,0,1,1.44.11m-4-3.1a19.12,19.12,0,0,0-2.5.33v15.83H154v-5.38h1.14a10.12,10.12,0,0,0,5.56-1.28,4.66,4.66,0,0,0,2-4.19,4.59,4.59,0,0,0-1.92-4.14,10.09,10.09,0,0,0-5.52-1.26c-.67,0-1.44,0-2.32.09m-11.66,10.81H148V151h-6.72Zm-1.39,5.35v-3H132.1v-3.87h6.42v-3H132.1V146.4h7.24v-3H128.48v16.07Zm-19.3-12.67a1.77,1.77,0,0,1,.89,1.68,1.84,1.84,0,0,1-.88,1.74,6.16,6.16,0,0,1-2.92.51h-1v-4.36l.59,0c.21,0,.44,0,.71,0a5.55,5.55,0,0,1,2.63.5m-5.1-3.49a19,19,0,0,0-2.45.33v15.83h3.62v-5.86h1.78a14.82,14.82,0,0,1,.93,1.24c.31.45.63.94,1,1.45s.63,1,.93,1.57l.89,1.6h4c-.28-.59-.58-1.18-.91-1.8s-.66-1.19-1-1.76-.7-1.1-1-1.62-.7-1-1-1.38a5.1,5.1,0,0,0,2.24-1.66,4.56,4.56,0,0,0,.77-2.74,4.47,4.47,0,0,0-1.92-4,9.93,9.93,0,0,0-5.54-1.29c-.67,0-1.42,0-2.26.09m-10.89,3.1a3.1,3.1,0,0,1,1.1.37,1.84,1.84,0,0,1,.7.71,2.28,2.28,0,0,1,.24,1.11,1.94,1.94,0,0,1-1,1.9,6.16,6.16,0,0,1-2.83.51h-1.13v-4.64l.66,0c.25,0,.51,0,.77,0a9,9,0,0,1,1.44.11m-4-3.1a19.12,19.12,0,0,0-2.5.33v15.83h3.62v-5.38h1.13a10.18,10.18,0,0,0,5.57-1.28,4.65,4.65,0,0,0,1.94-4.19,4.59,4.59,0,0,0-1.92-4.14,10.07,10.07,0,0,0-5.52-1.26c-.66,0-1.43,0-2.32.09"/><path class="cls-8" d="M301.39,157.68V141.61H297.8v9.49c-.56-.84-1.15-1.71-1.79-2.61s-1.27-1.78-1.91-2.62-1.27-1.64-1.89-2.38-1.18-1.37-1.69-1.88h-2.95v16.07h3.57V147.16a54.43,54.43,0,0,1,3.85,5.07c1.21,1.8,2.33,3.61,3.36,5.45ZM283.93,146a7.45,7.45,0,0,0-1.71-2.63,7.07,7.07,0,0,0-2.55-1.6,8.92,8.92,0,0,0-3.11-.54,8.71,8.71,0,0,0-3.05.54,7.24,7.24,0,0,0-2.55,1.6,7.67,7.67,0,0,0-1.75,2.63,9.45,9.45,0,0,0-.65,3.63,9.63,9.63,0,0,0,.63,3.62,7.45,7.45,0,0,0,1.71,2.62,7,7,0,0,0,2.55,1.59,8.92,8.92,0,0,0,3.11.54,9.18,9.18,0,0,0,3.17-.54,6.72,6.72,0,0,0,2.53-1.59,7.27,7.27,0,0,0,1.69-2.62,10.06,10.06,0,0,0,.61-3.62,9.65,9.65,0,0,0-.63-3.63m-11.34,1.5a4.87,4.87,0,0,1,.83-1.64,3.84,3.84,0,0,1,1.33-1.07,4.53,4.53,0,0,1,3.61,0,3.65,3.65,0,0,1,1.34,1.06,4.79,4.79,0,0,1,.84,1.64,7.56,7.56,0,0,1,.29,2.15,7.41,7.41,0,0,1-.29,2.13,4.84,4.84,0,0,1-.84,1.63,3.65,3.65,0,0,1-1.34,1.06,4.59,4.59,0,0,1-3.61,0,3.7,3.7,0,0,1-1.33-1.06,4.82,4.82,0,0,1-.83-1.63,7.08,7.08,0,0,1-.29-2.13,7.17,7.17,0,0,1,.29-2.13m-10.66,10.17h3.62V141.61h-3.62Zm-15.62-16.07v3.09h4.84v13h3.62v-13h4.84v-3.09Zm-3.57,16a8.58,8.58,0,0,0,2.15-.84l-1-2.9c-.2.1-.42.2-.67.3a4.79,4.79,0,0,1-.86.29,10.2,10.2,0,0,1-2.52.32,5.11,5.11,0,0,1-2.14-.41,3.83,3.83,0,0,1-1.42-1.1,4.41,4.41,0,0,1-.79-1.66,8.52,8.52,0,0,1-.24-2.07,6.63,6.63,0,0,1,.37-2.37,4.48,4.48,0,0,1,1-1.59,3.92,3.92,0,0,1,1.42-.89,5.08,5.08,0,0,1,1.63-.28,8.47,8.47,0,0,1,2.24.28,9.32,9.32,0,0,1,1.73.67l1-2.92-.6-.32a7,7,0,0,0-1.05-.41,13.75,13.75,0,0,0-1.46-.35,10.42,10.42,0,0,0-1.85-.15,9.35,9.35,0,0,0-3.27.56,7.27,7.27,0,0,0-2.6,1.63,7.62,7.62,0,0,0-1.71,2.65,9.46,9.46,0,0,0-.63,3.56,8.74,8.74,0,0,0,2,6.19,7.83,7.83,0,0,0,6,2.18,13,13,0,0,0,3.23-.37m-17.69-.1a5.36,5.36,0,0,0,2.06-1.31,5.24,5.24,0,0,0,1.2-2,7.91,7.91,0,0,0,.4-2.59v-10h-3.62v9.7a3.77,3.77,0,0,1-.82,2.75,2.89,2.89,0,0,1-2.15.82,3.76,3.76,0,0,1-1.19-.19,2.22,2.22,0,0,1-.93-.61,3.22,3.22,0,0,1-.6-1.12,5.32,5.32,0,0,1-.22-1.65v-9.7h-3.62v10a8.12,8.12,0,0,0,.39,2.58,5.24,5.24,0,0,0,1.18,2,5.5,5.5,0,0,0,2,1.32,8,8,0,0,0,2.92.48,8.57,8.57,0,0,0,3-.47M212.13,145.9a6.57,6.57,0,0,0-1.85-2.55,7.81,7.81,0,0,0-2.89-1.46,14,14,0,0,0-3.74-.46c-.65,0-1.43,0-2.33.08a23.31,23.31,0,0,0-2.61.31v15.65a19.32,19.32,0,0,0,2.55.34c.86.05,1.62.08,2.27.08a13.49,13.49,0,0,0,3.85-.51,7.92,7.92,0,0,0,2.91-1.53,6.69,6.69,0,0,0,1.84-2.57,9.28,9.28,0,0,0,.65-3.64,9.56,9.56,0,0,0-.65-3.74m-9.8-1.32c.23,0,.47-.05.74-.06h.76a4.54,4.54,0,0,1,5.22,5.13,5.28,5.28,0,0,1-1.31,3.78,5.34,5.34,0,0,1-4,1.36h-.8l-.59,0ZM195.07,146a7.47,7.47,0,0,0-1.72-2.63,6.9,6.9,0,0,0-2.55-1.6,8.86,8.86,0,0,0-3.1-.54,8.63,8.63,0,0,0-3,.54,7.07,7.07,0,0,0-2.55,1.6,7.53,7.53,0,0,0-1.75,2.63,9.45,9.45,0,0,0-.65,3.63,9.84,9.84,0,0,0,.62,3.62,7.33,7.33,0,0,0,1.72,2.62,7,7,0,0,0,2.55,1.59,8.88,8.88,0,0,0,3.11.54,9.12,9.12,0,0,0,3.16-.54,6.76,6.76,0,0,0,2.54-1.59,7.39,7.39,0,0,0,1.68-2.62,9.84,9.84,0,0,0,.62-3.62,9.65,9.65,0,0,0-.63-3.63m-11.35,1.5a4.71,4.71,0,0,1,.84-1.64,3.75,3.75,0,0,1,1.33-1.07,4.51,4.51,0,0,1,3.6,0,3.61,3.61,0,0,1,1.35,1.06,4.78,4.78,0,0,1,.83,1.64,7.22,7.22,0,0,1,.29,2.15,7.08,7.08,0,0,1-.29,2.13,4.82,4.82,0,0,1-.83,1.63,3.61,3.61,0,0,1-1.35,1.06,4.56,4.56,0,0,1-3.6,0,3.62,3.62,0,0,1-1.33-1.06,4.66,4.66,0,0,1-.84-1.63,7.41,7.41,0,0,1-.29-2.13,7.51,7.51,0,0,1,.29-2.13M172.89,145a1.76,1.76,0,0,1,.9,1.68,1.86,1.86,0,0,1-.88,1.74,6.21,6.21,0,0,1-2.93.51h-1v-4.36l.6,0c.2,0,.44,0,.7,0a5.52,5.52,0,0,1,2.63.5m-5.1-3.49a19.12,19.12,0,0,0-2.44.33v15.83H169v-5.86h1.79a14.82,14.82,0,0,1,.93,1.24c.31.45.62.94.94,1.45s.63,1,.93,1.57.6,1.08.9,1.6h4c-.27-.59-.58-1.18-.9-1.8s-.66-1.19-1-1.76-.7-1.1-1.05-1.62-.7-1-1-1.38a5.07,5.07,0,0,0,2.23-1.66,5.15,5.15,0,0,0-1.14-6.74,10,10,0,0,0-5.55-1.29c-.66,0-1.41,0-2.26.09m-10.88,3.1a3.1,3.1,0,0,1,1.1.37,1.81,1.81,0,0,1,.69.71,2.17,2.17,0,0,1,.25,1.11,2,2,0,0,1-.95,1.9,6.19,6.19,0,0,1-2.83.51H154v-4.64l.66,0,.78,0a9,9,0,0,1,1.44.11m-4-3.1a19.12,19.12,0,0,0-2.5.33v15.83H154V152.3h1.14a10.12,10.12,0,0,0,5.56-1.28,4.66,4.66,0,0,0,2-4.19,4.59,4.59,0,0,0-1.92-4.14,10.09,10.09,0,0,0-5.52-1.26c-.67,0-1.44,0-2.32.09m-11.66,10.81H148V149.2h-6.72Zm-1.39,5.35v-3H132.1v-3.87h6.42v-3H132.1v-3.15h7.24v-3H128.48v16.07ZM120.57,145a1.77,1.77,0,0,1,.89,1.68,1.84,1.84,0,0,1-.88,1.74,6.16,6.16,0,0,1-2.92.51h-1v-4.36l.59,0c.21,0,.44,0,.71,0a5.55,5.55,0,0,1,2.63.5m-5.1-3.49a19,19,0,0,0-2.45.33v15.83h3.62v-5.86h1.78a14.82,14.82,0,0,1,.93,1.24c.31.45.63.94,1,1.45s.63,1,.93,1.57l.89,1.6h4c-.28-.59-.58-1.18-.91-1.8s-.66-1.19-1-1.76-.7-1.1-1-1.62-.7-1-1-1.38a5.1,5.1,0,0,0,2.24-1.66,4.56,4.56,0,0,0,.77-2.74,4.47,4.47,0,0,0-1.92-4,9.93,9.93,0,0,0-5.54-1.29c-.67,0-1.42,0-2.26.09m-10.89,3.1a3.1,3.1,0,0,1,1.1.37,1.84,1.84,0,0,1,.7.71,2.28,2.28,0,0,1,.24,1.11,1.94,1.94,0,0,1-1,1.9,6.16,6.16,0,0,1-2.83.51h-1.13v-4.64l.66,0c.25,0,.51,0,.77,0a9,9,0,0,1,1.44.11m-4-3.1a19.12,19.12,0,0,0-2.5.33v15.83h3.62V152.3h1.13a10.18,10.18,0,0,0,5.57-1.28,4.65,4.65,0,0,0,1.94-4.19,4.59,4.59,0,0,0-1.92-4.14,10.07,10.07,0,0,0-5.52-1.26c-.66,0-1.43,0-2.32.09"/><rect class="cls-8" x="94.42" y="39.24" width="165" height="83"/><rect class="cls-9" x="178.15" y="39.24" width="83" height="83"/><g class="cls-10"><path class="cls-11" d="M205,77.34v.75a6.24,6.24,0,0,1-.17,1.55,2.81,2.81,0,0,1-.61,1.14,3.91,3.91,0,0,1-1.69,1.14,5.47,5.47,0,0,1-1.83.32,2.64,2.64,0,0,1-1.66-4.6,4.11,4.11,0,0,1,2.65-.71,13.54,13.54,0,0,1,1.68.11,14.63,14.63,0,0,1,1.63.3ZM202.94,75a13.11,13.11,0,0,0-1.88-.14,6.47,6.47,0,0,0-4.37,1.39,5,5,0,0,0-.3,7.1A4.88,4.88,0,0,0,200,84.58a6.56,6.56,0,0,0,5.24-2.46,11.06,11.06,0,0,0,.55,1,5.82,5.82,0,0,0,.64.84.83.83,0,0,0,.53.25,1,1,0,0,0,.47-.16l1.12-.75a.73.73,0,0,0,.34-.54.9.9,0,0,0-.13-.41,9.78,9.78,0,0,1-.57-1.28,5.69,5.69,0,0,1-.2-1.59h0V73.75a5.89,5.89,0,0,0-1.48-4.38,6.46,6.46,0,0,0-4.66-1.44,10.85,10.85,0,0,0-2.78.33,10.3,10.3,0,0,0-2.24.8,1.36,1.36,0,0,0-.5.38,1.12,1.12,0,0,0-.13.62v.88c0,.37.13.55.38.55a1.37,1.37,0,0,0,.28,0,6.56,6.56,0,0,0,.62-.23,14.41,14.41,0,0,1,1.93-.61,7.76,7.76,0,0,1,1.92-.23,4.06,4.06,0,0,1,2.9.82A3.94,3.94,0,0,1,205,74v1.3c-.71-.16-1.39-.3-2.05-.39"/><path class="cls-11" d="M214,83.3a1.43,1.43,0,0,0,.38.69,1,1,0,0,0,.67.18h1.54a1.12,1.12,0,0,0,.71-.18,1.47,1.47,0,0,0,.34-.71l2.74-11.48,2.76,11.5a1.25,1.25,0,0,0,.34.71,1.1,1.1,0,0,0,.71.18h1.53a1.18,1.18,0,0,0,.68-.18,1.4,1.4,0,0,0,.37-.7L231,69.53a2.3,2.3,0,0,0,.12-.45,1.26,1.26,0,0,0,0-.28.4.4,0,0,0-.34-.45h-1.76a1.22,1.22,0,0,0-.7.18,1.55,1.55,0,0,0-.35.7L225,81.17l-2.82-11.94a1.16,1.16,0,0,0-.34-.7,1.12,1.12,0,0,0-.71-.18h-1.42a1.26,1.26,0,0,0-.71.18,1.16,1.16,0,0,0-.34.7L215.83,81l-3-11.81a1.46,1.46,0,0,0-.35-.69,1,1,0,0,0-.7-.18H210a.38.38,0,0,0-.42.35.17.17,0,0,0,0,.1,2.92,2.92,0,0,0,.16.71Z"/><path class="cls-11" d="M233.1,83.62a8.3,8.3,0,0,0,2.05.71,12.07,12.07,0,0,0,2.74.32,8.42,8.42,0,0,0,2.55-.37,5.7,5.7,0,0,0,2-1,4.93,4.93,0,0,0,1.3-1.57,4.61,4.61,0,0,0,.46-2.07,4.1,4.1,0,0,0-.82-2.5,5.49,5.49,0,0,0-2.76-1.71l-2.53-.8a5.4,5.4,0,0,1-2-1,1.69,1.69,0,0,1-.53-1.27,1.72,1.72,0,0,1,.83-1.58,4.66,4.66,0,0,1,2.37-.51,8.34,8.34,0,0,1,3.42.7,2,2,0,0,0,.68.22c.27,0,.41-.2.41-.58V69.8a1,1,0,0,0-.16-.59,1.48,1.48,0,0,0-.54-.45,3.76,3.76,0,0,0-.74-.32c-.32-.1-.66-.19-1-.28s-.75-.15-1.16-.2a9.39,9.39,0,0,0-1.19-.07,7.71,7.71,0,0,0-2.24.3,5.56,5.56,0,0,0-1.85.93,4.63,4.63,0,0,0-1.29,1.46,4,4,0,0,0-.48,2,4.22,4.22,0,0,0,.89,2.58A5.34,5.34,0,0,0,236.36,77l2.58.8a4.56,4.56,0,0,1,1.8.93,1.77,1.77,0,0,1,.48,1.25,1.91,1.91,0,0,1-.93,1.7,4.78,4.78,0,0,1-2.6.58,10.63,10.63,0,0,1-2.11-.21,10.16,10.16,0,0,1-2-.62,3.77,3.77,0,0,0-.45-.18.87.87,0,0,0-.32-.06c-.27,0-.41.18-.41.56v.9a1.18,1.18,0,0,0,.11.5,1.29,1.29,0,0,0,.55.51"/><path class="cls-11" d="M240.42,92.08a52.51,52.51,0,0,1-46.69-3.18c-.66-.39-1.16.28-.61.79A39.25,39.25,0,0,0,219.54,100c7.32,0,15.84-2.21,21.72-6.51,1-.71.14-1.8-.84-1.36"/><path class="cls-11" d="M246.22,88.76c-.63-.78-6.13-1.49-9.49.84-.52.37-.43.87.14.8,1.9-.22,6.11-.69,6.85.27s-.86,4.92-1.59,6.68c-.21.54.25.75.73.34,3.15-2.62,4-8.12,3.36-8.93"/></g><path class="cls-11" d="M151.44,91.58H149V89.13a.82.82,0,0,0-.82-.82h-1.63a.82.82,0,0,0-.82.82v2.45h-2.44a.82.82,0,0,0-.82.82V94a.82.82,0,0,0,.82.82h2.44v2.46a.82.82,0,0,0,.82.81h1.63a.82.82,0,0,0,.82-.81V94.86h2.45a.82.82,0,0,0,.81-.82V92.4a.82.82,0,0,0-.81-.82"/><path class="cls-11" d="M129.23,82.35h-13a4.34,4.34,0,0,0-4.33,4.35v13a4.34,4.34,0,0,0,4.33,4.34h13a4.35,4.35,0,0,0,4.34-4.34v-13a4.35,4.35,0,0,0-4.34-4.35"/><path class="cls-12" d="M127.94,84.51H117.52A3.48,3.48,0,0,0,114.05,88V98.45a3.48,3.48,0,0,0,3.47,3.48h10.42a3.48,3.48,0,0,0,3.47-3.48V88a3.48,3.48,0,0,0-3.47-3.48"/><path class="cls-13" d="M131.41,90.56c-4.89,1.3-11.76,4.22-15.91,10.71a3.39,3.39,0,0,0,2,.66h10.49a3.48,3.48,0,0,0,3.47-3.48Z"/><path class="cls-11" d="M129.23,57.86h-13a4.34,4.34,0,0,0-4.33,4.35V75.26a4.35,4.35,0,0,0,4.33,4.35h13a4.36,4.36,0,0,0,4.34-4.35V62.21a4.35,4.35,0,0,0-4.34-4.35"/><path class="cls-12" d="M127.94,60H117.52a3.48,3.48,0,0,0-3.47,3.48V74a3.48,3.48,0,0,0,3.47,3.48h10.42A3.48,3.48,0,0,0,131.41,74V63.5A3.48,3.48,0,0,0,127.94,60"/><path class="cls-13" d="M131.41,66.08c-4.89,1.29-11.76,4.21-15.91,10.7a3.39,3.39,0,0,0,2,.66h10.49A3.48,3.48,0,0,0,131.41,74Z"/><path class="cls-11" d="M153.86,57.86h-13a4.35,4.35,0,0,0-4.33,4.35V75.26a4.36,4.36,0,0,0,4.33,4.35h13a4.35,4.35,0,0,0,4.33-4.35V62.21a4.34,4.34,0,0,0-4.33-4.35"/><path class="cls-12" d="M152.56,60H142.15a3.48,3.48,0,0,0-3.48,3.48V74a3.48,3.48,0,0,0,3.48,3.48h10.41A3.48,3.48,0,0,0,156,74V63.5A3.48,3.48,0,0,0,152.56,60"/><path class="cls-13" d="M156,66.08c-4.9,1.29-11.76,4.21-15.92,10.7a3.41,3.41,0,0,0,1.95.66h10.49A3.48,3.48,0,0,0,156,74Z"/><g id="Groupe_3334" data-name="Groupe 3334"><path id="Tracé_11687-2" data-name="Tracé 11687-2" class="cls-8" d="M402.67,104.94v-2.49h-2.49V100h-5v-2.5h-7.48V95h-5V85h-2.49V82.5h-5V85h-2.49v22.44h-2.5v-2.5h-7.48v7.48h2.5v2.5h2.49v5h2.49v5h2.5v5h2.49v7.48h24.94v-7.48h2.49V122.4h2.49V104.94Z"/><rect id="Rectangle_4039" data-name="Rectangle 4039" class="cls-14" x="372.76" y="85" width="2.49" height="29.92"/><rect id="Rectangle_4040" data-name="Rectangle 4040" class="cls-14" x="375.25" y="82.5" width="4.99" height="2.49"/><rect id="Rectangle_4041" data-name="Rectangle 4041" class="cls-14" x="380.24" y="85" width="2.49" height="22.44"/><rect id="Rectangle_4042" data-name="Rectangle 4042" class="cls-14" x="382.73" y="94.97" width="4.99" height="2.49"/><rect id="Rectangle_4043" data-name="Rectangle 4043" class="cls-14" x="387.72" y="99.96" width="2.49" height="7.48"/><rect id="Rectangle_4044" data-name="Rectangle 4044" class="cls-14" x="387.72" y="97.47" width="7.48" height="2.49"/><rect id="Rectangle_4045" data-name="Rectangle 4045" class="cls-14" x="395.2" y="102.45" width="2.49" height="7.48"/><rect id="Rectangle_4046" data-name="Rectangle 4046" class="cls-14" x="395.2" y="99.96" width="4.99" height="2.49"/><rect id="Rectangle_4047" data-name="Rectangle 4047" class="cls-14" x="400.19" y="102.45" width="2.49" height="2.49"/><rect id="Rectangle_4048" data-name="Rectangle 4048" class="cls-14" x="402.68" y="104.94" width="2.49" height="17.45"/><rect id="Rectangle_4049" data-name="Rectangle 4049" class="cls-14" x="400.19" y="122.4" width="2.49" height="7.48"/><rect id="Rectangle_4050" data-name="Rectangle 4050" class="cls-14" x="397.69" y="129.88" width="2.49" height="7.48"/><rect id="Rectangle_4051" data-name="Rectangle 4051" class="cls-14" x="375.25" y="134.87" width="22.44" height="2.49"/><rect id="Rectangle_4052" data-name="Rectangle 4052" class="cls-14" x="370.26" y="107.44" width="2.49" height="2.49"/><rect id="Rectangle_4053" data-name="Rectangle 4053" class="cls-14" x="362.78" y="104.94" width="7.48" height="2.49"/><rect id="Rectangle_4054" data-name="Rectangle 4054" class="cls-14" x="362.78" y="107.44" width="2.49" height="4.99"/><rect id="Rectangle_4055" data-name="Rectangle 4055" class="cls-14" x="365.28" y="112.43" width="2.49" height="2.49"/><rect id="Rectangle_4056" data-name="Rectangle 4056" class="cls-14" x="367.77" y="114.92" width="2.49" height="4.99"/><rect id="Rectangle_4057" data-name="Rectangle 4057" class="cls-14" x="370.26" y="119.9" width="2.49" height="4.99"/><rect id="Rectangle_4058" data-name="Rectangle 4058" class="cls-14" x="372.76" y="124.89" width="2.49" height="4.99"/><rect id="Rectangle_4059" data-name="Rectangle 4059" class="cls-14" x="375.25" y="129.88" width="2.49" height="4.99"/></g></g></svg>