<svg id="ADOPT" xmlns="http://www.w3.org/2000/svg" viewBox="0 0 674 199"><defs><style>.cls-1{fill:#3066b7;opacity:0.4;isolation:isolate;}.cls-2{fill:#fff;}.cls-3,.cls-4,.cls-7{fill:none;}.cls-3{stroke:#fff;stroke-miterlimit:10;stroke-width:3px;}.cls-5{fill:#051245;}.cls-6{fill:#fefefe;}.cls-7{stroke:#c5c5c5;stroke-width:0.75px;}.cls-8{fill:#7fa8ff;}.cls-9{fill:#121a45;}</style></defs><rect id="Rectangle_4031" data-name="Rectangle 4031" class="cls-1" x="76.58" y="68.8" width="234.07" height="58.16"/><rect id="Rectangle_4032" data-name="Rectangle 4032" class="cls-2" x="70.64" y="60.05" width="228.96" height="59.1"/><rect id="Rectangle_4033" data-name="Rectangle 4033" class="cls-3" x="70.36" y="60.05" width="230.32" height="59.1"/><rect id="Rectangle_4034" data-name="Rectangle 4034" class="cls-4" x="68.27" y="57.68" width="237.64" height="69.27"/><g id="Groupe_3331" data-name="Groupe 3331"><path id="Tracé_11665" data-name="Tracé 11665" class="cls-5" d="M147.7,96.9c-.9,0-1.8,0-2.69-.08a20.21,20.21,0,0,1-2.78-.39V80.51a22.9,22.9,0,0,1,2.49-.32c.9-.07,1.73-.11,2.51-.11a17.27,17.27,0,0,1,2.87.23,6.78,6.78,0,0,1,2.27.77,4,4,0,0,1,1.48,1.43,4.21,4.21,0,0,1,.53,2.19,3.47,3.47,0,0,1-1.9,3.1,3.9,3.9,0,0,1,2.13,1.61,4.64,4.64,0,0,1,.57,2.3,4.42,4.42,0,0,1-1.88,3.89A9.9,9.9,0,0,1,147.7,96.9Zm-1.87-10.18h1.8a5,5,0,0,0,2.44-.44,1.52,1.52,0,0,0,.73-1.41,1.44,1.44,0,0,0-.76-1.4,4.72,4.72,0,0,0-2.22-.4h-1c-.36,0-.69,0-1,.06Zm0,2.81v4.24a7.66,7.66,0,0,0,.88.07c.31,0,.66,0,1,0a6.58,6.58,0,0,0,2.67-.47,1.76,1.76,0,0,0,1-1.76,1.72,1.72,0,0,0-.85-1.62,5,5,0,0,0-2.44-.49Z"/><path id="Tracé_11666" data-name="Tracé 11666" class="cls-5" d="M162.88,96.92a8.86,8.86,0,0,1-2.5-.33,3.74,3.74,0,0,1-1.51-.86,2.77,2.77,0,0,1-.76-1.35,7.23,7.23,0,0,1-.2-1.79V78.88l3.53-.57V91.88a4.88,4.88,0,0,0,.07.85,1.36,1.36,0,0,0,.85,1.07,3.26,3.26,0,0,0,1,.21Z"/><path id="Tracé_11667" data-name="Tracé 11667" class="cls-5" d="M176,96.26a20.81,20.81,0,0,1-2.32.49,20,20,0,0,1-3,.22,7,7,0,0,1-2.64-.43,3.9,3.9,0,0,1-1.67-1.19,4.83,4.83,0,0,1-.88-1.84,10.24,10.24,0,0,1-.26-2.34V84.23h3.53v6.51a5.07,5.07,0,0,0,.45,2.46,1.79,1.79,0,0,0,1.69.76l.8,0c.28,0,.54-.05.76-.09V84.23H176Z"/><path id="Tracé_11668" data-name="Tracé 11668" class="cls-5" d="M178.75,90.55a7.59,7.59,0,0,1,.51-2.9,6.15,6.15,0,0,1,1.34-2.07,5.64,5.64,0,0,1,1.9-1.26,6,6,0,0,1,2.22-.42,5.51,5.51,0,0,1,4.19,1.62,6.63,6.63,0,0,1,1.54,4.77c0,.21,0,.43,0,.68s0,.46-.05.65h-8a2.38,2.38,0,0,0,1,1.73,4.12,4.12,0,0,0,2.42.64,10.11,10.11,0,0,0,1.9-.18,7.26,7.26,0,0,0,1.53-.44l.47,2.87a4.81,4.81,0,0,1-.75.28,9.6,9.6,0,0,1-1.06.25c-.39.07-.8.13-1.24.18a11.73,11.73,0,0,1-1.33.07,7.84,7.84,0,0,1-2.92-.5,5.7,5.7,0,0,1-2.06-1.36,5.41,5.41,0,0,1-1.21-2A8,8,0,0,1,178.75,90.55ZM187,89.2a3.6,3.6,0,0,0-.15-.87,2.09,2.09,0,0,0-2.12-1.52,2.38,2.38,0,0,0-1,.2,2.17,2.17,0,0,0-.71.53,2.57,2.57,0,0,0-.44.77,4.63,4.63,0,0,0-.22.89Z"/><path id="Tracé_11669" data-name="Tracé 11669" class="cls-5" d="M194.55,101.07h-3.62l8-22.93h3.57Z"/><path id="Tracé_11670" data-name="Tracé 11670" class="cls-5" d="M211.77,83.12A4.51,4.51,0,0,0,208,84.55a6.11,6.11,0,0,0-1.15,3.92,7.71,7.71,0,0,0,.29,2.19,4.81,4.81,0,0,0,.85,1.69,3.81,3.81,0,0,0,1.42,1.1,4.57,4.57,0,0,0,2,.39c.41,0,.76,0,1.05,0a4.91,4.91,0,0,0,.77-.1V88H217v8.12a14.53,14.53,0,0,1-2.13.56,19.2,19.2,0,0,1-3.63.3,9.59,9.59,0,0,1-3.35-.57,7,7,0,0,1-2.57-1.66,7.41,7.41,0,0,1-1.64-2.68,10.14,10.14,0,0,1-.58-3.62,9.5,9.5,0,0,1,.64-3.65,7.68,7.68,0,0,1,1.75-2.68,7.32,7.32,0,0,1,2.62-1.68,9.19,9.19,0,0,1,3.2-.57,13.41,13.41,0,0,1,2.1.16,12.47,12.47,0,0,1,1.61.35,7.56,7.56,0,0,1,1.12.42,5.89,5.89,0,0,1,.62.33l-1.06,3a10,10,0,0,0-1.74-.7A7.44,7.44,0,0,0,211.77,83.12Z"/><path id="Tracé_11671" data-name="Tracé 11671" class="cls-5" d="M227.66,87.35q-.48-.12-1.11-.24a7.1,7.1,0,0,0-1.38-.14c-.26,0-.53,0-.79.06a5.4,5.4,0,0,0-.7.13v9.53h-3.53V84.89a21.91,21.91,0,0,1,2.24-.63,12.64,12.64,0,0,1,2.88-.3c.19,0,.42,0,.68,0a7.46,7.46,0,0,1,.81.1c.27,0,.54.08.8.14a3.92,3.92,0,0,1,.69.2Z"/><path id="Tracé_11672" data-name="Tracé 11672" class="cls-5" d="M229.56,90.55a7.58,7.58,0,0,1,.5-2.9,6.31,6.31,0,0,1,1.34-2.07,5.58,5.58,0,0,1,1.91-1.26,6,6,0,0,1,2.21-.42,5.53,5.53,0,0,1,4.2,1.62,6.72,6.72,0,0,1,1.54,4.77c0,.21,0,.43,0,.68s0,.46,0,.65h-8a2.35,2.35,0,0,0,1,1.73,4.11,4.11,0,0,0,2.41.64,10.21,10.21,0,0,0,1.91-.18,7.43,7.43,0,0,0,1.53-.44l.47,2.87a4.93,4.93,0,0,1-.76.28,8.93,8.93,0,0,1-1,.25c-.39.07-.8.13-1.24.18a11.85,11.85,0,0,1-1.33.07,7.93,7.93,0,0,1-2.93-.5,5.79,5.79,0,0,1-2.06-1.36,5.39,5.39,0,0,1-1.2-2A8,8,0,0,1,229.56,90.55Zm8.28-1.35a3.17,3.17,0,0,0-.15-.87,2.13,2.13,0,0,0-.4-.76,2.18,2.18,0,0,0-.69-.55,2.27,2.27,0,0,0-1-.21,2.41,2.41,0,0,0-1,.2,2.17,2.17,0,0,0-.71.53,2.34,2.34,0,0,0-.43.77,4.66,4.66,0,0,0-.23.89Z"/><path id="Tracé_11673" data-name="Tracé 11673" class="cls-5" d="M243.39,90.55a7.59,7.59,0,0,1,.51-2.9,6.12,6.12,0,0,1,1.33-2.07,5.78,5.78,0,0,1,1.91-1.26,6,6,0,0,1,2.22-.42,5.51,5.51,0,0,1,4.19,1.62,6.72,6.72,0,0,1,1.54,4.77c0,.21,0,.43,0,.68s0,.46,0,.65h-8a2.34,2.34,0,0,0,1,1.73,4.14,4.14,0,0,0,2.42.64,10.21,10.21,0,0,0,1.91-.18,7.34,7.34,0,0,0,1.52-.44l.48,2.87a5.34,5.34,0,0,1-.76.28,10,10,0,0,1-1,.25c-.39.07-.8.13-1.25.18A11.67,11.67,0,0,1,250,97a7.93,7.93,0,0,1-2.93-.5A5.7,5.7,0,0,1,245,95.16a5.54,5.54,0,0,1-1.21-2A8.24,8.24,0,0,1,243.39,90.55Zm8.29-1.35a3.61,3.61,0,0,0-.16-.87,2,2,0,0,0-.4-.76,2.26,2.26,0,0,0-.68-.55,2.32,2.32,0,0,0-1-.21,2.38,2.38,0,0,0-1,.2,2.07,2.07,0,0,0-.71.53,2.37,2.37,0,0,0-.44.77,5.54,5.54,0,0,0-.23.89Z"/><path id="Tracé_11674" data-name="Tracé 11674" class="cls-5" d="M257.81,84.65a20.31,20.31,0,0,1,2.32-.48,20,20,0,0,1,3-.23,7.45,7.45,0,0,1,2.64.42,4,4,0,0,1,1.67,1.17,4.5,4.5,0,0,1,.87,1.8,9.08,9.08,0,0,1,.26,2.32v7H265V90.08a4.91,4.91,0,0,0-.45-2.42A1.85,1.85,0,0,0,262.9,87a7.51,7.51,0,0,0-.8,0l-.76.08v9.62h-3.53Z"/></g><path id="Tracé_11675" data-name="Tracé 11675" class="cls-6" d="M102.23,103.44A13.84,13.84,0,1,0,88.39,89.6a13.84,13.84,0,0,0,13.84,13.84"/><path id="Tracé_11676" data-name="Tracé 11676" class="cls-7" d="M102.23,103.44A13.84,13.84,0,1,0,88.39,89.6,13.84,13.84,0,0,0,102.23,103.44Z"/><rect id="Rectangle_4035" data-name="Rectangle 4035" class="cls-1" x="371.66" y="68.8" width="234.07" height="58.16"/><rect id="Rectangle_4036" data-name="Rectangle 4036" class="cls-2" x="365.72" y="60.05" width="228.96" height="59.1"/><rect id="Rectangle_4037" data-name="Rectangle 4037" class="cls-3" x="365.44" y="60.05" width="230.32" height="59.1"/><rect id="Rectangle_4038" data-name="Rectangle 4038" class="cls-4" x="363.35" y="57.68" width="237.64" height="69.27"/><path id="Tracé_11677" data-name="Tracé 11677" class="cls-6" d="M397.31,103.44A13.84,13.84,0,1,0,383.47,89.6a13.84,13.84,0,0,0,13.84,13.84"/><path id="Tracé_11678" data-name="Tracé 11678" class="cls-7" d="M397.31,103.44A13.84,13.84,0,1,0,383.47,89.6,13.84,13.84,0,0,0,397.31,103.44Z"/><g id="Groupe_3332" data-name="Groupe 3332"><path id="Tracé_11679" data-name="Tracé 11679" class="cls-5" d="M451.65,88.75a9.68,9.68,0,0,1-.66,3.72,7,7,0,0,1-1.88,2.63,8.19,8.19,0,0,1-3,1.56,13.69,13.69,0,0,1-3.93.52c-.66,0-1.44,0-2.32-.08a19.1,19.1,0,0,1-2.6-.35v-16a21.62,21.62,0,0,1,2.67-.32c.92-.06,1.71-.09,2.38-.09a14.5,14.5,0,0,1,3.82.48,7.84,7.84,0,0,1,3,1.49A6.46,6.46,0,0,1,451,84.94,9.72,9.72,0,0,1,451.65,88.75ZM441,94a5.47,5.47,0,0,0,.6,0l.82,0a5.49,5.49,0,0,0,4.11-1.4,5.36,5.36,0,0,0,1.34-3.86,4.64,4.64,0,0,0-3.92-5.25,4.76,4.76,0,0,0-1.41,0h-.78c-.26,0-.51,0-.76.06Z"/><path id="Tracé_11680" data-name="Tracé 11680" class="cls-5" d="M453.9,90.83a7.78,7.78,0,0,1,.51-2.9,6.25,6.25,0,0,1,1.34-2.07,5.55,5.55,0,0,1,1.91-1.25,5.76,5.76,0,0,1,2.21-.43,5.5,5.5,0,0,1,4.19,1.62,6.63,6.63,0,0,1,1.54,4.77c0,.21,0,.44,0,.68s0,.46-.05.65h-8a2.3,2.3,0,0,0,1,1.73,4.09,4.09,0,0,0,2.41.64,10.21,10.21,0,0,0,1.91-.18,7,7,0,0,0,1.53-.44l.47,2.87a4.93,4.93,0,0,1-.76.28,8,8,0,0,1-1.05.25c-.39.07-.8.13-1.25.18a11.67,11.67,0,0,1-1.32.07,7.93,7.93,0,0,1-2.93-.5,5.7,5.7,0,0,1-2.06-1.36,5.54,5.54,0,0,1-1.21-2A8.55,8.55,0,0,1,453.9,90.83Zm8.29-1.35a3.24,3.24,0,0,0-.15-.87,2.13,2.13,0,0,0-.4-.76,2.18,2.18,0,0,0-.69-.55,2.27,2.27,0,0,0-1-.21,2.38,2.38,0,0,0-1,.2,2.32,2.32,0,0,0-.71.53,2.57,2.57,0,0,0-.44.77,5.51,5.51,0,0,0-.22.89Z"/><path id="Tracé_11681" data-name="Tracé 11681" class="cls-5" d="M473.73,78.59a7.47,7.47,0,0,1,1.82.2,9.45,9.45,0,0,1,1.28.39L476.14,82a4.11,4.11,0,0,0-1-.32,5.07,5.07,0,0,0-1-.11,2.89,2.89,0,0,0-1.08.18,1.72,1.72,0,0,0-.68.48A2,2,0,0,0,472,83a3.56,3.56,0,0,0-.1.92v.62h4.35v2.93h-4.35V97h-3.53V83.85a4.85,4.85,0,0,1,4.37-5.28,5.07,5.07,0,0,1,1,0Z"/><path id="Tracé_11682" data-name="Tracé 11682" class="cls-5" d="M482.8,84.18a7.89,7.89,0,0,1,2.6.35,4.06,4.06,0,0,1,1.67,1,3.77,3.77,0,0,1,.89,1.61,7.92,7.92,0,0,1,.26,2.11v7.35c-.5.11-1.21.24-2.11.39a19.78,19.78,0,0,1-3.26.22,10.19,10.19,0,0,1-2.2-.21,4.74,4.74,0,0,1-1.69-.7,3.27,3.27,0,0,1-1.09-1.27,4.37,4.37,0,0,1-.38-1.92,3.58,3.58,0,0,1,.44-1.84,3.39,3.39,0,0,1,1.17-1.21,5.34,5.34,0,0,1,1.69-.65,9.18,9.18,0,0,1,2-.2,9.87,9.87,0,0,1,1.22.06,5,5,0,0,1,.86.15v-.33a2,2,0,0,0-.54-1.45,2.64,2.64,0,0,0-1.89-.54,11.75,11.75,0,0,0-1.78.13,7.18,7.18,0,0,0-1.52.37l-.45-2.84a6,6,0,0,1,.77-.2,9.09,9.09,0,0,1,1-.19c.36-.06.75-.1,1.15-.15S482.39,84.18,482.8,84.18Zm.28,10.32c.35,0,.68,0,1,0a6.34,6.34,0,0,0,.75-.07V91.73q-.21,0-.63-.09a7,7,0,0,0-.79,0,7.26,7.26,0,0,0-.93.06,2.53,2.53,0,0,0-.77.22,1.36,1.36,0,0,0-.52.46,1.44,1.44,0,0,0,.36,1.85A3,3,0,0,0,483.08,94.5Z"/><path id="Tracé_11683" data-name="Tracé 11683" class="cls-5" d="M502.05,96.54a19.9,19.9,0,0,1-2.32.49,18.51,18.51,0,0,1-3,.22,7.17,7.17,0,0,1-2.64-.42,4.09,4.09,0,0,1-1.67-1.2,4.68,4.68,0,0,1-.88-1.84,9.76,9.76,0,0,1-.26-2.34V84.51h3.53V91a5,5,0,0,0,.45,2.46,1.77,1.77,0,0,0,1.68.76,7.51,7.51,0,0,0,.8,0l.76-.08V84.51h3.53Z"/><path id="Tracé_11684" data-name="Tracé 11684" class="cls-5" d="M510.34,97.2a8.86,8.86,0,0,1-2.5-.33,3.74,3.74,0,0,1-1.51-.86,2.77,2.77,0,0,1-.76-1.35,7.23,7.23,0,0,1-.2-1.79V79.16l3.53-.57V92.16A4,4,0,0,0,509,93a1.51,1.51,0,0,0,.27.64,1.38,1.38,0,0,0,.58.43,3.26,3.26,0,0,0,1,.21Z"/><path id="Tracé_11685" data-name="Tracé 11685" class="cls-5" d="M512.74,81.41l3.53-.57v3.67h4.24v2.94h-4.24v4.38a3.4,3.4,0,0,0,.39,1.77,1.66,1.66,0,0,0,1.57.67,6.53,6.53,0,0,0,1.17-.11,5.11,5.11,0,0,0,1.1-.3l.5,2.75a11.17,11.17,0,0,1-1.42.45,8.23,8.23,0,0,1-1.92.19,6.52,6.52,0,0,1-2.39-.39,3.74,3.74,0,0,1-1.51-1.09,4,4,0,0,1-.8-1.7,10.14,10.14,0,0,1-.22-2.2Z"/></g><path id="Tracé_11686" data-name="Tracé 11686" class="cls-8" d="M397.27,99a9.42,9.42,0,1,0-9.22-9.62v.2A9.31,9.31,0,0,0,397.27,99"/><g id="Groupe_3334" data-name="Groupe 3334"><path id="Tracé_11687-2" data-name="Tracé 11687-2" class="cls-2" d="M422.69,108.9v-2.5H420.2v-2.49h-5v-2.49h-7.48v-2.5h-5V89h-2.5V86.46h-5V89h-2.49v22.44h-2.49V108.9H382.8v7.47h2.49v2.5h2.49v5h2.5v5h2.49v5h2.49v7.49H420.2v-7.49h2.49v-7.48h2.5V108.9Z"/><rect id="Rectangle_4039" data-name="Rectangle 4039" class="cls-9" x="392.78" y="88.95" width="2.49" height="29.92"/><rect id="Rectangle_4040" data-name="Rectangle 4040" class="cls-9" x="395.27" y="86.46" width="4.99" height="2.49"/><rect id="Rectangle_4041" data-name="Rectangle 4041" class="cls-9" x="400.26" y="88.95" width="2.49" height="22.44"/><rect id="Rectangle_4042" data-name="Rectangle 4042" class="cls-9" x="402.75" y="98.92" width="4.99" height="2.49"/><rect id="Rectangle_4043" data-name="Rectangle 4043" class="cls-9" x="407.74" y="103.91" width="2.49" height="7.48"/><rect id="Rectangle_4044" data-name="Rectangle 4044" class="cls-9" x="407.74" y="101.42" width="7.48" height="2.49"/><rect id="Rectangle_4045" data-name="Rectangle 4045" class="cls-9" x="415.22" y="106.4" width="2.49" height="7.48"/><rect id="Rectangle_4046" data-name="Rectangle 4046" class="cls-9" x="415.22" y="103.91" width="4.99" height="2.49"/><rect id="Rectangle_4047" data-name="Rectangle 4047" class="cls-9" x="420.21" y="106.4" width="2.49" height="2.49"/><rect id="Rectangle_4048" data-name="Rectangle 4048" class="cls-9" x="422.7" y="108.9" width="2.49" height="17.45"/><rect id="Rectangle_4049" data-name="Rectangle 4049" class="cls-9" x="420.21" y="126.35" width="2.49" height="7.48"/><rect id="Rectangle_4050" data-name="Rectangle 4050" class="cls-9" x="417.72" y="133.83" width="2.49" height="7.48"/><rect id="Rectangle_4051" data-name="Rectangle 4051" class="cls-9" x="395.27" y="138.82" width="22.44" height="2.49"/><rect id="Rectangle_4052" data-name="Rectangle 4052" class="cls-9" x="390.29" y="111.39" width="2.49" height="2.49"/><rect id="Rectangle_4053" data-name="Rectangle 4053" class="cls-9" x="382.81" y="108.9" width="7.48" height="2.49"/><rect id="Rectangle_4054" data-name="Rectangle 4054" class="cls-9" x="382.81" y="111.39" width="2.49" height="4.99"/><rect id="Rectangle_4055" data-name="Rectangle 4055" class="cls-9" x="385.3" y="116.38" width="2.49" height="2.49"/><rect id="Rectangle_4056" data-name="Rectangle 4056" class="cls-9" x="387.79" y="118.87" width="2.49" height="4.99"/><rect id="Rectangle_4057" data-name="Rectangle 4057" class="cls-9" x="390.29" y="123.86" width="2.49" height="4.99"/><rect id="Rectangle_4058" data-name="Rectangle 4058" class="cls-9" x="392.78" y="128.84" width="2.49" height="4.99"/><rect id="Rectangle_4059" data-name="Rectangle 4059" class="cls-9" x="395.27" y="133.83" width="2.49" height="4.99"/></g></svg>