<svg id="Calque_1" data-name="Calque 1" xmlns="http://www.w3.org/2000/svg" xmlns:xlink="http://www.w3.org/1999/xlink" viewBox="0 0 194.89 188.87"><defs><style>.cls-1,.cls-11,.cls-19,.cls-9{fill:none;}.cls-2{clip-path:url(#clip-path);}.cls-3{opacity:0.24;}.cls-4{clip-path:url(#clip-path-3);}.cls-20,.cls-5{fill:#121945;}.cls-20,.cls-21,.cls-6,.cls-7{isolation:isolate;}.cls-20,.cls-21,.cls-7{font-size:10px;font-family:Ubuntu-Regular, Ubuntu;}.cls-12,.cls-7{fill:#fdfdfd;}.cls-8{fill:#6d8ada;}.cls-9{stroke:#6b8ada;}.cls-10{fill:#d7d7d7;}.cls-11{stroke:#eeeffd;}.cls-13{opacity:0.4;}.cls-14{clip-path:url(#clip-path-12);}.cls-15{fill:#4666b2;}.cls-16{clip-path:url(#clip-path-14);}.cls-17{clip-path:url(#clip-path-16);}.cls-18,.cls-21{fill:#fff;}.cls-19{stroke:#fff;stroke-miterlimit:10;stroke-width:3px;}.cls-22{fill:#3e55ce;}.cls-23{fill:#384bb9;}.cls-24{fill:#384fd0;}.cls-25{fill:#f1f1f1;}.cls-26{opacity:0.38;}.cls-27{clip-path:url(#clip-path-74);}.cls-28{clip-path:url(#clip-path-77);}.cls-29{clip-path:url(#clip-path-83);}</style><clipPath id="clip-path" transform="translate(0.02)"><rect class="cls-1" width="229.96" height="188.84"/></clipPath><clipPath id="clip-path-3" transform="translate(0.02)"><rect class="cls-1" x="-9" y="171" width="149.53" height="18.84"/></clipPath><clipPath id="clip-path-12" transform="translate(0.02)"><rect class="cls-1" x="-5.45" y="52.9" width="103.67" height="43.09"/></clipPath><clipPath id="clip-path-14" transform="translate(0.02)"><rect class="cls-1" x="-5.45" y="108.03" width="103.67" height="43.09"/></clipPath><clipPath id="clip-path-16" transform="translate(0.02)"><rect class="cls-1" x="-5.45" y="-4.06" width="103.67" height="43.09"/></clipPath><clipPath id="clip-path-74" transform="translate(0.02)"><rect class="cls-1" x="39.01" y="108" width="57.78" height="32.37"/></clipPath><clipPath id="clip-path-77" transform="translate(0.02)"><rect class="cls-1" x="37.23" y="54.94" width="57.78" height="28.24"/></clipPath><clipPath id="clip-path-83" transform="translate(0.02)"><rect class="cls-1" x="40.46" y="-1.64" width="51.32" height="27.92"/></clipPath></defs><g id="DEPLOY_16.47.32-02" data-name="DEPLOY 16.47.32-02"><g class="cls-2"><g id="Groupe_2828" data-name="Groupe 2828"><g class="cls-2"><g id="Groupe_2827" data-name="Groupe 2827"><g id="Groupe_2826" data-name="Groupe 2826" class="cls-3"><g class="cls-4"><g id="Groupe_2825" data-name="Groupe 2825"><path id="Tracé_9878" data-name="Tracé 9878" class="cls-5" d="M131.53,188.63v-10.4H129.2v6.13c-.36-.54-.74-1.1-1.16-1.69s-.82-1.15-1.24-1.69-.82-1.06-1.22-1.54-.77-.88-1.1-1.21h-1.9v10.4h2.31v-6.81a36.26,36.26,0,0,1,2.49,3.28c.78,1.16,1.51,2.34,2.17,3.53h2Zm-11.29-7.55a5,5,0,0,0-1.11-1.7,4.9,4.9,0,0,0-1.65-1,5.93,5.93,0,0,0-2-.35,5.48,5.48,0,0,0-2,.35,4.52,4.52,0,0,0-1.65,1,5,5,0,0,0-1.13,1.7,6.11,6.11,0,0,0-.42,2.35,6.29,6.29,0,0,0,.4,2.35,4.65,4.65,0,0,0,1.11,1.69,4.44,4.44,0,0,0,1.65,1,6,6,0,0,0,4.06,0,4.48,4.48,0,0,0,1.64-1,4.82,4.82,0,0,0,1.09-1.69,7,7,0,0,0,0-4.7m-7.35,1a3.09,3.09,0,0,1,.54-1.07,2.31,2.31,0,0,1,.86-.69,2.87,2.87,0,0,1,2.33,0,2.42,2.42,0,0,1,.87.68,3.27,3.27,0,0,1,.54,1.07,5,5,0,0,1,.19,1.39,4.6,4.6,0,0,1-.19,1.38,3.54,3.54,0,0,1-.54,1.06,2.32,2.32,0,0,1-.87.68,3,3,0,0,1-2.33,0,2.39,2.39,0,0,1-.86-.68,3,3,0,0,1-.54-1.06,4.6,4.6,0,0,1-.19-1.38,5.33,5.33,0,0,1,.19-1.37m-6.9,6.54h2.34v-10.4H106ZM95.87,178.24v2H99v8.4h2.34v-8.4h3.14v-2ZM93.56,188.6a5.8,5.8,0,0,0,1.4-.54l-.65-1.88c-.13.06-.28.12-.43.2a5.1,5.1,0,0,1-.55.19c-.21.05-.45.1-.72.14a7,7,0,0,1-.91.06,3.45,3.45,0,0,1-1.38-.26,2.38,2.38,0,0,1-.92-.71,2.86,2.86,0,0,1-.51-1.07,5.52,5.52,0,0,1-.16-1.34,4.42,4.42,0,0,1,.24-1.53,3,3,0,0,1,.64-1,2.36,2.36,0,0,1,.91-.58,3.19,3.19,0,0,1,1.06-.18,5.06,5.06,0,0,1,1.45.18,6.32,6.32,0,0,1,1.12.43l.67-1.89-.39-.21a4.22,4.22,0,0,0-.67-.26,8.52,8.52,0,0,0-1-.23,6.94,6.94,0,0,0-1.2-.1,5.86,5.86,0,0,0-2.11.36,4.7,4.7,0,0,0-1.68,1.06,5.1,5.1,0,0,0-1.11,1.71,6.2,6.2,0,0,0-.41,2.3,5.6,5.6,0,0,0,1.33,4,5,5,0,0,0,3.86,1.41,8,8,0,0,0,2.07-.24m-11.44-.06a3.56,3.56,0,0,0,1.34-.85,3.37,3.37,0,0,0,.78-1.31,5.31,5.31,0,0,0,.26-1.68v-6.46H82.18v6.27a2.52,2.52,0,0,1-.53,1.79,1.89,1.89,0,0,1-1.39.52,2.53,2.53,0,0,1-.77-.12,1.44,1.44,0,0,1-.6-.4,2,2,0,0,1-.39-.72,3.54,3.54,0,0,1-.14-1.07v-6.27H76v6.46a5.24,5.24,0,0,0,.25,1.67A3.47,3.47,0,0,0,77,187.7a3.53,3.53,0,0,0,1.31.85,5.07,5.07,0,0,0,1.89.31,5.56,5.56,0,0,0,1.9-.3M73.74,181a4.19,4.19,0,0,0-1.2-1.65,5.08,5.08,0,0,0-1.87-.94,9,9,0,0,0-2.42-.3c-.42,0-.92,0-1.51.05a13.67,13.67,0,0,0-1.69.2v10.12a13.08,13.08,0,0,0,1.65.22h1.47a8.74,8.74,0,0,0,2.49-.33,5,5,0,0,0,1.88-1,4.49,4.49,0,0,0,1.19-1.67,7,7,0,0,0,0-4.76m-6.34-.85h1a2.94,2.94,0,0,1,3.38,3.32,3.38,3.38,0,0,1-.85,2.45,3.46,3.46,0,0,1-2.6.89h-.9Zm-4.7.92a5,5,0,0,0-1.11-1.7,4.9,4.9,0,0,0-1.65-1,5.89,5.89,0,0,0-4,0,4.9,4.9,0,0,0-1.65,1,5,5,0,0,0-1.13,1.7,6.11,6.11,0,0,0-.42,2.35,6.29,6.29,0,0,0,.4,2.35,4.65,4.65,0,0,0,1.11,1.69,4.44,4.44,0,0,0,1.65,1,6,6,0,0,0,4.06,0,4.48,4.48,0,0,0,1.64-1,4.82,4.82,0,0,0,1.09-1.69,6.49,6.49,0,0,0,.4-2.35,6.29,6.29,0,0,0-.41-2.35m-7.34,1a3.09,3.09,0,0,1,.54-1.07,2.31,2.31,0,0,1,.86-.69,2.87,2.87,0,0,1,2.33,0,2.42,2.42,0,0,1,.87.68,3.27,3.27,0,0,1,.54,1.07,4.67,4.67,0,0,1,.19,1.39,4.6,4.6,0,0,1-.19,1.38,3.32,3.32,0,0,1-.54,1.06,2.32,2.32,0,0,1-.87.68,3,3,0,0,1-2.33,0,2.39,2.39,0,0,1-.86-.68,3,3,0,0,1-.54-1.06,4.94,4.94,0,0,1-.19-1.38,4.54,4.54,0,0,1,.19-1.37m-7-1.62a1.15,1.15,0,0,1,.58,1.09,1.18,1.18,0,0,1-.57,1.12,4.07,4.07,0,0,1-1.89.33h-.66v-2.81h.84a3.43,3.43,0,0,1,1.7.33M45,178.23a13.94,13.94,0,0,0-1.58.21v10.24h2.34v-3.8H47c.2.24.4.51.6.8l.61.94c.21.33.41.67.6,1l.58,1H52c-.18-.38-.38-.77-.59-1.16s-.43-.77-.65-1.14-.45-.71-.68-1-.45-.63-.66-.89a3.32,3.32,0,0,0,1.48-1,3,3,0,0,0,.5-1.78A2.92,2.92,0,0,0,50.14,179a6.44,6.44,0,0,0-3.59-.83,11.88,11.88,0,0,0-1.46.06m-7,2a1.81,1.81,0,0,1,.71.24,1.17,1.17,0,0,1,.45.46,1.49,1.49,0,0,1,.16.72,1.28,1.28,0,0,1-.61,1.23,4,4,0,0,1-1.83.33h-.74v-3h.93a5.82,5.82,0,0,1,.93.07m-2.58-2a15,15,0,0,0-1.62.21v10.24h2.34v-3.48H37a6.58,6.58,0,0,0,3.6-.83,3.53,3.53,0,0,0,.42-5,4.16,4.16,0,0,0-.42-.42A6.55,6.55,0,0,0,37,178.2a10.91,10.91,0,0,0-1.51.07m-7.54,7h4.32v-2H28Zm-.9,3.46v-2H22v-2.57h4.15v-1.92H22v-2h4.68v-2h-7v10.4H27Zm-12.49-8.19a1.16,1.16,0,0,1,.58,1.09,1.18,1.18,0,0,1-.57,1.12,4.07,4.07,0,0,1-1.89.33H12v-2.92h.84a3.55,3.55,0,0,1,1.7.33m-3.3-2.26a13.94,13.94,0,0,0-1.58.21v10.24H12v-3.8h1.15c.2.24.4.51.6.8l.61.94c.21.33.41.67.6,1l.58,1h2.62c-.18-.38-.38-.77-.58-1.16s-.43-.77-.65-1.14-.45-.71-.68-1-.45-.63-.66-.89a3.35,3.35,0,0,0,1.47-1,3,3,0,0,0,.5-1.78A2.91,2.91,0,0,0,16.3,179a6.4,6.4,0,0,0-3.58-.83,12.21,12.21,0,0,0-1.48.06m-7,2a1.81,1.81,0,0,1,.71.24,1.24,1.24,0,0,1,.45.46,1.38,1.38,0,0,1,.16.72,1.27,1.27,0,0,1-.62,1.23,4,4,0,0,1-1.83.33H2.38v-3h.93a5.82,5.82,0,0,1,.93.07m-2.58-2a11.83,11.83,0,0,0-1.68.09V188.6H2.32v-3.48h.73a6.58,6.58,0,0,0,3.6-.83,3.52,3.52,0,0,0,.43-5,2.91,2.91,0,0,0-.43-.43,6.55,6.55,0,0,0-3.57-.82,12.29,12.29,0,0,0-1.49.07" transform="translate(0.02)"/></g></g></g></g></g></g></g><g class="cls-2"><g id="Groupe_2829" data-name="Groupe 2829"><g id="Manual" class="cls-6"><text class="cls-7" transform="translate(160.82 79.24)">Manual</text></g></g></g><g class="cls-2"><g id="Groupe_2844" data-name="Groupe 2844"><g class="cls-2"><g id="Groupe_2830" data-name="Groupe 2830"><path id="Tracé_9879" data-name="Tracé 9879" class="cls-8" d="M116.78,67a9.64,9.64,0,0,0,0,19.28h22.34a9.64,9.64,0,0,0,0-19.28Z" transform="translate(0.02)"/></g></g><g class="cls-2"><g id="Groupe_2831" data-name="Groupe 2831"><path id="Tracé_9880" data-name="Tracé 9880" class="cls-9" d="M116.78,67a9.64,9.64,0,0,0,0,19.28h22.34a9.64,9.64,0,0,0,0-19.28Z" transform="translate(0.02)"/></g></g><g class="cls-2"><g id="Groupe_2832" data-name="Groupe 2832"><path id="Tracé_9881" data-name="Tracé 9881" class="cls-10" d="M116.07,65.73a9.64,9.64,0,0,0,0,19.28H138.4a9.64,9.64,0,0,0,0-19.28Z" transform="translate(0.02)"/></g></g><g class="cls-2"><g id="Groupe_2833" data-name="Groupe 2833"><path id="Tracé_9882" data-name="Tracé 9882" class="cls-11" d="M116.07,65.73a9.64,9.64,0,0,0,0,19.28H138.4a9.64,9.64,0,0,0,0-19.28Z" transform="translate(0.02)"/></g></g><g class="cls-2"><g id="Groupe_2834" data-name="Groupe 2834"><path id="Tracé_9883" data-name="Tracé 9883" class="cls-12" d="M117.09,83A7.6,7.6,0,1,0,109,75.36a7.86,7.86,0,0,0,8.12,7.58" transform="translate(0.02)"/></g></g><g class="cls-2"><g id="Groupe_2837" data-name="Groupe 2837"><g id="Groupe_2836" data-name="Groupe 2836" class="cls-13"><g class="cls-14"><g id="Groupe_2835" data-name="Groupe 2835"><rect id="Rectangle_3649" data-name="Rectangle 3649" class="cls-15" x="3.57" y="59.9" width="85.67" height="35.09"/></g></g></g></g></g><g class="cls-2"><g id="Groupe_2840" data-name="Groupe 2840"><g id="Groupe_2839" data-name="Groupe 2839" class="cls-13"><g class="cls-16"><g id="Groupe_2838" data-name="Groupe 2838"><rect id="Rectangle_3652" data-name="Rectangle 3652" class="cls-15" x="3.57" y="115.03" width="85.67" height="35.09"/></g></g></g></g></g><g class="cls-2"><g id="Groupe_2843" data-name="Groupe 2843"><g id="Groupe_2842" data-name="Groupe 2842" class="cls-13"><g class="cls-17"><g id="Groupe_2841" data-name="Groupe 2841"><rect id="Rectangle_3655" data-name="Rectangle 3655" class="cls-15" x="3.57" y="2.94" width="85.67" height="35.09"/></g></g></g></g></g></g></g><g class="cls-2"><g id="Groupe_2845" data-name="Groupe 2845"><rect id="Rectangle_3659" data-name="Rectangle 3659" class="cls-18" x="2.44" y="58.47" width="84.54" height="33.18"/></g></g><g class="cls-2"><g id="Groupe_2847" data-name="Groupe 2847"><g class="cls-2"><g id="Groupe_2846" data-name="Groupe 2846"><rect id="Rectangle_3661" data-name="Rectangle 3661" class="cls-19" x="2.44" y="58.47" width="84.54" height="33.18"/></g></g></g></g><g class="cls-2"><g id="Groupe_2848" data-name="Groupe 2848"><rect id="Rectangle_3664" data-name="Rectangle 3664" class="cls-18" x="2.44" y="113.6" width="84.54" height="33.18"/></g></g><g class="cls-2"><g id="Groupe_2850" data-name="Groupe 2850"><g class="cls-2"><g id="Groupe_2849" data-name="Groupe 2849"><rect id="Rectangle_3666" data-name="Rectangle 3666" class="cls-19" x="2.44" y="113.6" width="84.54" height="33.18"/></g></g></g></g><g class="cls-2"><g id="Groupe_2851" data-name="Groupe 2851"><rect id="Rectangle_3669" data-name="Rectangle 3669" class="cls-18" x="2.44" y="1.5" width="84.54" height="33.18"/></g></g><g class="cls-2"><g id="Groupe_2853" data-name="Groupe 2853"><g class="cls-2"><g id="Groupe_2852" data-name="Groupe 2852"><rect id="Rectangle_3671" data-name="Rectangle 3671" class="cls-19" x="2.44" y="1.5" width="84.54" height="33.18"/></g></g></g></g><g class="cls-2"><g id="Groupe_2855" data-name="Groupe 2855"><g id="Groupe_2854" data-name="Groupe 2854"><g id="A" class="cls-6"><text class="cls-20" transform="translate(161.31 19.7)">A</text></g><g id="u" class="cls-6"><text class="cls-20" transform="translate(167.8 19.7)">u</text></g><g id="t" class="cls-6"><text class="cls-20" transform="translate(173.54 19.7)">t</text></g><g id="o" class="cls-6"><text class="cls-20" transform="translate(177.42 19.7)">o</text></g></g></g></g><g class="cls-2"><g id="Groupe_2856" data-name="Groupe 2856"><g id="Manual-2" class="cls-6"><text class="cls-21" transform="translate(105.95 136.24)">Manual</text></g></g></g><g class="cls-2"><g id="Groupe_2897" data-name="Groupe 2897"><g class="cls-2"><g id="Groupe_2857" data-name="Groupe 2857"><path id="Tracé_9884" data-name="Tracé 9884" class="cls-5" d="M28.17,79.28h-1v-1a.32.32,0,0,0-.32-.32H26.2a.33.33,0,0,0-.33.32v1H25a.32.32,0,0,0-.32.32h0v.65a.32.32,0,0,0,.32.32h1v1a.32.32,0,0,0,.32.32H27a.32.32,0,0,0,.32-.32h0v-1h1a.32.32,0,0,0,.32-.32h0v-.65a.32.32,0,0,0-.31-.33h0" transform="translate(0.02)"/></g></g><g class="cls-2"><g id="Groupe_2858" data-name="Groupe 2858"><path id="Tracé_9885" data-name="Tracé 9885" class="cls-5" d="M19.35,75.61H14.18a1.72,1.72,0,0,0-1.72,1.72v5.21a1.73,1.73,0,0,0,1.72,1.73h5.17a1.72,1.72,0,0,0,1.72-1.72h0V77.36a1.72,1.72,0,0,0-1.71-1.73h0" transform="translate(0.02)"/></g></g><g class="cls-2"><g id="Groupe_2859" data-name="Groupe 2859"><path id="Tracé_9886" data-name="Tracé 9886" class="cls-22" d="M18.83,76.47H14.69a1.38,1.38,0,0,0-1.38,1.38h0V82a1.39,1.39,0,0,0,1.38,1.36h4.14A1.38,1.38,0,0,0,20.21,82h0V77.83a1.38,1.38,0,0,0-1.38-1.38h0" transform="translate(0.02)"/></g></g><g class="cls-2"><g id="Groupe_2860" data-name="Groupe 2860"><path id="Tracé_9887" data-name="Tracé 9887" class="cls-23" d="M20.21,78.87a10.65,10.65,0,0,0-6.32,4.26,1.45,1.45,0,0,0,.78.26h4.14A1.38,1.38,0,0,0,20.19,82h0V78.87Z" transform="translate(0.02)"/></g></g><g class="cls-2"><g id="Groupe_2861" data-name="Groupe 2861"><path id="Tracé_9888" data-name="Tracé 9888" class="cls-5" d="M19.35,65.88H14.18a1.73,1.73,0,0,0-1.72,1.73v5.18a1.73,1.73,0,0,0,1.72,1.73h5.17a1.73,1.73,0,0,0,1.72-1.73V67.61a1.72,1.72,0,0,0-1.71-1.73h0" transform="translate(0.02)"/></g></g><g class="cls-2"><g id="Groupe_2862" data-name="Groupe 2862"><path id="Tracé_9889" data-name="Tracé 9889" class="cls-22" d="M18.83,66.74H14.69a1.38,1.38,0,0,0-1.38,1.38h0v4.15a1.38,1.38,0,0,0,1.38,1.38h4.14a1.38,1.38,0,0,0,1.38-1.38h0V68.12a1.38,1.38,0,0,0-1.38-1.38h0" transform="translate(0.02)"/></g></g><g class="cls-2"><g id="Groupe_2863" data-name="Groupe 2863"><path id="Tracé_9890" data-name="Tracé 9890" class="cls-23" d="M20.21,69.14a10.62,10.62,0,0,0-6.32,4.22,1.31,1.31,0,0,0,.78.26h4.14a1.38,1.38,0,0,0,1.38-1.38h0V69.1Z" transform="translate(0.02)"/></g></g><g class="cls-2"><g id="Groupe_2864" data-name="Groupe 2864"><path id="Tracé_9891" data-name="Tracé 9891" class="cls-5" d="M29.13,65.88H24a1.73,1.73,0,0,0-1.72,1.73v5.18A1.73,1.73,0,0,0,24,74.52h5.17a1.73,1.73,0,0,0,1.72-1.73V67.61a1.72,1.72,0,0,0-1.71-1.73h0" transform="translate(0.02)"/></g></g><g class="cls-2"><g id="Groupe_2865" data-name="Groupe 2865"><path id="Tracé_9892" data-name="Tracé 9892" class="cls-22" d="M28.62,66.74H24.48a1.38,1.38,0,0,0-1.38,1.38h0v4.15a1.38,1.38,0,0,0,1.38,1.38h4.14A1.39,1.39,0,0,0,30,72.27V68.12a1.38,1.38,0,0,0-1.38-1.38h0" transform="translate(0.02)"/></g></g><g class="cls-2"><g id="Groupe_2866" data-name="Groupe 2866"><path id="Tracé_9893" data-name="Tracé 9893" class="cls-23" d="M30,69.14a10.62,10.62,0,0,0-6.3,4.22,1.31,1.31,0,0,0,.78.26H28.6A1.38,1.38,0,0,0,30,72.27Z" transform="translate(0.02)"/></g></g><g class="cls-2"><g id="Groupe_2867" data-name="Groupe 2867"><path id="Tracé_9894" data-name="Tracé 9894" class="cls-5" d="M28.17,134.36h-1v-1a.32.32,0,0,0-.32-.32H26.2a.33.33,0,0,0-.33.32v1H25a.32.32,0,0,0-.32.32h0v.68a.32.32,0,0,0,.31.33h1v1a.32.32,0,0,0,.32.32H27a.32.32,0,0,0,.32-.32h0v-1h1a.32.32,0,0,0,.32-.32h0v-.65a.32.32,0,0,0-.32-.32h0" transform="translate(0.02)"/></g></g><g class="cls-2"><g id="Groupe_2868" data-name="Groupe 2868"><path id="Tracé_9895" data-name="Tracé 9895" class="cls-5" d="M19.35,130.73H14.18a1.72,1.72,0,0,0-1.72,1.72h0v5.18a1.73,1.73,0,0,0,1.72,1.72h5.17a1.72,1.72,0,0,0,1.72-1.72h0v-5.17a1.73,1.73,0,0,0-1.72-1.73" transform="translate(0.02)"/></g></g><g class="cls-2"><g id="Groupe_2869" data-name="Groupe 2869"><path id="Tracé_9896" data-name="Tracé 9896" class="cls-22" d="M18.83,131.59H14.69A1.38,1.38,0,0,0,13.31,133h0v4.15a1.38,1.38,0,0,0,1.38,1.38h4.14a1.38,1.38,0,0,0,1.38-1.38h0V133a1.38,1.38,0,0,0-1.38-1.38h0" transform="translate(0.02)"/></g></g><g class="cls-2"><g id="Groupe_2870" data-name="Groupe 2870"><path id="Tracé_9897" data-name="Tracé 9897" class="cls-23" d="M20.21,134a10.65,10.65,0,0,0-6.32,4.26,1.31,1.31,0,0,0,.78.26h4.14a1.38,1.38,0,0,0,1.38-1.38h0V134Z" transform="translate(0.02)"/></g></g><g class="cls-2"><g id="Groupe_2871" data-name="Groupe 2871"><path id="Tracé_9898" data-name="Tracé 9898" class="cls-5" d="M19.35,121H14.18a1.72,1.72,0,0,0-1.72,1.72h0v5.18a1.73,1.73,0,0,0,1.72,1.73h5.17a1.72,1.72,0,0,0,1.72-1.72h0v-5.18A1.73,1.73,0,0,0,19.35,121" transform="translate(0.02)"/></g></g><g class="cls-2"><g id="Groupe_2872" data-name="Groupe 2872"><path id="Tracé_9899" data-name="Tracé 9899" class="cls-22" d="M18.83,121.86H14.69a1.38,1.38,0,0,0-1.38,1.38h0v4.12a1.38,1.38,0,0,0,1.38,1.38h4.14a1.38,1.38,0,0,0,1.38-1.38h0v-4.15a1.38,1.38,0,0,0-1.38-1.38h0" transform="translate(0.02)"/></g></g><g class="cls-2"><g id="Groupe_2873" data-name="Groupe 2873"><path id="Tracé_9900" data-name="Tracé 9900" class="cls-23" d="M20.21,124.27a10.65,10.65,0,0,0-6.32,4.26,1.45,1.45,0,0,0,.78.26h4.14a1.38,1.38,0,0,0,1.38-1.38h0v-3.14Z" transform="translate(0.02)"/></g></g><g class="cls-2"><g id="Groupe_2874" data-name="Groupe 2874"><path id="Tracé_9901" data-name="Tracé 9901" class="cls-5" d="M29.13,121H24a1.72,1.72,0,0,0-1.72,1.72h0v5.18A1.73,1.73,0,0,0,24,129.64h5.17a1.72,1.72,0,0,0,1.72-1.72h0v-5.18A1.73,1.73,0,0,0,29.15,121" transform="translate(0.02)"/></g></g><g class="cls-2"><g id="Groupe_2875" data-name="Groupe 2875"><path id="Tracé_9902" data-name="Tracé 9902" class="cls-22" d="M28.62,121.86H24.48a1.38,1.38,0,0,0-1.38,1.38h0v4.12a1.38,1.38,0,0,0,1.38,1.38h4.14A1.39,1.39,0,0,0,30,127.36v-4.15a1.38,1.38,0,0,0-1.38-1.38h0" transform="translate(0.02)"/></g></g><g class="cls-2"><g id="Groupe_2876" data-name="Groupe 2876"><path id="Tracé_9903" data-name="Tracé 9903" class="cls-23" d="M30,124.27a10.65,10.65,0,0,0-6.32,4.26,1.45,1.45,0,0,0,.78.26h4.14a1.38,1.38,0,0,0,1.4-1.36v-3.16Z" transform="translate(0.02)"/></g></g><g class="cls-2"><g id="Groupe_2877" data-name="Groupe 2877"><path id="Tracé_9904" data-name="Tracé 9904" class="cls-5" d="M28.17,22.36h-1v-1a.32.32,0,0,0-.32-.32H26.2a.33.33,0,0,0-.33.32v1H25a.32.32,0,0,0-.32.32h0v.65a.32.32,0,0,0,.32.32h1v1a.32.32,0,0,0,.32.32H27a.32.32,0,0,0,.32-.32v-1h1a.32.32,0,0,0,.32-.32v-.65a.32.32,0,0,0-.31-.33h0" transform="translate(0.02)"/></g></g><g class="cls-2"><g id="Groupe_2878" data-name="Groupe 2878"><path id="Tracé_9905" data-name="Tracé 9905" class="cls-5" d="M19.35,18.64H14.18a1.73,1.73,0,0,0-1.72,1.72v5.18a1.73,1.73,0,0,0,1.72,1.73h5.17a1.73,1.73,0,0,0,1.72-1.73V20.36a1.73,1.73,0,0,0-1.72-1.73" transform="translate(0.02)"/></g></g><g class="cls-2"><g id="Groupe_2879" data-name="Groupe 2879"><path id="Tracé_9906" data-name="Tracé 9906" class="cls-22" d="M18.83,19.5H14.69a1.38,1.38,0,0,0-1.38,1.38V25a1.38,1.38,0,0,0,1.38,1.38h4.14A1.38,1.38,0,0,0,20.21,25V20.88a1.38,1.38,0,0,0-1.38-1.38" transform="translate(0.02)"/></g></g><g class="cls-2"><g id="Groupe_2880" data-name="Groupe 2880"><path id="Tracé_9907" data-name="Tracé 9907" class="cls-23" d="M20.21,21.91a10.65,10.65,0,0,0-6.32,4.26,1.31,1.31,0,0,0,.78.26h4.14a1.38,1.38,0,0,0,1.38-1.38h0V21.91Z" transform="translate(0.02)"/></g></g><g class="cls-2"><g id="Groupe_2881" data-name="Groupe 2881"><path id="Tracé_9908" data-name="Tracé 9908" class="cls-5" d="M19.35,8.91H14.18a1.73,1.73,0,0,0-1.72,1.73v5.18a1.73,1.73,0,0,0,1.72,1.73h5.17a1.73,1.73,0,0,0,1.72-1.73V10.64a1.73,1.73,0,0,0-1.72-1.73" transform="translate(0.02)"/></g></g><g class="cls-2"><g id="Groupe_2882" data-name="Groupe 2882"><path id="Tracé_9909" data-name="Tracé 9909" class="cls-22" d="M18.83,9.77H14.69a1.38,1.38,0,0,0-1.38,1.38V15.3a1.38,1.38,0,0,0,1.38,1.38h4.14a1.38,1.38,0,0,0,1.38-1.38V11.15a1.38,1.38,0,0,0-1.38-1.38" transform="translate(0.02)"/></g></g><g class="cls-2"><g id="Groupe_2883" data-name="Groupe 2883"><path id="Tracé_9910" data-name="Tracé 9910" class="cls-23" d="M20.21,12.18a10.65,10.65,0,0,0-6.32,4.26,1.31,1.31,0,0,0,.78.26h4.14a1.37,1.37,0,0,0,1.38-1.34V12.18Z" transform="translate(0.02)"/></g></g><g class="cls-2"><g id="Groupe_2884" data-name="Groupe 2884"><path id="Tracé_9911" data-name="Tracé 9911" class="cls-5" d="M29.13,8.91H24a1.73,1.73,0,0,0-1.72,1.73v5.18A1.73,1.73,0,0,0,24,17.55h5.17a1.73,1.73,0,0,0,1.72-1.73V10.64a1.73,1.73,0,0,0-1.72-1.73" transform="translate(0.02)"/></g></g><g class="cls-2"><g id="Groupe_2885" data-name="Groupe 2885"><path id="Tracé_9912" data-name="Tracé 9912" class="cls-22" d="M28.62,9.77H24.48a1.38,1.38,0,0,0-1.38,1.38V15.3a1.38,1.38,0,0,0,1.38,1.38h4.14A1.39,1.39,0,0,0,30,15.3V11.15A1.38,1.38,0,0,0,28.6,9.77" transform="translate(0.02)"/></g></g><g class="cls-2"><g id="Groupe_2886" data-name="Groupe 2886"><path id="Tracé_9913" data-name="Tracé 9913" class="cls-23" d="M30,12.18a10.65,10.65,0,0,0-6.32,4.26,1.31,1.31,0,0,0,.78.26h4.14A1.39,1.39,0,0,0,30,15.36Z" transform="translate(0.02)"/></g></g><g class="cls-2"><g id="Groupe_2887" data-name="Groupe 2887"><path id="Tracé_9914" data-name="Tracé 9914" class="cls-8" d="M116.07,6.82a9.64,9.64,0,0,0,0,19.28H138.4a9.64,9.64,0,0,0,0-19.28Z" transform="translate(0.02)"/></g></g><g class="cls-2"><g id="Groupe_2888" data-name="Groupe 2888"><path id="Tracé_9915" data-name="Tracé 9915" class="cls-9" d="M116.07,6.82a9.64,9.64,0,0,0,0,19.28H138.4a9.64,9.64,0,0,0,0-19.28Z" transform="translate(0.02)"/></g></g><g class="cls-2"><g id="Groupe_2889" data-name="Groupe 2889"><path id="Tracé_9916" data-name="Tracé 9916" class="cls-8" d="M184.73,142a9.64,9.64,0,1,0,0-19.28H162.4a9.64,9.64,0,0,0,0,19.28h22.34Z" transform="translate(0.02)"/></g></g><g class="cls-2"><g id="Groupe_2890" data-name="Groupe 2890"><path id="Tracé_9917" data-name="Tracé 9917" class="cls-9" d="M184.73,142a9.64,9.64,0,1,0,0-19.28H162.4a9.64,9.64,0,0,0,0,19.28h22.34Z" transform="translate(0.02)"/></g></g><g class="cls-2"><g id="Groupe_2891" data-name="Groupe 2891"><path id="Tracé_9918" data-name="Tracé 9918" class="cls-24" d="M115.36,5.5a9.64,9.64,0,0,0,0,19.28h22.34a9.64,9.64,0,1,0,0-19.28Z" transform="translate(0.02)"/></g></g><g class="cls-2"><g id="Groupe_2892" data-name="Groupe 2892"><path id="Tracé_9919" data-name="Tracé 9919" class="cls-11" d="M115.36,5.5a9.64,9.64,0,0,0,0,19.28h22.34a9.64,9.64,0,1,0,0-19.28Z" transform="translate(0.02)"/></g></g><g class="cls-2"><g id="Groupe_2893" data-name="Groupe 2893"><path id="Tracé_9920" data-name="Tracé 9920" class="cls-10" d="M184,140.48a9.64,9.64,0,1,0,0-19.28H161.69a9.64,9.64,0,0,0,0,19.28H184Z" transform="translate(0.02)"/></g></g><g class="cls-2"><g id="Groupe_2894" data-name="Groupe 2894"><path id="Tracé_9921" data-name="Tracé 9921" class="cls-11" d="M184,140.48a9.64,9.64,0,1,0,0-19.28H161.69a9.64,9.64,0,0,0,0,19.28H184Z" transform="translate(0.02)"/></g></g><g class="cls-2"><g id="Groupe_2895" data-name="Groupe 2895"><path id="Tracé_9922" data-name="Tracé 9922" class="cls-12" d="M136.35,22.73a7.6,7.6,0,1,0-8.12-7.58,7.86,7.86,0,0,0,8.12,7.58" transform="translate(0.02)"/></g></g><g class="cls-2"><g id="Groupe_2896" data-name="Groupe 2896"><path id="Tracé_9923" data-name="Tracé 9923" class="cls-12" d="M163,123.26a7.6,7.6,0,1,0,8.12,7.58,7.86,7.86,0,0,0-8.12-7.58" transform="translate(0.02)"/></g></g></g></g><g class="cls-2"><g id="Groupe_2898" data-name="Groupe 2898"><rect id="Rectangle_3717" data-name="Rectangle 3717" class="cls-25" x="45.87" y="56.97" width="42.61" height="36.18"/></g></g><g class="cls-2"><g id="Groupe_2899" data-name="Groupe 2899"><rect id="Rectangle_3719" data-name="Rectangle 3719" class="cls-25" x="45.87" width="42.61" height="36.18"/></g></g><g class="cls-2"><g id="Groupe_2900" data-name="Groupe 2900"><rect id="Rectangle_3721" data-name="Rectangle 3721" class="cls-25" x="47.56" y="112.1" width="40.93" height="36.18"/></g></g><g class="cls-2"><g id="Groupe_2918" data-name="Groupe 2918"><g class="cls-2"><g id="Groupe_2904" data-name="Groupe 2904"><g id="Groupe_2903" data-name="Groupe 2903" class="cls-26"><g class="cls-27"><g id="Groupe_2901" data-name="Groupe 2901"><path id="Tracé_9924" data-name="Tracé 9924" class="cls-5" d="M67,138.36l5.61-1h0l-2.89-3.42-2.88-3.44s3-8.19,3-8.23,2,3.48,4.91,8.46l4.94,8.54v.07H61.45Z" transform="translate(0.02)"/></g></g><g class="cls-27"><g id="Groupe_2902" data-name="Groupe 2902"><path id="Tracé_9925" data-name="Tracé 9925" class="cls-5" d="M56,137.36l3-5.23,3-5.22,3.52-3c1.93-1.63,3.52-3,3.53-3a.35.35,0,0,1-.06.14l-3.75,8.26-3.75,8H56" transform="translate(0.02)"/></g></g></g></g></g><g class="cls-2"><g id="Groupe_2911" data-name="Groupe 2911"><g id="Groupe_2910" data-name="Groupe 2910" class="cls-26"><g class="cls-28"><g id="Groupe_2905" data-name="Groupe 2905"><path id="Tracé_9926" data-name="Tracé 9926" class="cls-5" d="M59.62,72.14v.33a2.71,2.71,0,0,1-.08.69,1.26,1.26,0,0,1-.27.51,1.76,1.76,0,0,1-.75.51,2.46,2.46,0,0,1-.81.14,1.17,1.17,0,0,1-1.12-1.22h0a1.13,1.13,0,0,1,.39-.82A1.84,1.84,0,0,1,58.16,72a7.2,7.2,0,0,1,1.46.18Zm-.92-1.06a5.93,5.93,0,0,0-.84-.06,2.84,2.84,0,0,0-1.94.62,2.24,2.24,0,0,0-.13,3.15,2.15,2.15,0,0,0,1.58.57,2.93,2.93,0,0,0,2.33-1.09l.24.47a2.06,2.06,0,0,0,.29.37.32.32,0,0,0,.24.11.38.38,0,0,0,.21-.07l.5-.33a.33.33,0,0,0,.15-.24.28.28,0,0,0,0-.18,3.64,3.64,0,0,1-.25-.57,2.82,2.82,0,0,1-.09-.71h0V70.55a2.59,2.59,0,0,0-.66-2A2.83,2.83,0,0,0,58.26,68a5.11,5.11,0,0,0-1.23.15,4.42,4.42,0,0,0-1,.36.62.62,0,0,0-.22.17.54.54,0,0,0-.05.28v.44c0,.17.05.25.17.25h.13l.28-.1a6.59,6.59,0,0,1,.86-.27,3.47,3.47,0,0,1,.85-.1,1.81,1.81,0,0,1,1.29.36,1.76,1.76,0,0,1,.37,1.27v.58a6,6,0,0,0-.94-.2" transform="translate(0.02)"/></g></g><g class="cls-28"><g id="Groupe_2906" data-name="Groupe 2906"><path id="Tracé_9927" data-name="Tracé 9927" class="cls-5" d="M63.59,74.79a.63.63,0,0,0,.17.31.46.46,0,0,0,.3.08h.68a.53.53,0,0,0,.32-.08.63.63,0,0,0,.15-.32l1.22-5.1,1.23,5.11a.63.63,0,0,0,.15.32.51.51,0,0,0,.32.08h.68a.46.46,0,0,0,.3-.08.73.73,0,0,0,.17-.31l1.91-6.12a.66.66,0,0,0,.06-.2v-.13a.18.18,0,0,0-.15-.2h-.79a.48.48,0,0,0-.31.08.71.71,0,0,0-.16.31l-1.37,5.31-1.25-5.31a.4.4,0,0,0-.4-.4h-.7a.53.53,0,0,0-.32.08.6.6,0,0,0-.15.31l-1.23,5.24-1.33-5.24a.62.62,0,0,0-.16-.31.48.48,0,0,0-.31-.08h-.78a.17.17,0,0,0-.19.15h0a1.65,1.65,0,0,0,.07.32Z" transform="translate(0.02)"/></g></g><g class="cls-28"><g id="Groupe_2907" data-name="Groupe 2907"><path id="Tracé_9928" data-name="Tracé 9928" class="cls-5" d="M72.09,74.93a3.65,3.65,0,0,0,.91.32,5,5,0,0,0,1.22.14,3.65,3.65,0,0,0,1.13-.17,2.6,2.6,0,0,0,.88-.44,2.18,2.18,0,0,0,.58-.7,2.1,2.1,0,0,0,.21-.92,1.78,1.78,0,0,0-.36-1.11,2.4,2.4,0,0,0-1.23-.76l-1.12-.36a2.37,2.37,0,0,1-.87-.43.8.8,0,0,1-.24-.56.73.73,0,0,1,.37-.7,2,2,0,0,1,1-.22,3.63,3.63,0,0,1,1.52.31,1.06,1.06,0,0,0,.3.1c.12,0,.18-.09.18-.25v-.37a.41.41,0,0,0-.07-.26.78.78,0,0,0-.24-.2,1.22,1.22,0,0,0-.33-.14l-.45-.13L75,68h-.53a3.36,3.36,0,0,0-1,.14,2.26,2.26,0,0,0-.82.41,2.09,2.09,0,0,0-.57.65,1.69,1.69,0,0,0-.21.88,1.85,1.85,0,0,0,.4,1.15A2.37,2.37,0,0,0,73.5,72l1.15.36a1.91,1.91,0,0,1,.8.41.76.76,0,0,1,.21.55.85.85,0,0,1-.41.75,2.19,2.19,0,0,1-1.15.26,4.23,4.23,0,0,1-.94-.1,3.84,3.84,0,0,1-.87-.28l-.2-.08a.33.33,0,0,0-.14,0c-.12,0-.18.08-.18.25v.4a.41.41,0,0,0,0,.22A.56.56,0,0,0,72,75" transform="translate(0.02)"/></g></g><g class="cls-28"><g id="Groupe_2908" data-name="Groupe 2908"><path id="Tracé_9929" data-name="Tracé 9929" class="cls-5" d="M75.34,78.69A23.3,23.3,0,0,1,54.6,77.28c-.29-.18-.51.12-.27.35a17.38,17.38,0,0,0,11.73,4.56,17,17,0,0,0,9.65-2.89c.44-.32.07-.81-.37-.61" transform="translate(0.02)"/></g></g><g class="cls-28"><g id="Groupe_2909" data-name="Groupe 2909"><path id="Tracé_9930" data-name="Tracé 9930" class="cls-5" d="M77.92,77.21c-.28-.35-2.72-.66-4.22.37-.23.17-.19.39.06.36.85-.1,2.71-.31,3,.12s-.38,2.18-.71,3c-.1.24.11.33.32.15,1.41-1.15,1.79-3.6,1.51-4" transform="translate(0.02)"/></g></g></g></g></g><g class="cls-2"><g id="Groupe_2917" data-name="Groupe 2917"><g id="Groupe_2916" data-name="Groupe 2916" class="cls-26"><g class="cls-29"><g id="Groupe_2912" data-name="Groupe 2912"><path id="Tracé_9931" data-name="Tracé 9931" class="cls-5" d="M68.45,15.19H69l1.5-1.5.07-.64a6.76,6.76,0,0,0-11,3.3.8.8,0,0,1,.53,0l3-.5s.15-.25.23-.24a3.76,3.76,0,0,1,5.14-.39Z" transform="translate(0.02)"/></g></g><g class="cls-29"><g id="Groupe_2913" data-name="Groupe 2913"><path id="Tracé_9932" data-name="Tracé 9932" class="cls-5" d="M72.63,16.36a6.81,6.81,0,0,0-2-3.29l-2.11,2.11a3.74,3.74,0,0,1,1.38,3v.38a1.88,1.88,0,0,1,0,3.76H66.14l-.38.38V25l.38.38H69.9a4.89,4.89,0,0,0,2.77-9Z" transform="translate(0.02)"/></g></g><g class="cls-29"><g id="Groupe_2914" data-name="Groupe 2914"><path id="Tracé_9933" data-name="Tracé 9933" class="cls-5" d="M62.32,25.26h3.76v-3H62.32a1.92,1.92,0,0,1-.78-.17l-.53.16-1.52,1.5-.13.53a4.86,4.86,0,0,0,3,1" transform="translate(0.02)"/></g></g><g class="cls-29"><g id="Groupe_2915" data-name="Groupe 2915"><path id="Tracé_9934" data-name="Tracé 9934" class="cls-5" d="M62.32,15.5a4.89,4.89,0,0,0-3,8.76l2.18-2.18a1.88,1.88,0,1,1,1.56-3.42,1.91,1.91,0,0,1,.93.93l2.18-2.18a5,5,0,0,0-3.9-1.91Z" transform="translate(0.02)"/></g></g></g></g></g></g></g><g class="cls-2"><g id="Groupe_2920" data-name="Groupe 2920"><g class="cls-2"><g id="Groupe_2919" data-name="Groupe 2919"><path id="Tracé_9935" data-name="Tracé 9935" class="cls-18" d="M132.24,187.22v-10.4h-2.33V183c-.36-.54-.74-1.1-1.15-1.69s-.82-1.15-1.24-1.69-.82-1.06-1.22-1.54-.77-.88-1.09-1.21H123.3v10.4h2.31v-6.81a36.26,36.26,0,0,1,2.49,3.28c.78,1.16,1.51,2.34,2.17,3.53h2ZM121,179.66a4.82,4.82,0,0,0-1.11-1.7,4.9,4.9,0,0,0-1.65-1,5.89,5.89,0,0,0-4,0,4.44,4.44,0,0,0-1.65,1,5,5,0,0,0-1.13,1.7A6.11,6.11,0,0,0,111,182a6.49,6.49,0,0,0,.4,2.35,4.78,4.78,0,0,0,1.11,1.69,4.44,4.44,0,0,0,1.65,1,6,6,0,0,0,4.06,0,4.48,4.48,0,0,0,1.64-1,5,5,0,0,0,1.1-1.69,7,7,0,0,0,0-4.7m-7.35,1a3,3,0,0,1,.54-1.06,2.31,2.31,0,0,1,.86-.69,2.65,2.65,0,0,1,1.17-.25,2.71,2.71,0,0,1,1.16.24,2.51,2.51,0,0,1,.87.68,3.54,3.54,0,0,1,.54,1.06A5,5,0,0,1,119,182a4.6,4.6,0,0,1-.19,1.38,3.54,3.54,0,0,1-.54,1.06,2.42,2.42,0,0,1-.87.68,3,3,0,0,1-2.33,0,2.39,2.39,0,0,1-.86-.68,3,3,0,0,1-.54-1.06,4.6,4.6,0,0,1-.19-1.38,5.33,5.33,0,0,1,.19-1.37m-6.89,6.58h2.34v-10.4h-2.34Zm-10.11-10.4v2h3.14v8.4h2.34v-8.4h3.14v-2Zm-2.31,10.37a5.8,5.8,0,0,0,1.4-.54l-.65-1.88-.43.2a3.58,3.58,0,0,1-.55.19,6.1,6.1,0,0,1-.72.14,7,7,0,0,1-.92.06,3.45,3.45,0,0,1-1.38-.26,2.38,2.38,0,0,1-.92-.71,3,3,0,0,1-.51-1.07,5.52,5.52,0,0,1-.16-1.34,4.42,4.42,0,0,1,.24-1.53,3,3,0,0,1,.64-1,2.57,2.57,0,0,1,.91-.58,3.19,3.19,0,0,1,1.06-.18,5.06,5.06,0,0,1,1.45.18,5.63,5.63,0,0,1,1.12.43l.67-1.89-.39-.21a4.32,4.32,0,0,0-.68-.26c-.33-.09-.66-.17-1-.23a6.94,6.94,0,0,0-1.2-.1,5.86,5.86,0,0,0-2.11.36,4.7,4.7,0,0,0-1.68,1.06,5.1,5.1,0,0,0-1.11,1.71,6.19,6.19,0,0,0-.4,2.3,5.6,5.6,0,0,0,1.33,4,5,5,0,0,0,3.86,1.41,8.1,8.1,0,0,0,2.08-.24m-11.44-.06a3.49,3.49,0,0,0,1.34-.85A3.37,3.37,0,0,0,85,185a5.3,5.3,0,0,0,.25-1.68v-6.46H82.88v6.27a2.48,2.48,0,0,1-.53,1.78,1.88,1.88,0,0,1-1.39.53,2.53,2.53,0,0,1-.77-.12,1.44,1.44,0,0,1-.6-.4,1.81,1.81,0,0,1-.39-.72,3.54,3.54,0,0,1-.14-1.07v-6.27H76.72v6.46A5.24,5.24,0,0,0,77,185a3.34,3.34,0,0,0,2.08,2.16,5.07,5.07,0,0,0,1.89.31,5.62,5.62,0,0,0,1.91-.3m-8.36-7.53a4.19,4.19,0,0,0-1.2-1.65,5.1,5.1,0,0,0-1.87-1,9,9,0,0,0-2.42-.3c-.42,0-.92,0-1.51,0a13.67,13.67,0,0,0-1.69.2v10.12a13.08,13.08,0,0,0,1.65.22c.56,0,1,0,1.47,0a8.74,8.74,0,0,0,2.49-.33,5,5,0,0,0,1.88-1,4.27,4.27,0,0,0,1.19-1.69A6.13,6.13,0,0,0,74.9,182a5.91,5.91,0,0,0-.41-2.39m-6.34-.86h1a2.94,2.94,0,0,1,3.38,3.32,3.38,3.38,0,0,1-.85,2.45,3.46,3.46,0,0,1-2.6.89h-.9Zm-4.7.92a4.82,4.82,0,0,0-1.11-1.7,4.9,4.9,0,0,0-1.65-1,5.93,5.93,0,0,0-2-.35,5.48,5.48,0,0,0-2,.35A4.66,4.66,0,0,0,55,178a5,5,0,0,0-1.13,1.7,6.11,6.11,0,0,0-.42,2.35,6.49,6.49,0,0,0,.4,2.35A4.78,4.78,0,0,0,55,186.06a4.44,4.44,0,0,0,1.65,1,6,6,0,0,0,4.06,0,4.48,4.48,0,0,0,1.64-1,4.82,4.82,0,0,0,1.09-1.69,7,7,0,0,0,0-4.7m-7.34,1a3,3,0,0,1,.54-1.06,2.41,2.41,0,0,1,.86-.69,2.65,2.65,0,0,1,1.17-.25,2.71,2.71,0,0,1,1.16.24,2.32,2.32,0,0,1,.87.68,3,3,0,0,1,.54,1.06,5,5,0,0,1,.19,1.39,4.6,4.6,0,0,1-.19,1.38,3.32,3.32,0,0,1-.54,1.06,2.22,2.22,0,0,1-.87.68,3,3,0,0,1-2.33,0,2.39,2.39,0,0,1-.86-.68,3.32,3.32,0,0,1-.54-1.06,5.14,5.14,0,0,1,0-2.75m-7-1.62a1.15,1.15,0,0,1,.58,1.09,1.18,1.18,0,0,1-.57,1.12,4.07,4.07,0,0,1-1.89.33h-.66v-2.82h.84a3.55,3.55,0,0,1,1.7.33m-3.3-2.26a13.94,13.94,0,0,0-1.58.21V187.3h2.34v-3.8H47.7c.2.24.4.51.6.8l.61.94c.21.33.41.66.6,1l.58,1h2.62c-.18-.38-.38-.77-.58-1.16s-.43-.77-.65-1.14-.45-.71-.68-1.05-.45-.63-.66-.89a3.07,3.07,0,0,0,.7-5.44,6.4,6.4,0,0,0-3.58-.83H45.79m-7,2a2.21,2.21,0,0,1,.71.24,1.17,1.17,0,0,1,.45.46,1.49,1.49,0,0,1,.16.72,1.28,1.28,0,0,1-.61,1.23,4,4,0,0,1-1.83.33h-.73v-3h.93c.31,0,.61,0,.92.07m-2.58-2a15,15,0,0,0-1.62.21v10.25h2.34v-3.48h.73a6.58,6.58,0,0,0,3.6-.83,3.53,3.53,0,0,0,.42-5,4.16,4.16,0,0,0-.42-.42,6.55,6.55,0,0,0-3.57-.82q-.64,0-1.5.06m-7.54,7H33v-2H28.64Zm-.9,3.47v-2h-5v-2.5H26.9v-1.92H22.72v-2H27.4v-2h-7v10.4h7.36Zm-12.49-8.2a1.15,1.15,0,0,1,.58,1.09,1.18,1.18,0,0,1-.57,1.12,4.07,4.07,0,0,1-1.89.33h-.66v-2.82h.84a3.55,3.55,0,0,1,1.7.33M12,176.76a13.94,13.94,0,0,0-1.58.21v10.25h2.34v-3.8h1.15c.2.24.4.51.6.8l.61.94c.21.33.41.66.6,1l.58,1H18.9c-.18-.38-.38-.77-.58-1.16s-.43-.77-.65-1.14-.45-.71-.68-1.05-.45-.63-.66-.89a3.42,3.42,0,0,0,1.45-1.07,3,3,0,0,0,.5-1.78,2.94,2.94,0,0,0-1.3-2.53,6.4,6.4,0,0,0-3.58-.83H11.92m-7,2a2.21,2.21,0,0,1,.71.24,1.24,1.24,0,0,1,.45.46,1.38,1.38,0,0,1,.16.72,1.27,1.27,0,0,1-.62,1.23,4,4,0,0,1-1.83.33H3.05v-3H4c.31,0,.63,0,.94.07m-2.58-2A15,15,0,0,0,.72,177v10.25H3.06v-3.48H3.8a6.58,6.58,0,0,0,3.6-.83,3.53,3.53,0,0,0,.42-5,4.16,4.16,0,0,0-.42-.42,6.55,6.55,0,0,0-3.57-.82,12.71,12.71,0,0,0-1.51.06" transform="translate(0.02)"/></g></g></g></g></g></svg>