<svg xmlns="http://www.w3.org/2000/svg" width="28.562" height="28.562" viewBox="0 0 28.562 28.562"><defs><style>.a{fill:#fff;}.b{fill:#84acfd ;}</style></defs><circle class="a" cx="13.175" cy="13.175" r="13.175" transform="translate(1.106 1.106)"/><path class="a" d="M14.281,28.562A14.281,14.281,0,1,1,28.562,14.281,14.3,14.3,0,0,1,14.281,28.562Zm0-26.35A12.069,12.069,0,1,0,26.35,14.281,12.082,12.082,0,0,0,14.281,2.212Z"/><path class="b" d="M137.255,172.333a1.1,1.1,0,0,1-.789-.331l-4.082-4.148a1.106,1.106,0,1,1,1.577-1.551l3.261,3.314,6.747-7.43a1.106,1.106,0,1,1,1.637,1.488l-7.533,8.3a1.106,1.106,0,0,1-.8.363Z" transform="translate(-124.699 -152.797)"/></svg>