<svg xmlns="http://www.w3.org/2000/svg" width="466" height="310.667" viewBox="0 0 466 310.667"><defs><style>.a{opacity:0.14;}.b{fill:#ddd;}</style></defs><g class="a" transform="translate(0 -1)"><path class="b" d="M375.712,121.277A145.479,145.479,0,0,0,103.879,82.443,116.452,116.452,0,0,0,116.5,314.667H368.917A97.119,97.119,0,0,0,466,217.583C466,166.323,426.2,124.772,375.712,121.277Zm-6.8,154.557H116.5a77.667,77.667,0,0,1,0-155.333h13.786a106.775,106.775,0,0,1,209.506,29.125v9.708h29.125a58.25,58.25,0,0,1,0,116.5Z" transform="translate(0 -3)"/></g></svg>