<svg xmlns="http://www.w3.org/2000/svg" width="400.341" height="400.341" viewBox="0 0 400.341 400.341"><defs><style>.a{opacity:0.14;}.b{fill:#ddd;}</style></defs><g class="a"><path class="b" d="M182.154,63.653V2C82.068,12.009,2,98.282,2,202.171S82.068,392.333,182.154,402.341V340.689c-60.051-9.608-120.1-68.058-120.1-138.518S122.1,73.261,182.154,63.653Zm159.536,118.5h60.652C392.933,82.068,322.273,11.408,222.188,2V63.653C282.239,72.26,333.082,122.1,341.69,182.154Zm-119.5,158.535v61.653c100.085-9.408,170.746-80.068,180.154-180.154H341.69C333.082,282.239,282.239,332.081,222.188,340.689Z" transform="translate(-2 -2)"/></g></svg>