<svg xmlns="http://www.w3.org/2000/svg" xmlns:xlink="http://www.w3.org/1999/xlink" width="113.48" height="113.48" viewBox="0 0 113.48 113.48"><defs><style>.a{fill:#061146;}.b{clip-path:url(#a);}.c{fill:#f7f9fc;}.d{fill:#051144;}.e{fill:#fccc60;}.f{fill:#2242aa;}.g{fill:#2d54d3;}</style><clipPath id="a"><path class="a" d="M0,41.685H113.48V-71.795H0Z" transform="translate(0 0)"/></clipPath></defs><g class="b" transform="translate(0 71.795)"><g transform="translate(-0.001 -71.795)"><path class="a" d="M20.843,0A56.74,56.74,0,1,0,77.584,56.741,56.806,56.806,0,0,0,20.843,0" transform="translate(35.898)"/></g><g transform="translate(4.474 -67.322)"><path class="c" d="M19.2,0A52.267,52.267,0,1,0,71.466,52.266,52.326,52.326,0,0,0,19.2,0" transform="translate(33.067)"/></g><g transform="translate(14.271 -57.524)"><path class="d" d="M15.6,0A42.47,42.47,0,1,0,58.07,42.47,42.47,42.47,0,0,0,15.6,0m0,53.346A10.876,10.876,0,1,1,26.477,42.47,10.877,10.877,0,0,1,15.6,53.346" transform="translate(26.869)"/></g><g transform="translate(63.323 -49.47)"><path class="e" d="M3.109,11.9,25.7,9.387c0-.038-.011-.079-.016-.119A38.1,38.1,0,0,0,18.947-8.055l-.139-.194q-.65-.9-1.356-1.773l-.04-.051q-.7-.861-1.462-1.68c-.125-.136-.258-.269-.386-.4-.373-.394-.757-.781-1.148-1.16q-.251-.244-.507-.485-.671-.624-1.377-1.22c-.084-.073-.166-.149-.253-.221q-.882-.73-1.815-1.411c-.066-.051-.136-.1-.2-.145-.607-.436-1.225-.86-1.862-1.263l-.076-.051q-1-.626-2.041-1.2l-.292-.153c-.635-.341-1.283-.67-1.947-.977l-.109-.051L-5.355.716A14.919,14.919,0,0,1,3.109,11.9" transform="translate(5.355 20.493)"/></g><g transform="translate(18.834 -30.14)"><path class="f" d="M.863.714C.837.783.813.856.788.927q-.334.92-.616,1.846c-.032.111-.068.221-.1.334q-.266.9-.485,1.808c-.024.1-.054.205-.076.307Q-.74,6.274-.926,7.33c-.024.133-.051.266-.071.4-.066.389-.115.779-.166,1.168-.033.261-.073.518-.1.779-.033.3-.058.6-.084.9-.03.346-.058.7-.077,1.046-.016.25-.025.5-.035.748-.013.387-.025.773-.027,1.162,0,.253,0,.506,0,.757,0,.357.013.713.025,1.068.014.31.028.618.047.925.017.267.04.531.062.8q.047.6.119,1.2c.016.141.035.28.054.419A38.068,38.068,0,0,0,8.066,39.018c.077.087.152.177.228.262.254.281.518.553.781.827.163.169.319.34.482.506.248.248.509.49.763.732.183.174.362.352.547.522.348.318.7.624,1.067.929.1.081.19.168.288.248.628.522,1.279,1.018,1.941,1.5.33.239.673.463,1.012.692s.661.449,1,.664c.43.27.871.531,1.313.786.251.145.5.289.756.427q.759.413,1.54.8c.087.043.177.084.266.126.438.21.882.409,1.328.6.139.06.28.115.417.174.322.136.646.264.969.39A106.59,106.59,0,0,0,1.647-1.229Q1.23-.271.863.714" transform="translate(1.487 1.229)"/></g><g transform="translate(21.969 -52.967)"><path class="g" d="M26.7,13.769c0-.283-.013-.56-.024-.839-.017-.485-.04-.969-.076-1.453-.008-.12-.017-.243-.027-.364L4,13.625c.017.3.044.6.044.9A14.9,14.9,0,0,1-10.834,29.45,14.908,14.908,0,0,1-17.1,28.081q-.666-.306-1.3-.675A14.906,14.906,0,0,1-23.819,7.034,14.908,14.908,0,0,1-5.977.444l9.3-21.24-.2-.084c-.654-.269-1.313-.52-1.973-.749l-.131-.046c-.683-.234-1.369-.443-2.056-.637-.07-.019-.139-.041-.209-.06-.675-.185-1.353-.348-2.03-.492l-.212-.049q-1.117-.232-2.232-.4c-.079-.011-.158-.019-.237-.03-.517-.073-1.035-.138-1.554-.188-.278-.027-.558-.043-.839-.066-.33-.025-.661-.055-.993-.071-.552-.027-1.106-.04-1.666-.043-.071,0-.144,0-.215,0-.621,0-1.236.017-1.846.046q-.891.045-1.777.133h-.016a38.051,38.051,0,0,0-16.774,5.8c-.054.032-.109.068-.164.1-.411.267-.817.544-1.22.825-.131.092-.259.183-.389.277-.326.234-.645.476-.964.721q-.292.225-.577.455c-.254.2-.5.411-.756.621s-.473.4-.7.61c-.2.18-.4.364-.6.547q-.386.36-.762.729-.263.256-.522.522c-.253.258-.5.52-.749.789-.174.183-.341.371-.509.56q-.341.386-.675.778c-.19.226-.376.455-.56.684s-.362.454-.537.684c-.228.3-.45.6-.67.9-.119.164-.237.33-.352.5-.278.4-.548.806-.812,1.222-.049.074-.1.152-.147.228-.46.732-.89,1.489-1.306,2.26-.054.1-.106.2-.158.3q-.583,1.112-1.1,2.276c-.04.089-.076.175-.114.262a106.618,106.618,0,0,1,21.114,50.43q.429.166.858.322c.2.073.4.149.607.218q1.107.377,2.222.68c.155.043.308.085.463.126q1.181.306,2.369.537l.308.055c.838.153,1.675.285,2.515.381.095.011.19.027.285.036.36.04.721.062,1.083.09.285.022.567.051.854.065s.552.019.827.03c.362.011.722.024,1.083.027.3,0,.591-.009.887-.013.322-.006.645-.011.967-.025.383-.017.765-.044,1.148-.073.212-.017.424-.03.634-.049q.735-.066,1.465-.164l.267-.032A38.128,38.128,0,0,0,9.082,46.222c.041-.025.082-.051.122-.077q.657-.42,1.295-.866l.362-.254q.517-.372,1.021-.759.28-.216.555-.436.4-.32.8-.65c.232-.2.463-.4.689-.6.212-.187.42-.376.629-.569q.382-.351.751-.714.275-.266.542-.539.375-.384.738-.775c.175-.19.352-.383.525-.577.224-.251.444-.506.662-.763q.289-.344.572-.7c.179-.221.356-.446.528-.672.231-.3.455-.6.676-.91.12-.164.237-.327.351-.492q.417-.6.814-1.217c.051-.077.1-.156.152-.236.52-.824,1-1.674,1.46-2.54.234-.447.444-.914.662-1.374s.449-.918.651-1.389c.1-.247.2-.495.3-.743.321-.787.62-1.589.887-2.4.057-.174.106-.351.161-.525.285-.917.544-1.838.757-2.761.011-.052.022-.1.035-.158.156-.692.291-1.386.408-2.08.011-.066.024-.133.035-.2q.183-1.114.3-2.226c.008-.084.013-.169.019-.254q.088-.922.13-1.843c.011-.281.014-.564.021-.847.011-.436.016-.874.011-1.31" transform="translate(45.979 23.714)"/></g></g></svg>