<svg id="Calque_1" data-name="Calque 1" xmlns="http://www.w3.org/2000/svg" viewBox="0 0 336.26 398.53"><defs><style>.cls-1{fill:#ddd;isolation:isolate;}</style></defs><path id="Tracé_6113" data-name="Tracé 6113" class="cls-1" d="M326.66,64.53,174.1,1.19a15.54,15.54,0,0,0-11.94,0L9.6,64.53A15.57,15.57,0,0,0,0,78.91v77A260.69,260.69,0,0,0,162.25,397.37a15.54,15.54,0,0,0,11.76,0A260.71,260.71,0,0,0,336.26,155.91v-77A15.57,15.57,0,0,0,326.66,64.53Zm-21.54,91.38a229.63,229.63,0,0,1-137,210.14,229.61,229.61,0,0,1-137-210.14V89.3l137-56.88,137,56.88Zm-154.2,52.47,66.91-66.91a15.57,15.57,0,1,1,22.07,22l-.05.05L161.93,241.4a15.57,15.57,0,0,1-22,0l-43.5-43.5a15.56,15.56,0,0,1,22-22Z"/></svg>