<svg xmlns="http://www.w3.org/2000/svg" xmlns:xlink="http://www.w3.org/1999/xlink" width="107.758" height="108.14" viewBox="0 0 107.758 108.14"><defs><style>.a{fill:none;}.b{clip-path:url(#a);}.c{fill:#051144;}.d{fill:#f7f9fc;}.e{fill:#2d54d3;}.f{fill:#050f3f;}.g{fill:#2849bf;}</style><clipPath id="a"><path class="a" d="M0,57.274H107.758V-50.866H0Z" transform="translate(0 50.866)"/></clipPath></defs><g class="b"><g transform="translate(0 0.001)"><path class="c" d="M28.536,0a54.071,54.071,0,0,0,0,108.14A54.071,54.071,0,0,0,28.536,0" transform="translate(25.343)"/></g><g transform="translate(4.248 4.264)"><path class="d" d="M26.286,0a49.807,49.807,0,0,0,0,99.613A49.807,49.807,0,0,0,26.286,0" transform="translate(23.345 0)"/></g><g transform="translate(63.81 63.888)"><path class="c" d="M6.366,2.323H3.088V-.966A1.093,1.093,0,0,0,2-2.063H-.19a1.093,1.093,0,0,0-1.093,1.1V2.323H-4.561a1.1,1.1,0,0,0-1.093,1.1V5.612a1.093,1.093,0,0,0,1.093,1.1h3.278V10A1.1,1.1,0,0,0-.19,11.1H2A1.1,1.1,0,0,0,3.088,10V6.709H6.366a1.093,1.093,0,0,0,1.093-1.1V3.42a1.1,1.1,0,0,0-1.093-1.1" transform="translate(5.654 2.063)"/></g><g transform="translate(22.883 55.908)"><path class="c" d="M12.295,0H-5.115a5.82,5.82,0,0,0-5.8,5.823V23.3a5.82,5.82,0,0,0,5.8,5.823h17.41A5.82,5.82,0,0,0,18.1,23.3V5.823A5.82,5.82,0,0,0,12.295,0" transform="translate(10.919)"/></g><g transform="translate(25.768 58.803)"><path class="e" d="M9.85,0H-4.1a4.662,4.662,0,0,0-4.65,4.667v14A4.664,4.664,0,0,0-4.1,23.331H9.85a4.664,4.664,0,0,0,4.65-4.667v-14A4.662,4.662,0,0,0,9.85,0" transform="translate(8.748)"/></g><g transform="translate(30.319 82.132)"><path class="f" d="M.045,0h0M.032,0h0M.017,0h0M0,0H0M-.014,0h0M-.027,0h0M-.04,0h0" transform="translate(0.04)"/></g><g transform="translate(27.705 66.91)"><path class="g" d="M11.287,0C4.735,1.741-4.46,5.649-10.024,14.342a4.618,4.618,0,0,0,2.615.88H6.637a4.662,4.662,0,0,0,4.65-4.664Z" transform="translate(10.024)"/></g><g transform="translate(22.883 23.114)"><path class="c" d="M12.295,0H-5.115a5.82,5.82,0,0,0-5.8,5.823V23.3a5.82,5.82,0,0,0,5.8,5.823h17.41A5.82,5.82,0,0,0,18.1,23.3V5.823A5.82,5.82,0,0,0,12.295,0" transform="translate(10.919)"/></g><g transform="translate(25.768 26.009)"><path class="e" d="M9.85,0H-4.1a4.662,4.662,0,0,0-4.65,4.667v14A4.664,4.664,0,0,0-4.1,23.331H9.85a4.664,4.664,0,0,0,4.65-4.667v-14A4.662,4.662,0,0,0,9.85,0" transform="translate(8.748)"/></g><g transform="translate(30.319 49.338)"><path class="f" d="M.045,0h0M.032,0h0M.017,0h0M0,0H0M-.014,0h0M-.027,0h0M-.04,0h0" transform="translate(0.04)"/></g><g transform="translate(27.705 34.116)"><path class="g" d="M11.287,0C4.735,1.741-4.46,5.649-10.024,14.342a4.618,4.618,0,0,0,2.615.88H6.637a4.662,4.662,0,0,0,4.65-4.667Z" transform="translate(10.024)"/></g><g transform="translate(55.858 23.114)"><path class="c" d="M12.295,0H-5.115a5.82,5.82,0,0,0-5.8,5.823V23.3a5.82,5.82,0,0,0,5.8,5.823h17.41A5.821,5.821,0,0,0,18.1,23.3V5.823A5.821,5.821,0,0,0,12.295,0" transform="translate(10.919)"/></g><g transform="translate(58.742 26.009)"><path class="e" d="M9.85,0H-4.1a4.662,4.662,0,0,0-4.65,4.667v14A4.664,4.664,0,0,0-4.1,23.331H9.85a4.664,4.664,0,0,0,4.65-4.667v-14A4.662,4.662,0,0,0,9.85,0" transform="translate(8.748)"/></g><g transform="translate(63.296 49.338)"><path class="f" d="M.044,0h0M.031,0h0M.016,0h0M0,0H0M-.016,0h0M-.028,0h0M-.039,0h0" transform="translate(0.039)"/></g><g transform="translate(60.679 34.116)"><path class="g" d="M11.287,0C4.735,1.741-4.46,5.649-10.024,14.342a4.618,4.618,0,0,0,2.615.88H6.637a4.662,4.662,0,0,0,4.65-4.667Z" transform="translate(10.024)"/></g></g></svg>