<svg xmlns="http://www.w3.org/2000/svg" width="107.758" height="108.141" viewBox="0 0 107.758 108.141"><defs><style>.a{fill:none;}.b{fill:#051144;}.c{fill:#f7f9fc;}.d{fill:#050f3f;}.e{fill:#2d54d3;}.f{fill:#2849bf;}</style></defs><g transform="translate(-52.06 -135.391)"><rect class="a" width="107.758" height="108.14" transform="translate(52.06 135.391)"/><path class="b" d="M105.939,135.392a54.071,54.071,0,1,0,53.741,53.741,54.07,54.07,0,0,0-53.741-53.741"/><path class="c" d="M105.939,139.655a49.807,49.807,0,1,0,49.584,49.583,49.807,49.807,0,0,0-49.584-49.583"/><path class="b" d="M127.89,173.665h-3.278v-3.289a1.092,1.092,0,0,0-1.088-1.1h-2.19a1.093,1.093,0,0,0-1.093,1.093v3.293h-3.278a1.1,1.1,0,0,0-1.093,1.1v2.189a1.093,1.093,0,0,0,1.086,1.1h3.285v3.288a1.1,1.1,0,0,0,1.093,1.1h2.19a1.1,1.1,0,0,0,1.088-1.1v-3.291h3.278a1.093,1.093,0,0,0,1.093-1.093v-2.2a1.1,1.1,0,0,0-1.093-1.1"/><path class="d" d="M82.464,217.523h0m-.013,0h0m-.015,0h0m-.017,0h0m-.014,0h0m-.013,0h0m-.013,0h0"/><path class="b" d="M98.157,158.505H80.747a5.819,5.819,0,0,0-5.8,5.823V181.8a5.82,5.82,0,0,0,5.8,5.823h17.41a5.82,5.82,0,0,0,5.805-5.823V164.328a5.819,5.819,0,0,0-5.805-5.823"/><path class="e" d="M96.426,161.4H82.476a4.661,4.661,0,0,0-4.65,4.667v14a4.665,4.665,0,0,0,4.65,4.664h13.95a4.664,4.664,0,0,0,4.65-4.667v-14a4.661,4.661,0,0,0-4.65-4.664"/><path class="d" d="M82.464,184.729h0m-.013,0h0m-.015,0h0m-.017,0h0m-.014,0h0m-.013,0h0m-.013,0h0"/><path class="f" d="M101.076,169.507c-6.552,1.741-15.747,5.649-21.311,14.342a4.619,4.619,0,0,0,2.615.88H96.426a4.662,4.662,0,0,0,4.65-4.667Z"/><path class="d" d="M115.439,184.729h0m-.013,0h0m-.015,0h0m-.016,0h0m-.016,0h0m-.012,0h0m-.011,0h0"/></g></svg>