<svg xmlns="http://www.w3.org/2000/svg" width="76.9" height="76.9" viewBox="0 0 76.9 76.9"><defs><style>.a{fill:#9b9b9b;}</style></defs><path class="a" d="M38.45,0A38.45,38.45,0,1,0,76.9,38.45,38.454,38.454,0,0,0,38.45,0ZM27.277,58.126H17.913V29.953h9.364ZM22.6,26.106h-.061a4.848,4.848,0,0,1-5.175-4.867c0-2.765,2.095-4.868,5.3-4.868a4.866,4.866,0,0,1,5.236,4.868C27.893,23.943,25.861,26.106,22.6,26.106Zm38.448,32.02H51.68V43.054c0-3.788-1.356-6.371-4.744-6.371a5.126,5.126,0,0,0-4.8,3.425,6.413,6.413,0,0,0-.308,2.285V58.126H32.459s.123-25.53,0-28.173h9.364v3.989a9.3,9.3,0,0,1,8.439-4.65c6.161,0,10.781,4.027,10.781,12.68Zm0,0"/></svg>