<svg xmlns="http://www.w3.org/2000/svg" width="29.26" height="30.654" viewBox="0 0 29.26 30.654"><defs><style>.a{fill:#84acfd;}.b{fill:#bfd2fa;}.c{fill:#8cb1fd;}.d{fill:#e0eafd;}.e{fill:#ccdaf7;}.f{fill:#aac4fa;}.g{fill:#b6cdfc;}</style></defs><path class="a" d="M245.756,0a1.393,1.393,0,0,0-1.393,1.393V6.967a1.393,1.393,0,0,0,2.787,0V1.393A1.393,1.393,0,0,0,245.756,0Z" transform="translate(-230.43)"/><path class="b" d="M245.758,372.364a1.393,1.393,0,0,0-1.393,1.393v5.573a1.393,1.393,0,0,0,2.787,0v-5.573A1.393,1.393,0,0,0,245.758,372.364Z" transform="translate(-230.432 -350.071)"/><path class="c" d="M86.12,72.513l-3.941-3.941a1.393,1.393,0,0,0-1.97,1.97l3.941,3.941a1.393,1.393,0,0,0,1.97-1.97Z" transform="translate(-75.719 -64.082)"/><g transform="translate(19.845 13.934)"><path class="d" d="M411.453,232.727h-2.787a1.393,1.393,0,1,0,0,2.787h2.787a1.393,1.393,0,0,0,0-2.787Z" transform="translate(-403.431 -232.727)"/><path class="e" d="M345.481,331.875a1.393,1.393,0,0,0-1.97,1.97l3.941,3.941a1.393,1.393,0,0,0,1.97-1.97Z" transform="translate(-343.102 -325.555)"/></g><path class="f" d="M20,234.12a1.393,1.393,0,0,0-1.393-1.393H13.029a1.393,1.393,0,0,0,0,2.787H18.6A1.393,1.393,0,0,0,20,234.12Z" transform="translate(-11.636 -218.794)"/><path class="g" d="M86.121,331.874a1.393,1.393,0,0,0-1.97,0l-3.941,3.941a1.393,1.393,0,0,0,1.97,1.971l3.941-3.941A1.393,1.393,0,0,0,86.121,331.874Z" transform="translate(-75.72 -311.621)"/></svg>