<svg xmlns="http://www.w3.org/2000/svg" xmlns:xlink="http://www.w3.org/1999/xlink" width="108.14" height="108.14" viewBox="0 0 108.14 108.14"><defs><style>.a{fill:#061146;}.b{fill:#f8f9fc;}.c{fill:#2e54d4;}.d{fill:url(#a);}.e{opacity:0.1;isolation:isolate;}</style><linearGradient id="a" x1="-5.147" y1="-2.89" x2="-5.118" y2="-2.838" gradientUnits="objectBoundingBox"><stop offset="0" stop-opacity="0.102"/><stop offset="1" stop-opacity="0"/></linearGradient></defs><path class="a" d="M765.273,164.945a54.07,54.07,0,1,0,54.07,54.07A54.132,54.132,0,0,0,765.273,164.945Z" transform="translate(-711.203 -164.945)"/><path class="b" d="M782.1,186.278a49.474,49.474,0,0,1,40.034,78.665,17.911,17.911,0,0,0-1.559-.917c-9.029-4.635-23.035-10.16-38.476-10.16s-29.446,5.525-38.478,10.162a17.888,17.888,0,0,0-1.556.915A49.473,49.473,0,0,1,782.1,186.278Z" transform="translate(-728.03 -181.772)"/><path class="c" d="M828.3,554.647a49.412,49.412,0,0,1-37.193-16.912c.259-.157.52-.328.777-.46,8.587-4.409,21.876-9.663,36.417-9.663s27.829,5.254,36.414,9.661c.258.133.519.3.779.462A49.414,49.414,0,0,1,828.3,554.647Z" transform="translate(-774.231 -451.012)"/><path class="d" d="M979.928,550.2a50,50,0,0,0,16.763-12.461c-.26-.158-.522-.329-.779-.462-8.585-4.407-21.874-9.661-36.414-9.661-.7,0-1.373.066-2.063.09Z" transform="translate(-905.428 -451.012)"/><ellipse class="a" cx="27.321" cy="26.913" rx="27.321" ry="26.913" transform="translate(26.643 13.865)"/><circle class="c" cx="22.529" cy="22.529" r="22.529" transform="translate(31.541 18.023)"/><path class="e" d="M900.52,267.208a22.282,22.282,0,0,1,1.44,7.689,22.451,22.451,0,0,1-34.607,18.953,22.48,22.48,0,1,0,33.168-26.642Z" transform="translate(-834.371 -245.609)"/></svg>