<svg xmlns="http://www.w3.org/2000/svg" width="18.986" height="22.502" viewBox="0 0 18.986 22.502"><path d="M18.444 3.644L9.83.067a.879.879 0 00-.674 0L.542 3.644A.879.879 0 000 4.456V8.8a14.72 14.72 0 009.161 13.634.879.879 0 00.664 0A14.72 14.72 0 0018.986 8.8V4.456a.879.879 0 00-.542-.812zM17.228 8.8a12.965 12.965 0 01-7.735 11.865A12.965 12.965 0 011.758 8.8V5.042L9.493 1.83l7.735 3.212zm-8.707 2.963L12.3 7.988a.879.879 0 111.243 1.243l-4.4 4.4a.879.879 0 01-1.243 0l-2.456-2.456a.879.879 0 111.243-1.243z" fill="#767575"/></svg>