<svg xmlns="http://www.w3.org/2000/svg" width="137.165" height="68.242" viewBox="0 0 137.165 68.242"><defs><style>.a{fill:#061146}.b{fill:#2e54d4}.c{isolation:isolate}</style></defs><path class="a" d="M22.885 9.874a13.051 13.051 0 018.017 2.741l6.852-6.958A22.5 22.5 0 0022.885.034C10.276.034 0 10.577 0 23.581c0 12.932 10.277 23.476 22.885 23.476a22.809 22.809 0 0014.869-5.553l-6.852-7.029a13.04 13.04 0 01-17.4-1.266 13.622 13.622 0 01-3.906-9.628 13.789 13.789 0 013.906-9.7 12.941 12.941 0 019.387-4.007m48.51 14.163L41.867.702v45.687h10.69V24.112l29.532 22.281V.702H71.398z"/><path class="b" d="M117.167 33.247a13.162 13.162 0 01-18.611.3q-.153-.148-.3-.3a14 14 0 010-19.4 13.164 13.164 0 0118.615-.3q.151.145.3.3a14 14 0 010 19.4M107.712 0C95.036 0 84.759 10.543 84.759 23.547s10.277 23.547 22.953 23.547 22.955-10.543 22.955-23.547S120.389 0 107.712 0m26.944 2.374h-.478v-.948c.108-.011.245-.016.41-.016q.768 0 .769.479t-.7.485m.6.173a.707.707 0 00.484-.682.645.645 0 00-.31-.565 1.476 1.476 0 00-.838-.208 4.882 4.882 0 00-.8.075v2.7h.391v-1.2h.5q.6 0 .769 1.2h.391a3.771 3.771 0 00-.226-.9.945.945 0 00-.356-.422"/><path class="b" d="M134.681 4.558a2.075 2.075 0 112.075-2.075 2.075 2.075 0 01-2.075 2.074m1.756-3.83a2.484 2.484 0 10.728 1.756 2.483 2.483 0 00-.728-1.756"/><g class="c"><g class="c"><path class="a" d="M5.419 68.243a20.538 20.538 0 01-2.885-.159c-.408-.053-.584-.212-.584-.654V55.637a.576.576 0 01.567-.655 26.316 26.316 0 012.814-.141c2.815 0 5.187.744 5.187 3.416v.284a2.836 2.836 0 01-1.894 2.78 2.906 2.906 0 011.966 2.867v.3c0 2.976-2.408 3.755-5.171 3.755zm3.488-9.985c0-1.7-1.416-2.054-3.576-2.054-.6 0-1.257.036-1.752.053v4.39h2.726c2.053 0 2.6-.991 2.6-2.106zm.071 5.931c0-1.168-.584-2.248-2.673-2.248H3.579v4.868c.584.018 1.222.07 1.841.07 2.2 0 3.559-.478 3.559-2.39zm11.051-.445h-5.931v.249c0 2.107.832 2.885 2.461 2.885a24.242 24.242 0 003.151-.194h.089a.25.25 0 01.283.247v.6c0 .23-.071.354-.354.407a15.989 15.989 0 01-3.169.3c-2.036 0-4.018-.956-4.018-4.249v-1.594c0-2.532 1.4-4.143 3.93-4.143 2.585 0 3.9 1.629 3.9 4.143v.956c-.006.235-.13.393-.342.393zm-1.239-1.345c0-2-.761-2.78-2.32-2.78-1.522 0-2.372.868-2.372 2.78v.16h4.692zm8.197 5.755a8.6 8.6 0 01-1.15.089c-1.628 0-2.408-.425-2.408-2.372v-6.18l-1.718-.195c-.195-.018-.336-.124-.336-.319v-.478a.311.311 0 01.336-.319h1.718v-1.735a.361.361 0 01.319-.354l.921-.141h.052a.281.281 0 01.266.3v1.93h1.912a.356.356 0 01.354.354v.6a.355.355 0 01-.354.353h-1.912v6.179c0 .973.248 1.116.956 1.116h.992c.247 0 .371.07.371.247v.62c0 .162-.088.269-.319.305zm8.572-.036h-.815a.355.355 0 01-.354-.354v-.39a5.383 5.383 0 01-2.726.868 2.581 2.581 0 01-2.886-2.868v-.213c0-1.912 1.116-2.867 4.267-2.867h1.31v-.708c0-1.487-.513-2-1.894-2a25.791 25.791 0 00-2.709.142h-.089c-.159 0-.319-.053-.319-.283v-.62c0-.194.124-.3.372-.336a15.311 15.311 0 012.744-.23c2.461 0 3.452 1.24 3.452 3.329v6.178a.355.355 0 01-.353.352zm-1.2-4.709h-1.31c-2.143 0-2.709.478-2.709 1.735v.213c0 1.275.6 1.611 1.628 1.611a4.867 4.867 0 002.39-.708zm16.163-4.602l-2.39 8.426a1.419 1.419 0 01-1.594 1.009c-.761 0-1.364-.212-1.593-1.009l-2.39-8.426a.335.335 0 01-.018-.124.275.275 0 01.283-.3h.974c.142 0 .266.106.336.337l2.036 7.719c.106.425.195.514.372.514.159 0 .266-.089.372-.514l2.036-7.719c.071-.231.195-.337.336-.337h.974a.275.275 0 01.283.3.361.361 0 01-.017.124zm8.907 4.937h-5.931v.249c0 2.107.832 2.885 2.461 2.885a24.249 24.249 0 003.151-.194h.089a.25.25 0 01.283.247v.6c0 .23-.071.354-.353.407a16 16 0 01-3.169.3c-2.036 0-4.019-.956-4.019-4.249v-1.594c0-2.532 1.4-4.143 3.931-4.143 2.585 0 3.894 1.629 3.894 4.143v.956c-.001.235-.124.393-.337.393zm-1.24-1.345c0-2-.761-2.78-2.319-2.78-1.523 0-2.372.868-2.372 2.78v.16h4.691zm7.881-2.796a4.532 4.532 0 00-2.443.744v7.418a.367.367 0 01-.354.354h-.868a.352.352 0 01-.336-.354v-9.029a.341.341 0 01.336-.354h.832a.341.341 0 01.336.354v.372a4.23 4.23 0 012.5-.85c.248 0 .372.107.372.319v.726c-.003.194-.127.3-.375.3zm5.083 8.641a13.727 13.727 0 01-2.8-.266c-.23-.053-.372-.159-.372-.354v-.619a.286.286 0 01.319-.266h.071c.85.106 2.142.194 2.779.194 1.151 0 1.753-.3 1.753-1.257 0-.531-.319-.868-1.328-1.469l-1.788-1.063a3.017 3.017 0 01-1.806-2.532c0-1.842 1.381-2.355 3.2-2.355a16.584 16.584 0 012.762.23c.23.035.336.159.336.354v.584a.271.271 0 01-.3.3h-.053c-.619-.053-1.752-.142-2.744-.142s-1.646.124-1.646 1.027c0 .531.407.867 1.221 1.345L72.51 63c1.469.868 1.947 1.629 1.947 2.673.007 1.809-1.321 2.571-3.304 2.571zm7.013-11.421h-.9a.355.355 0 01-.354-.354v-1.416a.355.355 0 01.354-.354h.9a.354.354 0 01.354.354v1.416a.355.355 0 01-.354.354zm-.035 11.3h-.85a.355.355 0 01-.354-.354V58.74a.356.356 0 01.354-.354h.85a.356.356 0 01.354.354v9.029a.355.355 0 01-.354.349zm6.763.121c-2.6 0-3.93-1.717-3.93-4.32v-1.345c0-2.6 1.328-4.32 3.93-4.32s3.949 1.718 3.949 4.32v1.345c0 2.601-1.346 4.32-3.949 4.32zm2.39-5.665c0-1.806-.725-2.957-2.39-2.957-1.646 0-2.372 1.133-2.372 2.957v1.345c0 1.806.708 2.957 2.372 2.957 1.647 0 2.39-1.133 2.39-2.957zm10.926 5.539h-.849a.355.355 0 01-.354-.354v-5.82c0-1.789-.6-2.338-1.947-2.338a5.608 5.608 0 00-2.391.691v7.471a.367.367 0 01-.353.354h-.868a.351.351 0 01-.336-.354v-9.029a.341.341 0 01.336-.354h.885a.34.34 0 01.336.354v.337a5.33 5.33 0 012.816-.815c2.124 0 3.08 1.328 3.08 3.683v5.824a.354.354 0 01-.355.35zm7.881.001a.327.327 0 01-.354-.319v-.779a.314.314 0 01.354-.3h2.816V56.629l-2.776 1.171c-.141.053-.39.106-.39-.142v-.9c0-.124.053-.159.177-.23l3.17-1.452a.858.858 0 01.371-.106h.726a.336.336 0 01.336.336v11.42h2.833a.313.313 0 01.354.3v.779a.327.327 0 01-.354.319zm11.617-.018h-.85a.352.352 0 01-.336-.354V66.1a.336.336 0 01.336-.336h.85a.336.336 0 01.336.336v1.647a.34.34 0 01-.336.354zm7.012.142c-2.673 0-4.355-1.593-4.355-5.505v-2.387c0-3.913 1.682-5.506 4.355-5.506s4.337 1.593 4.337 5.506v2.391c0 3.909-1.664 5.501-4.337 5.501zm2.726-7.9c0-2.992-1.062-4.143-2.726-4.143s-2.727 1.151-2.727 4.143v2.391c0 2.991 1.063 4.142 2.727 4.142s2.726-1.15 2.726-4.142z"/></g></g></svg>