<svg xmlns="http://www.w3.org/2000/svg" width="115.06" height="60.646" viewBox="0 0 115.06 60.646"><defs><style>.a{fill:#82aafd;}</style></defs><g transform="translate(0 0)"><rect class="a" width="5.044" height="19.993" transform="translate(32.545 40.295)"/><path class="a" d="M-643.358,110.685a8.821,8.821,0,0,0-4.238-1.074,5.244,5.244,0,0,0-5.531,5.335,5.238,5.238,0,0,0,5.531,5.336,8.95,8.95,0,0,0,4.238-1.057v5.366a15.985,15.985,0,0,1-4.6.712c-5.676,0-10.653-3.911-10.653-10.356,0-5.971,4.507-10.342,10.653-10.342a15.5,15.5,0,0,1,4.6.712Z" transform="translate(721.623 -64.659)"/><path class="a" d="M-681.013,110.685a8.83,8.83,0,0,0-4.236-1.074,5.242,5.242,0,0,0-5.532,5.335,5.236,5.236,0,0,0,5.532,5.336,8.978,8.978,0,0,0,4.236-1.057v5.366a15.969,15.969,0,0,1-4.608.712c-5.663,0-10.639-3.911-10.639-10.356,0-5.971,4.5-10.342,10.639-10.342a15.553,15.553,0,0,1,4.608.712Z" transform="translate(706.624 -64.659)"/><path class="a" d="M-622.783,114.948A10.265,10.265,0,0,1-633.342,125.3,10.263,10.263,0,0,1-643.9,114.948,10.256,10.256,0,0,1-633.342,104.6a10.258,10.258,0,0,1,10.559,10.344m-10.559-5.258a5.171,5.171,0,0,0-5.22,5.258,5.169,5.169,0,0,0,5.22,5.265,5.173,5.173,0,0,0,5.221-5.265,5.174,5.174,0,0,0-5.221-5.258" transform="translate(727.481 -64.659)"/><path class="a" d="M-659.583,109.5a17.219,17.219,0,0,0-3.942-.614c-2.026,0-3.121.681-3.121,1.644,0,1.212,1.484,1.637,2.31,1.9l1.393.445c3.272,1.036,4.764,3.283,4.764,5.714,0,5.027-4.419,6.714-8.278,6.714a30.563,30.563,0,0,1-5.444-.544v-4.6a18.916,18.916,0,0,0,4.763.743c2.514,0,3.667-.73,3.667-1.871,0-1.008-1-1.591-2.244-1.981-.312-.1-.771-.249-1.085-.354-2.8-.884-5.153-2.537-5.153-5.845,0-3.738,2.8-6.253,7.456-6.253a21.467,21.467,0,0,1,4.915.639Z" transform="translate(716.306 -64.662)"/><path class="a" d="M-698.661,90.2a2.5,2.5,0,0,0-2.5-2.5,2.51,2.51,0,0,0-2.509,2.5v5.247a2.5,2.5,0,0,0,2.509,2.5,2.493,2.493,0,0,0,2.5-2.5Z" transform="translate(703.671 -71.391)"/><path class="a" d="M-688.82,85.274a2.509,2.509,0,0,0-2.5-2.5,2.506,2.506,0,0,0-2.5,2.5V97.41a2.5,2.5,0,0,0,2.5,2.5,2.5,2.5,0,0,0,2.5-2.5Z" transform="translate(707.592 -73.354)"/><path class="a" d="M-678.984,78.535a2.5,2.5,0,0,0-2.5-2.5,2.5,2.5,0,0,0-2.507,2.5v26.548a2.508,2.508,0,0,0,2.507,2.507,2.508,2.508,0,0,0,2.5-2.507Z" transform="translate(711.51 -76.038)"/><path class="a" d="M-669.146,85.274a2.506,2.506,0,0,0-2.5-2.5,2.51,2.51,0,0,0-2.5,2.5V97.41a2.5,2.5,0,0,0,2.5,2.5,2.494,2.494,0,0,0,2.5-2.5Z" transform="translate(715.431 -73.354)"/><path class="a" d="M-659.321,90.2a2.5,2.5,0,0,0-2.488-2.5,2.506,2.506,0,0,0-2.506,2.5v5.247a2.5,2.5,0,0,0,2.506,2.5,2.49,2.49,0,0,0,2.488-2.5Z" transform="translate(719.349 -71.391)"/><path class="a" d="M-649.474,85.274a2.506,2.506,0,0,0-2.5-2.5,2.5,2.5,0,0,0-2.5,2.5V97.41a2.489,2.489,0,0,0,2.5,2.5,2.5,2.5,0,0,0,2.5-2.5Z" transform="translate(723.271 -73.354)"/><path class="a" d="M-639.633,78.535a2.5,2.5,0,0,0-2.5-2.5,2.5,2.5,0,0,0-2.5,2.5v26.548a2.5,2.5,0,0,0,2.5,2.507,2.5,2.5,0,0,0,2.5-2.507Z" transform="translate(727.192 -76.038)"/><path class="a" d="M-629.783,85.274a2.51,2.51,0,0,0-2.528-2.5,2.5,2.5,0,0,0-2.5,2.5V97.41a2.491,2.491,0,0,0,2.5,2.5,2.5,2.5,0,0,0,2.528-2.5Z" transform="translate(731.104 -73.354)"/><path class="a" d="M-619.966,90.2a2.505,2.505,0,0,0-2.5-2.5,2.5,2.5,0,0,0-2.5,2.5v5.247a2.488,2.488,0,0,0,2.5,2.5,2.5,2.5,0,0,0,2.5-2.5Z" transform="translate(735.026 -71.391)"/><path class="a" d="M-622.842,117.268v.311h-.884V119.9h-.373v-2.322h-.9v-.311Z" transform="translate(735.012 -59.614)"/><path class="a" d="M-623.321,117.268h.573l.786,2.154h.019l.763-2.154h.56V119.9H-621v-2.155h-.012l-.8,2.155h-.35l-.779-2.155h-.01V119.9h-.37Z" transform="translate(735.679 -59.614)"/></g></svg>