<svg xmlns="http://www.w3.org/2000/svg" width="475.45" height="115.998" viewBox="0 0 475.45 115.998"><defs><style>.a{fill:#fff;}</style></defs><g transform="translate(-384.177 -867.5)"><g transform="translate(384.177 867.5)"><path class="a" d="M440.546,892.055a32.154,32.154,0,0,1,19.745,6.752l16.878-17.138a55.41,55.41,0,0,0-36.624-13.851c-31.057,0-56.369,25.969-56.369,58,0,31.854,25.312,57.824,56.369,57.824a56.168,56.168,0,0,0,36.624-13.676L460.292,952.65a32.119,32.119,0,0,1-42.866-3.119,33.549,33.549,0,0,1-9.621-23.715,33.962,33.962,0,0,1,9.621-23.893,31.878,31.878,0,0,1,23.121-9.87" transform="translate(-384.177 -867.644)"/><path class="a" d="M645.834,931.323,573.1,873.847V986.379h26.328V931.5l72.742,54.88V873.847H645.834Z" transform="translate(-469.971 -870.382)"/><path class="a" d="M846.469,949.392a32.419,32.419,0,0,1-45.841.742q-.377-.365-.742-.742a34.481,34.481,0,0,1,0-47.787,32.427,32.427,0,0,1,45.852-.731q.371.36.732.731a34.48,34.48,0,0,1,0,47.787M823.17,867.5c-31.224,0-56.536,25.968-56.536,58s25.313,58,56.536,58,56.539-25.968,56.539-58-25.315-58-56.539-58" transform="translate(-557.862 -867.5)"/></g><g transform="translate(719.962 926.003)"><path class="a" d="M1041.159,981.916v53.54h-12.851v-21h-16.143v21h-12.85v-53.54h12.85v21.005h16.143V981.916Z" transform="translate(-999.315 -977.963)"/><path class="a" d="M1085.069,1001.985h10.707V1023.4c0,2.8,1.894,10.379,9.638,10.379,8.483,0,9.637-7.659,9.637-10.459v-21.334h11.53v42.585h-11.53v-4.447a12.982,12.982,0,0,1-10.379,4.447c-10.872.084-19.6-8.812-19.6-20.345Z" transform="translate(-1038.259 -987.077)"/><path class="a" d="M1216.593,1011.081a21.24,21.24,0,0,1-34.761,16.227v4.859H1170.3l-.08-57.494h11.532v20.1a21.153,21.153,0,0,1,34.841,16.307Zm-10.711-.084a10.547,10.547,0,0,0-3.045-7.411,10.4,10.4,0,0,0-7.415-3.048,10.684,10.684,0,0,0-7.415,2.965,10.411,10.411,0,0,0-3.044,7.414,9.99,9.99,0,0,0,2.963,7.414,10.85,10.85,0,0,0,7.412,3.129,10.394,10.394,0,0,0,7.415-3.049A10.815,10.815,0,0,0,1205.883,1011Z" transform="translate(-1076.929 -974.673)"/></g></g></svg>