<svg xmlns="http://www.w3.org/2000/svg" width="155.137" height="47.637" viewBox="0 0 155.137 47.637"><defs><style>.a{fill:#82aafd;}</style></defs><g transform="translate(0 0)"><path class="a" d="M59.267,19.276H74.16v3.915H63.573v4.168H72.91v3.916H63.573v7.581h-4.3ZM83.99,30.463V19.276h4.3V30.353c0,3.187,1.592,4.84,4.219,4.84s4.219-1.6,4.219-4.7V19.276h4.3V30.327c0,5.932-3.324,8.84-8.59,8.84s-8.452-2.94-8.452-8.7Zm28.135-11.187h8.934a7.722,7.722,0,0,1,5.683,1.987,6.145,6.145,0,0,1,1.676,4.464v.059a6.125,6.125,0,0,1-4.19,6.089L129,38.868h-5.027l-4.19-6.268h-3.378v6.268h-4.3Zm8.662,9.51c2.1,0,3.3-1.121,3.3-2.77v-.045c0-1.844-1.285-2.8-3.38-2.8h-4.273V28.8Zm23.046,2.35-7.517-11.86h5.029l4.663,7.861,4.752-7.861h4.871L148.115,31.05v7.805h-4.3ZM49.393-.42a17.388,17.388,0,0,1-9.924,6.172C32.83,7.218,24,8.315,18.558,9.71S-1.684,15.947.766,33.142a13.589,13.589,0,0,1,6.393-7.594c4.65-2.1,23.308-5.082,25.98-5.553S51.646,14.769,49.4-.42Z" transform="translate(-0.494 0.42)"/><path class="a" d="M40.373,12.36a26.715,26.715,0,0,1-11.55,4.819C16.832,19.142,1.375,20.1,1.918,28.441S14.173,39.919,18.642,39.634A18.03,18.03,0,0,0,31.23,32.7a30.143,30.143,0,0,1-9.1,2.675c-4.021.242-5.238-.113-5.363-2.03s2.2-2.983,5.628-3.2S41.234,25.768,40.373,12.36Z" transform="translate(0.34 7.985)"/></g></svg>