<svg xmlns="http://www.w3.org/2000/svg" width="283.207" height="44.359" viewBox="0 0 283.207 44.359"><defs><style>.a{fill:#82aafd;}</style></defs><g transform="translate(0 0)"><g transform="translate(0 0)"><path class="a" d="M547.119,319.6h1.6l4.56-4.563.223-1.939a20.518,20.518,0,0,0-33.365,10.008,2.471,2.471,0,0,1,1.6-.094l9.126-1.507s.464-.768.707-.722a11.383,11.383,0,0,1,15.579-1.184Z" transform="translate(-513.803 -307.972)"/><path class="a" d="M557.175,322.389a20.536,20.536,0,0,0-6.2-9.99l-6.4,6.4a11.387,11.387,0,0,1,4.182,9.032v1.138a5.7,5.7,0,1,1,0,11.4h-11.4l-1.139,1.154v6.836l1.139,1.138h11.4a14.83,14.83,0,0,0,8.419-27.113Z" transform="translate(-511.194 -307.253)"/><path class="a" d="M528.622,345.606h11.4V336.48h-11.4a5.678,5.678,0,0,1-2.355-.513l-1.6.5-4.594,4.564-.4,1.6A14.713,14.713,0,0,0,528.622,345.606Z" transform="translate(-513.879 -303.429)"/><path class="a" d="M529.43,318.793a14.825,14.825,0,0,0-8.951,26.58l6.612-6.612a5.7,5.7,0,1,1,7.541-7.544l6.611-6.612a14.793,14.793,0,0,0-11.815-5.815Z" transform="translate(-514.688 -306.217)"/></g><g transform="translate(67.855 6.165)"><path class="a" d="M588.069,342.915a14.787,14.787,0,0,1-10.932-24.854q.18-.185.366-.366a14.58,14.58,0,0,1,10.566-4.418,14.15,14.15,0,0,1,10.133,4.084l-2.849,2.9a10.271,10.271,0,0,0-7.285-2.882,10.156,10.156,0,0,0-7.526,3.2,10.707,10.707,0,0,0,14.987,15.293,8.509,8.509,0,0,0,2.194-4.979h-9.609v-4.1H601.71a13.217,13.217,0,0,1,.161,2.5,12.813,12.813,0,0,1-3.508,9.447A13.634,13.634,0,0,1,588.069,342.915Zm31.607-2.722a6.8,6.8,0,1,0-.015,0Zm-10.57-2.672a5.186,5.186,0,0,0,7.33.242l0,0c.084-.079.166-.158.239-.239a6.151,6.151,0,0,0,0-8.279,5.27,5.27,0,0,0-7.45-.158c-.052.051-.107.1-.157.158a6.13,6.13,0,0,0,.015,8.279Zm31.416,2.672a9.607,9.607,0,1,1,0-13.608A9.8,9.8,0,0,1,640.523,340.193Zm-10.566-2.672a5.185,5.185,0,0,0,7.329.243l0,0c.083-.079.166-.158.24-.239a6.153,6.153,0,0,0,0-8.279,5.266,5.266,0,0,0-7.447-.158c-.053.051-.107.1-.158.158a6.129,6.129,0,0,0,.016,8.279Zm24.272,13.944a8.4,8.4,0,0,1-5.331-1.7,9.821,9.821,0,0,1-3.108-3.939l3.65-1.521a6.134,6.134,0,0,0,1.81,2.385,4.563,4.563,0,0,0,2.991,1.009,4.814,4.814,0,0,0,3.731-1.44A5.852,5.852,0,0,0,659.3,342.1v-1.377h-.145a6.111,6.111,0,0,1-5.011,2.16,8.694,8.694,0,0,1-6.4-2.786,9.647,9.647,0,0,1,0-13.466,8.674,8.674,0,0,1,6.4-2.8,6.9,6.9,0,0,1,2.946.654A5.929,5.929,0,0,1,659.172,326h.145V324.48h3.97v17.053a9.941,9.941,0,0,1-2.545,7.445A8.966,8.966,0,0,1,654.228,351.464Zm.289-12.292a4.66,4.66,0,0,0,3.618-1.6,5.915,5.915,0,0,0,1.455-4.1,6.045,6.045,0,0,0-1.455-4.18,4.654,4.654,0,0,0-3.618-1.6,4.955,4.955,0,0,0-3.746,1.6,5.853,5.853,0,0,0-1.6,4.148,5.737,5.737,0,0,0,1.6,4.1,4.959,4.959,0,0,0,3.746,1.629Zm15.836-24.817V342.34h-4.178V314.351Zm11.463,28.563a9.084,9.084,0,0,1-6.741-2.741,9.273,9.273,0,0,1-2.707-6.788,9.4,9.4,0,0,1,2.609-6.855,8.6,8.6,0,0,1,6.4-2.674,8.087,8.087,0,0,1,3.2.623,7.528,7.528,0,0,1,2.449,1.6,11.082,11.082,0,0,1,1.6,1.939,11.68,11.68,0,0,1,.946,1.872l.431,1.09L677.2,336.254a4.808,4.808,0,0,0,4.611,2.884A5.469,5.469,0,0,0,686.5,336.5l3.2,2.159a10.51,10.51,0,0,1-3.073,2.914,8.72,8.72,0,0,1-4.815,1.345Zm-5.348-9.815,8.517-3.54a2.93,2.93,0,0,0-1.328-1.455,4.345,4.345,0,0,0-2.194-.561,4.947,4.947,0,0,0-3.441,1.521,5.067,5.067,0,0,0-1.552,4.032Z" transform="translate(-573.069 -313.276)"/><g transform="translate(125.413 2.641)"><path class="a" d="M694.4,342.546a13.193,13.193,0,0,1-13.42-12.963h0v-.532a13.2,13.2,0,0,1,12.884-13.5h.532a11.948,11.948,0,0,1,9.495,4.226l-2.306,2.242a8.712,8.712,0,0,0-7.172-3.283,9.8,9.8,0,0,0-7.126,2.85,11.056,11.056,0,0,0,0,14.925,9.785,9.785,0,0,0,7.126,2.849,10.181,10.181,0,0,0,8-3.747l2.307,2.307a12.617,12.617,0,0,1-4.434,3.378A13.487,13.487,0,0,1,694.4,342.546Z" transform="translate(-680.972 -315.548)"/><path class="a" d="M707.2,341.891h-3.315v-25.86H707.2Z" transform="translate(-677.254 -315.47)"/><path class="a" d="M711.752,325.266a9.271,9.271,0,0,1,13.064,0,10.1,10.1,0,0,1,0,13.45,9.271,9.271,0,0,1-13.064,0A10.1,10.1,0,0,1,711.752,325.266Zm2.464,11.369a5.59,5.59,0,0,0,7.9.218c.076-.07.148-.145.217-.218a7.142,7.142,0,0,0,0-9.283,5.59,5.59,0,0,0-7.9-.217c-.076.069-.148.144-.217.217a7.094,7.094,0,0,0,.016,9.268Z" transform="translate(-676.393 -314.408)"/><path class="a" d="M742.826,340.749h-3.2V338.3h-.1a6.176,6.176,0,0,1-2.337,2.209,6.53,6.53,0,0,1-3.283.88,6.234,6.234,0,0,1-5.027-2.017,8.02,8.02,0,0,1-1.714-5.411V323.073h3.316v10.28q0,4.948,4.37,4.947a4.068,4.068,0,0,0,3.362-1.6,6.036,6.036,0,0,0,1.3-3.825v-9.8h3.315v17.676Z" transform="translate(-673.478 -314.327)"/><path class="a" d="M751.5,342.468a7.786,7.786,0,0,1-5.925-2.707,10.3,10.3,0,0,1,0-13.419,7.8,7.8,0,0,1,5.925-2.707,7.52,7.52,0,0,1,3.617.865,6.085,6.085,0,0,1,2.4,2.159h.145l-.145-2.449v-8.179h3.316v25.86h-3.2v-2.449h-.145a6.1,6.1,0,0,1-2.4,2.16A7.513,7.513,0,0,1,751.5,342.468Zm.545-3.025a5.28,5.28,0,0,0,3.987-1.731,7.583,7.583,0,0,0,0-9.321,5.408,5.408,0,0,0-7.64-.361l0,0c-.126.114-.249.237-.359.359a7.531,7.531,0,0,0,0,9.283A5.275,5.275,0,0,0,752.043,339.442Z" transform="translate(-670.892 -315.47)"/></g></g></g></svg>