<svg xmlns="http://www.w3.org/2000/svg" width="261.527" height="53.601" viewBox="0 0 261.527 53.601"><defs><style>.a{fill:#82aafd;}</style></defs><g transform="translate(0 0)"><path class="a" d="M529.637-291.064v-5.776c0-1.833-1.477-2.888-3.592-2.888s-3.6,1.622-3.6,4.083v3.385c0,2.462,1.481,4.084,3.6,4.084S529.637-289.306,529.637-291.064Zm0,3.592H529.5a5.4,5.4,0,0,1-5.284,3.732c-4.937,0-7.543-3.592-7.543-10.211,0-6.691,2.606-10.212,7.543-10.212A5.34,5.34,0,0,1,529.5-300.5h.141v-11.271h5.57v27.61h-5.57Zm-22.621,0H506.8c-.633,1.973-2.255,3.732-5.5,3.732-3.948,0-6.062-2.818-6.062-7.745v-12.255h5.5v11.833c0,2.321.774,3.732,2.818,3.732,1.693,0,3.455-.985,3.455-2.888v-12.677h5.495v19.579h-5.495ZM485.8-291.978V-296c0-2.391-1.266-3.873-3.451-3.873s-3.455,1.482-3.455,3.873v4.018c0,2.461,1.27,3.872,3.455,3.872S485.8-289.517,485.8-291.978Zm-12.616-1.973c0-6.339,3.455-10.212,9.165-10.212,5.78,0,9.161,3.872,9.161,10.212,0,6.268-3.38,10.211-9.161,10.211C476.638-283.74,473.182-287.683,473.182-293.951Zm-4.58,9.789c-3.807,0-5.495-1.9-5.495-5.424v-22.185H468.6v23.315h2.466v4.3ZM438.157-296.98c0-8.8,4.51-13.662,11.486-13.662,4.791,0,7.824,1.969,9.728,6.128l-4.861,2.532c-.708-2.18-2.044-3.662-4.866-3.662-3.31,0-5.495,2.255-5.495,6.339v4.229c0,4.083,2.185,6.338,5.495,6.338a5.369,5.369,0,0,0,5.217-3.877l4.581,2.677a10.094,10.094,0,0,1-9.8,6.2C442.667-283.74,438.157-288.176,438.157-296.98Zm-15.719-9.086h-.211l-2.185,4.294-6.2,11.341-6.2-11.341-2.185-4.294h-.211v21.9h-3.028V-310.22H406.3l7.469,14.014h.14l7.473-14.014h4.088v26.058h-3.033ZM381-286.91h7.679c2.677,0,4.37-1.477,4.37-4.084v-1.266c0-2.607-1.692-4.018-4.37-4.018H381Zm0-12.044h7.187c2.466,0,3.948-1.266,3.948-3.592v-1.266c0-2.325-1.482-3.592-3.948-3.592H381Zm-3.174-11.267h10.713c4.3,0,6.905,2.677,6.905,6.761,0,3.872-2.466,5.213-4.158,5.495v.211a5.685,5.685,0,0,1,5.077,6.057c0,4.295-2.892,7.535-6.695,7.535H377.825Zm-16.141,26.058v-2.607h3.666v-20.845h-3.666v-2.607h10.431v2.607h-3.662v20.845h3.662v2.607Z" transform="translate(-273.679 324.557)"/><path class="a" d="M153.134-321.831a1.123,1.123,0,0,1-.551-.152l-5.343-3.128a1.2,1.2,0,0,1-.551-1.413,1.131,1.131,0,0,1,1.441-.7l.009,0a.692.692,0,0,1,.183.09L153.67-324a1.2,1.2,0,0,1,.474,1.53A1.141,1.141,0,0,1,153.134-321.831Zm9.236-9.383a1.132,1.132,0,0,1-.981-.559l-3.088-5.413a1.2,1.2,0,0,1,.215-1.5,1.093,1.093,0,0,1,1.544.076c.017.019.033.038.048.058a1.268,1.268,0,0,1,.122.167L163.318-333a1.194,1.194,0,0,1-.3,1.57,1.14,1.14,0,0,1-.644.216Zm11.486-4.648v-6.145a1.2,1.2,0,0,1,1.1-1.218,1.124,1.124,0,0,1,.822.3,1.147,1.147,0,0,1,.358.81v6.316A1.144,1.144,0,0,1,175-334.642h-.05A1.2,1.2,0,0,1,173.856-335.862Zm13.752,4.648a1.1,1.1,0,0,1-.646-.207,1.2,1.2,0,0,1-.286-1.58l3.082-5.406a1.134,1.134,0,0,1,1.544-.428l0,0a1.526,1.526,0,0,1,.165.123,1.207,1.207,0,0,1,.215,1.5L188.6-331.8a1.134,1.134,0,0,1-1,.58Zm9.235,9.383a1.14,1.14,0,0,1-1-.609,1.2,1.2,0,0,1,.491-1.558l5.3-3.1a1.142,1.142,0,0,1,1.467.218,1.127,1.127,0,0,1-.095,1.591l-.027.024a.9.9,0,0,1-.164.123l-5.4,3.161A1.123,1.123,0,0,1,196.844-321.831ZM160.622-295.67a20.762,20.762,0,0,1-5.086-20.685,20.4,20.4,0,0,1,15.741-14.15,20.181,20.181,0,0,1,19.673,7.572c.347.448.678.914.981,1.386l-1.885,1.263a13.177,13.177,0,0,0-.876-1.229,17.939,17.939,0,0,0-17.512-6.8,18.136,18.136,0,0,0-14.024,12.6,18.453,18.453,0,0,0,4.581,18.415Zm28.849,6.027H158.206a13.043,13.043,0,0,1-9.259-3.959,13.387,13.387,0,0,1-3.772-9.441h2.261a11.073,11.073,0,0,0,3.111,7.82,10.789,10.789,0,0,0,7.662,3.291h31.247a13.227,13.227,0,0,0,12.146-7.918,13.54,13.54,0,0,0-2.249-14.456l1.654-1.523a15.886,15.886,0,0,1,2.589,16.9,15.519,15.519,0,0,1-14.171,9.3Zm-42.029-13.378h-2.264a13.223,13.223,0,0,1,10.935-13.026l.374,2.236a10.946,10.946,0,0,0-9.05,10.79Zm28.761-2.445h-2.27a15.716,15.716,0,0,1,10.027-14.593,15.381,15.381,0,0,1,17.055,4.211l-1.653,1.523a13.119,13.119,0,0,0-14.6-3.676,13.4,13.4,0,0,0-8.564,12.535Z" transform="translate(-145.175 343.226)"/></g></svg>