<svg xmlns="http://www.w3.org/2000/svg" width="128.087" height="49.636" viewBox="0 0 128.087 49.636"><defs><style>.a{fill:#82aafd;}</style></defs><g transform="translate(0 0)"><path class="a" d="M-655.261-169.213h5.57v6.3c0,.7-.1,1.734-.167,2.5h.133a19.2,19.2,0,0,1,1.4-2.1l5.5-6.7h6l-7.338,8.838,7.738,13.675h-6.4l-5.2-9.438-1.668,2.035v7.4h-5.57Zm24.283,15.443c-.6,2.168.633,3.535,2.5,3.535,2.1,0,3.168-1.667,3.168-4.035,0-2.535-1.268-3.5-2.968-3.5a4.05,4.05,0,0,0-2.768,1.067l-2.4-2.6,6.97-5.77h-8.272v-4.136h13.843v4.37l-5.337,4.4a5.888,5.888,0,0,1,6.637,6.238c0,4.7-3.836,7.9-8.672,7.9-4.57,0-8.4-2.835-7.4-6.8Zm18.278-.333c-.4,1.8.3,3.868,3.835,3.868,2.335,0,3.135-.933,3.135-2.168,0-1.867-1.868-2.334-4.068-3.134-3.3-1.135-7.372-2.736-7.372-7.438,0-4.2,3.235-6.771,8.738-6.638,6.738.133,8.64,4.1,7.9,7.538l-5.1.467c.335-2.6-.6-4.07-3.235-4.07-1.767,0-2.768.668-2.768,2.068,0,1.868,1.8,2.435,4,3.2,3.4,1.133,7.437,2.5,7.437,7.17,0,4.035-3,6.938-8.872,6.938-5.5,0-9.272-2.535-8.5-7.338Z" transform="translate(728.28 182.777)"/><path class="a" d="M-660.2-180.275h-47.78a6.433,6.433,0,0,0-6.416,6.414v36.807a6.433,6.433,0,0,0,6.416,6.414h47.78a6.433,6.433,0,0,0,6.414-6.414v-36.807A6.433,6.433,0,0,0-660.2-180.275Zm-28.585,36.095-11.661,6.776a3.12,3.12,0,0,1-4.265-1.13,3.12,3.12,0,0,1,1.13-4.266l11.66-6.776a3.12,3.12,0,0,1,4.266,1.127,3.12,3.12,0,0,1-1.127,4.266ZM-684.2-154.5h-.014a3.121,3.121,0,0,1-3.107-3.134h0l.058-13.434a3.122,3.122,0,0,1,3.12-3.107h.014a3.121,3.121,0,0,1,3.107,3.134l-.058,13.434A3.122,3.122,0,0,1-684.2-154.5Zm20.631,15.961a3.119,3.119,0,0,1-4.26,1.142h0l-11.677-6.742a3.12,3.12,0,0,1-1.147-4.261,3.12,3.12,0,0,1,4.261-1.146l.006,0,11.677,6.743a3.118,3.118,0,0,1,1.142,4.261Z" transform="translate(714.398 180.275)"/></g></svg>