<svg id="Calque_1" data-name="Calque 1" xmlns="http://www.w3.org/2000/svg" xmlns:xlink="http://www.w3.org/1999/xlink" viewBox="0 0 778.39 313.44"><defs><style>.cls-1,.cls-5{fill:none;}.cls-2{fill:#002b52;}.cls-3{clip-path:url(#clip-path);}.cls-4{fill:#008ad8;}.cls-5{stroke:#002b52;stroke-miterlimit:10;stroke-width:2.99px;}</style><clipPath id="clip-path" transform="translate(-10.8 -243.3)"><rect class="cls-1" x="10.82" y="243.3" width="778.38" height="313.4"/></clipPath></defs><path id="Tracé_5598" data-name="Tracé 5598" class="cls-2" d="M250,383.06h40.43v5.17H256.09v23H286.6v5.18H256.09v30.34H250Z" transform="translate(-10.8 -243.3)"/><g id="Groupe_466" data-name="Groupe 466"><g class="cls-3"><g id="Groupe_465" data-name="Groupe 465"><path id="Tracé_5599" data-name="Tracé 5599" class="cls-2" d="M324.63,442.94c16.78,0,23.92-14.11,23.92-28s-7.14-28-23.92-28-24,14.1-24,28,7.15,28,24,28m0-61.22c20,0,30,15.71,30,33.19s-10,33.2-30,33.2-30.07-15.7-30.07-33.2,10-33.19,30.07-33.19" transform="translate(-10.8 -243.3)"/><path id="Tracé_5600" data-name="Tracé 5600" class="cls-2" d="M363.46,383.06h6.07V422.5c0,14.73,6.87,20.44,18.65,20.44s18.74-5.72,18.74-20.44V383.06H413v40.78c0,13.12-7,24.27-24.81,24.27-17.57,0-24.72-11.15-24.72-24.27Z" transform="translate(-10.8 -243.3)"/></g></g></g><path id="Tracé_5601" data-name="Tracé 5601" class="cls-2" d="M425.14,383.06h6.77L469,437h.18v-53.9h6.07v63.72H468.5l-37.12-53.91h-.18v53.91h-6.06Z" transform="translate(-10.8 -243.3)"/><g id="Groupe_468" data-name="Groupe 468"><g class="cls-3"><g id="Groupe_467" data-name="Groupe 467"><path id="Tracé_5602" data-name="Tracé 5602" class="cls-2" d="M494.13,441.6h12.94c18.3,0,26.24-7.59,26.24-26.68s-7.94-26.71-26.24-26.71H494.13Zm-6.07-58.54h22.05c19.28.44,29.26,10.8,29.26,31.86s-10,31.41-29.26,31.86H488.06Z" transform="translate(-10.8 -243.3)"/></g></g></g><path id="Tracé_5603" data-name="Tracé 5603" class="cls-2" d="M558.22,421.79H583.3L571,389.12Zm9.64-38.73h6.77l25,63.72h-6.52L585.34,427h-29l-7.68,19.82h-6.51Z" transform="translate(-10.8 -243.3)"/><path id="Tracé_5604" data-name="Tracé 5604" class="cls-2" d="M592.5,383.06H643v5.17H620.79v58.55h-6.07V388.23H592.5Z" transform="translate(-10.8 -243.3)"/><rect id="Rectangle_613" data-name="Rectangle 613" class="cls-2" x="638.64" y="139.76" width="6.07" height="63.72"/><g id="Groupe_470" data-name="Groupe 470"><g class="cls-3"><g id="Groupe_469" data-name="Groupe 469"><path id="Tracé_5605" data-name="Tracé 5605" class="cls-2" d="M695.49,442.94c16.78,0,23.92-14.11,23.92-28s-7.14-28-23.92-28-24,14.1-24,28,7.15,28,24,28m0-61.22c20,0,30,15.71,30,33.19s-10,33.2-30,33.2-30.07-15.7-30.07-33.2,10-33.19,30.07-33.19" transform="translate(-10.8 -243.3)"/></g></g></g><path id="Tracé_5606" data-name="Tracé 5606" class="cls-2" d="M778.94,383.06V437h-.18l-37.12-53.9h-6.79v63.72h6.08V392.87h.17l37.13,53.91H785V383.06Z" transform="translate(-10.8 -243.3)"/><path id="Tracé_5607" data-name="Tracé 5607" class="cls-2" d="M250,243.9v114H335.6V328.7H285.14V243.9Z" transform="translate(-10.8 -243.3)"/><rect id="Rectangle_615" data-name="Rectangle 615" class="cls-2" x="347.79" y="0.61" width="35.13" height="114"/><path id="Tracé_5608" data-name="Tracé 5608" class="cls-2" d="M489.36,243.9v61H489l-33.22-61H419.9v114h33.21V295.64h.32l35,62.27h34.18v-114Z" transform="translate(-10.8 -243.3)"/><g id="Groupe_472" data-name="Groupe 472"><g class="cls-3"><g id="Groupe_471" data-name="Groupe 471"><path id="Tracé_5609" data-name="Tracé 5609" class="cls-2" d="M652.37,313.84c0,31.79-16.77,46.79-51.89,46.79s-52.06-15-52.06-46.79V243.91h35.13V306c0,11.49-.16,26.18,17.08,26.18,16.61,0,16.61-14.69,16.61-26.18V243.91h35.13Z" transform="translate(-10.8 -243.3)"/></g></g></g><path id="Tracé_5610" data-name="Tracé 5610" class="cls-2" d="M746.09,243.9l-16.93,31-17.25-31H670.72l37.53,53.33-41.2,60.68h40.23l20.12-34,19.49,34H789.2l-40.72-60.35L785,243.9Z" transform="translate(-10.8 -243.3)"/><path id="Tracé_5611" data-name="Tracé 5611" class="cls-4" d="M10.8,324.88V447.17H133.13V406.39H51.64V324.88Z" transform="translate(-10.8 -243.3)"/><path id="Tracé_5612" data-name="Tracé 5612" class="cls-2" d="M10.85,243.3v61.15H51.6v-20.2H173.89V406.39H153.55v40.77h61.1V243.3Z" transform="translate(-10.8 -243.3)"/><g id="Groupe_474" data-name="Groupe 474"><g class="cls-3"><g id="Groupe_473" data-name="Groupe 473"><line id="Ligne_57" data-name="Ligne 57" class="cls-5" x1="0.17" y1="235.08" x2="774.45" y2="235.08"/><path id="Tracé_5613" data-name="Tracé 5613" class="cls-4" d="M41.84,543A12.13,12.13,0,0,1,37.18,553a20.23,20.23,0,0,1-12.82,3.67A30.7,30.7,0,0,1,11,554.16v-7.45a36.25,36.25,0,0,0,7,2.44,29.29,29.29,0,0,0,6.91.89,11,11,0,0,0,6.9-1.78A5.8,5.8,0,0,0,34,543.5a6,6,0,0,0-2-4.59,30.34,30.34,0,0,0-8.44-4.45,22.25,22.25,0,0,1-9.3-6.1,12.87,12.87,0,0,1-2.71-8.24,11.58,11.58,0,0,1,4.29-9.51,17.7,17.7,0,0,1,11.5-3.46,33.81,33.81,0,0,1,13.79,3l-2.5,6.44a29.8,29.8,0,0,0-11.48-2.71,8.78,8.78,0,0,0-5.8,1.66,5.49,5.49,0,0,0-2,4.41,6.22,6.22,0,0,0,.79,3.21,8.09,8.09,0,0,0,2.61,2.53,43.87,43.87,0,0,0,6.52,3.13A35.28,35.28,0,0,1,37.06,533a12.2,12.2,0,0,1,3.63,4.31A13,13,0,0,1,41.84,543" transform="translate(-10.8 -243.3)"/></g></g></g><rect id="Rectangle_618" data-name="Rectangle 618" class="cls-4" x="61.51" y="264.53" width="7.88" height="48.22"/><path id="Tracé_5614" data-name="Tracé 5614" class="cls-4" d="M114.06,507.83v48.22h28.29v-6.78H121.94V507.82Z" transform="translate(-10.8 -243.3)"/><g id="Groupe_476" data-name="Groupe 476"><g class="cls-3"><g id="Groupe_475" data-name="Groupe 475"><path id="Tracé_5615" data-name="Tracé 5615" class="cls-4" d="M199.27,507.83h8.18L190.57,556h-8.31l-16.82-48.21h8.11l10.06,30q.79,2.15,1.68,5.52c.6,2.24,1,3.93,1.16,5,.29-1.67.72-3.61,1.32-5.81s1.08-3.81,1.45-4.87Z" transform="translate(-10.8 -243.3)"/></g></g></g><path id="Tracé_5616" data-name="Tracé 5616" class="cls-4" d="M235,507.83v48.22h27.28v-6.7H242.84V534.21H261v-6.6H242.84V514.49h19.39v-6.67Z" transform="translate(-10.8 -243.3)"/><g id="Groupe_478" data-name="Groupe 478"><g class="cls-3"><g id="Groupe_477" data-name="Groupe 477"><path id="Tracé_5617" data-name="Tracé 5617" class="cls-4" d="M301.67,530.26h5.48a12.59,12.59,0,0,0,8-2,7.44,7.44,0,0,0,2.47-6.07,6.52,6.52,0,0,0-2.66-5.87,14.79,14.79,0,0,0-8.06-1.79h-5.21Zm0,6.52V556h-7.88V507.83h13.62a22.27,22.27,0,0,1,13.82,3.5,12.54,12.54,0,0,1,4.49,10.55,13.22,13.22,0,0,1-9.37,12.83L330,556h-9l-11.54-19.26Z" transform="translate(-10.8 -243.3)"/><path id="Tracé_5618" data-name="Tracé 5618" class="cls-4" d="M417.62,556l-14-40.27h-.27q.57,9,.56,16.82V556h-7.15V507.83h11.11l13.39,38.35h.19l13.78-38.35H446.4V556h-7.59V532.2c0-2.39.06-5.52.18-9.36s.23-6.18.32-7h-.26L424.57,556Z" transform="translate(-10.8 -243.3)"/></g></g></g><path id="Tracé_5619" data-name="Tracé 5619" class="cls-4" d="M480.25,507.83v48.22h27.28v-6.7H488.14V534.21h18.17v-6.6H488.14V514.49h19.39v-6.67Z" transform="translate(-10.8 -243.3)"/><g id="Groupe_480" data-name="Groupe 480"><g class="cls-3"><g id="Groupe_479" data-name="Groupe 479"><path id="Tracé_5620" data-name="Tracé 5620" class="cls-4" d="M559.92,556l-14-40.27h-.27q.57,9,.56,16.82V556h-7.15V507.83h11.11l13.39,38.35h.2l13.79-38.35h11.14V556h-7.59V532.2c0-2.39.06-5.52.19-9.36s.22-6.18.31-7h-.26L566.89,556Z" transform="translate(-10.8 -243.3)"/><path id="Tracé_5621" data-name="Tracé 5621" class="cls-4" d="M630.43,534.14v15.28h8.38a12.31,12.31,0,0,0,7.47-1.91,7,7,0,0,0,2.53-6,6.36,6.36,0,0,0-2.58-5.57,13.59,13.59,0,0,0-7.81-1.82Zm0-6.39H638a13,13,0,0,0,7.22-1.57,6,6,0,0,0,2.27-5.32,5.32,5.32,0,0,0-2.46-4.92,15.31,15.31,0,0,0-7.79-1.51h-6.83Zm-7.88-19.92h14.3a27.2,27.2,0,0,1,14.4,2.9,10.16,10.16,0,0,1,4.45,9.17,11.06,11.06,0,0,1-2.18,7,9.74,9.74,0,0,1-6.26,3.54v.31a12.43,12.43,0,0,1,7.47,3.78,11.41,11.41,0,0,1,2.39,7.63,12.4,12.4,0,0,1-4.53,10.17A19.52,19.52,0,0,1,640,556H622.56Z" transform="translate(-10.8 -243.3)"/></g></g></g><path id="Tracé_5622" data-name="Tracé 5622" class="cls-4" d="M688.27,507.83v48.22h27.28v-6.7H696.16V534.21h18.16v-6.6H696.16V514.49h19.39v-6.67Z" transform="translate(-10.8 -243.3)"/><g id="Groupe_482" data-name="Groupe 482"><g class="cls-3"><g id="Groupe_481" data-name="Groupe 481"><path id="Tracé_5623" data-name="Tracé 5623" class="cls-4" d="M755,530.26h5.48a12.57,12.57,0,0,0,8-2,7.44,7.44,0,0,0,2.47-6.07,6.52,6.52,0,0,0-2.66-5.87,14.79,14.79,0,0,0-8.06-1.79H755Zm0,6.52V556h-7.88V507.83h13.62a22.27,22.27,0,0,1,13.82,3.5A12.54,12.54,0,0,1,779,521.88a13.22,13.22,0,0,1-9.37,12.83L783.29,556h-9l-11.55-19.26Z" transform="translate(-10.8 -243.3)"/></g></g></g></svg>