<svg xmlns="http://www.w3.org/2000/svg" width="96.035" height="77.24" viewBox="0 0 96.035 77.24"><defs><style>.a{fill:#82aafd;}</style></defs><g transform="translate(0 0)"><path class="a" d="M-502.8,5.815l1.757-6.637h2.4l-2.649,9.23h-2.788l-1.561-6.219L-507.2,8.408h-2.816l-2.622-9.23h2.37l1.785,6.637,1.757-6.637h2.175Z" transform="translate(512.641 68.693)"/><path class="a" d="M-492.231,16.354c-.279,1.841-1.673,3.151-4.1,3.151-2.566,0-4.489-1.561-4.489-4.684,0-3.151,1.98-4.8,4.489-4.8,2.788,0,4.238,2.036,4.238,4.768v.5h-6.385a2.033,2.033,0,0,0,2.091,2.315,1.724,1.724,0,0,0,1.841-1.311l2.314.055Zm-2.286-2.7a1.709,1.709,0,0,0-1.841-1.757,1.943,1.943,0,0,0-2.036,1.757Zm9.229-.25v-.307c0-.725-.307-1.2-1.673-1.2-1.7,0-1.757.948-1.757,1.255h-2.2c0-1.366.585-3.123,4.016-3.123,3.29,0,3.875,1.645,3.875,2.956v5.075a8.212,8.212,0,0,0,.056.92l.055.391h-2.314v-.92a3.8,3.8,0,0,1-2.872,1.032,2.9,2.9,0,0,1-3.207-2.9c0-2.12,2.007-2.566,2.816-2.706l3.207-.473Zm0,1.729-.891.139c-.5.084-1.088.168-1.422.223a1.786,1.786,0,0,0-.975.363.977.977,0,0,0-.363.753c0,.279.111,1.116,1.366,1.116a2.652,2.652,0,0,0,1.757-.614,2.024,2.024,0,0,0,.53-1.479Zm8.812,4.238h-3.1l-3.04-9.23h2.51l2.119,7.055,2.147-7.055h2.426Zm11.74-3.012c-.279,1.841-1.673,3.151-4.1,3.151-2.566,0-4.49-1.561-4.49-4.684,0-3.151,1.981-4.8,4.49-4.8,2.788,0,4.238,2.036,4.238,4.768v.5h-6.358a2.033,2.033,0,0,0,2.092,2.315,1.724,1.724,0,0,0,1.841-1.311l2.286.055Zm-2.286-2.7a1.71,1.71,0,0,0-1.841-1.757A1.941,1.941,0,0,0-470.9,13.65Zm5.688,5.717-2.677-8.979h1.45L-460.47,18l2.12-7.611h1.561L-454.671,18l2.12-7.611h1.394l-2.7,8.979h-1.673L-457.6,11.92l-2.063,7.446Zm14.835.139c-2.454,0-4.127-1.561-4.127-4.629,0-3.039,1.673-4.629,4.127-4.629,2.425,0,4.1,1.561,4.1,4.629,0,3.1-1.673,4.629-4.1,4.629m0-1.171c1.561,0,2.7-.949,2.7-3.458,0-2.482-1.143-3.457-2.7-3.457s-2.706.948-2.706,3.457c-.028,2.509,1.116,3.458,2.706,3.458m9.731-6.553c-1.618,0-2.733.558-2.733,2.677v4.908H-440.9V10.359h1.366V11.92a3.029,3.029,0,0,1,2.733-1.561h.641v1.422Zm9.731-1.394-3.262,3.318,3.429,5.661h-1.618l-2.788-4.685-2.147,2.259v2.427h-1.366V6.9h1.366v8.281l4.685-4.8Zm6.414,2.453c-.084-1.087-.949-1.421-2.063-1.421-.949,0-2.147.307-2.147,1.366,0,2.286,5.884.2,5.884,3.848,0,1.227-.7,2.845-3.849,2.845-2.4,0-3.568-1.227-3.6-2.872h1.505c.028,1,.67,1.7,2.259,1.7,1.841,0,2.286-.78,2.286-1.589,0-1.7-3.123-.975-4.824-1.924a2.046,2.046,0,0,1-1.059-1.923c0-1.479,1.395-2.622,3.57-2.622,2.677,0,3.457,1.561,3.513,2.566h-1.477ZM-478.01-27.926l27.048-24.148a25.451,25.451,0,0,0-7.166-4.015L-478.01-38.327Zm-7.779-3.486-7.335,6.553a26.832,26.832,0,0,0,3.179,7.584l4.156-3.709Z" transform="translate(514.985 57.734)"/><path class="a" d="M-468.443-50.992v-6.19a28.146,28.146,0,0,0-3.793-.279,26.439,26.439,0,0,0-3.959.307v13.133Zm0,36.5V-40.564l-7.779,6.943V-4.7a26.436,26.436,0,0,0,3.959.307,25.379,25.379,0,0,0,4.629-.418l20.8-18.572a26.88,26.88,0,0,0,1.087-7.529,25.938,25.938,0,0,0-.25-3.625l-22.447,20.05Z" transform="translate(519.862 57.462)"/><path class="a" d="M-466.053-22.53l20.83-18.626a26.245,26.245,0,0,0-4.016-6.833l-16.842,15.03V-22.53Zm-7.752-3.457L-480.5-20.02V-55.6a26.8,26.8,0,0,0-7.779,5.214V-12.24a27.079,27.079,0,0,0,5.884,4.322l8.561-7.64V-25.987Z" transform="translate(517.472 57.831)"/></g></svg>