<svg data-name="Calque 1" xmlns="http://www.w3.org/2000/svg" viewBox="0 0 752.5 450.01"><path d="M124.46 127.01a57.65 57.65 0 00-37.31 10 35.74 35.74 0 0023.29 64.55 81.69 81.69 0 0025.81-4.49 56 56 0 0023.79-16 39.8 39.8 0 008.49-16 90.2 90.2 0 002.51-21.77v-10.54a211.53 211.53 0 00-23-4.25 190.52 190.52 0 00-23.58-1.5z" fill="none"/><path d="M222.82 203.85a127.34 127.34 0 01-8-18 75 75 0 01-2.77-22.26l-.51-.12v-81c0-27.54-7-48.06-20.78-61.57C176.76 7.39 155.01.61 125.21.61a151.64 151.64 0 00-39 4.77 143.44 143.44 0 00-31.56 11.27 18.79 18.79 0 00-7 5.24 15.86 15.86 0 00-1.75 8.76v12.28c0 5.25 1.75 7.75 5.25 7.75a15.49 15.49 0 004-.75 71.88 71.88 0 008.76-3.24 199.36 199.36 0 0127-8.53 114 114 0 0127-3.23c19.27 0 32.78 3.76 40.81 11.53 7.71 7.74 11.76 21 11.76 40v18.26c-10-2.27-19.52-4.25-28.78-5.5a196.6 196.6 0 00-26.55-2 91 91 0 00-61.3 19.53 70.55 70.55 0 00-4.25 99.6 68.54 68.54 0 0050 18 92.43 92.43 0 0073.65-34.48c2.75 5.77 5.26 10.51 7.77 14.76a76.58 76.58 0 009 11.76 11.48 11.48 0 007.51 3.52 12 12 0 006.51-2.27l15.78-10.52a9.94 9.94 0 004.74-7.51 10.93 10.93 0 00-1.74-5.76zM171 143.28a90.2 90.2 0 01-2.51 21.73 39.8 39.8 0 01-8.49 16 56 56 0 01-23.79 16 81.69 81.69 0 01-25.78 4.51 35.74 35.74 0 01-23.28-64.51 57.65 57.65 0 0137.31-10 190.52 190.52 0 0123.51 1.49 211.53 211.53 0 0123 4.25zm538.83-13.27a75.83 75.83 0 00-38.78-24l-35.53-11.27A75.05 75.05 0 01608 80.99a23.79 23.79 0 01-7.51-17.81 24.12 24.12 0 0111.76-22.3 64.41 64.41 0 0133.3-7 114.53 114.53 0 0148 9.71 26 26 0 009.51 3c3.76 0 5.76-2.76 5.76-8V26.82a13.6 13.6 0 00-2.24-8.27 21.79 21.79 0 00-7.51-6.24 52.86 52.86 0 00-10.52-4.51c-4.48-1.53-9.25-2.79-14.25-4-5.25-1-10.51-2-16.27-2.74A125.46 125.46 0 00641.25.01a109.26 109.26 0 00-31.55 4.25 79.62 79.62 0 00-26 13 64.11 64.11 0 00-18 20.52 55.71 55.71 0 00-6.77 27.77 59.76 59.76 0 0012.53 36.3 76.28 76.28 0 0040 25.52l36.29 11.26a62.51 62.51 0 0125.28 13 24.35 24.35 0 016.74 17.52 26.91 26.91 0 01-13 23.77 67.32 67.32 0 01-36.52 8.3 151.27 151.27 0 01-29.79-3 137 137 0 01-27.51-8.77c-2.5-1-4.74-2-6.25-2.51a14.46 14.46 0 00-4.51-.75c-3.77 0-5.76 2.51-5.76 7.77v12.77a14.4 14.4 0 009.27 14 113.57 113.57 0 0028.77 10 165.76 165.76 0 0038.56 4.51v.1a118.53 118.53 0 0035.78-5.26 80.88 80.88 0 0027.79-14 67.51 67.51 0 0018.27-22 64.5 64.5 0 006.51-29 56.44 56.44 0 00-11.55-35.07zM532.42 6.62h-23.27a16.31 16.31 0 00-9.76 2.5 21.59 21.59 0 00-5 9.76L451.1 186.56 411.55 18.88a17 17 0 00-4.75-9.76 15.17 15.17 0 00-10-2.5h-20a17.21 17.21 0 00-10 2.5 17.44 17.44 0 00-4.74 9.76l-39.11 165.68-42.08-165.68a20.79 20.79 0 00-5-9.76 14 14 0 00-9.78-2.5h-24.51a5.39 5.39 0 00-1.39 0 5.49 5.49 0 00-4.63 6.23 44.12 44.12 0 002.26 10l58.81 193.45a20.45 20.45 0 005.26 9.77 14 14 0 009.53 2.5h21.52a15.57 15.57 0 0010-2.5 19.56 19.56 0 004.74-10l38.57-161.16 38.77 161.43a17.86 17.86 0 004.77 10 15.07 15.07 0 0010 2.5h21.51a16 16 0 009.51-2.5 18.93 18.93 0 005.24-9.75l60.34-193.48a35.78 35.78 0 001.74-6.25 25.6 25.6 0 00.5-4 5.31 5.31 0 000-1.49 5.56 5.56 0 00-6.21-4.75z" fill="#262e3d"/><path data-name="Tracé 5629" d="M714.61 317.86c-10.52-13.53-69.59-6.51-96.34-3.23-8 1-9.29-6-2-11.27 47-33 124.38-23.52 133.4-12.52 9 11.27-2.51 88.59-46.56 125.63-6.76 5.76-13.26 2.77-10.26-4.74 10-24.78 32.28-80.6 21.77-93.87m-34.28 39c-82.34 60.81-202 93.1-304.83 93.1A551.52 551.52 0 013.33 308.1c-7.75-7-.76-16.52 8.53-11a739.2 739.2 0 00656.45 40.82c13.76-6.26 25.53 9 12 19" fill="#f90"/></svg>