<svg xmlns="http://www.w3.org/2000/svg" width="186.229" height="53.65" viewBox="0 0 186.229 53.65"><path d="M32.044 50.789q8.173-1.44 16.338-2.889l.151-.033-8.411-10c-4.611-5.491-8.39-10.013-8.39-10.041s8.675-23.932 8.725-24.027c0-.028 5.919 10.164 14.313 24.71l14.393 24.949.109.191H15.865zm110.06-18.102v7.064l-.106.474a7.241 7.241 0 01-1.843 3.538 5.352 5.352 0 01-2.743 1.486 9.666 9.666 0 01-2.417 0 4.5 4.5 0 01-2.521-1.32 6.643 6.643 0 01-1.562-3.872c-.059-.457-.081-1.182-.081-7.5v-7h-3.6v7.239a61.614 61.614 0 00.182 8.665 7.1 7.1 0 007.039 6.909l-.018-.024a7.9 7.9 0 004.625-.9 7.392 7.392 0 002.815-2.815 1.471 1.471 0 01.208-.317 13.29 13.29 0 01.042 1.76v1.76h3.647v-22.21h-3.675zm44.116 2.168a11.207 11.207 0 00-2.3-6.969 8.468 8.468 0 00-5.709-2.931 12.9 12.9 0 00-3.221.186 9.7 9.7 0 00-3.969 1.9 11.424 11.424 0 00-4.132 7.993 19.165 19.165 0 00.045 4.033 10.185 10.185 0 004.6 7.922 9.53 9.53 0 004.181 1.366l-.017-.031a30.148 30.148 0 003.337-.049 13.026 13.026 0 005.279-1.831l.373-.229V44.54a6.616 6.616 0 00-.05-1.64l-.351.253a11.057 11.057 0 01-4.928 2.027 15.63 15.63 0 01-2.607.1 7.036 7.036 0 01-3.991-1.686 7.274 7.274 0 01-1.6-2.34 8.689 8.689 0 01-.7-3.323v-.351h15.746l.021-.946c.019-.522-.007-1.322-.007-1.779zm-3.663-.3h-12.058l.024-.186a9.911 9.911 0 01.377-1.534 8.017 8.017 0 011.949-3.118 5.636 5.636 0 012.946-1.567 8.257 8.257 0 012.168-.052 5.009 5.009 0 012.78 1.348 7.145 7.145 0 011.823 4.807zM91.442 16.628h-3.807l-5.938 15.559-5.94 15.609h.01a10.988 10.988 0 002.013.049h2.023l1.5-4.222c.824-2.32 1.524-4.284 1.556-4.364l.056-.148h13.22l1.64 4.367 1.64 4.368h2.02c1.112 0 2.024 0 2.024-.017S92.08 18.276 91.598 17.038zm3.47 19.153l-.014.01h-5.392c-2.964 0-5.392-.017-5.392-.035s1.073-2.981 2.4-6.585 2.456-6.721 2.523-6.929a10.729 10.729 0 00.352-1.5c.056-.468.1-.454.2.06a55.985 55.985 0 002.865 8.333c1.353 3.647 2.458 6.646 2.458 6.646zm11.024-8.712v1.51l5.94.017 5.955.021-6.578 9.038-6.581 9.054v1.133h18.3v-3.044h-6.445c-3.575 0-6.5-.007-6.5-.017s2.96-4.111 6.578-9.112l6.577-9.09v-1.02h-17.246zm56.845-1.931a5.865 5.865 0 00-1.185.043 5.2 5.2 0 00-2.841 1.408 7.921 7.921 0 00-2.01 3.093 1.988 1.988 0 01-.194.458c-.035 0-.035-1.031-.035-2.291v-2.291h-3.6v11.117c0 6.114.026 11.143.026 11.143.014.014.823.028 1.836.028h1.76v-6.272c.007-4.245.026-6.4.053-6.662a10.72 10.72 0 011.5-4.325 4.5 4.5 0 012.266-1.852 4.288 4.288 0 011.407-.278 4.534 4.534 0 012.379.478l.425.212v-3.731l-.148-.049a5.255 5.255 0 00-1.639-.229zM0 47.74s3.959-6.888 8.8-15.27l8.8-15.25 10.252-8.6C33.49 3.873 38.118.002 38.139.002a1.8 1.8 0 01-.165.415L26.838 24.285l-10.935 23.46H7.952C3.579 47.762 0 47.755 0 47.74z" fill="#82aafd"/></svg>