<svg xmlns="http://www.w3.org/2000/svg" width="115.06" height="60.646" viewBox="0 0 115.06 60.646"><path d="M32.545 40.295h5.044v19.993h-5.044zm45.72 5.731a8.821 8.821 0 00-4.238-1.074 5.244 5.244 0 00-5.531 5.335 5.238 5.238 0 005.531 5.336 8.95 8.95 0 004.238-1.057v5.366a15.985 15.985 0 01-4.6.712c-5.676 0-10.653-3.911-10.653-10.356 0-5.971 4.507-10.342 10.653-10.342a15.5 15.5 0 014.6.712zm-52.654 0a8.83 8.83 0 00-4.236-1.074 5.242 5.242 0 00-5.532 5.335 5.236 5.236 0 005.532 5.336 8.978 8.978 0 004.236-1.057v5.366a15.969 15.969 0 01-4.608.712c-5.663 0-10.639-3.911-10.639-10.356 0-5.971 4.5-10.342 10.639-10.342a15.553 15.553 0 014.608.712zm79.087 4.263a10.265 10.265 0 01-10.559 10.352 10.263 10.263 0 01-10.558-10.352 10.256 10.256 0 0110.558-10.348 10.258 10.258 0 0110.559 10.344m-10.559-5.258a5.171 5.171 0 00-5.22 5.258 5.169 5.169 0 005.22 5.265 5.173 5.173 0 005.221-5.265 5.174 5.174 0 00-5.221-5.258m-37.416-.189a17.219 17.219 0 00-3.942-.614c-2.026 0-3.121.681-3.121 1.644 0 1.212 1.484 1.637 2.31 1.9l1.393.445c3.272 1.036 4.764 3.283 4.764 5.714 0 5.027-4.419 6.714-8.278 6.714a30.563 30.563 0 01-5.444-.544v-4.6a18.916 18.916 0 004.763.743c2.514 0 3.667-.73 3.667-1.871 0-1.008-1-1.591-2.244-1.981-.312-.1-.771-.249-1.085-.354-2.8-.884-5.153-2.537-5.153-5.845 0-3.738 2.8-6.253 7.456-6.253a21.467 21.467 0 014.915.639zM5.01 18.809a2.5 2.5 0 00-2.5-2.5 2.51 2.51 0 00-2.509 2.5v5.247a2.5 2.5 0 002.509 2.5 2.493 2.493 0 002.5-2.5zm13.762-6.889a2.509 2.509 0 00-2.5-2.5 2.506 2.506 0 00-2.5 2.5v12.136a2.5 2.5 0 002.5 2.5 2.5 2.5 0 002.5-2.5zm13.754-9.423a2.5 2.5 0 00-2.5-2.5 2.5 2.5 0 00-2.507 2.5v26.548a2.508 2.508 0 002.507 2.507 2.508 2.508 0 002.5-2.507zm13.759 9.423a2.506 2.506 0 00-2.5-2.5 2.51 2.51 0 00-2.5 2.5v12.136a2.5 2.5 0 002.5 2.5 2.494 2.494 0 002.5-2.5zm13.743 6.889a2.5 2.5 0 00-2.488-2.5 2.506 2.506 0 00-2.506 2.5v5.247a2.5 2.5 0 002.506 2.5 2.49 2.49 0 002.488-2.5zm13.769-6.889a2.506 2.506 0 00-2.5-2.5 2.5 2.5 0 00-2.5 2.5v12.136a2.489 2.489 0 002.5 2.5 2.5 2.5 0 002.5-2.5zm13.762-9.423a2.5 2.5 0 00-2.5-2.5 2.5 2.5 0 00-2.5 2.5v26.548a2.5 2.5 0 002.5 2.507 2.5 2.5 0 002.5-2.507zm13.762 9.423a2.51 2.51 0 00-2.528-2.5 2.5 2.5 0 00-2.5 2.5v12.136a2.491 2.491 0 002.5 2.5 2.5 2.5 0 002.528-2.5zm13.739 6.889a2.505 2.505 0 00-2.5-2.5 2.5 2.5 0 00-2.5 2.5v5.247a2.488 2.488 0 002.5 2.5 2.5 2.5 0 002.5-2.5zm-2.89 38.845v.311h-.884v2.321h-.373v-2.322h-.9v-.311zm.188 0h.573l.786 2.154h.019l.763-2.154h.56v2.632h-.38v-2.155h-.012l-.8 2.155h-.35l-.779-2.155h-.01v2.155h-.37z" fill="#82aafd"/></svg>