<svg xmlns="http://www.w3.org/2000/svg" width="475.45" height="115.998" viewBox="0 0 475.45 115.998"><path d="M56.369 24.411a32.154 32.154 0 0119.745 6.752l16.878-17.138A55.41 55.41 0 0056.368.174c-31.057 0-56.369 25.969-56.369 58 0 31.854 25.312 57.824 56.369 57.824a56.168 56.168 0 0036.624-13.676L76.115 85.006a32.119 32.119 0 01-42.866-3.119 33.549 33.549 0 01-9.621-23.715 33.962 33.962 0 019.621-23.893 31.878 31.878 0 0123.121-9.87m119.493 36.532L103.129 3.465v112.532h26.328V61.118l72.742 54.88V3.465h-26.336zm112.744 20.951a32.419 32.419 0 01-45.841.742q-.377-.365-.742-.742a34.481 34.481 0 010-47.787 32.427 32.427 0 0145.852-.731q.371.36.732.731a34.48 34.48 0 010 47.787M265.308 0c-31.224 0-56.536 25.968-56.536 58s25.313 58 56.536 58 56.539-25.968 56.539-58-25.315-58-56.539-58m112.321 62.456v53.54h-12.851v-21h-16.143v21h-12.85v-53.54h12.85v21.005h16.143V62.456zm4.966 10.955h10.707v21.415c0 2.8 1.894 10.379 9.638 10.379 8.483 0 9.637-7.659 9.637-10.459V73.412h11.53v42.585h-11.53v-4.447a12.982 12.982 0 01-10.379 4.447c-10.872.084-19.6-8.812-19.6-20.345zm92.854 21.5a21.24 21.24 0 01-34.761 16.227v4.859h-11.532l-.08-57.494h11.532v20.1a21.153 21.153 0 0134.841 16.307zm-10.711-.084a10.547 10.547 0 00-3.045-7.411 10.4 10.4 0 00-7.415-3.048 10.684 10.684 0 00-7.415 2.965 10.411 10.411 0 00-3.044 7.414 9.99 9.99 0 002.963 7.414 10.85 10.85 0 007.412 3.129 10.394 10.394 0 007.415-3.049 10.815 10.815 0 003.13-7.411z" fill="#fff"/></svg>