<svg xmlns="http://www.w3.org/2000/svg" width="158.457" height="22.515" viewBox="0 0 158.457 22.515"><path d="M39.316 3.251h-7.838l-2.549 13.4h7.946c6.923 0 10.043-3.433 10.655-6.647a5.073 5.073 0 00-.94-4.328c-1.333-1.612-3.78-2.425-7.274-2.425zm3.6 6.647c-.4 2.106-2.251 3.13-5.656 3.13h-3.381l1.167-6.133h3.49c2.074 0 3.434.374 4.044 1.112a2.181 2.181 0 01.331 1.888zm7.507-6.647l-2.549 13.4h4.255l2.549-13.4zm12.15-.021l-9.844 13.42h4.858l2.1-2.869h7.178l.988 2.869h4.921L68.036 3.23zm-.709 7.4l2.665-3.758h.172l1.188 3.758zm29.089-7.379l-6.038 7.536-3.189-7.536H76l-2.549 13.4h4.2l1.55-8.145 3.431 8.145h2.227l6.513-8.062-1.534 8.062h4.219l2.549-13.4zm13.603-.021l-9.844 13.42h4.859l2.1-2.869h7.176l.989 2.869h4.92l-4.737-13.42zm-.708 7.4l2.664-3.758h.173l1.188 3.758zm25.303.571l-6.037-7.952h-5.13l-2.549 13.4h4.237l1.614-8.484 6.484 8.484h4.562l2.549-13.4h-4.219zm23.818-7.95h-16.825l-.693 3.643h6.266l-1.857 9.758h4.274l1.857-9.758h6.285zm1.232 0l-2.549 13.4h4.255l2.549-13.4zM17.741 0l4.7 5.864-9 11.161-9-11.16L6.325 3.53h8.295l1.712 2.2-5.172 6.407 2.215 2.745 7.492-9.257-4.59-5.622H4.744L.012 5.867l13.433 16.651L26.878 5.867 22.147.003z" fill="#82aafd"/></svg>