<svg xmlns="http://www.w3.org/2000/svg" width="155.137" height="47.637" viewBox="0 0 155.137 47.637"><defs><style>.a{fill:#82aafd}</style></defs><path class="a" d="M58.773 19.696h14.893v3.915H63.079v4.168h9.337v3.916h-9.337v7.581h-4.3zm24.723 11.187V19.696h4.3v11.077c0 3.187 1.592 4.84 4.219 4.84s4.219-1.6 4.219-4.7V19.696h4.3v11.051c0 5.932-3.324 8.84-8.59 8.84s-8.452-2.94-8.452-8.7zm28.135-11.187h8.934a7.722 7.722 0 015.683 1.987 6.145 6.145 0 011.676 4.464v.059a6.125 6.125 0 01-4.19 6.089l4.772 6.993h-5.027l-4.19-6.268h-3.378v6.268h-4.3zm8.662 9.51c2.1 0 3.3-1.121 3.3-2.77v-.045c0-1.844-1.285-2.8-3.38-2.8h-4.273v5.629zm23.046 2.35l-7.517-11.86h5.029l4.663 7.861 4.752-7.861h4.871l-7.516 11.774v7.805h-4.3zM48.899 0a17.388 17.388 0 01-9.924 6.172c-6.639 1.466-15.469 2.563-20.911 3.958S-2.178 16.367.272 33.562a13.589 13.589 0 016.393-7.594c4.65-2.1 23.308-5.082 25.98-5.553S51.152 15.189 48.906 0z"/><path class="a" d="M40.713 20.345a26.715 26.715 0 01-11.55 4.819C17.172 27.127 1.715 28.085 2.258 36.426s12.255 11.478 16.724 11.193a18.03 18.03 0 0012.588-6.934 30.143 30.143 0 01-9.1 2.675c-4.021.242-5.238-.113-5.363-2.03s2.2-2.983 5.628-3.2 18.839-4.377 17.978-17.785z"/></svg>