<svg xmlns="http://www.w3.org/2000/svg" width="283.207" height="44.359" viewBox="0 0 283.207 44.359"><defs><style>.a{fill:#82aafd}</style></defs><path class="a" d="M33.316 11.628h1.6l4.56-4.563.223-1.939A20.518 20.518 0 006.334 15.134a2.471 2.471 0 011.6-.094l9.126-1.507s.464-.768.707-.722a11.383 11.383 0 0115.579-1.184z"/><path class="a" d="M45.981 15.136a20.536 20.536 0 00-6.2-9.99l-6.4 6.4a11.387 11.387 0 014.182 9.032v1.138a5.7 5.7 0 110 11.4h-11.4l-1.139 1.154v6.836l1.139 1.138h11.4a14.83 14.83 0 008.419-27.113z"/><path class="a" d="M14.743 42.177h11.4v-9.126h-11.4a5.678 5.678 0 01-2.355-.513l-1.6.5-4.594 4.564-.4 1.6a14.713 14.713 0 008.949 2.975z"/><path class="a" d="M14.742 12.576a14.825 14.825 0 00-8.951 26.58l6.612-6.612A5.7 5.7 0 1119.944 25l6.611-6.612a14.793 14.793 0 00-11.815-5.815zm68.113 23.228A14.787 14.787 0 0171.923 10.95q.18-.185.366-.366a14.58 14.58 0 0110.566-4.418 14.15 14.15 0 0110.133 4.084l-2.849 2.9a10.271 10.271 0 00-7.285-2.882 10.156 10.156 0 00-7.526 3.2 10.707 10.707 0 0014.987 15.293 8.509 8.509 0 002.194-4.979H82.9v-4.1h13.596a13.217 13.217 0 01.161 2.5 12.813 12.813 0 01-3.508 9.447 13.634 13.634 0 01-10.294 4.175zm31.607-2.722a6.8 6.8 0 10-.015 0zm-10.57-2.672a5.186 5.186 0 007.33.242c.084-.079.166-.158.239-.239a6.151 6.151 0 000-8.279 5.27 5.27 0 00-7.45-.158c-.052.051-.107.1-.157.158a6.13 6.13 0 00.015 8.279zm31.416 2.672a9.607 9.607 0 110-13.608 9.8 9.8 0 01.001 13.608zm-10.566-2.672a5.185 5.185 0 007.329.243c.083-.079.166-.158.24-.239a6.153 6.153 0 000-8.279 5.266 5.266 0 00-7.447-.158c-.053.051-.107.1-.158.158a6.129 6.129 0 00.016 8.279zm24.272 13.944a8.4 8.4 0 01-5.331-1.7 9.821 9.821 0 01-3.108-3.939l3.65-1.521a6.134 6.134 0 001.81 2.385 4.563 4.563 0 002.991 1.009 4.814 4.814 0 003.731-1.44 5.852 5.852 0 001.329-4.159v-1.377h-.145a6.111 6.111 0 01-5.011 2.16 8.694 8.694 0 01-6.4-2.786 9.647 9.647 0 010-13.466 8.674 8.674 0 016.4-2.8 6.9 6.9 0 012.946.654 5.929 5.929 0 012.082 1.515h.145v-1.52h3.97v17.053a9.941 9.941 0 01-2.545 7.445 8.966 8.966 0 01-6.514 2.486zm.289-12.292a4.66 4.66 0 003.618-1.6 5.915 5.915 0 001.455-4.1 6.045 6.045 0 00-1.455-4.18 4.654 4.654 0 00-3.618-1.6 4.955 4.955 0 00-3.746 1.6 5.853 5.853 0 00-1.6 4.148 5.737 5.737 0 001.6 4.1 4.959 4.959 0 003.746 1.629zm15.836-24.817v27.984h-4.178V7.24zm11.463 28.563a9.084 9.084 0 01-6.741-2.741 9.273 9.273 0 01-2.707-6.788 9.4 9.4 0 012.609-6.855 8.6 8.6 0 016.4-2.674 8.087 8.087 0 013.2.623 7.528 7.528 0 012.449 1.6 11.082 11.082 0 011.6 1.939 11.68 11.68 0 01.946 1.872l.431 1.09-12.803 5.269a4.808 4.808 0 004.611 2.884 5.469 5.469 0 004.689-2.638l3.2 2.159a10.51 10.51 0 01-3.073 2.914 8.72 8.72 0 01-4.815 1.345zm-5.348-9.815l8.517-3.54a2.93 2.93 0 00-1.328-1.455 4.345 4.345 0 00-2.194-.561 4.947 4.947 0 00-3.441 1.521 5.067 5.067 0 00-1.552 4.032zm35.442 9.811a13.193 13.193 0 01-13.42-12.963v-.532a13.2 13.2 0 0112.884-13.5h.532a11.948 11.948 0 019.495 4.226l-2.306 2.242a8.712 8.712 0 00-7.172-3.283 9.8 9.8 0 00-7.126 2.85 11.056 11.056 0 000 14.925 9.785 9.785 0 007.126 2.849 10.181 10.181 0 008-3.747l2.307 2.307a12.617 12.617 0 01-4.434 3.378 13.487 13.487 0 01-5.886 1.248zm16.518-.577h-3.315V9.367h3.315zm5.413-15.563a9.271 9.271 0 0113.064 0 10.1 10.1 0 010 13.45 9.271 9.271 0 01-13.064 0 10.1 10.1 0 010-13.45zm2.464 11.369a5.59 5.59 0 007.9.218c.076-.07.148-.145.217-.218a7.142 7.142 0 000-9.283 5.59 5.59 0 00-7.9-.217 4.037 4.037 0 00-.217.217 7.094 7.094 0 00.016 9.268zm31.525 4.195h-3.2v-2.449h-.1a6.176 6.176 0 01-2.337 2.209 6.53 6.53 0 01-3.283.88 6.234 6.234 0 01-5.027-2.017 8.02 8.02 0 01-1.714-5.411V17.552h3.316v10.28q0 4.948 4.37 4.947a4.068 4.068 0 003.362-1.6 6.036 6.036 0 001.3-3.825v-9.8h3.315V35.23zm11.26.576a7.786 7.786 0 01-5.925-2.707 10.3 10.3 0 010-13.419 7.8 7.8 0 015.925-2.707 7.52 7.52 0 013.617.865 6.085 6.085 0 012.4 2.159h.145l-.145-2.449V9.367h3.316v25.86h-3.2v-2.449h-.145a6.1 6.1 0 01-2.4 2.16 7.513 7.513 0 01-3.588.866zm.545-3.025a5.28 5.28 0 003.987-1.731 7.583 7.583 0 000-9.321 5.408 5.408 0 00-7.64-.361 5.066 5.066 0 00-.359.359 7.531 7.531 0 000 9.283 5.275 5.275 0 004.01 1.77z"/></svg>