<svg xmlns="http://www.w3.org/2000/svg" width="261.527" height="53.601" viewBox="0 0 261.527 53.601"><path d="M255.958 33.493v-5.776c0-1.833-1.477-2.888-3.592-2.888s-3.6 1.622-3.6 4.083v3.385c0 2.462 1.481 4.084 3.6 4.084s3.592-1.13 3.592-2.888zm0 3.592h-.137a5.4 5.4 0 01-5.284 3.732c-4.937 0-7.543-3.592-7.543-10.211 0-6.691 2.606-10.212 7.543-10.212a5.34 5.34 0 015.284 3.663h.141V12.786h5.57v27.61h-5.57zm-22.621 0h-.216c-.633 1.973-2.255 3.732-5.5 3.732-3.948 0-6.062-2.818-6.062-7.745V20.817h5.5V32.65c0 2.321.774 3.732 2.818 3.732 1.693 0 3.455-.985 3.455-2.888V20.817h5.495v19.579h-5.495zm-21.216-4.506v-4.022c0-2.391-1.266-3.873-3.451-3.873s-3.455 1.482-3.455 3.873v4.018c0 2.461 1.27 3.872 3.455 3.872s3.451-1.407 3.451-3.868zm-12.616-1.973c0-6.339 3.455-10.212 9.165-10.212 5.78 0 9.161 3.872 9.161 10.212 0 6.268-3.38 10.211-9.161 10.211-5.711 0-9.167-3.943-9.167-10.211zm-4.58 9.789c-3.807 0-5.495-1.9-5.495-5.424V12.786h5.491v23.315h2.466v4.3zm-30.447-12.818c0-8.8 4.51-13.662 11.486-13.662 4.791 0 7.824 1.969 9.728 6.128l-4.861 2.532c-.708-2.18-2.044-3.662-4.866-3.662-3.31 0-5.495 2.255-5.495 6.339v4.229c0 4.083 2.185 6.338 5.495 6.338a5.369 5.369 0 005.217-3.877l4.581 2.677a10.094 10.094 0 01-9.8 6.2c-6.975-.002-11.485-4.438-11.485-13.242zm-15.719-9.086h-.211l-2.185 4.294-6.2 11.341-6.2-11.341-2.185-4.294h-.211v21.9h-3.028V14.337h4.082l7.469 14.014h.14l7.473-14.014h4.088v26.058h-3.033zm-41.438 19.156H115c2.677 0 4.37-1.477 4.37-4.084v-1.266c0-2.607-1.692-4.018-4.37-4.018h-7.679zm0-12.044h7.187c2.466 0 3.948-1.266 3.948-3.592v-1.266c0-2.325-1.482-3.592-3.948-3.592h-7.187zm-3.174-11.267h10.713c4.3 0 6.905 2.677 6.905 6.761 0 3.872-2.466 5.213-4.158 5.495v.211a5.685 5.685 0 015.077 6.057c0 4.295-2.892 7.535-6.695 7.535h-11.843zM88.006 40.394v-2.607h3.666V16.942h-3.666v-2.607h10.431v2.607h-3.662v20.845h3.662v2.607zM7.959 21.395a1.123 1.123 0 01-.551-.152l-5.343-3.128a1.2 1.2 0 01-.551-1.413 1.131 1.131 0 011.441-.7h.009a.692.692 0 01.183.09l5.348 3.134a1.2 1.2 0 01.474 1.53 1.141 1.141 0 01-1.01.639zm9.236-9.383a1.132 1.132 0 01-.981-.559L13.126 6.04a1.2 1.2 0 01.215-1.5 1.093 1.093 0 011.544.076.868.868 0 01.048.058 1.268 1.268 0 01.122.167l3.088 5.385a1.194 1.194 0 01-.3 1.57 1.14 1.14 0 01-.644.216zm11.486-4.648V1.219a1.2 1.2 0 011.1-1.218 1.124 1.124 0 01.822.3 1.147 1.147 0 01.358.81v6.316a1.144 1.144 0 01-1.136 1.157h-.05a1.2 1.2 0 01-1.094-1.22zm13.752 4.648a1.1 1.1 0 01-.646-.207 1.2 1.2 0 01-.286-1.58l3.082-5.406a1.134 1.134 0 011.544-.428 1.526 1.526 0 01.165.123 1.207 1.207 0 01.215 1.5l-3.082 5.412a1.134 1.134 0 01-1 .58zm9.235 9.383a1.14 1.14 0 01-1-.609 1.2 1.2 0 01.491-1.558l5.3-3.1a1.142 1.142 0 011.467.218 1.127 1.127 0 01-.095 1.591l-.027.024a.9.9 0 01-.164.123l-5.4 3.161a1.123 1.123 0 01-.571.15zM15.447 47.556a20.762 20.762 0 01-5.086-20.685 20.4 20.4 0 0115.741-14.15 20.181 20.181 0 0119.673 7.572c.347.448.678.914.981 1.386l-1.885 1.263a13.177 13.177 0 00-.876-1.229 17.939 17.939 0 00-17.512-6.8 18.136 18.136 0 00-14.024 12.6 18.453 18.453 0 004.581 18.415zm28.849 6.027H13.031a13.043 13.043 0 01-9.259-3.959A13.387 13.387 0 010 40.183h2.261a11.073 11.073 0 003.111 7.82 10.789 10.789 0 007.662 3.291h31.247a13.227 13.227 0 0012.146-7.918 13.54 13.54 0 00-2.249-14.456l1.654-1.523a15.886 15.886 0 012.589 16.9 15.519 15.519 0 01-14.171 9.3zM2.267 40.205H.003a13.223 13.223 0 0110.935-13.026l.374 2.236a10.946 10.946 0 00-9.05 10.79zm28.761-2.445h-2.27a15.716 15.716 0 0110.027-14.593 15.381 15.381 0 0117.055 4.211l-1.653 1.523a13.119 13.119 0 00-14.6-3.676 13.4 13.4 0 00-8.564 12.535z" fill="#82aafd"/></svg>