<svg data-name="Calque 1" xmlns="http://www.w3.org/2000/svg" viewBox="0 0 739.67 204.64"><path data-name="Tracé 5624" d="M104.72 0a14 14 0 00-5.43 1.44l-73.39 35a14 14 0 00-7.58 9.45l-18 78.62a13.83 13.83 0 001.91 10.73l.79 1.11 50.82 63.1a14.07 14.07 0 0010.94 5.19h81.39a14.07 14.07 0 0011-5.22l50.67-63.1a13.82 13.82 0 002.71-11.77l-18.1-78.73a13.9 13.9 0 00-7.58-9.44L111.53 1.45a14 14 0 00-6.8-1.44" fill="#427af2"/><path data-name="Tracé 5625" d="M105.3 126.82a3.88 3.88 0 013.54 2h.08l11.18 20.14c-1.48.49-3 .91-4.47 1.25a45.25 45.25 0 01-24.79-1.25l11.12-20.14a3.9 3.9 0 013.29-1.95zm-19.13-9.3a3.86 3.86 0 013.8 3.92 3.62 3.62 0 01-.32 1.48v.09l-8.81 21.18a45.47 45.47 0 01-18.14-22.77l22.65-3.85a3.22 3.22 0 01.76 0zm38.37-.1a4.51 4.51 0 01.9 0l22.84 3.9a45.2 45.2 0 01-18.29 23l-8.84-21.42a3.89 3.89 0 012.07-5.09 3.8 3.8 0 011.29-.3zm-22.62-18.7h7l4.32 5.46-1.59 6.86-6.34 3-6.35-3-1.49-6.86zm42.21-16.62a46 46 0 016.61 28.52l-22.19-6.38v-.1a3.87 3.87 0 01-2.72-4.75 4 4 0 011.19-1.9l17.12-15.33zm-77.46 0l17.27 15.39v.11a3.87 3.87 0 01-1.53 6.64v.08l-22.16 6.38a45.18 45.18 0 016.42-28.61zm44.3-21.28a45.5 45.5 0 0126.29 12.67l-18.71 13.3a3.86 3.86 0 01-5.43-.61 3.78 3.78 0 01-.86-2.35zm-11 0l-1.29 23h-.1a3.88 3.88 0 01-4 3.71 4.08 4.08 0 01-2.13-.74l-18.9-13.37a45.27 45.27 0 0121.77-11.86 43.42 43.42 0 014.66-.74zm5.5-34.06a4.65 4.65 0 00-4.32 4.88v1.25a41.86 41.86 0 00.6 4.17 40.07 40.07 0 01.44 8 4.77 4.77 0 01-1.43 2.27l-.11 1.86a57.32 57.32 0 00-7.93 1.22 56.49 56.49 0 00-28.69 16.38l-1.59-1.12a3.39 3.39 0 01-2.59-.27 40.39 40.39 0 01-5.91-5.33A41.81 41.81 0 0051.06 57l-1-.77a5.15 5.15 0 00-3-1.15 4.24 4.24 0 00-3.5 1.55 4.65 4.65 0 001.09 6.48l.9.71a36.74 36.74 0 003.63 2.14 40.87 40.87 0 016.59 4.55 4.9 4.9 0 01.87 2.53l1.44 1.25a56.79 56.79 0 00-8.95 39.61l-1.85.53a6.09 6.09 0 01-1.88 1.9 42 42 0 01-7.87 1.29 37.29 37.29 0 00-4.22.33l-1.15.29h-.22a4.404 4.404 0 001.17 8.73 5.32 5.32 0 00.79-.18h.08l1.2-.15a37.08 37.08 0 003.94-1.43 40.74 40.74 0 017.66-2.23 4.88 4.88 0 012.51.89l1.92-.34a57 57 0 0025.31 31.66l-.8 1.69a4.42 4.42 0 01.37 2.48 43.19 43.19 0 01-4 7.2 36.46 36.46 0 00-2.36 3.51l-.58 1.17a4.41 4.41 0 107.61 4.45 3.6 3.6 0 00.32-.69l.55-1.11a35.37 35.37 0 001.27-4 31 31 0 013.39-7.89 3.62 3.62 0 011.89-.92l1-1.8a56.74 56.74 0 0040.51.1l.86 1.69a3.51 3.51 0 012.25 1.35 41.82 41.82 0 013 7.38 35.8 35.8 0 001.29 4l.54 1.11a4.4 4.4 0 005.66 2.59 4.48 4.48 0 002.16-1.73 4.37 4.37 0 00.1-4.62l-.57-1.18a37.6 37.6 0 00-2.36-3.5 41.26 41.26 0 01-3.89-7 3.47 3.47 0 01.44-2.63 17 17 0 01-.74-1.77 57.1 57.1 0 0025.24-31.75l1.86.33a3.47 3.47 0 012.46-.9 39.94 39.94 0 017.65 2.24 37.9 37.9 0 003.95 1.53c.32.08.78.14 1.15.24h.17a4.402 4.402 0 102.73-8.37 5.32 5.32 0 00-.79-.18l-1.29-.28a37.29 37.29 0 00-4.22-.33 42 42 0 01-7.87-1.29 5.1 5.1 0 01-1.9-1.9l-1.77-.53a57 57 0 00-9.13-39.49l1.55-1.44a3.44 3.44 0 01.82-2.49 40.6 40.6 0 016.53-4.59 35.69 35.69 0 003.64-2.13l1-.77a4.423 4.423 0 00-4.66-7.52 5 5 0 00-.81.65l-1 .77a39.89 39.89 0 00-2.89 3.07 40.49 40.49 0 01-5.75 5.43 5 5 0 01-2.66.28l-1.67 1.19a57.57 57.57 0 00-36.47-17.6c0-.57-.09-1.63-.11-1.95a3.48 3.48 0 01-1.43-2.19 40 40 0 01.5-8 36.73 36.73 0 00.6-4.17v-1.21a4.65 4.65 0 00-4.32-4.88z" fill="#fff"/><path data-name="Tracé 5626" d="M105.3 126.82a3.88 3.88 0 013.54 2h.08l11.18 20.14c-1.48.49-3 .91-4.47 1.25a45.25 45.25 0 01-24.79-1.25l11.12-20.14a3.9 3.9 0 013.29-1.95zm-19.13-9.3a3.86 3.86 0 013.8 3.92 3.62 3.62 0 01-.32 1.48v.09l-8.81 21.18a45.47 45.47 0 01-18.14-22.77l22.65-3.85a3.22 3.22 0 01.76 0zm38.37-.1a4.51 4.51 0 01.9 0l22.84 3.9a45.2 45.2 0 01-18.29 23l-8.84-21.42a3.89 3.89 0 012.07-5.09 3.8 3.8 0 011.29-.3zm-22.62-18.7h7l4.32 5.46-1.59 6.86-6.34 3-6.35-3-1.49-6.86zm42.21-16.62a46 46 0 016.61 28.52l-22.19-6.38v-.1a3.87 3.87 0 01-2.72-4.75 4 4 0 011.19-1.9l17.12-15.33zm-77.46 0l17.27 15.39v.11a3.87 3.87 0 01-1.53 6.64v.08l-22.16 6.38a45.18 45.18 0 016.42-28.61zm44.3-21.28a45.5 45.5 0 0126.29 12.67l-18.71 13.3a3.86 3.86 0 01-5.43-.61h0a3.78 3.78 0 01-.86-2.35zm-11 0l-1.29 23h-.1a3.88 3.88 0 01-4 3.71 4.08 4.08 0 01-2.13-.74l-18.9-13.37a45.27 45.27 0 0121.77-11.86 43.42 43.42 0 014.66-.74zm5.5-34.06a4.65 4.65 0 00-4.32 4.88v1.25a41.86 41.86 0 00.6 4.17 40.07 40.07 0 01.44 8 4.77 4.77 0 01-1.43 2.27l-.11 1.86a57.32 57.32 0 00-7.93 1.22 56.49 56.49 0 00-28.69 16.38l-1.59-1.12a3.39 3.39 0 01-2.59-.27 40.39 40.39 0 01-5.91-5.33A41.81 41.81 0 0051.06 57l-1-.77a5.15 5.15 0 00-3-1.15 4.24 4.24 0 00-3.5 1.55 4.65 4.65 0 001.09 6.48l.9.71a36.74 36.74 0 003.63 2.14 40.87 40.87 0 016.59 4.55 4.9 4.9 0 01.87 2.53l1.44 1.25a56.79 56.79 0 00-8.95 39.61l-1.85.53a6.09 6.09 0 01-1.88 1.9 42 42 0 01-7.87 1.29 37.29 37.29 0 00-4.22.33l-1.15.29h-.22a4.404 4.404 0 001.17 8.73 5.32 5.32 0 00.79-.18h.08l1.2-.15a37.08 37.08 0 003.94-1.43 40.74 40.74 0 017.66-2.23 4.88 4.88 0 012.51.89l1.92-.34a57 57 0 0025.31 31.66l-.8 1.69a4.42 4.42 0 01.37 2.48 43.19 43.19 0 01-4 7.2 36.46 36.46 0 00-2.36 3.51l-.58 1.17a4.41 4.41 0 107.61 4.45 3.6 3.6 0 00.32-.69l.55-1.11a35.37 35.37 0 001.27-4 31 31 0 013.39-7.89 3.62 3.62 0 011.89-.92l1-1.8a56.74 56.74 0 0040.51.1l.86 1.69a3.51 3.51 0 012.25 1.35 41.82 41.82 0 013 7.38 35.8 35.8 0 001.29 4l.54 1.11a4.4 4.4 0 005.66 2.59 4.48 4.48 0 002.16-1.73 4.37 4.37 0 00.1-4.62l-.57-1.18a37.6 37.6 0 00-2.36-3.5 41.26 41.26 0 01-3.89-7 3.47 3.47 0 01.44-2.63 17 17 0 01-.74-1.77 57.1 57.1 0 0025.24-31.75l1.86.33a3.47 3.47 0 012.46-.9 39.94 39.94 0 017.65 2.24 37.9 37.9 0 003.95 1.53c.32.08.78.14 1.15.24h.17a4.402 4.402 0 102.73-8.37 5.32 5.32 0 00-.79-.18l-1.29-.28a37.29 37.29 0 00-4.22-.33 42 42 0 01-7.87-1.29 5.1 5.1 0 01-1.9-1.9l-1.77-.53a57 57 0 00-9.13-39.49l1.55-1.44a3.44 3.44 0 01.82-2.49 40.6 40.6 0 016.53-4.59 35.69 35.69 0 003.64-2.13l1-.77a4.423 4.423 0 00-4.66-7.52 5 5 0 00-.81.65l-1 .77a39.89 39.89 0 00-2.89 3.07 40.49 40.49 0 01-5.75 5.43 5 5 0 01-2.66.28l-1.67 1.19a57.57 57.57 0 00-36.47-17.6c0-.57-.09-1.63-.11-1.95a3.48 3.48 0 01-1.43-2.19 40 40 0 01.5-8 36.73 36.73 0 00.6-4.17v-1.21a4.65 4.65 0 00-4.32-4.88z" fill="none" stroke="#fff" stroke-miterlimit="10" stroke-width=".29"/><path data-name="Tracé 5627" d="M718.84 127.85a13.6 13.6 0 005.41-.74 2.86 2.86 0 001.58-2.88 3.55 3.55 0 00-2.05-2.88 39.2 39.2 0 00-6.25-2.87c-2-.74-4-1.59-5.93-2.52a17.84 17.84 0 01-4.53-3.12 12.84 12.84 0 01-2.88-4.32 16.47 16.47 0 01-1-6.06 13.12 13.12 0 015.13-10.91 22.19 22.19 0 0114.09-4 44.71 44.71 0 018.63.8 38.76 38.76 0 016.53 1.72l-2.42 10.83a50.73 50.73 0 00-5.31-1.48 28 28 0 00-6.38-.64c-4.36 0-6.54 1.2-6.54 3.64a3.51 3.51 0 00.28 1.43 3.11 3.11 0 001.11 1.25 13.6 13.6 0 002.28 1.31 36.07 36.07 0 003.69 1.56 57.87 57.87 0 017.56 3.35 18 18 0 014.7 3.56 10.9 10.9 0 012.41 4.23 18.53 18.53 0 01.71 5.39 12.44 12.44 0 01-5.45 11 27.52 27.52 0 01-15.43 3.73 44.09 44.09 0 01-10.86-1.11 46.52 46.52 0 01-6-1.85l2.33-11.29a46.3 46.3 0 007.26 2.19 35.38 35.38 0 007.32.74m-38.18-19.5a14 14 0 00-.61-3.45 8.48 8.48 0 00-1.58-3 8.07 8.07 0 00-2.71-2.14 8.58 8.58 0 00-4-.84 9.29 9.29 0 00-4 .79 8.42 8.42 0 00-2.86 2.09 9.32 9.32 0 00-1.73 3 20.18 20.18 0 00-.89 3.5zm-32.66 5.32a29.9 29.9 0 012-11.42 24.27 24.27 0 015.27-8.16 22 22 0 017.51-4.88 23.45 23.45 0 018.72-1.69A21.67 21.67 0 01688 93.97a26.32 26.32 0 016 18.76c0 .8 0 1.69-.1 2.66s-.12 1.81-.18 2.56h-31.51a9.24 9.24 0 004 6.8 16.12 16.12 0 009.51 2.52 40.29 40.29 0 007.51-.7 27.92 27.92 0 006-1.73l1.86 11.28a19.64 19.64 0 01-3 1.11c-1.36.39-2.75.72-4.14 1s-3.16.52-4.89.71a48 48 0 01-5.22.28 31 31 0 01-11.52-2 22.38 22.38 0 01-8.12-5.37 21.4 21.4 0 01-4.82-8.06 32.51 32.51 0 01-1.52-10.08zm-38-37.16l13.9-2.23v14.4h16.69v11.49h-16.69v17.27a13.74 13.74 0 001.55 7 6.59 6.59 0 006.18 2.59 26.45 26.45 0 004.62-.41 24.85 24.85 0 004.32-1.17l1.95 10.81a38 38 0 01-5.6 1.78 32.51 32.51 0 01-7.55.74 25 25 0 01-9.42-1.52 14.83 14.83 0 01-6-4.31 16 16 0 01-3.1-6.69 39.1 39.1 0 01-.9-8.63V76.55zm-23.67 31.75a14.51 14.51 0 00-.6-3.46 8.67 8.67 0 00-1.59-3 8.4 8.4 0 00-2.7-2.14 8.77 8.77 0 00-4.06-.84 9.21 9.21 0 00-4 .79 8.52 8.52 0 00-2.8 2.11 9.12 9.12 0 00-1.72 3 21.16 21.16 0 00-.9 3.5h18.38zm-32.63 5.32a30.12 30.12 0 012-11.43 24.33 24.33 0 015.27-8.15 21.77 21.77 0 017.45-4.89 23.52 23.52 0 018.72-1.68 21.66 21.66 0 0116.51 6.38 26.43 26.43 0 016.05 18.8c0 .8 0 1.69-.11 2.66s-.13 1.82-.18 2.56h-31.51a9.23 9.23 0 004 6.82 16.15 16.15 0 009.52 2.51 40.29 40.29 0 007.51-.7 27.39 27.39 0 006-1.74l1.92 11.33a18.49 18.49 0 01-3 1.11 36.62 36.62 0 01-4.14 1q-2.29.42-4.89.72a50.7 50.7 0 01-5.22.27 30.7 30.7 0 01-11.5-2 22.41 22.41 0 01-8.11-5.36 21.28 21.28 0 01-4.73-8.11 31.94 31.94 0 01-1.53-10.08zm-52.58-23.21a78.75 78.75 0 019.13-1.92 75.83 75.83 0 0111.75-.89 28.47 28.47 0 0110.43 1.7 15.47 15.47 0 016.58 4.61 17.93 17.93 0 013.45 7.08 38 38 0 011 9.13v27.73h-13.91v-26.06a18.75 18.75 0 00-1.77-9.5 7.2 7.2 0 00-6.62-2.79c-1 0-2 0-3.16.14s-2.15.21-3 .33v37.85h-13.9V90.47zm-9.8 10.62c-1.24-.31-2.68-.63-4.32-1a27.25 27.25 0 00-5.41-.51 25.17 25.17 0 00-3.12.22 17 17 0 00-2.74.52v37.41h-13.88V91.38a80.53 80.53 0 018.75-2.45 50.18 50.18 0 0111.25-1.17q1.11 0 2.7.15c1 .1 2.11.22 3.16.37s2.11.35 3.17.58a15 15 0 012.71.79zm-53.72 7.27a14.42 14.42 0 00-.6-3.45 8.67 8.67 0 00-1.59-3 8.13 8.13 0 00-2.7-2.14 8.77 8.77 0 00-4.06-.84 9.21 9.21 0 00-4 .79 8.25 8.25 0 00-2.79 2.11 9.32 9.32 0 00-1.73 3 19.32 19.32 0 00-.89 3.5h18.37zm-32.63 5.33a30.12 30.12 0 012-11.43 24.23 24.23 0 015.27-8.15 22 22 0 017.51-4.89 23.44 23.44 0 018.72-1.68 21.64 21.64 0 0116.5 6.38 26.34 26.34 0 016.05 18.8c0 .8 0 1.69-.08 2.66s-.12 1.82-.2 2.56h-31.51a9.23 9.23 0 004 6.82 16.06 16.06 0 009.51 2.51 39.28 39.28 0 007.5-.7 27.56 27.56 0 006-1.74l1.85 11.29a18.27 18.27 0 01-3 1.11 38.91 38.91 0 01-4.14 1q-2.31.42-4.89.72a50.74 50.74 0 01-5.23.27 30.65 30.65 0 01-11.49-2 22.36 22.36 0 01-8.12-5.36 21.26 21.26 0 01-4.75-8.08 31.85 31.85 0 01-1.58-10.11zm-22.54-.75q0-13.42-9.9-13.43a16 16 0 00-4.24.57 12.1 12.1 0 00-3.42 1.43v25.23a36.933 36.933 0 006.06.48 10 10 0 008.63-3.92 17 17 0 002.84-10.38zm14.16.37a31.2 31.2 0 01-1.74 10.66 22.46 22.46 0 01-5 8.12 21.9 21.9 0 01-8 5.19 29.85 29.85 0 01-10.83 1.81c-1.67 0-3.43-.07-5.26-.23s-3.63-.37-5.42-.6-3.46-.54-5.07-.89-3.06-.71-4.32-1.08V67.7l13.9-2.25v24.47a26.47 26.47 0 014.85-1.59 25.87 25.87 0 015.41-.55 22.09 22.09 0 019.24 1.81 18.08 18.08 0 016.72 5.19 23.49 23.49 0 014.1 8.08 36.65 36.65 0 011.4 10.46m-58.67 22.85a81.39 81.39 0 01-20.89 2.81 28.14 28.14 0 01-10.4-1.69 16 16 0 01-6.58-4.71 18.45 18.45 0 01-3.45-7.19 38.87 38.87 0 01-1-9.25V88.81h13.9v25.62a19.88 19.88 0 001.76 9.7 7.08 7.08 0 006.63 3c1 0 2 0 3.16-.15s2.15-.2 3-.32V88.77h13.9zm-81-29.76l4.24-4.64q2.19-2.42 4.25-4.77l3.88-4.49q1.81-2.13 3.12-3.71h16.53q-4.94 5.68-9.64 10.83t-10.3 10.69a62.86 62.86 0 015.75 6q3 3.5 5.76 7.19c1.85 2.47 3.55 5 5.13 7.49s2.86 4.77 3.9 6.82h-16c-1-1.63-2.1-3.42-3.4-5.38s-2.64-3.9-4-5.79-2.94-3.8-4.51-5.66a38.29 38.29 0 00-4.71-4.56v21.5h-13.9V67.72l13.9-2.23v40.93z"/></svg>