<svg id="Calque_1" data-name="Calque 1" xmlns="http://www.w3.org/2000/svg" viewBox="0 0 764 546.04"><defs><style>.cls-1{fill:#158ad8}.cls-2{fill:#022b52}</style></defs><path id="Tracé_5661" data-name="Tracé 5661" class="cls-1" d="M20.74 441.2h756.32v-4.39H20.74z" transform="translate(-18 -126.98)"/><path id="Tracé_5662" data-name="Tracé 5662" class="cls-1" d="M160.49 556.83L116.66 673h25.75l9.32-25.74H195l8.79 25.74h26.3L186.8 556.83zm12.6 28.5h.56l14.8 42.74H158.3z" transform="translate(-18 -126.98)"/><path id="Tracé_5663" data-name="Tracé 5663" class="cls-1" d="M348.48 556.83v21.38H383V673h25.77v-94.8h34.53v-21.37z" transform="translate(-18 -126.98)"/><path id="Tracé_5664" data-name="Tracé 5664" class="cls-1" d="M531 556.83v77.82h-.54l-48.23-77.82h-25.79V673h24.12v-77.83h.55L529.34 673h25.21V556.83z" transform="translate(-18 -126.98)"/><path id="Tracé_5665" data-name="Tracé 5665" class="cls-1" d="M577 556.83V673h88.24v-21.35h-62.46v-28.5h55.9v-19.74h-55.9v-25.2h60.84v-21.38z" transform="translate(-18 -126.98)"/><g id="Groupe_513" data-name="Groupe 513"><path id="Tracé_5666" data-name="Tracé 5666" class="cls-1" d="M46 611.64h19.68c11.51 0 22.47-2.75 22.47-17.54s-11-17.54-22.47-17.54H46zm-25.26-54.81H72.8c29.05 0 40 18.09 40 37.26 0 18.64-11 37.26-40 37.26H46V673H20.74z" transform="translate(-18 -126.98)"/></g><g id="Groupe_514" data-name="Groupe 514"><path id="Tracé_5667" data-name="Tracé 5667" class="cls-1" d="M265.72 609.44h28c11.51 0 17.53-4.93 17.53-16.44 0-11-6-15.89-17.53-15.89h-28zM240 556.83h62.48c20.83 0 34 14.25 34 31.79 0 13.7-5.48 24.11-18.09 29v.53c12.6 3.28 15.9 15.34 17 26.85.55 7.12 0 21.38 4.93 27.4H314.5c-2.74-7.12-2.74-18.63-3.83-28-1.67-11.96-6.58-17.4-19.17-17.4h-25.78v45.5H240z" transform="translate(-18 -126.98)"/></g><g id="Groupe_515" data-name="Groupe 515"><path id="Tracé_5668" data-name="Tracé 5668" class="cls-1" d="M708 609.44h28c11.51 0 17.53-4.93 17.53-16.44 0-11-6-15.89-17.53-15.89h-28zm-25.76-52.61h62.49c20.82 0 34 14.25 34 31.79 0 13.7-5.48 24.11-18.63 29v.53c12.61 3.28 15.89 15.34 17 26.85.55 7.12 0 21.38 4.93 27.4h-25.79c-2.75-7.12-2.75-18.63-3.84-28-1.64-12.06-6.57-17.54-19.17-17.54h-25.77v45.5H681.7V556.83z" transform="translate(-18 -126.98)"/></g><g id="Groupe_517" data-name="Groupe 517"><path id="Tracé_5670" data-name="Tracé 5670" class="cls-2" d="M38.28 473L18 523.4h5.48l6-15.9h23l6 15.9h4.93L43.76 473zm2.2 4.93l9.86 25.76H30.6z" transform="translate(-18 -126.98)"/></g><g id="Groupe_518" data-name="Groupe 518"><path id="Tracé_5671" data-name="Tracé 5671" class="cls-2" d="M111.17 473h40v3.83h-17.53v46.57h-4.93v-46.59h-17.54z" transform="translate(-18 -126.98)"/></g><g id="Groupe_519" data-name="Groupe 519"><path id="Tracé_5672" data-name="Tracé 5672" class="cls-2" d="M156.11 473H161v21.9h29.6V473h4.93v50.4h-4.93v-24.66H161v24.66h-4.93z" transform="translate(-18 -126.98)"/></g><path id="Tracé_5673" data-name="Tracé 5673" class="cls-2" d="M305.75 523.4h4.94V473h-4.94z" transform="translate(-18 -126.98)"/><g id="Groupe_520" data-name="Groupe 520"><path id="Tracé_5674" data-name="Tracé 5674" class="cls-2" d="M318.88 473h36.18v4.38l-33.43 42.2h34v3.83h-39.49V519l33.43-42.2h-30.69z" transform="translate(-18 -126.98)"/></g><g id="Groupe_521" data-name="Groupe 521"><path id="Tracé_5675" data-name="Tracé 5675" class="cls-2" d="M361.64 473h35.08v3.83h-30.15v18.63h27.94v3.84h-27.94v20.28h30.15v3.83h-35.08z" transform="translate(-18 -126.98)"/></g><g id="Groupe_522" data-name="Groupe 522"><path id="Tracé_5676" data-name="Tracé 5676" class="cls-2" d="M466.31 473h40v3.83h-17.53v46.57h-4.93v-46.59h-17.54z" transform="translate(-18 -126.98)"/></g><g id="Groupe_523" data-name="Groupe 523"><path id="Tracé_5677" data-name="Tracé 5677" class="cls-2" d="M565.51 503.67h19.73l-9.86-25.76zm7.67-30.67h5.49l19.72 50.42h-4.93l-6-15.89h-23l-6 15.89h-4.92z" transform="translate(-18 -126.98)"/></g><path id="Tracé_5678" data-name="Tracé 5678" class="cls-2" d="M603.32 523.4h4.94V473h-4.94z" transform="translate(-18 -126.98)"/><g id="Groupe_524" data-name="Groupe 524"><path id="Tracé_5679" data-name="Tracé 5679" class="cls-2" d="M618.67 473h4.93l29.6 42.74V473h4.93v50.4h-5.48l-29-42.75h-.54v42.75h-4.39z" transform="translate(-18 -126.98)"/></g><path id="Tracé_5680" data-name="Tracé 5680" class="cls-2" d="M668.54 523.4h4.94V473h-4.94z" transform="translate(-18 -126.98)"/><g id="Groupe_525" data-name="Groupe 525"><path id="Tracé_5681" data-name="Tracé 5681" class="cls-2" d="M683.89 473h5.48L719 515.72V473h4.93v50.4h-5.49l-29.6-42.75v42.75h-4.93z" transform="translate(-18 -126.98)"/></g><g id="Groupe_526" data-name="Groupe 526"><path id="Tracé_5682" data-name="Tracé 5682" class="cls-2" d="M67.87 473h4.93v31.23c0 11.51 5.49 16.44 14.8 16.44s14.81-4.38 14.81-16.44V473h4.93v32.33c0 10.41-5.49 19.17-19.74 19.17-13.7 0-19.73-8.76-19.73-19.17z" transform="translate(-18 -126.98)"/></g><g id="Groupe_527" data-name="Groupe 527"><path id="Tracé_5683" data-name="Tracé 5683" class="cls-2" d="M226.81 520.11c13.15 0 19.17-11 19.17-22.47 0-11-5.48-22.47-19.17-22.47-13.15 0-19.17 11-19.17 22.47.55 11.51 6 22.47 19.17 22.47m0-48.23c15.9 0 23.57 12.61 23.57 26.31s-7.67 26.31-23.57 26.31-23.57-12.62-23.57-26.31 7.68-26.31 23.57-26.31" transform="translate(-18 -126.98)"/></g><g id="Groupe_528" data-name="Groupe 528"><path id="Tracé_5684" data-name="Tracé 5684" class="cls-2" d="M263 497.09h18.09a10.13 10.13 0 0010.91-9.26 6.08 6.08 0 000-.61c0-6-3.84-9.87-11-9.87h-18zM258.05 473h23c8.22 0 15.35 3.83 15.35 13.15a11.57 11.57 0 01-9.87 12.6c6.58 1.09 8.22 5.49 8.77 11.51 0 3.29 0 10.41 2.17 13.16H292a17.49 17.49 0 01-1.08-7.68c-.55-7.12-1.09-14.79-9.87-14.79H263v22.45h-4.94z" transform="translate(-18 -126.98)"/></g><g id="Groupe_529" data-name="Groupe 529"><path id="Tracé_5685" data-name="Tracé 5685" class="cls-2" d="M408.22 519.56h10.41c14.25 0 20.82-6 20.82-21.37s-6-21.38-20.82-21.38h-10.41zM403.83 473h17.54c15.34.55 23 8.76 23 25.21s-7.68 24.66-23 25.21h-17.54z" transform="translate(-18 -126.98)"/></g><g id="Groupe_530" data-name="Groupe 530"><path id="Tracé_5686" data-name="Tracé 5686" class="cls-2" d="M515.64 497.09h18.09a10.13 10.13 0 0010.94-9.24v-.63c0-6-3.85-9.87-11-9.87h-18.04zM511.25 473h23c8.21 0 15.34 3.83 15.34 13.15a11.57 11.57 0 01-9.87 12.6c6.58 1.09 8.22 5.49 8.77 11.51 0 3.29 0 10.41 2.19 13.16h-5.48a17.49 17.49 0 01-1.08-7.68c-.55-7.12-1.09-14.79-9.86-14.79H516.2v22.45h-5z" transform="translate(-18 -126.98)"/></g><g id="Groupe_531" data-name="Groupe 531"><path id="Tracé_5687" data-name="Tracé 5687" class="cls-2" d="M777.06 523.4h-3.29l-.55-9.32a18.68 18.68 0 01-17.54 10.42c-15.89 0-23.56-12.62-23.56-26.31s7.67-26.31 23.56-26.31c10.42 0 19.18 5.48 20.84 17h-4.95c-.54-6.05-6.56-12.62-16.43-12.62-13.16 0-19.18 11-19.18 22.47 0 11 5.49 22.47 19.18 22.47 11 0 17.53-7.67 17.53-18.63h-17v-4.94h21.38z" transform="translate(-18 -126.98)"/></g><g id="Groupe_533" data-name="Groupe 533"><path id="Tracé_5689" data-name="Tracé 5689" class="cls-2" d="M312.31 127.53v4.93H332v50.42h5v-50.42h19.17v-4.93z" transform="translate(-18 -126.98)"/></g><g id="Groupe_534" data-name="Groupe 534"><path id="Tracé_5690" data-name="Tracé 5690" class="cls-2" d="M399.45 127.53v24.11h-32.33v-24.11h-5.49v55.35h5.49V156h32.33v26.85h5.48v-55.32z" transform="translate(-18 -126.98)"/></g><g id="Groupe_535" data-name="Groupe 535"><path id="Tracé_5691" data-name="Tracé 5691" class="cls-2" d="M415.89 127.53v55.35h38.92v-4.38h-33.44v-21.93h30.69v-4.38h-30.69v-19.73h32.86v-4.93z" transform="translate(-18 -126.98)"/></g><g id="Groupe_536" data-name="Groupe 536"><path id="Tracé_5692" data-name="Tracé 5692" class="cls-2" d="M312.31 320.44h35.09v4.39h-29.61v19.72h26.31v4.94h-26.31v26.3h-5.48z" transform="translate(-18 -126.98)"/></g><g id="Groupe_537" data-name="Groupe 537"><path id="Tracé_5693" data-name="Tracé 5693" class="cls-2" d="M377.53 319.35c17.53 0 25.76 13.7 25.76 29s-8.77 29-25.76 29c-17.54 0-26.31-13.7-26.31-29s8.77-29 26.31-29m0 53.18c14.79 0 20.82-12.06 20.82-24.12s-6-24.13-20.82-24.13-20.83 12.07-20.83 24.12c0 11.51 6 24.13 20.83 24.13" transform="translate(-18 -126.98)"/></g><g id="Groupe_538" data-name="Groupe 538"><path id="Tracé_5694" data-name="Tracé 5694" class="cls-2" d="M411 320.44h5.48v34c0 12.61 6 17.54 16.44 17.54s16.38-4.98 16.38-17.56v-34h5.48v35.63c0 11.51-6 20.82-21.37 20.82S412 367 412 356.07v-35.63z" transform="translate(-18 -126.98)"/></g><g id="Groupe_540" data-name="Groupe 540"><path id="Tracé_5696" data-name="Tracé 5696" class="cls-2" d="M464.67 320.44h6L502.48 367h.52v-46.56h4.93v55.35h-6l-31.78-47.12h-.55v47.12h-4.93z" transform="translate(-18 -126.98)"/></g><g id="Groupe_541" data-name="Groupe 541"><path id="Tracé_5697" data-name="Tracé 5697" class="cls-2" d="M518.93 320.44h19.17c17 .55 25.21 9.32 25.21 27.41s-8.76 27.4-25.21 27.4h-19.17zm5.48 51h11.52c15.89 0 23-6.58 23-23s-7.13-23-23-23h-11.52z" transform="translate(-18 -126.98)"/></g><g id="Groupe_543" data-name="Groupe 543"><path id="Tracé_5699" data-name="Tracé 5699" class="cls-2" d="M588.53 320.44h6l21.92 55.35H611l-6.57-17h-25.76l-6.57 17h-5.5zm-8.23 33.44h21.93l-11-28.51z" transform="translate(-18 -126.98)"/></g><g id="Groupe_544" data-name="Groupe 544"><path id="Tracé_5700" data-name="Tracé 5700" class="cls-2" d="M609.9 320.44h43.85v4.39h-19.17v51h-5.5v-51H609.9z" transform="translate(-18 -126.98)"/></g><path id="Tracé_5701" data-name="Tracé 5701" class="cls-2" d="M659.24 375.8h5.49v-55.35h-5.49z" transform="translate(-18 -126.98)"/><g id="Groupe_545" data-name="Groupe 545"><path id="Tracé_5702" data-name="Tracé 5702" class="cls-2" d="M699.24 319.35c17.53 0 26.3 13.7 26.3 29s-8.76 29-26.3 29-26.31-13.7-26.31-29 8.77-29 26.31-29m0 53.18c14.79 0 20.82-12.06 20.82-24.12s-6-24.13-20.82-24.13-20.83 12.07-20.83 24.12c0 11.51 6 24.13 20.83 24.13" transform="translate(-18 -126.98)"/></g><g id="Groupe_547" data-name="Groupe 547"><path id="Tracé_5704" data-name="Tracé 5704" class="cls-2" d="M733.22 320.44h6L771.56 367v-46.56H777v55.35h-6l-32.3-47.12v47.12h-5.48z" transform="translate(-18 -126.98)"/></g><g id="Groupe_548" data-name="Groupe 548"><path id="Tracé_5705" data-name="Tracé 5705" class="cls-2" d="M312.31 199.32H343v74h43.85v25.22h-74.54z" transform="translate(-18 -126.98)"/></g><path id="Tracé_5706" data-name="Tracé 5706" class="cls-2" d="M406.57 199.32h30.69v99.21h-30.69z" transform="translate(-18 -126.98)"/><g id="Groupe_549" data-name="Groupe 549"><path id="Tracé_5707" data-name="Tracé 5707" class="cls-2" d="M460.28 199.32H491l29 53.18h.55v-53.18h28.49v99.21h-29.57l-30.14-54.27h-.55v54.27h-28.5z" transform="translate(-18 -126.98)"/></g><g id="Groupe_550" data-name="Groupe 550"><path id="Tracé_5708" data-name="Tracé 5708" class="cls-2" d="M662 260.16c0 27.41-14.8 40.56-44.94 40.56-30.69 0-44.94-13.15-44.94-40.56v-60.83h30.69V253c0 9.87 0 22.47 14.8 22.47 14.24 0 14.24-12.6 14.24-22.47v-53.7h30.7v60.83z" transform="translate(-18 -126.98)"/></g><g id="Groupe_552" data-name="Groupe 552"><path id="Tracé_5710" data-name="Tracé 5710" class="cls-2" d="M743.08 199.32l-14.8 26.86-14.79-26.86h-35.63l32.33 46.58-35.61 52.62h35.06l17.56-29.6 16.44 29.6h36.7l-35.06-52.62 31.77-46.58z" transform="translate(-18 -126.98)"/></g><g id="Groupe_553" data-name="Groupe 553"><path id="Tracé_5711" data-name="Tracé 5711" class="cls-1" d="M20.74 226.18V375.8h149.08v-49.88h-99.2v-99.74z" transform="translate(-18 -126.98)"/></g><g id="Groupe_554" data-name="Groupe 554"><path id="Tracé_5712" data-name="Tracé 5712" class="cls-2" d="M20.74 127v74.54h49.88v-24.68h149.07v149.06H195v49.88h74.54V127z" transform="translate(-18 -126.98)"/></g></svg>