<svg id="Calque_1" data-name="Calque 1" xmlns="http://www.w3.org/2000/svg" viewBox="0 0 778.39 313.44"><defs><clipPath id="clip-path" transform="translate(-10.8 -243.3)"><path fill="none" d="M10.82 243.3H789.2v313.4H10.82z"/></clipPath><style>.cls-2{fill:#002b52}.cls-3{clip-path:url(#clip-path)}.cls-4{fill:#008ad8}</style></defs><path id="Tracé_5598" data-name="Tracé 5598" class="cls-2" d="M250 383.06h40.43v5.17h-34.34v23h30.51v5.18h-30.51v30.34H250z" transform="translate(-10.8 -243.3)"/><g class="cls-3" id="Groupe_466" data-name="Groupe 466"><g id="Groupe_465" data-name="Groupe 465"><path id="Tracé_5599" data-name="Tracé 5599" class="cls-2" d="M324.63 442.94c16.78 0 23.92-14.11 23.92-28s-7.14-28-23.92-28-24 14.1-24 28 7.15 28 24 28m0-61.22c20 0 30 15.71 30 33.19s-10 33.2-30 33.2-30.07-15.7-30.07-33.2 10-33.19 30.07-33.19" transform="translate(-10.8 -243.3)"/><path id="Tracé_5600" data-name="Tracé 5600" class="cls-2" d="M363.46 383.06h6.07v39.44c0 14.73 6.87 20.44 18.65 20.44s18.74-5.72 18.74-20.44v-39.44H413v40.78c0 13.12-7 24.27-24.81 24.27-17.57 0-24.72-11.15-24.72-24.27z" transform="translate(-10.8 -243.3)"/></g></g><path id="Tracé_5601" data-name="Tracé 5601" class="cls-2" d="M425.14 383.06h6.77L469 437h.18v-53.9h6.07v63.72h-6.75l-37.12-53.91h-.18v53.91h-6.06z" transform="translate(-10.8 -243.3)"/><g class="cls-3" id="Groupe_468" data-name="Groupe 468"><g id="Groupe_467" data-name="Groupe 467"><path id="Tracé_5602" data-name="Tracé 5602" class="cls-2" d="M494.13 441.6h12.94c18.3 0 26.24-7.59 26.24-26.68s-7.94-26.71-26.24-26.71h-12.94zm-6.07-58.54h22.05c19.28.44 29.26 10.8 29.26 31.86s-10 31.41-29.26 31.86h-22.05z" transform="translate(-10.8 -243.3)"/></g></g><path id="Tracé_5603" data-name="Tracé 5603" class="cls-2" d="M558.22 421.79h25.08L571 389.12zm9.64-38.73h6.77l25 63.72h-6.52L585.34 427h-29l-7.68 19.82h-6.51z" transform="translate(-10.8 -243.3)"/><path id="Tracé_5604" data-name="Tracé 5604" class="cls-2" d="M592.5 383.06H643v5.17h-22.21v58.55h-6.07v-58.55H592.5z" transform="translate(-10.8 -243.3)"/><path id="Rectangle_613" data-name="Rectangle 613" class="cls-2" d="M638.64 139.76h6.07v63.72h-6.07z"/><g class="cls-3" id="Groupe_470" data-name="Groupe 470"><g id="Groupe_469" data-name="Groupe 469"><path id="Tracé_5605" data-name="Tracé 5605" class="cls-2" d="M695.49 442.94c16.78 0 23.92-14.11 23.92-28s-7.14-28-23.92-28-24 14.1-24 28 7.15 28 24 28m0-61.22c20 0 30 15.71 30 33.19s-10 33.2-30 33.2-30.07-15.7-30.07-33.2 10-33.19 30.07-33.19" transform="translate(-10.8 -243.3)"/></g></g><path id="Tracé_5606" data-name="Tracé 5606" class="cls-2" d="M778.94 383.06V437h-.18l-37.12-53.9h-6.79v63.72h6.08v-53.95h.17l37.13 53.91H785v-63.72z" transform="translate(-10.8 -243.3)"/><path id="Tracé_5607" data-name="Tracé 5607" class="cls-2" d="M250 243.9v114h85.6v-29.2h-50.46v-84.8z" transform="translate(-10.8 -243.3)"/><path id="Rectangle_615" data-name="Rectangle 615" class="cls-2" d="M347.79.61h35.13v114h-35.13z"/><path id="Tracé_5608" data-name="Tracé 5608" class="cls-2" d="M489.36 243.9v61H489l-33.22-61H419.9v114h33.21v-62.26h.32l35 62.27h34.18v-114z" transform="translate(-10.8 -243.3)"/><g class="cls-3" id="Groupe_472" data-name="Groupe 472"><g id="Groupe_471" data-name="Groupe 471"><path id="Tracé_5609" data-name="Tracé 5609" class="cls-2" d="M652.37 313.84c0 31.79-16.77 46.79-51.89 46.79s-52.06-15-52.06-46.79v-69.93h35.13V306c0 11.49-.16 26.18 17.08 26.18 16.61 0 16.61-14.69 16.61-26.18v-62.09h35.13z" transform="translate(-10.8 -243.3)"/></g></g><path id="Tracé_5610" data-name="Tracé 5610" class="cls-2" d="M746.09 243.9l-16.93 31-17.25-31h-41.19l37.53 53.33-41.2 60.68h40.23l20.12-34 19.49 34h42.31l-40.72-60.35L785 243.9z" transform="translate(-10.8 -243.3)"/><path id="Tracé_5611" data-name="Tracé 5611" class="cls-4" d="M10.8 324.88v122.29h122.33v-40.78H51.64v-81.51z" transform="translate(-10.8 -243.3)"/><path id="Tracé_5612" data-name="Tracé 5612" class="cls-2" d="M10.85 243.3v61.15H51.6v-20.2h122.29v122.14h-20.34v40.77h61.1V243.3z" transform="translate(-10.8 -243.3)"/><g class="cls-3" id="Groupe_474" data-name="Groupe 474"><g id="Groupe_473" data-name="Groupe 473"><path id="Ligne_57" data-name="Ligne 57" stroke="#002b52" stroke-miterlimit="10" stroke-width="2.99" fill="none" d="M.17 235.08h774.28"/><path id="Tracé_5613" data-name="Tracé 5613" class="cls-4" d="M41.84 543a12.13 12.13 0 01-4.66 10 20.23 20.23 0 01-12.82 3.67A30.7 30.7 0 0111 554.16v-7.45a36.25 36.25 0 007 2.44 29.29 29.29 0 006.91.89 11 11 0 006.9-1.78A5.8 5.8 0 0034 543.5a6 6 0 00-2-4.59 30.34 30.34 0 00-8.44-4.45 22.25 22.25 0 01-9.3-6.1 12.87 12.87 0 01-2.71-8.24 11.58 11.58 0 014.29-9.51 17.7 17.7 0 0111.5-3.46 33.81 33.81 0 0113.79 3l-2.5 6.44a29.8 29.8 0 00-11.48-2.71 8.78 8.78 0 00-5.8 1.66 5.49 5.49 0 00-2 4.41 6.22 6.22 0 00.79 3.21 8.09 8.09 0 002.61 2.53 43.87 43.87 0 006.52 3.13 35.28 35.28 0 017.79 4.18 12.2 12.2 0 013.63 4.31 13 13 0 011.15 5.69" transform="translate(-10.8 -243.3)"/></g></g><path id="Rectangle_618" data-name="Rectangle 618" class="cls-4" d="M61.51 264.53h7.88v48.22h-7.88z"/><path id="Tracé_5614" data-name="Tracé 5614" class="cls-4" d="M114.06 507.83v48.22h28.29v-6.78h-20.41v-41.45z" transform="translate(-10.8 -243.3)"/><g class="cls-3" id="Groupe_476" data-name="Groupe 476"><g id="Groupe_475" data-name="Groupe 475"><path id="Tracé_5615" data-name="Tracé 5615" class="cls-4" d="M199.27 507.83h8.18L190.57 556h-8.31l-16.82-48.21h8.11l10.06 30q.79 2.15 1.68 5.52c.6 2.24 1 3.93 1.16 5 .29-1.67.72-3.61 1.32-5.81s1.08-3.81 1.45-4.87z" transform="translate(-10.8 -243.3)"/></g></g><path id="Tracé_5616" data-name="Tracé 5616" class="cls-4" d="M235 507.83v48.22h27.28v-6.7h-19.44v-15.14H261v-6.6h-18.16v-13.12h19.39v-6.67z" transform="translate(-10.8 -243.3)"/><g class="cls-3" id="Groupe_478" data-name="Groupe 478"><g id="Groupe_477" data-name="Groupe 477"><path id="Tracé_5617" data-name="Tracé 5617" class="cls-4" d="M301.67 530.26h5.48a12.59 12.59 0 008-2 7.44 7.44 0 002.47-6.07 6.52 6.52 0 00-2.66-5.87 14.79 14.79 0 00-8.06-1.79h-5.21zm0 6.52V556h-7.88v-48.17h13.62a22.27 22.27 0 0113.82 3.5 12.54 12.54 0 014.49 10.55 13.22 13.22 0 01-9.37 12.83L330 556h-9l-11.54-19.26z" transform="translate(-10.8 -243.3)"/><path id="Tracé_5618" data-name="Tracé 5618" class="cls-4" d="M417.62 556l-14-40.27h-.27q.57 9 .56 16.82V556h-7.15v-48.17h11.11l13.39 38.35h.19l13.78-38.35h11.17V556h-7.59v-23.8c0-2.39.06-5.52.18-9.36s.23-6.18.32-7h-.26L424.57 556z" transform="translate(-10.8 -243.3)"/></g></g><path id="Tracé_5619" data-name="Tracé 5619" class="cls-4" d="M480.25 507.83v48.22h27.28v-6.7h-19.39v-15.14h18.17v-6.6h-18.17v-13.12h19.39v-6.67z" transform="translate(-10.8 -243.3)"/><g class="cls-3" id="Groupe_480" data-name="Groupe 480"><g id="Groupe_479" data-name="Groupe 479"><path id="Tracé_5620" data-name="Tracé 5620" class="cls-4" d="M559.92 556l-14-40.27h-.27q.57 9 .56 16.82V556h-7.15v-48.17h11.11l13.39 38.35h.2l13.79-38.35h11.14V556h-7.59v-23.8c0-2.39.06-5.52.19-9.36s.22-6.18.31-7h-.26L566.89 556z" transform="translate(-10.8 -243.3)"/><path id="Tracé_5621" data-name="Tracé 5621" class="cls-4" d="M630.43 534.14v15.28h8.38a12.31 12.31 0 007.47-1.91 7 7 0 002.53-6 6.36 6.36 0 00-2.58-5.57 13.59 13.59 0 00-7.81-1.82zm0-6.39H638a13 13 0 007.22-1.57 6 6 0 002.27-5.32 5.32 5.32 0 00-2.46-4.92 15.31 15.31 0 00-7.79-1.51h-6.83zm-7.88-19.92h14.3a27.2 27.2 0 0114.4 2.9 10.16 10.16 0 014.45 9.17 11.06 11.06 0 01-2.18 7 9.74 9.74 0 01-6.26 3.54v.31a12.43 12.43 0 017.47 3.78 11.41 11.41 0 012.39 7.63 12.4 12.4 0 01-4.53 10.17A19.52 19.52 0 01640 556h-17.44z" transform="translate(-10.8 -243.3)"/></g></g><path id="Tracé_5622" data-name="Tracé 5622" class="cls-4" d="M688.27 507.83v48.22h27.28v-6.7h-19.39v-15.14h18.16v-6.6h-18.16v-13.12h19.39v-6.67z" transform="translate(-10.8 -243.3)"/><g class="cls-3" id="Groupe_482" data-name="Groupe 482"><g id="Groupe_481" data-name="Groupe 481"><path id="Tracé_5623" data-name="Tracé 5623" class="cls-4" d="M755 530.26h5.48a12.57 12.57 0 008-2 7.44 7.44 0 002.47-6.07 6.52 6.52 0 00-2.66-5.87 14.79 14.79 0 00-8.06-1.79H755zm0 6.52V556h-7.88v-48.17h13.62a22.27 22.27 0 0113.82 3.5 12.54 12.54 0 014.44 10.55 13.22 13.22 0 01-9.37 12.83L783.29 556h-9l-11.55-19.26z" transform="translate(-10.8 -243.3)"/></g></g></svg>