<svg xmlns="http://www.w3.org/2000/svg" width="190.783" height="35.558" viewBox="0 0 190.783 35.558"><path d="M15.626 30.316q-.605-1.455-1.253-2.892l-1.678-3.733c-.6-1.343-1.25-2.744-1.866-4.182s-1.324-2.8-1.866-4.087-1.149-2.427-1.678-3.434-.961-1.866-1.25-2.313q-.531 5.6-.859 12.112T4.6 34.848H0c.126-2.833.259-5.707.428-8.6s.333-5.731.539-8.528.428-5.6.671-8.176.49-5.174.785-7.474h4.025q1.266 2.111 2.744 4.931c.967 1.863 1.866 3.877 2.929 5.941s1.863 4.145 2.855 6.215l2.5 5.6q1.141-2.555 2.522-5.6c.912-2.07 1.866-4.142 2.833-6.215s1.962-4.05 2.95-5.953 1.866-3.529 2.744-4.927h4.025q1.625 15.911 2.425 32.846h-4.517q-.222-6.643-.557-13.064-.3-6.061-.859-12.112c-.32.524-.73 1.309-1.25 2.313s-1.084 2.168-1.678 3.437-1.253 2.648-1.866 4.087-1.327 2.839-1.866 4.179l-1.681 3.735q-.656 1.437-1.272 2.892zM43.605 5.784a2.8 2.8 0 01-2.014-.782 3.113 3.113 0 010-4.216 2.815 2.815 0 012.014-.785 2.86 2.86 0 012.014.785 3.113 3.113 0 010 4.216 2.835 2.835 0 01-2.018.771zm2.224 29.1h-4.41V10.219h4.41zm17.822.56a13.46 13.46 0 01-5.245-.958 10.568 10.568 0 01-3.731-2.654 10.912 10.912 0 01-2.3-4.05 16.878 16.878 0 01-.822-5.208 15.578 15.578 0 01.838-5.229 12.147 12.147 0 012.356-4.105 10.406 10.406 0 013.728-2.683 11.968 11.968 0 014.912-.97 19.874 19.874 0 013.227.3 15.137 15.137 0 013.172.893l-.989 3.733a10.749 10.749 0 00-2.183-.745 13.019 13.019 0 00-2.762-.28 7.035 7.035 0 00-5.6 2.316 10.281 10.281 0 00-2.092 6.769 13.858 13.858 0 00.447 3.733 7.6 7.6 0 001.417 2.855 6.422 6.422 0 002.5 1.866 9.388 9.388 0 003.736.653 14.09 14.09 0 003.172-.336 12.422 12.422 0 002.22-.708l.613 3.737a5.191 5.191 0 01-1.081.447 13.963 13.963 0 01-1.623.385l-1.866.3a17.6 17.6 0 01-2.054-.055zm19.95-25.733a11.544 11.544 0 011.306 0 12.16 12.16 0 011.457.191l1.306.222a7.852 7.852 0 01.881.225l-.767 3.843a13.794 13.794 0 00-4.835-.727 12.077 12.077 0 00-2.445.259l-1.589.357v20.704h-4.409V11.263a28.239 28.239 0 013.883-1.081 26.137 26.137 0 015.2-.487zm30.493 12.872a15.934 15.934 0 01-.822 5.282 12.106 12.106 0 01-2.427 4.047 10.594 10.594 0 01-3.733 2.636 12.279 12.279 0 01-9.334 0 10.544 10.544 0 01-3.729-2.636 12.05 12.05 0 01-2.39-4.065 16.776 16.776 0 010-10.6 11.894 11.894 0 012.538-3.994 10.52 10.52 0 013.733-2.633 12.279 12.279 0 019.334 0 10.536 10.536 0 013.729 2.633 11.958 11.958 0 012.279 4.01 15.865 15.865 0 01.816 5.309zm-4.555 0a10.574 10.574 0 00-1.864-6.61 6.529 6.529 0 00-9.18-1.01 6.375 6.375 0 00-1.007 1.01 10.549 10.549 0 00-1.866 6.606 10.53 10.53 0 001.866 6.606 6.53 6.53 0 0010.187 0 10.566 10.566 0 001.86-6.618zm34.88-20.529c-.97 1.081-2.07 2.279-3.32 3.582s-2.522 2.648-3.862 4.025l-3.993 4.012-3.733 3.733a42.546 42.546 0 014.293 3.471c1.534 1.4 3 2.873 4.456 4.459s2.821 3.191 4.108 4.832a44 44 0 013.187 4.684h-5.392a50.133 50.133 0 00-3.283-4.478q-1.852-2.245-3.9-4.311a40.144 40.144 0 00-4.185-3.736 35.575 35.575 0 00-4.087-2.984v15.584h-4.6V2.045h4.6v14.5c1.1-1.032 2.313-2.223 3.733-3.529s2.648-2.63 3.936-3.954l3.736-3.736q1.5-1.566 2.913-3.209zm25.084 24.261a9.45 9.45 0 01-.69 3.733 8.224 8.224 0 01-2.036 2.95 9.515 9.515 0 01-3.394 1.863 14.747 14.747 0 01-4.684.69 13.381 13.381 0 01-5.152-.878 9.578 9.578 0 01-3.283-2.22 7.627 7.627 0 01-1.755-2.91 9.331 9.331 0 01-.52-3.006 7.832 7.832 0 01.447-2.633 10.824 10.824 0 011.176-2.35 11.136 11.136 0 011.725-1.866 15.468 15.468 0 012.054-1.549 8.471 8.471 0 01-4.663-7.884 8.315 8.315 0 01.711-3.437 8.5 8.5 0 012.036-2.91 9.591 9.591 0 013.135-1.866 11.237 11.237 0 014.127-.73 11.529 11.529 0 014.552.73 9.459 9.459 0 013.117 2.051 8.088 8.088 0 011.755 2.784 8.9 8.9 0 01.539 2.932 7.891 7.891 0 01-.41 2.593 9.732 9.732 0 01-2.652 4.087 13.152 13.152 0 01-1.863 1.435 8.924 8.924 0 015.728 8.383zm-17.04.3a5.574 5.574 0 00.3 1.866 4.484 4.484 0 001.062 1.7 6.261 6.261 0 001.866 1.306 7.445 7.445 0 002.987.524 7.8 7.8 0 002.836-.465 5.974 5.974 0 001.961-1.217 4.885 4.885 0 001.143-1.678 5.472 5.472 0 00.37-1.869 5.965 5.965 0 00-.56-2.648 6.129 6.129 0 00-1.641-1.977 9.643 9.643 0 00-2.556-1.454 24.281 24.281 0 00-3.4-1.029 9.238 9.238 0 00-3.283 2.95 7.277 7.277 0 00-1.081 3.994zm11.85-16.793a4.994 4.994 0 00-1.287-3.154 5.582 5.582 0 00-1.7-1.232 5.972 5.972 0 00-2.575-.505 6.25 6.25 0 00-2.575.487 5.2 5.2 0 00-1.74 1.192 4.744 4.744 0 00-.961 1.622 5.068 5.068 0 00-.3 1.725 5.772 5.772 0 00.373 2.091 5.967 5.967 0 001.176 1.866 8.44 8.44 0 002.106 1.626 13.556 13.556 0 003.117 1.139 10.865 10.865 0 003.157-2.8 6.85 6.85 0 001.176-4.09zm16.849 21.872a8.624 8.624 0 004.013-.711 2.411 2.411 0 001.29-2.276 3.066 3.066 0 00-1.272-2.559 20.136 20.136 0 00-4.216-2.128 88.471 88.471 0 01-2.725-1.149 10.55 10.55 0 01-2.257-1.4 5.939 5.939 0 01-2.091-4.74 6.233 6.233 0 012.427-5.186 10.237 10.237 0 016.587-1.866 19.774 19.774 0 012.091.111 8.9 8.9 0 011.866.28c.524.114 1.118.225 1.586.354l1.063.336-.8 3.733a12.466 12.466 0 00-2.236-.8 14.779 14.779 0 00-3.733-.394 6.828 6.828 0 00-3.231.733 2.4 2.4 0 00-1.361 2.3 3.02 3.02 0 00.3 1.42 3.164 3.164 0 00.958 1.118 8.465 8.465 0 001.589.933c.634.28 1.38.573 2.273.893s2.205.881 3.117 1.309a9.349 9.349 0 012.353 1.494 5.437 5.437 0 011.494 2.054 7.455 7.455 0 01.52 2.966 5.875 5.875 0 01-2.368 5.266 12.531 12.531 0 01-7.222 1.752 19.277 19.277 0 01-5.109-.539q-1.871-.564-2.522-.844l.8-3.733 2.427.859a14.172 14.172 0 004.395.4z" style="isolation:isolate" fill="#82aafd"/></svg>