<svg id="Calque_1" data-name="Calque 1" xmlns="http://www.w3.org/2000/svg" viewBox="0 0 741.52 275.5"><defs><style>.cls-1{fill:#035cd9}</style></defs><path id="Tracé_5648" data-name="Tracé 5648" class="cls-1" d="M590 505.58a13.63 13.63 0 00-3.1-9.67 9.75 9.75 0 00-8.28-3.6 11.4 11.4 0 00-8.81 3.6 15.23 15.23 0 00-4.15 9.67zm11.41 8.15h-35.72a14.2 14.2 0 004.66 11.27 16.8 16.8 0 0011.92 4 24.79 24.79 0 0015.59-5.1v9.17a33.62 33.62 0 01-18.71 4.62 24.38 24.38 0 01-18.15-7.17 26.53 26.53 0 01-6.74-19.86 27.11 27.11 0 017.2-19.36 23.67 23.67 0 0118.12-7.65 20.75 20.75 0 0116.59 6.61 26.56 26.56 0 015.68 18.83zm-52.82-17.82a11.2 11.2 0 00-6.22-1.52 10.92 10.92 0 00-8.81 4.57A18.85 18.85 0 00530 511.7v24.45h-11.94v-51.46H530v10.7a20.69 20.69 0 015.17-8.66 11.83 11.83 0 018.19-3.05 10.55 10.55 0 014.66 1zM503 536.14h-11.89V528a17.35 17.35 0 01-16.11 9.18c-12.42 0-18.65-7.14-18.65-21.91v-30.58h11.92v29.54q0 13.75 10.87 13.76a11.48 11.48 0 008.81-3.6 16.22 16.22 0 003.6-10.19v-29.51h11.9zm-55.87-46.38l-28 37.16h28v9.18h-44.61v-4.51l29-37.72h-25.86v-9.17h41.95v5.05zm-70.51 18.37l-10.35-28.52a30.86 30.86 0 01-1-4.57 32.44 32.44 0 01-1 4.57l-9.85 28.52zm23.33 28H386.5l-6.74-18.33h-29l-6.23 18.35h-13.47l27.46-71.82h13.42zm370.81-106.26a22.14 22.14 0 01-9.32 1.51c-10.36 0-15-4.57-15-14.26v-29h-8.81v-9.17h8.81V367.2l11.91-3.05v15.28h12.43v9.17h-12.5v25.5a11.45 11.45 0 001.56 6.62 6.5 6.5 0 005.7 2 8.82 8.82 0 005.16-1.59v8.66zm-34.21-65.72a10.57 10.57 0 00-5.7-1.51c-5.69 0-8.81 3.05-8.81 9.67v7.13H734v9.17h-12v42.32h-11.84v-42.34h-8.81v-9.18h8.81v-8.15a15.42 15.42 0 015.17-12.73 22.26 22.26 0 0120.19-3.59v9.17h1zm-67.82 23a13.47 13.47 0 00-10.87 4.59 20.21 20.21 0 00-4.15 13.19 19 19 0 004.15 12.73 15.22 15.22 0 0021.51.24l.24-.24a19.4 19.4 0 003.6-13.19 20.17 20.17 0 00-3.6-13.19 15 15 0 00-10.9-4.16zm-.51 44.83a24.65 24.65 0 01-26.35-22.82 23.65 23.65 0 010-3.15 25.82 25.82 0 0123.9-27.6 25.14 25.14 0 014.07 0 25.86 25.86 0 0119.16 7.18 26.64 26.64 0 016.74 19.87 28.64 28.64 0 01-7.2 19.86 33 33 0 01-20.39 6.68zm-72-3.09v-10.76a26.4 26.4 0 0014.51 5.09q10.86 0 10.86-6.12a7.14 7.14 0 00-1-3.06 5.15 5.15 0 00-2.58-2 24.9 24.9 0 00-3.61-1.53l-4.7-1.51a59.48 59.48 0 01-5.7-2.6 29.23 29.23 0 01-4.14-3 11.19 11.19 0 01-2.59-4.07 15.15 15.15 0 01-1-5.1 14 14 0 011.56-6.62 10.13 10.13 0 014.67-4.59 27.78 27.78 0 016.73-3.05 40.85 40.85 0 017.78-1 34.62 34.62 0 0112.91 2.03v10.2a21 21 0 00-12.42-3.59 10.23 10.23 0 00-4.15.5c-1 .5-2.07.5-3.11 1a4 4 0 00-2.08 2.05 4.57 4.57 0 00-.51 2.54 6.41 6.41 0 00.51 3.06 4 4 0 002.08 2 24.32 24.32 0 003.6 1.53c1.55.5 2.59 1 4.66 1.52a31.23 31.23 0 006.19 2.54c2.07.5 3.11 2.05 4.66 3.06a28.25 28.25 0 013.11 4.09 18.42 18.42 0 011 5.6 9.26 9.26 0 01-2.08 6.62 13.14 13.14 0 01-4.65 4.63 52.09 52.09 0 01-7.18 3.05 33.67 33.67 0 01-23.38-2.55zM561 387.11a13.43 13.43 0 00-10.87 4.58 20.23 20.23 0 00-4.13 13.19 18.94 18.94 0 004.15 12.73 15.2 15.2 0 0021.49.25l.24-.25a19.35 19.35 0 003.61-13.19 20.1 20.1 0 00-3.61-13.18 14.93 14.93 0 00-10.88-4.08zm-.53 44.82a24.63 24.63 0 01-26.34-22.8 28.35 28.35 0 0147.12-23.54 26.45 26.45 0 016.68 19.83 28.69 28.69 0 01-7.19 19.86 32 32 0 01-20.3 6.72zm-31.58-41.79a11.2 11.2 0 00-6.22-1.52 10.93 10.93 0 00-8.81 4.58 18.87 18.87 0 00-3.59 12.73v24.45h-11.95v-51.46h11.92v10.69a20.35 20.35 0 015.18-8.66 11.85 11.85 0 018.28-3.05 10.73 10.73 0 014.67 1zm-41.95 38.2a28.45 28.45 0 01-15 3.59 25.59 25.59 0 01-18.65-7.13 24.69 24.69 0 01-7.2-18.34 27.06 27.06 0 017.78-20.38 28 28 0 0120.72-7.65A32 32 0 01487 381v10.67a20.74 20.74 0 00-11.4-4.09 15.51 15.51 0 00-12.43 5.1 18.85 18.85 0 00-4.67 13.19 17.62 17.62 0 004.66 12.72 16.57 16.57 0 0011.92 4.58 18.44 18.44 0 0011.92-4.6v9.75zm-53.34 2h-11.94v-51.42h11.91zm-5.7-62.14a6.72 6.72 0 01-5.18-2.05 5.52 5.52 0 01-2.07-4.57 5 5 0 012.07-4.59 9.45 9.45 0 015.18-2 6.75 6.75 0 015.18 2 5.56 5.56 0 012.08 4.59 4.9 4.9 0 01-2.08 4.57 6.72 6.72 0 01-5.18 2.05m-22.3 62.16h-11.88V384a134.55 134.55 0 01.52-13.76 25.24 25.24 0 01-2.08 6.62l-21.75 54h-8.29l-21.79-53.4-2.07-7.2a102.91 102.91 0 01.51 14.26v46.44h-11.4v-71.9h17.1l19.18 47.87 3.1 8.16a51.86 51.86 0 013.11-8.65l19.69-47.9h16.57z" transform="translate(-29.24 -262.25)"/><path id="Tracé_5649" data-name="Tracé 5649" class="cls-1" d="M183.76 262.25l-88.68 74.21-65.84 111.06 56-5.63zm7.62 30.7l-38.63 77.79 68 78.82-126.2 14.33 195.85 2z" transform="translate(-29.24 -262.25)"/></svg>