<svg xmlns="http://www.w3.org/2000/svg" width="176.383" height="22.108" viewBox="0 0 176.383 22.108"><path d="M73.413 14.383H84.65l-5.943-9.56-10.9 17.284h-4.963L76.108 1.345a3.134 3.134 0 012.6-1.346 3.076 3.076 0 012.551 1.311l13.317 20.8h-4.963l-2.342-3.864H75.894zm51.555 3.861V.21h-4.213v19.8a2.065 2.065 0 00.612 1.468 2.152 2.152 0 001.538.629h19.206l2.482-3.864zM55.29 15.012a7.4 7.4 0 007.446-7.356A7.4 7.4 0 0055.38.21H36.864v21.9h4.209V4.071h13.935a3.548 3.548 0 013.547 3.549 3.548 3.548 0 01-3.547 3.546l-11.873-.017 12.572 10.957h6.117l-8.458-7.1zm-44.342 7.1A10.949 10.949 0 01-.001 11.163 10.949 10.949 0 0110.944.21h12.728a10.949 10.949 0 0110.949 10.949 10.948 10.948 0 01-10.949 10.949zm12.445-3.863a7.087 7.087 0 007.131-7.042 7.087 7.087 0 00-7.042-7.131H11.231a7.087 7.087 0 00-7.13 7.042 7.086 7.086 0 007.042 7.131h12.251zm79.974 3.863a10.949 10.949 0 01-10.949-10.949A10.949 10.949 0 01103.367.214h15.117l-2.464 3.862h-12.376a7.087 7.087 0 00-7.131 7.042 7.087 7.087 0 007.042 7.131h15.275l-2.481 3.862zm51.5-3.863a7.076 7.076 0 01-6.816-5.156h18l2.481-3.862h-20.483a7.1 7.1 0 016.816-5.156h12.356l2.5-3.861h-15.134a10.949 10.949 0 00-10.943 10.945 10.949 10.949 0 0010.949 10.949h12.985l2.481-3.864h-15.187m17.109-15.71a1.931 1.931 0 011.94-1.922 1.931 1.931 0 011.922 1.94 1.931 1.931 0 01-1.94 1.922 1.917 1.917 0 01-1.922-1.911zm1.922 2.482a2.464 2.464 0 002.482-2.447 2.464 2.464 0 00-2.446-2.482 2.465 2.465 0 00-2.482 2.447v.018a2.46 2.46 0 002.444 2.464zm-.227-3.932a1.774 1.774 0 01.716.087.77.77 0 01.542.769.7.7 0 01-.035.227.707.707 0 01-.332.472c-.035.017-.052.035-.122.07l.629 1.136h-.612l-.559-1.048h-.385v1.048h-.542V1.084zm.193 1.258c.175-.018.349-.018.454-.175a.368.368 0 00.07-.245.391.391 0 00-.21-.332 1.264 1.264 0 00-.507-.053h-.157v.8h.35" fill="#82aafd"/></svg>