<svg xmlns="http://www.w3.org/2000/svg" width="130.894" height="66.895" viewBox="0 0 130.894 66.895"><defs><style>.a{fill:#82aafd}</style></defs><path class="a" d="M103.136 8.112l-.844-5.109c-.263-1.634-.922-2.977-1.421-2.977s-.923 1.37-.923 3.029v1.343a3.045 3.045 0 01-3.028 3.028h-1.634v3.661h5.321a2.488 2.488 0 002.528-2.976M91.098 3.793H74.375a1.115 1.115 0 00-.29.026v-.79c0-1.659-.422-3.028-.922-3.028s-1.159 1.342-1.423 2.976l-.842 5.109a2.488 2.488 0 002.528 2.976h5.03a4.754 4.754 0 001.423-.21 1.838 1.838 0 01-1.818 1.5h-7.058a1.854 1.854 0 01-1.817-2.16l.711-4.292a1.855 1.855 0 00-1.818-2.16H33.025a1.87 1.87 0 00-1.685 1.08l-6.585 10.113a.477.477 0 00.027.553l1.291 1.5a.454.454 0 00.631.054l4.478-3.529v21.491a1.832 1.832 0 001.843 1.843h9.956a1.833 1.833 0 001.843-1.843v-7.48a1.832 1.832 0 011.843-1.843h24.862a1.832 1.832 0 011.844 1.843v7.48a1.832 1.832 0 001.843 1.843h9.955a1.833 1.833 0 001.845-1.843v-8.034h-5.294a3.045 3.045 0 01-3.028-3.028v-5.163a3.043 3.043 0 011.212-2.422v6.162a3.046 3.046 0 003.028 3.029h8.139a3.046 3.046 0 003.028-3.029v-15.7a3.023 3.023 0 00-3-3.028M17.486 62.534a2.63 2.63 0 01-.763.121c-1.9 0-2.528-2.054-3.423-3.9a6.362 6.362 0 00-1.528-2.081 6.133 6.133 0 004.4-5.926c0-4-2.9-6.084-7.163-6.084H.002v21.86h5.4v-8.638h1.239c1.212 0 2.107 2.712 2.765 4.267 1.527 3.475 3.029 4.476 5.61 4.476a8.329 8.329 0 001.212-.1h-.079zM7.347 53.965H5.398v-5.374h2.608c1.475 0 2.712.633 2.712 2.555 0 2.345-1.816 2.819-3.371 2.819z"/><path class="a" d="M23.491 44.665l-6.005 17.867c.065-.02.106-.037.106-.037l-.422 3.846s-.406.1-.947.184h4.662l1.317-4.135h7.295l1.37 4.135h5.477l-7.374-21.86zm0 13.7l1.5-4.662a25.578 25.578 0 00.817-3.715h.134a20.162 20.162 0 00.738 3.767l1.5 4.609z"/><path class="a" d="M17.592 62.497s-.041.017-.106.037l-1.342 3.993h.079c.541-.083.947-.184.947-.184zm32.052-7.348c0 1.264.159 3 .238 4.24h-.132c-.526-1.29-1.159-2.95-1.659-3.9l-5.742-10.851h-5.794v21.886h4.478V56.019c0-1.185-.158-2.66-.263-3.9h.132a29.337 29.337 0 001.58 3.556l5.953 10.824h5.663V44.64h-4.452zm19.305 3.556a3.433 3.433 0 01-3.661 4.241c-2.37 0-4.451-1.527-4.451-7.48 0-5.636 1.922-7.374 4.267-7.374 2.449 0 3.82 1.4 3.266 4.873l5.057-.449c.711-4.74-1.843-8.216-8.218-8.216-6.031-.027-9.955 3.239-9.955 11.14 0 7.981 3.819 11.457 9.745 11.457 5.82 0 9.033-3.266 8.691-7.717zm17.883-5.768h-6.64v-8.27h-5.4v21.86h5.4v-9.271h6.637v9.271h5.4V44.665h-5.4zm12.984 4.451h7.611v-4.03h-7.611V48.67h9.06v-4.03H94.391v21.886h14.828v-4.03h-9.4zm23.756 1.37a6.359 6.359 0 00-1.528-2.081 6.132 6.132 0 004.4-5.926c0-4-2.9-6.084-7.163-6.084h-9.008v21.86h5.4v-8.638h1.239c1.21 0 2.107 2.712 2.765 4.267 1.527 3.475 3.028 4.476 5.61 4.476a10.557 10.557 0 002.159-.289l.422-3.846a2.6 2.6 0 01-.869.158c-1.899.001-2.531-2.054-3.427-3.897zm-5.952-4.793h-1.949v-5.374h2.608c1.475 0 2.712.633 2.712 2.555 0 2.345-1.817 2.819-3.37 2.819zm11.799-9.693a1.405 1.405 0 00-1.474 1.475 1.4 1.4 0 001.474 1.448 1.4 1.4 0 001.475-1.448 1.406 1.406 0 00-1.475-1.475zm.027 2.634a1.084 1.084 0 01-1.132-1.159 1.069 1.069 0 011.132-1.158 1.049 1.049 0 011.106 1.158 1.064 1.064 0 01-1.106 1.159z"/><path class="a" d="M129.999 45.458c0-.369-.263-.449-.527-.449h-.527v1.448h.289v-.579h.132l.317.579h.316l-.343-.6a.423.423 0 00.343-.399zm-.527.21h-.263v-.395h.263c.1 0 .236.027.236.185a.214.214 0 01-.235.209z"/></svg>