<svg xmlns="http://www.w3.org/2000/svg" width="208.202" height="69.897" viewBox="0 0 208.202 69.897"><defs><style>.a{fill:#82aafd}</style></defs><path class="a" d="M76.422 63.933a10.915 10.915 0 01-11.069-10.976 10.917 10.917 0 0111.069-10.978 10.951 10.951 0 0111.11 10.978 10.951 10.951 0 01-11.11 10.976zm0-19a7.787 7.787 0 00-7.815 8.028 7.785 7.785 0 007.815 8.026 7.835 7.835 0 007.844-8.026 7.82 7.82 0 00-7.844-8.028zm14.14 3.191h3v1.491a7.066 7.066 0 014.745-1.734 7.812 7.812 0 017.815 7.967 7.855 7.855 0 01-7.877 8 7.806 7.806 0 01-4.651-1.52V69.9H90.55zm3.04 4.257v6.994a5.731 5.731 0 004.316 1.825 5.156 5.156 0 005.23-5.321 5.2 5.2 0 00-5.23-5.35 5.551 5.551 0 00-4.316 1.852zm22.895 11.495a7.972 7.972 0 01-8.119-8.028 7.777 7.777 0 017.751-7.967c4.257 0 7.479 3.526 7.479 8.087v.877h-12.216a5.218 5.218 0 005.228 4.441 6.013 6.013 0 003.921-1.351l1.947 1.918a9.242 9.242 0 01-5.991 2.023zm-5.079-9.306h9.184a4.787 4.787 0 00-4.532-4.134 4.754 4.754 0 00-4.652 4.134zm15.082-6.447h3.04v1.552a6.364 6.364 0 014.657-1.856 5.779 5.779 0 016.049 6.052v9.73h-3.04V54.38a3.6 3.6 0 00-3.83-3.924 4.385 4.385 0 00-3.833 2.005v11.13h-3.041zm17.639 9.702a10.26 10.26 0 007.329 3.345c3.07 0 5.169-1.462 5.169-3.558 0-1.886-1.216-2.827-4.318-3.345l-3.558-.585c-3.891-.637-5.809-2.462-5.809-5.532 0-3.71 3.1-6.113 7.847-6.113a14.29 14.29 0 018.575 2.888l-1.754 2.433a11.356 11.356 0 00-6.961-2.614c-2.769 0-4.622 1.275-4.622 3.16 0 1.734 1.064 2.556 3.8 3.012l3.421.541c4.5.731 6.537 2.584 6.537 5.9 0 3.924-3.406 6.537-8.479 6.537a12.829 12.829 0 01-9.125-3.83zm18.24-15.508l3.041-.669v8.028a6.364 6.364 0 014.652-1.856 5.78 5.78 0 016.052 6.052v9.73h-3.041v-9.221a3.6 3.6 0 00-3.833-3.924 4.385 4.385 0 00-3.83 2.005v11.13h-3.041zm16.905 1.427a1.868 1.868 0 011.854-1.883 1.886 1.886 0 011.959 1.81 1.887 1.887 0 01-1.81 1.959h-.148a1.869 1.869 0 01-1.857-1.88zm3.377 19.858h-3.041V48.124h3.041zm5.894-15.479v-2.339c0-3.216 1.856-4.985 5.263-4.985a8.026 8.026 0 012.19.272v2.646a6.071 6.071 0 00-1.915-.275c-1.672 0-2.494.76-2.494 2.4v2.281h4.409v2.555h-4.412v12.923h-3.041V50.678h-3.588v-2.555zm12.075 2.556h-3.283v-2.555h3.284v-3.953l3.008-.731v4.678h4.561v2.555h-4.561v8.385c0 1.582.64 2.161 2.281 2.161a5.967 5.967 0 002.222-.365v2.552a10.033 10.033 0 01-2.889.459c-3.011 0-4.622-1.43-4.622-4.093zM36.494 30.251a37.526 37.526 0 01-12.013-2.017 37.571 37.571 0 0012.022 2.02c6.049 0 10.651-2.272 10.651-6.365a14.543 14.543 0 00-.506-2.96h-.009a14.539 14.539 0 01.506 2.962c0 4.092-4.602 6.36-10.651 6.36z"/><path class="a" d="M46.648 20.928a14.545 14.545 0 01.506 2.96c0 4.094-4.6 6.365-10.651 6.365a37.569 37.569 0 01-12.02-2.019c-6.532-2.225-11.506-5.923-13.1-9.187a4.806 4.806 0 01-.54-2.09 5.383 5.383 0 01.441-2.143C6.366 15.062.001 15.945.001 21.553c0 9.2 21.808 20.547 39.075 20.547 13.239 0 16.577-5.988 16.577-10.715-.001-3.717-3.213-7.936-9.005-10.457z"/><path class="a" d="M12.279 12.73c0 2.7 10.621 11.537 24.851 11.537 3.657 0 8.95-.754 8.95-5.1a4.107 4.107 0 00-.091-1l-2.178-9.461c-.5-2.082-.944-3.026-4.6-4.853C36.367 2.4 30.189.005 28.359.005c-1.7 0-2.208 2.2-4.225 2.2-1.953 0-3.4-1.637-5.231-1.637-1.754 0-2.9 1.2-3.78 3.655 0 0-2.459 6.935-2.775 7.941v.02l.007-.017a1.869 1.869 0 00-.076.563zm34.369 8.198h-.009.009z"/><path class="a" d="M12.353 12.165l-.007.017a1.871 1.871 0 00-.066.547 1.87 1.87 0 01.073-.564zm-.971 6.885c1.593 3.264 6.566 6.962 13.1 9.187-6.534-2.228-11.507-5.925-13.1-9.187zm157.975 7.935c0 3.476 2.09 5.166 5.9 5.166a15.225 15.225 0 003.477-.491v-4.029a7.259 7.259 0 01-2.246.339c-1.57 0-2.152-.491-2.152-1.968v-6.181h4.55v-4.152h-4.55v-5.263l-4.97 1.076v4.186h-3.3v4.152h3.291zm-15.5.093c0-1.076 1.079-1.6 2.707-1.6a12.612 12.612 0 012.953.368v2.091a6.291 6.291 0 01-3.1.769c-1.6 0-2.552-.614-2.552-1.629m1.52 5.134a7.612 7.612 0 004.491-1.26v.985h4.918V21.512c0-3.964-2.672-6.14-7.131-6.14a18.151 18.151 0 00-7.6 1.783l1.783 3.66a13.281 13.281 0 014.921-1.292c2.047 0 3.1.8 3.1 2.43v.8a14.483 14.483 0 00-3.69-.462c-4.184 0-6.7 1.754-6.7 4.891 0 2.859 2.274 5.04 5.9 5.04m-27.027-.275h5.289v-8.435h8.856v8.426h5.289V10.414h-5.277v8.271h-8.85v-8.271h-5.289zm-20.138-8.155a4.12 4.12 0 014.274-4.123 5.037 5.037 0 013.444 1.263v5.675a4.784 4.784 0 01-3.444 1.292 4.138 4.138 0 01-4.274-4.12m7.78 8.148h4.921V9.339l-4.971 1.076v6.119a8.277 8.277 0 00-4.151-1.076 8.309 8.309 0 00-8.456 8.333 8.26 8.26 0 008.148 8.37h.144a7.348 7.348 0 004.365-1.412zM93.424 19.442a3.6 3.6 0 013.412 2.582H90.05a3.387 3.387 0 013.383-2.582m-8.4 4.377a8.539 8.539 0 008.853 8.426 9.769 9.769 0 006.8-2.461l-3.292-2.924a4.4 4.4 0 01-3.257 1.231 4.207 4.207 0 01-4-2.582h11.592v-1.228c0-5.166-3.473-8.885-8.21-8.885a8.353 8.353 0 00-8.478 8.226v.2m-8.584-8.885a2.464 2.464 0 012.737 2.43 2.466 2.466 0 01-2.737 2.43h-5.228v-4.859zm-10.525 17h5.289v-7.845h4.026l4.061 7.841h5.9l-4.737-8.61a6.511 6.511 0 004.058-6.058c0-3.874-3.044-6.856-7.6-6.856h-10.99z"/></svg>