<svg xmlns="http://www.w3.org/2000/svg" width="92.508" height="35.271" viewBox="0 0 92.508 35.271"><path d="M17.57 35.268a18.388 18.388 0 01-7.044-1.32 16.566 16.566 0 01-9.222-9.293 18.543 18.543 0 01-1.302-7.04 18.464 18.464 0 011.3-7 16.574 16.574 0 019.222-9.29 19.345 19.345 0 0114.046 0 16.925 16.925 0 015.593 3.7 16.632 16.632 0 013.677 5.59 18.531 18.531 0 011.3 7 18.61 18.61 0 01-1.3 7.044 16.663 16.663 0 01-3.675 5.593 16.925 16.925 0 01-5.593 3.7 18.3 18.3 0 01-7.002 1.316zm0-3.255a14.619 14.619 0 005.642-1.079 13.48 13.48 0 004.514-3.039 13.987 13.987 0 002.971-4.58 15.084 15.084 0 001.056-5.7 14.959 14.959 0 00-1.057-5.658 13.914 13.914 0 00-2.971-4.58 13.5 13.5 0 00-4.514-3.037 15.383 15.383 0 00-11.321 0 13.425 13.425 0 00-4.512 3.035 13.946 13.946 0 00-2.973 4.58 14.959 14.959 0 00-1.056 5.66 15.118 15.118 0 001.057 5.7 13.964 13.964 0 002.973 4.58 13.473 13.473 0 004.512 3.039 14.734 14.734 0 005.679 1.081zm34.784 3.255a15.07 15.07 0 01-7.462-1.806 10.41 10.41 0 01-4.6-4.8 1.32 1.32 0 01-.024-1.3 1.759 1.759 0 011.125-.814 1.607 1.607 0 011.21.133 2.033 2.033 0 01.9.924 7.643 7.643 0 003.346 3.17 11.64 11.64 0 005.506 1.233 9.347 9.347 0 005.743-1.693 5.746 5.746 0 002.267-4.908 6.248 6.248 0 00-1.979-4.624 10.568 10.568 0 00-6.209-2.468 14.436 14.436 0 01-8.059-3.192 8.119 8.119 0 01-2.9-6.313 7.769 7.769 0 011.431-4.666 9.226 9.226 0 013.942-3.06A14.519 14.519 0 0152.353.007a11.417 11.417 0 016.252 1.649 12.6 12.6 0 014.007 3.9 1.767 1.767 0 01.286 1.359 1.537 1.537 0 01-.764 1.016 1.839 1.839 0 01-2.378-.75 9.737 9.737 0 00-2.753-2.713 8.556 8.556 0 00-4.688-1.21 9.581 9.581 0 00-5.59 1.475 4.907 4.907 0 00-2.113 4.294 5.159 5.159 0 001.822 3.919q1.826 1.669 6.493 2.332 5.5.792 8.169 3.365a8.919 8.919 0 012.662 6.714 9.341 9.341 0 01-1.519 5.393 9.493 9.493 0 01-4.116 3.365 14.167 14.167 0 01-5.769 1.146zm26.373-.441a1.729 1.729 0 01-1.719-1.716V3.567H66.574a1.545 1.545 0 01-1.147-.441 1.488 1.488 0 01-.432-1.1A1.553 1.553 0 0165.427.88a1.553 1.553 0 011.147-.439h24.349a1.507 1.507 0 011.585 1.585 1.489 1.489 0 01-.439 1.1 1.544 1.544 0 01-1.145.441h-10.48v29.548a1.681 1.681 0 01-.485 1.208 1.626 1.626 0 01-1.233.504z" fill="#82aafd"/></svg>