<svg id="Calque_1" data-name="Calque 1" xmlns="http://www.w3.org/2000/svg" viewBox="0 0 747.56 179.39"><defs><style>.cls-2{fill:#5c4fe5}</style></defs><path id="Tracé_5650" data-name="Tracé 5650" d="M270.72 368.27h-26.58V352.4h71.19v15.87h-26.61v79.33h-18" transform="translate(-26.22 -310.3)"/><path id="Tracé_5651" data-name="Tracé 5651" d="M715.09 447.61V399c0-3.72-1.59-5.56-5.56-5.56a48.12 48.12 0 00-18.16 6v48.17H674V378h13.29l1.71 6a69.56 69.56 0 0127.92-7.42A13.19 13.19 0 01730 384a68.14 68.14 0 0128-7.42c11.56 0 15.73 8.13 15.73 20.56v50.46h-17.38V399c0-3.72-1.59-5.56-5.57-5.56a45.86 45.86 0 00-18.15 6v48.17zm-47.9-55a137.67 137.67 0 00-18.45 10.13v44.86h-17.43V378H646l1.14 7.72a78.27 78.27 0 0118.29-9.15zm-75.19-1.2c-9.3 0-12.87 4.16-12.87 12v18.71c0 7.87 3.59 12 12.87 12s12.85-4.16 12.85-12v-18.68c0-7.86-3.56-12-12.85-12m0 57.56c-23.93 0-30.3-13.16-30.3-27.46V404c0-14.29 6.43-27.44 30.3-27.44s30.28 13.15 30.28 27.44v17.58c0 14.3-6.43 27.46-30.28 27.46m-34-86.92a51.2 51.2 0 00-10-1.12c-6.86 0-7.86 3-7.86 8.28V378h17.74l-1 13.88h-16.72v55.74h-17.44v-55.75h-11.14V378h11.14v-9.71c0-14.44 6.73-21.59 22.16-21.59a55.15 55.15 0 0115 2zm-71 59.17h-12.87c-5.71 0-7.3 1.58-7.3 6.84s1.59 7 7 7a27.25 27.25 0 0013.17-3.58zm17.42 26.32h-14.3l-1.28-4.74a38 38 0 01-20.72 6.13c-12.71 0-18.12-8.7-18.12-20.68 0-14.15 6.15-19.59 20.3-19.59H487v-7.3c0-7.72-2.16-10.44-13.32-10.44a96.1 96.1 0 00-19.27 2.16l-2.16-13.32a90.89 90.89 0 0123.93-3.3c21.87 0 28.32 7.72 28.32 25.14zm-58.33-55a140.06 140.06 0 00-18.45 10.13v44.86H410.2V378h14.71l1.13 7.72a78.53 78.53 0 0118.3-9.15zm-42.57 0a138.36 138.36 0 00-18.52 10.1v44.86h-17.43V378h14.71l1.13 7.72a78.34 78.34 0 0118.3-9.15zm-85.34 12.95h22.16V402c0-6.58-2-11.14-10.59-11.14s-11.57 4.57-11.57 11.14zm13.58 29.21a72.78 72.78 0 0021.28-3.3l2.72 13.16a74.35 74.35 0 01-25.59 4.37c-21.86 0-29.45-10.13-29.45-26.91v-18.35c0-14.71 6.58-27.16 28.88-27.16s27.31 13 27.31 28v14.94H318v3.6c.14 8.31 3.14 11.6 13.72 11.6" transform="translate(-26.22 -310.3)"/><path id="Tracé_5652" data-name="Tracé 5652" d="M135 426.85l49-28.28V341.9l-49 28.36" transform="translate(-26.22 -310.3)" fill="#4040b2"/><path id="Tracé_5653" data-name="Tracé 5653" class="cls-2" d="M80.62 341.91l49 28.34v56.6l-49-28.32" transform="translate(-26.22 -310.3)"/><path id="Tracé_5654" data-name="Tracé 5654" class="cls-2" d="M80.62 461.39l49 28.31v-56.63l-49-28.31m-54.4-37.83l49 28.32v-56.64l-49-28.31" transform="translate(-26.22 -310.3)"/></svg>