<svg xmlns="http://www.w3.org/2000/svg" width="339.578" height="75.836" viewBox="0 0 339.578 75.836"><path d="M16.952 20.008a4.05 4.05 0 00-2.306 2.872c-1.774 7.217-3.585 14.425-5.381 21.637a4.335 4.335 0 00.92 4.056q7.031 8.677 13.928 17.464a4.156 4.156 0 003.59 1.744c3.7-.056 7.4-.018 11.093-.018 3.586 0 7.174-.076 10.756.032a4.7 4.7 0 004.162-1.982q6.942-8.75 14-17.405a4.029 4.029 0 00.849-3.747c-1.733-7.171-3.469-14.34-5.115-21.531a4.4 4.4 0 00-2.587-3.231q-9.948-4.859-19.835-9.837a4.332 4.332 0 00-4.285 0q-9.861 5.036-19.789 9.946zm23.026-6.8q9.371 4.7 18.79 9.3a2.758 2.758 0 011.682 2.057c1.542 6.753 3.168 13.487 4.792 20.22a2.078 2.078 0 01-.456 1.994q-6.819 8.415-13.569 16.886a2.106 2.106 0 01-1.862.85c-3.529-.036-7.059-.015-10.588-.015-3.474 0-6.947-.028-10.419.019a2.225 2.225 0 01-1.984-.937q-6.612-8.365-13.3-16.669a2.369 2.369 0 01-.467-2.3q2.533-10.08 5.023-20.168a2.536 2.536 0 011.463-1.845q9.4-4.638 18.744-9.395a2.106 2.106 0 012.151.007zm11.198 59.263c-8.178 0-16.356.054-24.533-.05a2.625 2.625 0 00-2.861 1.866c-.486 1.127-.512 1.518.906 1.5 4.7-.067 9.409-.025 14.114-.025s9.41.013 14.115-.023c.417 0 1.271.459 1.2-.577a2.979 2.979 0 00-2.941-2.691zM43.022 4.843q10.45 5.17 20.9 10.347c2.256 1.118 3.035.884 4.513-1.427L40.597 0c-.418 3.441-.417 3.438 2.425 4.843zm29.835 44.845q-8.376 10.384-16.742 20.773a1.156 1.156 0 00-.166 1.494c.409.714.751 1.466 1.23 2.412 2.274-2.816 4.442-5.5 6.605-8.184q6.209-7.711 12.394-15.44c.246-.31 1.011-.582.476-1.191-.605-.689-3.211-.59-3.797.136zM5.768 50.756c-1.741-2.185-2.2-2.28-4.948-.942q9.741 12.213 19.489 24.439c1.834-2.945 1.836-2.948-.1-5.378q-7.218-9.061-14.441-18.119zm8.929-35.815c6.907-3.463 13.781-7 20.742-10.345a2.906 2.906 0 001.958-3.331c-.088-.919-.065-1.367-1.178-.8-8.84 4.472-17.705 8.9-26.658 13.386 2.329 2.493 2.331 2.496 5.136 1.09zm53.704 6.236c1.7 7.228 3.535 14.429 5.06 21.694.506 2.409 1.509 3.629 3.94 3.639a2.425 2.425 0 00.34-.095l-7.083-29.9c-2.878 1.612-2.947 1.731-2.257 4.662zM3.816 44.797q3.069-12.518 6.237-25.011a1.537 1.537 0 00-.621-1.874c-.628-.449-1.2-.978-1.909-1.564-2.518 10.124-5 20.1-7.523 30.257 1.031-.232 1.778-.458 2.54-.556.789-.1 1.087-.478 1.276-1.252zm149.336-17.998c0-2.483 0-2.435-2.5-2.4a1.528 1.528 0 00-1.506 1.024c-1.022 1.984-2.085 3.946-3.144 5.91-1.423 2.641-2.857 5.276-4.343 8.018-.25-.4-.4-.628-.531-.866-2.351-4.375-4.74-8.73-7.024-13.139-.862-1.664-2.262-.835-3.389-.855-1.17-.02-.571 1.133-.576 1.715-.048 6.663.02 13.327-.072 19.988-.02 1.431.578 1.537 1.666 1.447.932-.076 1.986.355 1.9-1.382-.153-2.96-.042-5.934-.042-8.9v-5.393l.316-.036 7.738 14.376 7.759-14.393.336.151c0 4.759.078 9.521-.043 14.277-.042 1.643.9 1.265 1.787 1.294.955.03 1.748.2 1.722-1.354-.116-6.49-.054-12.987-.054-19.482zm25.863 6.186c-.991 3.191-2 6.377-3.108 9.915-1.3-3.943-2.487-7.522-3.661-11.106-.316-.964-.507-1.776-1.961-1.721-1.354.051-1.732.588-2.088 1.717-1.135 3.6-2.387 7.163-3.716 11.1-1.116-3.616-2.108-6.842-3.107-10.064-.876-2.826-.879-2.826-3.835-2.667a2.038 2.038 0 00-.426.157c1.81 5.378 3.687 10.739 5.389 16.155.454 1.443 1.378 1.064 2.316 1.185 1.079.141 1.434-.4 1.716-1.306 1.149-3.7 2.358-7.386 3.552-11.1.565.308.536.81.668 1.221 1.03 3.187 2.1 6.363 3.042 9.576.349 1.186.821 1.709 2.168 1.645 1.116-.052 1.74-.271 2.005-1.42.236-1.027.666-2.008 1-3.013q2.181-6.493 4.366-13.015c-3.393-.269-3.387-.267-4.32 2.741zm-55.108-8.572c-1.479-.266-2.122.414-2.664 1.741-2.066 5.058-4.257 10.064-6.418 15.082-.231.535-.278 1.2-.906 1.539l-6.548-15.236c-1.385-3.229-1.381-3.231-5.042-3.044a2.623 2.623 0 00.08.592c3.111 7.22 6.255 14.425 9.322 21.663.674 1.589 1.908.65 2.877.866a1.381 1.381 0 001.79-.969c1.431-3.511 2.97-6.978 4.468-10.461l5.051-11.757a12.433 12.433 0 01-2.01-.016zm76.508 12.223c-.046-3.427-1.784-5.814-4.854-6.605a12.575 12.575 0 00-8.46 1.152c-.3.137-.5.265-.392.733.369 1.593 1.093 2 2.607 1.427a14.066 14.066 0 012.249-.642c3.448-.677 5.41.966 5.488 4.68-.549-.129-1.069-.261-1.594-.372-2.5-.531-4.972-.777-7.368.443a5.494 5.494 0 00-3.22 5.251 5.3 5.3 0 004.082 4.947 8.141 8.141 0 008.216-2.131 7.274 7.274 0 010 .894c-.286 1.718.988 1.135 1.8 1.221.928.1 1.539.029 1.5-1.263-.117-3.241-.01-6.49-.054-9.735zm-3.385 5.643c-.909 2.874-5.939 4.082-8.058 1.936a2.668 2.668 0 01.516-4.2 5.751 5.751 0 013.693-.867c.72.085 1.449.13 2.162.263 1.882.349 2.269 1.031 1.687 2.869zm85.243-6.79a6.1 6.1 0 00-5.213-5.589 12.756 12.756 0 00-7.827 1.22c-.338.16-.73.234-.615.809a1.752 1.752 0 002.626 1.42 10.048 10.048 0 013.24-.791c2.455-.07 4.1 1.183 4.5 3.368.206 1.142.059 1.6-1.3 1.206a10 10 0 00-7.826.409 5.358 5.358 0 00-2.975 5.543 5.18 5.18 0 003.9 4.536 7.805 7.805 0 008.017-1.861c.636.6-.48 1.824.973 1.871a19.368 19.368 0 002.349-.034c.329-.03.282-.423.281-.7-.026-3.802.1-7.615-.13-11.407zm-3.722 7.716a5.774 5.774 0 01-7.089 1.413 2.656 2.656 0 01-.152-4.489 5.554 5.554 0 013.8-.979c.663.075 1.333.114 1.987.233 1.969.356 2.626 2.108 1.454 3.822zm-49.192-13.079a8.835 8.835 0 00-10.559 4.331 9.522 9.522 0 002.344 11.554c3.407 2.669 9.119 2.614 12.147-.125.261-.236.655-.376.36-.931a2 2 0 00-2.948-.917 9.428 9.428 0 01-1.368.615c-3.634 1.32-7-.234-7.934-3.577-.26-.93-.071-1.162.868-1.135 1.958.056 3.918.017 5.876.017s3.919.015 5.877-.013c.369-.006.878.26 1.029-.474.697-3.387-2.253-8.265-5.692-9.345zm1.016 7.394c-3.009-.09-6.023-.029-9.051-.029a5.4 5.4 0 014.964-4.933 4.949 4.949 0 015.134 3.5c.348 1.038.251 1.501-1.046 1.462zm109.202-6.227c.03-1.6-.981-1.122-1.746-1.127s-1.8-.452-1.74 1.141c.113 3.073.054 6.156.026 9.234a4.384 4.384 0 01-4.644 4.458c-2.44.026-4.017-1.647-4.036-4.332-.021-2.743-.006-5.485-.006-8.228 0-2.434 0-2.4-2.414-2.311-.694.027-.976.151-.967.92.042 3.694-.08 7.392.059 11.081a6.13 6.13 0 006.174 5.856 7.234 7.234 0 005.732-2.465 3.584 3.584 0 01.1.721c-.321 2.054 1.224 1.225 2.134 1.4 1.2.228 1.32-.406 1.313-1.4-.041-4.985-.077-9.967.015-14.948zm-43.05-1.554c-2.213-.068-3.971.835-5.84 2.692.688-2.487-.641-2.308-1.975-2.311-.944 0-1.361.109-1.345 1.24.073 5.043.089 10.089 0 15.131-.03 1.61.985 1.118 1.751 1.127.783.009 1.8.44 1.737-1.149-.115-3.079-.007-6.165-.045-9.246a3.979 3.979 0 011.8-3.583 4.576 4.576 0 014.764-.5 3.937 3.937 0 012.183 3.863c.02 3.194.064 6.39-.011 9.583-.028 1.174.654 1.215 1.356 1.012.675-.2 1.98.875 1.98-.854 0-3.7.1-7.4-.047-11.1-.156-3.485-2.808-5.795-6.308-5.905zm-32.772-5.348c-5.436.1-10.874.085-16.311 0-1.237-.019-1.262.578-1.141 1.409.106.735-.58 1.923 1.079 1.843 1.677-.082 3.365.046 5.042-.041 1.079-.055 1.42.243 1.407 1.37-.062 5.434-.028 10.87-.028 16.305 0 2.422 0 2.373 2.385 2.38.934 0 1.251-.229 1.229-1.2-.063-2.912-.023-5.827-.023-8.741 0-2.97.04-5.939-.022-8.908-.02-.978.295-1.238 1.234-1.2 1.678.072 3.372-.092 5.041.052 1.537.133 1.263-.827 1.257-1.688-.003-.783.312-1.605-1.149-1.581zm55.473 20.122c-2.7.139-5.414.04-8.391.04.552-.7.886-1.133 1.235-1.559 2.625-3.206 5.223-6.434 7.9-9.6a2.951 2.951 0 00.481-2.844c-.236-.869-1.262-.372-1.915-.381-3.643-.049-7.289.042-10.929-.055-1.5-.04-1.042.906-1.084 1.641-.045.772-.2 1.507 1.1 1.452 2.674-.112 5.356-.033 8.366-.033l-2.245 2.74c-2.271 2.772-4.506 5.575-6.833 8.3a3.1 3.1 0 00-.545 2.989c.265.951 1.358.392 2.054.4 3.586.061 7.175-.02 10.761.056 1.153.024 1.571-.244 1.5-1.458-.062-1.035.023-1.766-1.455-1.688zM215.296 30.4c.087-1.072-.866-.615-1.358-.563a6.874 6.874 0 00-4.817 2.952 1.128 1.128 0 01-.265-1.173c.326-1.822-.96-1.374-1.948-1.487-1.194-.137-1.488.306-1.472 1.472.066 4.818.086 9.639-.009 14.456-.028 1.387.431 1.675 1.688 1.615 1.1-.052 1.877.005 1.764-1.543-.161-2.229-.05-4.48-.04-6.721.019-4.176 1.386-5.835 5.547-6.609 1.696-.317.844-1.576.91-2.399z" fill="#82aafd"/></svg>