<svg xmlns="http://www.w3.org/2000/svg" width="186.229" height="53.65" viewBox="0 0 186.229 53.65"><defs><style>.a{fill:#82aafd;}</style></defs><g transform="translate(0)"><path class="a" d="M876.171,351.257q8.173-1.44,16.338-2.889l.151-.033-8.411-10c-4.611-5.491-8.39-10.013-8.39-10.041s8.675-23.932,8.725-24.027c0-.028,5.919,10.164,14.313,24.71l14.393,24.949.109.191H859.992Z" transform="translate(-844.127 -300.468)"/><g transform="translate(75.756 16.628)"><path class="a" d="M970.692,330.118v7.064l-.106.474a7.241,7.241,0,0,1-1.843,3.538A5.352,5.352,0,0,1,966,342.68a9.666,9.666,0,0,1-2.417,0,4.5,4.5,0,0,1-2.521-1.32,6.643,6.643,0,0,1-1.562-3.872c-.059-.457-.081-1.182-.081-7.5v-7h-3.6v7.239a61.614,61.614,0,0,0,.182,8.665,7.1,7.1,0,0,0,7.039,6.909l-.018-.024a7.9,7.9,0,0,0,4.625-.9,7.392,7.392,0,0,0,2.815-2.815,1.471,1.471,0,0,1,.208-.317,13.29,13.29,0,0,1,.042,1.76v1.76h3.647V323.055h-3.675Z" transform="translate(-904.344 -314.059)"/><path class="a" d="M1009.274,332.375a11.207,11.207,0,0,0-2.3-6.969,8.468,8.468,0,0,0-5.709-2.931,12.9,12.9,0,0,0-3.221.186,9.7,9.7,0,0,0-3.969,1.9,11.424,11.424,0,0,0-4.132,7.993,19.165,19.165,0,0,0,.045,4.033,10.185,10.185,0,0,0,4.6,7.922,9.53,9.53,0,0,0,4.181,1.366l-.017-.031a30.148,30.148,0,0,0,3.337-.049,13.026,13.026,0,0,0,5.279-1.831l.373-.229V342.06a6.616,6.616,0,0,0-.05-1.64l-.351.253a11.057,11.057,0,0,1-4.928,2.027,15.63,15.63,0,0,1-2.607.1,7.036,7.036,0,0,1-3.991-1.686,7.274,7.274,0,0,1-1.6-2.34,8.689,8.689,0,0,1-.7-3.323V335.1h15.746l.021-.946C1009.3,333.632,1009.274,332.832,1009.274,332.375Zm-3.663-.3H993.553l.024-.186a9.911,9.911,0,0,1,.377-1.534,8.017,8.017,0,0,1,1.949-3.118,5.636,5.636,0,0,1,2.946-1.567,8.257,8.257,0,0,1,2.168-.052,5.009,5.009,0,0,1,2.78,1.348,7.145,7.145,0,0,1,1.823,4.807Z" transform="translate(-898.81 -314.148)"/><path class="a" d="M927.207,315.306H923.4l-5.938,15.559-5.94,15.609.01,0a10.988,10.988,0,0,0,2.013.049h2.023l1.5-4.222c.824-2.32,1.524-4.284,1.556-4.364l.056-.148H931.9l1.64,4.367,1.64,4.368H937.2c1.112,0,2.024,0,2.024-.017s-11.379-29.553-11.861-30.791Zm3.47,19.153-.014.01h-5.392c-2.964,0-5.392-.017-5.392-.035s1.073-2.981,2.4-6.585,2.456-6.721,2.523-6.929a10.729,10.729,0,0,0,.352-1.5c.056-.468.1-.454.2.06a55.985,55.985,0,0,0,2.865,8.333C929.572,331.46,930.677,334.459,930.677,334.459Z" transform="translate(-911.521 -315.306)"/><path class="a" d="M937.664,324.5v1.51l5.94.017,5.955.021-6.578,9.038L936.4,344.14v.567l0,.566h18.3v-3.044h-6.445c-3.575,0-6.5-.007-6.5-.017s2.96-4.111,6.578-9.112l6.577-9.09v-1.02H937.664Z" transform="translate(-907.484 -314.059)"/><path class="a" d="M987.773,322.63a5.865,5.865,0,0,0-1.185.043,5.2,5.2,0,0,0-2.841,1.408,7.921,7.921,0,0,0-2.01,3.093,1.988,1.988,0,0,1-.194.458c-.035,0-.035-1.031-.035-2.291v-2.291h-3.6v11.117c0,6.114.026,11.143.026,11.143h0c.014.014.823.028,1.836.028h1.76v-6.272c.007-4.245.026-6.4.053-6.662a10.72,10.72,0,0,1,1.5-4.325,4.5,4.5,0,0,1,2.266-1.852,4.288,4.288,0,0,1,1.407-.278,4.534,4.534,0,0,1,2.379.478l.425.212v-3.731l-.148-.049A5.255,5.255,0,0,0,987.773,322.63Z" transform="translate(-900.748 -314.12)"/></g><path class="a" d="M846.342,348.739s3.959-6.888,8.8-15.27l8.8-15.25,10.252-8.6c5.638-4.747,10.266-8.618,10.287-8.618a1.8,1.8,0,0,1-.165.415l-11.136,23.868-10.935,23.46h-7.951C849.921,348.761,846.342,348.754,846.342,348.739Z" transform="translate(-846.342 -300.999)"/></g></svg>