<svg id="Calque_1" data-name="Calque 1" xmlns="http://www.w3.org/2000/svg" viewBox="0 0 744.46 191.95"><defs><style>.cls-1{fill:#0091e3;}</style></defs><path id="Tracé_5630" data-name="Tracé 5630" class="cls-1" d="M368.5,443a24.72,24.72,0,0,1-32.3,13.36l-.21-.09a24.72,24.72,0,1,1,32.42-32.43l.09.19a24.09,24.09,0,0,1,0,19m9.3-83a7.07,7.07,0,0,0-7.32,6.82h0v35.73a39.6,39.6,0,0,0-55.59,6.08,40,40,0,0,0-8.69,24.82,39.52,39.52,0,1,0,79,1.77c0-.14,0-.27,0-.41V367.31a7.27,7.27,0,0,0-2.13-5.21,7.86,7.86,0,0,0-5.33-2.12" transform="translate(-27.77 -304.03)"/><path id="Tracé_5631" data-name="Tracé 5631" class="cls-1" d="M455.24,442.88a24.35,24.35,0,0,1-5.34,7.81,25.58,25.58,0,0,1-7.82,5.34,24.74,24.74,0,1,1-19.36-45.53h0a24.89,24.89,0,0,1,19.35,0,24.26,24.26,0,0,1,7.82,5.33,25.65,25.65,0,0,1,5.34,7.81,24.7,24.7,0,0,1,0,19.24m5.08-37.35A39.91,39.91,0,1,0,472,434.81v-1.37a39.65,39.65,0,0,0-3-15.13,38,38,0,0,0-8.69-12.79" transform="translate(-27.77 -304.03)"/><path id="Tracé_5632" data-name="Tracé 5632" class="cls-1" d="M623.71,401.19a7.21,7.21,0,0,0-.62-2.86,9.71,9.71,0,0,0-1.61-2.35,8.2,8.2,0,0,0-2.36-1.62,7.36,7.36,0,0,0-6.82.5l-42.19,27.43V367.44a7.38,7.38,0,1,0-14.76-.11v98.14a7.34,7.34,0,1,0,14.67,0V440l8.55-5.58L611.2,471a6.75,6.75,0,0,0,5,1.88,5.74,5.74,0,0,0,2.85-.62,7.32,7.32,0,0,0,2.35-1.62,9.43,9.43,0,0,0,1.61-2.35,7.26,7.26,0,0,0,.63-2.86,7.68,7.68,0,0,0-2-5.08l-30.28-34.12L620.88,407a6.32,6.32,0,0,0,2.85-5.83" transform="translate(-27.77 -304.03)"/><path id="Tracé_5633" data-name="Tracé 5633" class="cls-1" d="M501.25,415.83a24.85,24.85,0,0,1,7.94-5.34,25.91,25.91,0,0,1,9.67-2,24.71,24.71,0,0,1,8.56,1.48,26.08,26.08,0,0,1,7.57,4.6,7.57,7.57,0,0,0,4.84,1.61,6.67,6.67,0,0,0,5.33-2.12,7.55,7.55,0,0,0,2.13-5.35,7.1,7.1,0,0,0-2.6-5.58,37.23,37.23,0,0,0-25.81-9.54,39.58,39.58,0,1,0,25.69,69.6,7.46,7.46,0,0,0,2.35-5.47,7.06,7.06,0,0,0-6.8-7.31h-.51a7.94,7.94,0,0,0-4.71,1.48,25.94,25.94,0,0,1-7.45,4.59,25.49,25.49,0,0,1-8.56,1.49,23.87,23.87,0,0,1-9.68-2,26,26,0,0,1-7.93-5.33,24.83,24.83,0,0,1-.13-35c.13.25.13.25.13.12" transform="translate(-27.77 -304.03)"/><path id="Tracé_5634" data-name="Tracé 5634" class="cls-1" d="M770.24,398.82a13.62,13.62,0,0,0-5-3,30.13,30.13,0,0,0-6.56-1.49A60.22,60.22,0,0,0,752,394a37.35,37.35,0,0,0-13.27,2.35,40.91,40.91,0,0,0-11.55,6.46v-1.47a7.38,7.38,0,0,0-14.75,0v64.39a7.38,7.38,0,0,0,14.75,0V433.57a23.87,23.87,0,0,1,2-9.68,22.7,22.7,0,0,1,5.34-7.82A24.59,24.59,0,0,1,752,408.75a28.55,28.55,0,0,1,9.68,1.74,6.79,6.79,0,0,0,3.1.75,5.64,5.64,0,0,0,2.85-.63A7.18,7.18,0,0,0,770,409a7.62,7.62,0,0,0,1.61-2.35,7.2,7.2,0,0,0,.62-2.85,6.39,6.39,0,0,0-2-5" transform="translate(-27.77 -304.03)"/><path id="Tracé_5635" data-name="Tracé 5635" class="cls-1" d="M641.33,426.25a20.56,20.56,0,0,1,3.47-7.07,22.87,22.87,0,0,1,5.46-5.47,28.85,28.85,0,0,1,7-3.6,25.44,25.44,0,0,1,15.63,0,25.13,25.13,0,0,1,16,16.13Zm60.42-7.95A40.29,40.29,0,0,0,665.15,394,39.52,39.52,0,1,0,691,463.47l.25-.24a5.91,5.91,0,0,0,1.61-1.87A7.51,7.51,0,0,0,691,450.94a7.32,7.32,0,0,0-9.05.85c-.25.25-1,.87-1,1l-.13.13a23,23,0,0,1-15.63,5.45,24.66,24.66,0,0,1-14.88-4.83,22.69,22.69,0,0,1-5.46-5.47,22,22,0,0,1-3.47-7.07h55.83a7.35,7.35,0,0,0,5.22-2.13,6.43,6.43,0,0,0,2.12-5.21,40.07,40.07,0,0,0-2.73-15.39" transform="translate(-27.77 -304.03)"/><path id="Tracé_5636" data-name="Tracé 5636" class="cls-1" d="M745.06,471.4a4,4,0,1,1,3.82-4.24v.27a3.79,3.79,0,0,1-3.59,4h-.25m0-9.17a5.13,5.13,0,1,0,.15,0h-.15" transform="translate(-27.77 -304.03)"/><path id="Tracé_5637" data-name="Tracé 5637" class="cls-1" d="M744.81,467.07h-.62v-1.51h.62c.74,0,1.11.37,1.11.75s-.5.85-1.11.74m1.49.37h0a1.36,1.36,0,0,0,1-1.66,1.44,1.44,0,0,0-.46-.7,4,4,0,0,0-1.73-.37,10.92,10.92,0,0,0-2,.12v5.11h1.11v-2h.5a1,1,0,0,1,1.11.74c.12.37.25.87.37,1.25h1.24a2.53,2.53,0,0,1-.37-1.25,1.18,1.18,0,0,0-.74-1.24" transform="translate(-27.77 -304.03)"/><path id="Tracé_5638" data-name="Tracé 5638" class="cls-1" d="M292.7,376.61c-.74-.62-7.44-5.7-21.83-5.7a69,69,0,0,0-11.29,1,42.64,42.64,0,0,0-19.1-28.67L236.65,341l-2.49,3.6a53.18,53.18,0,0,0-6.83,15.88,37.72,37.72,0,0,0,4.47,29.64,52.73,52.73,0,0,1-19.47,4.73H36.1a8.29,8.29,0,0,0-8.31,8.29v0a125.54,125.54,0,0,0,7.68,45.29,67.87,67.87,0,0,0,26.8,34.85C75.42,491.4,96.89,496,121.08,496a180.28,180.28,0,0,0,32.63-3,135,135,0,0,0,42.69-15.52,117,117,0,0,0,29-23.82,157.92,157.92,0,0,0,28.42-49h2.48a40.85,40.85,0,0,0,29.9-11.29,33.18,33.18,0,0,0,7.94-11.67l1.12-3.22Z" transform="translate(-27.77 -304.03)"/><path id="Tracé_5639" data-name="Tracé 5639" class="cls-1" d="M52.47,389.77H76.05a2.09,2.09,0,0,0,2.12-2.06V366.54a2.09,2.09,0,0,0-2.06-2.12H52.47a2.09,2.09,0,0,0-2.12,2.06v21.16a2.18,2.18,0,0,0,2.12,2.13" transform="translate(-27.77 -304.03)"/><path id="Tracé_5640" data-name="Tracé 5640" class="cls-1" d="M85,389.77h23.58a2.09,2.09,0,0,0,2.12-2.06V366.54a2.09,2.09,0,0,0-2.06-2.12H85a2.08,2.08,0,0,0-2.12,2.06v21.16A2.18,2.18,0,0,0,85,389.77" transform="translate(-27.77 -304.03)"/><path id="Tracé_5641" data-name="Tracé 5641" class="cls-1" d="M118.11,389.77h23.57a2.1,2.1,0,0,0,2.13-2V366.54a2.09,2.09,0,0,0-2.05-2.12H118.11a2.1,2.1,0,0,0-2.13,2.06v21.16a2,2,0,0,0,1.92,2.13h.21" transform="translate(-27.77 -304.03)"/><path id="Tracé_5642" data-name="Tracé 5642" class="cls-1" d="M150.75,389.77h23.57a2.08,2.08,0,0,0,2.12-2.06V366.54a2.07,2.07,0,0,0-2-2.12H150.75a2.1,2.1,0,0,0-2.13,2.06v21.16a2.1,2.1,0,0,0,2.07,2.13h.06" transform="translate(-27.77 -304.03)"/><path id="Tracé_5643" data-name="Tracé 5643" class="cls-1" d="M85,359.62h23.58a2.18,2.18,0,0,0,2.12-2.13v-21.1a2.08,2.08,0,0,0-2.06-2.12H85a2.08,2.08,0,0,0-2.12,2.06v21.16A2.28,2.28,0,0,0,85,359.62" transform="translate(-27.77 -304.03)"/><path id="Tracé_5644" data-name="Tracé 5644" class="cls-1" d="M118.11,359.62h23.57a2.18,2.18,0,0,0,2.13-2.13v-21.1a2.09,2.09,0,0,0-2.05-2.12H118.11a2.09,2.09,0,0,0-2.13,2.06v21.16a2.1,2.1,0,0,0,2.06,2.13h.07" transform="translate(-27.77 -304.03)"/><path id="Tracé_5645" data-name="Tracé 5645" class="cls-1" d="M150.75,359.62h23.57a2.18,2.18,0,0,0,2.12-2.13v-21.1a2.16,2.16,0,0,0-2.12-2.12H150.75a2.09,2.09,0,0,0-2.13,2.06v21.16a2.19,2.19,0,0,0,2.13,2.13" transform="translate(-27.77 -304.03)"/><path id="Tracé_5646" data-name="Tracé 5646" class="cls-1" d="M150.75,329.35h23.57a2.08,2.08,0,0,0,2.12-2.06V306.12a2.16,2.16,0,0,0-2.12-2.09H150.75a2.08,2.08,0,0,0-2.13,2.05v21.14a2.19,2.19,0,0,0,2.13,2.13" transform="translate(-27.77 -304.03)"/><path id="Tracé_5647" data-name="Tracé 5647" class="cls-1" d="M183.62,389.77h23.57a2.09,2.09,0,0,0,2.13-2V366.54a2.09,2.09,0,0,0-2.06-2.12H183.62a2.09,2.09,0,0,0-2.13,2.06v21.16a2.19,2.19,0,0,0,2.13,2.13" transform="translate(-27.77 -304.03)"/></svg>