<svg xmlns="http://www.w3.org/2000/svg" width="121.249" height="36.049" viewBox="0 0 121.249 36.049"><defs><style>.a{fill:#82aafd;}</style></defs><g transform="translate(0 0)"><path class="a" d="M-496.148-174.758l-18.324,14.39v-14.39h-7.195v35.97h7.195v-14.385l18.213,14.385h10.568l-21.586-17.536,21.586-18.435Z" transform="translate(521.667 174.776)"/><path class="a" d="M-452.629-174.736v21.6h28.8v7.2h-28.8v7.2h36v-21.6h-28.8v-7.2h28.8v-7.2Z" transform="translate(537.873 174.782)"/><path class="a" d="M-467.575-166.675v9.028l-9.245,6.94v-9.023Z" transform="translate(532.195 176.674)"/><path class="a" d="M-458.9-162.065l0,14.391h-19.161l-9.569,7.186v.032h35.953v-27.032Z" transform="translate(529.656 176.483)"/><path class="a" d="M-451.719-174.773l-9.611,7.218h-19.087v14.329l-7.218,5.424v-26.971Z" transform="translate(529.656 174.773)"/></g></svg>