<svg xmlns="http://www.w3.org/2000/svg" width="176.383" height="22.108" viewBox="0 0 176.383 22.108"><defs><style>.a{fill:#82aafd;}</style></defs><path class="a" d="M-885.031-474.088h11.237l-5.943-9.56-10.9,17.284H-895.6l13.264-20.762a3.134,3.134,0,0,1,2.6-1.346,3.076,3.076,0,0,1,2.551,1.311l13.317,20.8h-4.963l-2.342-3.864h-11.377Zm51.555,3.861v-18.034h-4.213v19.8a2.065,2.065,0,0,0,.612,1.468,2.152,2.152,0,0,0,1.538.629h19.206l2.482-3.864Zm-69.678-3.232a7.4,7.4,0,0,0,7.446-7.356,7.4,7.4,0,0,0-7.356-7.446h-18.516v21.9h4.209V-484.4h13.935a3.548,3.548,0,0,1,3.547,3.549,3.548,3.548,0,0,1-3.547,3.546l-11.873-.017,12.572,10.957h6.117l-8.458-7.1Zm-44.342,7.1a10.949,10.949,0,0,1-10.949-10.949A10.949,10.949,0,0,1-947.5-488.261h12.728a10.949,10.949,0,0,1,10.949,10.949,10.948,10.948,0,0,1-10.949,10.949Zm12.445-3.863a7.087,7.087,0,0,0,7.131-7.042,7.087,7.087,0,0,0-7.042-7.131h-12.251a7.087,7.087,0,0,0-7.13,7.042,7.086,7.086,0,0,0,7.042,7.131h12.251Zm79.974,3.863a10.949,10.949,0,0,1-10.949-10.949,10.949,10.949,0,0,1,10.949-10.949h15.117l-2.464,3.862H-854.8a7.087,7.087,0,0,0-7.131,7.042,7.087,7.087,0,0,0,7.042,7.131h15.275l-2.481,3.862Zm51.5-3.863a7.076,7.076,0,0,1-6.816-5.156h18l2.481-3.862h-20.483a7.1,7.1,0,0,1,6.816-5.156h12.356l2.5-3.861h-15.134A10.949,10.949,0,0,0-814.8-477.312a10.949,10.949,0,0,0,10.949,10.949h12.985l2.481-3.864h-15.187m17.109-15.71a1.931,1.931,0,0,1,1.94-1.922,1.931,1.931,0,0,1,1.922,1.94,1.931,1.931,0,0,1-1.94,1.922,1.917,1.917,0,0,1-1.922-1.911Zm1.922,2.482a2.464,2.464,0,0,0,2.482-2.447,2.464,2.464,0,0,0-2.446-2.482,2.465,2.465,0,0,0-2.482,2.447v.018A2.46,2.46,0,0,0-784.543-483.455Zm-.227-3.932a1.774,1.774,0,0,1,.716.087.77.77,0,0,1,.542.769.7.7,0,0,1-.035.227.707.707,0,0,1-.332.472c-.035.017-.052.035-.122.07l.629,1.136h-.612l-.559-1.048h-.385v1.048h-.542v-2.761Zm.193,1.258c.175-.018.349-.018.454-.175a.368.368,0,0,0,.07-.245.391.391,0,0,0-.21-.332,1.264,1.264,0,0,0-.507-.053h-.157v.8h.35" transform="translate(958.444 488.471)"/></svg>