<svg xmlns="http://www.w3.org/2000/svg" width="130.894" height="66.895" viewBox="0 0 130.894 66.895"><defs><style>.a{fill:#82aafd;}</style></defs><g transform="translate(0)"><path class="a" d="M-821.016-178.236l-.844-5.109c-.263-1.634-.922-2.977-1.421-2.977s-.923,1.37-.923,3.029v1.343a3.045,3.045,0,0,1-3.028,3.028h-1.634v3.661h5.321a2.488,2.488,0,0,0,2.528-2.976" transform="translate(924.152 186.348)"/><path class="a" d="M-817.685-182.549h-16.723a1.115,1.115,0,0,0-.29.026v-.79c0-1.659-.422-3.028-.922-3.028s-1.159,1.342-1.423,2.976l-.842,5.109a2.488,2.488,0,0,0,2.528,2.976h5.03a4.754,4.754,0,0,0,1.423-.21,1.838,1.838,0,0,1-1.818,1.5h-7.058a1.854,1.854,0,0,1-1.817-2.16l.711-4.292a1.855,1.855,0,0,0-1.818-2.16h-35.054a1.87,1.87,0,0,0-1.685,1.08l-6.585,10.113a.477.477,0,0,0,.027.553l1.291,1.5a.454.454,0,0,0,.631.054l4.478-3.529v21.491a1.832,1.832,0,0,0,1.843,1.843h9.956a1.833,1.833,0,0,0,1.843-1.843v-7.48a1.832,1.832,0,0,1,1.843-1.843h24.862a1.832,1.832,0,0,1,1.844,1.843v7.48a1.832,1.832,0,0,0,1.843,1.843h9.955a1.833,1.833,0,0,0,1.845-1.843v-8.034h-5.294a3.045,3.045,0,0,1-3.028-3.028v-5.163a3.043,3.043,0,0,1,1.212-2.422v6.162a3.046,3.046,0,0,0,3.028,3.029h8.139a3.046,3.046,0,0,0,3.028-3.029v-15.7a3.023,3.023,0,0,0-3-3.028" transform="translate(908.783 186.342)"/><g transform="translate(0 44.272)"><path class="a" d="M-885.925-133.531a2.63,2.63,0,0,1-.763.121c-1.9,0-2.528-2.054-3.423-3.9a6.362,6.362,0,0,0-1.528-2.081,6.133,6.133,0,0,0,4.4-5.926c0-4-2.9-6.084-7.163-6.084h-9.007v21.86h5.4v-8.638h1.239c1.212,0,2.107,2.712,2.765,4.267,1.527,3.475,3.029,4.476,5.61,4.476a8.329,8.329,0,0,0,1.212-.1h-.079Zm-10.139-8.569h-1.949v-5.374h2.608c1.475,0,2.712.633,2.712,2.555C-892.693-142.574-894.509-142.1-896.064-142.1Z" transform="translate(903.411 151.793)"/><path class="a" d="M-883.451-151.4l-6.005,17.867c.065-.02.106-.037.106-.037l-.422,3.846s-.406.1-.947.184h4.662l1.317-4.135h7.295l1.37,4.135h5.477l-7.374-21.86Zm0,13.7,1.5-4.662a25.578,25.578,0,0,0,.817-3.715H-881a20.162,20.162,0,0,0,.738,3.767l1.5,4.609Z" transform="translate(906.942 151.793)"/><path class="a" d="M-889.333-137.449s-.041.017-.106.037l-1.342,3.993h.079c.541-.083.947-.184.947-.184Z" transform="translate(906.925 155.674)"/><path class="a" d="M-861.724-140.91c0,1.264.159,3,.238,4.24h-.132c-.526-1.29-1.159-2.95-1.659-3.9l-5.742-10.851h-5.794v21.886h4.478V-140.04c0-1.185-.158-2.66-.263-3.9h.132a29.337,29.337,0,0,0,1.58,3.556l5.953,10.824h5.663v-21.859h-4.452Z" transform="translate(911.368 151.787)"/><path class="a" d="M-846.489-137.28a3.433,3.433,0,0,1-3.661,4.241c-2.37,0-4.451-1.527-4.451-7.48,0-5.636,1.922-7.374,4.267-7.374,2.449,0,3.82,1.4,3.266,4.873l5.057-.449c.711-4.74-1.843-8.216-8.218-8.216-6.031-.027-9.955,3.239-9.955,11.14h0c0,7.981,3.819,11.457,9.745,11.457,5.82,0,9.033-3.266,8.691-7.717Z" transform="translate(915.438 151.713)"/><path class="a" d="M-832.86-143.128H-839.5v-8.27h-5.4v21.86h5.4v-9.271h6.637v9.271h5.4V-151.4h-5.4Z" transform="translate(919.692 151.793)"/><path class="a" d="M-824.141-138.671h7.611v-4.03h-7.611v-4.688h9.06v-4.03h-14.485v21.886h14.828v-4.03h-9.4Z" transform="translate(923.957 151.787)"/><path class="a" d="M-803.842-137.307a6.359,6.359,0,0,0-1.528-2.081,6.132,6.132,0,0,0,4.4-5.926c0-4-2.9-6.084-7.163-6.084h-9.008v21.86h5.4v-8.638h1.239c1.21,0,2.107,2.712,2.765,4.267,1.527,3.475,3.028,4.476,5.61,4.476a10.557,10.557,0,0,0,2.159-.289l.422-3.846a2.6,2.6,0,0,1-.869.158C-802.314-133.409-802.946-135.464-803.842-137.307Zm-5.952-4.793h-1.949v-5.374h2.608c1.475,0,2.712.633,2.712,2.555C-806.423-142.574-808.24-142.1-809.793-142.1Z" transform="translate(927.414 151.793)"/><path class="a" d="M-801.842-151.707a1.405,1.405,0,0,0-1.474,1.475,1.4,1.4,0,0,0,1.474,1.448,1.4,1.4,0,0,0,1.475-1.448A1.406,1.406,0,0,0-801.842-151.707Zm.027,2.634a1.084,1.084,0,0,1-1.132-1.159,1.069,1.069,0,0,1,1.132-1.158,1.049,1.049,0,0,1,1.106,1.158A1.064,1.064,0,0,1-801.815-149.073Z" transform="translate(931.261 151.707)"/><path class="a" d="M-801.48-150.681c0-.369-.263-.449-.527-.449h-.527v1.448h.289v-.579h.132l.317.579h.316l-.343-.6A.423.423,0,0,0-801.48-150.681Zm-.527.21h-.263v-.395h.263c.1,0,.236.027.236.185A.214.214,0,0,1-802.006-150.472Z" transform="translate(931.479 151.867)"/></g></g></svg>