<svg xmlns="http://www.w3.org/2000/svg" width="92.508" height="35.271" viewBox="0 0 92.508 35.271"><defs><style>.a{fill:#82aafd;}</style></defs><path class="a" d="M43.936,35.653a18.388,18.388,0,0,1-7.044-1.32A16.566,16.566,0,0,1,27.67,25.04,18.543,18.543,0,0,1,26.368,18a18.464,18.464,0,0,1,1.3-7,16.574,16.574,0,0,1,9.222-9.29,19.345,19.345,0,0,1,14.046,0,16.925,16.925,0,0,1,5.593,3.7A16.632,16.632,0,0,1,60.206,11a18.531,18.531,0,0,1,1.3,7,18.61,18.61,0,0,1-1.3,7.044,16.663,16.663,0,0,1-3.675,5.593,16.925,16.925,0,0,1-5.593,3.7A18.3,18.3,0,0,1,43.936,35.653Zm0-3.255a14.619,14.619,0,0,0,5.642-1.079,13.48,13.48,0,0,0,4.514-3.039,13.987,13.987,0,0,0,2.971-4.58A15.084,15.084,0,0,0,58.119,18a14.959,14.959,0,0,0-1.057-5.658,13.914,13.914,0,0,0-2.971-4.58,13.5,13.5,0,0,0-4.514-3.037,15.383,15.383,0,0,0-11.321,0A13.425,13.425,0,0,0,33.744,7.76a13.946,13.946,0,0,0-2.973,4.58A14.959,14.959,0,0,0,29.715,18a15.118,15.118,0,0,0,1.057,5.7,13.964,13.964,0,0,0,2.973,4.58,13.473,13.473,0,0,0,4.512,3.039A14.734,14.734,0,0,0,43.936,32.4Zm34.784,3.255a15.07,15.07,0,0,1-7.462-1.806,10.41,10.41,0,0,1-4.6-4.8,1.32,1.32,0,0,1-.024-1.3,1.759,1.759,0,0,1,1.125-.814,1.607,1.607,0,0,1,1.21.133,2.033,2.033,0,0,1,.9.924,7.643,7.643,0,0,0,3.346,3.17,11.64,11.64,0,0,0,5.506,1.233A9.347,9.347,0,0,0,84.464,30.7a5.746,5.746,0,0,0,2.267-4.908,6.248,6.248,0,0,0-1.979-4.624A10.568,10.568,0,0,0,78.543,18.7a14.436,14.436,0,0,1-8.059-3.192,8.119,8.119,0,0,1-2.9-6.313,7.769,7.769,0,0,1,1.431-4.666,9.226,9.226,0,0,1,3.942-3.06A14.519,14.519,0,0,1,78.719.392a11.417,11.417,0,0,1,6.252,1.649,12.6,12.6,0,0,1,4.007,3.9A1.767,1.767,0,0,1,89.264,7.3,1.537,1.537,0,0,1,88.5,8.316a1.839,1.839,0,0,1-2.378-.75,9.737,9.737,0,0,0-2.753-2.713,8.556,8.556,0,0,0-4.688-1.21,9.581,9.581,0,0,0-5.59,1.475,4.907,4.907,0,0,0-2.113,4.294A5.159,5.159,0,0,0,72.8,13.331Q74.626,15,79.293,15.663q5.5.792,8.169,3.365a8.919,8.919,0,0,1,2.662,6.714,9.341,9.341,0,0,1-1.519,5.393A9.493,9.493,0,0,1,84.489,34.5a14.167,14.167,0,0,1-5.769,1.146Zm26.373-.441a1.729,1.729,0,0,1-1.719-1.716V3.952H92.94a1.545,1.545,0,0,1-1.147-.441,1.488,1.488,0,0,1-.432-1.1,1.553,1.553,0,0,1,.432-1.146A1.553,1.553,0,0,1,92.94.826h24.349a1.507,1.507,0,0,1,1.585,1.585,1.489,1.489,0,0,1-.439,1.1,1.544,1.544,0,0,1-1.145.441H106.81V33.5a1.681,1.681,0,0,1-.485,1.208A1.626,1.626,0,0,1,105.092,35.212Z" transform="translate(-26.366 -0.385)"/></svg>