<svg xmlns="http://www.w3.org/2000/svg" viewBox="0 0 750 405.68"><defs><clipPath id="clip-path"><path fill="none" d="M0-.05h750v404H0z"/></clipPath><style>.cls-3{fill:#6b8ad9}.cls-5{fill:#1c2657}.cls-6{fill:#121a45}.cls-8{fill:#2e3863}.cls-10{fill:#ba69c7}.cls-11{fill:#3d54cf}.cls-12{fill:#4a6beb}.cls-13{fill:#304599}.cls-14{fill:#38474f}.cls-17{fill:#edc969}.cls-18{fill:#e3c2e8}.cls-19{fill:#f2e0f5}.cls-20{fill:#8ca6fa}.cls-22{fill:#e0e0e0}.cls-28{fill:#dbe3fc}</style></defs><g id="MARKET"><g clip-path="url(#clip-path)"><path class="cls-3" d="M274.21 401.06c-166.95-123.7-166.95-324.26 0-448s437.63-123.7 604.58 0 167 324.26 0 448-437.63 123.7-604.58 0"/></g><path class="cls-3" d="M42.4 247.41a9.28 9.28 0 00-2.32 5.6 9.61 9.61 0 004.44 7.42l162.17 94.12a9.75 9.75 0 008.88 0l104-60.34a9.59 9.59 0 004.44-7.42 9.23 9.23 0 00-2.33-5.6l1.73 1a10.4 10.4 0 010 18.52l-104 60.34a17.3 17.3 0 01-16.56 0L40.68 266.93a10.39 10.39 0 010-18.52z"/><path d="M324 286.79a9.59 9.59 0 01-4.44 7.42l-104 60.34a9.79 9.79 0 01-8.88 0L44.52 260.43a8.41 8.41 0 010-14.83l104-60.34a9.79 9.79 0 018.88 0l162.17 94.12a9.58 9.58 0 014.44 7.41" fill="#1c2445"/><path class="cls-5" d="M319.53 284.54l-104 60.34a9.79 9.79 0 01-8.88 0L44.52 250.76c-2.46-1.43-2.46-3.74 0-5.16l104-60.34a9.79 9.79 0 018.88 0l162.17 94.12c2.45 1.42 2.45 3.73 0 5.16"/><path class="cls-6" d="M211.12 346v9.66a9.07 9.07 0 004.45-1.06l104-60.34a8.39 8.39 0 00.45-14.54c2 1.43 1.84 3.54-.45 4.87l-104 60.34a9.07 9.07 0 01-4.45 1.07"/><path d="M328.13 279.54c2.31-1.33 2.18-3.59 2.18-6.44V145.43a9.87 9.87 0 00-4.44-7.73L163.7 43.58c-2.45-1.43-6-1.44-8.1.23s-2.68 3.2-2.68 6v127.72a9.89 9.89 0 004.44 7.73l162.17 94.12a9.46 9.46 0 008.6.16" fill="#293363"/><path class="cls-6" d="M152.92 49.85c0-2.84 2-4 4.44-2.58l162.17 94.13a9.05 9.05 0 013.14 3.34L329 141a9.21 9.21 0 00-3.14-3.34L163.7 43.58c-2.45-1.43-6-1.45-8.09.22s-2.69 3.21-2.69 6.05"/><path class="cls-6" d="M320.05 279.65a9.54 9.54 0 008.08-.11c2.3-1.33 2.18-3.59 2.18-6.43V145.43A9.07 9.07 0 00329 141l-6.34 3.69a9.21 9.21 0 011.3 4.4V276.8c0 2.64-1.71 3.83-3.92 2.85m-2.9-133.1L161.08 56c-1.47-.86-2.67-.17-2.67 1.54v118.74a6 6 0 002.67 4.64l156.06 90.55c1.47.85 2.66.16 2.66-1.55V151.19a5.92 5.92 0 00-2.66-4.64"/><path class="cls-5" d="M317.14 146.55a5.92 5.92 0 012.66 4.64v116.66l-154.27-89.52a5.9 5.9 0 01-2.67-4.64V57z"/><path class="cls-6" d="M305.81 280.14l-149-86.49a4.54 4.54 0 00-4.18 0l-5.43 3.06a1.28 1.28 0 000 2.43l149.05 86.48a4.62 4.62 0 004.19 0l5.4-3.05a1.28 1.28 0 000-2.43m-14.66 8.68l-149-86.5a4.28 4.28 0 00-3.83-.21l-38.82 22.52c-1 .55-.79 1.55.37 2.22l148.85 86.37a4.25 4.25 0 003.83.22L291.53 291c1-.55.8-1.54-.35-2.21"/><path class="cls-8" d="M216.91 248.56c.17-.11.16-.28 0-.4l-4.67-2.71a.78.78 0 00-.68 0l-4.5 2.55c-.18.1-.16.28 0 .4l4.67 2.7a.73.73 0 00.67 0zm-59.14-32.43c.18-.1.16-.27 0-.39l-4.71-2.74a.75.75 0 00-.67 0l-1.19.69c-.18.1-.16.28 0 .39l4.66 2.71a.72.72 0 00.68 0zm-37.19 13.26a.75.75 0 00.67 0l4.47-2.59c.17-.1.16-.28 0-.39l-4.72-2.69a.72.72 0 00-.68 0l-4.46 2.59c-.18.1-.16.28 0 .39l4.67 2.71M138 211.76c.18-.1.16-.28 0-.39l-4.67-2.71a.73.73 0 00-.67 0l-4.47 2.6c-.17.1-.16.27 0 .39l4.67 2.71a.78.78 0 00.68 0zm6.1-3.54c.18-.1.16-.28 0-.4l-4.67-2.7a.73.73 0 00-.67 0l-1.19.69c-.18.1-.16.28 0 .4l4.66 2.7a.75.75 0 00.68 0zm20.46 11.87c.18-.1.16-.28 0-.39l-4.68-2.7a.75.75 0 00-.67 0l-1.19.69c-.18.1-.16.27 0 .39l4.66 2.71a.78.78 0 00.68 0zm38.68 20.55c.17-.1.16-.28 0-.39l-4.67-2.71a.72.72 0 00-.68 0l-4.46 2.59c-.18.1-.16.27 0 .39l4.67 2.71a.75.75 0 00.67 0zm6.82 4c.17-.1.16-.28 0-.4l-4.67-2.7a.75.75 0 00-.68 0l-4.46 2.59c-.18.11-.16.28 0 .4l4.67 2.71a.75.75 0 00.67 0zm-28.76-16.75c.18-.1.16-.28 0-.39l-4.66-2.71a.72.72 0 00-.68 0l-4.47 2.59c-.17.1-.15.27 0 .39l4.67 2.71a.78.78 0 00.68 0zm15.15 8.79c.17-.1.16-.28 0-.39l-4.67-2.71a.74.74 0 00-.68 0l-4.46 2.59c-.18.1-.16.28 0 .39l4.67 2.71a.72.72 0 00.67 0zm-22-12.75c.18-.1.16-.28 0-.39l-4.66-2.71a.78.78 0 00-.68 0l-4.47 2.59c-.17.1-.15.28 0 .39l4.67 2.71a.72.72 0 00.68 0zm13.64 7.92c.18-.1.16-.28 0-.39l-4.66-2.71a.75.75 0 00-.68 0l-4.47 2.6c-.17.1-.15.27 0 .39l4.67 2.71a.78.78 0 00.68 0zM151 212.18c.18-.11.16-.28 0-.4l-4.67-2.71a.75.75 0 00-.67 0l-1.19.69c-.18.1-.16.28 0 .39l4.66 2.71a.75.75 0 00.68 0zm36 55.75a.78.78 0 00.68 0l4.46-2.59c.17-.1.16-.28 0-.39l-4.67-2.71a.75.75 0 00-.68 0l-4.46 2.6c-.18.1-.16.27 0 .39l4.67 2.71m13.64 7.91a.73.73 0 00.67 0l4.47-2.59c.17-.11.16-.28 0-.4l-4.67-2.71a.78.78 0 00-.68 0l-4.46 2.59c-.18.1-.16.28 0 .4l4.67 2.7m-6.82-3.95a.75.75 0 00.67 0l4.47-2.59c.17-.1.16-.28 0-.39l-4.67-2.71a.75.75 0 00-.68 0l-4.46 2.59c-.18.11-.16.28 0 .4l4.67 2.71m27.27 15.83a.78.78 0 00.68 0l4.47-2.59c.17-.1.15-.28 0-.39l-4.67-2.71a.72.72 0 00-.68 0l-4.46 2.59c-.18.1-.16.27 0 .39l4.66 2.71m-13.63-7.92a.7.7 0 00.67 0l4.47-2.59c.17-.1.15-.28 0-.39l-4.67-2.71a.78.78 0 00-.68 0l-4.46 2.59c-.18.1-.16.28 0 .39l4.67 2.71m6.81 4a.78.78 0 00.68 0l4.47-2.59c.17-.1.15-.28 0-.39l-4.67-2.71a.78.78 0 00-.68 0l-4.46 2.59c-.18.1-.16.28 0 .39l4.66 2.71m-59.82-40.27c.18-.11.16-.28 0-.4l-4.67-2.71a.75.75 0 00-.67 0l-4.53 2.57c-.17.1-.16.28 0 .4l4.67 2.7a.75.75 0 00.68 0zM180.16 264a.72.72 0 00.67 0l4.47-2.59c.18-.1.16-.28 0-.39l-4.67-2.71a.74.74 0 00-.68 0l-4.46 2.59c-.18.1-.16.28 0 .39l4.67 2.71m-39.57-30.4a.75.75 0 00.68 0l4.46-2.59c.18-.11.16-.28 0-.4l-4.73-2.68a.78.78 0 00-.68 0l-4.46 2.59c-.18.1-.16.28 0 .4l4.66 2.7m-1.23 1.14c.17-.11.15-.28 0-.4l-4.67-2.7a.75.75 0 00-.68 0l-4.46 2.59c-.18.11-.16.28 0 .4l4.66 2.7a.75.75 0 00.68 0zm34 25.27a.7.7 0 00.67 0l4.47-2.59c.17-.1.16-.27 0-.39l-13.64-7.92a.78.78 0 00-.68 0l-4.46 2.59c-.18.1-.16.28 0 .39l13.69 7.89m-18.12-25.32a.75.75 0 00.68 0l4.47-2.59c.17-.11.15-.28 0-.4l-4.67-2.7a.75.75 0 00-.68 0l-4.46 2.59c-.18.1-.16.28 0 .4l4.66 2.7m-27.82-1.34a.75.75 0 00.67 0l4.47-2.59c.17-.1.15-.28 0-.39l-4.67-2.71a.75.75 0 00-.68 0l-4.46 2.6c-.18.1-.16.27 0 .39l4.67 2.71m10.81 13.3c-.18.11-.16.28 0 .4l4.66 2.71a.78.78 0 00.68 0l4.46-2.59c.18-.1.16-.28 0-.4l-4.66-2.7a.75.75 0 00-.68 0zm24.4 14.17c-.17.1-.16.28 0 .39l5.75 3.34a.75.75 0 00.67 0l4.47-2.59c.17-.1.16-.28 0-.39l-5.75-3.34a.75.75 0 00-.67 0zm72.15 41.87c-.18.1-.16.28 0 .39l5.74 3.34a.78.78 0 00.68 0l4.46-2.59c.18-.1.16-.28 0-.39l-5.74-3.34a.78.78 0 00-.68 0zM178.41 270c-.18.1-.16.27 0 .39l5.74 3.33a.72.72 0 00.68 0l4.46-2.59c.18-.1.16-.27 0-.39l-5.74-3.33a.75.75 0 00-.68 0zm48.45 28.12c-.18.1-.16.28 0 .39l5.74 3.33a.75.75 0 00.68 0l4.47-2.59c.17-.11.15-.28 0-.4l-5.75-3.31a.74.74 0 00-.68 0zm-40.56-23.55c-.17.1-.16.28 0 .39l38.41 22.29a.71.71 0 00.68 0l4.46-2.59c.18-.1.16-.27 0-.39L191.44 272a.72.72 0 00-.67 0zm-33-19.17c-.17.1-.16.28 0 .4l7.2 4.2a.75.75 0 00.68 0l4.46-2.59c.18-.11.16-.28 0-.4l-7.18-4.16a.75.75 0 00-.68 0zm17.23 10c-.18.1-.16.28 0 .4l5.74 3.33a.78.78 0 00.68 0l4.46-2.59c.18-.1.16-.28 0-.39l-5.74-3.33a.75.75 0 00-.68 0zM102.67 226c-.17.1-.15.28 0 .39l4.67 2.71a.72.72 0 00.68 0l10.84-6.29c.17-.1.16-.28 0-.39l-4.67-2.71a.78.78 0 00-.68 0L102.67 226m6.82 4c-.17.1-.16.28 0 .39l4.67 2.71a.72.72 0 00.68 0l4.46-2.59c.18-.1.16-.28 0-.39l-4.67-2.71a.72.72 0 00-.67 0zM145 250.61c-.18.1-.16.28 0 .4l4.66 2.7a.75.75 0 00.68 0l4.46-2.59c.18-.11.16-.28 0-.4l-4.63-2.72a.78.78 0 00-.68 0zm82.86 41.07a.78.78 0 00.68 0l4.46-2.59c.18-.1.16-.28 0-.4l-4.66-2.7a.75.75 0 00-.68 0l-4.46 2.59c-.18.11-.16.28 0 .4l4.66 2.71m-96.5-49c-.18.11-.16.28 0 .4l4.66 2.71a.78.78 0 00.68 0l4.46-2.59c.18-.1.16-.28 0-.39l-4.66-2.71a.75.75 0 00-.68 0zM116.31 234c-.17.1-.16.27 0 .39l11.53 6.61a.78.78 0 00.68 0l4.46-2.59c.18-.1.16-.28 0-.39l-11.49-6.67a.7.7 0 00-.67 0zm147.45 41.8c.18-.1.16-.28 0-.4l-4.67-2.7a.73.73 0 00-.67 0l-4.47 2.59c-.18.11-.16.28 0 .4l4.67 2.71a.75.75 0 00.67 0zm-6.82-4c.17-.1.16-.28 0-.39l-4.67-2.71a.74.74 0 00-.68 0l-4.46 2.6c-.18.1-.16.27 0 .39l4.67 2.71a.75.75 0 00.67 0zm-14.29 35.48c-.17.11-.15.28 0 .4l7.18 4.16a.75.75 0 00.68 0l4.46-2.59c.18-.11.16-.28 0-.4l-7.18-4.16a.73.73 0 00-.67 0zm4.5-41.16c.18-.1.16-.28 0-.39l-4.7-2.73a.72.72 0 00-.68 0l-4.47 2.59c-.17.1-.15.27 0 .39l4.67 2.71a.78.78 0 00.68 0zm-13.64-7.92c.18-.1.16-.27 0-.39l-4.66-2.71a.78.78 0 00-.68 0l-4.46 2.59c-.18.1-.16.28 0 .39l4.66 2.71a.72.72 0 00.68 0zm37.07 21.52c.18-.11.16-.28 0-.4l-4.67-2.7a.75.75 0 00-.68 0l-4.46 2.59c-.18.1-.16.28 0 .4l4.67 2.7a.74.74 0 00.68 0zm-30.25-17.56c.18-.1.16-.28 0-.39l-4.66-2.71a.78.78 0 00-.68 0l-4.46 2.59c-.18.1-.16.28 0 .39l4.66 2.71a.74.74 0 00.68 0zm-13.64-7.91c.18-.11.16-.28 0-.4l-4.69-2.72a.78.78 0 00-.68 0l-4.46 2.59c-.18.1-.16.28 0 .4l4.66 2.7a.75.75 0 00.68 0zm23.78 50.17c-.18.1-.16.27 0 .39l5.74 3.33a.75.75 0 00.68 0l4.46-2.6c.18-.1.16-.27 0-.39l-5.74-3.33a.72.72 0 00-.68 0l-4.46 2.59m3.14-5.58c-.17.1-.16.28 0 .39l9 5.21a.7.7 0 00.67 0l4.47-2.59c.17-.1.16-.27 0-.39l-9-5.21a.75.75 0 00-.67 0l-4.47 2.59m23.79-15.17c.17-.1.16-.27 0-.39l-4.67-2.71a.78.78 0 00-.68 0l-4.46 2.59c-.18.1-.16.28 0 .39l4.67 2.71a.73.73 0 00.67 0zm-.06 5.15c-.18.1-.16.28 0 .39l5.74 3.34a.78.78 0 00.68 0l4.46-2.59c.18-.1.16-.28 0-.39l-5.74-3.34a.78.78 0 00-.68 0l-4.46 2.59m-15.56 7.36c-.17.1-.15.28 0 .39l7.18 4.17a.72.72 0 00.68 0l4.46-2.59c.18-.1.16-.28 0-.39l-7.17-4.17a.78.78 0 00-.68 0l-4.47 2.59m8.89-2.24c-.17.1-.15.28 0 .39l4.67 2.71a.78.78 0 00.68 0l4.46-2.59c.18-.1.16-.28 0-.39l-4.66-2.71a.72.72 0 00-.68 0l-4.47 2.59m-36 1.7a.75.75 0 00.68 0l4.47-2.59c.17-.11.15-.28-.05-.4l-4.62-2.64a.78.78 0 00-.68 0l-4.47 2.53c-.18.1-.16.28 0 .39l4.66 2.71M226 269.85a.78.78 0 00-.68 0l-4.46 2.59c-.18.1-.16.28 0 .4l4.66 2.7a.75.75 0 00.68 0l4.46-2.59c.18-.11.16-.28 0-.4l-4.66-2.7m6.82 4a.78.78 0 00-.68 0l-4.46 2.59c-.18.1-.16.28 0 .39l4.66 2.71a.72.72 0 00.68 0l4.46-2.59c.18-.1.16-.27 0-.39l-4.66-2.71M205.55 258a.78.78 0 00-.68 0l-4.46 2.59c-.18.1-.16.28 0 .39l4.66 2.71a.78.78 0 00.68 0l4.47-2.59c.17-.1.15-.28 0-.39l-4.67-2.71m13.64 7.92a.75.75 0 00-.68 0l-4.46 2.59c-.18.11-.16.28 0 .4l4.66 2.71a.78.78 0 00.68 0l4.51-2.62c.17-.1.15-.28 0-.4l-4.67-2.7m-6.82-4a.72.72 0 00-.68 0l-4.46 2.59c-.18.1-.16.27 0 .39l4.66 2.71a.78.78 0 00.68 0l4.47-2.59c.17-.1.15-.28 0-.39l-4.67-2.71m27.28 15.83a.74.74 0 00-.68 0l-4.46 2.59c-.18.1-.16.28 0 .39l4.66 2.71a.74.74 0 00.68 0l4.46-2.59c.18-.1.16-.28 0-.39l-4.66-2.71m6.82 4a.72.72 0 00-.68 0l-4.46 2.59c-.18.1-.16.27 0 .39l4.63 2.69a.78.78 0 00.68 0l4.46-2.59c.18-.1.16-.28 0-.39l-4.66-2.71m-22.25.41a.72.72 0 00.68 0l4.46-2.59c.18-.1.16-.27 0-.39l-4.66-2.71a.78.78 0 00-.68 0l-4.51 2.57c-.18.1-.16.28 0 .39l4.66 2.71m6.82 4a.74.74 0 00.68 0l4.46-2.59c.18-.1.16-.28 0-.39l-4.66-2.71a.74.74 0 00-.68 0l-4.47 2.59c-.17.1-.15.28 0 .39l4.67 2.71m6.82 4a.78.78 0 00.68 0l4.46-2.59c.18-.1.16-.28 0-.39l-4.66-2.71a.72.72 0 00-.68 0l-4.47 2.59c-.17.1-.15.27 0 .39l4.67 2.71m15.43-4.37a.75.75 0 00-.68 0l-4.46 2.59c-.18.11-.16.28 0 .4l4.66 2.71a.78.78 0 00.68 0l4.46-2.59c.18-.1.16-.28 0-.39l-4.66-2.71m-3.47 5.76c.18-.1.16-.28 0-.4l-4.66-2.7a.75.75 0 00-.68 0l-4.44 2.51c-.17.11-.15.28 0 .4l4.67 2.71a.78.78 0 00.68 0zm-57.91-41.39a.78.78 0 00-.68 0l-4.46 2.59c-.18.1-.16.28 0 .4l4.66 2.7a.75.75 0 00.68 0l4.47-2.59c.17-.11.16-.28 0-.4l-4.67-2.71m-53-23c.18-.1.16-.28 0-.4l-4.66-2.7a.75.75 0 00-.68 0l-4.46 2.59c-.18.11-.16.28 0 .4l4.66 2.7a.75.75 0 00.68 0zm59.86 26.9a.78.78 0 00-.68 0l-4.46 2.59c-.18.1-.16.28 0 .39l4.66 2.71a.72.72 0 00.68 0l4.47-2.59c.17-.1.16-.27 0-.39l-4.67-2.71m-51.33-29.77a.75.75 0 00-.67 0l-4.47 2.59c-.17.1-.16.28 0 .39l4.74 2.69a.75.75 0 00.68 0l4.46-2.6c.18-.1.16-.27 0-.39l-4.67-2.71m-15.75-8.77c.18-.1.16-.28 0-.39l-4.72-2.68a.72.72 0 00-.68 0l-10.84 6.29c-.18.1-.16.28 0 .39l4.66 2.71a.74.74 0 00.68 0l10.84-6.29m-3 3.42c-.17.11-.15.28 0 .4l4.67 2.71a.78.78 0 00.68 0l4.46-2.59c.18-.1.16-.28 0-.39l-4.66-2.71a.75.75 0 00-.68 0zm11.53 7.06a.75.75 0 00.68 0l4.46-2.59c.18-.11.16-.28 0-.4l-4.67-2.7a.73.73 0 00-.67 0l-4.47 2.59c-.17.11-.15.28 0 .4l4.67 2.7m-13.2-.25a.78.78 0 00.68 0l4.47-2.59c.17-.1.15-.28 0-.39l-4.75-2.71a.75.75 0 00-.68 0l-4.46 2.6c-.18.1-.16.27 0 .39l4.66 2.71m83.63 48.53a.75.75 0 00.68 0l4.46-2.59c.18-.1.16-.28 0-.4l-4.66-2.7a.75.75 0 00-.68 0l-4.46 2.59c-.18.11-.16.28 0 .4l4.66 2.7m-75.58-59c-.18.11-.16.28 0 .4l4.67 2.7a.73.73 0 00.67 0l4.47-2.59c.17-.11.16-.28 0-.4l-4.67-2.7a.75.75 0 00-.68 0zm49.66 36.6a.75.75 0 00.67 0l4.47-2.59c.17-.1.15-.28 0-.4l-4.67-2.7a.75.75 0 00-.68 0l-4.41 2.53c-.18.11-.16.28 0 .4l4.67 2.71M147 216.57a.78.78 0 00-.68 0l-4.46 2.59c-.18.1-.16.28 0 .39l4.67 2.71a.73.73 0 00.67 0l4.47-2.59c.17-.11.16-.28 0-.4l-4.67-2.7m15 8.75a.78.78 0 00-.68 0l-4.46 2.59c-.18.1-.16.28 0 .39l4.74 2.7a.75.75 0 00.68 0l4.46-2.59c.18-.11.16-.28 0-.4l-4.74-2.69m-8.26-4.79a.78.78 0 00-.68 0l-4.46 2.59c-.18.1-.16.28 0 .39l4.67 2.71a.7.7 0 00.67 0l4.47-2.59c.17-.1.16-.27 0-.39l-4.67-2.71m63.62 57.65a.75.75 0 00.68 0l4.46-2.59c.18-.11.16-.28 0-.4l-4.66-2.71a.78.78 0 00-.68 0l-4.47 2.59c-.17.1-.15.28.05.39l4.66 2.71m31.14-2.65a.75.75 0 00-.68 0l-4.46 2.59c-.18.11-.16.28 0 .4l4.66 2.71a.78.78 0 00.68 0l4.46-2.59c.18-.1.16-.28 0-.39l-4.66-2.71m-6.82-4a.72.72 0 00-.68 0l-4.46 2.59c-.18.1-.16.28 0 .39l4.66 2.71a.78.78 0 00.68 0l4.46-2.59c.18-.1.16-.28 0-.39l-4.66-2.71m-6.82-4a.78.78 0 00-.68 0l-4.46 2.59c-.18.1-.16.28 0 .39l4.66 2.71a.72.72 0 00.68 0l4.46-2.59c.18-.1.16-.28 0-.39l-4.66-2.71m-13.64-7.91a.75.75 0 00-.68 0l-4.46 2.59c-.18.11-.16.28 0 .4l4.66 2.7a.75.75 0 00.68 0l4.54-2.51c.18-.11.16-.28 0-.4l-4.66-2.7m34.1 19.79a.75.75 0 00-.68 0l-4.46 2.59c-.18.11-.16.28 0 .4l4.66 2.7a.75.75 0 00.68 0l4.46-2.59c.18-.1.16-.28 0-.4l-4.66-2.7m-27.28-15.84a.78.78 0 00-.68 0l-4.46 2.59c-.18.1-.16.28 0 .39l4.66 2.71a.75.75 0 00.68 0l4.47-2.59c.17-.11.15-.28 0-.4l-4.67-2.71m34.1 19.79a.78.78 0 00-.68 0L257 286c-.17.1-.15.28 0 .39l4.67 2.71a.75.75 0 00.68 0l4.46-2.6c.18-.1.16-.27 0-.39l-4.66-2.71m-8.66 17.6c.18-.1.16-.28 0-.39l-4.66-2.71a.74.74 0 00-.68 0l-4.46 2.59c-.18.1-.16.28 0 .39l4.66 2.71a.78.78 0 00.68 0zm-12-1.39a.72.72 0 00.68 0l4.47-2.59c.17-.1.15-.27 0-.39l-4.64-2.71a.78.78 0 00-.68 0l-4.46 2.59c-.18.1-.16.28 0 .39l4.66 2.71m23.28-6.84c.18-.11.16-.28 0-.4l-4.66-2.7a.75.75 0 00-.68 0l-4.46 2.54c-.18.1-.16.28 0 .4l4.67 2.7a.75.75 0 00.68 0zm4.2-5.37a.78.78 0 00-.68 0l-4.47 2.6c-.17.1-.15.28 0 .39l4.67 2.71a.72.72 0 00.68 0l4.46-2.59c.18-.1.16-.28 0-.39L269 287.4m-12.36 8c.18-.11.16-.28 0-.4l-4.67-2.71a.75.75 0 00-.67 0l-4.47 2.59c-.17.1-.15.28 0 .4l4.67 2.7a.75.75 0 00.68 0zm-42.2-39.67a.75.75 0 00-.68 0l-4.46 2.6c-.18.1-.16.27 0 .39l4.66 2.71a.78.78 0 00.68 0l4.47-2.59c.17-.1.15-.28 0-.39l-4.67-2.71m-6.82-4a.72.72 0 00-.68 0l-4.46 2.59c-.18.1-.16.28 0 .39l4.66 2.71a.78.78 0 00.68 0l4.47-2.59c.17-.1.15-.28 0-.39l-4.67-2.71m-31.14 2.66a.78.78 0 00.68 0l4.47-2.59c.17-.1.15-.28 0-.4l-4.31-2.5c-.2-.11-.22-.29 0-.39l5.74-3.33c.17-.1.16-.28 0-.39l-5.39-3.13a.75.75 0 00-.67 0L166 248c-.17.1-.15.28 0 .39l10.41 6.05m-7.62-11.83a.74.74 0 00.68 0L174 240c.18-.1.16-.28 0-.39l-4.66-2.71a.78.78 0 00-.68 0l-4.46 2.59c-.18.1-.16.28 0 .39l4.66 2.71m34.9 27.66a.78.78 0 00.68 0l4.46-2.59c.18-.1.16-.28 0-.39l-4.66-2.71a.72.72 0 00-.68 0l-4.46 2.59c-.18.1-.16.27 0 .39l4.66 2.71m-6.82-4a.78.78 0 00.68 0l4.46-2.59c.18-.1.16-.28 0-.39l-4.66-2.71a.72.72 0 00-.68 0l-4.46 2.59c-.18.1-.16.28 0 .39l4.66 2.71m-6.82-4a.72.72 0 00.68 0l4.47-2.59c.17-.1.15-.27-.05-.39l-4.66-2.71a.78.78 0 00-.68 0l-4.46 2.59c-.18.1-.16.28 0 .39l4.66 2.71m-6.82-4a.75.75 0 00.68 0l4.47-2.59c.17-.11.15-.28 0-.4l-4.66-2.71a.78.78 0 00-.68 0l-4.46 2.59c-.18.1-.16.28 0 .4l4.66 2.7m17.5-10.57a.78.78 0 00-.68 0l-4.46 2.59c-.18.1-.16.28 0 .39l4.67 2.71a.7.7 0 00.67 0l4.47-2.59c.17-.1.15-.28 0-.39l-4.67-2.71m-6.82-4a.78.78 0 00-.68 0l-4.46 2.59c-.18.1-.16.28 0 .39l4.67 2.71a.73.73 0 00.67 0l4.47-2.6c.17-.1.15-.27 0-.39l-4.62-2.51m-18.3-10.62a.72.72 0 00-.68 0l-4.47 2.59c-.17.1-.15.27 0 .39l4.67 2.71a.78.78 0 00.68 0l4.46-2.59c.18-.1.16-.28 0-.39l-4.66-2.71m8.25 4.79a.74.74 0 00-.68 0l-4.46 2.59c-.18.1-.16.28 0 .39l7.89 4.58a.75.75 0 00.68 0l4.47-2.59c.17-.1.16-.28 0-.4l-7.9-4.58m-15.07-8.75a.78.78 0 00-.68 0l-4.47 2.59c-.17.1-.15.28 0 .39l4.67 2.71a.72.72 0 00.68 0l4.46-2.59c.18-.1.16-.28 0-.39l-4.66-2.71m-6.88 9.38a.72.72 0 00.68 0l4.47-2.59c.17-.1.15-.27 0-.39l-4.67-2.67a.78.78 0 00-.68 0l-4.46 2.59c-.18.1-.16.28 0 .39l4.66 2.71"/><path class="cls-6" d="M192.91 290.16l-1.01.59-26.95 15.63-47.92-27.81-1-.57 27.96-16.23 48.92 28.39z"/><path class="cls-8" d="M117.64 278.93l26.35-15.29 47.29 27.46-26.33 15.28-47.31-27.45z"/><path d="M147.63 68.47a2.33 2.33 0 01.05-.28v-.06a1.07 1.07 0 01.08-.27 1.13 1.13 0 01.17-.39l.1-.16.09-.11.2-.2a1.35 1.35 0 01.26-.15 2.19 2.19 0 012 .26l152.74 88.34c1.68 1 3 3.35 3 6.75v114.1a2 2 0 01-1.1 1.83l-.13.09-.16.09a.92.92 0 01-.25.09 1.74 1.74 0 01-.39.05 2 2 0 01-1-.29l-.08-.05-2.9-1.68-149.66-86.68a6.78 6.78 0 01-3-5.29V68.47" fill="#33383b"/><path class="cls-10" d="M148.61 66.83a2.19 2.19 0 012 .26l152.74 88.34a6.78 6.78 0 013 5.29v5.92l3.87-2.28v-5.85a6.75 6.75 0 00-3-5.28L154.53 64.89a2.1 2.1 0 00-2.2-.18c-.55.33-3.07 1.78-3.72 2.12"/><path class="cls-11" d="M147.62 68.83c0-1.92 1.37-2.7 3-1.74l152.74 88.35a6.73 6.73 0 013 5.28v5.92L147.62 74.79z"/><path class="cls-12" d="M150.66 67.09l152.73 88.35a6.12 6.12 0 012.13 2.26l3.86-2.24a6 6 0 00-2.11-2.23L154.53 64.88a2.15 2.15 0 00-2.2-.18c-.55.34-3.07 1.78-3.71 2.12a2.23 2.23 0 012 .27"/><path class="cls-13" d="M310.31 164.37v-5.86a6.22 6.22 0 00-.93-3l-3.86 2.24a6 6 0 01.9 3v5.92z"/><path class="cls-14" d="M159.58 75.1a3.06 3.06 0 011.16 2.45c0 1-.52 1.49-1.16 1.12a3.09 3.09 0 01-1.15-2.46c0-1 .52-1.48 1.15-1.11m-4.15-2.42a3.06 3.06 0 011.15 2.46c0 1-.51 1.48-1.15 1.11a3.05 3.05 0 01-1.15-2.45c0-1 .51-1.49 1.15-1.12m-4.15-2.41a3.05 3.05 0 011.15 2.45c0 1-.51 1.49-1.15 1.12a3.05 3.05 0 01-1.15-2.45c0-1 .51-1.49 1.15-1.12"/><path d="M305.34 278.12l.15-.09 3.2-1.86a3.22 3.22 0 001.59-2.36 3.4 3.4 0 000-.45v-109l-3.88 2.28v109.63a2 2 0 01-.94 1.74l-.1.06z" fill="#263338"/><path d="M293.35 227a.65.65 0 01.33.1l4.14 2.4a1.69 1.69 0 01.75 1.31v1.53c0 .34-.17.54-.42.54a.68.68 0 01-.33-.11l-4.14-2.4a1.67 1.67 0 01-.75-1.3v-1.53c0-.34.17-.54.42-.54m0 6.05a.65.65 0 01.33.1l4.14 2.4a1.69 1.69 0 01.75 1.31v1.53c0 .34-.17.54-.42.54a.68.68 0 01-.33-.11l-4.14-2.39a1.7 1.7 0 01-.75-1.31v-1.53c0-.34.17-.54.42-.54m0 6.08a.65.65 0 01.33.1l4.14 2.4a1.7 1.7 0 01.75 1.31v1.53c0 .34-.17.54-.42.54a.65.65 0 01-.33-.1l-4.14-2.4a1.69 1.69 0 01-.75-1.31v-1.53c0-.34.17-.54.42-.54m0 6.08a.68.68 0 01.33.11l4.14 2.4a1.67 1.67 0 01.75 1.3v1.53c0 .34-.17.54-.42.54a.65.65 0 01-.33-.1l-4.14-2.4a1.69 1.69 0 01-.75-1.31v-1.53c0-.34.17-.54.42-.54m0-48.41a.68.68 0 01.33.11l4.14 2.4a1.67 1.67 0 01.75 1.3v1.53c0 .34-.17.54-.42.54a.65.65 0 01-.33-.1l-4.14-2.4a1.69 1.69 0 01-.75-1.31v-1.53c0-.34.17-.54.42-.54m0 6.08a.68.68 0 01.33.11l4.14 2.4a1.67 1.67 0 01.75 1.3v1.53c0 .34-.17.54-.42.54a.65.65 0 01-.33-.1l-4.14-2.4a1.69 1.69 0 01-.75-1.31v-1.53c0-.34.17-.54.42-.54m0 6.12a.65.65 0 01.33.1l4.14 2.4a1.67 1.67 0 01.75 1.31v1.52c0 .35-.17.54-.42.54a.65.65 0 01-.33-.1l-4.14-2.4a1.69 1.69 0 01-.75-1.31v-1.56c0-.34.17-.53.42-.53m0 6.08a.65.65 0 01.33.1l4.14 2.4a1.69 1.69 0 01.75 1.31v1.53c0 .34-.17.53-.42.53a.65.65 0 01-.33-.1l-4.14-2.4a1.67 1.67 0 01-.75-1.31v-1.52c0-.35.17-.54.42-.54m0 42.08a.68.68 0 01.33.11l4.14 2.4a1.67 1.67 0 01.75 1.31v1.52c0 .35-.17.54-.42.54a.65.65 0 01-.33-.1l-4.14-2.4a1.69 1.69 0 01-.75-1.31v-1.53c0-.34.17-.54.42-.54m0 6.09a.65.65 0 01.33.1l4.14 2.4a1.69 1.69 0 01.75 1.31v1.53c0 .34-.17.53-.42.53a.65.65 0 01-.33-.1l-4.14-2.4a1.69 1.69 0 01-.75-1.31v-1.53c0-.34.17-.53.42-.53m0-96.58a.65.65 0 01.33.1l4.14 2.4a1.69 1.69 0 01.75 1.31V172c0 .34-.17.53-.42.53a.65.65 0 01-.33-.1l-4.14-2.4a1.67 1.67 0 01-.75-1.31v-1.52c0-.35.17-.54.42-.54m0 6.06a.65.65 0 01.33.1l4.14 2.4a1.69 1.69 0 01.75 1.31v1.53c0 .34-.17.54-.42.54a.68.68 0 01-.33-.11l-4.14-2.4a1.67 1.67 0 01-.75-1.3v-1.53c0-.34.17-.54.42-.54m0 6.08a.65.65 0 01.33.1l4.14 2.4a1.69 1.69 0 01.75 1.31v1.53c0 .34-.17.54-.42.54a.68.68 0 01-.33-.11l-4.14-2.39a1.7 1.7 0 01-.75-1.31v-1.53c0-.34.17-.54.42-.54m0 6.08a.65.65 0 01.33.1l4.14 2.4a1.69 1.69 0 01.75 1.31v1.53c0 .34-.17.54-.42.54a.65.65 0 01-.33-.1l-4.14-2.4a1.7 1.7 0 01-.75-1.31v-1.53c0-.34.17-.54.42-.54" fill="#a38f57"/><path class="cls-14" d="M156.63 132.09l31.72 18.41a4.73 4.73 0 012.13 3.71v48c0 1.37-.95 1.93-2.13 1.24l-31.72-18.41a4.73 4.73 0 01-2.13-3.71v-48c0-1.36.95-1.92 2.13-1.23"/><path class="cls-10" d="M159.57 168.59l2.92 1.7a2.31 2.31 0 011.08 1.8c0 .65-.48.89-1.08.55l-2.92-1.7a2.35 2.35 0 01-1.08-1.8c0-.65.49-.89 1.08-.55m0-30.16l2.92 1.7a2.32 2.32 0 011.08 1.8c0 .65-.48.9-1.08.55l-2.92-1.7a2.33 2.33 0 01-1.08-1.8c0-.65.49-.89 1.08-.55m4.11 8.4l2.92 1.7a2.35 2.35 0 011.08 1.8c0 .65-.49.9-1.08.55l-2.92-1.7a2.31 2.31 0 01-1.08-1.8c0-.65.48-.89 1.08-.55m0 6.02l2.92 1.7a2.33 2.33 0 011.08 1.8c0 .65-.49.89-1.08.55l-2.92-1.7a2.32 2.32 0 01-1.08-1.8c0-.65.48-.9 1.08-.55m-4.11 3.67l2.92 1.7a2.32 2.32 0 011.08 1.8c0 .65-.48.9-1.08.55l-2.92-1.7a2.33 2.33 0 01-1.08-1.8c0-.65.49-.89 1.08-.55m4.11 8.41l2.92 1.7a2.33 2.33 0 011.08 1.8c0 .65-.49.89-1.08.55l-2.92-1.7a2.32 2.32 0 01-1.08-1.8c0-.65.48-.9 1.08-.55m3.89-21.85l17.84 10.35a2.34 2.34 0 011.07 1.8c0 .65-.48.89-1.07.55l-17.84-10.35a2.32 2.32 0 01-1.08-1.8c0-.65.48-.9 1.08-.55m0 30.16l17.84 10.35a2.32 2.32 0 011.07 1.8c0 .65-.48.89-1.07.55l-17.84-10.36a2.31 2.31 0 01-1.08-1.8c0-.65.48-.89 1.08-.54m4.11-21.76l13.73 8a2.34 2.34 0 011.07 1.8c0 .65-.48.9-1.07.55l-13.73-8a2.34 2.34 0 01-1.08-1.8c0-.65.48-.9 1.08-.55m0 6.03l13.73 8a2.35 2.35 0 011.07 1.8c0 .65-.48.9-1.07.55l-13.73-8a2.32 2.32 0 01-1.08-1.8c0-.65.48-.9 1.08-.55m-4.11 3.66l17.84 10.35a2.35 2.35 0 011.07 1.8c0 .65-.48.9-1.07.55l-17.84-10.35a2.32 2.32 0 01-1.08-1.8c0-.65.48-.89 1.08-.55m4.11 8.4l13.73 8a2.32 2.32 0 011.07 1.8c0 .64-.48.89-1.07.54l-13.73-8a2.31 2.31 0 01-1.08-1.8c0-.65.48-.89 1.08-.55m-12.11 11.16l2.92 1.7a2.31 2.31 0 011.08 1.8c0 .65-.48.89-1.08.55l-2.92-1.7a2.35 2.35 0 01-1.08-1.8c0-.65.49-.9 1.08-.55m4.11-3.66l2.92 1.7a2.33 2.33 0 011.08 1.8c0 .65-.49.89-1.08.54l-2.92-1.69a2.32 2.32 0 01-1.08-1.8c0-.65.48-.9 1.08-.55m3.89 8.3l17.84 10.36a2.32 2.32 0 011.07 1.8c0 .64-.48.89-1.07.54l-17.84-10.35a2.31 2.31 0 01-1.08-1.8c0-.65.48-.89 1.08-.55m4.11-3.66l13.73 8a2.35 2.35 0 011.07 1.81c0 .64-.48.89-1.07.54l-13.73-8a2.31 2.31 0 01-1.08-1.8c0-.65.48-.89 1.08-.55"/><path class="cls-14" d="M156.63 82.68l31.72 18.42a4.72 4.72 0 012.13 3.71v36.82c0 1.37-.95 1.92-2.13 1.24l-31.72-18.41a4.75 4.75 0 01-2.13-3.72V83.92c0-1.37.95-1.92 2.13-1.24"/><path class="cls-10" d="M159.57 119.19l2.92 1.69a2.34 2.34 0 011.08 1.8c0 .65-.48.9-1.08.55l-2.92-1.7a2.33 2.33 0 01-1.08-1.8c0-.64.49-.89 1.08-.54m0-30.19l2.92 1.7a2.31 2.31 0 011.08 1.8c0 .65-.48.89-1.08.55l-2.92-1.7a2.35 2.35 0 01-1.08-1.8c0-.65.49-.9 1.08-.55"/><path class="cls-17" d="M159.57 89l2.92 1.7a2.31 2.31 0 011.08 1.8c0 .65-.48.89-1.08.55l-2.92-1.7a2.35 2.35 0 01-1.08-1.8c0-.65.49-.9 1.08-.55"/><path class="cls-10" d="M163.68 97.43l2.92 1.7a2.33 2.33 0 011.08 1.8c0 .65-.49.89-1.08.55l-2.92-1.7A2.32 2.32 0 01162.6 98c0-.65.48-.9 1.08-.55"/><path class="cls-17" d="M163.68 97.43l2.92 1.7a2.33 2.33 0 011.08 1.8c0 .65-.49.89-1.08.55l-2.92-1.7A2.32 2.32 0 01162.6 98c0-.65.48-.9 1.08-.55"/><path class="cls-10" d="M163.68 103.45l2.92 1.69a2.36 2.36 0 011.08 1.8c0 .65-.49.9-1.08.55l-2.92-1.7a2.31 2.31 0 01-1.08-1.8c0-.64.48-.89 1.08-.54"/><path class="cls-17" d="M163.68 103.45l2.92 1.69a2.36 2.36 0 011.08 1.8c0 .65-.49.9-1.08.55l-2.92-1.7a2.31 2.31 0 01-1.08-1.8c0-.64.48-.89 1.08-.54"/><path class="cls-10" d="M159.57 107.12l2.92 1.7a2.31 2.31 0 011.08 1.8c0 .65-.48.89-1.08.55l-2.92-1.7a2.35 2.35 0 01-1.08-1.8c0-.65.49-.9 1.08-.55"/><path class="cls-18" d="M159.07 107a1 1 0 01.5.16l2.92 1.7a2.31 2.31 0 011.08 1.8c0 .45-.23.7-.57.7a1.12 1.12 0 01-.51-.15l-2.92-1.7a2.35 2.35 0 01-1.08-1.8c0-.45.24-.71.58-.71"/><path class="cls-10" d="M163.68 115.53l2.92 1.69a2.36 2.36 0 011.08 1.8c0 .65-.49.9-1.08.55l-2.92-1.7a2.31 2.31 0 01-1.08-1.8c0-.65.48-.89 1.08-.54"/><path class="cls-18" d="M163.17 115.37a1 1 0 01.51.16l2.92 1.69a2.36 2.36 0 011.08 1.8c0 .45-.24.71-.58.71a1 1 0 01-.5-.16l-2.92-1.7a2.31 2.31 0 01-1.08-1.8c0-.45.23-.7.57-.7"/><path class="cls-10" d="M167.57 93.67L185.41 104a2.32 2.32 0 011.07 1.8c0 .64-.48.89-1.07.55L167.57 96a2.31 2.31 0 01-1.08-1.8c0-.65.48-.89 1.08-.55"/><path class="cls-17" d="M167.57 93.67L185.41 104a2.32 2.32 0 011.07 1.8c0 .64-.48.89-1.07.55L167.57 96a2.31 2.31 0 01-1.08-1.8c0-.65.48-.89 1.08-.55"/><path class="cls-10" d="M167.57 123.83l17.84 10.35a2.34 2.34 0 011.07 1.8c0 .65-.48.9-1.07.55l-17.84-10.35a2.32 2.32 0 01-1.08-1.8c0-.65.48-.89 1.08-.55m4.1-21.76l13.74 8a2.32 2.32 0 011.07 1.8c0 .65-.48.89-1.07.55l-13.74-8a2.32 2.32 0 01-1.07-1.8c0-.65.48-.89 1.07-.55"/><path class="cls-17" d="M171.67 102.07l13.74 8a2.32 2.32 0 011.07 1.8c0 .65-.48.89-1.07.55l-13.74-8a2.32 2.32 0 01-1.07-1.8c0-.65.48-.89 1.07-.55"/><path class="cls-10" d="M171.67 108.1l13.74 8a2.32 2.32 0 011.07 1.8c0 .65-.48.89-1.07.55l-13.74-8a2.32 2.32 0 01-1.07-1.8c0-.65.48-.89 1.07-.55"/><path class="cls-17" d="M171.67 108.1l13.74 8a2.32 2.32 0 011.07 1.8c0 .65-.48.89-1.07.55l-13.74-8a2.32 2.32 0 01-1.07-1.8c0-.65.48-.89 1.07-.55"/><path class="cls-10" d="M167.57 111.77l17.84 10.35a2.34 2.34 0 011.07 1.8c0 .65-.48.89-1.07.55l-17.84-10.35a2.32 2.32 0 01-1.08-1.8c0-.65.48-.9 1.08-.55"/><path class="cls-19" d="M167.06 111.61a1 1 0 01.51.16l17.84 10.35a2.34 2.34 0 011.07 1.8c0 .45-.23.71-.57.71a1.08 1.08 0 01-.5-.16l-17.84-10.35a2.32 2.32 0 01-1.08-1.8c0-.45.23-.71.57-.71"/><path class="cls-10" d="M171.68 120.17l13.73 8a2.34 2.34 0 011.07 1.8c0 .65-.48.9-1.07.55l-13.73-8a2.32 2.32 0 01-1.08-1.8c0-.65.48-.9 1.08-.55"/><path class="cls-19" d="M171.17 120a1 1 0 01.51.16l13.73 8a2.34 2.34 0 011.07 1.8c0 .45-.23.71-.57.71a1 1 0 01-.5-.16l-13.73-8a2.32 2.32 0 01-1.08-1.8c0-.45.23-.71.57-.71"/><path class="cls-20" d="M287 162.12l-30-17.42c-.42-.25-.77-.07-.77.38a1.64 1.64 0 00.77 1.27l30 17.42c.42.25.76.07.76-.38a1.63 1.63 0 00-.76-1.27m0 20l-88.3-51.19c-.42-.24-.76-.07-.76.39a1.65 1.65 0 00.76 1.27l88.3 51.19c.42.24.76.07.76-.39a1.65 1.65 0 00-.76-1.27M254.05 143l-55.81-32.3c-.42-.24-.76-.07-.76.39a1.63 1.63 0 00.76 1.27l55.81 32.28c.42.25.76.07.76-.38a1.63 1.63 0 00-.76-1.27M287 166.87L271.81 158c-.42-.24-.76-.07-.76.39a1.65 1.65 0 00.76 1.27l15.2 8.83c.42.24.76.07.76-.39a1.65 1.65 0 00-.76-1.27"/><path class="cls-20" d="M271.46 157.93a.78.78 0 01.35.11l15.2 8.83a1.65 1.65 0 01.76 1.27c0 .32-.16.5-.4.5a.78.78 0 01-.36-.11l-15.2-8.83a1.65 1.65 0 01-.76-1.27c0-.32.17-.5.41-.5M287 171.6l-9.13-5.28c-.42-.24-.76-.07-.76.38a1.63 1.63 0 00.76 1.27l9.13 5.29c.42.24.76.07.76-.39a1.63 1.63 0 00-.76-1.27"/><path class="cls-20" d="M277.52 166.21a.68.68 0 01.36.11l9.12 5.28a1.63 1.63 0 01.76 1.27c0 .32-.16.5-.4.5a.7.7 0 01-.36-.12l-9.12-5.25a1.63 1.63 0 01-.76-1.27c0-.31.17-.49.4-.49m-8.65-9.91L216 125.71c-.42-.24-.76-.07-.76.39a1.65 1.65 0 00.76 1.27L268.87 158c.42.24.76.07.76-.39a1.65 1.65 0 00-.76-1.27"/><path class="cls-20" d="M215.63 125.6a.78.78 0 01.36.11l52.88 30.62a1.65 1.65 0 01.76 1.27c0 .32-.17.5-.41.5a.74.74 0 01-.35-.11L216 127.37a1.65 1.65 0 01-.76-1.27c0-.32.16-.5.4-.5m63.45 69.05l-80.85-47c-.42-.24-.76-.07-.76.39a1.63 1.63 0 00.76 1.27l80.85 47c.42.25.76.07.76-.38a1.63 1.63 0 00-.76-1.27m0-4.74l-80.85-47c-.42-.24-.76-.07-.76.39a1.63 1.63 0 00.76 1.27l80.85 47c.42.24.76.07.76-.39a1.65 1.65 0 00-.76-1.27m-3.65-25l-15-8.77c-.42-.24-.76-.07-.76.39a1.63 1.63 0 00.76 1.26l15 8.77c.42.25.76.08.76-.38a1.63 1.63 0 00-.76-1.27"/><path class="cls-20" d="M260.05 156a.67.67 0 01.35.11l15 8.77a1.63 1.63 0 01.76 1.27c0 .31-.16.49-.4.49a.68.68 0 01-.36-.11l-15-8.77a1.63 1.63 0 01-.76-1.26c0-.32.17-.5.41-.5m-2.59-1.56l-58.77-33.84c-.42-.25-.76-.07-.76.38a1.63 1.63 0 00.76 1.27l58.77 33.84c.42.25.76.07.76-.38a1.63 1.63 0 00-.76-1.27"/><path class="cls-20" d="M198.33 120.49a.68.68 0 01.36.11l58.77 33.84a1.63 1.63 0 01.76 1.27c0 .31-.17.5-.41.5a.7.7 0 01-.35-.12l-58.77-33.84a1.63 1.63 0 01-.76-1.27c0-.31.16-.49.4-.49m88.67 56.1l-26.6-15.37c-.42-.24-.76-.07-.76.39a1.63 1.63 0 00.76 1.27l26.6 15.37c.42.24.76.07.76-.39a1.66 1.66 0 00-.76-1.27"/><path class="cls-20" d="M260.05 161.11a.74.74 0 01.35.11l26.6 15.37a1.65 1.65 0 01.76 1.27c0 .32-.16.5-.4.5a.78.78 0 01-.36-.11l-26.6-15.37a1.63 1.63 0 01-.76-1.27c0-.32.17-.5.41-.5m-2.59-1.6l-58.77-33.84c-.42-.24-.76-.07-.76.39a1.65 1.65 0 00.76 1.27l58.77 33.84c.42.24.76.07.76-.39a1.66 1.66 0 00-.76-1.27"/><path class="cls-20" d="M198.33 125.56a.78.78 0 01.36.11l58.77 33.84a1.65 1.65 0 01.76 1.27c0 .32-.17.5-.4.5a.78.78 0 01-.36-.11l-58.77-33.84a1.65 1.65 0 01-.76-1.27c0-.32.16-.5.4-.5m80.76 73.87l-80.85-46.84c-.42-.25-.76-.08-.76.38a1.63 1.63 0 00.76 1.27l80.85 46.85c.42.24.76.07.76-.39a1.66 1.66 0 00-.76-1.27m0 4.74l-80.85-46.85c-.42-.24-.76-.07-.76.39a1.65 1.65 0 00.76 1.27l80.85 46.85c.42.24.76.07.76-.39a1.63 1.63 0 00-.76-1.27m0 4.74l-80.85-46.85c-.42-.24-.76-.07-.76.39a1.66 1.66 0 00.76 1.27l80.85 46.84c.42.25.76.07.76-.38a1.63 1.63 0 00-.76-1.27m0 6.29l-80.85-46.84c-.42-.24-.76-.07-.76.39a1.63 1.63 0 00.76 1.26l80.85 46.84c.42.25.76.07.76-.38a1.63 1.63 0 00-.76-1.27m7.76 4.44l-3.52-2c-.42-.25-.76-.07-.76.38a1.63 1.63 0 00.76 1.27l3.52 2c.42.25.76.07.76-.38a1.63 1.63 0 00-.76-1.27"/><path class="cls-20" d="M283 217.5a.67.67 0 01.35.11l3.52 2a1.63 1.63 0 01.76 1.27c0 .31-.16.49-.4.49a.68.68 0 01-.36-.11l-3.52-2a1.63 1.63 0 01-.76-1.27c0-.31.17-.49.41-.49m3.85-23.75l-3.52-2c-.42-.24-.76-.07-.76.39a1.65 1.65 0 00.76 1.27l3.52 2c.42.24.76.07.76-.39a1.66 1.66 0 00-.76-1.27"/><path class="cls-20" d="M283 191.61a.78.78 0 01.35.11l3.52 2a1.66 1.66 0 01.76 1.27c0 .32-.16.5-.4.5a.78.78 0 01-.36-.11l-3.52-2a1.65 1.65 0 01-.76-1.27c0-.32.17-.5.41-.5m3.85 12.33l-3.52-2c-.42-.24-.76-.07-.76.39a1.63 1.63 0 00.76 1.26l3.52 2c.42.24.76.07.76-.39a1.63 1.63 0 00-.76-1.27"/><path class="cls-20" d="M283 201.8a.67.67 0 01.35.11l3.52 2a1.63 1.63 0 01.76 1.27c0 .32-.16.5-.4.5a.78.78 0 01-.36-.11l-3.52-2a1.63 1.63 0 01-.76-1.26c0-.32.16-.5.41-.5m3.85 6.87l-3.52-2c-.42-.25-.76-.08-.76.38a1.63 1.63 0 00.76 1.27l3.52 2c.42.25.76.07.76-.38a1.63 1.63 0 00-.76-1.27"/><path class="cls-20" d="M283 206.54a.67.67 0 01.35.11l3.52 2a1.63 1.63 0 01.76 1.27c0 .31-.16.49-.4.49a.68.68 0 01-.36-.11l-3.52-2a1.63 1.63 0 01-.76-1.27c0-.31.17-.49.41-.49m3.85 6.87l-3.52-2c-.42-.24-.76-.07-.76.39a1.63 1.63 0 00.76 1.27l3.52 2c.42.24.76.07.76-.39a1.66 1.66 0 00-.76-1.27"/><path class="cls-20" d="M283 211.27a.78.78 0 01.35.11l3.52 2a1.66 1.66 0 01.76 1.27c0 .32-.16.5-.4.5a.68.68 0 01-.36-.11l-3.52-2a1.63 1.63 0 01-.76-1.27c0-.32.16-.5.41-.5m3.85 12.65l-3.52-2c-.42-.24-.76-.07-.76.39a1.63 1.63 0 00.76 1.26l3.52 2c.42.24.76.07.76-.39a1.63 1.63 0 00-.76-1.27"/><path class="cls-20" d="M283 221.78a.67.67 0 01.35.11l3.52 2a1.63 1.63 0 01.76 1.27c0 .32-.16.5-.4.5a.78.78 0 01-.36-.11l-3.52-2a1.63 1.63 0 01-.76-1.27c0-.31.16-.49.41-.49m-3.91-2.28l-80.85-47c-.42-.24-.76-.07-.76.39a1.66 1.66 0 00.76 1.27l80.85 47c.42.24.76.07.76-.39a1.63 1.63 0 00-.76-1.27m-.38 30.75L257 237.66c-.42-.25-.76-.07-.76.38a1.63 1.63 0 00.76 1.27l21.72 12.6c.42.24.76.07.76-.39a1.63 1.63 0 00-.76-1.26m8.13 4.67l-3.52-2c-.42-.24-.76-.07-.76.39a1.63 1.63 0 00.76 1.26l3.52 2c.42.24.76.07.76-.39a1.65 1.65 0 00-.76-1.27"/><path class="cls-20" d="M283 252.79a.67.67 0 01.35.11l3.52 2a1.63 1.63 0 01.76 1.27c0 .32-.16.5-.4.5a.78.78 0 01-.36-.11l-3.52-2a1.66 1.66 0 01-.76-1.27c0-.32.16-.5.41-.5m3.85 6.42l-3.52-2c-.42-.24-.76-.07-.76.39a1.65 1.65 0 00.76 1.27l3.52 2c.42.24.76.07.76-.39a1.66 1.66 0 00-.76-1.27"/><path class="cls-20" d="M283 257.07a.78.78 0 01.35.11l3.52 2a1.63 1.63 0 01.76 1.26c0 .32-.16.5-.4.5a.78.78 0 01-.36-.11l-3.52-2a1.65 1.65 0 01-.76-1.27c0-.32.17-.5.41-.5m-4.26-2.71l-80.17-46.51c-.42-.24-.76-.07-.76.39a1.63 1.63 0 00.76 1.27l80.17 46.5c.42.24.76.07.76-.39a1.65 1.65 0 00-.76-1.27m.26-24.75l-80.72-46.73c-.42-.24-.76-.07-.76.39a1.65 1.65 0 00.76 1.27L279 231.24c.42.25.76.07.76-.38a1.63 1.63 0 00-.76-1.27m7.85 4.52l-3.52-2c-.42-.25-.76-.08-.76.38a1.63 1.63 0 00.76 1.27l3.52 2c.42.25.76.07.76-.38a1.63 1.63 0 00-.76-1.27"/><path class="cls-20" d="M283 232a.78.78 0 01.35.11l3.52 2a1.63 1.63 0 01.76 1.26c0 .32-.16.5-.4.5a.68.68 0 01-.36-.11l-3.52-2a1.63 1.63 0 01-.76-1.27c0-.32.17-.5.41-.5m-4 2.28l-80.72-46.73c-.42-.24-.76-.07-.76.39a1.66 1.66 0 00.76 1.27L279 235.92c.42.25.76.07.76-.39a1.63 1.63 0 00-.76-1.26m7.85 4.57l-3.52-2c-.42-.24-.76-.07-.76.39a1.65 1.65 0 00.76 1.27l3.52 2c.42.24.76.07.76-.39a1.66 1.66 0 00-.76-1.27"/><path class="cls-20" d="M283 236.7a.78.78 0 01.35.11l3.52 2a1.66 1.66 0 01.76 1.27c0 .32-.16.5-.4.5a.78.78 0 01-.36-.11l-3.52-2a1.65 1.65 0 01-.76-1.27c0-.32.17-.5.41-.5m-4 2.3l-80.76-46.7c-.42-.24-.76-.07-.76.39a1.63 1.63 0 00.76 1.26L279 240.68c.42.24.76.07.76-.39A1.65 1.65 0 00279 239m7.85 4.58l-3.52-2c-.42-.24-.76-.07-.76.39a1.63 1.63 0 00.76 1.26l3.52 2c.42.24.76.07.76-.39a1.65 1.65 0 00-.76-1.27"/><path class="cls-20" d="M283 241.44a.67.67 0 01.35.11l3.52 2a1.63 1.63 0 01.76 1.27c0 .32-.16.5-.4.5a.78.78 0 01-.36-.11l-3.52-2a1.63 1.63 0 01-.76-1.26c0-.32.16-.5.41-.5"/><path class="cls-10" d="M272.61 187.8a3.8 3.8 0 001.65-3v-9.68a3.89 3.89 0 00-1.75-3.06l-155.88-90.5a3.74 3.74 0 00-3.4-.06 3.8 3.8 0 00-1.65 3v9.69a3.89 3.89 0 001.75 3l155.88 90.51a3.74 3.74 0 003.4.06"/><path class="cls-12" d="M111.6 84.21c.12-.92.86-1.25 1.73-.74L269.21 174a3.6 3.6 0 011.24 1.32l3.3-1.92a3.73 3.73 0 00-1.24-1.31L116.63 81.57a3.71 3.71 0 00-3.4-.07 3.76 3.76 0 00-1.63 2.71"/><path class="cls-13" d="M270.45 175.3a3.56 3.56 0 01.55 1.7v5.33l3.31-1.92v-5.54a2.79 2.79 0 00-.06-.43 4.15 4.15 0 00-.44-1.1z"/><path class="cls-11" d="M111.58 84.49v5.34l104.92 60.93 49.63 28.8 4.83 2.81V177a3.89 3.89 0 00-1.75-3.06L113.33 83.47c-1-.56-1.75-.1-1.75 1"/><path d="M116.39 87.84c-.63-.36-1.14-.07-1.14.66a2.53 2.53 0 001.14 2c.62.36 1.13.07 1.13-.66a2.55 2.55 0 00-1.13-2m4.08 2.37c-.62-.36-1.13-.07-1.13.66a2.52 2.52 0 001.13 2c.63.37 1.14.07 1.14-.65a2.52 2.52 0 00-1.14-2m4.09 2.36c-.63-.37-1.13-.07-1.13.66a2.51 2.51 0 001.13 2c.63.37 1.13.07 1.13-.66a2.51 2.51 0 00-1.13-2" fill="#fff"/><path class="cls-22" d="M269.21 294.3a3.32 3.32 0 001.38.42 3.45 3.45 0 002-.36 3.77 3.77 0 001.65-3V180.45l-3.3 1.92v110.91c0 .79-.4 1.26-1 1.26a1.8 1.8 0 01-.78-.24"/><path d="M270 294.32c.47 0 .76-.39.76-1.05V182.5l-54.36-31.56L111.8 90.2v110.53a3.67 3.67 0 001.64 2.87l155.88 90.51a1.36 1.36 0 00.67.21" fill="#fafafa"/><path class="cls-22" d="M111.58 99.8v100.93a3.89 3.89 0 001.75 3.06l155.88 90.51a1.62 1.62 0 00.78.24c.58 0 1-.47 1-1.27v-110.9l-4.83-2.81-49.63-28.8-104.95-60.93zm104.7 51.33l49.63 28.81 4.62 2.68v110.65c0 .25 0 .83-.54.83a1.14 1.14 0 01-.56-.18l-155.88-90.51a3.49 3.49 0 01-1.54-2.68V90.58z"/><path fill="#c4cff5" d="M117.82 125.33l146.91 85.27v-23.22 23.86l-146.91-85.26v-.65z"/><path fill="#e0e5f7" d="M117.82 101.48l146.91 85.26v.65l-146.91-85.27v23.21-23.85z"/><path fill="#b2bff2" d="M117.82 102.12l146.91 85.27v23.21l-146.91-85.27v-23.21z"/><path class="cls-11" d="M132.4 179.71l29.14 16.91c.74.43 1.34 0 1.34-1v-31.48a3.23 3.23 0 00-1.34-2.58l-29.14-16.91c-.74-.43-1.34 0-1.34 1v31.46a3.23 3.23 0 001.34 2.58"/><path class="cls-12" d="M160.62 192.6v-9.7l-8.15-16.97-9.38 8.2 2.21-4.46-4.98-8.73-7 5.85v9.96l27.3 15.85z"/><path class="cls-12" d="M143.81 159.52a4.91 4.91 0 001.85 3.94c1 .59 1.85-.21 1.85-1.79a4.9 4.9 0 00-1.85-3.93c-1-.6-1.85.2-1.85 1.78"/><path d="M174.4 169.17c-.47 0-.81.44-.81 1.19v31.46a3.23 3.23 0 001.35 2.58l29.13 16.91a1.07 1.07 0 00.54.16c.47 0 .81-.44.81-1.18v-31.46a3.26 3.26 0 00-1.35-2.59l-29.13-16.91a1.07 1.07 0 00-.54-.16m14.44 19.17a1.33 1.33 0 01-.65-.19 4.93 4.93 0 01-1.84-3.94c0-1.23.49-2 1.2-2a1.27 1.27 0 01.64.19 4.91 4.91 0 011.85 3.94c0 1.23-.49 2-1.2 2m6.17 2.28l8.15 17v9.7l-27.31-15.86v-10l7-5.85 5 8.73-2.22 4.46z" fill="#b8c7fa"/><path class="cls-28" d="M182.85 185.63l4.99 8.72-2.22 4.47 9.39-8.2 8.15 16.97v9.69l-27.31-15.84v-9.96l7-5.85z"/><path class="cls-28" d="M187.55 182.23a1.27 1.27 0 01.64.19 4.91 4.91 0 011.85 3.94c0 1.23-.49 2-1.2 2a1.33 1.33 0 01-.65-.19 4.93 4.93 0 01-1.84-3.94c0-1.23.49-2 1.2-2"/><path class="cls-11" d="M217.47 229.08L246.61 246c.74.43 1.34 0 1.34-1v-31.49a3.25 3.25 0 00-1.34-2.58L217.47 194c-.74-.43-1.34 0-1.34 1v31.5a3.23 3.23 0 001.34 2.58"/><path class="cls-11" d="M216.94 193.86a1.07 1.07 0 01.53.16l29.14 16.91a3.25 3.25 0 011.34 2.58V245c0 .74-.33 1.19-.81 1.19a1.09 1.09 0 01-.53-.17l-29.14-16.91a3.23 3.23 0 01-1.34-2.58V195c0-.74.33-1.18.81-1.18"/><path class="cls-12" d="M245.69 241.97v-9.69l-8.15-16.98-9.39 8.2 2.22-4.46-4.98-8.73-7.01 5.85v9.96l27.31 15.85z"/><path class="cls-12" d="M228.88 208.9a4.9 4.9 0 001.85 3.93c1 .6 1.85-.2 1.85-1.79a4.9 4.9 0 00-1.85-3.93c-1-.59-1.85.21-1.85 1.79"/><path d="M177.19 213.77l24.63 14.3c.53.31 1 0 1-.74v-.2a2.36 2.36 0 00-1-1.87L177.19 211c-.53-.31-1 0-1 .74v.2a2.34 2.34 0 001 1.86m42.54 24.66l24.62 14.29c.54.31 1 0 1-.74v-.19a2.34 2.34 0 00-1-1.87l-24.62-14.29c-.54-.32-1 0-1 .74v.19a2.34 2.34 0 001 1.87m-85.07-49.37l24.62 14.29c.54.31 1 0 1-.74v-.2a2.32 2.32 0 00-1-1.86l-24.62-14.3c-.54-.31-1 0-1 .74v.2a2.34 2.34 0 001 1.87" fill="#455963"/><path class="cls-22" d="M205.42 234.87a.5.5 0 00.43-.25.51.51 0 00-.18-.69l-31.83-18.47a.51.51 0 00-.5.88l31.82 18.47zm0 3.97a.49.49 0 00.43-.26.51.51 0 00-.18-.69l-31.83-18.47a.51.51 0 00-.5.88l31.82 18.47zm0 3.96a.51.51 0 00.25-1l-31.83-18.47a.51.51 0 00-.5.88l31.82 18.47zm0 3.96a.51.51 0 00.25-.95l-31.83-18.47a.51.51 0 00-.5.88l31.82 18.47zm-42.54-36.57a.52.52 0 00.44-.25.51.51 0 00-.19-.69l-31.82-18.47a.5.5 0 10-.5.87l31.82 18.47zm0 3.96a.52.52 0 00.44-.25.51.51 0 00-.19-.69l-31.82-18.47a.5.5 0 10-.5.87l31.82 18.47zm0 3.96a.52.52 0 00.44-.25.51.51 0 00-.19-.69l-31.82-18.47a.5.5 0 10-.5.87L162.63 218zm0 3.96a.52.52 0 00.44-.25.51.51 0 00-.19-.69l-31.82-18.47a.5.5 0 10-.5.87L162.63 222zM248 259.56a.5.5 0 00.43-.25.51.51 0 00-.18-.69l-31.82-18.47a.5.5 0 00-.51.87l31.83 18.47zm0 3.96a.5.5 0 00.43-.25.51.51 0 00-.18-.69l-31.82-18.47a.5.5 0 00-.69.19.49.49 0 00.18.68l31.83 18.47zm0 3.96a.5.5 0 00.43-.25.51.51 0 00-.18-.69l-31.82-18.47a.5.5 0 00-.51.87l31.83 18.47zm0 3.96a.5.5 0 00.43-.25.51.51 0 00-.18-.69L216.38 252a.5.5 0 00-.51.87l31.83 18.47z"/><path class="cls-12" d="M117.82 109.31l19.2 11.15v-7.2l-19.2-11.14v7.19zm20.09 11.67l19.2 11.14v-7.2l-19.2-11.14v7.2zM158 132.64l19.21 11.14v-7.19L158 125.44v7.2zm87.53 50.8l19.2 11.14v-7.2l-19.2-11.14v7.2z"/></g></svg>