<svg id="Calque_1" data-name="Calque 1" xmlns="http://www.w3.org/2000/svg" viewBox="0 0 193.94 188.74"><defs><clipPath id="clip-path" transform="translate(-5.9 -.06)"><path class="cls-1" d="M5.9.06h218.16v188.73H5.9z"/></clipPath><clipPath id="clip-path-3" transform="translate(-5.9 -.06)"><path class="cls-1" d="M-3.1 170.94h115.68v18.84H-3.1z"/></clipPath><clipPath id="clip-path-5" transform="translate(-5.9 -.06)"><path class="cls-1" d="M-.48 52.96h103.67v43.09H-.48z"/></clipPath><clipPath id="clip-path-7" transform="translate(-5.9 -.06)"><path class="cls-1" d="M-.48 108.08h103.67v43.09H-.48z"/></clipPath><clipPath id="clip-path-9" transform="translate(-5.9 -.06)"><path class="cls-1" d="M-.48-4.01h103.67v43.09H-.48z"/></clipPath><clipPath id="clip-path-73" transform="translate(-5.9 -.06)"><path class="cls-1" d="M46.82 108.06h57.78v32.37H46.82z"/></clipPath><clipPath id="clip-path-76" transform="translate(-5.9 -.06)"><path class="cls-1" d="M45.04 55h57.78v28.24H45.04z"/></clipPath><clipPath id="clip-path-82" transform="translate(-5.9 -.06)"><path class="cls-1" d="M48.27-1.59h51.32v27.93H48.27z"/></clipPath><style>.cls-1,.cls-12,.cls-18,.cls-20{fill:none}.cls-2{clip-path:url(#clip-path)}.cls-14,.cls-5{fill:#121945}.cls-8{fill:#4666b2}.cls-11{fill:#fff}.cls-12{stroke:#fff;stroke-miterlimit:10;stroke-width:3px}.cls-13,.cls-14{isolation:isolate}.cls-14{font-size:10px;font-family:Ubuntu-Regular,Ubuntu}.cls-15{fill:#3e55ce}.cls-16{fill:#384bb9}.cls-17{fill:#6d8ada}.cls-18{stroke:#6b8ada}.cls-19{fill:#384fd0}.cls-20{stroke:#eeeffd}.cls-21{fill:#fdfdfd}.cls-22{fill:#f1f1f1}.cls-25{opacity:.38}.cls-26{clip-path:url(#clip-path-73)}.cls-27{clip-path:url(#clip-path-76)}.cls-28{clip-path:url(#clip-path-82)}</style></defs><g id="DEPLOY_16.47.32-03" data-name="DEPLOY 16.47.32-03"><g class="cls-2"><g id="Groupe_2933" data-name="Groupe 2933"><g class="cls-2"><g id="Groupe_2923" data-name="Groupe 2923"><g clip-path="url(#clip-path-3)" id="Groupe_2922" data-name="Groupe 2922" opacity=".2"><g id="Groupe_2921" data-name="Groupe 2921"><path id="Tracé_9936" data-name="Tracé 9936" class="cls-5" d="M103.58 188.58v-10.4h-2.33v6.18c-.36-.55-.74-1.11-1.16-1.69s-.82-1.15-1.24-1.7-.82-1.05-1.22-1.54-.77-.88-1.1-1.21h-1.9v10.4H97v-6.81a37.71 37.71 0 012.49 3.28c.78 1.16 1.51 2.34 2.17 3.53h2zM92.28 181a5 5 0 00-1.11-1.7 4.6 4.6 0 00-1.65-1 5.7 5.7 0 00-2-.36 5.28 5.28 0 00-2 .36 4.9 4.9 0 00-1.65 1 5 5 0 00-1.13 1.7 6 6 0 00-.42 2.35 6.54 6.54 0 00.41 2.35 4.87 4.87 0 001.11 1.69 4.72 4.72 0 001.65 1 6.14 6.14 0 004.06 0 4.77 4.77 0 001.64-1 4.91 4.91 0 001.09-1.69 6.94 6.94 0 000-4.7m-7.34 1a3 3 0 01.54-1.06 2.22 2.22 0 01.86-.69 2.52 2.52 0 011.17-.25 2.57 2.57 0 011.16.24 2.29 2.29 0 01.87.67 3.13 3.13 0 01.54 1.06 5.14 5.14 0 01.19 1.4 4.64 4.64 0 01-.19 1.38 3.32 3.32 0 01-.54 1.06 2.42 2.42 0 01-.87.68 3 3 0 01-2.33 0 2.39 2.39 0 01-.86-.68 3.32 3.32 0 01-.54-1.06 5.14 5.14 0 010-2.75M78 188.61h2.34v-10.4H78zm-10-10.43v2h3.14v8.4h2.34v-8.4h3.13v-2zm-2.31 10.37a5.44 5.44 0 001.4-.55l-.65-1.88-.43.21-.55.19c-.24.06-.48.1-.72.14a7 7 0 01-.92.06 3.45 3.45 0 01-1.38-.26 2.48 2.48 0 01-.92-.71 2.94 2.94 0 01-.51-1.07 5.52 5.52 0 01-.16-1.34 4.38 4.38 0 01.24-1.53 2.77 2.77 0 01.64-1 2.44 2.44 0 01.91-.58 3 3 0 011.06-.18 5.06 5.06 0 011.45.18 5.63 5.63 0 011.12.43l.67-1.89-.39-.21a3.52 3.52 0 00-.68-.26 6.11 6.11 0 00-.94-.22 8.11 8.11 0 00-1.2-.11 6.32 6.32 0 00-2.11.36 4.52 4.52 0 00-1.72 1 5 5 0 00-1.11 1.7 6.06 6.06 0 00-.4 2.3 5.59 5.59 0 001.33 4 5 5 0 003.86 1.41 8 8 0 002.07-.25m-11.45-.06a3.35 3.35 0 002.12-2.16 5.3 5.3 0 00.25-1.68v-6.45h-2.36v6.26a2.49 2.49 0 01-.53 1.79 1.85 1.85 0 01-1.39.52 2 2 0 01-.77-.12 1.28 1.28 0 01-.6-.4 1.94 1.94 0 01-.39-.72 3.46 3.46 0 01-.14-1.07v-6.26h-2.34v6.45a5.3 5.3 0 00.25 1.68 3.27 3.27 0 00.77 1.29 3.23 3.23 0 001.31.85 4.88 4.88 0 001.89.31 5 5 0 001.91-.29m-8.35-7.53a4.27 4.27 0 00-1.2-1.65 5.08 5.08 0 00-1.87-.94 9.38 9.38 0 00-2.42-.29h-1.51a15.92 15.92 0 00-1.69.21v10.12a15.2 15.2 0 001.65.22h1.47a8.73 8.73 0 002.49-.32 5.17 5.17 0 001.88-1 4.45 4.45 0 001.19-1.68 6.11 6.11 0 00.42-2.35 6 6 0 00-.41-2.4m-6.35-.86h1a2.94 2.94 0 013.37 2.43 3.09 3.09 0 010 .86 3.41 3.41 0 01-.85 2.45 3.5 3.5 0 01-2.6.89h-.9zm-4.69.93a4.86 4.86 0 00-1.11-1.64 4.6 4.6 0 00-1.65-1 5.7 5.7 0 00-2-.36 5.28 5.28 0 00-2 .36 4.9 4.9 0 00-1.65 1 5 5 0 00-1.13 1.7 6 6 0 00-.42 2.35 6.53 6.53 0 00.4 2.35 4.87 4.87 0 001.11 1.69 4.72 4.72 0 001.65 1 6.14 6.14 0 004.06 0 4.62 4.62 0 001.64-1 4.91 4.91 0 001.09-1.69 6.32 6.32 0 00.4-2.35 6.46 6.46 0 00-.41-2.35m-7.35 1A3 3 0 0128 181a2.22 2.22 0 01.86-.69 2.52 2.52 0 011.17-.25 2.57 2.57 0 011.16.24 2.29 2.29 0 01.81.7 3.54 3.54 0 01.54 1.06 5.14 5.14 0 01.19 1.4 4.64 4.64 0 01-.19 1.38 3.32 3.32 0 01-.54 1.06 2.42 2.42 0 01-.87.68 3 3 0 01-2.33 0 2.39 2.39 0 01-.86-.68 3.32 3.32 0 01-.54-1.06 4.64 4.64 0 01-.19-1.38 5.21 5.21 0 01.19-1.37m-7-1.62a1.14 1.14 0 01.58 1.09 1.19 1.19 0 01-.57 1.12 3.94 3.94 0 01-1.89.32h-.66v-2.82h.84a3.83 3.83 0 011.7.33m-3.3-2.26a13.94 13.94 0 00-1.58.21v10.24h2.34v-3.8H19c.2.24.4.51.6.8l.61.94c.21.34.41.67.6 1l.58 1H24c-.18-.38-.38-.77-.58-1.16s-.43-.77-.65-1.14-.45-.71-.68-1.05-.45-.63-.66-.89a3.11 3.11 0 00.77-5.49 6.58 6.58 0 00-3.58-.83c-.49 0-1 0-1.48.06m-7 2a2.21 2.21 0 01.71.24 1.41 1.41 0 01.45.46 1.43 1.43 0 01.16.72 1.27 1.27 0 01-.62 1.23 3.85 3.85 0 01-1.83.33h-.69v-3h.93a5.82 5.82 0 01.93.07m-2.58-2a15 15 0 00-1.62.21v10.24h2.34v-3.48H9a6.49 6.49 0 003.6-.83 3.52 3.52 0 00.43-5 3.25 3.25 0 00-.41-.42 6.64 6.64 0 00-3.62-.82c-.5 0-1 0-1.5.07" transform="translate(-5.9 -.06)"/></g></g></g></g><g class="cls-2"><g id="Groupe_2926" data-name="Groupe 2926"><g clip-path="url(#clip-path-5)" id="Groupe_2925" data-name="Groupe 2925"><g id="Groupe_2924" data-name="Groupe 2924"><path id="Rectangle_3742" data-name="Rectangle 3742" class="cls-8" d="M2.62 59.9h85.67v35.09H2.62z"/></g></g></g></g><g class="cls-2"><g id="Groupe_2929" data-name="Groupe 2929"><g clip-path="url(#clip-path-7)" id="Groupe_2928" data-name="Groupe 2928"><g id="Groupe_2927" data-name="Groupe 2927"><path id="Rectangle_3745" data-name="Rectangle 3745" class="cls-8" d="M2.62 115.02h85.67v35.09H2.62z"/></g></g></g></g><g class="cls-2"><g id="Groupe_2932" data-name="Groupe 2932"><g clip-path="url(#clip-path-9)" id="Groupe_2931" data-name="Groupe 2931"><g id="Groupe_2930" data-name="Groupe 2930"><path id="Rectangle_3748" data-name="Rectangle 3748" class="cls-8" d="M2.62 2.93h85.67v35.09H2.62z"/></g></g></g></g></g></g><g class="cls-2"><g id="Groupe_2934" data-name="Groupe 2934"><path id="Rectangle_3752" data-name="Rectangle 3752" class="cls-11" d="M1.5 58.47h84.54v33.18H1.5z"/></g></g><g class="cls-2"><g class="cls-2" id="Groupe_2936" data-name="Groupe 2936"><g id="Groupe_2935" data-name="Groupe 2935"><path id="Rectangle_3754" data-name="Rectangle 3754" class="cls-12" d="M1.5 58.47h84.54v33.18H1.5z"/></g></g></g><g class="cls-2"><g id="Groupe_2937" data-name="Groupe 2937"><path id="Rectangle_3757" data-name="Rectangle 3757" class="cls-11" d="M1.5 113.59h84.54v33.18H1.5z"/></g></g><g class="cls-2"><g class="cls-2" id="Groupe_2939" data-name="Groupe 2939"><g id="Groupe_2938" data-name="Groupe 2938"><path id="Rectangle_3759" data-name="Rectangle 3759" class="cls-12" d="M1.5 113.59h84.54v33.18H1.5z"/></g></g></g><g class="cls-2"><g id="Groupe_2940" data-name="Groupe 2940"><path id="Rectangle_3762" data-name="Rectangle 3762" class="cls-11" d="M1.5 1.5h84.54v33.18H1.5z"/></g></g><g class="cls-2"><g class="cls-2" id="Groupe_2942" data-name="Groupe 2942"><g id="Groupe_2941" data-name="Groupe 2941"><path id="Rectangle_3764" data-name="Rectangle 3764" class="cls-12" d="M1.5 1.5h84.54v33.18H1.5z"/></g></g></g><g class="cls-2"><g id="Groupe_2944" data-name="Groupe 2944"><g id="Groupe_2943" data-name="Groupe 2943"><g id="A" class="cls-13"><text class="cls-14" transform="translate(159.17 21.09)">A</text></g><g id="u" class="cls-13"><text class="cls-14" transform="translate(165.66 21.09)">u</text></g><g id="t" class="cls-13"><text class="cls-14" transform="translate(171.4 21.09)">t</text></g><g id="o" class="cls-13"><text class="cls-14" transform="translate(175.28 21.09)">o</text></g></g></g></g><g class="cls-2"><g id="Groupe_2980" data-name="Groupe 2980"><g class="cls-2"><g id="Groupe_2945" data-name="Groupe 2945"><path id="Tracé_9937" data-name="Tracé 9937" class="cls-5" d="M33.14 79.36h-1v-1a.32.32 0 00-.32-.33h-.65a.32.32 0 00-.32.33v1h-1a.31.31 0 00-.32.31v.69a.32.32 0 00.32.32h1v1a.32.32 0 00.32.32h.65a.32.32 0 00.32-.32v-1h1a.32.32 0 00.32-.32v-.65a.31.31 0 00-.31-.33" transform="translate(-5.9 -.06)"/></g></g><g class="cls-2"><g id="Groupe_2946" data-name="Groupe 2946"><path id="Tracé_9938" data-name="Tracé 9938" class="cls-5" d="M24.32 75.66h-5.17a1.73 1.73 0 00-1.72 1.7v5.17a1.72 1.72 0 001.72 1.73h5.17A1.72 1.72 0 0026 82.53v-5.17a1.72 1.72 0 00-1.72-1.73" transform="translate(-5.9 -.06)"/></g></g><g class="cls-2"><g id="Groupe_2947" data-name="Groupe 2947"><path id="Tracé_9939" data-name="Tracé 9939" class="cls-15" d="M23.81 76.52h-4.14a1.38 1.38 0 00-1.38 1.38v4.15a1.38 1.38 0 001.38 1.38h4.14a1.38 1.38 0 001.38-1.38V77.9a1.39 1.39 0 00-1.38-1.38" transform="translate(-5.9 -.06)"/></g></g><g class="cls-2"><g id="Groupe_2948" data-name="Groupe 2948"><path id="Tracé_9940" data-name="Tracé 9940" class="cls-16" d="M25.18 78.93a10.56 10.56 0 00-6.32 4.26 1.37 1.37 0 00.78.25h4.14a1.38 1.38 0 001.38-1.38v-3.14z" transform="translate(-5.9 -.06)"/></g></g><g class="cls-2"><g id="Groupe_2949" data-name="Groupe 2949"><path id="Tracé_9941" data-name="Tracé 9941" class="cls-5" d="M24.32 65.93h-5.17a1.71 1.71 0 00-1.72 1.71v5.19a1.72 1.72 0 001.72 1.73h5.17A1.71 1.71 0 0026 72.85v-5.19a1.72 1.72 0 00-1.72-1.73" transform="translate(-5.9 -.06)"/></g></g><g class="cls-2"><g id="Groupe_2950" data-name="Groupe 2950"><path id="Tracé_9942" data-name="Tracé 9942" class="cls-15" d="M23.81 66.78h-4.14a1.38 1.38 0 00-1.38 1.39v4.19a1.38 1.38 0 001.38 1.38h4.14a1.38 1.38 0 001.38-1.38v-4.15a1.39 1.39 0 00-1.38-1.38" transform="translate(-5.9 -.06)"/></g></g><g class="cls-2"><g id="Groupe_2951" data-name="Groupe 2951"><path id="Tracé_9943" data-name="Tracé 9943" class="cls-16" d="M25.18 69.19a10.65 10.65 0 00-6.32 4.26 1.31 1.31 0 00.78.26h4.14a1.37 1.37 0 001.38-1.35v-3.14z" transform="translate(-5.9 -.06)"/></g></g><g class="cls-2"><g id="Groupe_2952" data-name="Groupe 2952"><path id="Tracé_9944" data-name="Tracé 9944" class="cls-5" d="M34.1 65.93H29a1.71 1.71 0 00-1.72 1.71v5.19A1.74 1.74 0 0029 74.57h5.17a1.73 1.73 0 001.72-1.72v-5.19a1.72 1.72 0 00-1.72-1.73" transform="translate(-5.9 -.06)"/></g></g><g class="cls-2"><g id="Groupe_2953" data-name="Groupe 2953"><path id="Tracé_9945" data-name="Tracé 9945" class="cls-15" d="M33.59 66.78h-4.14a1.38 1.38 0 00-1.38 1.39v4.19a1.38 1.38 0 001.38 1.38h4.14A1.39 1.39 0 0035 72.37v-4.16a1.38 1.38 0 00-1.38-1.38" transform="translate(-5.9 -.06)"/></g></g><g class="cls-2"><g id="Groupe_2954" data-name="Groupe 2954"><path id="Tracé_9946" data-name="Tracé 9946" class="cls-16" d="M35 69.19a10.65 10.65 0 00-6.32 4.26 1.31 1.31 0 00.78.26h4.14a1.37 1.37 0 001.4-1.35v-3.17z" transform="translate(-5.9 -.06)"/></g></g><g class="cls-2"><g id="Groupe_2955" data-name="Groupe 2955"><path id="Tracé_9947" data-name="Tracé 9947" class="cls-5" d="M33.14 134.46h-1v-1a.32.32 0 00-.32-.33h-.65a.31.31 0 00-.32.31v1h-1a.32.32 0 00-.32.32v.65a.32.32 0 00.32.32h1v1a.32.32 0 00.32.32h.65a.32.32 0 00.32-.32v-1h1a.32.32 0 00.32-.32v-.65a.32.32 0 00-.32-.32" transform="translate(-5.9 -.06)"/></g></g><g class="cls-2"><g id="Groupe_2956" data-name="Groupe 2956"><path id="Tracé_9948" data-name="Tracé 9948" class="cls-5" d="M24.32 130.78h-5.17a1.73 1.73 0 00-1.72 1.72v5.18a1.72 1.72 0 001.72 1.73h5.17a1.72 1.72 0 001.68-1.7v-5.2a1.71 1.71 0 00-1.71-1.72" transform="translate(-5.9 -.06)"/></g></g><g class="cls-2"><g id="Groupe_2957" data-name="Groupe 2957"><path id="Tracé_9949" data-name="Tracé 9949" class="cls-15" d="M23.81 131.64h-4.14a1.38 1.38 0 00-1.38 1.36v4.14a1.38 1.38 0 001.38 1.39h4.14a1.38 1.38 0 001.38-1.39V133a1.4 1.4 0 00-1.38-1.39" transform="translate(-5.9 -.06)"/></g></g><g class="cls-2"><g id="Groupe_2958" data-name="Groupe 2958"><path id="Tracé_9950" data-name="Tracé 9950" class="cls-16" d="M25.18 134.05a10.58 10.58 0 00-6.32 4.31 1.37 1.37 0 00.78.25h4.14a1.38 1.38 0 001.38-1.38v-3.14z" transform="translate(-5.9 -.06)"/></g></g><g class="cls-2"><g id="Groupe_2959" data-name="Groupe 2959"><path id="Tracé_9951" data-name="Tracé 9951" class="cls-5" d="M24.32 121.06h-5.17a1.72 1.72 0 00-1.72 1.72V128a1.72 1.72 0 001.72 1.73h5.17A1.72 1.72 0 0026 128v-5.18a1.71 1.71 0 00-1.71-1.72" transform="translate(-5.9 -.06)"/></g></g><g class="cls-2"><g id="Groupe_2960" data-name="Groupe 2960"><path id="Tracé_9952" data-name="Tracé 9952" class="cls-15" d="M23.81 121.92h-4.14a1.38 1.38 0 00-1.38 1.38v4.14a1.38 1.38 0 001.38 1.39h4.14a1.38 1.38 0 001.38-1.39v-4.14a1.39 1.39 0 00-1.38-1.38" transform="translate(-5.9 -.06)"/></g></g><g class="cls-2"><g id="Groupe_2961" data-name="Groupe 2961"><path id="Tracé_9953" data-name="Tracé 9953" class="cls-16" d="M25.18 124.36a10.59 10.59 0 00-6.32 4.25 1.31 1.31 0 00.78.26h4.14a1.37 1.37 0 001.38-1.37v-3.14z" transform="translate(-5.9 -.06)"/></g></g><g class="cls-2"><g id="Groupe_2962" data-name="Groupe 2962"><path id="Tracé_9954" data-name="Tracé 9954" class="cls-5" d="M34.1 121.06H29a1.72 1.72 0 00-1.72 1.72V128a1.72 1.72 0 001.72 1.69h5.17a1.72 1.72 0 001.7-1.69v-5.18a1.71 1.71 0 00-1.71-1.73" transform="translate(-5.9 -.06)"/></g></g><g class="cls-2"><g id="Groupe_2963" data-name="Groupe 2963"><path id="Tracé_9955" data-name="Tracé 9955" class="cls-15" d="M33.59 121.92h-4.14a1.38 1.38 0 00-1.38 1.38v4.14a1.38 1.38 0 001.38 1.39h4.14a1.39 1.39 0 001.41-1.37v-4.16a1.38 1.38 0 00-1.38-1.38" transform="translate(-5.9 -.06)"/></g></g><g class="cls-2"><g id="Groupe_2964" data-name="Groupe 2964"><path id="Tracé_9956" data-name="Tracé 9956" class="cls-16" d="M35 124.36a10.59 10.59 0 00-6.32 4.25 1.31 1.31 0 00.78.26h4.14a1.37 1.37 0 001.4-1.35v-3.16z" transform="translate(-5.9 -.06)"/></g></g><g class="cls-2"><g id="Groupe_2965" data-name="Groupe 2965"><path id="Tracé_9957" data-name="Tracé 9957" class="cls-5" d="M33.14 22.36h-1v-1a.32.32 0 00-.32-.33h-.65a.31.31 0 00-.32.31v1h-1a.31.31 0 00-.32.31v.69a.32.32 0 00.32.32h1v1a.32.32 0 00.32.32h.65a.32.32 0 00.32-.32v-1h1a.32.32 0 00.32-.32v-.65a.31.31 0 00-.31-.33" transform="translate(-5.9 -.06)"/></g></g><g class="cls-2"><g id="Groupe_2966" data-name="Groupe 2966"><path id="Tracé_9958" data-name="Tracé 9958" class="cls-5" d="M24.32 18.69h-5.17a1.74 1.74 0 00-1.72 1.74v5.18a1.72 1.72 0 001.71 1.74h5.18A1.74 1.74 0 0026 25.62v-5.18a1.71 1.71 0 00-1.71-1.72" transform="translate(-5.9 -.06)"/></g></g><g class="cls-2"><g id="Groupe_2967" data-name="Groupe 2967"><path id="Tracé_9959" data-name="Tracé 9959" class="cls-15" d="M23.81 19.55h-4.14a1.38 1.38 0 00-1.38 1.38v4.15a1.38 1.38 0 001.38 1.38h4.14a1.38 1.38 0 001.38-1.38v-4.15a1.4 1.4 0 00-1.38-1.38" transform="translate(-5.9 -.06)"/></g></g><g class="cls-2"><g id="Groupe_2968" data-name="Groupe 2968"><path id="Tracé_9960" data-name="Tracé 9960" class="cls-16" d="M25.18 22a10.56 10.56 0 00-6.32 4.26 1.45 1.45 0 00.78.26h4.14a1.38 1.38 0 001.38-1.38V22z" transform="translate(-5.9 -.06)"/></g></g><g class="cls-2"><g id="Groupe_2969" data-name="Groupe 2969"><path id="Tracé_9961" data-name="Tracé 9961" class="cls-5" d="M24.32 9h-5.17a1.72 1.72 0 00-1.72 1.73v5.18a1.73 1.73 0 001.72 1.73h5.17A1.73 1.73 0 0026 15.88v-5.19A1.71 1.71 0 0024.33 9" transform="translate(-5.9 -.06)"/></g></g><g class="cls-2"><g id="Groupe_2970" data-name="Groupe 2970"><path id="Tracé_9962" data-name="Tracé 9962" class="cls-15" d="M23.81 9.82h-4.14a1.37 1.37 0 00-1.38 1.37v4.17a1.38 1.38 0 001.38 1.38h4.14a1.38 1.38 0 001.38-1.38v-4.15a1.4 1.4 0 00-1.38-1.39" transform="translate(-5.9 -.06)"/></g></g><g class="cls-2"><g id="Groupe_2971" data-name="Groupe 2971"><path id="Tracé_9963" data-name="Tracé 9963" class="cls-16" d="M25.18 12.23a10.56 10.56 0 00-6.32 4.26 1.45 1.45 0 00.78.26h4.14a1.38 1.38 0 001.38-1.38v-3.14z" transform="translate(-5.9 -.06)"/></g></g><g class="cls-2"><g id="Groupe_2972" data-name="Groupe 2972"><path id="Tracé_9964" data-name="Tracé 9964" class="cls-5" d="M34.1 9H29a1.72 1.72 0 00-1.72 1.73v5.18a1.73 1.73 0 001.72 1.7h5.17a1.73 1.73 0 001.72-1.73v-5.19A1.71 1.71 0 0034.16 9" transform="translate(-5.9 -.06)"/></g></g><g class="cls-2"><g id="Groupe_2973" data-name="Groupe 2973"><path id="Tracé_9965" data-name="Tracé 9965" class="cls-15" d="M33.59 9.82h-4.14a1.37 1.37 0 00-1.38 1.37v4.17a1.38 1.38 0 001.38 1.38h4.14A1.39 1.39 0 0035 15.37v-4.16a1.38 1.38 0 00-1.4-1.39" transform="translate(-5.9 -.06)"/></g></g><g class="cls-2"><g id="Groupe_2974" data-name="Groupe 2974"><path id="Tracé_9966" data-name="Tracé 9966" class="cls-16" d="M35 12.23a10.56 10.56 0 00-6.32 4.26 1.45 1.45 0 00.78.26h4.14a1.38 1.38 0 001.4-1.36v-3.16z" transform="translate(-5.9 -.06)"/></g></g><g class="cls-2"><g id="Groupe_2975" data-name="Groupe 2975"><path id="Tracé_9967" data-name="Tracé 9967" class="cls-17" d="M121 9.43a9.64 9.64 0 000 19.28h22.33a9.64 9.64 0 100-19.28z" transform="translate(-5.9 -.06)"/></g></g><g class="cls-2"><g id="Groupe_2976" data-name="Groupe 2976"><path id="Tracé_9968" data-name="Tracé 9968" class="cls-18" d="M121 9.43a9.64 9.64 0 000 19.28h22.33a9.64 9.64 0 100-19.28z" transform="translate(-5.9 -.06)"/></g></g><g class="cls-2"><g id="Groupe_2977" data-name="Groupe 2977"><path id="Tracé_9969" data-name="Tracé 9969" class="cls-19" d="M120.34 8.12a9.64 9.64 0 000 19.28h22.34a9.64 9.64 0 000-19.28h-22.34z" transform="translate(-5.9 -.06)"/></g></g><g class="cls-2"><g id="Groupe_2978" data-name="Groupe 2978"><path id="Tracé_9970" data-name="Tracé 9970" class="cls-20" d="M120.34 8.12a9.64 9.64 0 000 19.28h22.34a9.64 9.64 0 000-19.28h-22.34z" transform="translate(-5.9 -.06)"/></g></g><g class="cls-2"><g id="Groupe_2979" data-name="Groupe 2979"><path id="Tracé_9971" data-name="Tracé 9971" class="cls-21" d="M141.32 25.36a7.6 7.6 0 10-8.12-7.58 7.87 7.87 0 008.12 7.58" transform="translate(-5.9 -.06)"/></g></g></g></g><g class="cls-2"><g id="Groupe_2981" data-name="Groupe 2981"><path id="Rectangle_3804" data-name="Rectangle 3804" class="cls-22" d="M50.3 56.97h37.24v36.18H50.3z"/></g></g><g class="cls-2"><g id="Groupe_2982" data-name="Groupe 2982"><path id="Rectangle_3806" data-name="Rectangle 3806" class="cls-22" d="M50.3 0h37.24v36.18H50.3z"/></g></g><g class="cls-2"><g id="Groupe_2983" data-name="Groupe 2983"><path id="Rectangle_3808" data-name="Rectangle 3808" class="cls-22" d="M50.3 112.09h37.24v36.18H50.3z"/></g></g><g class="cls-2"><g id="Groupe_2985" data-name="Groupe 2985"><g id="Groupe_2984" data-name="Groupe 2984"><g id="A-2" class="cls-13"><text class="cls-14" transform="translate(160.36 78.94)">A</text></g><g id="u-2" class="cls-13"><text class="cls-14" transform="translate(166.85 78.94)">u</text></g><g id="t-2" class="cls-13"><text class="cls-14" transform="translate(172.59 78.94)">t</text></g><g id="o-2" class="cls-13"><text class="cls-14" transform="translate(176.48 78.94)">o</text></g></g></g></g><g class="cls-2"><g id="Groupe_2986" data-name="Groupe 2986"><text transform="translate(105 135.94)" style="isolation:isolate" font-size="10" font-family="Ubuntu-Regular,Ubuntu" fill="#fff" id="Manual">Manual</text></g></g><g class="cls-2"><g id="Groupe_3014" data-name="Groupe 3014"><g class="cls-2"><g id="Groupe_2987" data-name="Groupe 2987"><path id="Tracé_9972" data-name="Tracé 9972" class="cls-17" d="M121 65.78a9.64 9.64 0 000 19.28h22.34a9.64 9.64 0 100-19.28z" transform="translate(-5.9 -.06)"/></g></g><g class="cls-2"><g id="Groupe_2988" data-name="Groupe 2988"><path id="Tracé_9973" data-name="Tracé 9973" class="cls-18" d="M121 65.78a9.64 9.64 0 000 19.28h22.34a9.64 9.64 0 100-19.28z" transform="translate(-5.9 -.06)"/></g></g><g class="cls-2"><g id="Groupe_2989" data-name="Groupe 2989"><path id="Tracé_9974" data-name="Tracé 9974" class="cls-17" d="M189.7 141.75a9.64 9.64 0 100-19.28h-22.33a9.64 9.64 0 000 19.28h22.33z" transform="translate(-5.9 -.06)"/></g></g><g class="cls-2"><g id="Groupe_2990" data-name="Groupe 2990"><path id="Tracé_9975" data-name="Tracé 9975" class="cls-18" d="M189.7 141.75a9.64 9.64 0 100-19.28h-22.33a9.64 9.64 0 000 19.28h22.33z" transform="translate(-5.9 -.06)"/></g></g><g class="cls-2"><g id="Groupe_2991" data-name="Groupe 2991"><path id="Tracé_9976" data-name="Tracé 9976" class="cls-19" d="M120.34 64.47a9.64 9.64 0 000 19.28h22.34a9.64 9.64 0 000-19.28h-22.34z" transform="translate(-5.9 -.06)"/></g></g><g class="cls-2"><g id="Groupe_2992" data-name="Groupe 2992"><path id="Tracé_9977" data-name="Tracé 9977" class="cls-20" d="M120.34 64.47a9.64 9.64 0 000 19.28h22.34a9.64 9.64 0 000-19.28h-22.34z" transform="translate(-5.9 -.06)"/></g></g><g class="cls-2"><g id="Groupe_2993" data-name="Groupe 2993"><path id="Tracé_9978" data-name="Tracé 9978" d="M189 140.24a9.64 9.64 0 100-19.24h-22.34a9.64 9.64 0 000 19.28H189z" transform="translate(-5.9 -.06)" fill="#d7d7d7"/></g></g><g class="cls-2"><g id="Groupe_2994" data-name="Groupe 2994"><path id="Tracé_9979" data-name="Tracé 9979" class="cls-20" d="M189 140.24a9.64 9.64 0 100-19.24h-22.34a9.64 9.64 0 000 19.28H189z" transform="translate(-5.9 -.06)"/></g></g><g class="cls-2"><g id="Groupe_2995" data-name="Groupe 2995"><path id="Tracé_9980" data-name="Tracé 9980" class="cls-21" d="M141.32 81.69a7.6 7.6 0 10-8.12-7.58 7.87 7.87 0 008.12 7.58" transform="translate(-5.9 -.06)"/></g></g><g class="cls-2"><g id="Groupe_2996" data-name="Groupe 2996"><path id="Tracé_9981" data-name="Tracé 9981" class="cls-21" d="M168 123a7.6 7.6 0 108.12 7.58A7.87 7.87 0 00168 123" transform="translate(-5.9 -.06)"/></g></g><g class="cls-2"><g id="Groupe_3000" data-name="Groupe 3000"><g id="Groupe_2999" data-name="Groupe 2999" class="cls-25"><g class="cls-26"><g id="Groupe_2997" data-name="Groupe 2997"><path id="Tracé_9982" data-name="Tracé 9982" class="cls-5" d="M74.82 138.44l5.61-1-2.89-3.44c-1.58-1.89-2.88-3.43-2.88-3.45l3-8.22s2 3.47 4.91 8.46l4.94 8.54v.07H69.26z" transform="translate(-5.9 -.06)"/></g></g><g class="cls-26"><g id="Groupe_2998" data-name="Groupe 2998"><path id="Tracé_9983" data-name="Tracé 9983" class="cls-5" d="M63.82 137.36l3-5.23 3-5.22 3.52-3c1.93-1.63 3.52-3 3.53-3a.42.42 0 01-.06.14L73 129.36l-3.75 8h-5.43" transform="translate(-5.9 -.06)"/></g></g></g></g></g><g class="cls-2"><g id="Groupe_3007" data-name="Groupe 3007"><g id="Groupe_3006" data-name="Groupe 3006" class="cls-25"><g class="cls-27"><g id="Groupe_3001" data-name="Groupe 3001"><path id="Tracé_9984" data-name="Tracé 9984" class="cls-5" d="M67.43 72.19v.33a2.71 2.71 0 01-.08.69 1.33 1.33 0 01-.27.51 1.74 1.74 0 01-.75.5 2.23 2.23 0 01-.81.14 1.16 1.16 0 01-1.12-1.21 1.14 1.14 0 01.39-.82A1.9 1.9 0 0166 72h.74a4.54 4.54 0 01.72.13zm-.92-1.06a5.93 5.93 0 00-.84-.06 2.84 2.84 0 00-1.94.62 2.21 2.21 0 00-.14 3.13 2.16 2.16 0 001.58.58 3 3 0 002.33-1.09l.24.47a3.27 3.27 0 00.28.37.41.41 0 00.24.11.39.39 0 00.21-.08l.5-.33a.33.33 0 00.15-.24.41.41 0 000-.18 3.64 3.64 0 01-.25-.57 2.82 2.82 0 01-.09-.71v-2.56a2.64 2.64 0 00-.66-2A2.92 2.92 0 0066 68a5.11 5.11 0 00-1.23.15 5 5 0 00-1 .36.62.62 0 00-.22.17.45.45 0 000 .28v.45c0 .17 0 .25.17.25h.13l.28-.11c.28-.1.56-.19.85-.27a4 4 0 01.85-.1 1.91 1.91 0 011.29.36 1.77 1.77 0 01.37 1.27v.6a5.8 5.8 0 00-.92-.2" transform="translate(-5.9 -.06)"/></g></g><g class="cls-27"><g id="Groupe_3002" data-name="Groupe 3002"><path id="Tracé_9985" data-name="Tracé 9985" class="cls-5" d="M71.4 74.83a.59.59 0 00.17.31.41.41 0 00.3.08h.68a.47.47 0 00.32-.08.63.63 0 00.15-.32l1.22-5.1 1.23 5.11a.63.63 0 00.15.32.46.46 0 00.32.08h.68a.41.41 0 00.3-.08.67.67 0 00.17-.31L79 68.72a.7.7 0 00.06-.19v-.14a.18.18 0 00-.15-.2h-.79a.49.49 0 00-.31.09.67.67 0 00-.16.3l-1.37 5.31L75 68.58a.39.39 0 00-.4-.39H74a.54.54 0 00-.32.09.57.57 0 00-.15.3l-1.23 5.25-1.3-5.25a.59.59 0 00-.16-.3.49.49 0 00-.31-.09h-.83a.18.18 0 00-.19.15 1.94 1.94 0 00.07.33z" transform="translate(-5.9 -.06)"/></g></g><g class="cls-27"><g id="Groupe_3003" data-name="Groupe 3003"><path id="Tracé_9986" data-name="Tracé 9986" class="cls-5" d="M79.9 75a3.67 3.67 0 00.91.33 5.57 5.57 0 001.22.14 4 4 0 001.13-.17 2.6 2.6 0 00.88-.44 2.18 2.18 0 00.58-.7 2.13 2.13 0 00.21-.92 1.76 1.76 0 00-.36-1.11 2.34 2.34 0 00-1.23-.76L82.12 71a2.53 2.53 0 01-.87-.43A.8.8 0 0181 70a.73.73 0 01.37-.7 1.93 1.93 0 011-.22 3.51 3.51 0 011.6.29 1.51 1.51 0 00.3.1c.12 0 .18-.09.18-.25v-.37a.38.38 0 00-.07-.26.58.58 0 00-.24-.2 1.22 1.22 0 00-.33-.14l-.45-.13-.5-.12a2.35 2.35 0 00-.53 0 3.39 3.39 0 00-1 .13 2.34 2.34 0 00-.82.41 1.88 1.88 0 00-.57.65 1.66 1.66 0 00-.21.88 1.87 1.87 0 00.4 1.15 2.49 2.49 0 001.27.81l1.15.36a2 2 0 01.8.41.77.77 0 01.21.56.86.86 0 01-.41.75 2.26 2.26 0 01-1.17.23 4.24 4.24 0 01-.94-.11 3.4 3.4 0 01-.87-.28l-.2-.08h-.14c-.12 0-.18.08-.18.25v.4a.41.41 0 000 .22.34.34 0 00.21.21" transform="translate(-5.9 -.06)"/></g></g><g class="cls-27"><g id="Groupe_3004" data-name="Groupe 3004"><path id="Tracé_9987" data-name="Tracé 9987" class="cls-5" d="M83.15 78.74a23.33 23.33 0 01-20.74-1.38c-.29-.18-.52.11-.27.35a17.43 17.43 0 0011.73 4.56 17.08 17.08 0 009.65-2.89c.44-.32.07-.8-.37-.61" transform="translate(-5.9 -.06)"/></g></g><g class="cls-27"><g id="Groupe_3005" data-name="Groupe 3005"><path id="Tracé_9988" data-name="Tracé 9988" class="cls-5" d="M85.73 77.27c-.28-.35-2.72-.66-4.22.37-.23.16-.19.39.06.36.85-.11 2.71-.31 3 .11s-.38 2.18-.71 3c-.1.25.11.33.32.15 1.41-1.16 1.79-3.6 1.51-4" transform="translate(-5.9 -.06)"/></g></g></g></g></g><g class="cls-2"><g id="Groupe_3013" data-name="Groupe 3013"><g id="Groupe_3012" data-name="Groupe 3012" class="cls-25"><g class="cls-28"><g id="Groupe_3008" data-name="Groupe 3008"><path id="Tracé_9989" data-name="Tracé 9989" class="cls-5" d="M76.26 15.25h.53l1.5-1.5.07-.64a6.76 6.76 0 00-11 3.3.7.7 0 01.53 0l3-.5s.15-.25.23-.24a3.73 3.73 0 015.13-.39z" transform="translate(-5.9 -.06)"/></g></g><g class="cls-28"><g id="Groupe_3009" data-name="Groupe 3009"><path id="Tracé_9990" data-name="Tracé 9990" class="cls-5" d="M80.44 16.36a6.81 6.81 0 00-2-3.29l-2.11 2.11a3.74 3.74 0 011.38 3v.38a1.88 1.88 0 110 3.76H74l-.38.37v2.25l.38.38h3.76a4.88 4.88 0 004.93-4.84 5 5 0 00-2.16-4.09z" transform="translate(-5.9 -.06)"/></g></g><g class="cls-28"><g id="Groupe_3010" data-name="Groupe 3010"><path id="Tracé_9991" data-name="Tracé 9991" class="cls-5" d="M70.13 25.36h3.76v-3h-3.76a2.1 2.1 0 01-.78-.17l-.53.16-1.52 1.5-.13.53a4.86 4.86 0 003 1" transform="translate(-5.9 -.06)"/></g></g><g class="cls-28"><g id="Groupe_3011" data-name="Groupe 3011"><path id="Tracé_9992" data-name="Tracé 9992" class="cls-5" d="M70.13 15.56a4.89 4.89 0 00-3 8.76l2.18-2.18a1.88 1.88 0 112.49-2.49l2.2-2.18a4.85 4.85 0 00-3.9-1.91z" transform="translate(-5.9 -.06)"/></g></g></g></g></g></g></g><g class="cls-2"><g class="cls-2" id="Groupe_3016" data-name="Groupe 3016"><g id="Groupe_3015" data-name="Groupe 3015"><path id="Tracé_9993" data-name="Tracé 9993" class="cls-11" d="M104.74 187.53v-10.38h-2.33v6.13c-.36-.54-.74-1.1-1.15-1.69s-.82-1.15-1.24-1.69-.82-1.06-1.22-1.54a14.11 14.11 0 00-1.1-1.21h-1.9v10.39h2.31v-6.81a33.4 33.4 0 012.49 3.27c.78 1.16 1.51 2.33 2.17 3.52zM93.44 180a5.16 5.16 0 00-1.11-1.7 4.9 4.9 0 00-1.65-1 5.89 5.89 0 00-4 0 4.81 4.81 0 00-1.65 1 5.21 5.21 0 00-1.13 1.7 6.13 6.13 0 00-.42 2.36 6.53 6.53 0 00.4 2.35 5 5 0 001.1 1.68 4.72 4.72 0 001.65 1 6.14 6.14 0 004.06 0 4.48 4.48 0 001.64-1 4.9 4.9 0 001.09-1.71 6.46 6.46 0 00.4-2.35 6.54 6.54 0 00-.41-2.35m-7.34 1a3.13 3.13 0 01.54-1.06 2.41 2.41 0 01.86-.69 3 3 0 012.33 0 2.42 2.42 0 01.87.68 3.54 3.54 0 01.54 1.06 5.12 5.12 0 01.19 1.39 4.56 4.56 0 01-.19 1.38 3.13 3.13 0 01-.54 1.06 2.22 2.22 0 01-.87.68 3 3 0 01-2.33 0 2.19 2.19 0 01-.86-.68 3 3 0 01-.54-1.06 5.14 5.14 0 010-2.75m-6.89 6.58h2.34v-10.4h-2.34zm-10.11-10.4v2h3.13v8.4h2.34v-8.4h3.14v-2zm-2.31 10.37a5 5 0 001.39-.54l-.64-1.88-.44.2a3.58 3.58 0 01-.55.19 4.57 4.57 0 01-.72.14 4.64 4.64 0 01-.91.06 3.14 3.14 0 01-1.38-.26 2.29 2.29 0 01-.92-.71 2.94 2.94 0 01-.51-1.07 5.4 5.4 0 01-.16-1.34 4.45 4.45 0 01.24-1.53 3 3 0 01.64-1 2.72 2.72 0 01.91-.58 3.46 3.46 0 011.06-.17 5.43 5.43 0 011.45.17 7.2 7.2 0 011.12.43l.68-1.89-.39-.21a5.46 5.46 0 00-.67-.26c-.33-.09-.66-.17-1-.23a9.71 9.71 0 00-1.2-.1 6.32 6.32 0 00-2.11.36 4.7 4.7 0 00-1.65 1.03 5 5 0 00-1.11 1.71 6.06 6.06 0 00-.4 2.3 5.54 5.54 0 001.33 4 5 5 0 003.86 1.41 7.53 7.53 0 002.06-.23m-11.45-.06a3.34 3.34 0 002.11-2.16 5.27 5.27 0 00.26-1.68v-6.46h-2.37v6.27a2.49 2.49 0 01-.53 1.79 1.85 1.85 0 01-1.39.52 2 2 0 01-.77-.12 1.28 1.28 0 01-.6-.4 1.74 1.74 0 01-.39-.72 3.46 3.46 0 01-.14-1.07v-6.27h-2.26v6.46a5.2 5.2 0 00.25 1.67 3.22 3.22 0 00.76 1.3 3.36 3.36 0 001.31.86 5.1 5.1 0 001.89.31 5.25 5.25 0 001.92-.3M47 179.92a4.12 4.12 0 00-1.2-1.65 4.78 4.78 0 00-1.87-1 9 9 0 00-2.42-.3H40a13.67 13.67 0 00-1.69.2v10.19a15.2 15.2 0 001.65.22h1.47a8.73 8.73 0 002.49-.32 5.17 5.17 0 001.88-1 4.49 4.49 0 001.2-1.63 7 7 0 000-4.75m-6.35-.86h1a2.94 2.94 0 013.35 2.47 2.82 2.82 0 010 .87 3.37 3.37 0 01-.85 2.44 3.5 3.5 0 01-2.6.89h-.95zm-4.69.92a5 5 0 00-1.11-1.7 4.6 4.6 0 00-1.65-1 5.89 5.89 0 00-4 0 4.52 4.52 0 00-1.65 1A5 5 0 0026.4 180a6 6 0 00-.42 2.38 6.54 6.54 0 00.41 2.35 5.16 5.16 0 001.11 1.7 4.72 4.72 0 001.65 1 6.14 6.14 0 004.06 0 4.62 4.62 0 001.64-1 5 5 0 001.09-1.7 6.53 6.53 0 00.4-2.35 6.79 6.79 0 00-.42-2.36m-7.34 1a3.13 3.13 0 01.54-1.06 2.41 2.41 0 01.86-.69 3 3 0 012.33 0 2.63 2.63 0 01.87.68 3.54 3.54 0 01.54 1.06 4.89 4.89 0 01.26 1.37 4.64 4.64 0 01-.19 1.38 3.32 3.32 0 01-.54 1.06 2.29 2.29 0 01-.87.67 3 3 0 01-2.33 0 2.26 2.26 0 01-.86-.67 3.13 3.13 0 01-.54-1.06 5 5 0 01-.19-1.38 4.49 4.49 0 01.19-1.37m-7-1.62a1.14 1.14 0 01.58 1.09 1.19 1.19 0 01-.57 1.12 3.94 3.94 0 01-1.89.32h-.66v-2.84H20a3.45 3.45 0 011.7.32m-3.3-2.26a10.52 10.52 0 00-1.58.21v10.23h2.34v-3.79h1.16c.2.23.4.51.6.79l.61.94c.21.34.41.67.6 1l.58 1h2.62c-.18-.38-.38-.76-.59-1.16s-.43-.76-.65-1.14-.45-.71-.68-1-.45-.63-.66-.89a3.26 3.26 0 001.45-1.07 3 3 0 00.5-1.78 2.92 2.92 0 00-1.24-2.59 6.61 6.61 0 00-3.59-.83q-.74 0-1.47.06m-7 2a2.43 2.43 0 01.63.3 1.32 1.32 0 01.45.46 1.54 1.54 0 01.16.72 1.28 1.28 0 01-.61 1.23 3.85 3.85 0 01-1.83.33h-.78v-3h.93a7 7 0 01.92.06m-2.58-2a15 15 0 00-1.62.21v10.17h2.34v-3.48h.73a6.49 6.49 0 003.6-.83 3.63 3.63 0 00.34-5.12 3.76 3.76 0 00-.34-.35 6.64 6.64 0 00-3.57-.82c-.5 0-1 0-1.5.07" transform="translate(-5.9 -.06)"/></g></g></g></g></svg>