<svg xmlns="http://www.w3.org/2000/svg" width="177.204" height="61.286" viewBox="0 0 177.204 61.286"><defs><style>.a{fill:#2e54d4}.b{isolation:isolate}</style></defs><path class="a" d="M175.804 29.755a4.78 4.78 0 101.4 3.379 4.78 4.78 0 00-1.4-3.379zm-3.379 7.371a3.993 3.993 0 113.993-3.993 3.993 3.993 0 01-3.994 3.992z"/><path class="a" d="M173.272 33.263a1.358 1.358 0 00.931-1.311 1.247 1.247 0 00-.6-1.086 2.852 2.852 0 00-1.612-.4 9.418 9.418 0 00-1.54.145v5.2h.751v-2.3h.954q1.159 0 1.48 2.3h.752a7.275 7.275 0 00-.434-1.733 1.836 1.836 0 00-.682-.815zm-1.143-.333h-.92v-1.825q.311-.032.791-.032 1.478 0 1.48.923t-1.354.933zM3.301 51.204h6.266c3.186 0 5.4-1.513 5.4-4.712 0-2.786-1.77-4.658-6.044-4.658H3.309zM9.09 39.022c3.675 0 5.1-1.46 5.1-3.964 0-2.272-1.608-3.9-4.587-3.9H3.297v7.861zM0 28.354h9.734c5.361 0 7.86 2.855 7.86 6.409a5.63 5.63 0 01-3.642 5.59 6.328 6.328 0 014.475 6.146c0 4.834-3.648 7.515-8.457 7.515H.003zm34.84 14.597c-.037-3.076-1.574-5.553-4.754-5.553-3.269 0-4.712 2.293-5.036 5.553zm-9.9 2.278c.025 3.805 1.927 6.515 5.086 6.515a4.284 4.284 0 004.488-2.9h3.236c-.731 2.4-2.724 5.6-7.822 5.6-5.848 0-8.234-4.785-8.234-9.6 0-5.566 2.786-10 8.437-10 6 0 7.964 4.847 7.964 8.839q.013.778-.05 1.553zm70.226-2.278c-.037-3.076-1.574-5.553-4.754-5.553-3.273 0-4.712 2.293-5.037 5.553zm-9.9 2.278c.025 3.805 1.927 6.515 5.086 6.515a4.284 4.284 0 004.488-2.9h3.236c-.731 2.4-2.724 5.6-7.822 5.6-5.848 0-8.234-4.785-8.234-9.6 0-5.566 2.786-10 8.437-10 6 0 7.964 4.847 7.964 8.839a15.27 15.27 0 01-.05 1.553zm-41.055-.568c0 4.1 2.03 7.087 5.361 7.087 3.391 0 5.3-2.836 5.3-7.076 0-4.205-1.9-7.1-5.374-7.1s-5.291 2.825-5.291 7.088m13.962-.037c0 5.383-3.062 9.821-8.731 9.821-5.315 0-8.525-4.144-8.525-9.755 0-5.517 3.149-9.809 8.736-9.809 5.147 0 8.525 3.884 8.525 9.747m17.514-.336c0-3.948-1.788-6.653-4.949-6.653-3.834 0-5.349 2.447-5.349 6.976 0 4.4 1.244 7.076 5.108 7.076 3.384 0 5.191-2.812 5.191-7.395m-10.148 7.367v9.624h-3.185V39.871c0-1.521 0-3.1-.037-4.547h3.109c.086.974.123 1.952.112 2.929a6.375 6.375 0 016.049-3.369c4.28 0 7.391 3.611 7.391 9.278 0 6.654-3.57 10.233-8.051 10.233-2.988 0-4.556-1.269-5.389-2.743m36.909-11.602c0-1.621 0-3.257-.037-4.7h3.118c.088.548.135 2.514.127 3.068a5.846 5.846 0 015.845-3.515c3.48 0 6.2 2.142 6.2 7.106v12.005h-3.2v-11.59c0-2.82-1.1-4.723-3.932-4.723-3.5 0-4.912 2.68-4.912 6.433v9.88h-3.209zm37.792-11.694v2.926h8.182v22.734h3.378V31.282h8.173v-2.926zm-7.275 25.666h3.376V28.359h-3.376z"/><g class="b"><g class="b"><path class="a" d="M7.736 13.12a13.858 13.858 0 01-2.919.229c-2.162 0-4.641-1.16-4.641-5.432V5.473C.176 1.167 2.655.041 4.817.041a18.946 18.946 0 012.954.281c.158.018.281.07.281.229v.9c0 .105-.035.194-.211.194h-.053c-.633-.054-1.934-.159-2.954-.159-1.723 0-3.058 1-3.058 3.991v2.444c0 2.954 1.336 3.991 3.058 3.991 1 0 2.268-.088 2.9-.141h.07a.244.244 0 01.281.281v.721c.002.201-.156.307-.349.347zm6.133-8.356a4.5 4.5 0 00-2.426.738v7.367a.365.365 0 01-.352.352h-.861a.349.349 0 01-.334-.352V3.903a.338.338 0 01.334-.352h.825a.338.338 0 01.334.352v.369a4.2 4.2 0 012.479-.844q.369 0 .369.316v.721c.001.193-.122.299-.368.299zm8.737 4.114h-5.889v.246c0 2.093.826 2.866 2.443 2.866a24.093 24.093 0 003.13-.193h.088a.249.249 0 01.281.246v.6c0 .228-.07.352-.352.4a15.944 15.944 0 01-3.147.3c-2.021 0-3.991-.949-3.991-4.219V7.542c0-2.514 1.389-4.114 3.9-4.114 2.567 0 3.869 1.617 3.869 4.114v.949c.003.229-.121.387-.332.387zm-1.231-1.336c0-1.987-.755-2.76-2.3-2.76-1.512 0-2.355.86-2.355 2.76V7.7h4.658zM31.43 13.22h-.809a.353.353 0 01-.352-.352v-.387a5.353 5.353 0 01-2.708.861 2.561 2.561 0 01-2.864-2.848v-.212c0-1.9 1.106-2.848 4.236-2.848h1.3v-.7c0-1.476-.51-1.985-1.881-1.985a25.664 25.664 0 00-2.69.14h-.087c-.159 0-.317-.053-.317-.281v-.615c0-.193.123-.3.369-.335a15.245 15.245 0 012.725-.228c2.444 0 3.428 1.23 3.428 3.3v6.136a.353.353 0 01-.35.354zm-1.2-4.676h-1.3c-2.127 0-2.69.475-2.69 1.723v.21c0 1.266.6 1.6 1.618 1.6a4.837 4.837 0 002.373-.7zm8.336 4.712a8.551 8.551 0 01-1.143.088c-1.618 0-2.391-.422-2.391-2.356V4.853l-1.7-.193c-.193-.018-.334-.123-.334-.316v-.475a.309.309 0 01.334-.316h1.7V1.83a.358.358 0 01.317-.352l.914-.14h.052a.279.279 0 01.265.3v1.916h1.9a.353.353 0 01.352.352v.6a.353.353 0 01-.352.352h-1.9v6.135c0 .968.245 1.108.949 1.108h.984c.247 0 .369.07.369.246v.615c0 .153-.087.259-.316.294zm9.07-4.378h-5.889v.246c0 2.093.825 2.866 2.443 2.866a24.093 24.093 0 003.13-.193h.088a.249.249 0 01.281.246v.6c0 .228-.07.352-.352.4a15.951 15.951 0 01-3.147.3c-2.021 0-3.991-.949-3.991-4.219V7.542c0-2.514 1.389-4.114 3.9-4.114 2.566 0 3.867 1.617 3.867 4.114v.949c.004.229-.119.387-.33.387zm-1.23-1.336c0-1.987-.757-2.76-2.3-2.76-1.513 0-2.356.86-2.356 2.76V7.7h4.659zm10.423 5.503a16.921 16.921 0 01-3.235.3c-2.62 0-3.833-1.706-3.833-4.342V7.737c0-2.761 1.266-4.307 3.833-4.307a12.815 12.815 0 012.057.176V.336a.334.334 0 01.334-.334h.9a.319.319 0 01.316.334v12.307c-.003.226-.056.349-.372.402zm-1.179-8.14a13.591 13.591 0 00-2.057-.122c-1.723 0-2.285 1.071-2.285 2.953v1.266c0 1.917.545 2.989 2.285 2.989.6 0 1.46-.053 2.057-.105zm11.881 8.439a17.051 17.051 0 01-3.235-.3c-.315-.053-.369-.158-.369-.4V.334A.32.32 0 0164.244 0h.9a.334.334 0 01.334.334v3.27a12.5 12.5 0 012.057-.176c2.55 0 3.833 1.547 3.833 4.307v1.266c-.004 2.637-1.199 4.343-3.837 4.343zm2.285-5.608c0-1.882-.562-2.953-2.285-2.953a13.725 13.725 0 00-2.057.122v6.98c.6.053 1.459.105 2.057.105 1.74 0 2.285-1.072 2.285-2.989zm11.111-3.763l-2.9 10.126c-.545 1.9-1.2 2.6-3.217 2.6a7.3 7.3 0 01-1.476-.158c-.212-.053-.369-.105-.369-.281v-.65c0-.193.14-.281.333-.281h.053c.387.035 1.179.105 1.564.105 1 0 1.442-.264 1.741-1.495l.176-.721h-.246c-.527 0-.984-.122-1.3-1.213L72.947 3.97a.314.314 0 01-.017-.123.282.282 0 01.315-.3h.968a.352.352 0 01.3.281l2.075 7.63c.088.352.211.387.335.387h.28l2.144-8.035a.359.359 0 01.335-.264h.984a.273.273 0 01.282.3.287.287 0 01-.021.127z"/></g></g></svg>