<svg xmlns="http://www.w3.org/2000/svg" width="28.562" height="28.562" viewBox="0 0 28.562 28.562"><defs><style>.a{fill:#84acfd}</style></defs><circle class="a" cx="13.175" cy="13.175" r="13.175" transform="translate(1.106 1.106)"/><path class="a" d="M14.281 28.562a14.281 14.281 0 1114.281-14.281 14.3 14.3 0 01-14.281 14.281zm0-26.35A12.069 12.069 0 1026.35 14.281 12.082 12.082 0 0014.281 2.212z"/><path d="M12.556 19.536a1.1 1.1 0 01-.789-.331l-4.082-4.148a1.106 1.106 0 111.577-1.551l3.261 3.314 6.747-7.43a1.106 1.106 0 111.637 1.488l-7.533 8.3a1.106 1.106 0 01-.8.363z" fill="#fff"/></svg>