<svg xmlns="http://www.w3.org/2000/svg" width="113.48" height="113.48" viewBox="0 0 113.48 113.48"><defs><clipPath id="a"><path class="a" d="M0 41.685h113.48v-113.48H0z"/></clipPath><style>.a{fill:#061146}</style></defs><g transform="translate(0 71.795)" clip-path="url(#a)"><path class="a" d="M56.74-71.795a56.74 56.74 0 1056.741 56.741A56.806 56.806 0 0056.74-71.795"/><path d="M56.741-67.322a52.267 52.267 0 1052.266 52.266 52.326 52.326 0 00-52.266-52.266" fill="#f7f9fc"/><path d="M56.74-57.524a42.47 42.47 0 1042.47 42.47 42.47 42.47 0 00-42.47-42.47m0 53.346a10.876 10.876 0 1110.877-10.876A10.877 10.877 0 0156.74-4.178" fill="#051144"/><path d="M71.787-17.077l22.591-2.513c0-.038-.011-.079-.016-.119a38.1 38.1 0 00-6.737-17.323l-.139-.194q-.65-.9-1.356-1.773l-.04-.051q-.7-.861-1.462-1.68c-.125-.136-.258-.269-.386-.4a38.035 38.035 0 00-1.148-1.16q-.251-.244-.507-.485-.671-.624-1.377-1.22c-.084-.073-.166-.149-.253-.221q-.882-.73-1.815-1.411c-.066-.051-.136-.1-.2-.145a38.227 38.227 0 00-1.862-1.263l-.076-.051q-1-.626-2.041-1.2l-.292-.153a36.458 36.458 0 00-1.947-.977l-.109-.051-9.292 21.206a14.919 14.919 0 018.464 11.184" fill="#fccc60"/><path d="M21.184-28.197c-.026.069-.05.142-.075.213q-.334.92-.616 1.846c-.032.111-.068.221-.1.334q-.266.9-.485 1.808c-.024.1-.054.205-.076.307q-.251 1.052-.437 2.108c-.024.133-.051.266-.071.4-.066.389-.115.779-.166 1.168-.033.261-.073.518-.1.779-.033.3-.058.6-.084.9-.03.346-.058.7-.077 1.046-.016.25-.025.5-.035.748a40.78 40.78 0 00-.027 1.162v.757c0 .357.013.713.025 1.068.014.31.028.618.047.925.017.267.04.531.062.8q.047.6.119 1.2c.016.141.035.28.054.419a38.068 38.068 0 009.245 20.316c.077.087.152.177.228.262.254.281.518.553.781.827.163.169.319.34.482.506.248.248.509.49.763.732.183.174.362.352.547.522.348.318.7.624 1.067.929.1.081.19.168.288.248a38.26 38.26 0 001.941 1.5c.33.239.673.463 1.012.692s.661.449 1 .664c.43.27.871.531 1.313.786.251.145.5.289.756.427q.759.413 1.54.8c.087.043.177.084.266.126.438.21.882.409 1.328.6.139.06.28.115.417.174.322.136.646.264.969.39A106.59 106.59 0 0021.968-30.14q-.417.958-.784 1.943" fill="#2242aa"/><path d="M94.648-15.484c0-.283-.013-.56-.024-.839a37.092 37.092 0 00-.103-1.817l-22.573 2.512c.017.3.044.6.044.9A14.9 14.9 0 0157.114.197a14.908 14.908 0 01-6.266-1.369q-.666-.306-1.3-.675a14.906 14.906 0 01-5.419-20.372 14.908 14.908 0 0117.842-6.59l9.3-21.24-.2-.084a37.567 37.567 0 00-1.973-.749l-.131-.046a39.21 39.21 0 00-2.056-.637c-.07-.019-.139-.041-.209-.06a36.079 36.079 0 00-2.03-.492l-.212-.049q-1.117-.232-2.232-.4l-.237-.03a35.402 35.402 0 00-1.554-.188c-.278-.027-.558-.043-.839-.066-.33-.025-.661-.055-.993-.071a38.263 38.263 0 00-1.666-.043h-.215c-.621 0-1.236.017-1.846.046q-.891.045-1.777.133h-.016a38.051 38.051 0 00-16.774 5.8c-.054.032-.109.068-.164.1a44.97 44.97 0 00-1.609 1.102c-.326.234-.645.476-.964.721q-.292.225-.577.455c-.254.2-.5.411-.756.621s-.473.4-.7.61c-.2.18-.4.364-.6.547q-.386.36-.762.729-.263.256-.522.522c-.253.258-.5.52-.749.789-.174.183-.341.371-.509.56q-.341.386-.675.778a39.813 39.813 0 00-1.767 2.268 34.98 34.98 0 00-1.164 1.722c-.049.074-.1.152-.147.228-.46.732-.89 1.489-1.306 2.26-.054.1-.106.2-.158.3q-.583 1.112-1.1 2.276c-.04.089-.076.175-.114.262a106.618 106.618 0 0121.114 50.43q.429.166.858.322c.2.073.4.149.607.218q1.107.377 2.222.68c.155.043.308.085.463.126q1.181.306 2.369.537l.308.055c.838.153 1.675.285 2.515.381.095.011.19.027.285.036.36.04.721.062 1.083.09.285.022.567.051.854.065s.552.019.827.03c.362.011.722.024 1.083.027.3 0 .591-.009.887-.013.322-.006.645-.011.967-.025.383-.017.765-.044 1.148-.073.212-.017.424-.03.634-.049q.735-.066 1.465-.164l.267-.032a38.128 38.128 0 0015.106-5.537 5.03 5.03 0 00.122-.077q.657-.42 1.295-.866l.362-.254q.517-.372 1.021-.759.28-.216.555-.436.4-.32.8-.65c.232-.2.463-.4.689-.6.212-.187.42-.376.629-.569q.382-.351.751-.714.275-.266.542-.539.375-.384.738-.775a40.188 40.188 0 001.187-1.34q.289-.344.572-.7c.179-.221.356-.446.528-.672.231-.3.455-.6.676-.91.12-.164.237-.327.351-.492q.417-.6.814-1.217c.051-.077.1-.156.152-.236.52-.824 1-1.674 1.46-2.54.234-.447.444-.914.662-1.374s.449-.918.651-1.389l.3-.743c.321-.787.62-1.589.887-2.4.057-.174.106-.351.161-.525a38.48 38.48 0 00.757-2.761l.035-.158a38.75 38.75 0 00.408-2.08l.035-.2q.183-1.114.3-2.226c.008-.084.013-.169.019-.254q.088-.922.13-1.843c.011-.281.014-.564.021-.847.011-.436.016-.874.011-1.31" fill="#2d54d3"/></g></svg>