<svg data-name="Calque 1" xmlns="http://www.w3.org/2000/svg" viewBox="0 0 336.26 398.53"><path data-name="Tracé 6113" d="M326.66 64.53L174.1 1.19a15.54 15.54 0 00-11.94 0L9.6 64.53A15.57 15.57 0 000 78.91v77a260.69 260.69 0 00162.25 241.46 15.54 15.54 0 0011.76 0 260.71 260.71 0 00162.25-241.46v-77a15.57 15.57 0 00-9.6-14.38zm-21.54 91.38a229.63 229.63 0 01-137 210.14 229.61 229.61 0 01-137-210.14V89.3l137-56.88 137 56.88zm-154.2 52.47l66.91-66.91a15.57 15.57 0 1122.07 22l-.05.05-77.92 77.88a15.57 15.57 0 01-22 0l-43.5-43.5a15.56 15.56 0 0122-22z" style="isolation:isolate" fill="#ddd"/></svg>