<svg xmlns="http://www.w3.org/2000/svg" width="107.758" height="108.14" viewBox="0 0 107.758 108.14"><defs><clipPath id="a"><path d="M0 57.274h107.758v-108.14H0z" transform="translate(0 50.866)" fill="none"/></clipPath><style>.c{fill:#051144}.e{fill:#2d54d3}.g{fill:#2849bf}</style></defs><g clip-path="url(#a)"><path class="c" d="M53.879.001a54.071 54.071 0 000 108.14 54.071 54.071 0 000-108.14"/><path d="M53.879 4.264a49.807 49.807 0 000 99.613 49.807 49.807 0 000-99.613" fill="#f7f9fc"/><path class="c" d="M75.83 68.274h-3.278v-3.289a1.093 1.093 0 00-1.088-1.097h-2.19a1.093 1.093 0 00-1.093 1.1v3.286h-3.278a1.1 1.1 0 00-1.093 1.1v2.189a1.093 1.093 0 001.093 1.1h3.278v3.288a1.1 1.1 0 001.093 1.1h2.19a1.1 1.1 0 001.088-1.1V72.66h3.278a1.093 1.093 0 001.093-1.1v-2.189a1.1 1.1 0 00-1.093-1.1M46.097 55.908h-17.41a5.82 5.82 0 00-5.8 5.823v17.477a5.82 5.82 0 005.8 5.823h17.41a5.82 5.82 0 005.805-5.823V61.731a5.82 5.82 0 00-5.805-5.823"/><path class="e" d="M44.366 58.803h-13.95a4.662 4.662 0 00-4.65 4.667v14a4.664 4.664 0 004.65 4.664h13.95a4.664 4.664 0 004.65-4.667v-14a4.662 4.662 0 00-4.65-4.664"/><path class="g" d="M49.016 66.91c-6.552 1.741-15.747 5.649-21.311 14.342a4.618 4.618 0 002.615.88h14.046a4.662 4.662 0 004.65-4.664z"/><path class="c" d="M46.097 23.114h-17.41a5.82 5.82 0 00-5.8 5.823v17.477a5.82 5.82 0 005.8 5.823h17.41a5.82 5.82 0 005.805-5.823V28.937a5.82 5.82 0 00-5.805-5.823"/><path class="e" d="M44.366 26.009h-13.95a4.662 4.662 0 00-4.65 4.667v14a4.664 4.664 0 004.65 4.664h13.95a4.664 4.664 0 004.65-4.667v-14a4.662 4.662 0 00-4.65-4.664"/><path class="g" d="M49.016 34.116c-6.552 1.741-15.747 5.649-21.311 14.342a4.618 4.618 0 002.615.88h14.046a4.662 4.662 0 004.65-4.667z"/><path class="c" d="M79.072 23.114h-17.41a5.82 5.82 0 00-5.8 5.823v17.477a5.82 5.82 0 005.8 5.823h17.41a5.821 5.821 0 005.805-5.823V28.937a5.821 5.821 0 00-5.805-5.823"/><path class="e" d="M77.34 26.009H63.39a4.662 4.662 0 00-4.65 4.667v14a4.664 4.664 0 004.65 4.664h13.95a4.664 4.664 0 004.65-4.667v-14a4.662 4.662 0 00-4.65-4.664"/><path class="g" d="M81.99 34.116c-6.552 1.741-15.747 5.649-21.311 14.342a4.618 4.618 0 002.615.88H77.34a4.662 4.662 0 004.65-4.667z"/></g></svg>