<svg xmlns="http://www.w3.org/2000/svg" width="107.758" height="108.141" viewBox="0 0 107.758 108.141"><defs><style>.b{fill:#051144}.e{fill:#2d54d3}.f{fill:#2849bf}</style></defs><path fill="none" d="M0 0h107.758v108.14H0z"/><path class="b" d="M53.879.001a54.071 54.071 0 1053.741 53.741A54.07 54.07 0 0053.879.001"/><path d="M53.879 4.264a49.807 49.807 0 1049.584 49.583A49.807 49.807 0 0053.879 4.264" fill="#f7f9fc"/><path class="b" d="M43.83 68.274h-3.278v-3.289a1.092 1.092 0 00-1.088-1.1h-2.19a1.093 1.093 0 00-1.093 1.093v3.293h-3.278a1.1 1.1 0 00-1.093 1.1v2.189a1.093 1.093 0 001.086 1.1h3.285v3.288a1.1 1.1 0 001.093 1.1h2.19a1.1 1.1 0 001.088-1.1v-3.291h3.278a1.093 1.093 0 001.093-1.093v-2.2a1.1 1.1 0 00-1.093-1.1m2.267-45.15h-17.41a5.819 5.819 0 00-5.8 5.823v17.472a5.82 5.82 0 005.8 5.823h17.41a5.82 5.82 0 005.8-5.823V28.937a5.819 5.819 0 00-5.8-5.823"/><path class="e" d="M44.366 26.009h-13.95a4.661 4.661 0 00-4.65 4.667v14a4.665 4.665 0 004.65 4.664h13.95a4.664 4.664 0 004.65-4.667v-14a4.661 4.661 0 00-4.65-4.664"/><path class="f" d="M49.016 34.116c-6.552 1.741-15.747 5.649-21.311 14.342a4.619 4.619 0 002.615.88h14.046a4.662 4.662 0 004.65-4.667z"/><path class="b" d="M79.072 23.114h-17.41a5.819 5.819 0 00-5.8 5.823v17.472a5.82 5.82 0 005.8 5.823h17.41a5.822 5.822 0 005.805-5.823V28.937a5.82 5.82 0 00-5.805-5.823"/><path class="e" d="M77.34 26.009H63.39a4.662 4.662 0 00-4.65 4.667v14a4.665 4.665 0 004.65 4.664h13.95a4.664 4.664 0 004.65-4.667v-14a4.661 4.661 0 00-4.65-4.664"/><path class="f" d="M81.99 34.116c-6.552 1.741-15.747 5.649-21.311 14.342a4.619 4.619 0 002.615.88H77.34a4.662 4.662 0 004.65-4.667z"/></svg>