<svg xmlns="http://www.w3.org/2000/svg" width="75.131" height="73.138" viewBox="0 0 75.131 73.138"><path d="M75.131 37.566a37.566 37.566 0 10-49.79 35.53c.9-.649 1.934-1.449 1.934-2.8 0-2.066-.045-7.381-.045-7.381a26.06 26.06 0 01-3.958.278c-5.864 0-7.718-3.721-8.6-5.8a10.172 10.172 0 00-4.22-5c-.972-.626-1.2-1.363-.071-1.574 5.19-.972 6.517 5.854 9.983 6.942a9.747 9.747 0 007.238-.578 7.484 7.484 0 012.979-4.837c-8.816-.842-14.043-3.888-16.753-8.782l-.291-.548-.681-1.555-.2-.557a26.346 26.346 0 01-1.225-8.509c0-5.643 1.768-7.772 4.142-10.78-1.815-6.433.651-10.83.651-10.83s3.817-.787 11.03 4.351c3.909-1.666 14.333-1.8 19.266-.37 3.025-1.99 8.563-4.813 10.8-4.023.6.968 1.908 3.791.791 9.993.757 1.361 4.7 4.258 4.715 12.45a32.241 32.241 0 01-.966 7.729l-.326 1.1s-.186.52-.389 1.016l-.238.548c-2.615 5.713-7.98 7.846-16.649 8.733 2.809 1.759 3.615 3.965 3.615 9.936s-.08 6.772-.062 8.146a3.79 3.79 0 001.86 2.747 37.582 37.582 0 0025.46-35.575z" fill="#9b9b9b"/></svg>