<svg xmlns="http://www.w3.org/2000/svg" width="76.9" height="76.9" viewBox="0 0 76.9 76.9"><path d="M38.45 0A38.45 38.45 0 1076.9 38.45 38.454 38.454 0 0038.45 0zM27.277 58.126h-9.364V29.953h9.364zM22.6 26.106h-.061a4.848 4.848 0 01-5.175-4.867c0-2.765 2.095-4.868 5.3-4.868a4.866 4.866 0 015.236 4.868c-.007 2.704-2.039 4.867-5.3 4.867zm38.448 32.02H51.68V43.054c0-3.788-1.356-6.371-4.744-6.371a5.126 5.126 0 00-4.8 3.425 6.413 6.413 0 00-.308 2.285v15.733h-9.369s.123-25.53 0-28.173h9.364v3.989a9.3 9.3 0 018.439-4.65c6.161 0 10.781 4.027 10.781 12.68zm0 0" fill="#9b9b9b"/></svg>