<svg xmlns="http://www.w3.org/2000/svg" width="29.26" height="30.654" viewBox="0 0 29.26 30.654"><path d="M15.326 0a1.393 1.393 0 00-1.393 1.393v5.574a1.393 1.393 0 002.787 0V1.393A1.393 1.393 0 0015.326 0z" fill="#84acfd"/><path d="M15.326 22.293a1.393 1.393 0 00-1.393 1.393v5.573a1.393 1.393 0 002.787 0v-5.573a1.393 1.393 0 00-1.394-1.393z" fill="#bfd2fa"/><path d="M10.401 8.431L6.46 4.49a1.393 1.393 0 00-1.97 1.97l3.941 3.941a1.393 1.393 0 001.97-1.97z" fill="#8cb1fd"/><path d="M27.867 13.934H25.08a1.393 1.393 0 100 2.787h2.787a1.393 1.393 0 000-2.787z" fill="#e0eafd"/><path d="M22.224 20.254a1.393 1.393 0 00-1.97 1.97l3.941 3.941a1.393 1.393 0 001.97-1.97z" fill="#ccdaf7"/><path d="M8.364 15.326a1.393 1.393 0 00-1.393-1.393H1.393a1.393 1.393 0 000 2.787h5.571a1.393 1.393 0 001.4-1.394z" fill="#aac4fa"/><path d="M10.401 20.253a1.393 1.393 0 00-1.97 0L4.49 24.194a1.393 1.393 0 001.97 1.971l3.941-3.941a1.393 1.393 0 000-1.971z" fill="#b6cdfc"/></svg>