<svg xmlns="http://www.w3.org/2000/svg" width="108.14" height="108.14" viewBox="0 0 108.14 108.14"><defs><linearGradient id="a" x1="-5.147" y1="-2.89" x2="-5.118" y2="-2.838" gradientUnits="objectBoundingBox"><stop offset="0" stop-opacity=".102"/><stop offset="1" stop-opacity="0"/></linearGradient><style>.a{fill:#061146}.c{fill:#2e54d4}</style></defs><path class="a" d="M54.07 0a54.07 54.07 0 1054.07 54.07A54.132 54.132 0 0054.07 0z"/><path d="M54.07 4.506a49.474 49.474 0 0140.034 78.665 17.911 17.911 0 00-1.559-.917c-9.029-4.635-23.035-10.16-38.476-10.16s-29.446 5.525-38.478 10.162a17.888 17.888 0 00-1.556.915A49.473 49.473 0 0154.07 4.506z" fill="#f8f9fc"/><path class="c" d="M54.069 103.635a49.412 49.412 0 01-37.193-16.912c.259-.157.52-.328.777-.46C26.24 81.854 39.529 76.6 54.07 76.6s27.829 5.254 36.414 9.661c.258.133.519.3.779.462a49.414 49.414 0 01-37.194 16.912z"/><path d="M979.928 550.2a50 50 0 0016.763-12.461c-.26-.158-.522-.329-.779-.462-8.585-4.407-21.874-9.661-36.414-9.661-.7 0-1.373.066-2.063.09z" transform="translate(-905.428 -451.012)" fill="url(#a)"/><ellipse class="a" cx="27.321" cy="26.913" rx="27.321" ry="26.913" transform="translate(26.643 13.865)"/><circle class="c" cx="22.529" cy="22.529" r="22.529" transform="translate(31.541 18.023)"/><path d="M66.149 21.599a22.282 22.282 0 011.44 7.689 22.451 22.451 0 01-34.607 18.953A22.48 22.48 0 1066.15 21.599z" style="isolation:isolate" opacity=".1"/></svg>