<svg xmlns="http://www.w3.org/2000/svg" width="27.57" height="27.57" viewBox="0 0 27.57 27.57"><defs><style>.a{fill:#84acfd;}.b{fill:#fff;}</style></defs><circle class="a" cx="12.717" cy="12.717" r="12.717" transform="translate(1.068 1.068)"/><path class="a" d="M13.785,27.57A13.785,13.785,0,1,1,27.57,13.785,13.8,13.8,0,0,1,13.785,27.57Zm0-25.435a11.65,11.65,0,1,0,11.65,11.65A11.662,11.662,0,0,0,13.785,2.136Z"/><path class="b" d="M137.075,171.968a1.067,1.067,0,0,1-.761-.319l-3.94-4a1.068,1.068,0,0,1,1.523-1.5l3.148,3.2,6.512-7.172a1.068,1.068,0,1,1,1.58,1.436l-7.272,8.008a1.068,1.068,0,0,1-.769.35Z" transform="translate(-124.955 -153.111)"/></svg>