<svg xmlns="http://www.w3.org/2000/svg" width="320.472" height="139.218" viewBox="0 0 320.472 139.218"><defs><style>.a,.b{fill:#fff;}.b{font-size:40px;font-family:Nunito-Bold, Nunito;font-weight:700;}</style></defs><g transform="translate(0 79.663)"><g transform="translate(303.181 0)"><path class="a" d="M1741.337,809.473a8.645,8.645,0,1,0,2.532,6.112A8.646,8.646,0,0,0,1741.337,809.473Zm-6.112,13.33a7.22,7.22,0,1,1,7.221-7.219A7.22,7.22,0,0,1,1735.225,822.8Z" transform="translate(-1726.578 -806.941)"/><path class="a" d="M1739.684,818.007h0a2.456,2.456,0,0,0,1.683-2.372,2.253,2.253,0,0,0-1.078-1.964,5.158,5.158,0,0,0-2.915-.724,16.929,16.929,0,0,0-2.785.261v9.407h1.36V818.45h1.726q2.1,0,2.676,4.16h1.36a13.116,13.116,0,0,0-.786-3.135A3.313,3.313,0,0,0,1739.684,818.007Zm-2.073-.6h-1.664v-3.3c.375-.038.851-.058,1.425-.058q2.674,0,2.676,1.669T1737.611,817.4Z" transform="translate(-1729.503 -809.132)"/></g><g transform="translate(0 0)"><path class="a" d="M1254.906,848.264h11.332c5.762,0,9.763-2.735,9.763-8.521,0-5.038-3.2-8.424-10.93-8.424h-10.159Zm10.469-22.031c6.646,0,9.23-2.64,9.23-7.169,0-4.108-2.908-7.046-8.295-7.046h-11.4v14.215Zm-16.439-19.292h17.6c9.7,0,14.213,5.162,14.213,11.591a10.181,10.181,0,0,1-6.586,10.11,11.437,11.437,0,0,1,8.093,11.115c0,8.749-6.6,13.591-15.3,13.591h-18.025Z" transform="translate(-1248.936 -806.941)"/></g><g transform="translate(39.229 11.721)"><path class="a" d="M1334.512,840.083c-.067-5.57-2.846-10.044-8.6-10.044-5.912,0-8.521,4.147-9.108,10.044Zm-17.9,4.119c.045,6.882,3.485,11.781,9.2,11.781,5.319,0,7.046-2.762,8.117-5.244h5.852c-1.323,4.337-4.933,10.129-14.147,10.129-10.575,0-14.892-8.653-14.892-17.37,0-10.066,5.038-18.092,15.262-18.092,10.852,0,14.4,8.766,14.4,15.985a28.024,28.024,0,0,1-.09,2.809Z" transform="translate(-1310.739 -825.407)"/></g><g transform="translate(148.333 11.721)"><path class="a" d="M1506.4,840.083c-.067-5.57-2.847-10.044-8.6-10.044-5.919,0-8.522,4.147-9.108,10.044Zm-17.9,4.119c.044,6.882,3.486,11.781,9.2,11.781,5.319,0,7.047-2.762,8.116-5.244h5.852c-1.323,4.337-4.932,10.129-14.147,10.129-10.575,0-14.892-8.653-14.892-17.37,0-10.066,5.039-18.092,15.262-18.092,10.851,0,14.4,8.766,14.4,15.985a28.061,28.061,0,0,1-.09,2.809Z" transform="translate(-1482.625 -825.407)"/></g><g transform="translate(73.993 11.79)"><g transform="translate(0 0.005)"><path class="a" d="M1371.469,843.217c0,7.411,3.671,12.817,9.7,12.817,6.133,0,9.585-5.129,9.585-12.8,0-7.606-3.43-12.841-9.719-12.841s-9.569,5.108-9.569,12.819m25.25-.067c0,9.735-5.537,17.761-15.788,17.761-9.612,0-15.424-7.494-15.424-17.65,0-9.977,5.694-17.739,15.8-17.739,9.309,0,15.413,7.023,15.413,17.627" transform="translate(-1365.507 -825.523)"/></g><g transform="translate(38.711)"><path class="a" d="M1450.672,842.544c0-7.14-3.233-12.032-8.95-12.032-6.933,0-9.673,4.424-9.673,12.617,0,7.964,2.248,12.8,9.237,12.8,6.121,0,9.388-5.08,9.388-13.373m-18.353,13.322V873.28h-5.76V834.557c0-2.752,0-5.6-.067-8.223h5.622a52.668,52.668,0,0,1,.2,5.3,11.531,11.531,0,0,1,10.939-6.092c7.74,0,13.366,6.53,13.366,16.78,0,12.033-6.456,18.507-14.561,18.507-5.407,0-8.239-2.295-9.746-4.96" transform="translate(-1426.494 -825.514)"/></g></g><g transform="translate(185.212 11.841)"><path class="a" d="M1540.792,834.9c0-2.931,0-5.891-.067-8.508h5.639c.164.992.245,4.546.229,5.548,1.341-2.9,4.075-6.35,10.571-6.35,6.294,0,11.221,3.873,11.221,12.852v21.712h-5.8V839.193c0-5.1-1.984-8.542-7.112-8.542-6.332,0-8.883,4.848-8.883,11.634v17.875h-5.8Z" transform="translate(-1540.725 -825.595)"/></g><g transform="translate(253.619 0.002)"><path class="a" d="M1648.5,806.944v5.291h14.8V853.35h6.109V812.235h14.774v-5.291Z" transform="translate(-1648.496 -806.944)"/></g><path class="a" d="M1627.778,853.365h6.1V806.959h-6.1Z" transform="translate(-1387.31 -806.947)"/></g><text class="b"><tspan x="0" y="40">Created by</tspan></text></svg>