<svg xmlns="http://www.w3.org/2000/svg" width="61.798" height="42.033" viewBox="0 0 61.798 42.033"><defs><style>.a{fill:#fff;}.b{fill:#84acfd;}</style></defs><path class="a" d="M53.777,24.021c.036-.453.069-.9.069-1.36A17.659,17.659,0,0,0,20.131,15.3,9.007,9.007,0,0,0,6.166,24.827a11.819,11.819,0,0,0,5.651,22.2H49.981a11.815,11.815,0,0,0,3.8-23Z" transform="translate(0 -4.991)"/><path class="b" d="M47.89,25.113c-.4,4.273-3.376,8.847-10.5,8.847-5.388,0-10.512-5.722-12.747-8.9-.006-.01-4.176-6.449-8.791-6.283-4.514.162-5.7,2.536-5.908,4.665a5.557,5.557,0,0,0,2.956,5.32c2.439,1.251,5.479.483,8.558-2.186l3.02,3.495a14.242,14.242,0,0,1-9.154,3.9,9.825,9.825,0,0,1-4.54-1.1,10.129,10.129,0,0,1-5.435-9.856c.4-4.277,3.378-8.851,10.5-8.851,6.358,0,10.825,5.786,12.28,7.805,2.41,3.352,6.613,7.376,9.258,7.376,4.518,0,5.7-2.54,5.908-4.667A5.554,5.554,0,0,0,40.34,19.36c-2.437-1.251-5.477-.481-8.556,2.186l-3.02-3.493c4.536-3.922,9.526-4.942,13.694-2.794A10.118,10.118,0,0,1,47.89,25.113Z" transform="translate(5.197 3.99)"/></svg>