<svg xmlns="http://www.w3.org/2000/svg" width="28.244" height="29.589" viewBox="0 0 28.244 29.589"><defs><style>.a{fill:#84acfd;}.b{fill:#bfd2fa;}.c{fill:#8cb1fd;}.d{fill:#e0eafd;}.e{fill:#ccdaf7;}.f{fill:#aac4fa;}.g{fill:#b6cdfc;}</style></defs><path class="a" d="M245.708,0a1.345,1.345,0,0,0-1.345,1.345v5.38a1.345,1.345,0,0,0,2.69,0V1.345A1.345,1.345,0,0,0,245.708,0Z" transform="translate(-230.913)"/><path class="b" d="M245.71,372.364a1.345,1.345,0,0,0-1.345,1.345v5.38a1.345,1.345,0,0,0,2.69,0v-5.38A1.345,1.345,0,0,0,245.71,372.364Z" transform="translate(-230.915 -350.845)"/><path class="c" d="M85.9,72.362l-3.8-3.8a1.345,1.345,0,0,0-1.9,1.9l3.8,3.8a1.345,1.345,0,0,0,1.9-1.9Z" transform="translate(-75.861 -64.224)"/><g transform="translate(19.156 13.45)"><path class="d" d="M411.308,232.727h-2.69a1.345,1.345,0,0,0,0,2.69h2.69a1.345,1.345,0,1,0,0-2.69Z" transform="translate(-403.564 -232.727)"/><path class="e" d="M345.4,331.861a1.345,1.345,0,0,0-1.9,1.9l3.8,3.8a1.345,1.345,0,0,0,1.9-1.9Z" transform="translate(-343.102 -325.761)"/></g><path class="f" d="M19.706,234.072a1.345,1.345,0,0,0-1.345-1.345h-5.38a1.345,1.345,0,1,0,0,2.69h5.38A1.345,1.345,0,0,0,19.706,234.072Z" transform="translate(-11.636 -219.277)"/><path class="g" d="M85.9,331.86a1.345,1.345,0,0,0-1.9,0l-3.8,3.8a1.345,1.345,0,0,0,1.9,1.9l3.8-3.8A1.345,1.345,0,0,0,85.9,331.86Z" transform="translate(-75.862 -312.311)"/></svg>