<svg xmlns="http://www.w3.org/2000/svg" width="677.745" height="695.257" viewBox="0 0 677.745 695.257"><defs><style>.a{fill:#2e54d4;}</style></defs><g transform="translate(-893.458 -539.455)"><path class="a" d="M1868.728,786.824c-74.646,77.1-197.66,79.092-274.761,4.447q-2.258-2.185-4.447-4.447a206.66,206.66,0,0,1,0-286.416c74.676-77.1,197.721-79.066,274.821-4.388q2.226,2.159,4.386,4.388a206.662,206.662,0,0,1,0,286.416M1729.076,295.99c-187.148,0-338.862,155.648-338.862,347.626s151.715,347.628,338.862,347.628S2067.958,835.6,2067.958,643.615s-151.739-347.628-338.883-347.628" transform="translate(-496.755 243.468)"/></g></svg>