<svg xmlns="http://www.w3.org/2000/svg" width="43.5" height="43.5" viewBox="0 0 43.5 43.5"><defs><style>.a{fill:#fff;}</style></defs><path class="a" d="M21.75,0A21.75,21.75,0,1,0,43.5,21.75,21.752,21.752,0,0,0,21.75,0ZM15.43,32.88h-5.3V16.943h5.3ZM12.781,14.767h-.035a2.761,2.761,0,1,1,.07-5.507,2.762,2.762,0,1,1-.035,5.507ZM34.53,32.88h-5.3V24.354c0-2.143-.767-3.6-2.684-3.6a2.9,2.9,0,0,0-2.718,1.937,3.627,3.627,0,0,0-.174,1.293v8.9h-5.3s.069-14.441,0-15.936h5.3V19.2a5.259,5.259,0,0,1,4.774-2.63c3.485,0,6.1,2.278,6.1,7.173Zm0,0"/></svg>