<svg id="Calque_1" data-name="Calque 1" xmlns="http://www.w3.org/2000/svg" viewBox="0 0 1258.28 274.05"><defs><style>.cls-1{fill:#f8f9fc;}.cls-2,.cls-28{fill:#2e54d4;}.cls-20,.cls-27,.cls-3,.cls-4,.cls-41,.cls-8{fill:none;}.cls-3{stroke:#3158d0;}.cls-20,.cls-3,.cls-4,.cls-41,.cls-8{stroke-miterlimit:10;}.cls-3,.cls-4,.cls-8{stroke-width:0.5px;}.cls-4{stroke:#171c2d;}.cls-5{fill:#171c2d;}.cls-6{fill:#3158d0;}.cls-7{fill:#fff;}.cls-8{stroke:#86aefa;}.cls-9{fill:#ed0000;}.cls-10{fill:#804a96;}.cls-11{fill:#783887;}.cls-12{fill:#703080;}.cls-13{fill:#703880;}.cls-14{fill:#753685;}.cls-15{fill:#6b2b7a;}.cls-16{fill:#804a8a;}.cls-17{fill:#591c69;}.cls-18{fill:#918096;}.cls-19{fill:#427af2;}.cls-20{stroke:#fff;stroke-width:0.07px;}.cls-21{fill:#4287f5;}.cls-22{fill:#999898;}.cls-23{fill:#3d7de3;}.cls-24{fill:#fefefe;}.cls-25{fill:#527cbe;}.cls-26{fill:#4954a0;}.cls-28{font-size:15px;font-family:Nunito-ExtraBold, Nunito;font-weight:800;}.cls-29{fill:#268fcc;}.cls-30{fill:#24bfd4;}.cls-31{fill:#21bfd1;}.cls-32{fill:#78bf42;}.cls-33{fill:#1a458a;}.cls-34{fill:#1c458a;}.cls-35,.cls-36,.cls-37,.cls-38,.cls-39{font-size:8px;}.cls-35,.cls-36,.cls-39{fill:#535353;}.cls-35,.cls-36{font-family:Nunito-Light, Nunito;font-weight:300;}.cls-35,.cls-38{letter-spacing:0em;}.cls-37,.cls-38,.cls-40{fill:#707070;}.cls-37,.cls-38,.cls-39{font-family:Nunito-Bold, Nunito;font-weight:700;}.cls-41{stroke:#707070;stroke-width:0.25px;}.cls-42{fill:#171c2e;}.cls-43{fill:#383838;}</style></defs><path class="cls-1" d="M44.15,146.92a7,7,0,0,0-7,7v79.82a7,7,0,0,0,7,7h489a7,7,0,0,0,7-7V153.92a7,7,0,0,0-7-7Z" transform="translate(486 -143)"/><path class="cls-1" d="M224,370.19a7,7,0,0,0-7,7v32.86a7,7,0,0,0,7,7H533.13a7,7,0,0,0,7-7V377.19a7,7,0,0,0-7-7Z" transform="translate(486 -143)"/><path class="cls-2" d="M772.28,243.77v71.79c0,3.49-2.4,6.34-5.34,6.34H678.33c-2.94,0-5.34-2.85-5.34-6.34V243.77c0-3.49,2.4-6.34,5.34-6.34h88.61c2.94,0,5.34,2.85,5.34,6.34Z" transform="translate(486 -143)"/><path class="cls-3" d="M-29.56,281.8H245.1m20.12,0H539.88" transform="translate(486 -143)"/><line class="cls-4" x1="77.85" y1="138.41" x2="167.34" y2="138.41"/><line class="cls-3" x1="1044.41" y1="138.41" x2="1133.9" y2="138.41"/><path class="cls-4" d="M-408.21,150.24V237a3,3,0,0,0,3,3h86.55" transform="translate(486 -143)"/><path class="cls-3" d="M558.35,150.24V237a3,3,0,0,0,3,3H647.9" transform="translate(486 -143)"/><path class="cls-4" d="M-408.06,412.74V326a3,3,0,0,1,3-3h86.55" transform="translate(486 -143)"/><path class="cls-3" d="M558.51,412.74V326a3,3,0,0,1,3-3h86.55" transform="translate(486 -143)"/><polygon class="cls-5" points="175.17 138.42 167.65 143.83 167.65 133 175.17 138.42 175.17 138.42"/><polygon class="cls-2" points="1141.74 138.42 1134.21 143.83 1134.21 133 1141.74 138.42 1141.74 138.42"/><polygon class="cls-5" points="175.17 96.18 167.65 101.59 167.65 90.77 175.17 96.18 175.17 96.18"/><polygon class="cls-2" points="1141.74 96.18 1134.21 101.59 1134.21 90.77 1141.74 96.18 1141.74 96.18"/><polygon class="cls-5" points="175.17 180.65 167.65 186.06 167.65 175.24 175.17 180.65 175.17 180.65"/><polygon class="cls-2" points="1141.74 180.65 1134.21 186.06 1134.21 175.24 1141.74 180.65 1141.74 180.65"/><path class="cls-6" d="M-25.75,285.58a3.82,3.82,0,0,0,3.82-3.81A3.81,3.81,0,0,0-25.75,278a3.81,3.81,0,0,0-3.81,3.81,3.82,3.82,0,0,0,3.81,3.81Z" transform="translate(486 -143)"/><path class="cls-6" d="M269,285.58a3.81,3.81,0,1,0-3.81-3.81,3.82,3.82,0,0,0,3.81,3.81Z" transform="translate(486 -143)"/><path class="cls-5" d="M-408.46,285.23a3.82,3.82,0,0,0,3.81-3.81,3.82,3.82,0,0,0-3.81-3.82,3.81,3.81,0,0,0-3.81,3.82,3.81,3.81,0,0,0,3.81,3.81Z" transform="translate(486 -143)"/><path class="cls-6" d="M558.1,285.23a3.82,3.82,0,1,0-3.81-3.81,3.82,3.82,0,0,0,3.81,3.81Z" transform="translate(486 -143)"/><path class="cls-5" d="M-407.93,154.06a3.82,3.82,0,0,0,3.82-3.82,3.82,3.82,0,0,0-3.82-3.81,3.82,3.82,0,0,0-3.81,3.81,3.82,3.82,0,0,0,3.81,3.82Z" transform="translate(486 -143)"/><path class="cls-6" d="M558.64,154.06a3.82,3.82,0,1,0-3.82-3.82,3.82,3.82,0,0,0,3.82,3.82Z" transform="translate(486 -143)"/><path class="cls-5" d="M-407.93,416.55a3.81,3.81,0,0,0,3.82-3.81,3.81,3.81,0,0,0-3.82-3.81,3.81,3.81,0,0,0-3.81,3.81,3.81,3.81,0,0,0,3.81,3.81Z" transform="translate(486 -143)"/><path class="cls-6" d="M558.64,416.55a3.81,3.81,0,1,0-3.82-3.81,3.81,3.81,0,0,0,3.82,3.81Z" transform="translate(486 -143)"/><path class="cls-7" d="M722.3,262.8l-3.64,3.64c-1.1-1.13-2.18-2.33-3.35-3.43a5.19,5.19,0,0,0-8.8,3.58,5.11,5.11,0,0,0,3.07,4.86,5.18,5.18,0,0,0,5.74-1c2-1.91,3.89-3.87,5.84-5.81,1.74-1.74,3.45-3.51,5.23-5.21a10.28,10.28,0,0,1,17.23,5.2,10.28,10.28,0,0,1-17.34,9.33c-1.1-1.09-2.19-2.21-3.22-3.24,1.17-1.19,2.34-2.36,3.69-3.71,1.07,1.14,2.16,2.46,3.41,3.6a5.17,5.17,0,1,0,6.12-8.28A5.06,5.06,0,0,0,730,263c-2.09,2-4.14,4.11-6.2,6.17-1.56,1.55-3.11,3.13-4.69,4.67a10.29,10.29,0,0,1-17.44-5.1,10.28,10.28,0,0,1,17.48-9.14c1.06,1.07,2.12,2.12,3.19,3.19Z" transform="translate(486 -143)"/><path class="cls-6" d="M238.6,313a7,7,0,0,0,7-7V281.55H37.15V306a7,7,0,0,0,7,7Z" transform="translate(486 -143)"/><path class="cls-6" d="M533.13,313a7,7,0,0,0,7-7V281.55H331.93V306a7,7,0,0,0,7,7Z" transform="translate(486 -143)"/><path class="cls-8" d="M334.93,250.57a3,3,0,0,0-3,3V281.3h208V253.57a3,3,0,0,0-3-3Z" transform="translate(486 -143)"/><path class="cls-3" d="M40.4,250.57a3,3,0,0,0-3,3V281.3h208V253.57a3,3,0,0,0-3-3Z" transform="translate(486 -143)"/><path class="cls-7" d="M54.77,304.66a.29.29,0,0,0,.31.31h2a.28.28,0,0,0,.31-.31v-4.85H59.7A2.49,2.49,0,0,0,62.47,297v-4.7a2.48,2.48,0,0,0-2.77-2.77H55.08a.29.29,0,0,0-.31.31v14.78Zm2.62-7.39v-5.16h1.69a.68.68,0,0,1,.77.77v3.62a.69.69,0,0,1-.77.77ZM76,292.34a2.48,2.48,0,0,0-2.77-2.77H68.36a.29.29,0,0,0-.31.31v14.78a.29.29,0,0,0,.31.31h2a.29.29,0,0,0,.31-.31v-4.85H72l1.29,4.89a.3.3,0,0,0,.33.27h2c.21,0,.32-.12.26-.35l-1.32-5A2.5,2.5,0,0,0,76,297v-4.7Zm-5.29,4.93v-5.16h1.91a.69.69,0,0,1,.77.77v3.62a.69.69,0,0,1-.77.77Zm18.74-7.39c0-.19-.07-.31-.3-.31H82a.28.28,0,0,0-.29.31v14.78A.28.28,0,0,0,82,305h7.08c.23,0,.3-.12.3-.31v-1.92c0-.21-.07-.31-.3-.31H84.3v-3.89H88a.29.29,0,0,0,.31-.33v-1.9A.29.29,0,0,0,88,296H84.3v-3.85h4.81c.23,0,.3-.13.3-.33v-1.92Zm5.78,9a.35.35,0,0,0,.39.39h3a.35.35,0,0,0,.39-.39v-1.76a.34.34,0,0,0-.39-.39h-3a.35.35,0,0,0-.39.39v1.76Zm9.59,5.74a.28.28,0,0,0,.3.31h2a.28.28,0,0,0,.31-.31v-4.85h2.31a2.49,2.49,0,0,0,2.77-2.77v-4.7a2.48,2.48,0,0,0-2.77-2.77h-4.62a.28.28,0,0,0-.3.31v14.78Zm2.61-7.39v-5.16h1.7a.68.68,0,0,1,.77.77v3.62a.69.69,0,0,1-.77.77ZM126,292.34a2.48,2.48,0,0,0-2.76-2.77h-4.84a.28.28,0,0,0-.3.31v14.78a.28.28,0,0,0,.3.31h2a.28.28,0,0,0,.31-.31v-4.85H122l1.29,4.89a.31.31,0,0,0,.33.27h2a.25.25,0,0,0,.27-.35l-1.33-5A2.5,2.5,0,0,0,126,297v-4.7Zm-5.29,4.93v-5.16h1.91a.69.69,0,0,1,.77.77v3.62a.69.69,0,0,1-.77.77Zm10.69,4.93a2.48,2.48,0,0,0,2.77,2.77h2.15a2.48,2.48,0,0,0,2.77-2.77v-9.86a2.48,2.48,0,0,0-2.77-2.77h-2.15a2.48,2.48,0,0,0-2.77,2.77v9.86Zm3.32.29a.68.68,0,0,1-.77-.77v-8.9a.69.69,0,0,1,.77-.77h1.12a.69.69,0,0,1,.77.77v8.9a.68.68,0,0,1-.77.77Zm10.15,2.17c0,.21.09.31.31.31h4.62a2.48,2.48,0,0,0,2.76-2.77v-9.84a2.49,2.49,0,0,0-2.76-2.79h-4.62a.28.28,0,0,0-.31.31v14.78Zm2.61-2.23V292.11h1.78a.7.7,0,0,1,.77.79v8.76a.68.68,0,0,1-.77.77Zm16.4-12.86a.39.39,0,0,0-.38.39v11.7a.68.68,0,0,1-.77.77h-1a.68.68,0,0,1-.77-.77V290a.4.4,0,0,0-.39-.39h-1.84a.39.39,0,0,0-.39.39V302.2a2.48,2.48,0,0,0,2.77,2.77h2.16A2.48,2.48,0,0,0,166,302.2V290a.4.4,0,0,0-.39-.39Zm15.65,2.77a2.49,2.49,0,0,0-2.77-2.77h-2.16a2.49,2.49,0,0,0-2.79,2.77v9.86a2.49,2.49,0,0,0,2.79,2.77h2.16a2.49,2.49,0,0,0,2.77-2.77v-2.08a.29.29,0,0,0-.31-.31h-1.92a.28.28,0,0,0-.31.31v1.54a.68.68,0,0,1-.77.77h-1a.68.68,0,0,1-.77-.77v-8.78a.68.68,0,0,1,.77-.77h1a.69.69,0,0,1,.77.77v1.54a.28.28,0,0,0,.31.31h1.92a.29.29,0,0,0,.31-.31v-2.08Zm5.12-2.77a.29.29,0,0,0-.31.31v1.92a.28.28,0,0,0,.31.31h2.23v12.55a.28.28,0,0,0,.31.31h2a.27.27,0,0,0,.31-.31V292.11h2.23a.28.28,0,0,0,.31-.31v-1.92a.28.28,0,0,0-.31-.31Zm13.09,0a.28.28,0,0,0-.31.31v14.78a.28.28,0,0,0,.31.31h2a.29.29,0,0,0,.31-.31V289.88a.29.29,0,0,0-.31-.31Zm8.08,12.63a2.48,2.48,0,0,0,2.77,2.77h2.16a2.48,2.48,0,0,0,2.77-2.77v-9.86a2.48,2.48,0,0,0-2.77-2.77h-2.16a2.48,2.48,0,0,0-2.77,2.77v9.86Zm3.33.29a.68.68,0,0,1-.77-.77v-8.9a.69.69,0,0,1,.77-.77h1.12a.69.69,0,0,1,.77.77v8.9a.68.68,0,0,1-.77.77Zm16-12.92a.27.27,0,0,0-.3.31V298h-.12l-2.93-8.18a.32.32,0,0,0-.34-.25h-1.91a.28.28,0,0,0-.3.31v14.78a.28.28,0,0,0,.3.31h2a.28.28,0,0,0,.31-.31V296.5h.1l2.94,8.22a.34.34,0,0,0,.35.25h1.9a.28.28,0,0,0,.31-.31V289.88a.28.28,0,0,0-.31-.31Z" transform="translate(486 -143)"/><path class="cls-7" d="M374.55,304.15a.29.29,0,0,0,.31.31h2a.28.28,0,0,0,.31-.31V299.3h2.31a2.49,2.49,0,0,0,2.77-2.77v-4.7a2.48,2.48,0,0,0-2.77-2.77h-4.62a.29.29,0,0,0-.31.31v14.78Zm2.62-7.39V291.6h1.69a.68.68,0,0,1,.77.77V296a.69.69,0,0,1-.77.77Zm18.57-4.93a2.48,2.48,0,0,0-2.77-2.77h-4.83a.29.29,0,0,0-.31.31v14.78a.29.29,0,0,0,.31.31h2a.29.29,0,0,0,.31-.31V299.3h1.33l1.29,4.89a.3.3,0,0,0,.33.27h2c.21,0,.32-.12.27-.35l-1.33-5a2.5,2.5,0,0,0,1.4-2.54v-4.7Zm-5.29,4.93V291.6h1.91a.69.69,0,0,1,.77.77V296a.69.69,0,0,1-.77.77Zm10.68,4.93a2.49,2.49,0,0,0,2.77,2.77h2.16a2.48,2.48,0,0,0,2.77-2.77v-9.86a2.48,2.48,0,0,0-2.77-2.77H403.9a2.48,2.48,0,0,0-2.77,2.77v9.86Zm3.33.29a.68.68,0,0,1-.77-.77v-8.9a.69.69,0,0,1,.77-.77h1.12a.69.69,0,0,1,.77.77v8.9a.68.68,0,0,1-.77.77Zm10.15,2.17c0,.21.09.31.3.31h4.62a2.48,2.48,0,0,0,2.77-2.77v-9.84a2.49,2.49,0,0,0-2.77-2.79h-4.62a.27.27,0,0,0-.3.31v14.78Zm2.61-2.23V291.6H419a.7.7,0,0,1,.77.79v8.76a.68.68,0,0,1-.77.77Zm16.4-12.86a.38.38,0,0,0-.38.39v11.7a.68.68,0,0,1-.77.77h-1a.69.69,0,0,1-.78-.77v-11.7a.38.38,0,0,0-.38-.39h-1.85a.38.38,0,0,0-.38.39v12.24a2.48,2.48,0,0,0,2.77,2.77H433a2.49,2.49,0,0,0,2.77-2.77V289.45a.39.39,0,0,0-.39-.39Zm15.65,2.77a2.49,2.49,0,0,0-2.77-2.77h-2.16a2.49,2.49,0,0,0-2.79,2.77v9.86a2.5,2.5,0,0,0,2.79,2.77h2.16a2.49,2.49,0,0,0,2.77-2.77v-2.08a.29.29,0,0,0-.31-.31H447a.28.28,0,0,0-.31.31v1.54a.68.68,0,0,1-.77.77h-1a.68.68,0,0,1-.77-.77v-8.78a.68.68,0,0,1,.77-.77h1a.69.69,0,0,1,.77.77v1.54a.28.28,0,0,0,.31.31H449a.29.29,0,0,0,.31-.31v-2.08Zm5.12-2.77a.29.29,0,0,0-.31.31v1.92a.29.29,0,0,0,.31.31h2.23v12.55a.28.28,0,0,0,.31.31h2a.27.27,0,0,0,.31-.31V291.6h2.23a.28.28,0,0,0,.31-.31v-1.92a.28.28,0,0,0-.31-.31Zm13.09,0a.28.28,0,0,0-.31.31v14.78a.28.28,0,0,0,.31.31h2a.29.29,0,0,0,.31-.31V289.37a.29.29,0,0,0-.31-.31Zm8.08,12.63a2.48,2.48,0,0,0,2.77,2.77h2.16a2.48,2.48,0,0,0,2.77-2.77v-9.86a2.48,2.48,0,0,0-2.77-2.77h-2.16a2.48,2.48,0,0,0-2.77,2.77v9.86Zm3.33.29a.68.68,0,0,1-.77-.77v-8.9a.69.69,0,0,1,.77-.77H480a.69.69,0,0,1,.77.77v8.9a.68.68,0,0,1-.77.77Zm16.05-12.92a.28.28,0,0,0-.31.31v8.12h-.11l-2.93-8.18a.33.33,0,0,0-.34-.25h-1.91a.29.29,0,0,0-.31.31v14.78a.29.29,0,0,0,.31.31h2a.28.28,0,0,0,.31-.31V296h.1l2.94,8.22a.34.34,0,0,0,.35.25h1.9a.29.29,0,0,0,.31-.31V289.37a.29.29,0,0,0-.31-.31Z" transform="translate(486 -143)"/><path class="cls-7" d="M688.16,289.23a2.49,2.49,0,0,0-2.77,2.77v4.54a.68.68,0,0,0,.52.71l4.57,1.5v2.57a.69.69,0,0,1-.78.77h-.92a.69.69,0,0,1-.77-.77v-1.49c0-.21-.1-.3-.31-.3h-2a.27.27,0,0,0-.31.3v2a2.49,2.49,0,0,0,2.77,2.77h2.16a2.48,2.48,0,0,0,2.77-2.77v-4.44a.69.69,0,0,0-.5-.71L688,295.19v-2.65a.7.7,0,0,1,.77-.77h.92a.69.69,0,0,1,.78.77V294a.28.28,0,0,0,.3.31h2a.28.28,0,0,0,.31-.31v-2a2.48,2.48,0,0,0-2.77-2.77Zm16.25,0a.38.38,0,0,0-.38.38v11.71a.69.69,0,0,1-.78.77h-1a.68.68,0,0,1-.77-.77V289.61a.38.38,0,0,0-.38-.38h-1.85a.38.38,0,0,0-.38.38v12.24a2.48,2.48,0,0,0,2.77,2.77h2.15a2.48,2.48,0,0,0,2.77-2.77V289.61a.38.38,0,0,0-.38-.38ZM720.06,292a2.49,2.49,0,0,0-2.77-2.77h-2.16a2.49,2.49,0,0,0-2.79,2.77v9.85a2.49,2.49,0,0,0,2.79,2.77h2.16a2.49,2.49,0,0,0,2.77-2.77v-2.07a.28.28,0,0,0-.31-.31h-1.93c-.21,0-.3.11-.3.31v1.54a.68.68,0,0,1-.77.77h-1a.68.68,0,0,1-.77-.77v-8.78a.68.68,0,0,1,.77-.77h1a.69.69,0,0,1,.77.77v1.54a.27.27,0,0,0,.3.3h1.93a.28.28,0,0,0,.31-.3V292Zm13.45-2.46c0-.2-.08-.31-.31-.31h-7.08a.28.28,0,0,0-.29.31v14.78a.28.28,0,0,0,.29.3h7.08c.23,0,.31-.11.31-.3v-1.93c0-.21-.08-.3-.31-.3h-4.81V298.2h3.68c.19,0,.3-.12.3-.33V296a.28.28,0,0,0-.3-.32h-3.68v-3.85h4.81c.23,0,.31-.14.31-.33v-1.92Zm8-.31a2.49,2.49,0,0,0-2.77,2.77v4.54a.67.67,0,0,0,.52.71l4.56,1.5v2.57a.68.68,0,0,1-.77.77h-.93a.69.69,0,0,1-.77-.77v-1.49c0-.21-.09-.3-.3-.3h-2c-.2,0-.31.09-.31.3v2a2.49,2.49,0,0,0,2.77,2.77h2.15a2.48,2.48,0,0,0,2.77-2.77v-4.44a.69.69,0,0,0-.5-.71l-4.58-1.51v-2.65a.7.7,0,0,1,.77-.77H743a.68.68,0,0,1,.77.77V294a.28.28,0,0,0,.31.31h2a.27.27,0,0,0,.3-.31v-2a2.48,2.48,0,0,0-2.77-2.77Zm13.47,0a2.49,2.49,0,0,0-2.77,2.77v4.54a.67.67,0,0,0,.52.71l4.56,1.5v2.57a.68.68,0,0,1-.77.77h-.92a.69.69,0,0,1-.77-.77v-1.49c0-.21-.1-.3-.31-.3h-2a.27.27,0,0,0-.31.3v2a2.49,2.49,0,0,0,2.77,2.77h2.16a2.48,2.48,0,0,0,2.77-2.77v-4.44a.7.7,0,0,0-.5-.71l-4.58-1.51v-2.65a.7.7,0,0,1,.77-.77h.92a.68.68,0,0,1,.77.77V294a.29.29,0,0,0,.31.31h2a.28.28,0,0,0,.31-.31v-2a2.48,2.48,0,0,0-2.77-2.77Z" transform="translate(486 -143)"/><path class="cls-9" d="M425.32,195.19c2.6,0,6.37-.53,6.37-3.63a3.35,3.35,0,0,0-.07-.71l-1.55-6.74c-.36-1.48-.67-2.15-3.27-3.45-2-1-6.42-2.74-7.73-2.74s-1.57,1.57-3,1.57-2.43-1.17-3.73-1.17-2.06.86-2.69,2.61c0,0-1.75,4.93-2,5.65a1.1,1.1,0,0,0-.05.4c0,1.92,7.56,8.21,17.69,8.21m6.77-2.37a10.25,10.25,0,0,1,.36,2.11c0,2.91-3.27,4.53-7.58,4.53-9.75,0-18.27-5.7-18.27-9.47a3.8,3.8,0,0,1,.32-1.52c-3.5.17-8,.8-8,4.79,0,6.55,15.52,14.63,27.81,14.63,9.42,0,11.8-4.26,11.8-7.63,0-2.65-2.29-5.65-6.42-7.45" transform="translate(486 -143)"/><path d="M432.08,192.81a10.48,10.48,0,0,1,.36,2.11c0,2.92-3.27,4.53-7.58,4.53-9.74,0-18.26-5.69-18.26-9.46a3.8,3.8,0,0,1,.32-1.52l.76-1.89a1.1,1.1,0,0,0-.05.4c0,1.92,7.56,8.21,17.69,8.21,2.6,0,6.37-.53,6.37-3.63a3.35,3.35,0,0,0-.07-.71l.46,2Z" transform="translate(486 -143)"/><path class="cls-10" d="M154,199.09v-.77c0-3.68,0-7.37,0-11,0-.56.1-.67.65-.46,2.18.79,4.36,1.56,6.56,2.3a.81.81,0,0,1,.64.94c0,1.88,0,3.75,0,5.63,0,.29,0,.54-.35.67-2.44.91-4.87,1.85-7.3,2.77a.5.5,0,0,1-.18,0Z" transform="translate(486 -143)"/><path class="cls-10" d="M180.83,211.73v-1.61c0-3.4,0-6.8,0-10.2,0-.54,0-.75.67-.52,2.23.83,4.48,1.61,6.73,2.39a.54.54,0,0,1,.45.6c0,2,0,4,0,6a.49.49,0,0,1-.36.54c-2.39.89-4.78,1.81-7.17,2.71a2.86,2.86,0,0,1-.31.06Z" transform="translate(486 -143)"/><path class="cls-10" d="M170.35,180.3c0,.95,0,1.89,0,2.84a.63.63,0,0,1-.47.73q-3.4,1.27-6.8,2.59c-.52.21-.57,0-.57-.42,0-3.8,0-7.59,0-11.38,0-.51.12-.59.59-.41,2.26.82,4.52,1.61,6.79,2.4a.59.59,0,0,1,.47.67c0,1,0,2,0,3Z" transform="translate(486 -143)"/><path class="cls-10" d="M180.88,174.08l4.31,1.52c1,.34,1.95.71,2.93,1,.39.13.56.29.55.74,0,1.91,0,3.83,0,5.75,0,.36,0,.6-.46.74-2.29.85-4.58,1.73-6.86,2.61-.41.16-.53.11-.53-.35,0-3.9,0-7.81,0-11.71a2,2,0,0,1,0-.33Z" transform="translate(486 -143)"/><path class="cls-10" d="M162.52,205.52c0-1.92,0-3.84,0-5.75,0-.5.13-.55.56-.39q3.42,1.23,6.86,2.42a.55.55,0,0,1,.42.63q0,2.94,0,5.88a.58.58,0,0,1-.44.68c-2.28.85-4.54,1.71-6.8,2.6-.53.21-.61.07-.6-.45,0-1.87,0-3.75,0-5.62Z" transform="translate(486 -143)"/><path class="cls-10" d="M197.55,196.38c-2.3.89-4.61,1.77-6.91,2.67-.37.15-.39,0-.39-.32q0-5.82,0-11.64c0-.36.08-.49.45-.35l7,2.5a1.71,1.71,0,0,1,.27,1c0,1.52,0,3,0,4.57,0,.52.2,1.12-.47,1.43a.39.39,0,0,1,.08.1Z" transform="translate(486 -143)"/><path class="cls-10" d="M172.48,186.7c2.5.83,5,1.69,7.44,2.64-.3.24,0,.5,0,.76,0,1.22,0,2.45,0,3.68a13,13,0,0,1-.09,2.49l-5.7,2.22c-.53.21-1.08.38-1.61.57q0-6.18,0-12.36Z" transform="translate(486 -143)"/><path class="cls-11" d="M152.75,198.48c.13.49.14.77-.52.5-1.6-.64-3.21-1.24-4.83-1.83a.64.64,0,0,1-.51-.71q0-3.6,0-7.22a.66.66,0,0,1,.52-.76c1.63-.54,3.25-1.12,4.87-1.71.37-.14.57-.16.53.34-.05.7.06,1.41-.06,2.11l-.09-1.94h0V197.8c.09-1.86.08-3.73.09-5.6a18.73,18.73,0,0,1,.06-2.7c.12,1.91,0,3.82,0,5.72a23.39,23.39,0,0,1-.05,3c-.05,0-.13,0-.14.09s.06.13.14.15Zm-4.51-9.26c-.87,0-1,.09-1,.85v5.6c0,.63.29.83,1,.71a1.8,1.8,0,0,0,.07-.38q0-3.18,0-6.34a.62.62,0,0,0-.09-.44Zm3.86.27c.16.22.08.47.08.7,0,1.86,0,3.71,0,5.56v1.85a2.34,2.34,0,0,0,.12-.29c0-2.87,0-5.73,0-8.6,0-.18,0-.37-.23-.41-.34-.44-.66,0-1,0-.54,0-.7.32-.69.87,0,2.34,0,4.67,0,7,0,1.23-.19.89,1,1.33.54.2.68.09.67-.51,0-2.51,0-5,0-7.53Zm-2.19,3.3c0-1.21,0-2.42,0-3.63,0-.15.11-.37-.13-.45a1,1,0,0,0-1.15.88c0,2.08.05,4.15,0,6.22,0,.75.26,1,.9,1.13.34.08.41,0,.41-.31,0-1.28,0-2.56,0-3.84Zm-2.81-3.27H147v6.73h.06v-6.72Zm3.11,6.17h.06v-6h-.06v6Z" transform="translate(486 -143)"/><path class="cls-12" d="M161.2,174.29c.16,0,.06.13.06.18,0,3.86,0,7.72,0,11.58,0,.48-.09.59-.58.4-1.61-.65-3.24-1.26-4.88-1.86a.58.58,0,0,1-.45-.66c0-2.43,0-4.85,0-7.28,0-.26,0-.51.3-.63l5.12-1.76a.24.24,0,0,0,.4,0Zm-5.49,9.37c1,.42,1,.42,1-.65v-5.75c0-.65-.19-.75-.76-.46-.31.15-.21.41-.21.63,0,1.9,0,3.79-.05,5.68a5.1,5.1,0,0,1-.06-1.56c0-1.64,0-3.27,0-4.9-.12,2.24-.12,4.48-.12,6.71a.28.28,0,0,0,.21.3Zm1.36,0c0,.7.57.6.94.77s.39,0,.39-.3c0-2.53,0-5.06,0-7.59,0-.12,0-.27-.12-.34s-1.11.36-1.2.71c-.43-.12-.23.23-.23.35,0,2,0,3.92,0,5.88,0,.2-.09.46.24.52Zm1.76-.25c.12,1.38.13,1.37,1.25,1.67.34.09.49.06.47-.34s0-.87,0-1.31c0-2.45,0-4.89,0-7.33,0-.17.11-.5-.14-.49a5.86,5.86,0,0,0-1.34.34c-.35.11-.09.47-.23.69s-.15.35-.15.54v5.68c0,.19-.06.41.15.55Zm2.25,1.67.06,0V174.82h-.06v10.25Zm0,.77c-.05.22-.09.35,0,.48a.49.49,0,0,0,0-.48Z" transform="translate(486 -143)"/><path class="cls-12" d="M161.19,199.31c.12.15.07.33.07.51,0,3.78,0,7.55,0,11.33,0,.13.33.7-.31.46,0-.05.18,0,.13-.1l-.13.1c-1.76-.65-3.51-1.31-5.27-2-.39-.14-.3-.42-.26-.7l.33-.13c1,.33,1,.33,1-.72v-5.35c0-1,0-1-.93-.81-.39,0-.28.33-.28.55,0,1.47,0,2.95,0,4.42a5.26,5.26,0,0,1-.07,1.63c0-2.35,0-4.71,0-7.06a.2.2,0,0,1,.12-.21c0,.1,0,.19.05.29s0,0,0,0a.19.19,0,0,0-.1-.25c1.69-.7,3.43-1.29,5.17-1.85a.64.64,0,0,1,.4.71,10.44,10.44,0,0,0,0,1.12h.13v-1.94Zm-4.12,9.52c0,.65.56.54.93.71s.4,0,.4-.31c0-2.53,0-5.06,0-7.58,0-.12.06-.27-.1-.34s-1.09.33-1.22.63c-.24,0-.24.21-.24.39v6.28c0,.18,0,.33.24.22Zm1.76-.26a1.71,1.71,0,0,1,0,.39c-.11.67.14,1,.83,1.1a.75.75,0,0,1,.25.09c.49.23.62.09.61-.45,0-2.59,0-5.19,0-7.78,0-1.33,0-1.31-1.27-.93a.47.47,0,0,0-.41.55c0,.22,0,.44,0,.66-.19.12-.15.3-.15.47v5.42c0,.17,0,.36.15.48Zm2.34-6.72-.06,0v8.69h.06v-8.66Zm0,9.29a.87.87,0,0,1,0-.1l0,0a.45.45,0,0,0,0,.08Z" transform="translate(486 -143)"/><path class="cls-13" d="M189,192.86c0,1.92,0,3.84,0,5.76,0,.47-.1.55-.55.37q-2.43-1-4.88-1.85a.63.63,0,0,1-.49-.72c0-2.4,0-4.81,0-7.21a.66.66,0,0,1,.54-.75c1.63-.55,3.25-1.13,4.86-1.72.41-.15.53-.08.53.37,0,1.92,0,3.84,0,5.75Zm-4.52-3.59c-.27-.26-.52,0-.78,0-.55-.17-.51.22-.51.54v5.53a1,1,0,0,0,.23.73,1.5,1.5,0,0,0,1,.39l.32,0c.14.28.45.23.68.36.6.34.66.06.65-.49,0-2.35,0-4.7,0-7a1.18,1.18,0,0,0-.07-.64l-1.18.27a.47.47,0,0,0-.37.31Zm2.15-.72c-.16.14-.12.33-.12.5q0,3.81,0,7.62c0,.18-.05.36.1.5a9.32,9.32,0,0,0,1.62.52v-8.16c0-1.57,0-1.57-1.51-1.06a.87.87,0,0,0-.1.08Zm2.24-1-.07,0v8.42h.07v-8.39Zm-.48,9.33h.07v-8h-.07v8Z" transform="translate(486 -143)"/><path class="cls-11" d="M179.11,211.59c-1.65-.62-3.29-1.25-5-1.85a.62.62,0,0,1-.48-.66q0-3.68,0-7.34a.53.53,0,0,1,.41-.63c1.63-.55,3.25-1.12,4.87-1.69.37.14.42.43.42.78,0,2.24,0,4.48,0,6.72a40.71,40.71,0,0,0,.07,4.28c0,.33-.25.24-.34.39Zm-3.72-2.5c.22.38.66.3,1,.46s.34,0,.34-.27c0-2.55,0-5.11,0-7.67,0-.13.06-.3-.2-.31a1.06,1.06,0,0,0-1.11.9c-.34.05-.24.32-.25.52v5.86c0,.19-.09.46.25.51Zm3.5.8c.09.06.22.34.22,0v-8.79c0-.18-.05-.25-.22-.17-.44-.37-.81.08-1.21.11s-.48.2-.48.56c0,2.62,0,5.24,0,7.86,0,.38,1.3,1,1.6.79.07,0,.05-.2.08-.31ZM175,205.48v-3.11c0-.62-.09-.65-.69-.46-.39.12-.28.39-.29.63v5.16c0,.26,0,.53,0,.79,0,.55.45.51.74.55s.23-.33.23-.52c0-1,0-2,0-3Zm-1.2,3.18.06,0v-6.61h-.06v6.58Zm3.25,0h-.14c0,.31.05.63.07.94h.07v-.93Zm0-6.55a1.83,1.83,0,0,0,0-.93,1.55,1.55,0,0,0,0,.93Z" transform="translate(486 -143)"/><path class="cls-14" d="M173.92,176.08c1.64-.62,3.29-1.23,5-1.74.34,0,.5.15.5.53q0,5.48,0,10.95c0,.37-.15.52-.5.52h0c-.07-.37-.27-.34-.52-.18l-4.47-1.71c.39-.21.06-.5.06-.74,0-2.24,0-4.49,0-6.73,0-.3.22-.59,0-.89Zm1.47,7a.75.75,0,0,1,0,.2c-.15.71.24,1,.86,1.09.4.09.45,0,.43-.37s0-.75,0-1.13c0-2.07,0-4.15,0-6.22,0-.17.09-.53-.15-.48-.41.09-1,0-1.16.55-.29,0-.25.26-.25.45v5.46c0,.19,0,.42.25.45Zm3.5-7.15c0-.12-.07-.35-.11-.35a3.93,3.93,0,0,0-1.39.33c-.31.11-.18.42-.18.64,0,2.38,0,4.76,0,7.13,0,.75.17,1.11.92,1.26s.74.21.74-.56c0-2.72,0-5.45,0-8.18.16.22.09.47.09.7v8.16a1.19,1.19,0,0,0,.13-.76v-7.13a10.41,10.41,0,0,0,0-1.25c0-.32-.14,0-.21,0ZM175,180.3h0c0-1,0-2,0-3,0-.19.23-.62-.24-.58s-.77,0-.74.62c0,1,0,2.07,0,3.11s0,1.94,0,2.91c0,.58.46.56.77.58s.21-.36.21-.56c0-1,0-2,0-3Zm2,4.25a1.12,1.12,0,0,0,0-.85v.85Z" transform="translate(486 -143)"/><path class="cls-15" d="M165.3,188.64l5.69-2.06v12.58c-1.49-.56-3-1.11-4.41-1.68a4.62,4.62,0,0,1-1.37-.59c.23-.21,0-.57.22-.78a1.65,1.65,0,0,0,1.06.39c.39,0,.27-.35.27-.56,0-1.49,0-3,0-4.48a11,11,0,0,1,.06-2.22c0,2.23,0,4.46,0,6.7,0,.79.39,1.1,1.27,1a.84.84,0,0,0,0-.8v-.25a1.16,1.16,0,0,0,.09-.71c0-1.6,0-3.21,0-4.82a2.41,2.41,0,0,0-.09-1.1c0-.39,0-.66-.52-.43a3.25,3.25,0,0,1-.7.17l-.44.14-1.14.28,0-.74Zm5,8.4c.19-.13.19-.27,0-.41v-.52c.18-.12.14-.3.14-.48,0-1.93,0-3.87,0-5.8,0-.17,0-.36-.14-.48a2.1,2.1,0,0,1,0-.79c.18-.13.19-.27,0-.4-.6-.17-1.08.3-1.64.28-.32.13-.2.41-.2.64q0,3.72,0,7.46c0,.22-.07.45.12.63.45.15.91.29,1.36.46.22.09.32,0,.36-.19.1-.05.1-.1,0-.14V197Z" transform="translate(486 -143)"/><path class="cls-16" d="M179.11,211.59c.09-.15.38-.06.34-.39a40.71,40.71,0,0,1-.07-4.28c0-2.24,0-4.48,0-6.72,0-.35,0-.64-.42-.78.4-.24.65-.33.65.33,0,3.81,0,7.62,0,11.43,0,.35,0,.74-.5.41Z" transform="translate(486 -143)"/><path class="cls-16" d="M178.89,186.34c.35,0,.5-.15.5-.52q0-5.48,0-10.95c0-.38-.16-.52-.5-.53.72-.35.72-.35.72.39V185.9c0,.81,0,.81-.72.44Z" transform="translate(486 -143)"/><path class="cls-16" d="M173.92,176.08c.22.3,0,.59,0,.89,0,2.24,0,4.49,0,6.73,0,.24.33.53-.06.74-.27-.13-.16-.38-.16-.58,0-2.39,0-4.79,0-7.18,0-.21-.13-.51.23-.6Z" transform="translate(486 -143)"/><path class="cls-17" d="M165.43,196.11c-.25.21,0,.57-.22.78,0-2.39,0-4.79,0-7.19,0-.35-.15-.74.13-1.06l0,.74a.58.58,0,0,1,.12.44c0,2.09,0,4.19,0,6.29Z" transform="translate(486 -143)"/><path class="cls-18" d="M172.36,199.11c-.23-.1-.13-.3-.13-.45q0-5.81,0-11.61c0-.12-.13-.31.1-.37q0,6.23,0,12.43Z" transform="translate(486 -143)"/><path class="cls-13" d="M172.36,199.11q0-6.21,0-12.43l.14,0q0,6.18,0,12.36l-.14.05Z" transform="translate(486 -143)"/><path class="cls-17" d="M152.76,189.5a18.73,18.73,0,0,0-.06,2.7c0,1.87,0,3.74-.09,5.6V187.27h0l.09,1.94c0,.1,0,.2,0,.3Z" transform="translate(486 -143)"/><path class="cls-16" d="M197.55,196.38a.39.39,0,0,0-.08-.1c.67-.31.47-.91.47-1.43,0-1.53,0-3,0-4.57a1.71,1.71,0,0,0-.27-1c.35,0,.41.23.41.54,0,2,0,4,0,6,0,.46-.31.45-.55.58Z" transform="translate(486 -143)"/><path class="cls-17" d="M155.74,208.83l-.33.13c0-.14,0-.27,0-.41a5.26,5.26,0,0,0,.07-1.63c0-1.47,0-2.95,0-4.42,0-.22-.11-.52.28-.55l-.08.26a35.54,35.54,0,0,0-.07,4.13,8.62,8.62,0,0,0,.07,2.21,2.36,2.36,0,0,0,0,.28Z" transform="translate(486 -143)"/><path class="cls-13" d="M179.81,196.27a13,13,0,0,0,.09-2.49c0-1.23,0-2.46,0-3.68,0-.26-.3-.52,0-.76.22.1.14.3.14.47,0,2,0,4,0,5.95,0,.21.09.47-.25.51Z" transform="translate(486 -143)"/><path class="cls-17" d="M161.19,199.31v1.94h-.13a10.44,10.44,0,0,1,0-1.12.64.64,0,0,0-.4-.71l.4-.14h.12Z" transform="translate(486 -143)"/><path class="cls-16" d="M178.32,186.15c.25-.16.45-.19.52.18l-.52-.18Z" transform="translate(486 -143)"/><path class="cls-17" d="M152.75,198.48c-.08,0-.18,0-.14-.15s.09-.06.14-.09v.24Z" transform="translate(486 -143)"/><path class="cls-17" d="M161.2,174.29a.24.24,0,0,1-.4,0l.4,0Z" transform="translate(486 -143)"/><path class="cls-12" d="M161.18,199.3h-.11c0-.06.08-.09.11,0Z" transform="translate(486 -143)"/><path class="cls-17" d="M152.1,188.69c0-.13,0-.26,0-.39.25,0,.23.23.23.41,0,2.87,0,5.73,0,8.6a2.34,2.34,0,0,1-.12.29v-1.85c0-1.85,0-3.7,0-5.56,0-.23.08-.48-.08-.7v-.27a.41.41,0,0,0,0-.53Z" transform="translate(486 -143)"/><path class="cls-18" d="M148.25,196.38c-.08-2.39-.05-4.78,0-7.16a.62.62,0,0,1,.09.44q0,3.17,0,6.34a1.8,1.8,0,0,1-.07.38Z" transform="translate(486 -143)"/><path class="cls-17" d="M147.1,189.52v6.72H147v-6.73Z" transform="translate(486 -143)"/><path class="cls-17" d="M150.21,195.69v-6h.06v6Z" transform="translate(486 -143)"/><path class="cls-17" d="M157.07,176.9v6.75c-.33-.06-.24-.32-.24-.52,0-2,0-3.92,0-5.88,0-.12-.2-.47.23-.35Z" transform="translate(486 -143)"/><path class="cls-17" d="M161.08,185.07V174.82h.06V185.1l-.06,0Z" transform="translate(486 -143)"/><path class="cls-17" d="M155.69,183.11c0,.18,0,.37,0,.55a.28.28,0,0,1-.21-.3c0-2.23,0-4.47.12-6.71,0,1.63,0,3.26,0,4.9a5.1,5.1,0,0,0,.06,1.56Z" transform="translate(486 -143)"/><path class="cls-17" d="M158.83,176.63v6.77c-.21-.14-.15-.36-.15-.55v-5.68c0-.19-.06-.41.15-.54Z" transform="translate(486 -143)"/><path class="cls-17" d="M161.11,185.84a.49.49,0,0,1,0,.48c-.11-.13-.07-.26,0-.48Z" transform="translate(486 -143)"/><path class="cls-17" d="M157.07,201.94v.26s0,0,0,0l0,.1v6.09s0,0,0,0l0,.09v.27c-.24.11-.24,0-.24-.22v-6.28c0-.18,0-.36.24-.39Z" transform="translate(486 -143)"/><path class="cls-17" d="M161.17,201.85v8.66h-.06v-8.69l.06,0Z" transform="translate(486 -143)"/><path class="cls-17" d="M158.83,202.2v6.37c-.19-.12-.15-.31-.15-.48v-5.42c0-.17,0-.35.15-.47Z" transform="translate(486 -143)"/><path class="cls-17" d="M155.5,201.28a.19.19,0,0,1,.1.25s0,0,0,0,0-.19-.05-.29Z" transform="translate(486 -143)"/><path class="cls-17" d="M161.12,211.14a.45.45,0,0,1,0-.08l0,0a.87.87,0,0,0,0,.1Z" transform="translate(486 -143)"/><path class="cls-17" d="M160.94,211.61l.13-.1c.05.15-.1.05-.13.1Z" transform="translate(486 -143)"/><path class="cls-17" d="M184.49,196.49q0-3.62,0-7.22a.47.47,0,0,1,.37-.31c-.12,1.9,0,3.8,0,5.69,0,.62,0,1.24,0,1.86l-.32,0Z" transform="translate(486 -143)"/><path class="cls-15" d="M183.73,189.3c-.38.1-.25.42-.25.66,0,2,0,4.09,0,6.14a1,1,0,0,1-.23-.73v-5.53c0-.32,0-.71.51-.54Z" transform="translate(486 -143)"/><path class="cls-17" d="M188.9,187.54v8.39h-.07v-8.42l.07,0Z" transform="translate(486 -143)"/><path class="cls-18" d="M186.66,188.55c0,2.87,0,5.75,0,8.62-.15-.14-.1-.32-.1-.5q0-3.81,0-7.62c0-.17,0-.36.12-.5Z" transform="translate(486 -143)"/><path class="cls-17" d="M188.42,196.87v-8h.07v8Z" transform="translate(486 -143)"/><path class="cls-17" d="M175.39,202.2v6.89c-.34-.05-.24-.32-.25-.51v-5.86c0-.2-.09-.47.25-.52Z" transform="translate(486 -143)"/><path class="cls-17" d="M178.89,209.89v-.27a.62.62,0,0,0,.09-.44v-7.59a.64.64,0,0,0-.09-.45v-.26c.17-.08.22,0,.22.17v8.79c0,.39-.13.11-.22,0Z" transform="translate(486 -143)"/><path class="cls-17" d="M173.83,208.66v-6.58h.06v6.61l-.06,0Z" transform="translate(486 -143)"/><path class="cls-17" d="M177.08,208.69v.93H177c0-.31,0-.63-.07-.94Z" transform="translate(486 -143)"/><path class="cls-17" d="M177,202.14a1.55,1.55,0,0,1,0-.93,1.83,1.83,0,0,1,0,.93Z" transform="translate(486 -143)"/><path class="cls-17" d="M175.39,176.76v6.36c-.29,0-.25-.26-.25-.45v-5.46c0-.19,0-.41.25-.45Z" transform="translate(486 -143)"/><path class="cls-17" d="M178.89,176.24V176c.07,0,.18-.33.21,0a10.41,10.41,0,0,1,0,1.25v7.13a1.19,1.19,0,0,1-.13.76v-8.16c0-.23.07-.48-.09-.7Z" transform="translate(486 -143)"/><path class="cls-17" d="M177,184.55v-.85a1.12,1.12,0,0,1,0,.85Z" transform="translate(486 -143)"/><path class="cls-17" d="M166.49,196.5c0-2.46,0-4.93,0-7.4l.44-.14c0,.09,0,.18-.08.28a11,11,0,0,0-.06,2.22c0,1.49,0,3,0,4.48,0,.21.12.52-.27.56Z" transform="translate(486 -143)"/><path class="cls-13" d="M168.7,188.44a2.86,2.86,0,0,0-.07,1.05q0,3.84,0,7.68c-.19-.18-.12-.41-.12-.63q0-3.73,0-7.46c0-.23-.12-.51.2-.64Z" transform="translate(486 -143)"/><path class="cls-17" d="M170.34,196.11v-6.76c.18.12.14.31.14.48,0,1.93,0,3.87,0,5.8,0,.18,0,.36-.14.48Z" transform="translate(486 -143)"/><path class="cls-18" d="M168.13,195.85c-.06-2.21-.07-4.42,0-6.63a2.41,2.41,0,0,1,.09,1.1c0,1.61,0,3.22,0,4.82a1.16,1.16,0,0,1-.09.71Z" transform="translate(486 -143)"/><path class="cls-18" d="M168.14,196.9a1.66,1.66,0,0,1,0-.8.84.84,0,0,1,0,.8Z" transform="translate(486 -143)"/><path class="cls-17" d="M170.34,197v-.41c.19.14.19.28,0,.41Z" transform="translate(486 -143)"/><path class="cls-17" d="M170.34,188.56v-.4c.19.13.18.27,0,.4Z" transform="translate(486 -143)"/><path class="cls-17" d="M170.34,197.44v-.14c.1,0,.1.09,0,.14Z" transform="translate(486 -143)"/><path class="cls-12" d="M155.7,202.21q.08,3.18,0,6.34a8.62,8.62,0,0,1-.07-2.21,35.54,35.54,0,0,1,.07-4.13Z" transform="translate(486 -143)"/><path class="cls-11" d="M152.1,188.69a.41.41,0,0,1,0,.53v-.53Z" transform="translate(486 -143)"/><path class="cls-12" d="M157.07,202.34l0-.1s0,0,0,0v.14Z" transform="translate(486 -143)"/><path class="cls-12" d="M157.07,208.56l0-.09s0,0,0,0v.13Z" transform="translate(486 -143)"/><path class="cls-11" d="M178.89,201.14a.64.64,0,0,1,.09.45v7.59a.62.62,0,0,1-.09.44q-.09-4.23,0-8.48Z" transform="translate(486 -143)"/><path class="cls-19" d="M496.91,172.8a2.62,2.62,0,0,0-1,.27L482,179.7a2.61,2.61,0,0,0-1.44,1.79l-3.4,14.88a2.64,2.64,0,0,0,.36,2l.15.21,9.61,11.94a2.68,2.68,0,0,0,2.07,1h15.41a2.65,2.65,0,0,0,2.07-1l9.6-11.95a2.58,2.58,0,0,0,.52-2.22l-3.43-14.9a2.63,2.63,0,0,0-1.44-1.79l-13.88-6.61a2.59,2.59,0,0,0-1.28-.27Z" transform="translate(486 -143)"/><path class="cls-7" d="M497,177.86a.89.89,0,0,0-.81.93V179a6.83,6.83,0,0,0,.11.79,7.65,7.65,0,0,1,.08,1.51.82.82,0,0,1-.27.43l0,.35a10.89,10.89,0,0,0-1.5.24,10.56,10.56,0,0,0-5.43,3.1l-.3-.22a.64.64,0,0,1-.49-.05,7.15,7.15,0,0,1-1.12-1,7.44,7.44,0,0,0-.55-.58l-.18-.14a1,1,0,0,0-.58-.22.79.79,0,0,0-.66.29.89.89,0,0,0,.2,1.23l.17.13c.23.15.46.29.69.41a7.51,7.51,0,0,1,1.25.86.92.92,0,0,1,.16.48l.28.23a10.76,10.76,0,0,0-1.7,7.5l-.35.1a1.1,1.1,0,0,1-.35.36,8.43,8.43,0,0,1-1.49.25,5.29,5.29,0,0,0-.8.06l-.22,0h0a.84.84,0,0,0-.71.94.8.8,0,0,0,.23.48.83.83,0,0,0,.85.2h0l.23,0a5.05,5.05,0,0,0,.74-.27,7.49,7.49,0,0,1,1.45-.42.93.93,0,0,1,.48.17l.36-.07a10.85,10.85,0,0,0,4.79,6l-.15.31a.77.77,0,0,1,.07.47,7.48,7.48,0,0,1-.75,1.36c-.16.22-.31.44-.45.67l-.1.22a.83.83,0,0,0,.29,1.14.86.86,0,0,0,.52.11.82.82,0,0,0,.69-.54l.1-.21c.09-.25.17-.5.24-.76a5.91,5.91,0,0,1,.64-1.49.65.65,0,0,1,.36-.18l.19-.34a10.73,10.73,0,0,0,7.67,0l.16.32a.68.68,0,0,1,.43.25,8,8,0,0,1,.56,1.4,6.15,6.15,0,0,0,.25.76l.1.22a.83.83,0,1,0,1.5-.71l-.11-.23a5.82,5.82,0,0,0-.44-.66,7.43,7.43,0,0,1-.74-1.32.64.64,0,0,1,.09-.5,1.92,1.92,0,0,1-.14-.33,10.79,10.79,0,0,0,4.77-6l.35.07a.64.64,0,0,1,.47-.17,7.49,7.49,0,0,1,1.45.42,6.67,6.67,0,0,0,.74.29l.22,0h0a.84.84,0,0,0,1.05-.54.8.8,0,0,0,0-.53.84.84,0,0,0-.68-.55l-.25-.06c-.26,0-.53-.05-.8-.06a7.59,7.59,0,0,1-1.49-.24,1,1,0,0,1-.36-.36l-.33-.1a10.82,10.82,0,0,0-1.73-7.48l.29-.27a.67.67,0,0,1,.16-.47,7.59,7.59,0,0,1,1.23-.87,7.76,7.76,0,0,0,.69-.4l.19-.15a.83.83,0,0,0,.26-1.15.78.78,0,0,0-.43-.35.83.83,0,0,0-.87.2l-.18.15a5,5,0,0,0-.55.58,7.53,7.53,0,0,1-1.09,1,.86.86,0,0,1-.5.06l-.32.22a10.89,10.89,0,0,0-6.9-3.33c0-.11,0-.31,0-.37a.64.64,0,0,1-.27-.41,7.61,7.61,0,0,1,.09-1.51,6.83,6.83,0,0,0,.11-.79v-.24a.88.88,0,0,0-.81-.92Zm-1,6.45-.24,4.36h0a.74.74,0,0,1-.76.7.77.77,0,0,1-.4-.14L491,186.69a8.65,8.65,0,0,1,4.12-2.24c.3-.06.59-.11.89-.14Zm2.08,0a8.57,8.57,0,0,1,5,2.4l-3.54,2.51a.73.73,0,0,1-1.19-.56l-.25-4.35Zm-8.38,4,3.27,2.91v0a.74.74,0,0,1,.07,1,.77.77,0,0,1-.36.23h0l-4.19,1.21a8.59,8.59,0,0,1,1.21-5.42Zm14.66,0a8.67,8.67,0,0,1,1.25,5.4l-4.2-1.21v0a.73.73,0,0,1-.51-.9.84.84,0,0,1,.22-.36l3.25-2.9Zm-8,3.14h1.34l.82,1-.3,1.29-1.2.58-1.21-.58-.28-1.3.83-1Zm4.29,3.54h.17l4.32.73a8.52,8.52,0,0,1-3.46,4.36L500,196.06a.73.73,0,0,1,.39-1,.69.69,0,0,1,.24-.05v0Zm-7.27,0a.74.74,0,0,1,.73.75,1.18,1.18,0,0,1-.06.27v0l-1.67,4a8.61,8.61,0,0,1-3.44-4.31l4.29-.73h.15ZM497,196.8a.74.74,0,0,1,.67.39h0l2.12,3.81c-.28.09-.56.17-.85.24a8.61,8.61,0,0,1-4.69-.25l2.11-3.81a.77.77,0,0,1,.63-.37Z" transform="translate(486 -143)"/><path class="cls-20" d="M497,177.86a.89.89,0,0,0-.81.93V179a6.83,6.83,0,0,0,.11.79,7.65,7.65,0,0,1,.08,1.51.82.82,0,0,1-.27.43l0,.35a10.89,10.89,0,0,0-1.5.24,10.56,10.56,0,0,0-5.43,3.1l-.3-.22a.64.64,0,0,1-.49-.05,7.15,7.15,0,0,1-1.12-1,7.44,7.44,0,0,0-.55-.58l-.18-.14a1,1,0,0,0-.58-.22.79.79,0,0,0-.66.29.89.89,0,0,0,.2,1.23l.17.13c.23.15.46.29.69.41a7.51,7.51,0,0,1,1.25.86.92.92,0,0,1,.16.48l.28.23a10.76,10.76,0,0,0-1.7,7.5l-.35.1a1.1,1.1,0,0,1-.35.36,8.43,8.43,0,0,1-1.49.25,5.29,5.29,0,0,0-.8.06l-.22,0h0a.84.84,0,0,0-.71.94.8.8,0,0,0,.23.48.83.83,0,0,0,.85.2h0l.23,0a5.05,5.05,0,0,0,.74-.27,7.49,7.49,0,0,1,1.45-.42.93.93,0,0,1,.48.17l.36-.07a10.85,10.85,0,0,0,4.79,6l-.15.31a.77.77,0,0,1,.07.47,7.48,7.48,0,0,1-.75,1.36c-.16.22-.31.44-.45.67l-.1.22a.83.83,0,0,0,.29,1.14.86.86,0,0,0,.52.11.82.82,0,0,0,.69-.54l.1-.21c.09-.25.17-.5.24-.76a5.91,5.91,0,0,1,.64-1.49.65.65,0,0,1,.36-.18l.19-.34a10.73,10.73,0,0,0,7.67,0l.16.32a.68.68,0,0,1,.43.25,8,8,0,0,1,.56,1.4,6.15,6.15,0,0,0,.25.76l.1.22a.83.83,0,1,0,1.5-.71l-.11-.23a5.82,5.82,0,0,0-.44-.66,7.43,7.43,0,0,1-.74-1.32.64.64,0,0,1,.09-.5,1.92,1.92,0,0,1-.14-.33,10.79,10.79,0,0,0,4.77-6l.35.07a.64.64,0,0,1,.47-.17,7.49,7.49,0,0,1,1.45.42,6.67,6.67,0,0,0,.74.29l.22,0h0a.84.84,0,0,0,1.05-.54.8.8,0,0,0,0-.53.84.84,0,0,0-.68-.55l-.25-.06c-.26,0-.53-.05-.8-.06a7.59,7.59,0,0,1-1.49-.24,1,1,0,0,1-.36-.36l-.33-.1a10.82,10.82,0,0,0-1.73-7.48l.29-.27a.67.67,0,0,1,.16-.47,7.59,7.59,0,0,1,1.23-.87,7.76,7.76,0,0,0,.69-.4l.19-.15a.83.83,0,0,0,.26-1.15.78.78,0,0,0-.43-.35.83.83,0,0,0-.87.2l-.18.15a5,5,0,0,0-.55.58,7.53,7.53,0,0,1-1.09,1,.86.86,0,0,1-.5.06l-.32.22a10.89,10.89,0,0,0-6.9-3.33c0-.11,0-.31,0-.37a.64.64,0,0,1-.27-.41,7.61,7.61,0,0,1,.09-1.51,6.83,6.83,0,0,0,.11-.79v-.24a.88.88,0,0,0-.81-.92Zm-1,6.45-.24,4.36h0a.74.74,0,0,1-.76.7.77.77,0,0,1-.4-.14L491,186.69a8.65,8.65,0,0,1,4.12-2.24c.3-.06.59-.11.89-.14Zm2.08,0a8.57,8.57,0,0,1,5,2.4l-3.54,2.51a.73.73,0,0,1-1.19-.56l-.25-4.35Zm-8.38,4,3.27,2.91v0a.74.74,0,0,1,.07,1,.77.77,0,0,1-.36.23h0l-4.19,1.21a8.59,8.59,0,0,1,1.21-5.42Zm14.66,0a8.67,8.67,0,0,1,1.25,5.4l-4.2-1.21v0a.73.73,0,0,1-.51-.9.84.84,0,0,1,.22-.36l3.25-2.9Zm-8,3.14h1.34l.82,1-.3,1.29-1.2.58-1.21-.58-.28-1.3.83-1Zm4.29,3.54h.17l4.32.73a8.52,8.52,0,0,1-3.46,4.36L500,196.06a.73.73,0,0,1,.39-1,.69.69,0,0,1,.24-.05v0Zm-7.27,0a.74.74,0,0,1,.73.75,1.18,1.18,0,0,1-.06.27v0l-1.67,4a8.61,8.61,0,0,1-3.44-4.31l4.29-.73h.15ZM497,196.8a.74.74,0,0,1,.67.39h0l2.12,3.81c-.28.09-.56.17-.85.24a8.61,8.61,0,0,1-4.69-.25l2.11-3.81a.77.77,0,0,1,.63-.37Z" transform="translate(486 -143)"/><path class="cls-21" d="M359.71,190.76q-4.59-8-9.2-16a3.88,3.88,0,0,0-3-1.92c-.24,0-.47,0-.7,0H328.9a4.05,4.05,0,0,0-1.38.2h0a4,4,0,0,0-2.43,2.06q-4.5,7.83-9,15.64a3.9,3.9,0,0,0,0,4.12l3.58,6.26,5.56,9.71a3.89,3.89,0,0,0,2.88,2.1h0c.35,0,.7.05,1.05.05,5.08,0,10.15,0,15.23,0a12,12,0,0,0,3.88-.23,1,1,0,0,0-.32-.09,42.81,42.81,0,0,1-4.53.09c.11-.09.09-.25,0-.45a3.58,3.58,0,0,0-.61-.68q-5.56-5.56-11.13-11.12a12,12,0,0,1-2-2.13,1.48,1.48,0,0,1-.6-.81,31.71,31.71,0,0,1,0-9.38c.13-.58.64-.77,1.08-1,2.3-1.32,4.6-2.64,6.88-4a1.62,1.62,0,0,1,1.87,0c1.67,1,3.4,1.94,5.07,3a11.3,11.3,0,0,1,3,1.94c.53.12.71.63,1.05,1,2.12,2.1,4.21,4.23,6.34,6.31.87.85,1.67,1.76,2.57,2.57.27.24.52.58,1,.3.7-1.19,1.44-2.35,2.07-3.57a3.87,3.87,0,0,0-.14-3.88Z" transform="translate(486 -143)"/><path class="cls-22" d="M345.46,196.12q0-3.56,0-7.11c0-.22,0-.47-.18-.63v7a2.43,2.43,0,0,1-.14,1.1c.59.27.31-.25.31-.38Z" transform="translate(486 -143)"/><path class="cls-22" d="M330.71,196.46c-.3-.26-.26-.63-.26-1v-6a1.73,1.73,0,0,0-.14-.95c0,.65,0,1.3,0,1.95,0,1.85,0,3.71,0,5.57,0,.22-.17.73.42.42Z" transform="translate(486 -143)"/><path class="cls-22" d="M337.44,186.86a17,17,0,0,1,0-1.75c0-.73,0-.73-.67-.36.27.09.44.23.41.55-.07.95.29,2-.54,2.81a1,1,0,0,0,.81-1.25Z" transform="translate(486 -143)"/><path class="cls-22" d="M339,184.74c-.22-.05-.58-.59-.62,0a10.14,10.14,0,0,0,.05,2.91,6.32,6.32,0,0,0,.14-2.25c0-.34.06-.6.43-.69Z" transform="translate(486 -143)"/><path class="cls-22" d="M338.16,193.44v4.09a.79.79,0,0,0,.18.51c0-1.63,0-3.25,0-4.88-.14,0-.16.16-.16.28Z" transform="translate(486 -143)"/><path class="cls-22" d="M333.13,190.75a1.76,1.76,0,0,0-.15.46c0,1.3,0,2.61,0,3.91.2-.21.13-.48.13-.73,0-1.21,0-2.42,0-3.64Z" transform="translate(486 -143)"/><path class="cls-23" d="M343.33,212.74c-.15-.17-.29-.36-.46-.52q-6.45-6.48-12.89-13c-.22-.21-.63-.25-.64-.67.43-.3.76,0,1.09.2,2.11,1.22,4.25,2.42,6.35,3.67a1.91,1.91,0,0,0,2.2,0c2.24-1.34,4.51-2.62,6.77-3.92a1.83,1.83,0,0,0,1-1.81c0-2.61,0-5.22,0-7.83,0-.37-.11-.81.31-1.07.38-.06.43.31.61.49,2.49,2.41,4.87,4.94,7.41,7.32a21.47,21.47,0,0,0,2.67,2.55c-1.1,1.94-2.19,3.88-3.3,5.82-1.28,2.24-2.57,4.47-3.86,6.71a3.9,3.9,0,0,1-2.39,2,28.84,28.84,0,0,1-3.94.15,1.86,1.86,0,0,1-1-.15Z" transform="translate(486 -143)"/><path class="cls-24" d="M347.09,187.85c0,3.17,0,6.35,0,9.52a1.25,1.25,0,0,1-.69,1.2q-3.94,2.27-7.88,4.55a1.22,1.22,0,0,1-1.37,0q-3.45-2-6.91-4c-.3-.18-.61-.34-.92-.51a2.26,2.26,0,0,1-.69-.72c-.14-.12-.09-.3-.09-.45V188.3c0-.16-.06-.33.1-.46a2,2,0,0,1,.75-.71q3.88-2.24,7.75-4.48a1.26,1.26,0,0,1,1.44,0q3.87,2.25,7.76,4.48a1.81,1.81,0,0,1,.73.72Z" transform="translate(486 -143)"/><path class="cls-24" d="M328.66,187.84q0,5,0,10c-.26-.12-.16-.36-.16-.55,0-3,0-5.95,0-8.93,0-.19-.1-.43.17-.55Z" transform="translate(486 -143)"/><path class="cls-23" d="M333,195.12l-2.29,1.34c-.44,0-.33-.38-.33-.63,0-2.19,0-4.37,0-6.56a1.47,1.47,0,0,0-.06-.75,24.55,24.55,0,0,1,2.87-1.73c1.18-.7,2.38-1.36,3.58-2,.36-.09.57,0,.56.42a20.42,20.42,0,0,0,0,2.07c0,.53-.49.56-.69.87-.82.49-1.64,1-2.47,1.46-.33.2-.49.34,0,.59,1.14.63,2.27,1.29,3.4,2a.63.63,0,0,0,.71,0c1.13-.65,2.26-1.31,3.4-1.94.44-.25.32-.4,0-.6-1.07-.62-2.12-1.26-3.19-1.89,0-.84,0-1.67,0-2.51,0-.43.19-.51.56-.43q3.19,1.74,6.3,3.64a3,3,0,0,1,.07,1c0,2.11,0,4.23,0,6.34,0,.26.12.57-.21.75-.71-.4-1.41-.81-2.13-1.19a.75.75,0,0,1-.41-.74c0-1,0-2,0-3.08,0-.75,0-.77-.66-.42-1.22.69-2.43,1.4-3.64,2.09a2.86,2.86,0,0,0-.09,1.3c0,1,0,2,0,3,0,.19-.12.42.11.57,1.12-.64,2.24-1.27,3.34-1.92a.78.78,0,0,1,.95,0c.65.42,1.32.79,2,1.17.35.19.3.33,0,.51l-6.43,3.71a.49.49,0,0,1-.52,0l-7-4,2.71-1.57c.25-.15.44,0,.64.13l2.85,1.65c.38.23.53.17.52-.3,0-1.28,0-2.56,0-3.85a.6.6,0,0,0-.27-.6c-1.34-.75-2.63-1.59-4-2.25a7.36,7.36,0,0,0-.09,1.93c0,.81,0,1.63,0,2.44Z" transform="translate(486 -143)"/><polygon class="cls-25" points="739.19 44.13 740.91 44.13 740.91 49.22 745.89 44.13 748.17 44.13 742.71 49.74 748.51 56.22 746.3 56.22 740.91 50.17 740.91 56.22 739.19 56.22 739.19 44.13 739.19 44.13"/><polygon class="cls-26" points="739.19 44.13 740.91 44.13 740.91 49.22 745.89 44.13 748.17 44.13 742.71 49.74 748.51 56.22 746.3 56.22 740.91 50.17 740.91 56.22 739.19 56.22 739.19 44.13 739.19 44.13"/><polygon class="cls-27" points="744.27 59.4 744.27 29.8 761.85 29.8 761.85 59.4 744.27 59.4 744.27 59.4"/><polygon class="cls-27" points="724.46 29.69 761.85 29.69 761.85 71.86 724.46 71.86 724.46 29.69 724.46 29.69"/><path class="cls-27" d="M258.6,182.44l8.5,4.91a.46.46,0,0,1,.24.41v9.82a.46.46,0,0,0,.23.4l7.6,4.39a.47.47,0,0,0,.7-.41V182.83a.49.49,0,0,0-.23-.41l-16.57-9.56a.47.47,0,0,0-.71.4V182a.47.47,0,0,0,.24.41Z" transform="translate(486 -143)"/><path class="cls-26" d="M275.87,201.85a.47.47,0,0,1-.7.41l-7.6-4.39a.46.46,0,0,1-.23-.4v-9.82a.46.46,0,0,0-.24-.41l-8.5-4.91a.47.47,0,0,1-.24-.41v-8.77a.47.47,0,0,1,.71-.4l16.57,9.56a.49.49,0,0,1,.23.41Z" transform="translate(486 -143)"/><path class="cls-26" d="M259.07,172.75a.47.47,0,0,0-.71.4v8.77a.47.47,0,0,0,.24.41l8.5,4.91a.46.46,0,0,1,.24.41v9.82a.46.46,0,0,0,.23.4l7.6,4.39a.47.47,0,0,0,.7-.41V182.72a.49.49,0,0,0-.23-.41Z" transform="translate(486 -143)"/><polygon class="cls-27" points="724.46 71.75 724.46 29.7 760.29 29.7 760.29 71.75 724.46 71.75 724.46 71.75"/><polygon class="cls-27" points="724.46 29.58 761.85 29.58 761.85 71.75 724.46 71.75 724.46 29.58 724.46 29.58"/><path class="cls-25" d="M265.92,199.93l-8.51,4.91a.44.44,0,0,1-.47,0l-9.69-5.59a.47.47,0,0,1-.24-.41V187.65a.46.46,0,0,1,.24-.41l8.5-4.91a.47.47,0,0,0,.24-.41v-8.77a.46.46,0,0,0-.7-.4l-16.57,9.56a.47.47,0,0,0-.24.41v21a.46.46,0,0,0,.24.41l18.22,10.52a.44.44,0,0,0,.47,0L274,205.13a.48.48,0,0,0,0-.82l-7.59-4.38a.49.49,0,0,0-.47,0Z" transform="translate(486 -143)"/><path class="cls-25" d="M265.92,199.93l-8.51,4.91a.44.44,0,0,1-.47,0l-9.69-5.59a.47.47,0,0,1-.24-.41V187.65a.46.46,0,0,1,.24-.41l8.5-4.91a.47.47,0,0,0,.24-.41v-8.77a.46.46,0,0,0-.7-.4l-16.57,9.56a.47.47,0,0,0-.24.41v21a.46.46,0,0,0,.24.41l18.22,10.52a.44.44,0,0,0,.47,0L274,205.13a.48.48,0,0,0,0-.82l-7.59-4.38a.49.49,0,0,0-.47,0Z" transform="translate(486 -143)"/><text class="cls-28" transform="translate(563.99 129.35)">Deplo</text><text class="cls-28" transform="translate(606.56 129.35)">yment Auto</text><text class="cls-28" transform="translate(850 129.35)">Deplo</text><text class="cls-28" transform="translate(892.57 129.35)">yment Manuel</text><path class="cls-29" d="M70.75,182.76a2.52,2.52,0,0,0-1.43,1.78q-1.65,6.69-3.32,13.37a2.65,2.65,0,0,0,.56,2.5q4.35,5.37,8.61,10.79a2.55,2.55,0,0,0,2.22,1.08c2.28,0,4.57,0,6.85,0s4.44-.05,6.65,0a2.9,2.9,0,0,0,2.57-1.22q4.29-5.41,8.65-10.76a2.5,2.5,0,0,0,.53-2.31c-1.08-4.43-2.15-8.86-3.17-13.31a2.72,2.72,0,0,0-1.59-2q-6.15-3-12.26-6.08a2.67,2.67,0,0,0-2.65,0q-6.09,3.1-12.22,6.14ZM85,178.56q5.79,2.91,11.61,5.75a1.69,1.69,0,0,1,1,1.27c.95,4.17,2,8.33,3,12.49a1.29,1.29,0,0,1-.28,1.24q-4.22,5.19-8.38,10.43a1.3,1.3,0,0,1-1.15.52c-2.18,0-4.37,0-6.55,0s-4.29,0-6.43,0a1.4,1.4,0,0,1-1.23-.58q-4.08-5.17-8.22-10.3a1.49,1.49,0,0,1-.29-1.42q1.56-6.22,3.11-12.46a1.54,1.54,0,0,1,.9-1.14q5.81-2.87,11.58-5.81a1.3,1.3,0,0,1,1.33,0Z" transform="translate(486 -143)"/><path class="cls-30" d="M91.89,215.18c-5,0-10.1,0-15.16,0A1.61,1.61,0,0,0,75,216.3c-.3.7-.32.94.56.93,2.9,0,5.81,0,8.72,0s5.81,0,8.72,0c.26,0,.78.28.74-.36a1.85,1.85,0,0,0-1.82-1.66Z" transform="translate(486 -143)"/><path class="cls-31" d="M86.85,173.39l12.92,6.4c1.39.69,1.87.54,2.78-.88l-17.2-8.51c-.25,2.13-.25,2.13,1.5,3Z" transform="translate(486 -143)"/><path class="cls-32" d="M105.29,201.1q-5.17,6.42-10.35,12.84a.72.72,0,0,0-.1.92c.25.44.47.91.76,1.49,1.41-1.74,2.75-3.4,4.08-5.06q3.84-4.75,7.66-9.54c.15-.19.63-.36.29-.73a2.24,2.24,0,0,0-2.34.08Z" transform="translate(486 -143)"/><path class="cls-32" d="M63.84,201.76c-1.08-1.35-1.37-1.41-3.06-.58l12,15.1c1.13-1.82,1.13-1.82-.06-3.32l-8.92-11.2Z" transform="translate(486 -143)"/><path class="cls-31" d="M69.35,179.63c4.27-2.14,8.52-4.32,12.82-6.39a1.8,1.8,0,0,0,1.21-2.06c-.06-.57,0-.84-.73-.49-5.46,2.76-10.94,5.49-16.47,8.27,1.44,1.54,1.44,1.54,3.17.67Z" transform="translate(486 -143)"/><path class="cls-33" d="M102.54,183.49c1,4.46,2.18,8.91,3.12,13.4.31,1.49.93,2.24,2.44,2.25l.21-.06c-1.47-6.19-2.92-12.33-4.38-18.47-1.78,1-1.82,1.07-1.39,2.88Z" transform="translate(486 -143)"/><path class="cls-34" d="M62.63,198.08q1.89-7.74,3.85-15.45a.94.94,0,0,0-.38-1.16c-.39-.28-.74-.61-1.18-1-1.56,6.26-3.09,12.42-4.65,18.7.64-.15,1.1-.29,1.57-.35s.67-.29.79-.77Z" transform="translate(486 -143)"/><text class="cls-35" transform="translate(884.36 248.91)">Advanced deployment strategies </text><text class="cls-36" transform="translate(884.36 259.91)">with Blue Green and C</text><text class="cls-36" transform="translate(964.21 259.91)">anar</text><text class="cls-36" transform="translate(980.02 259.91)">y</text><text class="cls-37" transform="translate(775.31 248.91)">Choose t</text><text class="cls-37" transform="translate(808.23 248.91)">he best </text><text class="cls-38" transform="translate(775.31 259.91)">deployment strategies</text><text class="cls-39" transform="translate(858.65 259.91)"> </text><path class="cls-40" d="M259.26,396a3.34,3.34,0,0,1-2.17.81,3.44,3.44,0,0,1,0-6.87,3.3,3.3,0,0,1,2.17.82l-1,1a1.91,1.91,0,0,0-2.54.18,2,2,0,0,0-.57,1.42,2,2,0,0,0,.57,1.4,1.9,1.9,0,0,0,2.54.19l1,1Z" transform="translate(486 -143)"/><polygon class="cls-40" points="751.74 247.03 751.74 253.71 747.42 250.45 747.42 253.71 745.86 253.71 745.86 247.03 750.18 250.44 750.18 247.03 751.74 247.03 751.74 247.03"/><path class="cls-40" d="M272.84,393.37a3.36,3.36,0,1,1-3.36-3.44,3.4,3.4,0,0,1,3.36,3.44Zm-1.4,0a2,2,0,0,0-.57-1.41,2,2,0,0,0-1.39-.59,1.92,1.92,0,0,0-1.38.59,2,2,0,0,0,0,2.83,2,2,0,0,0,1.38.59,2,2,0,0,0,2-2Z" transform="translate(486 -143)"/><path class="cls-40" d="M243.58,391.21a2.17,2.17,0,1,0,2.17,2.16,2.16,2.16,0,0,0-2.17-2.16Zm0,4a1.83,1.83,0,1,1,1.83-1.83,1.83,1.83,0,0,1-1.83,1.83Z" transform="translate(486 -143)"/><path class="cls-40" d="M244.15,393.87a.77.77,0,0,1-.51.2.64.64,0,0,1-.7-.69.7.7,0,0,1,.19-.51.69.69,0,0,1,.51-.19.71.71,0,0,1,.49.19l0,0,.31-.3,0,0a1.12,1.12,0,0,0-.8-.34,1.15,1.15,0,0,0-.84.32,1.21,1.21,0,0,0-.32.83,1.08,1.08,0,0,0,1.16,1.13,1.14,1.14,0,0,0,.82-.32l0,0-.32-.31,0,0Z" transform="translate(486 -143)"/><path class="cls-40" d="M243.58,397.75l-.07,0c-.14-.07-3.42-1.76-3.42-3.53V390.4l3.47-1.4,3.51,1.4v3.78c0,1.77-3.27,3.46-3.41,3.53l-.08,0Zm-3.16-7.12v3.55c0,.63.56,1.39,1.6,2.19a11.5,11.5,0,0,0,1.56,1c.49-.26,3.16-1.76,3.16-3.19v-3.55l-3.18-1.27-3.14,1.27Z" transform="translate(486 -143)"/><line class="cls-41" x1="870.5" y1="240.83" x2="870.5" y2="259.92"/><path class="cls-42" d="M-236.83,263.17a18.83,18.83,0,0,1,11.55,3.95l9.87-10a32.36,32.36,0,0,0-21.42-8.1c-18.16,0-33,15.18-33,33.91s14.8,33.82,33,33.82a32.79,32.79,0,0,0,21.42-8l-9.87-10.12a18.79,18.79,0,0,1-25.07-1.82A19.66,19.66,0,0,1-256,282.91a19.86,19.86,0,0,1,5.62-14,18.67,18.67,0,0,1,13.52-5.77Z" transform="translate(486 -143)"/><polygon class="cls-42" points="319.06 140.57 276.52 106.96 276.52 172.77 291.92 172.77 291.92 140.67 334.46 172.77 334.46 106.96 319.06 106.96 319.06 140.57 319.06 140.57"/><path class="cls-2" d="M-114.63,248.94c-18.26,0-33.06,15.19-33.06,33.92s14.8,33.92,33.06,33.92,33.07-15.19,33.07-33.92-14.81-33.92-33.07-33.92Zm13.62,47.9a19,19,0,0,1-26.81.43l-.43-.43a20.17,20.17,0,0,1,0-27.95,19,19,0,0,1,26.81-.43l.43.43a20.17,20.17,0,0,1,0,27.95Z" transform="translate(486 -143)"/><path class="cls-43" d="M-66,253.15a2,2,0,0,0,1.34-1.9,1.8,1.8,0,0,0-.86-1.58,4.13,4.13,0,0,0-2.33-.58,13.91,13.91,0,0,0-2.23.21v7.53H-69V253.5h1.38c1.12,0,1.83,1.11,2.14,3.33h1.09a10.87,10.87,0,0,0-.63-2.51,2.63,2.63,0,0,0-1-1.17Zm-1.66-.48H-69V250a10.86,10.86,0,0,1,1.14,0c1.43,0,2.14.44,2.14,1.33s-.65,1.35-2,1.35Z" transform="translate(486 -143)"/><path class="cls-42" d="M-62.72,248.08a6.92,6.92,0,0,0-9.78,0,6.92,6.92,0,0,0,0,9.78,6.92,6.92,0,0,0,9.78,0,6.88,6.88,0,0,0,2-4.89,6.92,6.92,0,0,0-2-4.89Zm-4.89,10.67A5.78,5.78,0,0,1-73.39,253a5.77,5.77,0,0,1,5.78-5.77A5.77,5.77,0,0,1-61.83,253h0a5.78,5.78,0,0,1-5.78,5.78Z" transform="translate(486 -143)"/><path class="cls-1" d="M-472.51,158.32v-4.49c0-2.88,4.67-7.56,10.44-7.56.34,0,.67,0,.83,0a10,10,0,0,0-1.59-1.37c-2-2-6.6-1.6-10.35.81-3.53,1.89-5.54,6.93-4.49,11.25s4.72,7.51,6.94,7.72c1.22.12,1.65-.23,1-.78a9.56,9.56,0,0,1-2.73-5.62Z" transform="translate(486 -143)"/><path class="cls-1" d="M-472.51,270.38V265.9c0-2.89,4.67-7.56,10.44-7.56.34,0,.67,0,.83,0a11,11,0,0,0-1.59-1.36c-2-2-6.6-1.6-10.35.81-3.53,1.88-5.54,6.92-4.49,11.24s4.72,7.51,6.94,7.73c1.22.11,1.65-.24,1-.78a9.56,9.56,0,0,1-2.73-5.63Z" transform="translate(486 -143)"/><path class="cls-1" d="M-472.51,382v-4.49c0-2.88,4.67-7.56,10.44-7.56.34,0,.67,0,.83,0a11,11,0,0,0-1.59-1.36c-2-2-6.6-1.6-10.35.81-3.53,1.89-5.54,6.93-4.49,11.25s4.72,7.51,6.94,7.72c1.22.12,1.65-.23,1-.78a9.56,9.56,0,0,1-2.73-5.62Z" transform="translate(486 -143)"/><path class="cls-1" d="M-462.08,171.94a17.06,17.06,0,0,1,3.07.26c.33.07,0-.26-.77-.72-1.06-1-4.53-1.74-7.76-1.72-9.61,0-17.39,7.69-17.37,18.14h2.78c1.54,0,3-2.09,3.28-4.66.34-6.21,7.84-11.27,16.77-11.29Z" transform="translate(486 -143)"/><path class="cls-1" d="M-462.08,284a17.06,17.06,0,0,1,3.07.26c.33.07,0-.25-.77-.72-1.06-1-4.53-1.73-7.76-1.72-9.61,0-17.39,7.69-17.37,18.14h2.78c1.54,0,3-2.09,3.28-4.66.34-6.21,7.84-11.26,16.77-11.29Z" transform="translate(486 -143)"/><path class="cls-1" d="M-462.08,395.59a18.24,18.24,0,0,1,3.07.25c.33.07,0-.25-.77-.71-1.06-1-4.53-1.74-7.76-1.72-9.61,0-17.39,7.69-17.37,18.13h2.78c1.54,0,3-2.09,3.28-4.66.34-6.21,7.84-11.27,16.77-11.29Z" transform="translate(486 -143)"/><path class="cls-1" d="M-455,185.22c0-.58,0-1.94,0-3-.37-2.28,2.18-5.67,5.68-7.58s7.77-1.76,9.45-.68c.93.59,1.18.3.56-.66-1-2.23-5.14-3.66-9.25-3.2-3.57,0-7.62,3.19-9.05,7.08-1.57,3.21-.53,8.25,2.31,11.26a10.88,10.88,0,0,0,1.66,1.44c.2.13.12-.16-.2-.64a9.76,9.76,0,0,1-1.17-4Z" transform="translate(486 -143)"/><path class="cls-1" d="M-455,297.28c0-.57,0-1.94,0-3-.37-2.27,2.18-5.67,5.68-7.58s7.77-1.76,9.45-.68c.93.6,1.18.3.56-.66-1-2.22-5.14-3.66-9.25-3.2-3.57,0-7.62,3.2-9.05,7.08-1.57,3.21-.53,8.25,2.31,11.26a10.34,10.34,0,0,0,1.66,1.44c.2.13.12-.15-.2-.64a9.76,9.76,0,0,1-1.17-4Z" transform="translate(486 -143)"/><path class="cls-1" d="M-455,408.87c0-.58,0-1.94,0-3-.37-2.28,2.18-5.67,5.68-7.59s7.77-1.76,9.45-.68c.93.6,1.18.31.56-.66-1-2.22-5.14-3.65-9.25-3.2-3.57,0-7.62,3.2-9.05,7.09-1.57,3.21-.53,8.25,2.31,11.26a10.88,10.88,0,0,0,1.66,1.44c.2.13.12-.16-.2-.64a9.76,9.76,0,0,1-1.17-4Z" transform="translate(486 -143)"/><path class="cls-42" d="M-467.52,166.07A11.53,11.53,0,0,0-456,154.53,11.53,11.53,0,0,0-467.52,143a11.54,11.54,0,0,0-11.54,11.53,11.56,11.56,0,0,0,11.54,11.54Zm0-20.89a9.35,9.35,0,0,1,9.35,9.35,9.36,9.36,0,0,1-9.35,9.36,9.36,9.36,0,0,1-9.36-9.36,9.37,9.37,0,0,1,9.36-9.35Z" transform="translate(486 -143)"/><path class="cls-42" d="M-467.52,278.13A11.53,11.53,0,0,0-456,266.6a11.54,11.54,0,0,0-11.53-11.54,11.54,11.54,0,0,0-11.54,11.54,11.54,11.54,0,0,0,11.54,11.53Zm0-20.88a9.35,9.35,0,0,1,9.35,9.35,9.35,9.35,0,0,1-9.35,9.35,9.36,9.36,0,0,1-9.36-9.35,9.36,9.36,0,0,1,9.36-9.35Z" transform="translate(486 -143)"/><path class="cls-42" d="M-467.52,389.72A11.54,11.54,0,0,0-456,378.18a11.53,11.53,0,0,0-11.53-11.53,11.54,11.54,0,0,0-11.54,11.53,11.56,11.56,0,0,0,11.54,11.54Zm0-20.89a9.35,9.35,0,0,1,9.35,9.35,9.36,9.36,0,0,1-9.35,9.36,9.36,9.36,0,0,1-9.36-9.36,9.37,9.37,0,0,1,9.36-9.35Z" transform="translate(486 -143)"/><path class="cls-42" d="M-467.54,170.85h0a16,16,0,0,1,11.17,4.46l1.52-1.57a18.22,18.22,0,0,0-12.69-5.07h0a18.1,18.1,0,0,0-13.07,5.49A19.37,19.37,0,0,0-486,187.9a1.14,1.14,0,0,0,.32.77,1.06,1.06,0,0,0,.77.32l29.14-.06v-2.18l-28,.05A17,17,0,0,1-479,175.68a16,16,0,0,1,11.51-4.83Z" transform="translate(486 -143)"/><path class="cls-42" d="M-467.54,282.91h0a16,16,0,0,1,11.17,4.47l1.52-1.58a18.22,18.22,0,0,0-12.69-5.07h0a18.1,18.1,0,0,0-13.07,5.49A19.41,19.41,0,0,0-486,300a1.1,1.1,0,0,0,.32.77,1.06,1.06,0,0,0,.77.32l29.14-.05v-2.19l-28,.06A17,17,0,0,1-479,287.75a16,16,0,0,1,11.51-4.84Z" transform="translate(486 -143)"/><path class="cls-42" d="M-467.54,394.5h0A16,16,0,0,1-456.33,399l1.52-1.57a18.14,18.14,0,0,0-12.69-5.07h0a18.13,18.13,0,0,0-13.07,5.48A19.41,19.41,0,0,0-486,411.54a1.14,1.14,0,0,0,.32.78,1,1,0,0,0,.77.31l29.14-.05V410.4l-28,.05A17,17,0,0,1-479,399.33a16,16,0,0,1,11.51-4.83Z" transform="translate(486 -143)"/><path class="cls-2" d="M-443.66,177.57l-5.27,4.29-1.93-2.26a1.09,1.09,0,0,0-1.54-.12,1.09,1.09,0,0,0-.12,1.54l2.62,3.07a1.1,1.1,0,0,0,.83.38,1.09,1.09,0,0,0,.69-.24l6.1-5a1.1,1.1,0,0,0,.39-.73,1.13,1.13,0,0,0-.24-.81,1.1,1.1,0,0,0-.73-.39,1.09,1.09,0,0,0-.8.24Z" transform="translate(486 -143)"/><path class="cls-2" d="M-443.66,289.63l-5.27,4.29-1.93-2.26a1.1,1.1,0,0,0-1.54-.12,1.09,1.09,0,0,0-.12,1.54l2.62,3.07a1.1,1.1,0,0,0,.83.38,1.09,1.09,0,0,0,.69-.24l6.1-5a1.13,1.13,0,0,0,.39-.74,1.09,1.09,0,0,0-.24-.8,1.08,1.08,0,0,0-.73-.4,1.09,1.09,0,0,0-.8.24Z" transform="translate(486 -143)"/><path class="cls-2" d="M-443.66,401.22l-5.27,4.29-1.93-2.26a1.09,1.09,0,0,0-1.54-.12,1.09,1.09,0,0,0-.12,1.54l2.62,3.07a1.1,1.1,0,0,0,.83.38,1.15,1.15,0,0,0,.69-.24l6.1-5a1.1,1.1,0,0,0,.39-.74,1.12,1.12,0,0,0-.24-.8,1.1,1.1,0,0,0-.73-.39,1.09,1.09,0,0,0-.8.24Z" transform="translate(486 -143)"/><path class="cls-2" d="M-447.34,168.9a12,12,0,0,0-12,12,12,12,0,0,0,12,12,12,12,0,0,0,12-12,11.92,11.92,0,0,0-3.5-8.51,11.94,11.94,0,0,0-8.51-3.49Zm0,21.82a9.82,9.82,0,0,1-9.82-9.82,9.82,9.82,0,0,1,9.82-9.82,9.83,9.83,0,0,1,9.83,9.82,9.83,9.83,0,0,1-9.83,9.82Z" transform="translate(486 -143)"/><path class="cls-2" d="M-447.34,281a12,12,0,0,0-12,12,12,12,0,0,0,12,12,12,12,0,0,0,12-12,11.88,11.88,0,0,0-3.5-8.5,11.91,11.91,0,0,0-8.51-3.5Zm0,21.82a9.82,9.82,0,0,1-9.82-9.82,9.82,9.82,0,0,1,9.82-9.82,9.83,9.83,0,0,1,9.83,9.82,9.82,9.82,0,0,1-9.83,9.82Z" transform="translate(486 -143)"/><path class="cls-2" d="M-447.34,392.54a12,12,0,0,0-12,12,12,12,0,0,0,12,12,12,12,0,0,0,12-12,11.92,11.92,0,0,0-3.5-8.51,12,12,0,0,0-8.51-3.5Zm0,21.83a9.82,9.82,0,0,1-9.82-9.82,9.82,9.82,0,0,1,9.82-9.82,9.82,9.82,0,0,1,9.83,9.82,9.83,9.83,0,0,1-9.83,9.82Z" transform="translate(486 -143)"/></svg>