<svg xmlns="http://www.w3.org/2000/svg" width="960.001" height="984.805" viewBox="0 0 960.001 984.805"><defs><style>.a{fill:#2e54d4;}</style></defs><g transform="translate(-893.458 -539.455)"><path class="a" d="M2068.011,991.24c-105.733,109.211-279.978,112.031-389.189,6.3q-3.2-3.1-6.3-6.3c-108.9-113.307-108.9-292.39,0-405.7C1778.3,476.33,1952.588,473.549,2061.8,579.328q3.154,3.058,6.213,6.215c108.9,113.307,108.9,292.39,0,405.7M1870.2,295.991c-265.088,0-479.986,220.469-479.986,492.4s214.9,492.4,479.986,492.4,480.015-220.47,480.015-492.4-214.933-492.4-480.015-492.4" transform="translate(-496.755 243.468)"/></g></svg>