<svg xmlns="http://www.w3.org/2000/svg" width="137.165" height="68.242" viewBox="0 0 137.165 68.242"><defs><style>.a{fill:#061146;}.b{fill:#2e54d4;}.c{isolation:isolate;}</style></defs><g transform="translate(-140 -42.758)"><g transform="translate(-59.933 -334.23)"><path class="a" d="M222.818,386.862a13.051,13.051,0,0,1,8.017,2.741l6.852-6.958a22.5,22.5,0,0,0-14.869-5.623c-12.609,0-22.885,10.543-22.885,23.547,0,12.932,10.277,23.476,22.885,23.476a22.809,22.809,0,0,0,14.869-5.553l-6.852-7.029a13.04,13.04,0,0,1-17.4-1.266,13.622,13.622,0,0,1-3.906-9.628,13.789,13.789,0,0,1,3.906-9.7,12.941,12.941,0,0,1,9.387-4.007"/><path class="a" d="M271.332,401.025,241.8,377.69v45.687H252.49V401.1l29.532,22.281V377.69H271.331Z"/><path class="b" d="M317.1,410.235a13.162,13.162,0,0,1-18.611.3q-.153-.148-.3-.3a14,14,0,0,1,0-19.4,13.164,13.164,0,0,1,18.615-.3q.151.145.3.3a14,14,0,0,1,0,19.4m-9.459-33.247c-12.676,0-22.953,10.543-22.953,23.547s10.277,23.547,22.953,23.547S330.6,413.539,330.6,400.535s-10.278-23.547-22.955-23.547"/><path class="b" d="M334.589,379.362h-.478v-.948c.108-.011.245-.016.41-.016q.768,0,.769.479t-.7.485m.6.173a.707.707,0,0,0,.484-.682.645.645,0,0,0-.31-.565,1.476,1.476,0,0,0-.838-.208,4.882,4.882,0,0,0-.8.075v2.7h.391v-1.2h.5q.6,0,.769,1.2h.391a3.771,3.771,0,0,0-.226-.9.945.945,0,0,0-.356-.422"/><path class="b" d="M334.614,381.546a2.075,2.075,0,1,1,2.075-2.075h0a2.075,2.075,0,0,1-2.075,2.074m1.756-3.83a2.484,2.484,0,1,0,.728,1.756,2.483,2.483,0,0,0-.728-1.756"/></g><g class="c" transform="translate(-59.933 -342.133)"><g class="c" transform="translate(201.883 439.59)"><path class="a" d="M205.352,453.192a20.538,20.538,0,0,1-2.885-.159c-.408-.053-.584-.212-.584-.654V440.586a.576.576,0,0,1,.567-.655,26.316,26.316,0,0,1,2.814-.141c2.815,0,5.187.744,5.187,3.416v.284a2.836,2.836,0,0,1-1.894,2.78,2.906,2.906,0,0,1,1.966,2.867v.3C210.523,452.413,208.115,453.192,205.352,453.192Zm3.488-9.985c0-1.7-1.416-2.054-3.576-2.054-.6,0-1.257.036-1.752.053v4.39h2.726c2.053,0,2.6-.991,2.6-2.106Zm.071,5.931c0-1.168-.584-2.248-2.673-2.248h-2.726v4.868c.584.018,1.222.07,1.841.07,2.2,0,3.559-.478,3.559-2.39Z" transform="translate(-201.883 -439.648)"/><path class="a" d="M224.322,450.1h-5.931v.249c0,2.107.832,2.885,2.461,2.885a24.242,24.242,0,0,0,3.151-.194h.089a.25.25,0,0,1,.283.247v.6c0,.23-.071.354-.354.407a15.989,15.989,0,0,1-3.169.3c-2.036,0-4.018-.956-4.018-4.249v-1.594c0-2.532,1.4-4.143,3.93-4.143,2.585,0,3.9,1.629,3.9,4.143v.956C224.658,449.942,224.534,450.1,224.322,450.1Zm-1.239-1.345c0-2-.761-2.78-2.32-2.78-1.522,0-2.372.868-2.372,2.78v.16h4.692Z" transform="translate(-206.243 -441.055)"/><path class="a" d="M234.919,453.643a8.6,8.6,0,0,1-1.15.089c-1.628,0-2.408-.425-2.408-2.372V445.18l-1.718-.195c-.195-.018-.336-.124-.336-.319v-.478a.311.311,0,0,1,.336-.319h1.718v-1.735a.361.361,0,0,1,.319-.354l.921-.141h.052a.281.281,0,0,1,.266.3v1.93h1.912a.356.356,0,0,1,.354.354v.6a.355.355,0,0,1-.354.353h-1.912v6.179c0,.973.248,1.116.956,1.116h.992c.247,0,.371.07.371.247v.62C235.238,453.5,235.15,453.607,234.919,453.643Z" transform="translate(-209.882 -440.188)"/><path class="a" d="M246.538,454.474h-.815a.355.355,0,0,1-.354-.354v-.39a5.383,5.383,0,0,1-2.726.868,2.581,2.581,0,0,1-2.886-2.868v-.213c0-1.912,1.116-2.867,4.267-2.867h1.31v-.708c0-1.487-.513-2-1.894-2a25.791,25.791,0,0,0-2.709.142h-.089c-.159,0-.319-.053-.319-.283v-.62c0-.194.124-.3.372-.336a15.311,15.311,0,0,1,2.744-.23c2.461,0,3.452,1.24,3.452,3.329v6.178A.355.355,0,0,1,246.538,454.474Zm-1.2-4.709h-1.31c-2.143,0-2.709.478-2.709,1.735v.213c0,1.275.6,1.611,1.628,1.611a4.867,4.867,0,0,0,2.39-.708Z" transform="translate(-212.929 -441.055)"/><path class="a" d="M267.167,445.214l-2.39,8.426a1.419,1.419,0,0,1-1.594,1.009c-.761,0-1.364-.212-1.593-1.009l-2.39-8.426a.335.335,0,0,1-.018-.124.275.275,0,0,1,.283-.3h.974c.142,0,.266.106.336.337l2.036,7.719c.106.425.195.514.372.514.159,0,.266-.089.372-.514l2.036-7.719c.071-.231.195-.337.336-.337h.974a.275.275,0,0,1,.283.3A.361.361,0,0,1,267.167,445.214Z" transform="translate(-218.595 -441.106)"/><path class="a" d="M279.946,450.1h-5.931v.249c0,2.107.832,2.885,2.461,2.885a24.249,24.249,0,0,0,3.151-.194h.089a.25.25,0,0,1,.283.247v.6c0,.23-.071.354-.353.407a16,16,0,0,1-3.169.3c-2.036,0-4.019-.956-4.019-4.249v-1.594c0-2.532,1.4-4.143,3.931-4.143,2.585,0,3.894,1.629,3.894,4.143v.956C280.282,449.942,280.159,450.1,279.946,450.1Zm-1.24-1.345c0-2-.761-2.78-2.319-2.78-1.523,0-2.372.868-2.372,2.78v.16h4.691Z" transform="translate(-222.467 -441.055)"/><path class="a" d="M290.758,445.959a4.532,4.532,0,0,0-2.443.744v7.418a.367.367,0,0,1-.354.354h-.868a.352.352,0,0,1-.336-.354v-9.029a.341.341,0,0,1,.336-.354h.832a.341.341,0,0,1,.336.354v.372a4.23,4.23,0,0,1,2.5-.85c.248,0,.372.107.372.319v.726C291.13,445.853,291.006,445.959,290.758,445.959Z" transform="translate(-226.638 -441.055)"/><path class="a" d="M298.276,454.6a13.727,13.727,0,0,1-2.8-.266c-.23-.053-.372-.159-.372-.354v-.619a.286.286,0,0,1,.319-.266h.071c.85.106,2.142.194,2.779.194,1.151,0,1.753-.3,1.753-1.257,0-.531-.319-.868-1.328-1.469l-1.788-1.063a3.017,3.017,0,0,1-1.806-2.532c0-1.842,1.381-2.355,3.2-2.355a16.584,16.584,0,0,1,2.762.23c.23.035.336.159.336.354v.584a.271.271,0,0,1-.3.3h-.053c-.619-.053-1.752-.142-2.744-.142s-1.646.124-1.646,1.027c0,.531.407.867,1.221,1.345l1.753,1.045c1.469.868,1.947,1.629,1.947,2.673C301.587,453.838,300.259,454.6,298.276,454.6Z" transform="translate(-229.073 -441.055)"/><path class="a" d="M308.964,441.714h-.9a.355.355,0,0,1-.354-.354v-1.416a.355.355,0,0,1,.354-.354h.9a.354.354,0,0,1,.354.354v1.416A.355.355,0,0,1,308.964,441.714Zm-.035,11.3h-.85a.355.355,0,0,1-.354-.354v-9.029a.356.356,0,0,1,.354-.354h.85a.356.356,0,0,1,.354.354v9.029A.355.355,0,0,1,308.929,453.009Z" transform="translate(-232.748 -439.59)"/><path class="a" d="M317.362,454.6c-2.6,0-3.93-1.717-3.93-4.32v-1.345c0-2.6,1.328-4.32,3.93-4.32s3.949,1.718,3.949,4.32v1.345C321.311,452.881,319.965,454.6,317.362,454.6Zm2.39-5.665c0-1.806-.725-2.957-2.39-2.957-1.646,0-2.372,1.133-2.372,2.957v1.345c0,1.806.708,2.957,2.372,2.957,1.647,0,2.39-1.133,2.39-2.957Z" transform="translate(-234.418 -441.055)"/><path class="a" d="M334.856,454.474h-.849a.355.355,0,0,1-.354-.354V448.3c0-1.789-.6-2.338-1.947-2.338a5.608,5.608,0,0,0-2.391.691v7.471a.367.367,0,0,1-.353.354h-.868a.351.351,0,0,1-.336-.354v-9.029a.341.341,0,0,1,.336-.354h.885a.34.34,0,0,1,.336.354v.337a5.33,5.33,0,0,1,2.816-.815c2.124,0,3.08,1.328,3.08,3.683v5.824A.354.354,0,0,1,334.856,454.474Z" transform="translate(-238.596 -441.055)"/><path class="a" d="M348.76,453.119a.327.327,0,0,1-.354-.319v-.779a.314.314,0,0,1,.354-.3h2.816V441.629L348.8,442.8c-.141.053-.39.106-.39-.142v-.9c0-.124.053-.159.177-.23l3.17-1.452a.858.858,0,0,1,.371-.106h.726a.336.336,0,0,1,.336.336v11.42h2.833a.313.313,0,0,1,.354.3v.779a.327.327,0,0,1-.354.319Z" transform="translate(-244.619 -439.699)"/><path class="a" d="M364.817,457.548h-.85a.352.352,0,0,1-.336-.354v-1.647a.336.336,0,0,1,.336-.336h.85a.336.336,0,0,1,.336.336v1.647A.34.34,0,0,1,364.817,457.548Z" transform="translate(-249.059 -444.146)"/><path class="a" d="M373.412,453.192c-2.673,0-4.355-1.593-4.355-5.505V445.3c0-3.913,1.682-5.506,4.355-5.506s4.337,1.593,4.337,5.506v2.391C377.749,451.6,376.085,453.192,373.412,453.192Zm2.726-7.9c0-2.992-1.062-4.143-2.726-4.143s-2.727,1.151-2.727,4.143v2.391c0,2.991,1.063,4.142,2.727,4.142s2.726-1.15,2.726-4.142Z" transform="translate(-250.642 -439.648)"/></g></g></g></svg>