<svg xmlns="http://www.w3.org/2000/svg" width="703.225" height="687.384" viewBox="0 0 703.225 687.384"><defs><style>.a{fill:#0a1855;opacity:0.082;}</style></defs><path class="a" d="M624.308,61.276a21.15,21.15,0,0,0-19.645,22.2v5.632a166.282,166.282,0,0,0,2.75,18.988,186.677,186.677,0,0,1,1.965,36.277,21.805,21.805,0,0,1-6.549,10.345l-.458,8.512a260.069,260.069,0,0,0-36.079,5.568,256.874,256.874,0,0,0-130.57,74.516l-7.2-5.107a15.787,15.787,0,0,1-11.852-1.18,186.4,186.4,0,0,1-26.913-24.294,166.2,166.2,0,0,0-13.1-13.946l-4.453-3.536a23.746,23.746,0,0,0-13.884-5.238,19.239,19.239,0,0,0-15.911,7.072,21.148,21.148,0,0,0,4.911,29.465l4.126,3.273a166.151,166.151,0,0,0,16.565,9.691,186.474,186.474,0,0,1,29.926,20.693,22.182,22.182,0,0,1,3.994,11.525l6.549,5.7a258.376,258.376,0,0,0-40.73,180.205l-8.383,2.421a27.7,27.7,0,0,1-8.576,8.643,186.546,186.546,0,0,1-35.819,5.895,166.24,166.24,0,0,0-19.187,1.507l-5.238,1.308H289.9a20.037,20.037,0,1,0,8.9,38.9h.394l5.434-.654A167.1,167.1,0,0,0,322.57,509.1a186.768,186.768,0,0,1,34.837-10.214,22.069,22.069,0,0,1,11.458,4.059l8.71-1.507A259.891,259.891,0,0,0,492.757,645.5l-3.667,7.662a19.635,19.635,0,0,1,1.767,11.262,195.131,195.131,0,0,1-18.072,32.741,166.448,166.448,0,0,0-10.739,15.978l-2.619,5.37A20.036,20.036,0,1,0,495.5,735.6l2.49-5.11a166.91,166.91,0,0,0,5.761-18.334c5.238-13.1,8.185-27.173,15.455-35.883a16.156,16.156,0,0,1,8.576-4.19l4.584-8.185a258.461,258.461,0,0,0,184.329.459l3.93,7.659a15.783,15.783,0,0,1,10.214,6.155,186.146,186.146,0,0,1,13.685,33.593,167.785,167.785,0,0,0,5.828,18.334l2.488,5.107a20.037,20.037,0,1,0,36.081-17.09l-2.619-5.37a166.39,166.39,0,0,0-10.739-15.911,186.691,186.691,0,0,1-17.68-31.693,15.66,15.66,0,0,1,2.029-11.983,69.021,69.021,0,0,1-3.338-8.056A259.909,259.909,0,0,0,871.3,500.522l8.512,1.507a15.781,15.781,0,0,1,11.2-4.126,186.558,186.558,0,0,1,34.835,10.217,167.086,167.086,0,0,0,17.943,6.941c1.44.391,3.536.654,5.239,1.113h.391a20.034,20.034,0,1,0,8.841-38.9l-5.892-1.308a167.4,167.4,0,0,0-19.187-1.507,186.531,186.531,0,0,1-35.818-5.893,22.4,22.4,0,0,1-8.643-8.646l-8.056-2.356a259.432,259.432,0,0,0-41.58-179.747l7.072-6.547a15.8,15.8,0,0,1,3.732-11.329,186.475,186.475,0,0,1,29.73-20.889,166.639,166.639,0,0,0,16.565-9.691l4.388-3.536a20.1,20.1,0,1,0-24.884-31.234l-4.453,3.536a167,167,0,0,0-13.1,13.948,187.212,187.212,0,0,1-26.192,24.688,22.271,22.271,0,0,1-12.115,1.308l-7.595,5.434a261.928,261.928,0,0,0-166-80.082c0-2.619-.392-7.466-.458-8.906a15.784,15.784,0,0,1-6.547-9.954,186.667,186.667,0,0,1,2.292-36.21,166.9,166.9,0,0,0,2.751-18.991v-5.7a21.15,21.15,0,0,0-19.645-22.2ZM599.293,216.2,593.4,320.973h-.458a17.617,17.617,0,0,1-27.961,13.49l-85.91-60.9a205.725,205.725,0,0,1,99.073-53.957,210.024,210.024,0,0,1,21.216-3.4Zm50.027,0a207.433,207.433,0,0,1,119.635,57.689L683.83,334.4a17.612,17.612,0,0,1-28.615-13.487ZM447.77,313.051l78.578,70.064v.458a17.617,17.617,0,0,1-6.941,30.253v.327L418.565,443.16a205.668,205.668,0,0,1,29.2-130.176Zm352.486,0a209.535,209.535,0,0,1,30.055,129.782L729.34,413.76v-.391a17.616,17.616,0,0,1-6.943-30.253l77.924-69.8ZM608.2,388.681h32.087l19.643,24.883-7.2,31.17-28.814,13.881-28.942-13.881L588.162,413.5Zm103,85.127a17.375,17.375,0,0,1,4.059,0l103.984,17.549a205.927,205.927,0,0,1-83.226,104.769l-40.2-97.437a17.679,17.679,0,0,1,15.257-24.554Zm-174.64.458a17.616,17.616,0,0,1,15.913,24.554v.394L512.466,595.6A206.8,206.8,0,0,1,429.827,492.01l103.067-17.549a17.665,17.665,0,0,1,3.472,0Zm87.092,42.3A17.743,17.743,0,0,1,639.76,525.8h.394l50.812,91.674a210.726,210.726,0,0,1-20.3,5.7,206.537,206.537,0,0,1-112.692-5.828l50.681-91.674a17.616,17.616,0,0,1,15-8.841Z" transform="translate(-272.499 -61.276)"/></svg>