<svg viewBox="0 0 21.005 14.879"><path class="a" d="M20.248 13.192H5.665a.259.259 0 01-.259-.26.259.259 0 01.259-.259h14.583a.26.26 0 01.259.259.259.259 0 01-.259.26zm0-5.356H5.665a.259.259 0 01-.259-.26.26.26 0 01.259-.259h14.583a.26.26 0 01.259.259.26.26 0 01-.259.26zm0-5.366H5.665a.259.259 0 01-.259-.259.259.259 0 01.259-.259h14.583a.26.26 0 01.259.259.259.259 0 01-.259.259zM1.969 14.379A1.47 1.47 0 01.5 12.91a1.47 1.47 0 011.469-1.469 1.47 1.47 0 011.469 1.469 1.47 1.47 0 01-1.469 1.469zm0-2.418a.951.951 0 00-.95.95.951.951 0 00.95.95.951.951 0 00.95-.95.951.951 0 00-.95-.95zm0-2.84A1.47 1.47 0 01.5 7.652a1.47 1.47 0 011.469-1.469 1.47 1.47 0 011.469 1.469 1.47 1.47 0 01-1.469 1.469zm0-2.418a.951.951 0 00-.95.95.951.951 0 00.95.95.951.951 0 00.95-.95.951.951 0 00-.95-.952zm0-3.266A1.47 1.47 0 01.5 1.968 1.47 1.47 0 011.969.499a1.47 1.47 0 011.469 1.469 1.47 1.47 0 01-1.469 1.469zm0-2.418a.951.951 0 00-.95.95.951.951 0 00.95.95.951.951 0 00.95-.95.951.951 0 00-.95-.95z"/></svg>