<svg id="Calque_1" data-name="Calque 1" xmlns="http://www.w3.org/2000/svg" viewBox="0 0 752.5 450.01"><defs><style>.cls-1{fill:none;}.cls-2{fill:#262e3d;}.cls-3{fill:#f90;}</style></defs><path class="cls-1" d="M148.21,302a57.65,57.65,0,0,0-37.31,10,35.74,35.74,0,0,0,23.29,64.55h0A81.69,81.69,0,0,0,160,372.06a56,56,0,0,0,23.79-16,39.8,39.8,0,0,0,8.49-16,90.2,90.2,0,0,0,2.51-21.77V307.75a211.53,211.53,0,0,0-23-4.25A190.52,190.52,0,0,0,148.21,302Z" transform="translate(-23.75 -174.99)"/><path class="cls-2" d="M246.57,378.84a127.34,127.34,0,0,1-8-18,75,75,0,0,1-2.77-22.26l-.51-.12v-81c0-27.54-7-48.06-20.78-61.57-14-13.51-35.75-20.29-65.55-20.29a151.64,151.64,0,0,0-39,4.77,143.44,143.44,0,0,0-31.56,11.27,18.79,18.79,0,0,0-7,5.24,15.86,15.86,0,0,0-1.75,8.76v12.28c0,5.25,1.75,7.75,5.25,7.75a15.49,15.49,0,0,0,4-.75,71.88,71.88,0,0,0,8.76-3.24,199.36,199.36,0,0,1,27-8.53,114,114,0,0,1,27-3.23c19.27,0,32.78,3.76,40.81,11.53,7.71,7.74,11.76,21,11.76,40v18.26c-10-2.27-19.52-4.25-28.78-5.5a196.6,196.6,0,0,0-26.55-2,91,91,0,0,0-61.3,19.53,70.55,70.55,0,0,0-4.25,99.6,68.54,68.54,0,0,0,50,18A92.43,92.43,0,0,0,197,374.86c2.75,5.77,5.26,10.51,7.77,14.76a76.58,76.58,0,0,0,9,11.76,11.48,11.48,0,0,0,7.51,3.52,12,12,0,0,0,6.51-2.27l15.78-10.52a9.94,9.94,0,0,0,4.74-7.51A10.93,10.93,0,0,0,246.57,378.84Zm-51.82-60.57A90.2,90.2,0,0,1,192.24,340a39.8,39.8,0,0,1-8.49,16,56,56,0,0,1-23.79,16,81.69,81.69,0,0,1-25.78,4.51h0A35.74,35.74,0,0,1,110.9,312a57.65,57.65,0,0,1,37.31-10,190.52,190.52,0,0,1,23.51,1.49,211.53,211.53,0,0,1,23,4.25Z" transform="translate(-23.75 -174.99)"/><path class="cls-2" d="M733.58,305a75.83,75.83,0,0,0-38.78-24l-35.53-11.27a75.05,75.05,0,0,1-27.52-13.75,23.79,23.79,0,0,1-7.51-17.81A24.12,24.12,0,0,1,636,215.87a64.41,64.41,0,0,1,33.3-7,114.53,114.53,0,0,1,48,9.71,26,26,0,0,0,9.51,3c3.76,0,5.76-2.76,5.76-8V201.81a13.6,13.6,0,0,0-2.24-8.27,21.79,21.79,0,0,0-7.51-6.24,52.86,52.86,0,0,0-10.52-4.51c-4.48-1.53-9.25-2.79-14.25-4-5.25-1-10.51-2-16.27-2.74A125.46,125.46,0,0,0,665,175a109.26,109.26,0,0,0-31.55,4.25,79.62,79.62,0,0,0-26,13,64.11,64.11,0,0,0-18,20.52,55.71,55.71,0,0,0-6.77,27.77,59.76,59.76,0,0,0,12.53,36.3,76.28,76.28,0,0,0,40,25.52l36.29,11.26a62.51,62.51,0,0,1,25.28,13,24.35,24.35,0,0,1,6.74,17.52,26.91,26.91,0,0,1-13,23.77A67.32,67.32,0,0,1,654,376.21a151.27,151.27,0,0,1-29.79-3,137,137,0,0,1-27.51-8.77c-2.5-1-4.74-2-6.25-2.51a14.46,14.46,0,0,0-4.51-.75c-3.77,0-5.76,2.51-5.76,7.77v12.77a14.4,14.4,0,0,0,9.27,14,113.57,113.57,0,0,0,28.77,10,165.76,165.76,0,0,0,38.56,4.51l0,.1a118.53,118.53,0,0,0,35.78-5.26,80.88,80.88,0,0,0,27.79-14,67.51,67.51,0,0,0,18.27-22,64.5,64.5,0,0,0,6.51-29A56.44,56.44,0,0,0,733.58,305Z" transform="translate(-23.75 -174.99)"/><path class="cls-2" d="M556.17,181.61H532.9a16.31,16.31,0,0,0-9.76,2.5,21.59,21.59,0,0,0-5,9.76L474.85,361.55,435.3,193.87a17,17,0,0,0-4.75-9.76,15.17,15.17,0,0,0-10-2.5h-20a17.21,17.21,0,0,0-10,2.5,17.44,17.44,0,0,0-4.74,9.76L346.7,359.55,304.62,193.87a20.79,20.79,0,0,0-5-9.76,14,14,0,0,0-9.78-2.5H265.33a5.39,5.39,0,0,0-1.39,0,5.49,5.49,0,0,0-4.63,6.23,44.12,44.12,0,0,0,2.26,10l58.81,193.45a20.45,20.45,0,0,0,5.26,9.77,14,14,0,0,0,9.53,2.5h21.52a15.57,15.57,0,0,0,10-2.5,19.56,19.56,0,0,0,4.74-10L410,229.9l38.77,161.43a17.86,17.86,0,0,0,4.77,10,15.07,15.07,0,0,0,10,2.5h21.51a16,16,0,0,0,9.51-2.5,18.93,18.93,0,0,0,5.24-9.75l60.34-193.48a35.78,35.78,0,0,0,1.74-6.25,25.6,25.6,0,0,0,.5-4,5.31,5.31,0,0,0,0-1.49A5.56,5.56,0,0,0,556.17,181.61Z" transform="translate(-23.75 -174.99)"/><path id="Tracé_5629" data-name="Tracé 5629" class="cls-3" d="M738.36,492.85c-10.52-13.53-69.59-6.51-96.34-3.23-8,1-9.29-6-2-11.27,47-33,124.38-23.52,133.4-12.52,9,11.27-2.51,88.59-46.56,125.63-6.76,5.76-13.26,2.77-10.26-4.74,10-24.78,32.28-80.6,21.77-93.87m-34.28,39c-82.34,60.81-202,93.1-304.83,93.1A551.52,551.52,0,0,1,27.08,483.09c-7.75-7-.76-16.52,8.53-11a739.2,739.2,0,0,0,656.45,40.82c13.76-6.26,25.53,9,12,19" transform="translate(-23.75 -174.99)"/></svg>