<svg xmlns="http://www.w3.org/2000/svg" width="158.457" height="22.515" viewBox="0 0 158.457 22.515"><defs><style>.a{fill:#82aafd;}</style></defs><g transform="translate(0 0)"><path class="a" d="M-882.952,328.3h-7.838l-2.549,13.4h7.946c6.923,0,10.043-3.433,10.655-6.647a5.073,5.073,0,0,0-.94-4.328C-877.011,329.113-879.458,328.3-882.952,328.3Zm3.6,6.647c-.4,2.106-2.251,3.13-5.656,3.13h-3.381l1.167-6.133h3.49c2.074,0,3.434.374,4.044,1.112A2.181,2.181,0,0,1-879.357,334.944Z" transform="translate(922.268 -325.049)"/><path class="a" d="M-875.3,328.3l-2.549,13.4h4.255l2.549-13.4Z" transform="translate(925.723 -325.049)"/><path class="a" d="M-864.034,328.282l-9.844,13.42h4.858l2.1-2.869h7.178l.988,2.869h4.921l-4.738-13.42Zm-.709,7.4,2.665-3.758h.172l1.188,3.758Z" transform="translate(926.607 -325.052)"/><path class="a" d="M-839.432,328.3l-6.038,7.536-3.189-7.536h-5.726l-2.549,13.4h4.2l1.55-8.145,3.431,8.145h2.227l6.513-8.062-1.534,8.062h4.219l2.549-13.4Z" transform="translate(930.385 -325.049)"/><path class="a" d="M-829.705,328.282l-9.844,13.42h4.859l2.1-2.869h7.176l.989,2.869h4.92l-4.737-13.42Zm-.708,7.4,2.664-3.758h.173l1.188,3.758Z" transform="translate(934.261 -325.052)"/><path class="a" d="M-808.889,336.25l-6.037-7.952h-5.13l-2.549,13.4h4.237l1.614-8.484,6.484,8.484h4.562l2.549-13.4h-4.219Z" transform="translate(938.04 -325.049)"/><path class="a" d="M-788.72,328.3h-16.825l-.693,3.643h6.266l-1.857,9.758h4.274l1.857-9.758h6.285Z" transform="translate(941.689 -325.049)"/><path class="a" d="M-790.441,328.3l-2.549,13.4h4.255l2.549-13.4Z" transform="translate(944.642 -325.049)"/><path class="a" d="M-899.253,325.641l4.7,5.864-9,11.161-9-11.16,1.884-2.335h8.295l1.712,2.2-5.172,6.407,2.215,2.745,7.492-9.257-4.59-5.622h-11.533l-4.732,5.864,13.433,16.651,13.433-16.651-4.731-5.864Z" transform="translate(916.994 -325.641)"/></g></svg>