<svg xmlns="http://www.w3.org/2000/svg" width="132.643" height="67.817" viewBox="0 0 132.643 67.817"><defs><style>.a{fill:#82aafd;}</style></defs><g transform="translate(0)"><path class="a" d="M-265.6-157.125h-28.766v-28.766H-265.6v28.766Zm-26.25-2.516h23.734v-23.734h-23.734v23.734Z" transform="translate(345.553 185.891)"/><path class="a" d="M-262.85-169.5l5.778-.087.086,5.775-5.778.087Zm-6.855.1,5.778-.086.086,5.775-5.778.086Zm6.762-6.781,5.778-.086.086,5.777-5.777.087Zm-69.816,55.037-.427-28.7,6.952-.1,3.345,19.088,3.016-19.181,6.713-.1.427,28.7-4.272.063-.429-20.183q-.433,3.117-1.524,10.117t-1.524,10.117l-4.337.065-3.825-20.26.174,20.315Zm22.653-.338-.427-28.7,11.974-.178.059,3.986-6.17.092.116,7.813,4.368-.066.061,4.082-4.368.065.132,8.833,6.17-.092.059,3.986Zm18.079-.269-.363-24.362-4.209.062-.065-4.337,14.142-.21.065,4.337-4.128.061.363,24.363Zm8.374-.124,5.774-28.792,5.134-.076,6.614,28.608-5.724.084-1.272-6.121-3.746.057-1.025,6.155Zm7.126-9.818,2.965-.045-1.61-10.629Zm12.213,9.529-.427-28.7,5.8-.086.368,24.713,5.708-.084.059,3.985Zm13.492-.2-.427-28.7,5.8-.087.162,10.89,4.334-10.956,6.489-.1-5.676,11.838,6.534,16.855-6.026.09-4.532-13.058-1.013,2.727.156,10.411Zm19.9-15.477a8.453,8.453,0,0,1-2.2-6.108,8.529,8.529,0,0,1,1.787-5.848,6.917,6.917,0,0,1,5.462-2.218,6.829,6.829,0,0,1,5.5,2.064,8.6,8.6,0,0,1,1.936,5.783q.059,4.035-2,6.17a6.2,6.2,0,0,1,1.3,1.377,5.987,5.987,0,0,1,.791,1.663,10.881,10.881,0,0,1,.376,1.748,17.407,17.407,0,0,1,.125,1.936,14.561,14.561,0,0,1-.353,3.625,8.259,8.259,0,0,1-1.242,2.818,5.486,5.486,0,0,1-2.371,1.893,9.364,9.364,0,0,1-3.618.692q-7.718.115-7.85-8.8a13.825,13.825,0,0,1,.435-3.937,5.684,5.684,0,0,1,1.92-2.859Zm4.579,10.959a2.214,2.214,0,0,0,.848.14,2.177,2.177,0,0,0,.85-.173,2.045,2.045,0,0,0,.6-.384,1.85,1.85,0,0,0,.4-.612,4.679,4.679,0,0,0,.245-.7,4.689,4.689,0,0,0,.107-.8c.022-.33.034-.58.037-.75s0-.409,0-.717q-.071-4.719-2.367-4.685t-2.242,4.753c.005.3.011.539.02.725s.03.439.066.757a5.4,5.4,0,0,0,.14.787,4.266,4.266,0,0,0,.265.69,1.9,1.9,0,0,0,.425.6,1.992,1.992,0,0,0,.611.365Zm.653-12.983a1.2,1.2,0,0,0,.659-.2,1.762,1.762,0,0,0,.479-.469,2.381,2.381,0,0,0,.309-.738c.08-.309.14-.584.178-.823a8.137,8.137,0,0,0,.083-.911q.024-.55.028-.821c0-.181,0-.425,0-.733q-.045-3.093-1.847-3.067a1.5,1.5,0,0,0-.96.326,1.749,1.749,0,0,0-.554.845,5.539,5.539,0,0,0-.224.984,6.954,6.954,0,0,0-.05.967c.005.34.016.632.029.876s.041.572.079.98a5.582,5.582,0,0,0,.183,1.043,6.475,6.475,0,0,0,.323.864,1.549,1.549,0,0,0,.529.662,1.284,1.284,0,0,0,.761.22Zm9.655,8.771,5.866-1.22q.012.876.054,1.545a11.872,11.872,0,0,0,.19,1.457,5.213,5.213,0,0,0,.386,1.286,2.3,2.3,0,0,0,.666.836,1.526,1.526,0,0,0,1,.327q1.723-.026,1.689-2.226-.044-3.012-3.485-5.944l-1.825-1.5q-.87-.706-1.388-1.176a16.074,16.074,0,0,1-1.222-1.274,8.338,8.338,0,0,1-1.108-1.553,8.827,8.827,0,0,1-.7-1.817,8.922,8.922,0,0,1-.313-2.259,7.128,7.128,0,0,1,2.133-5.558,8.357,8.357,0,0,1,5.853-2.12,7,7,0,0,1,5.214,2.091,7.179,7.179,0,0,1,2.215,5.2l-.013.207.007.479-5.982.918c0-.116,0-.3.016-.55s.017-.455.015-.614a7.356,7.356,0,0,0-.095-1.1,5.88,5.88,0,0,0-.28-1.048,1.823,1.823,0,0,0-.579-.828,1.416,1.416,0,0,0-.93-.3,1.589,1.589,0,0,0-1.423.77,3.209,3.209,0,0,0-.452,1.777,4.915,4.915,0,0,0,.3,1.669,4.718,4.718,0,0,0,.866,1.446,12.625,12.625,0,0,0,1.06,1.109q.487.439,1.292,1.073t1.146.931a24.52,24.52,0,0,1,2.1,2,15.96,15.96,0,0,1,1.627,2.122,9.507,9.507,0,0,1,1.162,2.566,11.456,11.456,0,0,1,.419,2.992,6.314,6.314,0,0,1-2.079,4.967,7.578,7.578,0,0,1-5.2,2,8.155,8.155,0,0,1-3.551-.682,6.594,6.594,0,0,1-2.525-1.955,9.7,9.7,0,0,1-1.5-2.769,12.1,12.1,0,0,1-.637-3.274Z" transform="translate(333.187 188.958)"/></g></svg>