<svg id="Calque_1" data-name="Calque 1" xmlns="http://www.w3.org/2000/svg" viewBox="0 0 741.52 275.5"><defs><style>.cls-1{fill:#035cd9;}</style></defs><path id="Tracé_5648" data-name="Tracé 5648" class="cls-1" d="M590,505.58a13.63,13.63,0,0,0-3.1-9.67,9.75,9.75,0,0,0-8.28-3.6,11.4,11.4,0,0,0-8.81,3.6,15.23,15.23,0,0,0-4.15,9.67Zm11.41,8.15H565.69A14.2,14.2,0,0,0,570.35,525,16.8,16.8,0,0,0,582.27,529a24.79,24.79,0,0,0,15.59-5.1v9.17a33.62,33.62,0,0,1-18.71,4.62A24.38,24.38,0,0,1,561,530.52a26.53,26.53,0,0,1-6.74-19.86,27.11,27.11,0,0,1,7.2-19.36,23.67,23.67,0,0,1,18.12-7.65,20.75,20.75,0,0,1,16.59,6.61,26.56,26.56,0,0,1,5.68,18.83Zm-52.82-17.82a11.2,11.2,0,0,0-6.22-1.52,10.92,10.92,0,0,0-8.81,4.57A18.85,18.85,0,0,0,530,511.7v24.45H518.06V484.69H530v10.7a20.69,20.69,0,0,1,5.17-8.66,11.83,11.83,0,0,1,8.19-3.05,10.55,10.55,0,0,1,4.66,1ZM503,536.14H491.11V528A17.35,17.35,0,0,1,475,537.18c-12.42,0-18.65-7.14-18.65-21.91V484.69h11.92v29.54q0,13.75,10.87,13.76a11.48,11.48,0,0,0,8.81-3.6,16.22,16.22,0,0,0,3.6-10.19V484.69h11.9Zm-55.87-46.38-28,37.16h28v9.18H402.52v-4.51l29-37.72H405.66V484.7h41.95v5.05Zm-70.51,18.37-10.35-28.52a30.86,30.86,0,0,1-1-4.57,32.44,32.44,0,0,1-1,4.57l-9.85,28.52Zm23.33,28H386.5l-6.74-18.33h-29l-6.23,18.35H331.06l27.46-71.82h13.42ZM770.76,429.87a22.14,22.14,0,0,1-9.32,1.51c-10.36,0-15-4.57-15-14.26v-29h-8.81v-9.17h8.81V367.2l11.91-3.05v15.28h12.43v9.17H758.28v25.5a11.45,11.45,0,0,0,1.56,6.62,6.5,6.5,0,0,0,5.7,2,8.82,8.82,0,0,0,5.16-1.59v8.66Zm-34.21-65.72a10.57,10.57,0,0,0-5.7-1.51c-5.69,0-8.81,3.05-8.81,9.67v7.13H734v9.17H722v42.32H710.16V388.59h-8.81v-9.18h8.81v-8.15a15.42,15.42,0,0,1,5.17-12.73,22.26,22.26,0,0,1,20.19-3.59v9.17h1Zm-67.82,23a13.47,13.47,0,0,0-10.87,4.59,20.21,20.21,0,0,0-4.15,13.19,19,19,0,0,0,4.15,12.73,15.22,15.22,0,0,0,21.51.24l.24-.24a19.4,19.4,0,0,0,3.6-13.19,20.17,20.17,0,0,0-3.6-13.19,15,15,0,0,0-10.9-4.16Zm-.51,44.83a24.65,24.65,0,0,1-26.35-22.82,23.65,23.65,0,0,1,0-3.15,25.82,25.82,0,0,1,23.9-27.6,25.14,25.14,0,0,1,4.07,0A25.86,25.86,0,0,1,689,385.59a26.64,26.64,0,0,1,6.74,19.87,28.64,28.64,0,0,1-7.2,19.86A33,33,0,0,1,668.15,432Zm-72-3.09V418.13a26.4,26.4,0,0,0,14.51,5.09q10.86,0,10.86-6.12a7.14,7.14,0,0,0-1-3.06,5.15,5.15,0,0,0-2.58-2,24.9,24.9,0,0,0-3.61-1.53L609.7,409A59.48,59.48,0,0,1,604,406.4a29.23,29.23,0,0,1-4.14-3,11.19,11.19,0,0,1-2.59-4.07,15.15,15.15,0,0,1-1-5.1,14,14,0,0,1,1.56-6.62,10.13,10.13,0,0,1,4.67-4.59,27.78,27.78,0,0,1,6.73-3.05,40.85,40.85,0,0,1,7.78-1A34.62,34.62,0,0,1,629.92,381v10.2a21,21,0,0,0-12.42-3.59,10.23,10.23,0,0,0-4.15.5c-1,.5-2.07.5-3.11,1a4,4,0,0,0-2.08,2.05,4.57,4.57,0,0,0-.51,2.54,6.41,6.41,0,0,0,.51,3.06,4,4,0,0,0,2.08,2,24.32,24.32,0,0,0,3.6,1.53c1.55.5,2.59,1,4.66,1.52a31.23,31.23,0,0,0,6.19,2.54c2.07.5,3.11,2.05,4.66,3.06a28.25,28.25,0,0,1,3.11,4.09,18.42,18.42,0,0,1,1,5.6,9.26,9.26,0,0,1-2.08,6.62,13.14,13.14,0,0,1-4.65,4.63,52.09,52.09,0,0,1-7.18,3.05,33.67,33.67,0,0,1-23.38-2.55ZM561,387.11a13.43,13.43,0,0,0-10.87,4.58A20.23,20.23,0,0,0,546,404.88a18.94,18.94,0,0,0,4.15,12.73,15.2,15.2,0,0,0,21.49.25l.24-.25a19.35,19.35,0,0,0,3.61-13.19,20.1,20.1,0,0,0-3.61-13.18A14.93,14.93,0,0,0,561,387.16Zm-.53,44.82a24.63,24.63,0,0,1-26.34-22.8,28.35,28.35,0,0,1,47.12-23.54,26.45,26.45,0,0,1,6.68,19.83,28.69,28.69,0,0,1-7.19,19.86A32,32,0,0,1,560.44,432Zm-31.58-41.79a11.2,11.2,0,0,0-6.22-1.52,10.93,10.93,0,0,0-8.81,4.58,18.87,18.87,0,0,0-3.59,12.73v24.45H498.32V378.92h11.92v10.69a20.35,20.35,0,0,1,5.18-8.66,11.85,11.85,0,0,1,8.28-3.05,10.73,10.73,0,0,1,4.67,1Zm-41.95,38.2a28.45,28.45,0,0,1-15,3.59,25.59,25.59,0,0,1-18.65-7.13,24.69,24.69,0,0,1-7.2-18.34,27.06,27.06,0,0,1,7.78-20.38,28,28,0,0,1,20.72-7.65A32,32,0,0,1,487,381v10.67a20.74,20.74,0,0,0-11.4-4.09,15.51,15.51,0,0,0-12.43,5.1,18.85,18.85,0,0,0-4.67,13.19,17.62,17.62,0,0,0,4.66,12.72,16.57,16.57,0,0,0,11.92,4.58A18.44,18.44,0,0,0,487,418.57v9.75Zm-53.34,2H421.66V378.92h11.91Zm-5.7-62.14a6.72,6.72,0,0,1-5.18-2.05,5.52,5.52,0,0,1-2.07-4.57,5,5,0,0,1,2.07-4.59,9.45,9.45,0,0,1,5.18-2,6.75,6.75,0,0,1,5.18,2,5.56,5.56,0,0,1,2.08,4.59,4.9,4.9,0,0,1-2.08,4.57,6.72,6.72,0,0,1-5.18,2.05M405.6,430.36H393.72V384a134.55,134.55,0,0,1,.52-13.76,25.24,25.24,0,0,1-2.08,6.62l-21.75,54h-8.29l-21.79-53.4-2.07-7.2a102.91,102.91,0,0,1,.51,14.26v46.44h-11.4V359.06h17.1l19.18,47.87,3.1,8.16a51.86,51.86,0,0,1,3.11-8.65l19.69-47.9h16.57Z" transform="translate(-29.24 -262.25)"/><path id="Tracé_5649" data-name="Tracé 5649" class="cls-1" d="M183.76,262.25,95.08,336.46,29.24,447.52l56-5.63Zm7.62,30.7-38.63,77.79,68,78.82L94.55,463.89l195.85,2Z" transform="translate(-29.24 -262.25)"/></svg>