<svg xmlns="http://www.w3.org/2000/svg" width="208.202" height="69.897" viewBox="0 0 208.202 69.897"><defs><style>.a{fill:#82aafd;}</style></defs><g transform="translate(0 0)"><path class="a" d="M137.043-445.9a10.915,10.915,0,0,1-11.069-10.976,10.917,10.917,0,0,1,11.069-10.978,10.951,10.951,0,0,1,11.11,10.978A10.951,10.951,0,0,1,137.043-445.9Zm0-19a7.787,7.787,0,0,0-7.815,8.028,7.785,7.785,0,0,0,7.815,8.026,7.835,7.835,0,0,0,7.844-8.026A7.82,7.82,0,0,0,137.043-464.9Z" transform="translate(-60.621 509.833)"/><path class="a" d="M182.952-454.271h3v1.491a7.066,7.066,0,0,1,4.745-1.734,7.812,7.812,0,0,1,7.815,7.967,7.855,7.855,0,0,1-7.877,8,7.806,7.806,0,0,1-4.651-1.52v7.572H182.94Zm3.04,4.257v6.994a5.731,5.731,0,0,0,4.316,1.825,5.156,5.156,0,0,0,5.23-5.321,5.2,5.2,0,0,0-5.23-5.35A5.551,5.551,0,0,0,185.992-450.014Z" transform="translate(-92.39 502.395)"/><path class="a" d="M231.368-438.518a7.972,7.972,0,0,1-8.119-8.028A7.777,7.777,0,0,1,231-454.513c4.257,0,7.479,3.526,7.479,8.087v.877H226.263a5.218,5.218,0,0,0,5.228,4.441,6.013,6.013,0,0,0,3.921-1.351l1.947,1.918A9.242,9.242,0,0,1,231.368-438.518Zm-5.079-9.306h9.184a4.787,4.787,0,0,0-4.532-4.134A4.754,4.754,0,0,0,226.289-447.824Z" transform="translate(-114.871 502.394)"/><path class="a" d="M264.219-454.35h3.04v1.552a6.364,6.364,0,0,1,4.657-1.856,5.779,5.779,0,0,1,6.049,6.052v9.73h-3.04v-9.221a3.6,3.6,0,0,0-3.83-3.924,4.385,4.385,0,0,0-3.833,2.005v11.13h-3.041Z" transform="translate(-137.719 502.473)"/><path class="a" d="M301.643-451.938a10.26,10.26,0,0,0,7.329,3.345c3.07,0,5.169-1.462,5.169-3.558,0-1.886-1.216-2.827-4.318-3.345l-3.558-.585c-3.891-.637-5.809-2.462-5.809-5.532,0-3.71,3.1-6.113,7.847-6.113a14.29,14.29,0,0,1,8.575,2.888l-1.754,2.433a11.356,11.356,0,0,0-6.961-2.614c-2.769,0-4.622,1.275-4.622,3.16,0,1.734,1.064,2.556,3.8,3.012l3.421.541c4.5.731,6.537,2.584,6.537,5.9,0,3.924-3.406,6.537-8.479,6.537a12.829,12.829,0,0,1-9.125-3.83Z" transform="translate(-157.504 509.763)"/><path class="a" d="M345.338-467.936l3.041-.669v8.028a6.364,6.364,0,0,1,4.652-1.856,5.78,5.78,0,0,1,6.052,6.052v9.73h-3.041v-9.221a3.6,3.6,0,0,0-3.833-3.924,4.385,4.385,0,0,0-3.83,2.005v11.13h-3.041Z" transform="translate(-182.959 510.253)"/><path class="a" d="M383.558-466.242a1.868,1.868,0,0,1,1.854-1.883h0a1.886,1.886,0,0,1,1.959,1.81,1.887,1.887,0,0,1-1.81,1.959c-.049,0-.1,0-.148,0a1.869,1.869,0,0,1-1.857-1.88Zm3.377,19.858h-3.041v-15.478h3.041Z" transform="translate(-204.274 509.986)"/><path class="a" d="M400-463.2v-2.339c0-3.216,1.856-4.985,5.263-4.985a8.026,8.026,0,0,1,2.19.272v2.646a6.071,6.071,0,0,0-1.915-.275c-1.672,0-2.494.76-2.494,2.4v2.281h4.409v2.555h-4.412v12.923H400v-12.923h-3.588V-463.2Z" transform="translate(-211.445 511.323)"/><path class="a" d="M427.683-457.314H424.4v-2.555h3.284v-3.953l3.008-.731v4.678h4.561v2.555h-4.561v8.385c0,1.582.64,2.161,2.281,2.161a5.967,5.967,0,0,0,2.222-.365v2.552a10.033,10.033,0,0,1-2.889.459c-3.011,0-4.622-1.43-4.622-4.093Z" transform="translate(-227.053 507.993)"/><g transform="translate(0 0)"><path class="a" d="M45.578-506.132a37.526,37.526,0,0,1-12.013-2.017,37.571,37.571,0,0,0,12.022,2.02c6.049,0,10.651-2.272,10.651-6.365a14.543,14.543,0,0,0-.506-2.96l-.009,0a14.539,14.539,0,0,1,.506,2.962C56.229-508.4,51.627-506.132,45.578-506.132Z" transform="translate(-9.084 536.383)"/><path class="a" d="M24.865-523.159a14.545,14.545,0,0,1,.506,2.96c0,4.094-4.6,6.365-10.651,6.365A37.569,37.569,0,0,1,2.7-515.853c-6.532-2.225-11.506-5.923-13.1-9.187a4.806,4.806,0,0,1-.54-2.09,5.383,5.383,0,0,1,.441-2.143c-4.918.248-11.283,1.131-11.283,6.739,0,9.2,21.808,20.547,39.075,20.547,13.239,0,16.577-5.988,16.577-10.715C33.869-516.419,30.657-520.638,24.865-523.159Z" transform="translate(21.783 544.087)"/><path class="a" d="M5.979-550.037c0,2.7,10.621,11.537,24.851,11.537,3.657,0,8.95-.754,8.95-5.1a4.107,4.107,0,0,0-.091-1l-2.178-9.461c-.5-2.082-.944-3.026-4.6-4.853-2.844-1.453-9.022-3.848-10.852-3.848-1.7,0-2.208,2.2-4.225,2.2-1.953,0-3.4-1.637-5.231-1.637-1.754,0-2.9,1.2-3.78,3.655,0,0-2.459,6.935-2.775,7.941,0,.007,0,.014,0,.02l.007-.017A1.869,1.869,0,0,0,5.979-550.037Z" transform="translate(6.3 562.767)"/><path class="a" d="M83.671-515.455l-.009,0,.009,0Z" transform="translate(-37.023 536.383)"/><path class="a" d="M6.052-535.262l-.007.017a1.871,1.871,0,0,0-.066.547A1.87,1.87,0,0,1,6.052-535.262Z" transform="translate(6.301 547.427)"/><path class="a" d="M3.95-519.7c1.593,3.264,6.566,6.962,13.1,9.187C10.516-512.741,5.543-516.438,3.95-519.7Z" transform="translate(7.432 538.75)"/></g><path class="a" d="M230.7-524.007c0,3.476,2.09,5.166,5.9,5.166a15.225,15.225,0,0,0,3.477-.491v-4.029a7.259,7.259,0,0,1-2.246.339c-1.57,0-2.152-.491-2.152-1.968v-6.181h4.55v-4.152h-4.55v-5.263l-4.97,1.076v4.186h-3.3v4.152H230.7Zm-15.5.093c0-1.076,1.079-1.6,2.707-1.6a12.612,12.612,0,0,1,2.953.368v2.091a6.291,6.291,0,0,1-3.1.769c-1.6,0-2.552-.614-2.552-1.629m1.52,5.134a7.612,7.612,0,0,0,4.491-1.26v.985h4.918V-529.48c0-3.964-2.672-6.14-7.131-6.14a18.151,18.151,0,0,0-7.6,1.783l1.783,3.66a13.281,13.281,0,0,1,4.921-1.292c2.047,0,3.1.8,3.1,2.43v.8a14.483,14.483,0,0,0-3.69-.462c-4.184,0-6.7,1.754-6.7,4.891,0,2.859,2.274,5.04,5.9,5.04m-27.027-.275h5.289v-8.435h8.856v8.426h5.289v-21.524h-5.277v8.271H195v-8.271h-5.289ZM169.555-527.2a4.12,4.12,0,0,1,4.274-4.123,5.037,5.037,0,0,1,3.444,1.263v5.675a4.784,4.784,0,0,1-3.444,1.292,4.138,4.138,0,0,1-4.274-4.12m7.78,8.148h4.921v-22.588l-4.971,1.076v6.119a8.277,8.277,0,0,0-4.151-1.076,8.309,8.309,0,0,0-8.456,8.333,8.26,8.26,0,0,0,8.148,8.37h.144a7.348,7.348,0,0,0,4.365-1.412ZM154.767-531.55a3.6,3.6,0,0,1,3.412,2.582h-6.786a3.387,3.387,0,0,1,3.383-2.582m-8.4,4.377a8.539,8.539,0,0,0,8.853,8.426,9.769,9.769,0,0,0,6.8-2.461l-3.292-2.924a4.4,4.4,0,0,1-3.257,1.231,4.207,4.207,0,0,1-4-2.582h11.592v-1.228c0-5.166-3.473-8.885-8.21-8.885a8.353,8.353,0,0,0-8.478,8.226c0,.066,0,.131,0,.2m-8.584-8.885a2.464,2.464,0,0,1,2.737,2.43,2.466,2.466,0,0,1-2.737,2.43h-5.228v-4.859Zm-10.525,17h5.289V-526.9h4.026l4.061,7.841h5.9l-4.737-8.61a6.511,6.511,0,0,0,4.058-6.058c0-3.874-3.044-6.856-7.6-6.856h-10.99Z" transform="translate(-61.343 550.992)"/></g></svg>