<svg xmlns="http://www.w3.org/2000/svg" width="43.5" height="43.5" viewBox="0 0 43.5 43.5"><defs><style>.a{fill:#fff}</style></defs><path class="a" d="M30.526 13.982H12.975l8.775 7.522zm0 0"/><path class="a" d="M21.752 23.303a.775.775 0 01-.506-.187l-9.594-8.222v14.624h20.2V14.894l-9.593 8.222a.775.775 0 01-.507.187zm0 0"/><path class="a" d="M21.75 0A21.75 21.75 0 1043.5 21.75 21.75 21.75 0 0021.75 0zM33.4 30.295a.777.777 0 01-.777.777H10.875a.777.777 0 01-.777-.777v-17.09a.777.777 0 01.777-.777h21.75a.777.777 0 01.777.777zm0 0"/></svg>