<svg xmlns="http://www.w3.org/2000/svg" width="43.5" height="42.346" viewBox="0 0 43.5 42.346"><defs><style>.a{fill:#fff;}</style></defs><path class="a" d="M1108.314,671.151a21.75,21.75,0,1,0-28.827,20.571,2.085,2.085,0,0,0,1.12-1.62c0-1.2-.026-4.273-.026-4.273a15.086,15.086,0,0,1-2.291.161,4.924,4.924,0,0,1-4.979-3.36,5.889,5.889,0,0,0-2.443-2.9c-.562-.362-.692-.789-.041-.911,3-.563,3.773,3.389,5.78,4.019a5.643,5.643,0,0,0,4.19-.334,4.333,4.333,0,0,1,1.724-2.8c-5.1-.488-8.131-2.251-9.7-5.085l-.168-.317-.394-.9-.116-.323a15.252,15.252,0,0,1-.709-4.926c0-3.267,1.024-4.5,2.4-6.241a8.716,8.716,0,0,1,.377-6.27s2.21-.456,6.386,2.519c2.263-.965,8.3-1.045,11.155-.214,1.751-1.152,4.958-2.787,6.251-2.329.35.561,1.1,2.2.458,5.786.439.788,2.721,2.465,2.73,7.208a18.662,18.662,0,0,1-.559,4.475l-.189.639s-.108.3-.225.589l-.138.317c-1.514,3.308-4.62,4.542-9.64,5.056,1.626,1.018,2.093,2.3,2.093,5.753s-.047,3.921-.036,4.716a2.194,2.194,0,0,0,1.077,1.591A21.759,21.759,0,0,0,1108.314,671.151Z" transform="translate(-1064.815 -649.401)"/></svg>