<svg xmlns="http://www.w3.org/2000/svg" width="431.633" height="335.734" viewBox="0 0 431.633 335.734"><defs><style>.a{fill:none;stroke:#fff;stroke-width:3px;}.b{isolation:isolate;}.c{fill:#fff;}</style></defs><path class="a" d="M0,0H61.719" transform="translate(0.5 222.18)"/><g transform="translate(81.363 -184.672)"><g transform="translate(0 -11)"><g class="b"><g class="b"><path class="c" d="M-61.765,365.793a31.518,31.518,0,0,1-6.639.52c-4.919,0-10.558-2.639-10.558-12.358V348.4c0-9.8,5.639-12.358,10.558-12.358a43.068,43.068,0,0,1,6.719.64c.36.04.64.16.64.52v2.039c0,.241-.08.441-.48.441h-.12c-1.44-.12-4.4-.361-6.719-.361-3.919,0-6.959,2.281-6.959,9.079v5.559c0,6.719,3.04,9.079,6.959,9.079,2.28,0,5.159-.2,6.6-.32h.16a.556.556,0,0,1,.64.64v1.639C-60.965,365.474-61.325,365.713-61.765,365.793Z"/><path class="c" d="M-53.643,366.033h-2.08a.762.762,0,0,1-.719-.8V336.718a.725.725,0,0,1,.719-.76h2.08a.727.727,0,0,1,.72.76v28.515A.761.761,0,0,1-53.643,366.033Z"/><path class="c" d="M-38.924,366.313c-5.879,0-8.879-3.879-8.879-9.758v-3.039c0-5.879,3-9.759,8.879-9.759S-30,347.637-30,353.516v3.039C-30,362.434-33.045,366.313-38.924,366.313Zm5.4-12.8c0-4.08-1.64-6.68-5.4-6.68-3.72,0-5.359,2.56-5.359,6.68v3.039c0,4.079,1.6,6.678,5.359,6.678,3.719,0,5.4-2.559,5.4-6.678Z"/><path class="c" d="M-9.206,366.033h-2a.769.769,0,0,1-.76-.8v-.759a12.056,12.056,0,0,1-6.359,1.839c-4.8,0-6.959-3-6.959-8.319V344.837a.8.8,0,0,1,.8-.8h1.92a.8.8,0,0,1,.8.8v13.157c0,4.04,1.36,5.279,4.4,5.279a12.664,12.664,0,0,0,5.4-1.559V344.837a.83.83,0,0,1,.8-.8h1.959a.794.794,0,0,1,.76.8v20.4A.769.769,0,0,1-9.206,366.033Z"/><path class="c" d="M12.354,365.633a38.461,38.461,0,0,1-7.358.68c-5.959,0-8.719-3.879-8.719-9.878v-2.879c0-6.28,2.88-9.8,8.719-9.8a29.172,29.172,0,0,1,4.679.4v-7.439a.759.759,0,0,1,.76-.76h2.039a.727.727,0,0,1,.72.76v28C13.194,365.233,13.074,365.514,12.354,365.633ZM9.675,347.116A30.93,30.93,0,0,0,5,346.836c-3.92,0-5.2,2.44-5.2,6.72v2.879c0,4.359,1.24,6.8,5.2,6.8,1.359,0,3.319-.12,4.679-.239Z"/><path class="c" d="M48.712,366.033H46.233a1.323,1.323,0,0,1-1.28-.639L32.6,341.917q-.06-.12-.12-.12c-.04,0-.04.04-.04.12v23.356a.752.752,0,0,1-.72.76H29.636c-.4,0-.72-.08-.72-.479V337.438a1.127,1.127,0,0,1,1.16-1.12h2.2c1.12,0,1.32.2,1.64.8l12.278,23.357.08.119c.04,0,.04-.08.04-.119v-23.4a.752.752,0,0,1,.72-.76h2.119a.727.727,0,0,1,.721.76v27.795A1.16,1.16,0,0,1,48.712,366.033Z"/><path class="c" d="M70.233,366.033h-1.84a.8.8,0,0,1-.8-.8v-.879a12.173,12.173,0,0,1-6.158,1.959c-3.4,0-6.519-1.48-6.519-6.479v-.48c0-4.319,2.52-6.479,9.638-6.479h2.959v-1.6c0-3.359-1.159-4.518-4.279-4.518a58.262,58.262,0,0,0-6.119.319h-.2c-.36,0-.72-.12-.72-.639v-1.4c0-.44.28-.681.84-.76a34.425,34.425,0,0,1,6.2-.52c5.559,0,7.8,2.8,7.8,7.518v13.958A.8.8,0,0,1,70.233,366.033Zm-2.72-10.638H64.554c-4.839,0-6.119,1.08-6.119,3.919v.48c0,2.88,1.36,3.64,3.68,3.64a11,11,0,0,0,5.4-1.6Z"/><path class="c" d="M86.474,366.113a19.46,19.46,0,0,1-2.6.2c-3.68,0-5.44-.959-5.44-5.359V347l-3.879-.439c-.44-.04-.76-.281-.76-.72v-1.08a.7.7,0,0,1,.76-.72h3.879v-3.92a.815.815,0,0,1,.721-.8L81.235,339h.12a.635.635,0,0,1,.6.68v4.359h4.319a.8.8,0,0,1,.8.8V346.2a.8.8,0,0,1-.8.8H81.955v13.958c0,2.2.56,2.52,2.16,2.52h2.239c.56,0,.84.16.84.559v1.4C87.194,365.793,86.994,366.033,86.474,366.113Z"/><path class="c" d="M94.156,340.518h-2.04a.8.8,0,0,1-.8-.8v-3.2a.8.8,0,0,1,.8-.8h2.04a.8.8,0,0,1,.8.8v3.2A.8.8,0,0,1,94.156,340.518Zm-.08,25.515h-1.92a.8.8,0,0,1-.8-.8v-20.4a.8.8,0,0,1,.8-.8h1.92a.8.8,0,0,1,.8.8v20.4A.8.8,0,0,1,94.076,366.033Z"/><path class="c" d="M117.672,345l-5.4,19.036c-.52,1.8-1.879,2.28-3.6,2.28s-3.08-.48-3.6-2.28L99.675,345a.781.781,0,0,1-.04-.28.62.62,0,0,1,.64-.68h2.2c.319,0,.6.24.76.76l4.6,17.436c.24.96.44,1.161.84,1.161.36,0,.6-.2.84-1.161l4.6-17.436c.16-.52.44-.76.76-.76h2.2a.619.619,0,0,1,.639.68A.781.781,0,0,1,117.672,345Z"/><path class="c" d="M137.393,356.155H124v.56c0,4.759,1.879,6.518,5.558,6.518a54.985,54.985,0,0,0,7.119-.439h.2a.567.567,0,0,1,.64.56v1.36c0,.519-.16.8-.8.919a36.265,36.265,0,0,1-7.159.68c-4.6,0-9.078-2.16-9.078-9.6v-3.6c0-5.719,3.159-9.358,8.878-9.358,5.839,0,8.8,3.68,8.8,9.358v2.16C138.153,355.8,137.873,356.155,137.393,356.155Zm-2.8-3.04c0-4.519-1.719-6.279-5.239-6.279-3.439,0-5.358,1.96-5.358,6.279v.361h10.6Z"/><path class="c" d="M163.354,366.313c-6.279,0-10.838-3.679-10.838-12.558V348.6c0-8.878,4.559-12.558,10.838-12.558s10.8,3.68,10.8,12.558v5.159C174.152,362.634,169.633,366.313,163.354,366.313Zm7.119-17.717c0-6.719-2.72-9.279-7.119-9.279-4.359,0-7.159,2.56-7.159,9.279v5.159c0,6.72,2.76,9.279,7.159,9.279,4.359,0,7.119-2.559,7.119-9.279Z"/><path class="c" d="M195.313,366.033h-1.919a.8.8,0,0,1-.8-.8V352.075c0-4.039-1.36-5.278-4.4-5.278a12.674,12.674,0,0,0-5.4,1.559v16.877a.83.83,0,0,1-.8.8h-1.96a.8.8,0,0,1-.76-.8v-20.4a.768.768,0,0,1,.76-.8h2a.768.768,0,0,1,.76.8v.76a12.036,12.036,0,0,1,6.358-1.84c4.8,0,6.959,3,6.959,8.318v13.158A.8.8,0,0,1,195.313,366.033Z"/><path class="c" d="M209.754,366.313a38.75,38.75,0,0,1-7.358-.68c-.72-.119-.84-.36-.84-.919v-28a.725.725,0,0,1,.719-.76h2.04a.759.759,0,0,1,.76.76v7.439a28.441,28.441,0,0,1,4.679-.4c5.8,0,8.719,3.519,8.719,9.8v2.879C218.473,362.434,215.753,366.313,209.754,366.313Zm5.2-12.757c0-4.28-1.279-6.72-5.2-6.72a31.239,31.239,0,0,0-4.679.28v15.878c1.36.119,3.32.239,4.679.239,3.96,0,5.2-2.439,5.2-6.8Z"/><path class="c" d="M231.354,366.313c-5.879,0-8.878-3.879-8.878-9.758v-3.039c0-5.879,3-9.759,8.878-9.759s8.918,3.88,8.918,9.759v3.039C240.272,362.434,237.232,366.313,231.354,366.313Zm5.4-12.8c0-4.08-1.64-6.68-5.4-6.68-3.719,0-5.359,2.56-5.359,6.68v3.039c0,4.079,1.6,6.678,5.359,6.678,3.719,0,5.4-2.559,5.4-6.678Z"/><path class="c" d="M259.513,366.033h-1.84a.8.8,0,0,1-.8-.8v-.879a12.18,12.18,0,0,1-6.159,1.959c-3.4,0-6.519-1.48-6.519-6.479v-.48c0-4.319,2.52-6.479,9.638-6.479h2.96v-1.6c0-3.359-1.16-4.518-4.279-4.518a58.23,58.23,0,0,0-6.119.319h-.2c-.359,0-.719-.12-.719-.639v-1.4c0-.44.28-.681.839-.76a34.451,34.451,0,0,1,6.2-.52c5.558,0,7.8,2.8,7.8,7.518v13.958A.8.8,0,0,1,259.513,366.033Zm-2.72-10.638h-2.96c-4.839,0-6.118,1.08-6.118,3.919v.48c0,2.88,1.359,3.64,3.679,3.64a11.007,11.007,0,0,0,5.4-1.6Z"/><path class="c" d="M274.793,346.8a10.227,10.227,0,0,0-5.519,1.68v16.756a.829.829,0,0,1-.8.8h-1.96a.794.794,0,0,1-.76-.8v-20.4a.768.768,0,0,1,.76-.8h1.88a.768.768,0,0,1,.759.8v.84a9.558,9.558,0,0,1,5.639-1.92c.561,0,.84.24.84.72v1.639C275.633,346.557,275.354,346.8,274.793,346.8Z"/><path class="c" d="M293.632,365.633a38.474,38.474,0,0,1-7.36.68c-5.959,0-8.717-3.879-8.717-9.878v-2.879c0-6.28,2.879-9.8,8.717-9.8a29.156,29.156,0,0,1,4.68.4v-7.439a.759.759,0,0,1,.76-.76h2.04a.727.727,0,0,1,.72.76v28C294.472,365.233,294.352,365.514,293.632,365.633Zm-2.68-18.517a30.919,30.919,0,0,0-4.68-.28c-3.918,0-5.2,2.44-5.2,6.72v2.879c0,4.359,1.239,6.8,5.2,6.8,1.361,0,3.321-.12,4.68-.239Z"/><path class="c" d="M303.153,340.518h-2.04a.8.8,0,0,1-.8-.8v-3.2a.8.8,0,0,1,.8-.8h2.04a.8.8,0,0,1,.8.8v3.2A.8.8,0,0,1,303.153,340.518Zm-.08,25.515h-1.92a.8.8,0,0,1-.8-.8v-20.4a.8.8,0,0,1,.8-.8h1.92a.8.8,0,0,1,.8.8v20.4A.8.8,0,0,1,303.073,366.033Z"/><path class="c" d="M325.831,366.033h-1.92a.8.8,0,0,1-.8-.8V352.075c0-4.039-1.359-5.278-4.4-5.278a12.675,12.675,0,0,0-5.4,1.559v16.877a.829.829,0,0,1-.8.8h-1.96a.794.794,0,0,1-.76-.8v-20.4a.768.768,0,0,1,.76-.8h2a.768.768,0,0,1,.759.8v.76a12.04,12.04,0,0,1,6.359-1.84c4.8,0,6.959,3,6.959,8.318v13.158A.8.8,0,0,1,325.831,366.033Z"/><path class="c" d="M349.55,346.717l-1.44.279a5.611,5.611,0,0,1,1.36,4.119v.321c0,4.4-2.719,6.838-8.878,6.838a11.54,11.54,0,0,1-4.64-.8,1.457,1.457,0,0,0-1,1.359c0,.681.32,1.04,1.24,1.28l5.959,1.52c3.919,1,7.679,2.12,7.679,5.879v.32c0,3.839-2.559,6.2-9.118,6.2-6.319,0-9.2-2.44-9.2-6.359v-.36a6.482,6.482,0,0,1,2.52-5.08l-.28-.119a3.291,3.291,0,0,1-1.84-3.12v-.04a3.293,3.293,0,0,1,1.64-2.879,5.882,5.882,0,0,1-1.84-4.639v-.321c0-3.558,2-7.078,8.879-7.078h8.759a.923.923,0,0,1,.919.88v1.04C350.27,346.477,349.99,346.637,349.55,346.717Zm-3.239,20.8c0-1.56-1.28-2.2-4.879-3.119l-4.52-1.161a4.773,4.773,0,0,0-1.96,4.08v.36c0,2.239,1.32,3.64,5.76,3.64,4.559,0,5.6-1.281,5.6-3.48Zm-.321-16.4c0-2.4-1.079-4.279-5.4-4.279-4.48,0-5.4,2.04-5.4,4.279v.321c0,1.759.8,4.079,5.4,4.079,4.319,0,5.4-1.68,5.4-4.079Z"/></g></g></g><path class="c" d="M-28.712,207.387a30.03,30.03,0,0,1,18.443,6.306L5.495,197.686a51.75,51.75,0,0,0-34.207-12.934c-29.008,0-52.651,24.255-52.651,54.172,0,29.753,23.643,54.01,52.651,54.01A52.468,52.468,0,0,0,5.5,280.152l-15.764-16.171a30,30,0,0,1-40.038-2.913,31.339,31.339,0,0,1-8.986-22.151A31.724,31.724,0,0,1-50.306,216.6a29.779,29.779,0,0,1,21.6-9.219"/><path class="c" d="M82.9,239.971,14.96,186.286V291.394H39.552V240.135L107.5,291.394V186.286h-24.6Z"/><path class="c" d="M188.205,261.161a30.279,30.279,0,0,1-42.816.693h0q-.351-.34-.693-.693a32.2,32.2,0,0,1,0-44.633,30.287,30.287,0,0,1,42.826-.684q.348.336.684.684a32.2,32.2,0,0,1,0,44.633m-21.763-76.489c-29.164,0-52.806,24.255-52.806,54.172s23.642,54.172,52.806,54.172,52.81-24.255,52.81-54.172-23.646-54.172-52.81-54.172"/><path class="c" d="M228.429,190.134h-1.1v-2.182c.247-.025.563-.038.942-.038q1.769,0,1.769,1.1t-1.611,1.116m1.369.4a1.624,1.624,0,0,0,1.113-1.568,1.488,1.488,0,0,0-.713-1.3,3.411,3.411,0,0,0-1.927-.479,11.15,11.15,0,0,0-1.841.173v6.219h.9v-2.754h1.141q1.385,0,1.769,2.75h.9a8.7,8.7,0,0,0-.52-2.072,2.185,2.185,0,0,0-.82-.971"/><path class="c" d="M228.487,195.158a4.773,4.773,0,1,1,4.774-4.772,4.774,4.774,0,0,1-4.774,4.772h0m4.04-8.812a5.716,5.716,0,1,0,1.674,4.04,5.714,5.714,0,0,0-1.674-4.04"/></g><g transform="translate(0 266)"><g transform="translate(-316.581 -325.575)"><path class="c" d="M516.618,359.432a5.439,5.439,0,1,0,1.593,3.845A5.439,5.439,0,0,0,516.618,359.432Zm-3.845,8.387a4.543,4.543,0,1,1,4.543-4.543h0a4.543,4.543,0,0,1-4.544,4.542h0Z"/><path class="c" d="M513.737,363.423h0a1.545,1.545,0,0,0,1.059-1.492,1.419,1.419,0,0,0-.678-1.236,3.245,3.245,0,0,0-1.834-.456,10.712,10.712,0,0,0-1.752.165v5.919h.855V363.7h1.086q1.318,0,1.684,2.617h.856a8.276,8.276,0,0,0-.494-1.972A2.088,2.088,0,0,0,513.737,363.423Zm-1.3-.379H511.39v-2.076q.354-.036.9-.036,1.682,0,1.684,1.05t-1.541,1.062Z"/><path class="c" d="M320.337,383.838h7.13c3.625,0,6.143-1.721,6.143-5.361,0-3.17-2.014-5.3-6.877-5.3h-6.388Zm6.587-13.861c4.182,0,5.807-1.661,5.807-4.51,0-2.585-1.83-4.433-5.219-4.433h-7.175v8.944Zm-10.343-12.138h11.076c6.1,0,8.943,3.248,8.943,7.292a6.406,6.406,0,0,1-4.144,6.361,7.2,7.2,0,0,1,5.092,6.993c0,5.5-4.151,8.551-9.623,8.551H316.584Z"/><path class="c" d="M356.224,374.448c-.042-3.5-1.791-6.319-5.409-6.319-3.72,0-5.361,2.609-5.73,6.319Zm-11.262,2.592c.028,4.33,2.193,7.413,5.787,7.413,3.347,0,4.433-1.738,5.107-3.3h3.682c-.832,2.729-3.1,6.373-8.9,6.373-6.654,0-9.369-5.444-9.369-10.928,0-6.333,3.17-11.383,9.6-11.383,6.828,0,9.062,5.515,9.062,10.057q.015.885-.057,1.767Z"/><path class="c" d="M424.865,374.448c-.042-3.5-1.791-6.319-5.409-6.319-3.724,0-5.362,2.609-5.731,6.319ZM413.6,377.04c.028,4.33,2.193,7.413,5.787,7.413,3.347,0,4.433-1.738,5.107-3.3h3.682c-.832,2.729-3.1,6.373-8.9,6.373-6.654,0-9.369-5.444-9.369-10.928,0-6.333,3.17-11.383,9.6-11.383,6.827,0,9.062,5.515,9.062,10.057a17.375,17.375,0,0,1-.057,1.767Z"/><path class="c" d="M366.887,376.393c0,4.662,2.31,8.064,6.1,8.064,3.858,0,6.031-3.227,6.031-8.051,0-4.785-2.158-8.079-6.115-8.079s-6.02,3.214-6.02,8.065m15.886-.042c0,6.125-3.484,11.175-9.934,11.175-6.048,0-9.7-4.715-9.7-11.1,0-6.277,3.583-11.161,9.94-11.161,5.857,0,9.7,4.419,9.7,11.09"/><path class="c" d="M402.7,375.971c0-4.492-2.034-7.57-5.631-7.57-4.362,0-6.086,2.784-6.086,7.938,0,5.01,1.415,8.051,5.812,8.051,3.851,0,5.906-3.2,5.906-8.414m-11.547,8.382v10.951h-3.624V370.942c0-1.731,0-3.526-.042-5.174h3.537c.1,1.108.14,2.221.127,3.333a7.253,7.253,0,0,1,6.883-3.833c4.87,0,8.41,4.109,8.41,10.557,0,7.571-4.062,11.644-9.161,11.644-3.4,0-5.184-1.444-6.132-3.121"/><path class="c" d="M433.152,371.146c0-1.844,0-3.706-.042-5.353h3.548c.1.624.154,2.86.144,3.491.844-1.826,2.564-4,6.651-4,3.96,0,7.06,2.437,7.06,8.086v13.661h-3.646V373.844c0-3.209-1.248-5.374-4.474-5.374-3.984,0-5.589,3.05-5.589,7.32v11.246h-3.651Z"/><path class="c" d="M476.153,357.84v3.329h9.31v25.868h3.844V361.169h9.3V357.84Z"/><path class="c" d="M467.875,387.043h3.841v-29.2h-3.841Z"/></g><g class="b" transform="translate(-316.581 -325.575)"><g class="b"><path class="c" d="M325.383,340.5a15.769,15.769,0,0,1-3.321.26c-2.46,0-5.281-1.32-5.281-6.181V331.8c0-4.9,2.821-6.181,5.281-6.181a21.557,21.557,0,0,1,3.361.32c.18.02.32.08.32.26v1.02c0,.12-.04.221-.24.221h-.06c-.72-.061-2.2-.181-3.361-.181-1.96,0-3.48,1.141-3.48,4.541v2.781c0,3.361,1.52,4.541,3.48,4.541,1.141,0,2.581-.1,3.3-.16h.08a.278.278,0,0,1,.32.32v.82C325.783,340.338,325.6,340.458,325.383,340.5Z"/><path class="c" d="M332.362,331a5.118,5.118,0,0,0-2.76.84v8.382a.416.416,0,0,1-.4.4h-.98a.4.4,0,0,1-.38-.4v-10.2a.385.385,0,0,1,.38-.4h.94a.384.384,0,0,1,.38.4v.42a4.779,4.779,0,0,1,2.821-.96q.42,0,.42.36v.82C332.782,330.876,332.642,331,332.362,331Z"/><path class="c" d="M342.3,335.677h-6.7v.28c0,2.381.94,3.261,2.78,3.261a27.419,27.419,0,0,0,3.561-.22h.1a.283.283,0,0,1,.32.28v.68c0,.26-.08.4-.4.46a18.141,18.141,0,0,1-3.581.34c-2.3,0-4.541-1.08-4.541-4.8v-1.8c0-2.861,1.581-4.681,4.441-4.681,2.921,0,4.4,1.84,4.4,4.681v1.08C342.684,335.5,342.543,335.677,342.3,335.677Zm-1.4-1.52c0-2.261-.859-3.14-2.62-3.14-1.72,0-2.68.979-2.68,3.14v.18h5.3Z"/><path class="c" d="M352.343,340.618h-.92a.4.4,0,0,1-.4-.4v-.44a6.091,6.091,0,0,1-3.081.98c-1.7,0-3.259-.74-3.259-3.24v-.241c0-2.16,1.259-3.24,4.82-3.24h1.48v-.8c0-1.679-.58-2.259-2.14-2.259a29.2,29.2,0,0,0-3.061.159h-.1c-.181,0-.361-.06-.361-.32v-.7c0-.22.14-.341.42-.381a17.348,17.348,0,0,1,3.1-.259c2.781,0,3.9,1.4,3.9,3.76v6.982A.4.4,0,0,1,352.343,340.618Zm-1.361-5.321H349.5c-2.42,0-3.061.54-3.061,1.961v.239c0,1.441.681,1.821,1.841,1.821a5.5,5.5,0,0,0,2.7-.8Z"/><path class="c" d="M360.462,340.658a9.731,9.731,0,0,1-1.3.1c-1.841,0-2.721-.48-2.721-2.681V331.1l-1.94-.22c-.22-.02-.38-.14-.38-.36v-.54a.352.352,0,0,1,.38-.36h1.94v-1.961a.407.407,0,0,1,.361-.4l1.04-.159h.059a.317.317,0,0,1,.3.34v2.18h2.16a.4.4,0,0,1,.4.4v.68a.4.4,0,0,1-.4.4H358.2v6.981c0,1.1.279,1.261,1.08,1.261h1.12c.281,0,.42.08.42.28v.7C360.822,340.5,360.723,340.618,360.462,340.658Z"/><path class="c" d="M370.783,335.677h-6.7v.28c0,2.381.939,3.261,2.78,3.261a27.419,27.419,0,0,0,3.561-.22h.1a.283.283,0,0,1,.32.28v.68c0,.26-.08.4-.4.46a18.148,18.148,0,0,1-3.581.34c-2.3,0-4.541-1.08-4.541-4.8v-1.8c0-2.861,1.58-4.681,4.442-4.681,2.92,0,4.4,1.84,4.4,4.681v1.08C371.163,335.5,371.023,335.677,370.783,335.677Zm-1.4-1.52c0-2.261-.861-3.14-2.62-3.14-1.721,0-2.681.979-2.681,3.14v.18h5.3Z"/><path class="c" d="M381.243,340.418a19.252,19.252,0,0,1-3.681.34c-2.981,0-4.361-1.941-4.361-4.941v-1.44c0-3.141,1.441-4.9,4.361-4.9a14.579,14.579,0,0,1,2.34.2v-3.721a.38.38,0,0,1,.38-.38H381.3a.363.363,0,0,1,.36.38v14C381.663,340.218,381.6,340.358,381.243,340.418Zm-1.341-9.262a15.465,15.465,0,0,0-2.34-.139c-1.96,0-2.6,1.219-2.6,3.36v1.44c0,2.181.62,3.4,2.6,3.4.68,0,1.661-.06,2.34-.12Z"/><path class="c" d="M393.421,340.758a19.4,19.4,0,0,1-3.681-.34c-.359-.06-.42-.18-.42-.46v-14a.364.364,0,0,1,.361-.38h1.02a.38.38,0,0,1,.38.38v3.721a14.223,14.223,0,0,1,2.34-.2c2.9,0,4.361,1.76,4.361,4.9v1.44C397.782,338.817,396.422,340.758,393.421,340.758Zm2.6-6.381c0-2.141-.639-3.36-2.6-3.36a15.619,15.619,0,0,0-2.34.139V339.1c.68.06,1.66.12,2.34.12,1.98,0,2.6-1.22,2.6-3.4Z"/><path class="c" d="M408.662,330.1l-3.3,11.522c-.62,2.161-1.36,2.961-3.661,2.961a8.306,8.306,0,0,1-1.679-.18c-.241-.06-.42-.12-.42-.32v-.74c0-.22.159-.32.379-.32h.06c.44.04,1.341.12,1.78.12,1.141,0,1.641-.3,1.981-1.7l.2-.82h-.28c-.6,0-1.12-.139-1.48-1.38L399.58,330.1a.357.357,0,0,1-.019-.14.321.321,0,0,1,.359-.34h1.1a.4.4,0,0,1,.339.32l2.361,8.682c.1.4.24.44.381.44h.319l2.44-9.142a.409.409,0,0,1,.381-.3h1.12a.311.311,0,0,1,.321.34A.325.325,0,0,1,408.662,330.1Z"/></g></g></g></svg>