<svg xmlns="http://www.w3.org/2000/svg" width="201.63" height="69.734" viewBox="0 0 201.63 69.734"><defs><style>.a{fill:#fff;}.b{isolation:isolate;}</style></defs><g transform="translate(-316.581 -325.575)"><path class="a" d="M516.618,359.432a5.439,5.439,0,1,0,1.593,3.845A5.439,5.439,0,0,0,516.618,359.432Zm-3.845,8.387a4.543,4.543,0,1,1,4.543-4.543h0a4.543,4.543,0,0,1-4.544,4.542h0Z"/><path class="a" d="M513.737,363.423h0a1.545,1.545,0,0,0,1.059-1.492,1.419,1.419,0,0,0-.678-1.236,3.245,3.245,0,0,0-1.834-.456,10.712,10.712,0,0,0-1.752.165v5.919h.855V363.7h1.086q1.318,0,1.684,2.617h.856a8.276,8.276,0,0,0-.494-1.972A2.088,2.088,0,0,0,513.737,363.423Zm-1.3-.379H511.39v-2.076q.354-.036.9-.036,1.682,0,1.684,1.05t-1.541,1.062Z"/><path class="a" d="M320.337,383.838h7.13c3.625,0,6.143-1.721,6.143-5.361,0-3.17-2.014-5.3-6.877-5.3h-6.388Zm6.587-13.861c4.182,0,5.807-1.661,5.807-4.51,0-2.585-1.83-4.433-5.219-4.433h-7.175v8.944Zm-10.343-12.138h11.076c6.1,0,8.943,3.248,8.943,7.292a6.406,6.406,0,0,1-4.144,6.361,7.2,7.2,0,0,1,5.092,6.993c0,5.5-4.151,8.551-9.623,8.551H316.584Z"/><path class="a" d="M356.224,374.448c-.042-3.5-1.791-6.319-5.409-6.319-3.72,0-5.361,2.609-5.73,6.319Zm-11.262,2.592c.028,4.33,2.193,7.413,5.787,7.413,3.347,0,4.433-1.738,5.107-3.3h3.682c-.832,2.729-3.1,6.373-8.9,6.373-6.654,0-9.369-5.444-9.369-10.928,0-6.333,3.17-11.383,9.6-11.383,6.828,0,9.062,5.515,9.062,10.057q.015.885-.057,1.767Z"/><path class="a" d="M424.865,374.448c-.042-3.5-1.791-6.319-5.409-6.319-3.724,0-5.362,2.609-5.731,6.319ZM413.6,377.04c.028,4.33,2.193,7.413,5.787,7.413,3.347,0,4.433-1.738,5.107-3.3h3.682c-.832,2.729-3.1,6.373-8.9,6.373-6.654,0-9.369-5.444-9.369-10.928,0-6.333,3.17-11.383,9.6-11.383,6.827,0,9.062,5.515,9.062,10.057a17.375,17.375,0,0,1-.057,1.767Z"/><path class="a" d="M366.887,376.393c0,4.662,2.31,8.064,6.1,8.064,3.858,0,6.031-3.227,6.031-8.051,0-4.785-2.158-8.079-6.115-8.079s-6.02,3.214-6.02,8.065m15.886-.042c0,6.125-3.484,11.175-9.934,11.175-6.048,0-9.7-4.715-9.7-11.1,0-6.277,3.583-11.161,9.94-11.161,5.857,0,9.7,4.419,9.7,11.09"/><path class="a" d="M402.7,375.971c0-4.492-2.034-7.57-5.631-7.57-4.362,0-6.086,2.784-6.086,7.938,0,5.01,1.415,8.051,5.812,8.051,3.851,0,5.906-3.2,5.906-8.414m-11.547,8.382v10.951h-3.624V370.942c0-1.731,0-3.526-.042-5.174h3.537c.1,1.108.14,2.221.127,3.333a7.253,7.253,0,0,1,6.883-3.833c4.87,0,8.41,4.109,8.41,10.557,0,7.571-4.062,11.644-9.161,11.644-3.4,0-5.184-1.444-6.132-3.121"/><path class="a" d="M433.152,371.146c0-1.844,0-3.706-.042-5.353h3.548c.1.624.154,2.86.144,3.491.844-1.826,2.564-4,6.651-4,3.96,0,7.06,2.437,7.06,8.086v13.661h-3.646V373.844c0-3.209-1.248-5.374-4.474-5.374-3.984,0-5.589,3.05-5.589,7.32v11.246h-3.651Z"/><path class="a" d="M476.153,357.84v3.329h9.31v25.868h3.844V361.169h9.3V357.84Z"/><path class="a" d="M467.875,387.043h3.841v-29.2h-3.841Z"/></g><g class="b" transform="translate(-316.581 -325.575)"><g class="b"><path class="a" d="M325.383,340.5a15.769,15.769,0,0,1-3.321.26c-2.46,0-5.281-1.32-5.281-6.181V331.8c0-4.9,2.821-6.181,5.281-6.181a21.557,21.557,0,0,1,3.361.32c.18.02.32.08.32.26v1.02c0,.12-.04.221-.24.221h-.06c-.72-.061-2.2-.181-3.361-.181-1.96,0-3.48,1.141-3.48,4.541v2.781c0,3.361,1.52,4.541,3.48,4.541,1.141,0,2.581-.1,3.3-.16h.08a.278.278,0,0,1,.32.32v.82C325.783,340.338,325.6,340.458,325.383,340.5Z"/><path class="a" d="M332.362,331a5.118,5.118,0,0,0-2.76.84v8.382a.416.416,0,0,1-.4.4h-.98a.4.4,0,0,1-.38-.4v-10.2a.385.385,0,0,1,.38-.4h.94a.384.384,0,0,1,.38.4v.42a4.779,4.779,0,0,1,2.821-.96q.42,0,.42.36v.82C332.782,330.876,332.642,331,332.362,331Z"/><path class="a" d="M342.3,335.677h-6.7v.28c0,2.381.94,3.261,2.78,3.261a27.419,27.419,0,0,0,3.561-.22h.1a.283.283,0,0,1,.32.28v.68c0,.26-.08.4-.4.46a18.141,18.141,0,0,1-3.581.34c-2.3,0-4.541-1.08-4.541-4.8v-1.8c0-2.861,1.581-4.681,4.441-4.681,2.921,0,4.4,1.84,4.4,4.681v1.08C342.684,335.5,342.543,335.677,342.3,335.677Zm-1.4-1.52c0-2.261-.859-3.14-2.62-3.14-1.72,0-2.68.979-2.68,3.14v.18h5.3Z"/><path class="a" d="M352.343,340.618h-.92a.4.4,0,0,1-.4-.4v-.44a6.091,6.091,0,0,1-3.081.98c-1.7,0-3.259-.74-3.259-3.24v-.241c0-2.16,1.259-3.24,4.82-3.24h1.48v-.8c0-1.679-.58-2.259-2.14-2.259a29.2,29.2,0,0,0-3.061.159h-.1c-.181,0-.361-.06-.361-.32v-.7c0-.22.14-.341.42-.381a17.348,17.348,0,0,1,3.1-.259c2.781,0,3.9,1.4,3.9,3.76v6.982A.4.4,0,0,1,352.343,340.618Zm-1.361-5.321H349.5c-2.42,0-3.061.54-3.061,1.961v.239c0,1.441.681,1.821,1.841,1.821a5.5,5.5,0,0,0,2.7-.8Z"/><path class="a" d="M360.462,340.658a9.731,9.731,0,0,1-1.3.1c-1.841,0-2.721-.48-2.721-2.681V331.1l-1.94-.22c-.22-.02-.38-.14-.38-.36v-.54a.352.352,0,0,1,.38-.36h1.94v-1.961a.407.407,0,0,1,.361-.4l1.04-.159h.059a.317.317,0,0,1,.3.34v2.18h2.16a.4.4,0,0,1,.4.4v.68a.4.4,0,0,1-.4.4H358.2v6.981c0,1.1.279,1.261,1.08,1.261h1.12c.281,0,.42.08.42.28v.7C360.822,340.5,360.723,340.618,360.462,340.658Z"/><path class="a" d="M370.783,335.677h-6.7v.28c0,2.381.939,3.261,2.78,3.261a27.419,27.419,0,0,0,3.561-.22h.1a.283.283,0,0,1,.32.28v.68c0,.26-.08.4-.4.46a18.148,18.148,0,0,1-3.581.34c-2.3,0-4.541-1.08-4.541-4.8v-1.8c0-2.861,1.58-4.681,4.442-4.681,2.92,0,4.4,1.84,4.4,4.681v1.08C371.163,335.5,371.023,335.677,370.783,335.677Zm-1.4-1.52c0-2.261-.861-3.14-2.62-3.14-1.721,0-2.681.979-2.681,3.14v.18h5.3Z"/><path class="a" d="M381.243,340.418a19.252,19.252,0,0,1-3.681.34c-2.981,0-4.361-1.941-4.361-4.941v-1.44c0-3.141,1.441-4.9,4.361-4.9a14.579,14.579,0,0,1,2.34.2v-3.721a.38.38,0,0,1,.38-.38H381.3a.363.363,0,0,1,.36.38v14C381.663,340.218,381.6,340.358,381.243,340.418Zm-1.341-9.262a15.465,15.465,0,0,0-2.34-.139c-1.96,0-2.6,1.219-2.6,3.36v1.44c0,2.181.62,3.4,2.6,3.4.68,0,1.661-.06,2.34-.12Z"/><path class="a" d="M393.421,340.758a19.4,19.4,0,0,1-3.681-.34c-.359-.06-.42-.18-.42-.46v-14a.364.364,0,0,1,.361-.38h1.02a.38.38,0,0,1,.38.38v3.721a14.223,14.223,0,0,1,2.34-.2c2.9,0,4.361,1.76,4.361,4.9v1.44C397.782,338.817,396.422,340.758,393.421,340.758Zm2.6-6.381c0-2.141-.639-3.36-2.6-3.36a15.619,15.619,0,0,0-2.34.139V339.1c.68.06,1.66.12,2.34.12,1.98,0,2.6-1.22,2.6-3.4Z"/><path class="a" d="M408.662,330.1l-3.3,11.522c-.62,2.161-1.36,2.961-3.661,2.961a8.306,8.306,0,0,1-1.679-.18c-.241-.06-.42-.12-.42-.32v-.74c0-.22.159-.32.379-.32h.06c.44.04,1.341.12,1.78.12,1.141,0,1.641-.3,1.981-1.7l.2-.82h-.28c-.6,0-1.12-.139-1.48-1.38L399.58,330.1a.357.357,0,0,1-.019-.14.321.321,0,0,1,.359-.34h1.1a.4.4,0,0,1,.339.32l2.361,8.682c.1.4.24.44.381.44h.319l2.44-9.142a.409.409,0,0,1,.381-.3h1.12a.311.311,0,0,1,.321.34A.325.325,0,0,1,408.662,330.1Z"/></g></g></svg>