<svg xmlns="http://www.w3.org/2000/svg" width="300" height="82.691" viewBox="0 0 300 82.691"><defs><style>.a,.b{fill:#fff;}.b{font-size:20px;font-family:HelveticaNeue-Bold, Helvetica Neue;font-weight:700;}</style></defs><g transform="translate(1 45.221)"><g transform="translate(190.751)"><path class="a" d="M1735.864,808.534a5.439,5.439,0,1,0,1.593,3.845A5.44,5.44,0,0,0,1735.864,808.534Zm-3.845,8.387a4.543,4.543,0,1,1,4.543-4.542A4.543,4.543,0,0,1,1732.018,816.921Z" transform="translate(-1726.578 -806.941)"/><path class="a" d="M1737.794,816.128h0a1.545,1.545,0,0,0,1.059-1.492,1.417,1.417,0,0,0-.678-1.236,3.245,3.245,0,0,0-1.834-.456,10.65,10.65,0,0,0-1.752.165v5.919h.855v-2.621h1.086q1.319,0,1.684,2.617h.856a8.236,8.236,0,0,0-.494-1.972A2.083,2.083,0,0,0,1737.794,816.128Zm-1.3-.379h-1.047v-2.076c.236-.024.536-.036.9-.036q1.682,0,1.684,1.05T1736.49,815.749Z" transform="translate(-1731.389 -810.544)"/></g><path class="a" d="M1252.692,832.94h7.13c3.625,0,6.143-1.721,6.143-5.361,0-3.17-2.014-5.3-6.877-5.3H1252.7Zm6.587-13.861c4.182,0,5.807-1.661,5.807-4.51,0-2.585-1.83-4.433-5.219-4.433h-7.175v8.944Zm-10.343-12.138h11.076c6.1,0,8.943,3.248,8.943,7.292a6.406,6.406,0,0,1-4.144,6.361,7.2,7.2,0,0,1,5.092,6.993c0,5.5-4.151,8.551-9.623,8.551h-11.341Z" transform="translate(-1248.936 -806.941)"/><g transform="translate(24.682 7.375)"><path class="a" d="M1325.7,834.641c-.042-3.5-1.791-6.319-5.409-6.319-3.72,0-5.361,2.609-5.73,6.319Zm-11.262,2.592c.028,4.33,2.193,7.413,5.787,7.413,3.347,0,4.433-1.738,5.107-3.3h3.682c-.832,2.729-3.1,6.373-8.9,6.373-6.654,0-9.369-5.444-9.369-10.928,0-6.333,3.17-11.383,9.6-11.383,6.828,0,9.062,5.515,9.062,10.057a17.667,17.667,0,0,1-.057,1.767Z" transform="translate(-1310.739 -825.407)"/></g><g transform="translate(93.326 7.375)"><path class="a" d="M1497.583,834.641c-.042-3.5-1.791-6.319-5.409-6.319-3.724,0-5.362,2.609-5.731,6.319Zm-11.263,2.592c.028,4.33,2.193,7.413,5.787,7.413,3.347,0,4.433-1.738,5.107-3.3h3.682c-.832,2.729-3.1,6.373-8.9,6.373-6.654,0-9.369-5.444-9.369-10.928,0-6.333,3.17-11.383,9.6-11.383,6.827,0,9.062,5.515,9.062,10.057a17.667,17.667,0,0,1-.057,1.767Z" transform="translate(-1482.625 -825.407)"/></g><g transform="translate(46.554 7.418)"><g transform="translate(0 0.003)"><path class="a" d="M1369.259,836.656c0,4.662,2.31,8.064,6.1,8.064,3.858,0,6.031-3.227,6.031-8.051,0-4.785-2.158-8.079-6.115-8.079s-6.02,3.214-6.02,8.065m15.886-.042c0,6.125-3.484,11.175-9.934,11.175-6.048,0-9.7-4.715-9.7-11.1,0-6.277,3.583-11.161,9.94-11.161,5.857,0,9.7,4.419,9.7,11.09" transform="translate(-1365.507 -825.523)"/></g><g transform="translate(24.356)"><path class="a" d="M1441.706,836.229c0-4.492-2.034-7.57-5.631-7.57-4.362,0-6.086,2.784-6.086,7.938,0,5.01,1.415,8.051,5.812,8.051,3.851,0,5.906-3.2,5.906-8.414m-11.547,8.382v10.951h-3.624V831.2c0-1.731,0-3.526-.042-5.174h3.537a33.18,33.18,0,0,1,.127,3.333,7.255,7.255,0,0,1,6.883-3.833c4.87,0,8.41,4.109,8.41,10.557,0,7.571-4.062,11.644-9.161,11.644-3.4,0-5.184-1.444-6.132-3.121" transform="translate(-1426.494 -825.515)"/></g></g><g transform="translate(116.529 7.45)"><path class="a" d="M1540.767,831.452c0-1.844,0-3.706-.042-5.353h3.548c.1.624.154,2.86.144,3.491.844-1.826,2.564-4,6.651-4,3.96,0,7.06,2.437,7.06,8.086v13.661h-3.646V834.15c0-3.209-1.248-5.374-4.474-5.374-3.984,0-5.589,3.05-5.589,7.32v11.246h-3.651Z" transform="translate(-1540.725 -825.595)"/></g><g transform="translate(159.568 0.001)"><path class="a" d="M1648.5,806.944v3.329h9.31v25.868h3.844V810.273h9.3v-3.329Z" transform="translate(-1648.496 -806.944)"/></g><path class="a" d="M1627.778,836.156h3.841v-29.2h-3.841Z" transform="translate(-1476.484 -806.952)"/></g><text class="b"><tspan x="0" y="20">Created by</tspan></text></svg>