<svg xmlns="http://www.w3.org/2000/svg" width="461" height="190.361" viewBox="0 0 461 190.361"><defs><style>.a,.b{fill:#fff;}.a{font-size:40px;font-family:NeoSansStd-Regular, Neo Sans Std;}</style></defs><g transform="translate(-105 137.361)"><text class="a" transform="translate(105 13)"><tspan x="0" y="31">Cloud Native Onboarding</tspan></text></g><g transform="translate(-860.061 -295.987)"><g transform="translate(860.061 295.987)"><path class="b" d="M912.711,318.835a30.034,30.034,0,0,1,18.443,6.306l15.764-16.007A51.754,51.754,0,0,0,912.711,296.2c-29.008,0-52.651,24.255-52.651,54.172,0,29.753,23.643,54.01,52.651,54.01A52.466,52.466,0,0,0,946.919,391.6l-15.764-16.171a30,30,0,0,1-40.038-2.913,31.336,31.336,0,0,1-8.986-22.151,31.722,31.722,0,0,1,8.986-22.317,29.777,29.777,0,0,1,21.6-9.219" transform="translate(-860.061 -296.12)"/><path class="b" d="M1189.875,354.06l-67.939-53.685V405.483h24.592V354.224l67.943,51.259V300.375h-24.6Z" transform="translate(-1025.614 -298.761)"/><path class="b" d="M1464.782,372.476a30.28,30.28,0,0,1-42.817.693q-.352-.34-.693-.693a32.2,32.2,0,0,1,0-44.633,30.287,30.287,0,0,1,42.826-.684q.347.336.684.684a32.2,32.2,0,0,1,0,44.633m-21.763-76.489c-29.164,0-52.806,24.255-52.806,54.172s23.642,54.172,52.806,54.172,52.81-24.255,52.81-54.172-23.646-54.172-52.81-54.172" transform="translate(-1195.215 -295.987)"/></g><g transform="translate(1164.193 295.987)"><path class="b" d="M1698.871,305.763h-1.1v-2.182c.247-.025.563-.038.942-.038q1.768,0,1.769,1.1t-1.611,1.116m1.369.4a1.625,1.625,0,0,0,1.113-1.568,1.49,1.49,0,0,0-.713-1.3,3.409,3.409,0,0,0-1.927-.479,11.177,11.177,0,0,0-1.841.173v6.219h.9v-2.754h1.141q1.385,0,1.769,2.75h.9a8.665,8.665,0,0,0-.52-2.072,2.183,2.183,0,0,0-.82-.971" transform="translate(-1693.212 -300.301)"/><path class="b" d="M1692.639,306.473a4.773,4.773,0,1,1,4.774-4.772,4.773,4.773,0,0,1-4.774,4.772m4.04-8.812a5.715,5.715,0,1,0,1.674,4.04,5.715,5.715,0,0,0-1.674-4.04" transform="translate(-1686.922 -295.987)"/></g></g></svg>