<svg xmlns="http://www.w3.org/2000/svg" width="286.721" height="294" viewBox="0 0 286.721 294"><defs><style>.a{fill:#2e54d4;}</style></defs><path class="a" d="M1592.65,503.545a82.229,82.229,0,0,1-116.238,1.88q-.955-.924-1.881-1.88a87.362,87.362,0,0,1,0-121.115,82.246,82.246,0,0,1,116.263-1.855q.942.913,1.856,1.855a87.363,87.363,0,0,1,0,121.115m-59.08-207.557c-79.173,0-143.356,65.818-143.356,147s64.183,147,143.356,147,143.365-65.818,143.365-147-64.193-147-143.365-147" transform="translate(-1390.213 -295.987)"/></svg>