<svg id="Calque_1" data-name="Calque 1" xmlns="http://www.w3.org/2000/svg" viewBox="0 0 303 690.17"><defs><style>.cls-1{fill:#f8f9fc;}.cls-2{fill:#171c2e;}.cls-3,.cls-7{fill:#2e54d4;}.cls-4{fill:#3158d0;}.cls-24,.cls-37,.cls-40,.cls-5,.cls-8,.cls-9{fill:none;}.cls-5{stroke:#3158d0;}.cls-24,.cls-37,.cls-5,.cls-8,.cls-9{stroke-miterlimit:10;}.cls-5,.cls-8,.cls-9{stroke-width:0.5px;}.cls-6{fill:#fff;}.cls-7{font-size:12px;font-family:Nunito-ExtraBold, Nunito;font-weight:800;}.cls-8{stroke:#171c2d;}.cls-9{stroke:#345ccd;}.cls-10{fill:#171c2d;}.cls-11{fill:#345ccd;}.cls-12{fill:#383838;}.cls-13{fill:#ed0000;}.cls-14{fill:#804a96;}.cls-15{fill:#783887;}.cls-16{fill:#703080;}.cls-17{fill:#703880;}.cls-18{fill:#753685;}.cls-19{fill:#6b2b7a;}.cls-20{fill:#804a8a;}.cls-21{fill:#591c69;}.cls-22{fill:#918096;}.cls-23{fill:#427af2;}.cls-24{stroke:#fff;stroke-width:0.05px;}.cls-25{fill:#4287f5;}.cls-26{fill:#999898;}.cls-27{fill:#3d7de3;}.cls-28{fill:#fefefe;}.cls-29{fill:#268fcc;}.cls-30{fill:#24bfd4;}.cls-31{fill:#21bfd1;}.cls-32{fill:#78bf42;}.cls-33{fill:#1a458a;}.cls-34{fill:#1c458a;}.cls-35{fill:#535353;}.cls-36{fill:#707070;}.cls-37{stroke:#707070;stroke-width:0.23px;}.cls-38{fill:#527cbe;}.cls-39{fill:#4954a0;}</style></defs><path class="cls-1" d="M9.06,586.71a6.56,6.56,0,0,0-6.56,6.56V618.6a6.57,6.57,0,0,0,6.56,6.57H277.94a6.57,6.57,0,0,0,6.56-6.57V593.27a6.56,6.56,0,0,0-6.56-6.56Z" transform="translate(8 65)"/><path class="cls-1" d="M-1,130.09a7,7,0,0,0-7,7v43.25a7,7,0,0,0,7,7H288a7,7,0,0,0,7-7V137.09a7,7,0,0,0-7-7Z" transform="translate(8 65)"/><path class="cls-1" d="M151.13-29.69v-2.54c-.3-1.91,1.83-4.74,4.76-6.34s6.5-1.48,7.9-.57c.78.5,1,.25.47-.55-.83-1.86-4.3-3.06-7.74-2.68-3,0-6.37,2.67-7.57,5.92-1.31,2.69-.44,6.9,1.94,9.42a8.44,8.44,0,0,0,1.38,1.21c.18.11.1-.13-.16-.54a8.13,8.13,0,0,1-1-3.33Z" transform="translate(8 65)"/><path class="cls-1" d="M256-29.69c0-.48,0-1.62,0-2.54-.31-1.91,1.82-4.74,4.75-6.34s6.5-1.48,7.91-.57c.77.5,1,.25.46-.55-.83-1.86-4.29-3.06-7.74-2.68-3,0-6.37,2.67-7.56,5.92-1.31,2.69-.45,6.9,1.93,9.42a8.86,8.86,0,0,0,1.39,1.21c.17.11.1-.13-.17-.54a8.28,8.28,0,0,1-1-3.33Z" transform="translate(8 65)"/><path class="cls-1" d="M40.27-29.69v-2.54C40-34.14,42.09-37,45-38.57s6.51-1.48,7.91-.57c.78.5,1,.25.47-.55-.84-1.86-4.3-3.06-7.74-2.68-3,0-6.38,2.67-7.57,5.92-1.31,2.69-.45,6.9,1.93,9.42a8.86,8.86,0,0,0,1.39,1.21c.17.11.1-.13-.17-.54a8.27,8.27,0,0,1-1-3.33Z" transform="translate(8 65)"/><path class="cls-1" d="M136.24-52.19v-3.75c0-2.41,3.91-6.32,8.74-6.32.28,0,.56,0,.69,0a8.12,8.12,0,0,0-1.32-1.14c-1.66-1.65-5.53-1.34-8.66.67-3,1.58-4.64,5.79-3.76,9.41s3.95,6.28,5.8,6.46c1,.1,1.38-.2.8-.65a8,8,0,0,1-2.29-4.71Z" transform="translate(8 65)"/><path class="cls-1" d="M145-40.79a13.22,13.22,0,0,1,2.56.21c.28.06,0-.21-.64-.6-.89-.81-3.79-1.45-6.48-1.44-8,0-14.55,6.43-14.53,15.17h2.32c1.29,0,2.52-1.74,2.75-3.89.28-5.2,6.55-9.43,14-9.44Z" transform="translate(8 65)"/><path class="cls-2" d="M140.42-45.71a9.64,9.64,0,0,0,9.64-9.64A9.65,9.65,0,0,0,140.42-65a9.65,9.65,0,0,0-9.65,9.65,9.65,9.65,0,0,0,9.65,9.64Zm0-17.46a7.82,7.82,0,0,1,7.82,7.82,7.82,7.82,0,0,1-7.82,7.82,7.83,7.83,0,0,1-7.83-7.82,7.83,7.83,0,0,1,7.83-7.82Z" transform="translate(8 65)"/><path class="cls-2" d="M140.41-41.71h0A13.35,13.35,0,0,1,149.78-38l1.27-1.32a15.21,15.21,0,0,0-10.62-4.24h0a15.16,15.16,0,0,0-10.94,4.59A16.2,16.2,0,0,0,125-27.45a1,1,0,0,0,.27.65.91.91,0,0,0,.65.26l24.37,0v-1.83l-23.43.05a14.25,14.25,0,0,1,4-9.3,13.33,13.33,0,0,1,9.63-4.05Z" transform="translate(8 65)"/><path class="cls-1" d="M25.36-52.19v-3.75c0-2.41,3.91-6.32,8.73-6.32.29,0,.56,0,.7,0a8.56,8.56,0,0,0-1.33-1.14c-1.65-1.65-5.53-1.34-8.66.67-2.95,1.58-4.64,5.79-3.76,9.41S25-47,26.84-46.83c1,.1,1.39-.2.8-.65a8,8,0,0,1-2.28-4.71Z" transform="translate(8 65)"/><path class="cls-1" d="M34.08-40.79a13.42,13.42,0,0,1,2.57.21c.27.06,0-.21-.65-.6-.88-.81-3.79-1.45-6.48-1.44-8,0-14.55,6.43-14.53,15.17h2.33c1.28,0,2.51-1.74,2.74-3.89.28-5.2,6.56-9.43,14-9.44Z" transform="translate(8 65)"/><path class="cls-2" d="M29.53-45.71a9.64,9.64,0,0,0,9.65-9.64A9.65,9.65,0,0,0,29.53-65a9.65,9.65,0,0,0-9.65,9.65,9.65,9.65,0,0,0,9.65,9.64Zm0-17.46a7.82,7.82,0,0,1,7.82,7.82,7.82,7.82,0,0,1-7.82,7.82,7.82,7.82,0,0,1-7.82-7.82,7.82,7.82,0,0,1,7.82-7.82Z" transform="translate(8 65)"/><path class="cls-2" d="M29.52-41.71h0A13.34,13.34,0,0,1,38.89-38l1.27-1.32a15.2,15.2,0,0,0-10.61-4.24h0a15.16,15.16,0,0,0-10.94,4.59,16.19,16.19,0,0,0-4.5,11.49.94.94,0,0,0,.26.65.92.92,0,0,0,.65.26l24.37,0v-1.83l-23.43.05a14.25,14.25,0,0,1,4-9.3,13.33,13.33,0,0,1,9.63-4.05Z" transform="translate(8 65)"/><path class="cls-1" d="M240.86-52.19v-3.75c0-2.41,3.91-6.32,8.73-6.32.28,0,.56,0,.7,0A8.56,8.56,0,0,0,249-63.37c-1.65-1.65-5.53-1.34-8.66.67-3,1.58-4.64,5.79-3.76,9.41s4,6.28,5.8,6.46c1,.1,1.38-.2.8-.65a8,8,0,0,1-2.28-4.71Z" transform="translate(8 65)"/><path class="cls-1" d="M249.58-40.79a13.22,13.22,0,0,1,2.56.21c.28.06,0-.21-.64-.6-.89-.81-3.79-1.45-6.48-1.44-8,0-14.55,6.43-14.53,15.17h2.32c1.29,0,2.52-1.74,2.75-3.89.28-5.2,6.56-9.43,14-9.44Z" transform="translate(8 65)"/><path class="cls-2" d="M245-45.71a9.64,9.64,0,0,0,9.64-9.64A9.65,9.65,0,0,0,245-65a9.65,9.65,0,0,0-9.65,9.65A9.65,9.65,0,0,0,245-45.71Zm0-17.46a7.82,7.82,0,0,1,7.82,7.82A7.82,7.82,0,0,1,245-47.53a7.83,7.83,0,0,1-7.83-7.82A7.83,7.83,0,0,1,245-63.17Z" transform="translate(8 65)"/><path class="cls-2" d="M245-41.71h0A13.34,13.34,0,0,1,254.39-38l1.27-1.32a15.2,15.2,0,0,0-10.61-4.24h0a15.16,15.16,0,0,0-10.94,4.59,16.19,16.19,0,0,0-4.5,11.49.94.94,0,0,0,.26.65.91.91,0,0,0,.65.26l24.37,0v-1.83l-23.43.05a14.25,14.25,0,0,1,4-9.3A13.33,13.33,0,0,1,245-41.71Z" transform="translate(8 65)"/><path class="cls-3" d="M160.6-36.09l-4.41,3.59-1.62-1.89a.9.9,0,0,0-1.28-.1.91.91,0,0,0-.1,1.29l2.19,2.56a.89.89,0,0,0,.69.32.89.89,0,0,0,.58-.2l5.1-4.15a.89.89,0,0,0,.33-.62,1,1,0,0,0-.2-.67,1,1,0,0,0-.62-.33.91.91,0,0,0-.66.2Z" transform="translate(8 65)"/><path class="cls-3" d="M265.48-36.09l-4.41,3.59-1.61-1.89a.92.92,0,0,0-1.29-.1.92.92,0,0,0-.1,1.29l2.19,2.56a.89.89,0,0,0,.69.32.87.87,0,0,0,.58-.2l5.1-4.15a.89.89,0,0,0,.33-.62.91.91,0,0,0-.2-.67,1,1,0,0,0-.61-.33,1,1,0,0,0-.67.2Z" transform="translate(8 65)"/><path class="cls-3" d="M49.73-36.09l-4.4,3.59-1.62-1.89a.92.92,0,0,0-1.29-.1.93.93,0,0,0-.1,1.29l2.19,2.56a.91.91,0,0,0,.7.32.85.85,0,0,0,.57-.2l5.1-4.15a.94.94,0,0,0,.34-.62A.92.92,0,0,0,51-36a1,1,0,0,0-.61-.33,1,1,0,0,0-.67.2Z" transform="translate(8 65)"/><path class="cls-3" d="M157.52-43.34a10,10,0,0,0-10,10,10,10,0,0,0,10,10,10,10,0,0,0,10-10,10,10,0,0,0-2.92-7.12,10,10,0,0,0-7.12-2.92Zm0,18.25a8.21,8.21,0,0,1-8.21-8.21,8.22,8.22,0,0,1,8.21-8.22,8.22,8.22,0,0,1,8.22,8.22,8.21,8.21,0,0,1-8.22,8.21Z" transform="translate(8 65)"/><path class="cls-3" d="M262.4-43.34a10,10,0,0,0-10,10,10,10,0,0,0,10,10,10,10,0,0,0,10.05-10,10,10,0,0,0-2.93-7.12,10,10,0,0,0-7.12-2.92Zm0,18.25a8.21,8.21,0,0,1-8.21-8.21,8.22,8.22,0,0,1,8.21-8.22,8.22,8.22,0,0,1,8.22,8.22,8.21,8.21,0,0,1-8.22,8.21Z" transform="translate(8 65)"/><path class="cls-3" d="M46.66-43.34a10,10,0,0,0-10,10,10,10,0,0,0,10,10,10,10,0,0,0,10-10,10,10,0,0,0-2.93-7.12,10,10,0,0,0-7.11-2.92Zm0,18.25a8.21,8.21,0,0,1-8.22-8.21,8.22,8.22,0,0,1,8.22-8.22,8.21,8.21,0,0,1,8.21,8.22,8.2,8.2,0,0,1-8.21,8.21Z" transform="translate(8 65)"/><path class="cls-4" d="M223.51,308.74a7,7,0,0,0,7-7v-17h-174v17a7,7,0,0,0,7,7Z" transform="translate(8 65)"/><path class="cls-4" d="M223.51,413.11a7,7,0,0,0,7-7v-17h-174v17a7,7,0,0,0,7,7Z" transform="translate(8 65)"/><path class="cls-5" d="M59.74,261.16a3,3,0,0,0-3,3v20.33H230.26V264.16a3,3,0,0,0-3-3Zm0,104.37a3,3,0,0,0-3,3v20.33H230.26V368.53a3,3,0,0,0-3-3Z" transform="translate(8 65)"/><path class="cls-6" d="M78.51,301.86a.21.21,0,0,0,.23.24h1.5a.21.21,0,0,0,.23-.24v-3.65h1.74a1.87,1.87,0,0,0,2.09-2.08v-3.54a1.86,1.86,0,0,0-2.09-2.08H78.74a.21.21,0,0,0-.23.23v11.12Zm2-5.56v-3.88h1.28a.51.51,0,0,1,.58.58v2.72a.52.52,0,0,1-.58.58Zm14-3.71a1.86,1.86,0,0,0-2.08-2.08H88.73a.21.21,0,0,0-.23.23v11.12a.22.22,0,0,0,.23.24h1.51a.22.22,0,0,0,.23-.24v-3.65h1l1,3.68a.23.23,0,0,0,.25.21h1.5c.16,0,.25-.09.21-.27l-1-3.79a1.88,1.88,0,0,0,1-1.91v-3.54Zm-4,3.71v-3.88h1.44a.52.52,0,0,1,.58.58v2.72a.52.52,0,0,1-.58.58Zm14.11-5.56c0-.15-.06-.23-.23-.23H99a.21.21,0,0,0-.22.23v11.12a.22.22,0,0,0,.22.24h5.33c.17,0,.23-.09.23-.24v-1.44c0-.16-.06-.24-.23-.24h-3.62v-2.92h2.76a.22.22,0,0,0,.24-.25v-1.43a.22.22,0,0,0-.24-.25h-2.76v-2.9h3.62c.17,0,.23-.1.23-.24v-1.45Zm4.35,6.81a.26.26,0,0,0,.29.29h2.28a.26.26,0,0,0,.29-.29v-1.34a.26.26,0,0,0-.29-.29h-2.28a.26.26,0,0,0-.29.29v1.34Zm7.21,4.31a.22.22,0,0,0,.23.24h1.51a.21.21,0,0,0,.23-.24v-3.65h1.74a1.87,1.87,0,0,0,2.08-2.08v-3.54a1.86,1.86,0,0,0-2.08-2.08h-3.48a.21.21,0,0,0-.23.23v11.12Zm2-5.56v-3.88h1.28a.51.51,0,0,1,.58.58v2.72a.52.52,0,0,1-.58.58Zm14-3.71a1.86,1.86,0,0,0-2.08-2.08h-3.64a.21.21,0,0,0-.23.23v11.12a.21.21,0,0,0,.23.24h1.5a.22.22,0,0,0,.24-.24v-3.65h1l1,3.68a.23.23,0,0,0,.24.21h1.51c.16,0,.25-.09.2-.27L131,298a1.87,1.87,0,0,0,1.06-1.91v-3.54Zm-4,3.71v-3.88h1.43a.52.52,0,0,1,.58.58v2.72a.52.52,0,0,1-.58.58Zm8,3.71a1.87,1.87,0,0,0,2.08,2.09h1.63a1.87,1.87,0,0,0,2.08-2.09v-7.42a1.86,1.86,0,0,0-2.08-2.08h-1.63a1.86,1.86,0,0,0-2.08,2.08V300Zm2.5.22a.52.52,0,0,1-.58-.58V293a.53.53,0,0,1,.58-.58h.84a.52.52,0,0,1,.58.58v6.7a.51.51,0,0,1-.58.58Zm7.64,1.63c0,.16.07.24.23.24H150a1.87,1.87,0,0,0,2.08-2.09v-7.4a1.87,1.87,0,0,0-2.08-2.1h-3.48a.2.2,0,0,0-.23.23v11.12Zm2-1.68v-7.76h1.33a.52.52,0,0,1,.58.59v6.6a.51.51,0,0,1-.58.57Zm12.34-9.67a.29.29,0,0,0-.29.29v8.81a.51.51,0,0,1-.58.57H159a.51.51,0,0,1-.58-.57V290.8a.29.29,0,0,0-.29-.29h-1.39a.29.29,0,0,0-.29.29V300a1.87,1.87,0,0,0,2.08,2.09h1.63a1.87,1.87,0,0,0,2.08-2.09V290.8a.29.29,0,0,0-.29-.29Zm11.78,2.08a1.87,1.87,0,0,0-2.09-2.08h-1.62a1.87,1.87,0,0,0-2.1,2.08V300a1.88,1.88,0,0,0,2.1,2.09h1.62a1.88,1.88,0,0,0,2.09-2.09v-1.56a.22.22,0,0,0-.23-.24H170.7a.21.21,0,0,0-.23.24v1.16a.51.51,0,0,1-.58.57h-.76a.51.51,0,0,1-.58-.57V293a.51.51,0,0,1,.58-.58h.76a.52.52,0,0,1,.58.58v1.16a.21.21,0,0,0,.23.23h1.45a.22.22,0,0,0,.23-.23v-1.57Zm3.85-2.08a.21.21,0,0,0-.23.23v1.45a.22.22,0,0,0,.23.23h1.68v9.44a.22.22,0,0,0,.24.24h1.5c.16,0,.23-.08.23-.24v-9.44h1.68a.21.21,0,0,0,.23-.23v-1.45a.2.2,0,0,0-.23-.23Zm9.85,0a.2.2,0,0,0-.23.23v11.12a.21.21,0,0,0,.23.24h1.51a.22.22,0,0,0,.23-.24V290.74a.21.21,0,0,0-.23-.23Zm6.09,9.5a1.87,1.87,0,0,0,2.08,2.09h1.63A1.87,1.87,0,0,0,198,300v-7.42a1.86,1.86,0,0,0-2.08-2.08h-1.63a1.86,1.86,0,0,0-2.08,2.08V300Zm2.5.22a.52.52,0,0,1-.58-.58V293a.53.53,0,0,1,.58-.58h.84a.53.53,0,0,1,.59.58v6.7a.52.52,0,0,1-.59.58Zm12.09-9.72a.21.21,0,0,0-.24.23v6.11h-.08l-2.2-6.15a.26.26,0,0,0-.27-.19h-1.43a.21.21,0,0,0-.23.23v11.12a.22.22,0,0,0,.23.24h1.51a.21.21,0,0,0,.23-.24v-6.14h.07l2.22,6.19a.25.25,0,0,0,.26.19h1.43a.21.21,0,0,0,.23-.24V290.74a.21.21,0,0,0-.23-.23Z" transform="translate(8 65)"/><text class="cls-7" transform="translate(100.99 343.28)">Deplo</text><text class="cls-7" transform="translate(135.05 343.28)">yment Aut</text><text class="cls-7" transform="translate(194.94 343.28)">o</text><text class="cls-7" transform="translate(93.98 447.64)">Deplo</text><text class="cls-7" transform="translate(128.03 447.64)">yment Manuel</text><line class="cls-8" x1="151.39" y1="57.44" x2="151.39" y2="102"/><line class="cls-9" x1="151.39" y1="502.66" x2="151.39" y2="547.22"/><path class="cls-5" d="M143.39,216.35v44.56m0,59.81v44.56" transform="translate(8 65)"/><path class="cls-8" d="M17-9.76h83.92a3,3,0,0,1,3,3V37" transform="translate(8 65)"/><path class="cls-9" d="M23.41,435.46h83.92a3,3,0,0,1,3,3v43.76" transform="translate(8 65)"/><path class="cls-8" d="M270-9.76H186.08a3,3,0,0,0-3,3V37" transform="translate(8 65)"/><path class="cls-9" d="M259.93,435.46H176a3,3,0,0,0-3,3v43.76" transform="translate(8 65)"/><polygon class="cls-10" points="151.31 106.89 147.77 102 154.86 102 151.31 106.89 151.31 106.89"/><polygon class="cls-11" points="151.31 552.1 147.77 547.22 154.86 547.22 151.31 552.1 151.31 552.1"/><polygon class="cls-10" points="111.91 106.89 108.36 102 115.45 102 111.91 106.89 111.91 106.89"/><polygon class="cls-11" points="118.32 552.1 114.77 547.22 121.86 547.22 118.32 552.1 118.32 552.1"/><polygon class="cls-10" points="191.09 106.89 194.64 102 187.55 102 191.09 106.89 191.09 106.89"/><polygon class="cls-11" points="181.02 552.1 184.57 547.22 177.48 547.22 181.02 552.1 181.02 552.1"/><path class="cls-10" d="M14.55-10A2.45,2.45,0,0,0,17-7.56,2.45,2.45,0,0,0,19.45-10,2.45,2.45,0,0,0,17-12.46,2.45,2.45,0,0,0,14.55-10Z" transform="translate(8 65)"/><path class="cls-11" d="M21,435.21a2.45,2.45,0,1,0,2.45-2.45A2.45,2.45,0,0,0,21,435.21Z" transform="translate(8 65)"/><path class="cls-10" d="M272.45-10A2.45,2.45,0,0,1,270-7.56,2.45,2.45,0,0,1,267.55-10,2.45,2.45,0,0,1,270-12.46,2.45,2.45,0,0,1,272.45-10Z" transform="translate(8 65)"/><path class="cls-11" d="M262.38,435.21a2.45,2.45,0,1,1-2.45-2.45,2.45,2.45,0,0,1,2.45,2.45Z" transform="translate(8 65)"/><path class="cls-10" d="M140.45-9.55a2.92,2.92,0,0,0,2.94,2.9,2.93,2.93,0,0,0,3-2.9,2.93,2.93,0,0,0-3-2.91,2.92,2.92,0,0,0-2.94,2.91Z" transform="translate(8 65)"/><path class="cls-11" d="M140.45,435.66a2.95,2.95,0,1,0,2.94-2.9,2.92,2.92,0,0,0-2.94,2.9Z" transform="translate(8 65)"/><path class="cls-11" d="M140.45,214.36a2.95,2.95,0,1,0,2.94-2.91,2.92,2.92,0,0,0-2.94,2.91Z" transform="translate(8 65)"/><path class="cls-11" d="M140.45,318.72a2.95,2.95,0,1,0,2.94-2.9,2.92,2.92,0,0,0-2.94,2.9Z" transform="translate(8 65)"/><path class="cls-10" d="M267.55-10A2.45,2.45,0,0,0,270-7.56,2.45,2.45,0,0,0,272.45-10,2.45,2.45,0,0,0,270-12.46,2.45,2.45,0,0,0,267.55-10Z" transform="translate(8 65)"/><path class="cls-11" d="M257.48,435.21a2.45,2.45,0,1,0,2.45-2.45,2.45,2.45,0,0,0-2.45,2.45Z" transform="translate(8 65)"/><path class="cls-2" d="M103.49,75.36A12.31,12.31,0,0,1,111,78l6.46-6.59a21.14,21.14,0,0,0-14-5.34C91.6,66,81.91,76,81.91,88.36s9.69,22.26,21.58,22.26a21.44,21.44,0,0,0,14-5.26L111,98.69a12.24,12.24,0,0,1-16.4-1.2A13,13,0,0,1,91,88.36a13.12,13.12,0,0,1,3.67-9.2,12.22,12.22,0,0,1,8.86-3.8Z" transform="translate(8 65)"/><polygon class="cls-2" points="157.22 153.79 129.38 131.67 129.38 174.99 139.46 174.99 139.46 153.86 167.29 174.99 167.29 131.67 157.22 131.67 157.22 153.79 157.22 153.79"/><path class="cls-3" d="M183.45,66c-11.95,0-21.64,10-21.64,22.33s9.69,22.32,21.64,22.32,21.64-10,21.64-22.32S195.4,66,183.45,66Zm8.91,31.53a12.35,12.35,0,0,1-17.54.28l-.28-.28a13.33,13.33,0,0,1,0-18.4,12.36,12.36,0,0,1,17.54-.29l.28.29a13.33,13.33,0,0,1,0,18.4Z" transform="translate(8 65)"/><path class="cls-12" d="M222.07,71.77a1.59,1.59,0,0,0,1.1-1.54,1.5,1.5,0,0,0-.7-1.29,3.45,3.45,0,0,0-1.9-.47,12.18,12.18,0,0,0-1.81.17v6.13h.88V72.06h1.13c.9,0,1.49.9,1.74,2.71h.88a8,8,0,0,0-.51-2,2.16,2.16,0,0,0-.81-1Zm-1.34-.39h-1.09V69.24a7.23,7.23,0,0,1,.93,0q1.74,0,1.74,1.08c0,.73-.53,1.1-1.58,1.1Z" transform="translate(8 65)"/><path class="cls-2" d="M224.76,67.65a5.63,5.63,0,1,0,1.65,4,5.57,5.57,0,0,0-1.65-4Zm-4,8.68a4.7,4.7,0,1,1,4.71-4.7h0a4.72,4.72,0,0,1-4.71,4.7Z" transform="translate(8 65)"/><path class="cls-6" d="M97.32,406.06a.22.22,0,0,0,.24.23h1.5a.21.21,0,0,0,.23-.23V402.4H101a1.87,1.87,0,0,0,2.09-2.08v-3.54A1.87,1.87,0,0,0,101,394.7H97.56a.22.22,0,0,0-.24.23v11.13Zm2-5.57v-3.88h1.28a.51.51,0,0,1,.58.58v2.72a.52.52,0,0,1-.58.58Zm14-3.71a1.86,1.86,0,0,0-2.08-2.08h-3.64a.22.22,0,0,0-.23.23v11.13a.22.22,0,0,0,.23.23h1.51a.22.22,0,0,0,.23-.23V402.4h1l1,3.68a.23.23,0,0,0,.25.21H113c.16,0,.25-.09.2-.26l-1-3.8a1.87,1.87,0,0,0,1-1.91v-3.54Zm-4,3.71v-3.88h1.43a.52.52,0,0,1,.58.58v2.72a.52.52,0,0,1-.58.58Zm8,3.71a1.87,1.87,0,0,0,2.08,2.09H121a1.87,1.87,0,0,0,2.08-2.09v-7.42A1.86,1.86,0,0,0,121,394.7h-1.63a1.86,1.86,0,0,0-2.08,2.08v7.42Zm2.51.22a.51.51,0,0,1-.58-.58v-6.69a.52.52,0,0,1,.58-.58h.84a.52.52,0,0,1,.58.58v6.69a.52.52,0,0,1-.58.58Zm7.63,1.64c0,.16.07.23.23.23h3.48a1.87,1.87,0,0,0,2.08-2.09v-7.4a1.87,1.87,0,0,0-2.08-2.1H127.7a.21.21,0,0,0-.23.23v11.13Zm2-1.68v-7.77h1.33a.52.52,0,0,1,.58.59v6.6a.51.51,0,0,1-.58.58Zm12.34-9.68a.29.29,0,0,0-.29.29v8.81a.51.51,0,0,1-.58.58h-.75a.51.51,0,0,1-.58-.58V395a.29.29,0,0,0-.29-.29H137.9a.29.29,0,0,0-.29.29v9.21a1.87,1.87,0,0,0,2.09,2.09h1.62a1.87,1.87,0,0,0,2.08-2.09V395a.29.29,0,0,0-.28-.29Zm11.78,2.08a1.87,1.87,0,0,0-2.08-2.08h-1.63a1.87,1.87,0,0,0-2.1,2.08v7.42a1.88,1.88,0,0,0,2.1,2.09h1.63a1.88,1.88,0,0,0,2.08-2.09v-1.56a.21.21,0,0,0-.23-.23h-1.45a.2.2,0,0,0-.23.23v1.16a.51.51,0,0,1-.58.58h-.75a.51.51,0,0,1-.58-.58v-6.61a.51.51,0,0,1,.58-.58h.75a.52.52,0,0,1,.58.58v1.16a.21.21,0,0,0,.23.23h1.45a.22.22,0,0,0,.23-.23v-1.57Zm3.86-2.08a.22.22,0,0,0-.24.23v1.45a.22.22,0,0,0,.24.23h1.68v9.45a.21.21,0,0,0,.23.23h1.5a.2.2,0,0,0,.23-.23v-9.45h1.68a.21.21,0,0,0,.24-.23v-1.45a.21.21,0,0,0-.24-.23Zm9.85,0a.21.21,0,0,0-.23.23v11.13a.21.21,0,0,0,.23.23h1.5a.21.21,0,0,0,.23-.23V394.93a.21.21,0,0,0-.23-.23Zm6.08,9.5a1.87,1.87,0,0,0,2.08,2.09h1.63a1.87,1.87,0,0,0,2.08-2.09v-7.42a1.86,1.86,0,0,0-2.08-2.08h-1.63a1.86,1.86,0,0,0-2.08,2.08v7.42Zm2.51.22a.51.51,0,0,1-.58-.58v-6.69a.52.52,0,0,1,.58-.58h.84a.52.52,0,0,1,.58.58v6.69a.52.52,0,0,1-.58.58Zm12.08-9.72a.21.21,0,0,0-.23.23V401h-.09l-2.2-6.15a.26.26,0,0,0-.26-.19h-1.44a.22.22,0,0,0-.23.23v11.13a.22.22,0,0,0,.23.23h1.51a.21.21,0,0,0,.23-.23v-6.15h.07l2.22,6.19a.25.25,0,0,0,.26.19h1.43a.22.22,0,0,0,.24-.23V394.93a.22.22,0,0,0-.24-.23Z" transform="translate(8 65)"/><path class="cls-3" d="M178.33,511.28v51.25c0,2.49-1.71,4.53-3.81,4.53H111.26c-2.09,0-3.81-2-3.81-4.53V511.28c0-2.49,1.72-4.53,3.81-4.53h63.26c2.1,0,3.81,2,3.81,4.53Z" transform="translate(8 65)"/><path class="cls-6" d="M142.65,524.87l-2.6,2.6c-.78-.81-1.55-1.67-2.39-2.46a3.48,3.48,0,0,0-4-.74,3.52,3.52,0,0,0-2.26,3.3,3.65,3.65,0,0,0,2.19,3.47,3.69,3.69,0,0,0,4.1-.74c1.4-1.36,2.78-2.76,4.16-4.14s2.47-2.51,3.75-3.72a7.34,7.34,0,0,1,12.3,3.71A7.31,7.31,0,0,1,151,535a7.23,7.23,0,0,1-5.46-2.15c-.79-.78-1.57-1.57-2.31-2.32l2.64-2.64c.77.82,1.54,1.75,2.43,2.57a3.69,3.69,0,1,0,4.38-5.91,3.63,3.63,0,0,0-4.52.5c-1.49,1.45-3,2.94-4.43,4.41l-3.34,3.34a7.13,7.13,0,0,1-7.35,1.9,7,7,0,0,1-5.1-5.55,7.34,7.34,0,0,1,12.48-6.52l2.27,2.28Z" transform="translate(8 65)"/><path class="cls-6" d="M118.28,543.73a1.78,1.78,0,0,0-2,2V549a.49.49,0,0,0,.37.51l3.25,1.07v1.83a.49.49,0,0,1-.55.55h-.66a.5.5,0,0,1-.55-.55V551.3a.19.19,0,0,0-.22-.22h-1.42a.2.2,0,0,0-.22.22v1.44a1.77,1.77,0,0,0,2,2h1.54a1.77,1.77,0,0,0,2-2v-3.17a.5.5,0,0,0-.36-.51L118.17,548v-1.9a.5.5,0,0,1,.55-.55h.66a.49.49,0,0,1,.55.55v1.08a.21.21,0,0,0,.22.22h1.43a.2.2,0,0,0,.22-.22v-1.46a1.77,1.77,0,0,0-2-2Zm11.6,0a.28.28,0,0,0-.27.28v8.35a.49.49,0,0,1-.55.55h-.72a.49.49,0,0,1-.55-.55V544a.28.28,0,0,0-.27-.28H126.2a.29.29,0,0,0-.28.28v8.73a1.77,1.77,0,0,0,2,2h1.54a1.77,1.77,0,0,0,2-2V544a.29.29,0,0,0-.28-.28Zm11.17,2a1.78,1.78,0,0,0-2-2h-1.54a1.78,1.78,0,0,0-2,2v7a1.78,1.78,0,0,0,2,2h1.54a1.77,1.77,0,0,0,2-2v-1.48a.2.2,0,0,0-.22-.22h-1.37a.2.2,0,0,0-.22.22v1.1a.49.49,0,0,1-.55.55H138a.49.49,0,0,1-.55-.55v-6.27a.49.49,0,0,1,.55-.55h.72a.5.5,0,0,1,.55.55v1.1a.2.2,0,0,0,.22.22h1.37a.2.2,0,0,0,.22-.22v-1.48Zm9.6-1.76c0-.14-.05-.22-.22-.22h-5.05a.2.2,0,0,0-.21.22V554.5a.2.2,0,0,0,.21.22h5.05c.17,0,.22-.08.22-.22v-1.37c0-.15-.05-.22-.22-.22H147v-2.78h2.62a.2.2,0,0,0,.22-.23v-1.36a.2.2,0,0,0-.22-.23H147v-2.75h3.43c.17,0,.22-.1.22-.24V544Zm5.69-.22a1.78,1.78,0,0,0-2,2V549a.49.49,0,0,0,.37.51l3.25,1.07v1.83a.49.49,0,0,1-.55.55h-.66a.5.5,0,0,1-.55-.55V551.3a.19.19,0,0,0-.22-.22h-1.42a.2.2,0,0,0-.22.22v1.44a1.77,1.77,0,0,0,2,2h1.54a1.77,1.77,0,0,0,2-2v-3.17a.5.5,0,0,0-.36-.51L156.23,548v-1.9a.5.5,0,0,1,.55-.55h.66a.49.49,0,0,1,.55.55v1.08a.21.21,0,0,0,.22.22h1.43a.2.2,0,0,0,.22-.22v-1.46a1.77,1.77,0,0,0-2-2Zm9.62,0a1.78,1.78,0,0,0-2,2V549a.5.5,0,0,0,.37.51l3.26,1.07v1.83a.49.49,0,0,1-.55.55h-.66a.5.5,0,0,1-.55-.55V551.3a.19.19,0,0,0-.22-.22H164.2a.2.2,0,0,0-.22.22v1.44a1.77,1.77,0,0,0,2,2h1.54a1.77,1.77,0,0,0,2-2v-3.17a.52.52,0,0,0-.36-.51L165.85,548v-1.9a.5.5,0,0,1,.55-.55h.66a.49.49,0,0,1,.55.55v1.08a.2.2,0,0,0,.22.22h1.43a.2.2,0,0,0,.22-.22v-1.46a1.77,1.77,0,0,0-2-2Z" transform="translate(8 65)"/><path class="cls-13" d="M224.68,160.27c1.76,0,4.31-.37,4.31-2.46a2,2,0,0,0,0-.49l-1-4.56c-.25-1-.46-1.46-2.22-2.34a20.65,20.65,0,0,0-5.23-1.86c-.83,0-1.07,1.07-2,1.07s-1.64-.79-2.52-.79-1.4.57-1.83,1.76c0,0-1.18,3.35-1.33,3.83a.84.84,0,0,0,0,.27c0,1.3,5.12,5.57,12,5.57m4.58-1.61a6.73,6.73,0,0,1,.25,1.43c0,2-2.22,3.06-5.14,3.06-6.6,0-12.37-3.86-12.37-6.41a2.6,2.6,0,0,1,.21-1c-2.37.12-5.44.55-5.44,3.25,0,4.44,10.52,9.91,18.84,9.91,6.39,0,8-2.89,8-5.17,0-1.79-1.55-3.83-4.35-5" transform="translate(8 65)"/><path d="M229.26,158.66a6.82,6.82,0,0,1,.25,1.42c0,2-2.22,3.07-5.14,3.07-6.6,0-12.37-3.86-12.37-6.41a2.6,2.6,0,0,1,.21-1l.52-1.28a.84.84,0,0,0,0,.27c0,1.3,5.12,5.57,12,5.57,1.76,0,4.31-.37,4.31-2.46a2,2,0,0,0,0-.49l.31,1.34Z" transform="translate(8 65)"/><path class="cls-14" d="M63.73,162.91v-.52c0-2.5,0-5,0-7.49,0-.38.08-.45.45-.32,1.47.54,3,1.06,4.44,1.56a.56.56,0,0,1,.44.64c0,1.27,0,2.55,0,3.82,0,.19,0,.36-.24.45l-4.94,1.87a.32.32,0,0,1-.13,0Z" transform="translate(8 65)"/><path class="cls-14" d="M81.89,171.47v-1.09c0-2.3,0-4.61,0-6.91,0-.37,0-.51.45-.35,1.51.56,3,1.09,4.56,1.62a.37.37,0,0,1,.31.41c0,1.36,0,2.72,0,4.08a.31.31,0,0,1-.24.36l-4.86,1.84-.2,0Z" transform="translate(8 65)"/><path class="cls-14" d="M74.78,150.17c0,.65,0,1.29,0,1.93a.44.44,0,0,1-.32.5q-2.31.85-4.61,1.75c-.35.14-.39,0-.39-.29q0-3.85,0-7.71c0-.34.08-.39.4-.28,1.53.56,3.07,1.1,4.6,1.64a.39.39,0,0,1,.32.45c0,.67,0,1.34,0,2Z" transform="translate(8 65)"/><path class="cls-14" d="M81.92,146l2.92,1c.66.23,1.32.48,2,.7a.44.44,0,0,1,.37.5c0,1.3,0,2.6,0,3.9,0,.24,0,.4-.31.5q-2.34.87-4.65,1.77c-.28.11-.36.07-.36-.24,0-2.64,0-5.29,0-7.93a1.31,1.31,0,0,1,0-.23Z" transform="translate(8 65)"/><path class="cls-14" d="M69.48,167.26c0-1.3,0-2.6,0-3.9,0-.33.09-.37.38-.26q2.33.84,4.65,1.65a.37.37,0,0,1,.29.42q0,2,0,4a.4.4,0,0,1-.31.45c-1.54.58-3.07,1.16-4.6,1.77-.36.14-.41,0-.41-.31,0-1.27,0-2.54,0-3.81Z" transform="translate(8 65)"/><path class="cls-14" d="M93.21,161.07l-4.67,1.81c-.26.1-.27,0-.27-.21v-7.9c0-.24,0-.32.31-.23l4.72,1.69a1.12,1.12,0,0,1,.18.71c0,1,0,2.06,0,3.09,0,.35.13.76-.32,1l0,.07Z" transform="translate(8 65)"/><path class="cls-14" d="M76.23,154.51c1.69.56,3.38,1.15,5,1.79-.2.17,0,.34,0,.52,0,.82,0,1.66,0,2.49a8.56,8.56,0,0,1-.07,1.68l-3.86,1.51c-.36.14-.73.26-1.09.39q0-4.19,0-8.38Z" transform="translate(8 65)"/><path class="cls-15" d="M62.86,162.49c.09.33.1.52-.35.34-1.08-.43-2.18-.84-3.27-1.24a.43.43,0,0,1-.35-.48q0-2.45,0-4.89c0-.27.06-.42.35-.51,1.11-.37,2.21-.76,3.3-1.16.25-.1.39-.11.36.22a13.85,13.85,0,0,1,0,1.44l-.06-1.31h0V162c0-1.27,0-2.53.06-3.8a14,14,0,0,1,0-1.83c.09,1.29,0,2.59,0,3.88a17.36,17.36,0,0,1,0,2s-.09,0-.09.06,0,.09.09.1Zm-3.06-6.27c-.59,0-.66.06-.66.57v3.8c0,.43.2.56.67.48a1.19,1.19,0,0,0,0-.26c0-1.43,0-2.86,0-4.29,0-.11,0-.21-.06-.3Zm2.62.18c.11.15.06.32.06.48v5a1.24,1.24,0,0,0,.08-.19c0-1.94,0-3.88,0-5.82,0-.12,0-.25-.15-.28-.23-.3-.46,0-.68,0-.37,0-.48.22-.47.59,0,1.58,0,3.17,0,4.75,0,.83-.13.6.67.9.36.13.46.06.45-.34,0-1.71,0-3.41,0-5.11Zm-1.48,2.24c0-.82,0-1.64,0-2.46,0-.1.08-.25-.08-.3a.69.69,0,0,0-.78.59c0,1.41,0,2.81,0,4.21a.65.65,0,0,0,.62.77c.23.06.27,0,.27-.21,0-.87,0-1.73,0-2.6ZM59,156.42h0V161h0v-4.56Zm2.11,4.18h0v-4.09h0v4.09Z" transform="translate(8 65)"/><path class="cls-16" d="M68.59,146.1c.11,0,0,.09,0,.13,0,2.61,0,5.23,0,7.84,0,.33-.06.4-.39.27-1.1-.43-2.2-.85-3.31-1.25a.42.42,0,0,1-.31-.46c0-1.64,0-3.28,0-4.93,0-.17,0-.34.21-.42,1.16-.39,2.31-.8,3.47-1.2.08.11.17.11.27,0Zm-3.73,6.35c.69.28.69.28.69-.44,0-1.3,0-2.6,0-3.9,0-.44-.13-.5-.51-.31-.21.11-.15.28-.15.43l0,3.85a3.77,3.77,0,0,1,0-1.06c0-1.11,0-2.21,0-3.32-.09,1.52-.09,3-.09,4.55a.19.19,0,0,0,.14.2Zm.93,0c0,.47.38.4.64.52s.26,0,.26-.2c0-1.72,0-3.43,0-5.15,0-.08,0-.18-.08-.23s-.75.25-.81.48c-.29-.08-.16.16-.16.24,0,1.33,0,2.65,0,4,0,.14-.07.32.16.36Zm1.19-.18c.08.94.09.93.85,1.14.23.06.33,0,.32-.23s0-.6,0-.89v-5c0-.12.07-.35-.1-.34a4.1,4.1,0,0,0-.9.23c-.24.08-.07.32-.16.47s-.1.23-.1.36c0,1.29,0,2.57,0,3.86,0,.13,0,.27.1.36Zm1.52,1.14,0,0v-7h0v6.95Zm0,.52c0,.15-.06.24,0,.33a.33.33,0,0,0,0-.33Z" transform="translate(8 65)"/><path class="cls-16" d="M68.58,163.05a.53.53,0,0,1,0,.35q0,3.84,0,7.68c0,.09.22.47-.21.31,0,0,.12,0,.09-.07l-.09.07-3.57-1.32c-.26-.1-.21-.29-.17-.48l.21-.08c.67.22.67.22.67-.49v-3.63c0-.67,0-.67-.64-.55-.26,0-.18.23-.18.38,0,1,0,2,0,3a3.77,3.77,0,0,1,0,1.11l0-4.79a.14.14,0,0,1,.08-.14c0,.07,0,.13,0,.2l0,0a.13.13,0,0,0-.07-.17c1.15-.47,2.33-.87,3.51-1.25a.44.44,0,0,1,.27.48,6.4,6.4,0,0,0,0,.76h.09v-1.32Zm-2.79,6.45c0,.45.38.37.63.48s.27,0,.27-.2c0-1.72,0-3.43,0-5.14,0-.08,0-.18-.07-.23s-.74.22-.82.43c-.17,0-.17.14-.17.26,0,1.42,0,2.84,0,4.26,0,.12,0,.22.17.14Zm1.19-.17a1.18,1.18,0,0,1,0,.26c-.08.46.1.71.56.75a.49.49,0,0,1,.17.06c.33.16.42.06.42-.3,0-1.76,0-3.52,0-5.28,0-.9,0-.89-.86-.63-.22.07-.29.17-.28.38a3.24,3.24,0,0,1,0,.44c-.13.08-.1.21-.1.33V169c0,.11,0,.24.1.32Zm1.58-4.55,0,0v5.89h0v-5.87Zm0,6.29,0-.06s0,0,0,0a.13.13,0,0,0,0,0Z" transform="translate(8 65)"/><path class="cls-17" d="M87.44,158.69c0,1.3,0,2.6,0,3.9,0,.32-.06.37-.37.25-1.09-.44-2.2-.85-3.3-1.26a.43.43,0,0,1-.34-.48q0-2.44,0-4.89a.45.45,0,0,1,.37-.51c1.1-.37,2.2-.76,3.29-1.16.28-.1.36-.06.36.25,0,1.3,0,2.6,0,3.9Zm-3.06-2.44c-.18-.17-.35,0-.53,0-.37-.11-.34.15-.34.37,0,1.25,0,2.5,0,3.75a.68.68,0,0,0,.16.49,1,1,0,0,0,.71.27h.21c.1.19.31.16.46.24.41.24.45,0,.44-.33,0-1.59,0-3.18,0-4.78a.8.8,0,0,0,0-.43l-.8.19a.3.3,0,0,0-.25.2Zm1.45-.48c-.1.09-.07.22-.07.33v5.17c0,.12,0,.24.07.34a6.75,6.75,0,0,0,1.1.35v-5.53c0-1.06,0-1.06-1-.72l-.07.06Zm1.52-.69,0,0v5.71h0v-5.69ZM87,161.41h0V156h0v5.44Z" transform="translate(8 65)"/><path class="cls-15" d="M80.72,171.37l-3.35-1.25a.42.42,0,0,1-.33-.45c0-1.65,0-3.31,0-5a.38.38,0,0,1,.29-.43l3.3-1.14c.25.09.28.29.28.53,0,1.52,0,3,0,4.55a25.48,25.48,0,0,0,0,2.9c0,.22-.17.16-.23.26Zm-2.52-1.69c.15.26.44.21.67.31s.22,0,.22-.18v-5.19c0-.09,0-.21-.14-.22a.73.73,0,0,0-.75.62c-.23,0-.17.21-.17.35v4c0,.14-.06.32.17.35Zm2.37.54c.06.05.15.24.15,0v-6c0-.12,0-.16-.15-.11-.3-.25-.55.06-.82.07s-.32.14-.32.38c0,1.78,0,3.55,0,5.33,0,.25.87.69,1.08.53,0,0,0-.13,0-.21Zm-2.62-3c0-.71,0-1.41,0-2.11,0-.42,0-.44-.46-.31-.26.08-.19.26-.2.42v3.5c0,.18,0,.36,0,.54,0,.37.31.34.5.37s.16-.23.16-.35c0-.69,0-1.38,0-2.06Zm-.8,2.15,0,0v-4.47h0v4.45Zm2.19,0h-.09c0,.22,0,.43,0,.64h0v-.63Zm0-4.44a1.13,1.13,0,0,0,0-.63,1.13,1.13,0,0,0,0,.63Z" transform="translate(8 65)"/><path class="cls-18" d="M77.21,147.32c1.11-.42,2.22-.84,3.36-1.18.23,0,.34.1.34.35,0,2.48,0,4.95,0,7.43,0,.25-.11.35-.34.35h0c-.05-.25-.19-.23-.36-.12l-3-1.16c.26-.14,0-.34,0-.5,0-1.52,0-3,0-4.56,0-.2.14-.4,0-.6Zm1,4.77a.3.3,0,0,1,0,.13c-.1.48.16.65.58.74s.31,0,.29-.25,0-.51,0-.76v-4.22c0-.12.06-.36-.11-.32s-.66,0-.78.37c-.2,0-.17.18-.17.3v3.7c0,.13,0,.29.17.31Zm2.37-4.85a1,1,0,0,0-.07-.24,2.82,2.82,0,0,0-1,.23c-.21.07-.12.28-.12.43,0,1.61,0,3.23,0,4.83,0,.51.12.75.62.86s.5.14.51-.38c0-1.85,0-3.7,0-5.55.11.15.06.32.06.48v5.53a.81.81,0,0,0,.09-.52v-4.83a6,6,0,0,0,0-.85c0-.21-.09,0-.14,0ZM78,150.18h0c0-.69,0-1.38,0-2.06,0-.13.15-.42-.17-.39s-.51,0-.5.42c0,.7,0,1.4,0,2.1s0,1.32,0,2c0,.4.31.38.52.4s.14-.25.14-.38c0-.69,0-1.37,0-2.06Zm1.34,2.88a.72.72,0,0,0,0-.58v.58Z" transform="translate(8 65)"/><path class="cls-19" d="M71.36,155.82l3.86-1.39V163l-3-1.14a3.31,3.31,0,0,1-.93-.4c.16-.15,0-.39.15-.53a1.12,1.12,0,0,0,.72.26c.26,0,.18-.23.18-.38,0-1,0-2,0-3a6.94,6.94,0,0,1,0-1.51l0,4.54c0,.54.26.75.86.66a.62.62,0,0,0,0-.55v-.17c.11-.15.06-.32.06-.48,0-1.09,0-2.17,0-3.26a1.59,1.59,0,0,0-.06-.75c0-.26,0-.45-.35-.29a2,2,0,0,1-.47.11l-.31.1-.76.19,0-.51Zm3.42,5.7c.12-.09.13-.18,0-.28v-.35c.12-.08.1-.21.1-.32v-3.94c0-.11,0-.24-.1-.32a1.23,1.23,0,0,1,0-.54c.12-.09.13-.18,0-.27-.41-.12-.73.2-1.12.19-.21.09-.13.28-.13.43v5.06c0,.15,0,.3.08.42l.92.32c.15.06.22,0,.25-.13s.06-.07,0-.1v-.17Z" transform="translate(8 65)"/><path class="cls-20" d="M80.72,171.37c.06-.1.26,0,.23-.26a25.48,25.48,0,0,1,0-2.9c0-1.51,0-3,0-4.55,0-.24,0-.44-.28-.53.26-.16.44-.23.44.23,0,2.58,0,5.16,0,7.74,0,.24,0,.5-.34.27Z" transform="translate(8 65)"/><path class="cls-20" d="M80.57,154.27c.23,0,.34-.1.34-.35,0-2.48,0-4.95,0-7.43,0-.25-.11-.35-.34-.35.49-.24.49-.24.49.26V154c0,.55,0,.55-.49.3Z" transform="translate(8 65)"/><path class="cls-20" d="M77.21,147.32c.14.2,0,.4,0,.6,0,1.52,0,3,0,4.56,0,.16.22.36,0,.5-.19-.09-.11-.26-.11-.39,0-1.62,0-3.25,0-4.87,0-.14-.09-.34.16-.4Z" transform="translate(8 65)"/><path class="cls-21" d="M71.45,160.89c-.17.14,0,.38-.15.53,0-1.63,0-3.25,0-4.87,0-.24-.11-.51.08-.73l0,.51a.43.43,0,0,1,.08.29c0,1.42,0,2.84,0,4.27Z" transform="translate(8 65)"/><path class="cls-22" d="M76.15,162.92c-.16-.07-.09-.2-.09-.31v-7.86c0-.08-.09-.21.08-.25q0,4.22,0,8.42Z" transform="translate(8 65)"/><path class="cls-17" d="M76.15,162.92q0-4.2,0-8.42h.09q0,4.2,0,8.38l-.09,0Z" transform="translate(8 65)"/><path class="cls-21" d="M62.86,156.41a14,14,0,0,0,0,1.83c0,1.27,0,2.53-.06,3.8V154.9h0l.06,1.31v.2Z" transform="translate(8 65)"/><path class="cls-20" d="M93.21,161.07l0-.07c.45-.21.31-.62.32-1,0-1,0-2.06,0-3.09a1.12,1.12,0,0,0-.18-.71c.24,0,.28.16.28.37,0,1.36,0,2.72,0,4.08,0,.31-.2.3-.37.39Z" transform="translate(8 65)"/><path class="cls-21" d="M64.88,169.51l-.21.08v-.27a3.77,3.77,0,0,0,0-1.11c0-1,0-2,0-3,0-.15-.08-.35.18-.38,0,.06,0,.12,0,.18a23.79,23.79,0,0,0,0,2.8,6.28,6.28,0,0,0,0,1.5c0,.06,0,.12,0,.19Z" transform="translate(8 65)"/><path class="cls-17" d="M81.19,161a8.56,8.56,0,0,0,.07-1.68c0-.83,0-1.67,0-2.49,0-.18-.2-.35,0-.52.15.07.09.21.1.32v4c0,.14.06.32-.18.34Z" transform="translate(8 65)"/><path class="cls-21" d="M68.58,163.05v1.32h-.09a6.4,6.4,0,0,1,0-.76.44.44,0,0,0-.27-.48l.27-.1h.08Z" transform="translate(8 65)"/><path class="cls-20" d="M80.18,154.14c.17-.11.31-.13.36.12l-.36-.12Z" transform="translate(8 65)"/><path class="cls-21" d="M62.86,162.49s-.12,0-.09-.1.06,0,.09-.06v.16Z" transform="translate(8 65)"/><path class="cls-21" d="M68.59,146.1c-.1.09-.19.09-.27,0l.27,0Z" transform="translate(8 65)"/><path class="cls-16" d="M68.57,163.05H68.5s0-.06.07,0Z" transform="translate(8 65)"/><path class="cls-21" d="M62.42,155.86v-.26c.16,0,.15.16.15.28,0,1.94,0,3.88,0,5.82a1.24,1.24,0,0,1-.08.19v-5c0-.16.05-.33-.06-.48v-.18a.27.27,0,0,0,0-.36Z" transform="translate(8 65)"/><path class="cls-22" d="M59.81,161.07c-.05-1.62,0-3.23,0-4.85.08.09.06.19.06.3,0,1.43,0,2.86,0,4.29a1.19,1.19,0,0,1,0,.26Z" transform="translate(8 65)"/><path class="cls-21" d="M59,156.42V161h0v-4.57Z" transform="translate(8 65)"/><path class="cls-21" d="M61.14,160.6v-4.09h0v4.09Z" transform="translate(8 65)"/><path class="cls-21" d="M65.79,147.87v4.58c-.23,0-.16-.22-.16-.36,0-1.33,0-2.65,0-4,0-.08-.13-.32.16-.24Z" transform="translate(8 65)"/><path class="cls-21" d="M68.5,153.41v-6.95h0v7l0,0Z" transform="translate(8 65)"/><path class="cls-21" d="M64.85,152.08v.37a.19.19,0,0,1-.14-.2c0-1.51,0-3,.09-4.55,0,1.11,0,2.21,0,3.32a3.77,3.77,0,0,0,0,1.06Z" transform="translate(8 65)"/><path class="cls-21" d="M67,147.69v4.58c-.14-.09-.1-.23-.1-.36,0-1.29,0-2.57,0-3.86,0-.13,0-.27.1-.36Z" transform="translate(8 65)"/><path class="cls-21" d="M68.52,153.93a.33.33,0,0,1,0,.33c-.08-.09-.05-.18,0-.33Z" transform="translate(8 65)"/><path class="cls-21" d="M65.79,164.84V165l0,0a.15.15,0,0,0,0,.07v4.12l0,0s0,0,0,.07v.17c-.17.08-.17,0-.17-.14,0-1.42,0-2.84,0-4.26,0-.12,0-.24.17-.26Z" transform="translate(8 65)"/><path class="cls-21" d="M68.56,164.78v5.87h0v-5.89l0,0Z" transform="translate(8 65)"/><path class="cls-21" d="M67,165v4.32c-.13-.08-.1-.21-.1-.32v-3.67c0-.12,0-.25.1-.33Z" transform="translate(8 65)"/><path class="cls-21" d="M64.72,164.39a.13.13,0,0,1,.07.17l0,0c0-.07,0-.13,0-.2Z" transform="translate(8 65)"/><path class="cls-21" d="M68.53,171.07a.13.13,0,0,1,0,0s0,0,0,0l0,.06Z" transform="translate(8 65)"/><path class="cls-21" d="M68.41,171.39l.09-.07c0,.1-.07,0-.09.07Z" transform="translate(8 65)"/><path class="cls-21" d="M84.37,161.15c0-1.63,0-3.27,0-4.9a.3.3,0,0,1,.25-.2c-.08,1.28,0,2.57,0,3.85,0,.42,0,.84,0,1.26Z" transform="translate(8 65)"/><path class="cls-19" d="M83.85,156.27c-.26.07-.17.29-.17.45,0,1.39,0,2.77,0,4.16a.68.68,0,0,1-.16-.49c0-1.25,0-2.5,0-3.75,0-.22,0-.48.34-.37Z" transform="translate(8 65)"/><path class="cls-21" d="M87.35,155.08v5.69h0v-5.71l0,0Z" transform="translate(8 65)"/><path class="cls-22" d="M85.83,155.77v5.84c-.1-.1-.07-.22-.07-.34V156.1c0-.11,0-.24.07-.33Z" transform="translate(8 65)"/><path class="cls-21" d="M87,161.41V156h0v5.44Z" transform="translate(8 65)"/><path class="cls-21" d="M78.2,165v4.66c-.23,0-.17-.21-.17-.35v-4c0-.14-.06-.32.17-.35Z" transform="translate(8 65)"/><path class="cls-21" d="M80.57,170.22V170c.08-.09.06-.19.06-.3V164.6c0-.11,0-.21-.06-.3v-.18c.12-.05.15,0,.15.11v6c0,.27-.09.08-.15,0Z" transform="translate(8 65)"/><path class="cls-21" d="M77.15,169.39v-4.45h0v4.47l0,0Z" transform="translate(8 65)"/><path class="cls-21" d="M79.34,169.41V170h0c0-.21,0-.42,0-.64Z" transform="translate(8 65)"/><path class="cls-21" d="M79.31,165a1.13,1.13,0,0,1,0-.63,1.13,1.13,0,0,1,0,.63Z" transform="translate(8 65)"/><path class="cls-21" d="M78.2,147.78v4.31c-.2,0-.17-.18-.17-.31v-3.7c0-.12,0-.28.17-.3Z" transform="translate(8 65)"/><path class="cls-21" d="M80.57,147.42v-.18c.05,0,.12-.22.14,0a6,6,0,0,1,0,.85v4.83a.81.81,0,0,1-.09.52V147.9c0-.16.05-.33-.06-.48Z" transform="translate(8 65)"/><path class="cls-21" d="M79.29,153.06v-.58a.72.72,0,0,1,0,.58Z" transform="translate(8 65)"/><path class="cls-21" d="M72.17,161.15c0-1.67,0-3.34,0-5l.31-.1-.06.19a6.94,6.94,0,0,0,0,1.51c0,1,0,2,0,3,0,.15.08.35-.18.38Z" transform="translate(8 65)"/><path class="cls-17" d="M73.66,155.69a2.13,2.13,0,0,0,0,.71c0,1.74,0,3.47,0,5.2-.13-.12-.08-.27-.08-.42v-5.06c0-.15-.08-.34.13-.43Z" transform="translate(8 65)"/><path class="cls-21" d="M74.78,160.89v-4.58c.12.08.1.21.1.32v3.94c0,.11,0,.24-.1.32Z" transform="translate(8 65)"/><path class="cls-22" d="M73.28,160.71c0-1.5,0-3,0-4.49a1.59,1.59,0,0,1,.06.75c0,1.09,0,2.17,0,3.26,0,.16,0,.33-.06.48Z" transform="translate(8 65)"/><path class="cls-22" d="M73.29,161.43a1.14,1.14,0,0,1,0-.55.62.62,0,0,1,0,.55Z" transform="translate(8 65)"/><path class="cls-21" d="M74.78,161.52v-.28c.13.1.12.19,0,.28Z" transform="translate(8 65)"/><path class="cls-21" d="M74.78,155.77v-.27c.13.09.12.18,0,.27Z" transform="translate(8 65)"/><path class="cls-21" d="M74.78,161.79v-.1c.06,0,.07.07,0,.1Z" transform="translate(8 65)"/><path class="cls-16" d="M64.86,165c0,1.43,0,2.87,0,4.3a6.28,6.28,0,0,1,0-1.5,23.79,23.79,0,0,1,0-2.8Z" transform="translate(8 65)"/><path class="cls-15" d="M62.42,155.86a.27.27,0,0,1,0,.36v-.36Z" transform="translate(8 65)"/><path class="cls-16" d="M65.79,165.11a.15.15,0,0,1,0-.07l0,0v.09Z" transform="translate(8 65)"/><path class="cls-16" d="M65.79,169.33s0-.05,0-.07l0,0v.1Z" transform="translate(8 65)"/><path class="cls-15" d="M80.57,164.3c.08.09.06.19.06.3v5.14c0,.11,0,.21-.06.3,0-1.91,0-3.83,0-5.74Z" transform="translate(8 65)"/><path class="cls-23" d="M266.38,145.6a1.69,1.69,0,0,0-.7.18l-9.41,4.49a1.79,1.79,0,0,0-1,1.21L253,161.57a1.78,1.78,0,0,0,.24,1.37,1.71,1.71,0,0,0,.11.14l6.51,8.09a1.78,1.78,0,0,0,1.4.67h10.44a1.81,1.81,0,0,0,1.4-.67l6.51-8.1a1.78,1.78,0,0,0,.35-1.51l-2.33-10.09a1.77,1.77,0,0,0-1-1.21l-9.4-4.48a1.75,1.75,0,0,0-.87-.18Z" transform="translate(8 65)"/><path class="cls-6" d="M266.47,149a.58.58,0,0,0-.55.62v.16a5,5,0,0,0,.07.54,5.82,5.82,0,0,1,.06,1,.61.61,0,0,1-.19.29v.24a7.34,7.34,0,0,0-4.7,2.26L261,154a.42.42,0,0,1-.33,0,4.92,4.92,0,0,1-.76-.68c-.12-.14-.24-.27-.37-.4l-.13-.1a.6.6,0,0,0-.39-.14.53.53,0,0,0-.45.2.61.61,0,0,0,.14.83l.12.09a3.59,3.59,0,0,0,.47.27,4.89,4.89,0,0,1,.84.59.52.52,0,0,1,.11.32l.19.16a7.24,7.24,0,0,0-1.15,5.08l-.24.07a.78.78,0,0,1-.24.24,5.76,5.76,0,0,1-1,.17,4.9,4.9,0,0,0-.54,0l-.15,0h0a.56.56,0,0,0-.48.63.57.57,0,0,0,.74.46h0l.15,0a4.24,4.24,0,0,0,.5-.18,5.62,5.62,0,0,1,1-.29.66.66,0,0,1,.32.12l.25,0a7.3,7.3,0,0,0,3.24,4.06l-.1.22a.59.59,0,0,1,0,.32,5.52,5.52,0,0,1-.51.92,3.52,3.52,0,0,0-.3.45l-.08.15a.56.56,0,0,0,.2.77.55.55,0,0,0,.35.08.58.58,0,0,0,.47-.37l.07-.14a4.48,4.48,0,0,0,.16-.52,3.94,3.94,0,0,1,.44-1,.5.5,0,0,1,.24-.12l.13-.23a7.25,7.25,0,0,0,5.19,0l.11.22a.46.46,0,0,1,.29.17,5.58,5.58,0,0,1,.39,1,4.48,4.48,0,0,0,.16.52l.07.14a.57.57,0,0,0,.73.33.53.53,0,0,0,.27-.22.55.55,0,0,0,0-.59l-.08-.15a3.52,3.52,0,0,0-.3-.45,6,6,0,0,1-.5-.89.5.5,0,0,1,.06-.34.92.92,0,0,1-.09-.23,7.27,7.27,0,0,0,3.23-4.07l.24,0a.47.47,0,0,1,.32-.12,5.78,5.78,0,0,1,1,.29,4.34,4.34,0,0,0,.5.2l.15,0h0a.57.57,0,0,0,.71-.72.58.58,0,0,0-.46-.38l-.17,0a4.51,4.51,0,0,0-.54-.05,5.49,5.49,0,0,1-1-.16.6.6,0,0,1-.25-.25l-.23-.06a7.27,7.27,0,0,0-1.17-5.07l.2-.18a.42.42,0,0,1,.11-.32,6,6,0,0,1,.83-.59,3.59,3.59,0,0,0,.47-.27l.13-.1a.58.58,0,0,0,.18-.78.59.59,0,0,0-.3-.24.57.57,0,0,0-.59.14l-.12.1a3.41,3.41,0,0,0-.37.39,4.84,4.84,0,0,1-.74.69.57.57,0,0,1-.34,0l-.21.15a7.41,7.41,0,0,0-4.68-2.25,1.57,1.57,0,0,0,0-.25.47.47,0,0,1-.18-.28,5.88,5.88,0,0,1,.06-1,3.08,3.08,0,0,0,.08-.53v-.16a.6.6,0,0,0-.55-.63Zm-.71,4.37-.16,2.95h0a.49.49,0,0,1-.51.47.51.51,0,0,1-.27-.09L262.38,155a5.76,5.76,0,0,1,2.79-1.52q.3-.06.6-.09Zm1.41,0a5.79,5.79,0,0,1,3.38,1.62l-2.4,1.71a.5.5,0,0,1-.7-.08.48.48,0,0,1-.11-.3l-.17-2.95Zm-5.68,2.72,2.22,2h0a.5.5,0,0,1,.05.7.44.44,0,0,1-.25.15h0l-2.84.82a5.84,5.84,0,0,1,.82-3.67Zm9.94,0a5.89,5.89,0,0,1,.84,3.66l-2.84-.82h0a.49.49,0,0,1-.35-.61.55.55,0,0,1,.15-.24l2.2-2ZM266,158.26h.91l.55.7-.2.88-.81.39-.82-.39-.19-.89.56-.69Zm2.91,2.39H269l2.93.5a5.74,5.74,0,0,1-2.34,2.95l-1.14-2.74a.51.51,0,0,1,.27-.66l.16,0Zm-4.92,0a.48.48,0,0,1,.48.5.58.58,0,0,1,0,.19h0l-1.13,2.72a5.79,5.79,0,0,1-2.33-2.92l2.9-.5H264Zm2.45,1.19a.48.48,0,0,1,.45.26h0l1.43,2.58a4,4,0,0,1-.57.16,5.83,5.83,0,0,1-3.18-.16l1.43-2.58a.47.47,0,0,1,.42-.25Z" transform="translate(8 65)"/><path class="cls-24" d="M266.47,149a.58.58,0,0,0-.55.62v.16a5,5,0,0,0,.07.54,5.82,5.82,0,0,1,.06,1,.61.61,0,0,1-.19.29v.24a7.34,7.34,0,0,0-4.7,2.26L261,154a.42.42,0,0,1-.33,0,4.92,4.92,0,0,1-.76-.68c-.12-.14-.24-.27-.37-.4l-.13-.1a.6.6,0,0,0-.39-.14.53.53,0,0,0-.45.2.61.61,0,0,0,.14.83l.12.09a3.59,3.59,0,0,0,.47.27,4.89,4.89,0,0,1,.84.59.52.52,0,0,1,.11.32l.19.16a7.24,7.24,0,0,0-1.15,5.08l-.24.07a.78.78,0,0,1-.24.24,5.76,5.76,0,0,1-1,.17,4.9,4.9,0,0,0-.54,0l-.15,0h0a.56.56,0,0,0-.48.63.57.57,0,0,0,.74.46h0l.15,0a4.24,4.24,0,0,0,.5-.18,5.62,5.62,0,0,1,1-.29.66.66,0,0,1,.32.12l.25,0a7.3,7.3,0,0,0,3.24,4.06l-.1.22a.59.59,0,0,1,0,.32,5.52,5.52,0,0,1-.51.92,3.52,3.52,0,0,0-.3.45l-.08.15a.56.56,0,0,0,.2.77.55.55,0,0,0,.35.08.58.58,0,0,0,.47-.37l.07-.14a4.48,4.48,0,0,0,.16-.52,3.94,3.94,0,0,1,.44-1,.5.5,0,0,1,.24-.12l.13-.23a7.25,7.25,0,0,0,5.19,0l.11.22a.46.46,0,0,1,.29.17,5.58,5.58,0,0,1,.39,1,4.48,4.48,0,0,0,.16.52l.07.14a.57.57,0,0,0,.73.33.53.53,0,0,0,.27-.22.55.55,0,0,0,0-.59l-.08-.15a3.52,3.52,0,0,0-.3-.45,6,6,0,0,1-.5-.89.5.5,0,0,1,.06-.34.92.92,0,0,1-.09-.23,7.27,7.27,0,0,0,3.23-4.07l.24,0a.47.47,0,0,1,.32-.12,5.78,5.78,0,0,1,1,.29,4.34,4.34,0,0,0,.5.2l.15,0h0a.57.57,0,0,0,.71-.72.58.58,0,0,0-.46-.38l-.17,0a4.51,4.51,0,0,0-.54-.05,5.49,5.49,0,0,1-1-.16.6.6,0,0,1-.25-.25l-.23-.06a7.27,7.27,0,0,0-1.17-5.07l.2-.18a.42.42,0,0,1,.11-.32,6,6,0,0,1,.83-.59,3.59,3.59,0,0,0,.47-.27l.13-.1a.58.58,0,0,0,.18-.78.59.59,0,0,0-.3-.24.57.57,0,0,0-.59.14l-.12.1a3.41,3.41,0,0,0-.37.39,4.84,4.84,0,0,1-.74.69.57.57,0,0,1-.34,0l-.21.15a7.41,7.41,0,0,0-4.68-2.25,1.57,1.57,0,0,0,0-.25.47.47,0,0,1-.18-.28,5.88,5.88,0,0,1,.06-1,3.08,3.08,0,0,0,.08-.53v-.16a.6.6,0,0,0-.55-.63Zm-.71,4.37-.16,2.95h0a.49.49,0,0,1-.51.47.51.51,0,0,1-.27-.09L262.38,155a5.76,5.76,0,0,1,2.79-1.52q.3-.06.6-.09Zm1.41,0a5.79,5.79,0,0,1,3.38,1.62l-2.4,1.71a.5.5,0,0,1-.7-.08.48.48,0,0,1-.11-.3l-.17-2.95Zm-5.68,2.72,2.22,2h0a.5.5,0,0,1,.05.7.44.44,0,0,1-.25.15h0l-2.84.82a5.84,5.84,0,0,1,.82-3.67Zm9.94,0a5.89,5.89,0,0,1,.84,3.66l-2.84-.82h0a.49.49,0,0,1-.35-.61.55.55,0,0,1,.15-.24l2.2-2ZM266,158.26h.91l.55.7-.2.88-.81.39-.82-.39-.19-.89.56-.69Zm2.91,2.39H269l2.93.5a5.74,5.74,0,0,1-2.34,2.95l-1.14-2.74a.51.51,0,0,1,.27-.66l.16,0Zm-4.92,0a.48.48,0,0,1,.48.5.58.58,0,0,1,0,.19h0l-1.13,2.72a5.79,5.79,0,0,1-2.33-2.92l2.9-.5H264Zm2.45,1.19a.48.48,0,0,1,.45.26h0l1.43,2.58a4,4,0,0,1-.57.16,5.83,5.83,0,0,1-3.18-.16l1.43-2.58a.47.47,0,0,1,.42-.25Z" transform="translate(8 65)"/><path class="cls-25" d="M187,157.26q-3.1-5.43-6.24-10.84a2.62,2.62,0,0,0-2-1.3c-.15,0-.31,0-.47,0H166.15a3,3,0,0,0-.93.13h0a2.7,2.7,0,0,0-1.65,1.4l-6.1,10.59a2.64,2.64,0,0,0,0,2.8l2.42,4.24,3.77,6.58a2.63,2.63,0,0,0,2,1.42h0l.71,0c3.44,0,6.88,0,10.32,0a8.29,8.29,0,0,0,2.63-.15.6.6,0,0,0-.22-.06c-1,.13-2,0-3.07.06.08-.06.06-.18,0-.31a2.55,2.55,0,0,0-.41-.46c-2.52-2.51-5-5-7.55-7.53a8.12,8.12,0,0,1-1.36-1.45,1,1,0,0,1-.41-.55,21.45,21.45,0,0,1,0-6.35c.09-.39.44-.53.73-.69,1.56-.9,3.12-1.79,4.67-2.7a1.08,1.08,0,0,1,1.26,0c1.13.7,2.3,1.31,3.43,2a7.74,7.74,0,0,1,2,1.31c.36.09.49.43.72.66,1.43,1.42,2.85,2.86,4.29,4.28.59.57,1.13,1.19,1.74,1.74.18.16.36.39.65.2.47-.8,1-1.59,1.4-2.42a2.61,2.61,0,0,0-.09-2.63Z" transform="translate(8 65)"/><path class="cls-26" d="M177.38,160.89c0-1.6,0-3.21,0-4.81,0-.15,0-.32-.12-.43v4.76a1.7,1.7,0,0,1-.09.74c.39.19.21-.17.21-.26Z" transform="translate(8 65)"/><path class="cls-26" d="M167.38,161.13c-.21-.18-.18-.43-.18-.66v-4.08a1.22,1.22,0,0,0-.09-.65c0,.44,0,.88,0,1.32,0,1.26,0,2.52,0,3.78,0,.15-.11.5.29.29Z" transform="translate(8 65)"/><path class="cls-26" d="M171.94,154.62c0-.39,0-.79,0-1.18s0-.5-.45-.25a.34.34,0,0,1,.28.37c0,.65.19,1.36-.37,1.91a.7.7,0,0,0,.55-.85Z" transform="translate(8 65)"/><path class="cls-26" d="M173,153.19c-.15,0-.39-.41-.42,0a6.92,6.92,0,0,0,0,2,4.38,4.38,0,0,0,.09-1.53c0-.23,0-.4.29-.46Z" transform="translate(8 65)"/><path class="cls-26" d="M172.43,159.08c0,.92,0,1.85,0,2.77a.55.55,0,0,0,.12.35l0-3.31c-.09,0-.1.11-.1.19Z" transform="translate(8 65)"/><path class="cls-26" d="M169,157.26a1.24,1.24,0,0,0-.1.31c0,.88,0,1.76,0,2.65.14-.15.09-.33.09-.5,0-.82,0-1.64,0-2.46Z" transform="translate(8 65)"/><path class="cls-27" d="M175.93,172.16c-.1-.12-.2-.25-.31-.36L166.89,163c-.15-.15-.43-.18-.44-.46.29-.21.52,0,.74.13,1.43.83,2.88,1.64,4.3,2.49a1.28,1.28,0,0,0,1.49,0c1.52-.9,3.06-1.77,4.59-2.65a1.26,1.26,0,0,0,.7-1.23c0-1.76,0-3.53,0-5.3,0-.25-.08-.55.21-.73s.29.21.41.33c1.69,1.64,3.31,3.35,5,5a14.81,14.81,0,0,0,1.81,1.73l-2.24,3.94c-.86,1.52-1.74,3-2.61,4.55a2.67,2.67,0,0,1-1.62,1.36,19.8,19.8,0,0,1-2.67.09,1.32,1.32,0,0,1-.65-.09Z" transform="translate(8 65)"/><path class="cls-28" d="M178.48,155.29q0,3.22,0,6.45a.87.87,0,0,1-.46.82c-1.78,1-3.57,2-5.34,3.08a.85.85,0,0,1-.93,0l-4.68-2.71-.63-.34a1.44,1.44,0,0,1-.46-.49c-.1-.08-.07-.2-.07-.31v-6.18c0-.1,0-.22.07-.3a1.5,1.5,0,0,1,.51-.49c1.75-1,3.51-2,5.25-3a.88.88,0,0,1,1,0l5.25,3a1.31,1.31,0,0,1,.5.49Z" transform="translate(8 65)"/><path class="cls-28" d="M166,155.29v6.79c-.18-.08-.11-.24-.11-.37q0-3,0-6.05c0-.13-.07-.3.11-.37Z" transform="translate(8 65)"/><path class="cls-27" d="M168.93,160.22l-1.55.91c-.3,0-.22-.26-.22-.43,0-1.48,0-3,0-4.44a1,1,0,0,0,0-.52,18.15,18.15,0,0,1,1.94-1.17c.8-.47,1.62-.92,2.43-1.38.24-.06.38,0,.38.29a13.08,13.08,0,0,0,0,1.4c0,.36-.33.38-.47.59-.56.33-1.11.67-1.67,1-.23.13-.34.22,0,.4.77.43,1.54.87,2.3,1.32a.42.42,0,0,0,.48,0c.77-.45,1.53-.89,2.31-1.32.29-.17.21-.27,0-.4-.73-.42-1.44-.86-2.16-1.28,0-.57,0-1.14,0-1.7,0-.3.13-.35.38-.29,1.44.78,2.87,1.6,4.27,2.46a2.07,2.07,0,0,1,.05.7v4.29c0,.18.08.39-.14.51-.49-.27-1-.55-1.45-.81a.48.48,0,0,1-.27-.5v-2.08c0-.51,0-.53-.45-.29l-2.47,1.42a1.87,1.87,0,0,0-.05.88c0,.68,0,1.36,0,2,0,.13-.07.28.08.39.76-.44,1.51-.86,2.26-1.31a.54.54,0,0,1,.65,0c.44.28.89.53,1.35.79.24.13.21.23,0,.35l-4.35,2.51a.34.34,0,0,1-.35,0l-4.72-2.72,1.84-1.06c.17-.1.3,0,.43.09l1.93,1.12c.26.15.36.11.36-.2,0-.87,0-1.74,0-2.61a.42.42,0,0,0-.18-.41c-.91-.5-1.78-1.08-2.73-1.52a4.73,4.73,0,0,0-.06,1.3c0,.55,0,1.11,0,1.66Z" transform="translate(8 65)"/><path class="cls-29" d="M14.1,151.22a1.69,1.69,0,0,0-1,1.2c-.74,3-1.5,6-2.25,9.06a1.8,1.8,0,0,0,.38,1.7q2.94,3.63,5.83,7.31a1.76,1.76,0,0,0,1.51.73c1.54,0,3.09,0,4.64,0s3,0,4.5,0a1.93,1.93,0,0,0,1.74-.83q2.91-3.66,5.86-7.28a1.7,1.7,0,0,0,.36-1.57c-.73-3-1.45-6-2.14-9a1.86,1.86,0,0,0-1.08-1.36q-4.17-2-8.31-4.12a1.81,1.81,0,0,0-1.79,0q-4.12,2.1-8.29,4.16Zm9.64-2.85q3.93,2,7.87,3.9a1.13,1.13,0,0,1,.7.86c.65,2.82,1.33,5.64,2,8.46a.89.89,0,0,1-.19.84q-2.85,3.51-5.68,7.07a.9.9,0,0,1-.78.35H23.24c-1.46,0-2.91,0-4.37,0a.92.92,0,0,1-.83-.39q-2.76-3.5-5.56-7a1,1,0,0,1-.2-1c.71-2.81,1.41-5.63,2.1-8.44a1.08,1.08,0,0,1,.61-.78c2.63-1.29,5.24-2.6,7.85-3.93a.88.88,0,0,1,.9,0Z" transform="translate(8 65)"/><path class="cls-30" d="M28.43,173.18c-3.42,0-6.85,0-10.27,0a1.1,1.1,0,0,0-1.2.78c-.2.47-.21.64.38.63,2,0,3.94,0,5.91,0h5.91c.17,0,.53.19.5-.24a1.24,1.24,0,0,0-1.23-1.13Z" transform="translate(8 65)"/><path class="cls-31" d="M25,144.87l8.75,4.33c.94.47,1.27.37,1.89-.6L24,142.84c-.17,1.44-.17,1.44,1,2Z" transform="translate(8 65)"/><path class="cls-32" d="M37.51,163.64l-7,8.7a.48.48,0,0,0-.07.62c.17.3.31.62.51,1,1-1.17,1.86-2.3,2.77-3.42,1.73-2.15,3.47-4.3,5.19-6.47.1-.13.42-.24.2-.49a1.54,1.54,0,0,0-1.59,0Z" transform="translate(8 65)"/><path class="cls-32" d="M9.42,164.09c-.73-.91-.92-1-2.07-.39l8.16,10.23c.77-1.24.77-1.24,0-2.25l-6.05-7.59Z" transform="translate(8 65)"/><path class="cls-31" d="M13.16,149.1c2.89-1.45,5.77-2.93,8.68-4.33a1.22,1.22,0,0,0,.82-1.4c0-.38,0-.57-.49-.33-3.7,1.87-7.41,3.72-11.16,5.6,1,1,1,1.05,2.15.46Z" transform="translate(8 65)"/><path class="cls-33" d="M35.64,151.71c.71,3,1.48,6,2.12,9.08.21,1,.63,1.52,1.65,1.52l.14,0c-1-4.19-2-8.35-3-12.51-1.21.67-1.24.72-1,2Z" transform="translate(8 65)"/><path class="cls-34" d="M8.61,161.6c.85-3.5,1.73-7,2.61-10.47a.66.66,0,0,0-.26-.79c-.27-.19-.51-.41-.8-.65C9.1,153.92,8.07,158.1,7,162.35c.43-.09.74-.19,1.06-.23s.46-.2.54-.52Z" transform="translate(8 65)"/><path class="cls-35" d="M165.5,612.88l1-2.86,1,2.86a.32.32,0,0,0,.31.23.33.33,0,0,0,.31-.23l1.14-3.16a.4.4,0,0,0,0-.24c0-.07-.09-.11-.19-.11a.29.29,0,0,0-.14,0,.49.49,0,0,0-.09.15l-1.05,3-1-2.94a.3.3,0,0,0-.29-.22.29.29,0,0,0-.28.22l-1.06,2.93-1-2.95c0-.13-.12-.2-.23-.2a.24.24,0,0,0-.2.09.29.29,0,0,0,0,.26l1.13,3.16a.33.33,0,0,0,.63,0Zm5.32-4.71c0-.2-.12-.31-.34-.31s-.33.11-.33.31a.29.29,0,0,0,.33.32.3.3,0,0,0,.34-.32Zm-.11,4.68v-3.22a.23.23,0,0,0-.46,0v3.22a.23.23,0,1,0,.46,0Zm2.84.25.23-.06a.14.14,0,0,0,.09-.08.23.23,0,0,0,0-.11c0-.13-.05-.19-.14-.19l-.17,0a.87.87,0,0,1-.25,0,.74.74,0,0,1-.62-.24,1.1,1.1,0,0,1-.19-.7v-2h1c.14,0,.22-.06.22-.19s-.08-.18-.22-.18h-1v-.93c0-.16-.07-.24-.22-.24a.21.21,0,0,0-.24.24v.93h-.55c-.14,0-.22.06-.22.18s.08.19.22.19h.55v2.06a1.35,1.35,0,0,0,.31.94,1.16,1.16,0,0,0,.91.33l.26,0Zm1.36-.22V611a1.22,1.22,0,0,1,.33-.9,1.14,1.14,0,0,1,.86-.34.85.85,0,0,1,.69.26,1.19,1.19,0,0,1,.22.8v2.07a.23.23,0,1,0,.46,0v-2.11c0-.94-.44-1.41-1.3-1.41a1.64,1.64,0,0,0-.74.17,1.27,1.27,0,0,0-.52.53V608a.23.23,0,1,0-.46,0v4.92a.23.23,0,1,0,.46,0Zm7.84.18a2,2,0,0,0,1.27-.36,1.33,1.33,0,0,0,.45-1.08,1.27,1.27,0,0,0-.26-.83,1.25,1.25,0,0,0-.72-.43,1.35,1.35,0,0,0,.63-.45,1.19,1.19,0,0,0,.23-.75,1.27,1.27,0,0,0-.44-1,2,2,0,0,0-1.26-.35h-1.76a.23.23,0,0,0-.26.26v4.76a.23.23,0,0,0,.26.26Zm-1.67-4.9h1.52a1.55,1.55,0,0,1,1,.26.92.92,0,0,1,.33.76.89.89,0,0,1-.33.75,1.55,1.55,0,0,1-1,.26h-1.52v-2Zm0,2.42h1.63a1.57,1.57,0,0,1,1,.26,1,1,0,0,1,.32.79c0,.7-.43,1-1.3,1h-1.63v-2.09Zm5.66,2.54h.11c.15,0,.23-.1.23-.23s0-.12,0-.14,0,0-.1,0h-.23c-.45,0-.68-.29-.68-.87V608c0-.15-.07-.23-.22-.23a.2.2,0,0,0-.23.23v4a1.32,1.32,0,0,0,.27.89,1,1,0,0,0,.78.31Zm3-.18a1.2,1.2,0,0,0,.5-.52v.46a.21.21,0,0,0,.23.23c.14,0,.21-.08.21-.23v-3.27c0-.16-.07-.24-.22-.24s-.23.08-.23.24v1.89a1.29,1.29,0,0,1-.32.9,1.09,1.09,0,0,1-.82.33.87.87,0,0,1-.69-.25,1.22,1.22,0,0,1-.21-.79v-2.08a.23.23,0,1,0-.46,0v2.1c0,.94.43,1.41,1.3,1.41a1.41,1.41,0,0,0,.71-.18Zm4.41.08a1.58,1.58,0,0,0,.58-.29.22.22,0,0,0,.11-.2.16.16,0,0,0-.11-.16.23.23,0,0,0-.23,0,1.41,1.41,0,0,1-.5.26,2,2,0,0,1-.54.07,1.28,1.28,0,0,1-1-.36,1.52,1.52,0,0,1-.37-1h2.58c.15,0,.21-.07.21-.21a1.94,1.94,0,0,0-.4-1.3,1.4,1.4,0,0,0-1.13-.47,1.63,1.63,0,0,0-1.5.91,2.19,2.19,0,0,0-.21,1,1.87,1.87,0,0,0,.48,1.36,1.73,1.73,0,0,0,1.33.5,2.32,2.32,0,0,0,.67-.1Zm0-3a1.49,1.49,0,0,1,.3.94h-2.38a1.57,1.57,0,0,1,.38-.92,1.1,1.1,0,0,1,.88-.35,1,1,0,0,1,.82.33Zm6.84,3a3.56,3.56,0,0,0,.75-.22.24.24,0,0,0,.12-.24v-2a.19.19,0,0,0-.21-.21h-1.39c-.15,0-.22.06-.22.18s.07.21.22.21h1.18v1.71a3.51,3.51,0,0,1-1.31.24,2,2,0,0,1-1.56-.58,2.52,2.52,0,0,1-.52-1.7,2.55,2.55,0,0,1,.5-1.68,1.79,1.79,0,0,1,1.45-.6,2.64,2.64,0,0,1,.81.12,1.82,1.82,0,0,1,.68.4.17.17,0,0,0,.21,0,.29.29,0,0,0,.12-.18.21.21,0,0,0-.08-.2,2,2,0,0,0-.79-.45,3,3,0,0,0-.95-.14,2.47,2.47,0,0,0-1.31.32,2.17,2.17,0,0,0-.84.93,3.41,3.41,0,0,0-.29,1.45,2.81,2.81,0,0,0,.66,2,2.42,2.42,0,0,0,1.9.71A5.31,5.31,0,0,0,201,613Zm2.58-.16v-2a1.09,1.09,0,0,1,.29-.81,1.24,1.24,0,0,1,.82-.35h.11a.21.21,0,0,0,.22-.23.17.17,0,0,0-.06-.14.24.24,0,0,0-.15,0,1.56,1.56,0,0,0-.76.19,1.25,1.25,0,0,0-.49.55v-.48c0-.16-.07-.24-.22-.24a.21.21,0,0,0-.23.24v3.27a.21.21,0,0,0,.23.23.21.21,0,0,0,.24-.23Zm4.3.14a1.55,1.55,0,0,0,.59-.29.22.22,0,0,0,.11-.2.18.18,0,0,0-.11-.16.23.23,0,0,0-.23,0,1.37,1.37,0,0,1-.51.26,1.88,1.88,0,0,1-.53.07,1.28,1.28,0,0,1-1-.36,1.52,1.52,0,0,1-.37-1h2.58a.19.19,0,0,0,.21-.21,1.94,1.94,0,0,0-.4-1.3,1.4,1.4,0,0,0-1.13-.47,1.62,1.62,0,0,0-.89.24,1.65,1.65,0,0,0-.61.67,2.19,2.19,0,0,0-.21,1,1.87,1.87,0,0,0,.48,1.36,1.72,1.72,0,0,0,1.32.5,2.22,2.22,0,0,0,.67-.1Zm.06-3a1.49,1.49,0,0,1,.3.94h-2.38a1.63,1.63,0,0,1,.37-.92,1.13,1.13,0,0,1,.89-.35,1,1,0,0,1,.82.33Zm3.9,3a1.51,1.51,0,0,0,.58-.29.26.26,0,0,0,.12-.2.19.19,0,0,0-.11-.16.24.24,0,0,0-.24,0,1.41,1.41,0,0,1-.5.26,1.9,1.9,0,0,1-.54.07,1.29,1.29,0,0,1-1-.36,1.52,1.52,0,0,1-.37-1h2.59a.19.19,0,0,0,.21-.21,2,2,0,0,0-.41-1.3,1.4,1.4,0,0,0-1.13-.47,1.65,1.65,0,0,0-.89.24,1.56,1.56,0,0,0-.6.67,2.07,2.07,0,0,0-.22,1,1.87,1.87,0,0,0,.48,1.36,1.76,1.76,0,0,0,1.33.5,2.27,2.27,0,0,0,.67-.1Zm.05-3a1.49,1.49,0,0,1,.3.94h-2.37a1.5,1.5,0,0,1,.37-.92,1.12,1.12,0,0,1,.89-.35,1,1,0,0,1,.81.33Zm2.1,2.82V611a1.22,1.22,0,0,1,.33-.9,1.18,1.18,0,0,1,.87-.34.88.88,0,0,1,.69.26,1.25,1.25,0,0,1,.22.8v2.07a.2.2,0,0,0,.23.23c.15,0,.22-.08.22-.23v-2.11q0-1.41-1.29-1.41a1.54,1.54,0,0,0-.75.18,1.18,1.18,0,0,0-.52.54v-.47c0-.16-.08-.24-.22-.24s-.23.08-.23.24v3.27a.2.2,0,0,0,.23.23c.15,0,.22-.08.22-.23Zm7.47.06a1.19,1.19,0,0,0,.46-.53v.47c0,.15.07.23.22.23s.21-.08.21-.23v-2.15a1.5,1.5,0,0,0-.32-1,1.3,1.3,0,0,0-1-.33,3,3,0,0,0-.64.08,2.89,2.89,0,0,0-.63.26.22.22,0,0,0-.13.18.26.26,0,0,0,.08.19.18.18,0,0,0,.21,0,2.49,2.49,0,0,1,.57-.24,2,2,0,0,1,.55-.07.81.81,0,0,1,.65.23,1.1,1.1,0,0,1,.2.73V611h-.23a6.59,6.59,0,0,0-1.33.1,1.2,1.2,0,0,0-.68.32,1.05,1.05,0,0,0,0,1.19,1,1,0,0,0,.46.39,1.38,1.38,0,0,0,.65.14,1.36,1.36,0,0,0,.71-.18Zm-1.28-.39A.73.73,0,0,1,220,612a.54.54,0,0,1,.15-.41,1,1,0,0,1,.53-.21,7,7,0,0,1,1.05-.06h.23v.24a1.38,1.38,0,0,1-.14.62,1.13,1.13,0,0,1-.39.42,1.06,1.06,0,0,1-.57.16.92.92,0,0,1-.63-.21Zm3.82.33V611a1.22,1.22,0,0,1,.33-.9,1.14,1.14,0,0,1,.86-.34.85.85,0,0,1,.69.26,1.19,1.19,0,0,1,.22.8v2.07a.23.23,0,1,0,.46,0v-2.11c0-.94-.43-1.41-1.3-1.41a1.6,1.6,0,0,0-.75.18,1.24,1.24,0,0,0-.52.54v-.47q0-.24-.21-.24a.21.21,0,0,0-.24.24v3.27a.21.21,0,0,0,.24.23c.15,0,.22-.08.22-.23Zm5.9,0a1.24,1.24,0,0,0,.5-.54v.5a.23.23,0,0,0,.46,0V608a.21.21,0,0,0-.24-.23c-.15,0-.22.08-.22.23v2.14a1.24,1.24,0,0,0-.5-.54,1.41,1.41,0,0,0-.77-.2,1.48,1.48,0,0,0-1.18.51,2,2,0,0,0-.43,1.37,2.2,2.2,0,0,0,.2,1,1.44,1.44,0,0,0,1.41.88,1.41,1.41,0,0,0,.77-.2Zm-1.59-.57a2,2,0,0,1,0-2.21,1.09,1.09,0,0,1,.88-.39,1.11,1.11,0,0,1,.89.39,2,2,0,0,1,0,2.21,1.11,1.11,0,0,1-.89.39,1.09,1.09,0,0,1-.88-.39Zm9.61.19a.24.24,0,0,0,.1-.22.25.25,0,0,0-.12-.17c-.07,0-.15,0-.24.05a2.11,2.11,0,0,1-1.41.5,1.75,1.75,0,0,1-1.43-.6,3.07,3.07,0,0,1,0-3.36,1.75,1.75,0,0,1,1.43-.6,2,2,0,0,1,1.4.49c.09.07.17.09.24,0a.2.2,0,0,0,.12-.17.26.26,0,0,0-.11-.23,2.23,2.23,0,0,0-.74-.42,2.73,2.73,0,0,0-.92-.14,2.48,2.48,0,0,0-1.3.32,2.19,2.19,0,0,0-.82.93,3.26,3.26,0,0,0-.29,1.45,3.19,3.19,0,0,0,.29,1.44,2.16,2.16,0,0,0,.82.94,2.48,2.48,0,0,0,1.3.32,2.4,2.4,0,0,0,1.68-.58Zm2.77.4a1.17,1.17,0,0,0,.45-.53v.47a.21.21,0,0,0,.23.23c.14,0,.21-.08.21-.23v-2.15a1.5,1.5,0,0,0-.32-1,1.32,1.32,0,0,0-1-.33,2.87,2.87,0,0,0-.64.08,3.18,3.18,0,0,0-.64.26.19.19,0,0,0-.12.18.25.25,0,0,0,.07.19.2.2,0,0,0,.22,0,2.42,2.42,0,0,1,.56-.24,2.1,2.1,0,0,1,.56-.07.8.8,0,0,1,.64.23,1,1,0,0,1,.2.73V611h-.23a6.54,6.54,0,0,0-1.32.1,1.17,1.17,0,0,0-.68.32.91.91,0,0,0-.21.64,1,1,0,0,0,.17.55,1.16,1.16,0,0,0,.46.39,1.55,1.55,0,0,0,1.37,0Zm-1.28-.39a.71.71,0,0,1-.24-.55.54.54,0,0,1,.15-.41,1,1,0,0,1,.53-.21,7.29,7.29,0,0,1,1.06-.06h.22v.24a1.38,1.38,0,0,1-.14.62,1.08,1.08,0,0,1-.95.58.89.89,0,0,1-.63-.21Zm3.82.33V611a1.21,1.21,0,0,1,.32-.9,1.18,1.18,0,0,1,.87-.34.88.88,0,0,1,.69.26,1.25,1.25,0,0,1,.22.8v2.07a.2.2,0,0,0,.23.23c.15,0,.22-.08.22-.23v-2.11q0-1.41-1.29-1.41a1.54,1.54,0,0,0-.75.18,1.18,1.18,0,0,0-.52.54v-.47c0-.16-.07-.24-.22-.24a.21.21,0,0,0-.23.24v3.27a.23.23,0,0,0,.46,0Zm5.57.06a1.13,1.13,0,0,0,.46-.53v.47c0,.15.07.23.22.23s.21-.08.21-.23v-2.15a1.46,1.46,0,0,0-.32-1,1.3,1.3,0,0,0-1-.33,2.86,2.86,0,0,0-.63.08,3,3,0,0,0-.64.26.22.22,0,0,0-.13.18.26.26,0,0,0,.08.19.18.18,0,0,0,.21,0,2.68,2.68,0,0,1,.57-.24,2,2,0,0,1,.55-.07.81.81,0,0,1,.65.23,1.1,1.1,0,0,1,.2.73V611H249a6.54,6.54,0,0,0-1.32.1,1.24,1.24,0,0,0-.69.32,1.05,1.05,0,0,0,0,1.19,1.1,1.1,0,0,0,.46.39,1.38,1.38,0,0,0,.65.14,1.36,1.36,0,0,0,.71-.18Zm-1.28-.39a.73.73,0,0,1-.23-.55.54.54,0,0,1,.15-.41,1,1,0,0,1,.53-.21,7,7,0,0,1,1.05-.06h.23v.24a1.38,1.38,0,0,1-.14.62,1.13,1.13,0,0,1-.39.42,1.06,1.06,0,0,1-.57.16.92.92,0,0,1-.63-.21Zm3.83.33v-2a1.13,1.13,0,0,1,.29-.81,1.27,1.27,0,0,1,.83-.35h.1a.21.21,0,0,0,.22-.23.17.17,0,0,0-.06-.14.24.24,0,0,0-.15,0,1.56,1.56,0,0,0-.76.19,1.25,1.25,0,0,0-.49.55v-.48q0-.24-.21-.24a.21.21,0,0,0-.24.24v3.27a.21.21,0,0,0,.24.23.21.21,0,0,0,.23-.23Zm3.34,1.4,2-4.57a.27.27,0,0,0,0-.23.17.17,0,0,0-.18-.11.3.3,0,0,0-.15,0,.36.36,0,0,0-.1.15l-1.24,3-1.24-3a.26.26,0,0,0-.23-.19.21.21,0,0,0-.21.11.25.25,0,0,0,0,.24l1.43,3.33-.47,1.07a.29.29,0,0,0,0,.24c0,.06.08.1.18.1a.27.27,0,0,0,.25-.18Z" transform="translate(8 65)"/><path class="cls-35" d="M164.15,602.59l.53-1.25h2.83l.54,1.25a.42.42,0,0,0,.11.15.21.21,0,0,0,.16,0,.19.19,0,0,0,.19-.09.25.25,0,0,0,0-.23l-2.11-4.84a.29.29,0,0,0-.55,0l-2.11,4.84a.27.27,0,0,0,0,.23.19.19,0,0,0,.19.09.29.29,0,0,0,.26-.2ZM166.1,598l1.24,2.91h-2.49l1.24-2.91Zm5.42,4.58a1.19,1.19,0,0,0,.5-.54v.49c0,.16.08.23.24.23s.22-.07.22-.23v-4.91a.23.23,0,0,0-.46,0v2.14a1.21,1.21,0,0,0-.5-.55,1.49,1.49,0,0,0-.76-.2,1.47,1.47,0,0,0-1.18.51,2.06,2.06,0,0,0-.44,1.38,2.38,2.38,0,0,0,.2,1,1.49,1.49,0,0,0,.56.65,1.58,1.58,0,0,0,.86.23,1.49,1.49,0,0,0,.76-.2Zm-1.59-.58a2.07,2.07,0,0,1,0-2.21,1.2,1.2,0,0,1,1.77,0,2,2,0,0,1,0,2.21,1.18,1.18,0,0,1-1.77,0Zm5.38.52,1.35-3.15a.33.33,0,0,0,0-.24.17.17,0,0,0-.18-.1.21.21,0,0,0-.15,0,.27.27,0,0,0-.09.15l-1.26,3-1.23-3c-.06-.13-.13-.19-.24-.19a.22.22,0,0,0-.21.1.29.29,0,0,0,0,.24l1.35,3.15a.34.34,0,0,0,.32.24.34.34,0,0,0,.32-.24Zm3.95.07a1.14,1.14,0,0,0,.45-.52v.46a.2.2,0,0,0,.23.23c.14,0,.21-.07.21-.23v-2.14a1.49,1.49,0,0,0-.32-1,1.32,1.32,0,0,0-1-.34,2.41,2.41,0,0,0-.64.09,2.69,2.69,0,0,0-.64.26.19.19,0,0,0-.12.18.23.23,0,0,0,.07.18.18.18,0,0,0,.22,0,2.42,2.42,0,0,1,.56-.24,2.1,2.1,0,0,1,.56-.08.82.82,0,0,1,.64.23,1.08,1.08,0,0,1,.2.73v.27h-.23a7.38,7.38,0,0,0-1.32.1,1.24,1.24,0,0,0-.68.33.88.88,0,0,0-.2.63,1,1,0,0,0,.16.56,1.35,1.35,0,0,0,.46.39,1.53,1.53,0,0,0,.66.14,1.3,1.3,0,0,0,.71-.19Zm-1.28-.39a.68.68,0,0,1-.23-.55.56.56,0,0,1,.15-.41.94.94,0,0,1,.52-.21,7.29,7.29,0,0,1,1.06-.06h.22v.25a1.22,1.22,0,0,1-.14.61,1,1,0,0,1-.39.43,1,1,0,0,1-.56.15.89.89,0,0,1-.63-.21Zm3.82.33v-1.89a1.24,1.24,0,0,1,.32-.9,1.18,1.18,0,0,1,.87-.33.88.88,0,0,1,.69.26,1.22,1.22,0,0,1,.22.79v2.07c0,.16.07.23.23.23s.22-.07.22-.23v-2.11q0-1.41-1.29-1.41a1.54,1.54,0,0,0-.75.18,1.18,1.18,0,0,0-.52.54v-.46c0-.16-.07-.24-.22-.24a.21.21,0,0,0-.23.24v3.26a.23.23,0,0,0,.46,0Zm5.79.16a1.57,1.57,0,0,0,.53-.31.19.19,0,0,0,.07-.18.21.21,0,0,0-.1-.15.19.19,0,0,0-.21,0,1.42,1.42,0,0,1-.43.24,1.51,1.51,0,0,1-.41.06,1.14,1.14,0,0,1-.94-.4,1.77,1.77,0,0,1-.32-1.11,1.69,1.69,0,0,1,.32-1.09,1.18,1.18,0,0,1,.94-.38,1.22,1.22,0,0,1,.41.07,1.2,1.2,0,0,1,.43.23.17.17,0,0,0,.21,0,.19.19,0,0,0,.11-.15.17.17,0,0,0-.07-.18,1.57,1.57,0,0,0-.53-.31,2,2,0,0,0-.58-.1,1.61,1.61,0,0,0-1.25.5,1.93,1.93,0,0,0-.46,1.36,2.31,2.31,0,0,0,.21,1,1.52,1.52,0,0,0,.59.66,1.67,1.67,0,0,0,.91.24,1.88,1.88,0,0,0,.57-.09Zm3.57,0a1.68,1.68,0,0,0,.58-.3c.09-.06.13-.12.12-.2a.17.17,0,0,0-.11-.15c-.07,0-.14,0-.23,0a1.76,1.76,0,0,1-.51.26,2.35,2.35,0,0,1-.54.07,1.27,1.27,0,0,1-1-.37,1.55,1.55,0,0,1-.37-1h2.59a.19.19,0,0,0,.21-.21,1.9,1.9,0,0,0-.41-1.29,1.39,1.39,0,0,0-1.13-.48,1.67,1.67,0,0,0-.89.24,1.69,1.69,0,0,0-.6.67,2.25,2.25,0,0,0-.22,1,1.85,1.85,0,0,0,.49,1.37,1.76,1.76,0,0,0,1.32.5,2.27,2.27,0,0,0,.67-.1Zm.06-3a1.47,1.47,0,0,1,.3.94h-2.38a1.53,1.53,0,0,1,.37-.92,1.12,1.12,0,0,1,.89-.36,1,1,0,0,1,.82.34Zm3.8,2.86a1.22,1.22,0,0,0,.49-.54v.49c0,.16.08.23.24.23s.22-.07.22-.23v-4.91a.23.23,0,1,0-.46,0v2.14a1.24,1.24,0,0,0-.49-.55,1.52,1.52,0,0,0-.77-.2,1.47,1.47,0,0,0-1.18.51,2.06,2.06,0,0,0-.44,1.38,2.38,2.38,0,0,0,.2,1,1.56,1.56,0,0,0,.56.65,1.6,1.6,0,0,0,.86.23,1.52,1.52,0,0,0,.77-.2Zm-1.59-.58a2,2,0,0,1,0-2.21,1.08,1.08,0,0,1,.88-.39,1.09,1.09,0,0,1,.88.39,2,2,0,0,1,0,2.21,1.07,1.07,0,0,1-.88.4,1.06,1.06,0,0,1-.88-.4Zm7.79.58a1.24,1.24,0,0,0,.5-.54v.49a.23.23,0,0,0,.46,0v-4.91c0-.16-.08-.23-.24-.23s-.22.07-.22.23v2.14a1.27,1.27,0,0,0-.5-.55,1.5,1.5,0,0,0-.77-.2,1.48,1.48,0,0,0-1.18.51,2.05,2.05,0,0,0-.43,1.38,2.23,2.23,0,0,0,.2,1,1.49,1.49,0,0,0,.56.65,1.56,1.56,0,0,0,.85.23,1.5,1.5,0,0,0,.77-.2Zm-1.59-.58a2,2,0,0,1,0-2.21,1.09,1.09,0,0,1,.88-.39,1.11,1.11,0,0,1,.89.39,2,2,0,0,1,0,2.21,1.09,1.09,0,0,1-.89.4,1.07,1.07,0,0,1-.88-.4Zm6,.68a1.68,1.68,0,0,0,.58-.3.22.22,0,0,0,.12-.2.19.19,0,0,0-.11-.15c-.07,0-.14,0-.23,0a1.76,1.76,0,0,1-.51.26,2.35,2.35,0,0,1-.54.07,1.27,1.27,0,0,1-1-.37,1.55,1.55,0,0,1-.37-1h2.59a.19.19,0,0,0,.21-.21,1.9,1.9,0,0,0-.41-1.29,1.39,1.39,0,0,0-1.13-.48,1.67,1.67,0,0,0-.89.24,1.62,1.62,0,0,0-.6.67,2.12,2.12,0,0,0-.22,1,1.89,1.89,0,0,0,.48,1.37,1.8,1.8,0,0,0,1.33.5,2.27,2.27,0,0,0,.67-.1Zm.06-3a1.47,1.47,0,0,1,.3.94h-2.38a1.53,1.53,0,0,1,.37-.92,1.12,1.12,0,0,1,.89-.36,1,1,0,0,1,.82.34Zm2.1,4.16v-1.84a1.19,1.19,0,0,0,.5.54,1.5,1.5,0,0,0,.77.2,1.56,1.56,0,0,0,.85-.23,1.51,1.51,0,0,0,.57-.65,2.38,2.38,0,0,0,.19-1,2.35,2.35,0,0,0-.19-1,1.51,1.51,0,0,0-.57-.65,1.49,1.49,0,0,0-.85-.24,1.41,1.41,0,0,0-.77.21,1.19,1.19,0,0,0-.5.54v-.49a.23.23,0,1,0-.46,0v4.61a.23.23,0,1,0,.46,0Zm.32-1.88a2,2,0,0,1,0-2.21,1.09,1.09,0,0,1,.88-.39,1.11,1.11,0,0,1,.89.39,2,2,0,0,1,0,2.21,1.09,1.09,0,0,1-.89.4,1.07,1.07,0,0,1-.88-.4Zm4.69.78.12,0a.22.22,0,0,0,.22-.23.24.24,0,0,0,0-.14.11.11,0,0,0-.1,0h-.24c-.44,0-.67-.29-.67-.86v-3.9a.23.23,0,1,0-.46,0v4a1.29,1.29,0,0,0,.28.9,1,1,0,0,0,.77.31Zm3.28-.23a1.47,1.47,0,0,0,.58-.65,2.23,2.23,0,0,0,.21-1,2.26,2.26,0,0,0-.21-1,1.47,1.47,0,0,0-.58-.65,1.77,1.77,0,0,0-1.78,0,1.53,1.53,0,0,0-.58.65,2.41,2.41,0,0,0-.2,1,2.38,2.38,0,0,0,.2,1,1.53,1.53,0,0,0,.58.65,1.84,1.84,0,0,0,1.78,0Zm-1.77-.55a2,2,0,0,1,0-2.21,1.09,1.09,0,0,1,.88-.39,1.12,1.12,0,0,1,.89.39,2.07,2.07,0,0,1,0,2.21,1.1,1.1,0,0,1-.89.4,1.07,1.07,0,0,1-.88-.4Zm4.51,1.94,2-4.57a.33.33,0,0,0,0-.24.17.17,0,0,0-.18-.1.21.21,0,0,0-.15,0,.36.36,0,0,0-.1.15l-1.25,3-1.23-3a.25.25,0,0,0-.24-.19.22.22,0,0,0-.21.1.29.29,0,0,0,0,.24l1.43,3.33-.48,1.08a.31.31,0,0,0,0,.23.18.18,0,0,0,.19.11.27.27,0,0,0,.25-.18Zm3.27-1.41v-1.88a1.38,1.38,0,0,1,.29-.91,1,1,0,0,1,.77-.33.75.75,0,0,1,.63.26,1.3,1.3,0,0,1,.19.79v2.07c0,.16.08.23.24.23s.22-.07.22-.23v-1.88a1.38,1.38,0,0,1,.29-.91,1,1,0,0,1,.76-.33.75.75,0,0,1,.64.26,1.3,1.3,0,0,1,.19.79v2.07a.23.23,0,0,0,.46,0v-2.11c0-.94-.4-1.41-1.21-1.41a1.37,1.37,0,0,0-.75.21,1.29,1.29,0,0,0-.48.55,1,1,0,0,0-1.1-.76,1.19,1.19,0,0,0-1.15.71v-.45q0-.24-.21-.24a.21.21,0,0,0-.24.24v3.26c0,.16.08.23.24.23s.22-.07.22-.23Zm8.14.15a1.77,1.77,0,0,0,.58-.3.21.21,0,0,0,.11-.2.16.16,0,0,0-.1-.15.22.22,0,0,0-.24,0,1.6,1.6,0,0,1-.5.26,2.5,2.5,0,0,1-.54.07,1.24,1.24,0,0,1-1-.37,1.46,1.46,0,0,1-.37-1h2.59a.18.18,0,0,0,.2-.21,1.9,1.9,0,0,0-.4-1.29,1.4,1.4,0,0,0-1.13-.48,1.65,1.65,0,0,0-.89.24,1.72,1.72,0,0,0-.61.67,2.25,2.25,0,0,0-.21,1,1.89,1.89,0,0,0,.48,1.37,1.76,1.76,0,0,0,1.32.5,2.33,2.33,0,0,0,.68-.1Zm.05-3a1.47,1.47,0,0,1,.3.94H228.2a1.54,1.54,0,0,1,.38-.92,1.1,1.1,0,0,1,.88-.36,1,1,0,0,1,.82.34Zm2.1,2.81v-1.89a1.25,1.25,0,0,1,.33-.9,1.16,1.16,0,0,1,.87-.33.88.88,0,0,1,.69.26,1.22,1.22,0,0,1,.21.79v2.07a.23.23,0,1,0,.46,0v-2.11c0-.94-.43-1.41-1.3-1.41a1.6,1.6,0,0,0-.75.18,1.16,1.16,0,0,0-.51.54v-.46c0-.16-.08-.24-.22-.24a.21.21,0,0,0-.24.24v3.26c0,.16.08.23.24.23s.22-.07.22-.23Zm5.38.22a.8.8,0,0,0,.22,0,.16.16,0,0,0,.1-.08.27.27,0,0,0,0-.12c0-.12-.05-.19-.14-.19a.59.59,0,0,0-.17,0,.9.9,0,0,1-.25,0,.73.73,0,0,1-.62-.24,1.08,1.08,0,0,1-.19-.7v-2h1c.14,0,.21-.06.21-.19s-.07-.18-.21-.18h-1v-.94c0-.15-.07-.23-.22-.23a.21.21,0,0,0-.24.23v.94h-.55c-.15,0-.22.06-.22.18s.07.19.22.19h.55v2a1.31,1.31,0,0,0,.31,1,1.16,1.16,0,0,0,.91.33l.26,0Zm5-.25a.88.88,0,0,0,.39-.76.78.78,0,0,0-.24-.6,1.55,1.55,0,0,0-.73-.33l-.65-.15a1,1,0,0,1-.47-.22.54.54,0,0,1-.14-.38.59.59,0,0,1,.23-.48,1.12,1.12,0,0,1,.68-.18,1.34,1.34,0,0,1,.48.08,1.45,1.45,0,0,1,.46.24.19.19,0,0,0,.2,0,.21.21,0,0,0,.1-.16.19.19,0,0,0-.08-.18,1.62,1.62,0,0,0-.53-.3,2.19,2.19,0,0,0-.63-.1,1.54,1.54,0,0,0-1,.3.92.92,0,0,0-.37.77c0,.49.31.81.92.95l.65.15a1.3,1.3,0,0,1,.5.22.47.47,0,0,1,.16.37.55.55,0,0,1-.24.47,1.23,1.23,0,0,1-.7.16,2.15,2.15,0,0,1-.56-.07,2.08,2.08,0,0,1-.57-.27c-.08-.05-.14-.06-.2,0a.21.21,0,0,0-.08.17.15.15,0,0,0,.09.17,1.85,1.85,0,0,0,.63.31,2.57,2.57,0,0,0,.67.09,1.65,1.65,0,0,0,1-.28Zm3,.25a1,1,0,0,0,.23,0,.18.18,0,0,0,.09-.08.27.27,0,0,0,0-.12c0-.12-.05-.19-.14-.19a.59.59,0,0,0-.17,0,.9.9,0,0,1-.25,0,.73.73,0,0,1-.62-.24,1.08,1.08,0,0,1-.19-.7v-2h1c.14,0,.21-.06.21-.19s-.07-.18-.21-.18h-1v-.94c0-.15-.07-.23-.22-.23a.21.21,0,0,0-.24.23v.94h-.55c-.15,0-.22.06-.22.18s.07.19.22.19h.55v2a1.31,1.31,0,0,0,.31,1,1.16,1.16,0,0,0,.91.33l.26,0Zm1.34-.22v-1.94a1.13,1.13,0,0,1,.3-.82,1.24,1.24,0,0,1,.82-.34h.11c.15,0,.22-.09.21-.23a.18.18,0,0,0-.06-.15.19.19,0,0,0-.15,0,1.55,1.55,0,0,0-.75.19,1.22,1.22,0,0,0-.49.54v-.47c0-.16-.07-.24-.22-.24a.21.21,0,0,0-.23.24v3.26a.2.2,0,0,0,.23.23c.16,0,.23-.07.23-.23Zm3.9.06a1.14,1.14,0,0,0,.45-.52v.46a.2.2,0,0,0,.23.23c.14,0,.21-.07.21-.23v-2.14a1.49,1.49,0,0,0-.32-1,1.31,1.31,0,0,0-1-.34,2.64,2.64,0,0,0-1.27.35.2.2,0,0,0-.13.18.23.23,0,0,0,.08.18q.08.07.21,0a2.62,2.62,0,0,1,.56-.24,2.1,2.1,0,0,1,.56-.08.82.82,0,0,1,.64.23,1.08,1.08,0,0,1,.21.73v.27h-.24a7.38,7.38,0,0,0-1.32.1,1.27,1.27,0,0,0-.68.33.93.93,0,0,0-.2.63,1,1,0,0,0,.17.56,1.18,1.18,0,0,0,.46.39,1.51,1.51,0,0,0,.65.14,1.28,1.28,0,0,0,.71-.19Zm-1.28-.39a.72.72,0,0,1-.23-.55.56.56,0,0,1,.15-.41,1,1,0,0,1,.53-.21,7,7,0,0,1,1-.06h.23v.25a1.34,1.34,0,0,1-.14.61,1.16,1.16,0,0,1-.39.43,1.05,1.05,0,0,1-.57.15.92.92,0,0,1-.63-.21Zm5,.55a.9.9,0,0,0,.22,0,.16.16,0,0,0,.1-.08.5.5,0,0,0,0-.12c0-.12,0-.19-.13-.19a.74.74,0,0,0-.18,0,.78.78,0,0,1-.24,0,.77.77,0,0,1-.63-.24,1.15,1.15,0,0,1-.18-.7v-2h1c.14,0,.21-.06.21-.19s-.07-.18-.21-.18h-1v-.94a.23.23,0,0,0-.46,0v.94h-.56q-.21,0-.21.18c0,.13.07.19.21.19h.56v2a1.35,1.35,0,0,0,.3,1,1.19,1.19,0,0,0,.91.33l.27,0Zm3.09-.07a1.68,1.68,0,0,0,.58-.3c.09-.06.13-.12.12-.2a.17.17,0,0,0-.11-.15c-.07,0-.14,0-.23,0a1.76,1.76,0,0,1-.51.26,2.35,2.35,0,0,1-.54.07,1.27,1.27,0,0,1-1-.37,1.55,1.55,0,0,1-.37-1h2.59a.19.19,0,0,0,.21-.21,1.9,1.9,0,0,0-.41-1.29A1.39,1.39,0,0,0,257,599a1.67,1.67,0,0,0-.89.24,1.69,1.69,0,0,0-.6.67,2.25,2.25,0,0,0-.22,1,1.85,1.85,0,0,0,.49,1.37,1.76,1.76,0,0,0,1.32.5,2.27,2.27,0,0,0,.67-.1Zm.06-3a1.47,1.47,0,0,1,.3.94h-2.38a1.53,1.53,0,0,1,.37-.92,1.12,1.12,0,0,1,.89-.36,1,1,0,0,1,.82.34Zm4.77,2.79V599.3a.21.21,0,0,0-.23-.24c-.15,0-.22.08-.22.24v.49a1.27,1.27,0,0,0-.5-.55,1.5,1.5,0,0,0-.77-.2,1.61,1.61,0,0,0-.87.23,1.54,1.54,0,0,0-.57.64,2.13,2.13,0,0,0-.2.94,2.18,2.18,0,0,0,.2.95,1.54,1.54,0,0,0,.57.64,1.61,1.61,0,0,0,.87.23,1.56,1.56,0,0,0,.78-.2,1.32,1.32,0,0,0,.5-.57v.71a1.22,1.22,0,0,1-.29.87,1.1,1.1,0,0,1-.83.3,2.21,2.21,0,0,1-1.27-.39.15.15,0,0,0-.18,0,.23.23,0,0,0-.1.17.16.16,0,0,0,.09.17,2.2,2.2,0,0,0,.69.33,2.88,2.88,0,0,0,.78.1c1,0,1.55-.54,1.55-1.62Zm-2.56-.65a1.54,1.54,0,0,1-.33-1,1.52,1.52,0,0,1,.33-1,1.08,1.08,0,0,1,.89-.39,1.12,1.12,0,0,1,.9.39,1.52,1.52,0,0,1,.33,1,1.54,1.54,0,0,1-.33,1,1.12,1.12,0,0,1-.9.39,1.08,1.08,0,0,1-.89-.39Zm4.33-4c0-.21-.11-.31-.33-.31s-.33.1-.33.31.11.31.33.31.33-.1.33-.31Zm-.11,4.67v-3.21c0-.16-.07-.24-.22-.24s-.23.08-.23.24v3.21c0,.17.07.25.23.25s.22-.08.22-.25Zm3.46.18a1.73,1.73,0,0,0,.59-.3.21.21,0,0,0,.11-.2.17.17,0,0,0-.11-.15c-.06,0-.14,0-.23,0a1.6,1.6,0,0,1-.5.26,2.5,2.5,0,0,1-.54.07,1.24,1.24,0,0,1-1-.37,1.51,1.51,0,0,1-.37-1h2.58a.19.19,0,0,0,.21-.21,1.9,1.9,0,0,0-.4-1.29A1.4,1.4,0,0,0,267,599a1.65,1.65,0,0,0-.89.24,1.72,1.72,0,0,0-.61.67,2.25,2.25,0,0,0-.21,1,1.89,1.89,0,0,0,.48,1.37,1.76,1.76,0,0,0,1.32.5,2.22,2.22,0,0,0,.67-.1Zm.06-3a1.47,1.47,0,0,1,.3.94h-2.38a1.54,1.54,0,0,1,.38-.92,1.1,1.1,0,0,1,.88-.36,1,1,0,0,1,.82.34Zm3.85,2.78a.89.89,0,0,0,.38-.76.78.78,0,0,0-.24-.6,1.5,1.5,0,0,0-.73-.33l-.65-.15a1,1,0,0,1-.46-.22.5.5,0,0,1-.15-.38.57.57,0,0,1,.24-.48,1.09,1.09,0,0,1,.67-.18,1.36,1.36,0,0,1,.49.08,1.56,1.56,0,0,1,.46.24.19.19,0,0,0,.2,0,.25.25,0,0,0,.1-.16.18.18,0,0,0-.09-.18,1.58,1.58,0,0,0-.52-.3,2.3,2.3,0,0,0-.63-.1,1.54,1.54,0,0,0-1,.3.93.93,0,0,0-.38.77c0,.49.31.81.93.95l.65.15a1.25,1.25,0,0,1,.49.22.44.44,0,0,1,.16.37.57.57,0,0,1-.23.47,1.27,1.27,0,0,1-.71.16,2.08,2.08,0,0,1-.55-.07,1.84,1.84,0,0,1-.57-.27c-.08-.05-.15-.06-.2,0a.26.26,0,0,0-.09.17.19.19,0,0,0,.09.17,1.81,1.81,0,0,0,.64.31,2.52,2.52,0,0,0,.67.09,1.69,1.69,0,0,0,1-.28Z" transform="translate(8 65)"/><path class="cls-36" d="M63.76,613a1.12,1.12,0,0,0,.47-.47v.15a.42.42,0,0,0,.47.48c.31,0,.46-.16.46-.48v-4.45a.47.47,0,0,0-.94,0V610a1.16,1.16,0,0,0-.47-.46,1.48,1.48,0,0,0-.7-.17,1.61,1.61,0,0,0-.85.23,1.58,1.58,0,0,0-.56.66,2.56,2.56,0,0,0,0,2,1.55,1.55,0,0,0,.56.67,1.61,1.61,0,0,0,.85.23,1.41,1.41,0,0,0,.71-.18Zm-1.13-.84a1.73,1.73,0,0,1,0-1.79.85.85,0,0,1,.68-.3.83.83,0,0,1,.67.3,1.67,1.67,0,0,1,0,1.79.81.81,0,0,1-.67.31.83.83,0,0,1-.68-.31Zm5.95.94a1.8,1.8,0,0,0,.6-.24.47.47,0,0,0,.22-.25.41.41,0,0,0,0-.27.28.28,0,0,0-.19-.16.39.39,0,0,0-.33.07,2,2,0,0,1-.46.17,2.47,2.47,0,0,1-.44,0,1,1,0,0,1-1.13-1H69.1q.36,0,.36-.27a2,2,0,0,0-.45-1.36,1.61,1.61,0,0,0-1.24-.49,1.89,1.89,0,0,0-1,.24,1.85,1.85,0,0,0-.65.68,2,2,0,0,0-.24,1,2.08,2.08,0,0,0,.25,1,1.69,1.69,0,0,0,.69.66,2.38,2.38,0,0,0,1.07.23,3,3,0,0,0,.64-.08Zm-.15-2.86a1.11,1.11,0,0,1,.25.7H66.83a1.17,1.17,0,0,1,.31-.69.9.9,0,0,1,.67-.25.81.81,0,0,1,.62.24Zm2.71,3.8v-1.48a1.16,1.16,0,0,0,.48.45,1.45,1.45,0,0,0,.7.17,1.59,1.59,0,0,0,.85-.23,1.62,1.62,0,0,0,.56-.67,2.68,2.68,0,0,0,0-2,1.67,1.67,0,0,0-.57-.66,1.55,1.55,0,0,0-.84-.23,1.43,1.43,0,0,0-.72.18,1.07,1.07,0,0,0-.47.47v-.16a.41.41,0,0,0-.47-.47c-.31,0-.46.15-.46.47V614a.47.47,0,0,0,.94,0Zm.24-1.88a1.73,1.73,0,0,1,0-1.79.85.85,0,0,1,.68-.3.83.83,0,0,1,.67.3,1.67,1.67,0,0,1,0,1.79.81.81,0,0,1-.67.31.83.83,0,0,1-.68-.31Zm4.9,1a.38.38,0,0,0,.25-.13.5.5,0,0,0,.07-.29.6.6,0,0,0,0-.29s-.07-.07-.14-.06H76.2c-.37,0-.56-.23-.56-.68v-3.5a.47.47,0,0,0-.94,0v3.55c0,.93.42,1.4,1.26,1.4l.32,0Zm3.44-.21a1.61,1.61,0,0,0,.65-.67,2,2,0,0,0,.24-1,2.08,2.08,0,0,0-.24-1,1.65,1.65,0,0,0-.65-.66,2.25,2.25,0,0,0-2,0,1.65,1.65,0,0,0-.65.66,2.08,2.08,0,0,0-.23,1,2,2,0,0,0,.23,1,1.61,1.61,0,0,0,.65.67,2.25,2.25,0,0,0,2,0Zm-1.66-.79a1.67,1.67,0,0,1,0-1.79.83.83,0,0,1,.67-.3.85.85,0,0,1,.68.3,1.73,1.73,0,0,1,0,1.79.83.83,0,0,1-.68.31.81.81,0,0,1-.67-.31Zm4.47,2.28a.8.8,0,0,0,.21-.29L84.56,610a.5.5,0,0,0,0-.43.36.36,0,0,0-.34-.18.53.53,0,0,0-.3.07.67.67,0,0,0-.2.29L82.81,612l-.9-2.25a.71.71,0,0,0-.19-.3.45.45,0,0,0-.27-.07.45.45,0,0,0-.42.18.49.49,0,0,0,0,.44l1.29,2.95-.43,1a.5.5,0,0,0,0,.43.37.37,0,0,0,.35.18.56.56,0,0,0,.3-.07Zm3.67-1.76V611a1.14,1.14,0,0,1,.21-.72.7.7,0,0,1,.58-.25.52.52,0,0,1,.46.19,1.11,1.11,0,0,1,.14.62v1.77a.47.47,0,1,0,.94,0V611a1.14,1.14,0,0,1,.21-.72.7.7,0,0,1,.57-.25.53.53,0,0,1,.47.19,1,1,0,0,1,.14.62v1.77a.47.47,0,1,0,.94,0v-1.81c0-1-.41-1.51-1.24-1.51a1.37,1.37,0,0,0-.73.19,1.28,1.28,0,0,0-.5.53,1,1,0,0,0-1.08-.72,1.33,1.33,0,0,0-.67.17,1.16,1.16,0,0,0-.46.47v-.15c0-.32-.15-.47-.46-.47a.41.41,0,0,0-.46.47v2.83a.47.47,0,1,0,.94,0Zm8.07.42a1.8,1.8,0,0,0,.6-.24.47.47,0,0,0,.22-.25.41.41,0,0,0,0-.27.28.28,0,0,0-.19-.16.39.39,0,0,0-.33.07,1.81,1.81,0,0,1-.46.17,2.47,2.47,0,0,1-.44,0,1,1,0,0,1-1.12-1h2.26q.36,0,.36-.27a2,2,0,0,0-.45-1.36,1.61,1.61,0,0,0-1.24-.49,1.89,1.89,0,0,0-.95.24,1.85,1.85,0,0,0-.65.68,2,2,0,0,0-.24,1,2.08,2.08,0,0,0,.25,1,1.69,1.69,0,0,0,.69.66,2.39,2.39,0,0,0,1.08.23,3,3,0,0,0,.63-.08Zm-.15-2.86a1.11,1.11,0,0,1,.25.7H92.53a1.1,1.1,0,0,1,.3-.69.91.91,0,0,1,.67-.25.8.8,0,0,1,.62.24Zm2.71,2.44V611a1,1,0,0,1,.24-.69.89.89,0,0,1,.66-.25.61.61,0,0,1,.5.19,1,1,0,0,1,.16.62v1.77a.47.47,0,1,0,.94,0v-1.81c0-1-.43-1.51-1.3-1.51a1.73,1.73,0,0,0-.72.16,1.24,1.24,0,0,0-.5.49v-.16c0-.32-.15-.47-.46-.47a.41.41,0,0,0-.46.47v2.83a.47.47,0,1,0,.94,0Zm5.41.47.25-.05a.29.29,0,0,0,.18-.16.76.76,0,0,0,0-.27.39.39,0,0,0-.06-.26.2.2,0,0,0-.15-.06l-.17,0a.8.8,0,0,1-.23,0,.66.66,0,0,1-.51-.18.83.83,0,0,1-.16-.54V610.1h.8c.25,0,.37-.12.37-.35s-.12-.35-.37-.35h-.8v-.69a.47.47,0,1,0-.93,0v.69h-.39c-.25,0-.38.11-.38.35s.13.35.38.35h.39v1.6a1.28,1.28,0,0,0,1.45,1.44l.28,0Zm5.44-.28a1,1,0,0,0,.42-.86.85.85,0,0,0-.25-.65,1.38,1.38,0,0,0-.74-.33l-.75-.14c-.28-.05-.42-.18-.42-.4a.41.41,0,0,1,.17-.34.91.91,0,0,1,.55-.13,2.08,2.08,0,0,1,.41,0,2.27,2.27,0,0,1,.44.18.34.34,0,0,0,.46-.14.52.52,0,0,0,0-.25.32.32,0,0,0-.17-.21,2.43,2.43,0,0,0-1.18-.29,2.25,2.25,0,0,0-.81.14,1.23,1.23,0,0,0-.55.41,1,1,0,0,0-.2.62c0,.54.32.87,1,1l.75.14c.31.06.47.2.47.41a.37.37,0,0,1-.18.32.9.9,0,0,1-.54.13,2.29,2.29,0,0,1-.51-.06,2.05,2.05,0,0,1-.57-.2.33.33,0,0,0-.27,0,.3.3,0,0,0-.16.17.36.36,0,0,0,0,.25.42.42,0,0,0,.2.22,1.88,1.88,0,0,0,.64.23,3.37,3.37,0,0,0,.69.07,2,2,0,0,0,1.14-.31Zm3.09.28.26-.05a.35.35,0,0,0,.18-.16.77.77,0,0,0,0-.27c0-.13,0-.22-.06-.26a.2.2,0,0,0-.15-.06l-.17,0a.73.73,0,0,1-.22,0,.63.63,0,0,1-.51-.18.77.77,0,0,1-.16-.54V610.1h.79c.25,0,.38-.12.38-.35s-.13-.35-.38-.35H110v-.69a.47.47,0,0,0-.94,0v.69h-.39c-.25,0-.37.11-.37.35s.12.35.37.35H109v1.6a1.28,1.28,0,0,0,1.46,1.44l.27,0Zm1.88-.47v-1.55c0-.57.31-.88.92-.94l.17,0c.28,0,.41-.18.39-.44s-.15-.4-.36-.37a1.25,1.25,0,0,0-1.16.72v-.23c0-.32-.15-.47-.46-.47s-.45.15-.45.47v2.83a.48.48,0,1,0,1,0Zm3.82.32a1,1,0,0,0,.4-.48v.16q0,.48.45.48c.29,0,.43-.16.43-.48v-1.8a1.52,1.52,0,0,0-.39-1.15,1.66,1.66,0,0,0-1.19-.37,3.09,3.09,0,0,0-.58.06,3.62,3.62,0,0,0-.67.2.43.43,0,0,0-.23.21.45.45,0,0,0,0,.28.34.34,0,0,0,.16.21.36.36,0,0,0,.3,0,2.08,2.08,0,0,1,.53-.18,2,2,0,0,1,.47-.05.75.75,0,0,1,.55.16.74.74,0,0,1,.17.54v.16h-.26a6.13,6.13,0,0,0-1.27.1,1.28,1.28,0,0,0-.68.34,1,1,0,0,0-.21.65,1,1,0,0,0,.17.59,1.24,1.24,0,0,0,.49.41,1.49,1.49,0,0,0,.71.16,1.21,1.21,0,0,0,.66-.18Zm-1-.62a.55.55,0,0,1-.17-.41.39.39,0,0,1,.27-.39,3.1,3.1,0,0,1,1-.11h.26v.16a.92.92,0,0,1-.24.65.83.83,0,0,1-.62.25.73.73,0,0,1-.48-.15Zm5.14.77.26-.05a.3.3,0,0,0,.17-.16.76.76,0,0,0,0-.27.39.39,0,0,0-.06-.26.2.2,0,0,0-.15-.06l-.17,0a.8.8,0,0,1-.23,0,.66.66,0,0,1-.51-.18.83.83,0,0,1-.15-.54V610.1h.79c.25,0,.38-.12.38-.35s-.13-.35-.38-.35h-.79v-.69a.47.47,0,0,0-.94,0v.69h-.39c-.25,0-.38.11-.38.35s.13.35.38.35h.39v1.6a1.28,1.28,0,0,0,1.45,1.44l.28,0Zm3.33-.05a1.8,1.8,0,0,0,.6-.24.47.47,0,0,0,.22-.25.41.41,0,0,0,0-.27.28.28,0,0,0-.19-.16.39.39,0,0,0-.33.07,2,2,0,0,1-.46.17,2.58,2.58,0,0,1-.44,0,1,1,0,0,1-1.13-1h2.27q.36,0,.36-.27a2,2,0,0,0-.45-1.36,1.61,1.61,0,0,0-1.24-.49,1.89,1.89,0,0,0-1,.24,1.77,1.77,0,0,0-.65.68,2.18,2.18,0,0,0,0,2,1.69,1.69,0,0,0,.69.66,2.38,2.38,0,0,0,1.07.23,3,3,0,0,0,.64-.08Zm-.15-2.86a1.11,1.11,0,0,1,.25.7h-1.85a1.17,1.17,0,0,1,.31-.69.9.9,0,0,1,.67-.25.81.81,0,0,1,.62.24Zm4.85,3.84a1.76,1.76,0,0,0,.48-1.34v-2.89a.41.41,0,0,0-.47-.47.51.51,0,0,0-.34.11.51.51,0,0,0-.12.36V610a1.11,1.11,0,0,0-.48-.48,1.53,1.53,0,0,0-.72-.17,1.62,1.62,0,0,0-.86.23,1.55,1.55,0,0,0-.57.64,2.38,2.38,0,0,0,0,1.91A1.52,1.52,0,0,0,127,613a1.49,1.49,0,0,0,.73-.18,1.11,1.11,0,0,0,.48-.48v.5a.87.87,0,0,1-1,1,3.62,3.62,0,0,1-.51,0,2.5,2.5,0,0,1-.63-.22.3.3,0,0,0-.26,0,.39.39,0,0,0-.19.19.39.39,0,0,0,0,.26.36.36,0,0,0,.21.23,2.55,2.55,0,0,0,.69.23,4,4,0,0,0,.78.08,1.9,1.9,0,0,0,1.37-.45ZM126.61,612a1.41,1.41,0,0,1,0-1.63.94.94,0,0,1,1.38,0,1.45,1.45,0,0,1,0,1.63.94.94,0,0,1-1.38,0Zm4.55-3.81c0-.33-.18-.49-.55-.49a.63.63,0,0,0-.41.12.47.47,0,0,0-.15.37.45.45,0,0,0,.15.36.58.58,0,0,0,.41.14c.37,0,.55-.17.55-.5ZM131,613a.53.53,0,0,0,.12-.37v-2.76c0-.34-.16-.51-.47-.51s-.47.17-.47.51v2.76a.53.53,0,0,0,.12.37.51.51,0,0,0,.7,0Zm3.54.08a2,2,0,0,0,.6-.24.45.45,0,0,0,.21-.25.36.36,0,0,0,0-.27.28.28,0,0,0-.19-.16.39.39,0,0,0-.33.07,2,2,0,0,1-.46.17,2.58,2.58,0,0,1-.44,0,1,1,0,0,1-1.13-1H135q.36,0,.36-.27a1.93,1.93,0,0,0-.46-1.36,1.58,1.58,0,0,0-1.23-.49,1.86,1.86,0,0,0-.95.24,1.77,1.77,0,0,0-.65.68,2.18,2.18,0,0,0,0,2,1.69,1.69,0,0,0,.69.66,2.38,2.38,0,0,0,1.07.23,3,3,0,0,0,.64-.08Zm-.15-2.86a1.17,1.17,0,0,1,.25.7h-1.85a1.17,1.17,0,0,1,.31-.69.9.9,0,0,1,.67-.25.81.81,0,0,1,.62.24Zm4.25,2.63A1,1,0,0,0,139,612a.85.85,0,0,0-.25-.65A1.41,1.41,0,0,0,138,611l-.75-.14c-.28-.05-.43-.18-.43-.4a.39.39,0,0,1,.18-.34.9.9,0,0,1,.54-.13,2,2,0,0,1,.41,0,2.63,2.63,0,0,1,.45.18.35.35,0,0,0,.28,0,.33.33,0,0,0,.17-.16.36.36,0,0,0,0-.25.29.29,0,0,0-.17-.21,2.36,2.36,0,0,0-1.17-.29,2.21,2.21,0,0,0-.81.14,1.32,1.32,0,0,0-.56.41,1,1,0,0,0-.19.62c0,.54.31.87.95,1l.75.14c.31.06.46.2.46.41a.39.39,0,0,1-.17.32.9.9,0,0,1-.54.13,2.37,2.37,0,0,1-.52-.06,2.11,2.11,0,0,1-.56-.2.33.33,0,0,0-.27,0,.31.31,0,0,0-.17.17.36.36,0,0,0,0,.25.38.38,0,0,0,.2.22,1.88,1.88,0,0,0,.64.23,3.34,3.34,0,0,0,.68.07,1.93,1.93,0,0,0,1.14-.31Z" transform="translate(8 65)"/><path class="cls-36" d="M65,602.71a2.18,2.18,0,0,0,.72-.34.47.47,0,0,0,.2-.29.44.44,0,0,0,0-.3.39.39,0,0,0-.24-.19.44.44,0,0,0-.36.09,2,2,0,0,1-.52.22,2.15,2.15,0,0,1-.56.07,1.52,1.52,0,0,1-1.23-.49,2,2,0,0,1-.42-1.38,2.07,2.07,0,0,1,.42-1.38,1.55,1.55,0,0,1,1.23-.48,2,2,0,0,1,.54.07,1.64,1.64,0,0,1,.51.22.39.39,0,0,0,.36.08.41.41,0,0,0,.25-.19.47.47,0,0,0,.05-.33.56.56,0,0,0-.24-.3,2.4,2.4,0,0,0-.69-.3,3.21,3.21,0,0,0-.81-.1,2.89,2.89,0,0,0-1.42.33,2.27,2.27,0,0,0-.9.94,3.42,3.42,0,0,0,0,2.89,2.27,2.27,0,0,0,.9.94,2.89,2.89,0,0,0,1.42.33,3,3,0,0,0,.84-.11Zm2.64-.38v-1.64a1,1,0,0,1,.25-.69.86.86,0,0,1,.65-.26.6.6,0,0,1,.5.2.94.94,0,0,1,.16.62v1.77a.42.42,0,0,0,.48.48c.31,0,.46-.16.46-.48v-1.82c0-1-.43-1.5-1.3-1.5a1.58,1.58,0,0,0-.69.15,1.23,1.23,0,0,0-.51.45v-1.74a.47.47,0,1,0-.93,0v4.46c0,.32.15.48.46.48a.42.42,0,0,0,.47-.48Zm6.12.26a1.53,1.53,0,0,0,.65-.66,2.08,2.08,0,0,0,.23-1,2,2,0,0,0-.23-1,1.53,1.53,0,0,0-.65-.66,2.25,2.25,0,0,0-2,0,1.53,1.53,0,0,0-.65.66,2,2,0,0,0-.24,1,2.08,2.08,0,0,0,.24,1,1.53,1.53,0,0,0,.65.66,2.25,2.25,0,0,0,2,0Zm-1.67-.78a1.36,1.36,0,0,1-.25-.9,1.31,1.31,0,0,1,.25-.89.85.85,0,0,1,.68-.3.83.83,0,0,1,.67.3,1.31,1.31,0,0,1,.26.89,1.36,1.36,0,0,1-.26.9.83.83,0,0,1-.67.3.85.85,0,0,1-.68-.3Zm6,.78a1.53,1.53,0,0,0,.65-.66,2.08,2.08,0,0,0,.23-1,2,2,0,0,0-.23-1,1.53,1.53,0,0,0-.65-.66,2.25,2.25,0,0,0-2,0,1.53,1.53,0,0,0-.65.66,2,2,0,0,0-.24,1,2.08,2.08,0,0,0,.24,1,1.53,1.53,0,0,0,.65.66,2.25,2.25,0,0,0,2,0Zm-1.67-.78a1.36,1.36,0,0,1-.25-.9,1.31,1.31,0,0,1,.25-.89.85.85,0,0,1,.68-.3.83.83,0,0,1,.67.3,1.31,1.31,0,0,1,.26.89,1.36,1.36,0,0,1-.26.9.83.83,0,0,1-.67.3.85.85,0,0,1-.68-.3Zm5.81.7a1,1,0,0,0,.43-.86.87.87,0,0,0-.25-.64,1.45,1.45,0,0,0-.74-.33l-.75-.14c-.29,0-.43-.19-.43-.41a.42.42,0,0,1,.17-.34,1,1,0,0,1,.55-.12,1.48,1.48,0,0,1,.41.05,1.73,1.73,0,0,1,.44.17.36.36,0,0,0,.28,0,.37.37,0,0,0,.18-.17.34.34,0,0,0,0-.24.32.32,0,0,0-.17-.21,2.32,2.32,0,0,0-1.18-.29,2.09,2.09,0,0,0-.81.14,1.27,1.27,0,0,0-.55.4,1.05,1.05,0,0,0-.2.63c0,.54.32.87,1,1l.75.14c.31.06.47.19.47.4a.38.38,0,0,1-.18.33.94.94,0,0,1-.53.12,2.29,2.29,0,0,1-.52,0,2.37,2.37,0,0,1-.56-.2.31.31,0,0,0-.28,0,.27.27,0,0,0-.16.17.33.33,0,0,0,0,.24.38.38,0,0,0,.19.23,2.18,2.18,0,0,0,.65.23,4.08,4.08,0,0,0,.68.06,1.9,1.9,0,0,0,1.14-.31Zm3.62.24a2,2,0,0,0,.6-.25.44.44,0,0,0,.22-.25.41.41,0,0,0,0-.27.31.31,0,0,0-.19-.16.48.48,0,0,0-.33.07,1.6,1.6,0,0,1-.46.17,1.8,1.8,0,0,1-.44.05,1,1,0,0,1-1.13-1h2.27c.24,0,.36-.09.36-.28a1.93,1.93,0,0,0-.45-1.35,1.61,1.61,0,0,0-1.24-.49,1.89,1.89,0,0,0-1,.24,1.82,1.82,0,0,0-.65.67,2.18,2.18,0,0,0,0,2,1.57,1.57,0,0,0,.69.66,2.25,2.25,0,0,0,1.07.23,3,3,0,0,0,.64-.07Zm-.15-2.86a1.09,1.09,0,0,1,.25.7H84.12a1.17,1.17,0,0,1,.31-.69.9.9,0,0,1,.67-.26.82.82,0,0,1,.62.25Zm5.76,2.91.26-.06a.27.27,0,0,0,.17-.16.59.59,0,0,0,0-.27.36.36,0,0,0-.06-.25.15.15,0,0,0-.15-.06l-.17,0-.23,0a.66.66,0,0,1-.51-.18.83.83,0,0,1-.15-.54v-1.54h.79c.25,0,.38-.12.38-.36s-.13-.35-.38-.35h-.79v-.68a.47.47,0,0,0-.94,0v.68h-.39c-.25,0-.38.12-.38.35s.13.36.38.36h.39v1.59a1.28,1.28,0,0,0,1.45,1.44,1.42,1.42,0,0,0,.28,0Zm2-.47v-1.64a1,1,0,0,1,.24-.69.88.88,0,0,1,.66-.26.61.61,0,0,1,.5.2.94.94,0,0,1,.16.62v1.77a.47.47,0,1,0,.94,0v-1.82c0-1-.43-1.5-1.3-1.5a1.63,1.63,0,0,0-.7.15,1.15,1.15,0,0,0-.5.45v-1.74a.47.47,0,0,0-.94,0v4.46a.47.47,0,1,0,.94,0Zm5.89.42a2.23,2.23,0,0,0,.61-.25.45.45,0,0,0,.21-.25.36.36,0,0,0,0-.27.28.28,0,0,0-.19-.16.48.48,0,0,0-.33.07,1.5,1.5,0,0,1-.46.17,1.8,1.8,0,0,1-.44.05,1,1,0,0,1-1.12-1h2.26c.24,0,.36-.09.36-.28a1.93,1.93,0,0,0-.45-1.35,1.58,1.58,0,0,0-1.23-.49,1.84,1.84,0,0,0-1,.24,1.77,1.77,0,0,0-.66.67,2.14,2.14,0,0,0-.23,1,2,2,0,0,0,.24,1,1.6,1.6,0,0,0,.7.66,2.23,2.23,0,0,0,1.07.23,3,3,0,0,0,.63-.07Zm-.15-2.86a1.09,1.09,0,0,1,.25.7H97.59a1.11,1.11,0,0,1,.31-.69.9.9,0,0,1,.66-.26.79.79,0,0,1,.62.25Zm6.77,2.7a1.46,1.46,0,0,0,.56-.66,2.32,2.32,0,0,0,.21-1,2.25,2.25,0,0,0-.21-1,1.46,1.46,0,0,0-.56-.66,1.65,1.65,0,0,0-1.55-.07,1.27,1.27,0,0,0-.47.45v-1.75a.42.42,0,0,0-.48-.47.41.41,0,0,0-.46.47v4.46c0,.32.15.48.46.48s.46-.16.46-.48v-.16a1.2,1.2,0,0,0,.47.48,1.42,1.42,0,0,0,.72.17,1.51,1.51,0,0,0,.85-.23Zm-1.78-.78a1.36,1.36,0,0,1-.26-.9,1.31,1.31,0,0,1,.26-.89.83.83,0,0,1,.67-.3.85.85,0,0,1,.68.3,1.31,1.31,0,0,1,.25.89,1.36,1.36,0,0,1-.25.9.85.85,0,0,1-.68.3.83.83,0,0,1-.67-.3Zm5.76.94a2,2,0,0,0,.6-.25.44.44,0,0,0,.22-.25.36.36,0,0,0,0-.27.28.28,0,0,0-.19-.16.48.48,0,0,0-.33.07,1.5,1.5,0,0,1-.46.17,1.8,1.8,0,0,1-.44.05,1,1,0,0,1-1.12-1h2.26c.24,0,.36-.09.36-.28a1.93,1.93,0,0,0-.45-1.35,1.6,1.6,0,0,0-1.24-.49,1.83,1.83,0,0,0-.94.24,1.77,1.77,0,0,0-.66.67,2.14,2.14,0,0,0-.23,1,2,2,0,0,0,.24,1,1.57,1.57,0,0,0,.69.66,2.27,2.27,0,0,0,1.08.23,3,3,0,0,0,.63-.07Zm-.15-2.86a1.09,1.09,0,0,1,.25.7h-1.84a1.1,1.1,0,0,1,.3-.69.92.92,0,0,1,.67-.26.8.8,0,0,1,.62.25Zm4.26,2.62a1,1,0,0,0,.42-.86.83.83,0,0,0-.25-.64,1.38,1.38,0,0,0-.74-.33l-.75-.14c-.28,0-.42-.19-.42-.41a.42.42,0,0,1,.17-.34,1,1,0,0,1,.55-.12,1.53,1.53,0,0,1,.41.05,1.73,1.73,0,0,1,.44.17.36.36,0,0,0,.28,0,.37.37,0,0,0,.18-.17.5.5,0,0,0,0-.24.32.32,0,0,0-.17-.21A2.32,2.32,0,0,0,113,599a2,2,0,0,0-.81.14,1.21,1.21,0,0,0-.55.4,1.05,1.05,0,0,0-.2.63c0,.54.32.87,1,1l.75.14c.31.06.47.19.47.4a.38.38,0,0,1-.18.33,1,1,0,0,1-.54.12,2.26,2.26,0,0,1-.51,0,2.44,2.44,0,0,1-.57-.2.29.29,0,0,0-.27,0,.27.27,0,0,0-.16.17.33.33,0,0,0,0,.24.4.4,0,0,0,.2.23,2.11,2.11,0,0,0,.64.23,4.2,4.2,0,0,0,.69.06,1.9,1.9,0,0,0,1.14-.31Zm3.1.29.25-.06a.29.29,0,0,0,.18-.16.76.76,0,0,0,.05-.27.36.36,0,0,0-.06-.25.15.15,0,0,0-.15-.06l-.18,0-.22,0a.63.63,0,0,1-.51-.18.77.77,0,0,1-.16-.54v-1.54h.8a.32.32,0,0,0,.37-.36c0-.23-.12-.35-.37-.35h-.8v-.68c0-.32-.15-.47-.46-.47a.42.42,0,0,0-.48.47v.68H115c-.25,0-.37.12-.37.35a.32.32,0,0,0,.37.36h.39v1.59a1.28,1.28,0,0,0,1.46,1.44,1.47,1.47,0,0,0,.28,0Z" transform="translate(8 65)"/><path class="cls-36" d="M33,608.4a3.12,3.12,0,0,1-2,.76,3.22,3.22,0,0,1,0-6.44,3.08,3.08,0,0,1,2,.77l-.94,1a1.77,1.77,0,0,0-1.09-.37,1.8,1.8,0,0,0-1.29.54,1.89,1.89,0,0,0-.54,1.33,1.85,1.85,0,0,0,.54,1.32,1.77,1.77,0,0,0,1.29.55,1.72,1.72,0,0,0,1.09-.38l.94,1Z" transform="translate(8 65)"/><polygon class="cls-36" points="47.05 667.81 47.05 674.07 43 671.01 43 674.07 41.54 674.07 41.54 667.81 45.58 671 45.58 667.81 47.05 667.81 47.05 667.81"/><path class="cls-36" d="M45.7,605.94a3.15,3.15,0,1,1-3.14-3.23,3.18,3.18,0,0,1,3.14,3.23Zm-1.31,0a1.88,1.88,0,0,0-.54-1.33,1.8,1.8,0,0,0-2.59,0,1.86,1.86,0,1,0,2.59,2.66,1.89,1.89,0,0,0,.54-1.33Z" transform="translate(8 65)"/><path class="cls-36" d="M18.27,603.91a2,2,0,1,0,2,2,2,2,0,0,0-2-2Zm0,3.74A1.71,1.71,0,1,1,20,605.94a1.72,1.72,0,0,1-1.71,1.71Z" transform="translate(8 65)"/><path class="cls-36" d="M18.8,606.4a.69.69,0,0,1-.48.19.61.61,0,0,1-.66-.64.7.7,0,0,1,.19-.49.66.66,0,0,1,.47-.17.63.63,0,0,1,.46.18h0l.29-.28,0,0a1.11,1.11,0,0,0-1.53,0,1.11,1.11,0,0,0-.3.78,1,1,0,0,0,1.08,1,1.07,1.07,0,0,0,.78-.3l0,0-.3-.3,0,0Z" transform="translate(8 65)"/><path class="cls-36" d="M18.27,610l-.07,0c-.13-.06-3.2-1.64-3.2-3.31v-3.54l3.25-1.31,3.29,1.31v3.54c0,1.67-3.07,3.25-3.2,3.31l-.07,0Zm-3-6.68v3.33c0,.6.52,1.31,1.5,2.06a10.67,10.67,0,0,0,1.46.94c.46-.25,3-1.65,3-3v-3.33l-3-1.19-2.94,1.19Z" transform="translate(8 65)"/><line class="cls-37" x1="158.4" y1="661.99" x2="158.4" y2="679.89"/><polygon class="cls-38" points="130.13 219.38 131.26 219.38 131.26 222.73 134.54 219.38 136.05 219.38 132.45 223.08 136.28 227.35 134.82 227.35 131.26 223.36 131.26 227.35 130.13 227.35 130.13 219.38 130.13 219.38"/><polygon class="cls-39" points="130.13 219.38 131.26 219.38 131.26 222.73 134.54 219.38 136.05 219.38 132.45 223.08 136.28 227.35 134.82 227.35 131.26 223.36 131.26 227.35 130.13 227.35 130.13 219.38 130.13 219.38"/><polygon class="cls-40" points="133.48 229.45 133.48 209.93 145.07 209.93 145.07 229.45 133.48 229.45 133.48 229.45"/><polygon class="cls-40" points="120.41 209.86 145.07 209.86 145.07 237.67 120.41 237.67 120.41 209.86 120.41 209.86"/><path class="cls-40" d="M125.69,151.28l5.61,3.24a.32.32,0,0,1,.16.27v6.48a.33.33,0,0,0,.15.27l5,2.89a.31.31,0,0,0,.46-.27V151.54a.31.31,0,0,0-.15-.27L126,145a.31.31,0,0,0-.46.26V151a.3.3,0,0,0,.15.27Z" transform="translate(8 65)"/><path class="cls-39" d="M137.08,164.09a.3.3,0,0,1-.46.26l-5-2.89a.3.3,0,0,1-.15-.26v-6.48a.3.3,0,0,0-.16-.27l-5.61-3.24a.33.33,0,0,1-.15-.27v-5.78a.31.31,0,0,1,.46-.27l10.93,6.31a.31.31,0,0,1,.15.27Z" transform="translate(8 65)"/><path class="cls-39" d="M126,144.89a.31.31,0,0,0-.46.27v5.78a.33.33,0,0,0,.15.27l5.61,3.24a.3.3,0,0,1,.16.27v6.48a.3.3,0,0,0,.15.26l5,2.89a.3.3,0,0,0,.46-.26V151.47a.31.31,0,0,0-.15-.27Z" transform="translate(8 65)"/><polygon class="cls-40" points="120.41 237.59 120.41 209.86 144.04 209.86 144.04 237.59 120.41 237.59 120.41 237.59"/><polygon class="cls-40" points="120.41 209.78 145.07 209.78 145.07 237.59 120.41 237.59 120.41 209.78 120.41 209.78"/><path class="cls-38" d="M130.52,162.82l-5.61,3.24a.34.34,0,0,1-.31,0l-6.39-3.69a.32.32,0,0,1-.16-.27v-7.38a.3.3,0,0,1,.16-.27l5.61-3.24a.33.33,0,0,0,.15-.27v-5.78a.31.31,0,0,0-.46-.27l-10.93,6.31a.33.33,0,0,0-.15.27v13.88a.3.3,0,0,0,.15.26l12,6.94a.29.29,0,0,0,.31,0l10.93-6.3a.32.32,0,0,0,0-.54l-5-2.89a.29.29,0,0,0-.31,0Z" transform="translate(8 65)"/><path class="cls-38" d="M130.52,162.82l-5.61,3.24a.34.34,0,0,1-.31,0l-6.39-3.69a.32.32,0,0,1-.16-.27v-7.38a.3.3,0,0,1,.16-.27l5.61-3.24a.33.33,0,0,0,.15-.27v-5.78a.31.31,0,0,0-.46-.27l-10.93,6.31a.33.33,0,0,0-.15.27v13.88a.3.3,0,0,0,.15.26l12,6.94a.29.29,0,0,0,.31,0l10.93-6.3a.32.32,0,0,0,0-.54l-5-2.89a.29.29,0,0,0-.31,0Z" transform="translate(8 65)"/></svg>