<svg id="Calque_1" data-name="Calque 1" xmlns="http://www.w3.org/2000/svg"
 viewBox="0 0 575 197.45"><defs><style>.cls-1{fill:#061146;}.cls-2{fill:#2e54d4;}</style></defs>
 <path id="Tracé_115" data-name="Tracé 115" class="cls-1"
  d="M152,110.23a54.73,54.73,0,0,1,33.6,11.49l28.72-29.16C154.59,37.64,53.69,86,56,167.68c-2.29,81.
  41,98.38,129.45,158.24,75.12l-28.72-29.46c-35.35,29.09-91-.86-89.31-45.66-.74-30.15,25.14-58.08,5
  5.71-57.45" transform="translate(-56 -68.77)"/><path id="Tracé_116" data-name="Tracé 116" class="
  cls-1" d="M355.29,169.59,231.52,71.79V263.27h44.8V169.89l123.77,93.38V71.79h-44.8Z" transform="tra
  nslate(-56 -68.77)"/><path id="Tracé_117" data-name="Tracé 117" class="cls-2" d="M547.13,208.19c-5
  4.16,52.82-129.94-28-79.26-81.31,54.16-52.8,129.93,28,79.26,81.31M507.48,68.85C381,71,381.06,264.

  07,507.49,266.23c126.44-2.18,126.42-195.22,0-197.38" transform="translate(-56 -68.77)"/>
  <path id="Tracé_118" data-name="Tracé 118" class="cls-2" d="M620.41,78.8h-2v-4c4.43-1.2,7.69,
  3.43,2,4m2.49.72c6-4.12-1.8-7.33-6.13-5.78V85.07h1.63v-5c3.18-.28,4.66.31,5.31,5h1.63c-.34-2-

  .62-4.37-2.44-5.55" transform="translate(-56 -68.77)"/><path id="Tracé_119" data-name="Tracé 
  119" class="cls-2" d="M620.51,88c-11.37,0-11.36-17.34,0-17.39s11.36,17.34,0,17.39m7.36-16c-9.67
  -9.59-24.31,5-14.72,14.72s24.3-5.08,14.72-14.72" transform="translate(-56 -68.77)"/>
</svg>