<svg xmlns="http://www.w3.org/2000/svg" width="205.793" height="70.656" viewBox="0 0 205.793 70.656"><defs><style>.a{fill:#061146;}.b{fill:#2e54d4;}</style></defs><g transform="translate(-860.061 -295.987)"><g transform="translate(860.061 295.987)"><path class="a" d="M894.4,310.96a19.587,19.587,0,0,1,12.028,4.113L916.7,304.634A33.751,33.751,0,0,0,894.4,296.2c-18.917,0-34.336,15.818-34.336,35.328,0,19.4,15.419,35.222,34.336,35.222a34.216,34.216,0,0,0,22.308-8.331L906.424,347.87a19.565,19.565,0,0,1-26.111-1.9,20.436,20.436,0,0,1-5.86-14.446,20.687,20.687,0,0,1,5.86-14.554,19.419,19.419,0,0,1,14.083-6.012" transform="translate(-860.061 -296.147)"/><path class="a" d="M1166.241,335.385l-44.306-35.01v68.546h16.037V335.492l44.309,33.429V300.375h-16.04Z" transform="translate(-1059.12 -299.322)"/><path class="b" d="M1438.843,345.869a19.747,19.747,0,0,1-27.923.452q-.229-.222-.452-.452a21,21,0,0,1,0-29.107,19.751,19.751,0,0,1,27.929-.446q.226.219.446.446a21,21,0,0,1,0,29.107m-14.192-49.882c-19.019,0-34.437,15.818-34.437,35.328s15.418,35.328,34.437,35.328,34.439-15.818,34.439-35.328-15.421-35.328-34.439-35.328" transform="translate(-1263.046 -295.987)"/></g><g transform="translate(1058.399 295.987)"><path class="b" d="M1698.176,304.736h-.717v-1.423c.161-.016.367-.025.614-.025q1.153,0,1.154.719t-1.051.728m.893.26a1.059,1.059,0,0,0,.726-1.023.972.972,0,0,0-.465-.847,2.224,2.224,0,0,0-1.257-.312,7.292,7.292,0,0,0-1.2.113v4.056h.586v-1.8h.744q.9,0,1.154,1.794h.586a5.645,5.645,0,0,0-.339-1.351,1.423,1.423,0,0,0-.535-.633" transform="translate(-1694.485 -301.174)"/><path class="b" d="M1690.65,302.826a3.113,3.113,0,1,1,3.113-3.112,3.113,3.113,0,0,1-3.113,3.112m2.635-5.747a3.727,3.727,0,1,0,1.092,2.635,3.727,3.727,0,0,0-1.092-2.635" transform="translate(-1686.922 -295.987)"/></g></g></svg>